<?xml version="1.0" encoding="UTF-8" standalone="no"?>
<!-- Created with Inkscape (http://www.inkscape.org/) -->
<svg
   width="10.200377in"
   height="10.670693in"
   viewBox="0 0 259.0896 271.0356"
   version="1.1"
   id="svg_3d_corrected"
   xml:space="preserve"
   xmlns="http://www.w3.org/2000/svg"
   xmlns:svg="http://www.w3.org/2000/svg">
  <defs id="defs_3d_corrected">
    <!-- Gradient for the main housing to give a subtle top-down lighting effect -->
    <linearGradient id="housingGradient" x1="0%" y1="0%" x2="0%" y2="100%">
      <stop offset="0%" style="stop-color:#4a4a4a;stop-opacity:1" />
      <stop offset="100%" style="stop-color:#2a2a2a;stop-opacity:1" />
    </linearGradient>

    <!-- Gradient for the inner bevel of the housing -->
    <linearGradient id="innerBevel" x1="0%" y1="0%" x2="100%" y2="100%">
        <stop offset="0%" style="stop-color:#222;stop-opacity:1" />
        <stop offset="100%" style="stop-color:#000;stop-opacity:1" />
    </linearGradient>

    <!-- Radial gradient for the meter face to give it a curved look -->
    <radialGradient id="faceplateGradient" cx="50%" cy="40%" r="60%" fx="50%" fy="40%">
      <stop offset="0%" style="stop-color:#f8eeda;stop-opacity:1" />
      <stop offset="100%" style="stop-color:#f2d79a;stop-opacity:1" />
    </radialGradient>
    
    <!-- Radial gradient for the adjustment screw to give it a metallic sheen -->
    <radialGradient id="screwGradient" cx="50%" cy="50%" r="50%" fx="25%" fy="25%">
      <stop offset="0%" style="stop-color:#999;stop-opacity:1" />
      <stop offset="100%" style="stop-color:#222;stop-opacity:1" />
    </radialGradient>

    <!-- Gradient for the glass glare/reflection effect -->
    <linearGradient id="glareGradient" x1="0%" y1="0%" x2="0%" y2="100%">
        <stop offset="0%" style="stop-color:white;stop-opacity:0.3" />
        <stop offset="100%" style="stop-color:white;stop-opacity:0" />
    </linearGradient>

    <!-- Filter for a subtle inner shadow on the meter face -->
    <filter id="innerShadow" x="-20%" y="-20%" width="140%" height="140%">
      <feGaussianBlur in="SourceAlpha" stdDeviation="3" result="blur" />
      <feOffset in="blur" dx="2" dy="2" result="offsetBlur" />
      <feComposite in="SourceGraphic" in2="offsetBlur" operator="out" result="inverse" />
      <feFlood flood-color="black" flood-opacity="0.5" result="color" />
      <feComposite in="color" in2="inverse" operator="in" result="shadow" />
      <feComposite in="SourceGraphic" in2="shadow" operator="over" />
    </filter>
    
    <!-- Filter to blur the needle pivot shadow -->
    <filter id="shadowBlur">
      <feGaussianBlur in="SourceGraphic" stdDeviation="1.5" />
    </filter>
  </defs>
  <g id="layer4" transform="translate(-29.205193,-20.301249)">
    <g id="st-vu-meter">
      <!-- Housing main: Applied a linear gradient for lighting -->
      <rect
         style="fill:url(#housingGradient);fill-opacity:1;stroke:#555555;stroke-width:0.5"
         id="rect18"
         width="259.0896"
         height="271.03561"
         x="29.205193"
         y="20.301249"
         ry="26.227728" />
      <!-- Housing inside: Darker fill for depth -->
      <rect
         style="fill:url(#innerBevel);fill-opacity:1;"
         id="rect18-5"
         width="244.34711"
         height="256.97247"
         x="36.576436"
         y="27.372667"
         ry="24.866856" />
      <!-- Dark recessed area for the meter face -->
       <path
         id="rect22"
         style="display:inline;opacity:1;fill:#1b1b1b;fill-opacity:1;fill-rule:evenodd;stroke:none;stroke-width:0.132452;stroke-dasharray:none;stroke-opacity:1"
         d="M 121.78444,39.337754 A 112.50839,79.900719 0.77643048 0 0 65.469533,49.495273 112.50839,79.900719 0.77643048 0 0 8.8750543,115.64266 c -0.3766648,1.79234 -0.5746419,3.65176 -0.5746419,5.55935 v 46.37391 c 0,14.795 11.9103516,26.70535 26.7053466,26.70535 H 207.40402 c 14.795,0 26.70587,-11.91035 26.70587,-26.70535 v -46.37391 c 0,-1.59952 -0.13915,-3.16533 -0.40618,-4.68602 a 112.50839,79.900719 0.77643048 0 0 -55.732,-65.92621 112.50839,79.900719 0.77643048 0 0 -56.18727,-11.252026 z"
         transform="translate(37.446923,2.0402449)" />
      <!-- Meter Faceplate: Applied a radial gradient for a curved effect and an inner shadow filter -->
      <path
         id="rect22-7-5"
         style="fill:url(#faceplateGradient);fill-opacity:1;filter:url(#innerShadow);"
         d="m 159.11934,53.273556 a 102.88075,71.533424 0.7294021 0 0 -51.49605,9.093778 102.88075,71.533424 0.7294021 0 0 -51.751728,59.220136 c -0.344433,1.60463 -0.525468,3.26932 -0.525468,4.97714 v 41.51743 c 0,13.2456 10.891192,23.90864 24.420183,23.90864 H 237.41254 c 13.529,0 24.42065,-10.66304 24.42065,-23.90864 v -41.51743 c 0,-1.432 -0.12724,-2.83383 -0.3714,-4.19526 A 102.88075,71.533424 0.7294021 0 0 210.49871,63.347221 102.88075,71.533424 0.7294021 0 0 159.11934,53.273556 Z" />
      
      <!-- CORRECTED: Replaced non-standard path with a standard ellipse for the needle pivot shadow -->
      <ellipse cx="158.5" cy="188" rx="18" ry="7" style="fill:#000000;fill-opacity:0.4;filter:url(#shadowBlur);" />
      
      <!-- Vertical decorative fins -->
      <g id="decorative-fins">
        <rect style="fill:#161616;fill-opacity:1;" id="rect19" width="4.9904637" height="36.216507" x="252.37486" y="244.96048" ry="2.6742148" />
        <rect style="fill:#171717;fill-opacity:1;" id="rect19-0" width="4.9904637" height="36.957527" x="60.134674" y="244.21945" ry="2.7289314" />
        <rect style="fill:#161616;fill-opacity:1;" id="rect19-2" width="4.9904637" height="54.293629" x="259.47067" y="226.88336" ry="4.0090237" />
        <rect style="fill:#171717;fill-opacity:1;" id="rect19-2-7" width="4.9904637" height="54.293629" x="53.09116" y="226.88336" ry="4.0090237" />
        <rect style="fill:#161616;fill-opacity:1;" id="rect19-2-8" width="4.9904637" height="68.541298" x="266.56647" y="211.53259" ry="5.0610666" />
        <rect style="fill:#171717;fill-opacity:1;" id="rect19-2-4" width="4.9904637" height="68.924545" x="46.047642" y="209.75719" ry="5.0893655" />
        <rect style="fill:#161616;fill-opacity:1;" id="rect19-2-8-1" width="4.9904637" height="78.73188" x="273.66229" y="193.45512" ry="5.8135357" />
        <rect style="fill:#171717;fill-opacity:1;" id="rect19-2-8-1-7" width="4.9904637" height="78.73188" x="39.004128" y="192.68231" ry="5.8135357" />
      </g>

      <!-- All text and markings from original SVG -->
      <g id="markings_and_text" style="fill:#000000;fill-opacity:1;">
        <circle id="path25" cx="89.23885" cy="148.1869" r="1.5822824" />
        <circle id="path25-2" cx="97.637181" cy="139.41912" r="1.5822824" />
        <circle id="path25-2-9" cx="103.311585" cy="134.61168" r="1.5822824" />
        <circle id="path25-2-9-2" cx="112.26769" cy="128.37461" r="1.5822824" />
        <circle id="path25-2-9-2-7" cx="122.76838" cy="123.0726" r="1.5822824" />
        <circle id="path25-2-9-2-7-0" cx="134.35" cy="118.70672" r="1.5822824" />
        <circle id="path25-2-9-2-7-0-7" cx="146.88234" cy="116.06804" r="1.5822824" />
        <circle id="path25-2-9-2-7-0-7-4" cx="159.97461" cy="115.15783" r="1.5822824" />
        <circle id="path25-2-9-2-7-0-7-4-7" cx="173.21918" cy="116.21311" r="1.5822824" />
        <circle id="path25-2-9-2-7-0-7-4-7-4" cx="186.26449" cy="119.0888" r="1.5822824" />
        <text xml:space="preserve" style="font-style:normal;font-variant:normal;font-weight:900;font-stretch:normal;font-size:9.17222px;font-family:'Liber Grotesque Family';-inkscape-font-specification:'Liber Grotesque Family, Heavy';letter-spacing:1.63513px;fill-opacity:1;" x="195.87489" y="159.19443" id="text25"><tspan sodipodi:role="line" id="tspan25" x="197.51003" y="159.19443">SHAPETAKER</tspan></text>
        <text xml:space="preserve" style="font-style:normal;font-variant:normal;font-weight:900;font-stretch:normal;font-size:9.17222px;font-family:'Liber Grotesque Family';-inkscape-font-specification:'Liber Grotesque Family, Heavy';letter-spacing:0.134937px;fill-opacity:1;" x="64.551384" y="131.57159" id="text25-0" transform="rotate(-24.806925)"><tspan sodipodi:role="line" id="tspan25-9" style="font-size:7.05556px;" x="64.686325" y="131.57159">VU</tspan></text>
        <text xml:space="preserve" style="font-style:normal;font-variant:normal;font-weight:900;font-stretch:normal;font-size:10.5871px;font-family:'Liber Grotesque Family';-inkscape-font-specification:'Liber Grotesque Family, Heavy';letter-spacing:0.155751px;fill-opacity:1;" x="-43.380684" y="150.76343" id="text25-0-3" transform="rotate(-48.524288)"><tspan sodipodi:role="line" id="tspan25-9-3" style="font-size:8.1439px;" x="-43.380684" y="150.76343">20-</tspan></text>
        <text xml:space="preserve" style="font-style:normal;font-variant:normal;font-weight:900;font-stretch:normal;font-size:10.5871px;font-family:'Liber Grotesque Family';-inkscape-font-specification:'Liber Grotesque Family, Heavy';letter-spacing:0.155751px;fill-opacity:1;" x="4.145278" y="154.94975" id="text25-0-3-2" transform="rotate(-38.619057)"><tspan sodipodi:role="line" id="tspan25-9-3-0" style="font-size:8.1439px;" x="4.1452775" y="154.94975">10-</tspan></text>
        <text xml:space="preserve" style="font-style:normal;font-variant:normal;font-weight:900;font-stretch:normal;font-size:10.5871px;font-family:'Liber Grotesque Family';-inkscape-font-specification:'Liber Grotesque Family, Heavy';letter-spacing:0.155751px;fill-opacity:1;" x="38.004578" y="153.52602" id="text25-0-3-2-6" transform="rotate(-31.487725)"><tspan sodipodi:role="line" id="tspan25-9-3-0-0" style="font-size:8.1439px;" x="38.004578" y="153.52602">7-</tspan></text>
        <text xml:space="preserve" style="font-style:normal;font-variant:normal;font-weight:900;font-stretch:normal;font-size:10.5871px;font-family:'Liber Grotesque Family';-inkscape-font-specification:'Liber Grotesque Family, Heavy';letter-spacing:0.155751px;fill-opacity:1;" x="91.384682" y="138.05977" id="text25-0-3-2-6-4" transform="rotate(-16.846717)"><tspan sodipodi:role="line" id="tspan25-9-3-0-0-7" style="font-size:8.1439px;" x="91.384682" y="138.05977">5-</tspan></text>
        <text xml:space="preserve" style="font-style:normal;font-variant:normal;font-weight:900;font-stretch:normal;font-size:10.5871px;font-family:'Liber Grotesque Family';-inkscape-font-specification:'Liber Grotesque Family, Heavy';letter-spacing:0.155751px;fill-opacity:1;" x="130.95511" y="123.34164" id="text25-0-3-2-6-4-6" transform="rotate(-9.2477106)"><tspan sodipodi:role="line" id="tspan25-9-3-0-0-7-4" style="font-size:8.1439px;" x="130.95511" y="123.34164">3-</tspan></text>
        <text xml:space="preserve" style="font-style:normal;font-variant:normal;font-weight:900;font-stretch:normal;font-size:10.5871px;font-family:'Liber Grotesque Family';-inkscape-font-specification:'Liber Grotesque Family, Heavy';letter-spacing:0.155751px;fill-opacity:1;" x="158.64084" y="105.94382" id="text25-0-3-2-6-4-6-3" transform="rotate(-1.9329744)"><tspan sodipodi:role="line" id="tspan25-9-3-0-0-7-4-6" style="font-size:8.1439px;" x="158.64084" y="105.94382">2-</tspan></text>
        <text xml:space="preserve" style="font-style:normal;font-variant:normal;font-weight:900;font-stretch:normal;font-size:10.5871px;font-family:'Liber Grotesque Family';-inkscape-font-specification:'Liber Grotesque Family, Heavy';letter-spacing:0.155751px;fill-opacity:1;" x="185.32143" y="83.88327" id="text25-0-3-2-6-4-6-3-8" transform="rotate(5.6578805)"><tspan sodipodi:role="line" id="tspan25-9-3-0-0-7-4-6-7" style="font-size:8.1439px;" x="185.32143" y="83.88327">1-</tspan></text>
        <text xml:space="preserve" style="font-style:normal;font-variant:normal;font-weight:900;font-stretch:normal;font-size:10.5871px;font-family:'Liber Grotesque Family';-inkscape-font-specification:'Liber Grotesque Family, Heavy';letter-spacing:0.155751px;fill-opacity:1;" x="212.83058" y="56.183689" id="text25-0-3-2-6-4-6-3-8-3" transform="rotate(13.804529)"><tspan sodipodi:role="line" id="tspan25-9-3-0-0-7-4-6-7-2" style="font-size:8.1439px;" x="212.98633" y="56.183689">0</tspan></text>
        <text xml:space="preserve" style="font-style:normal;font-variant:normal;font-weight:900;font-stretch:normal;font-size:10.5871px;font-family:'Liber Grotesque Family';-inkscape-font-specification:'Liber Grotesque Family, Heavy';letter-spacing:0.155751px;fill:#b23917;fill-opacity:1;" x="237.19069" y="19.863659" id="text25-0-3-2-6-4-6-3-8-3-3" transform="rotate(23.473844)"><tspan sodipodi:role="line" id="tspan25-9-3-0-0-7-4-6-7-2-6" style="font-size:8.1439px;fill:#b23917;fill-opacity:1;" x="237.19069" y="19.863659">1+</tspan></text>
        <text xml:space="preserve" style="font-style:normal;font-variant:normal;font-weight:900;font-stretch:normal;font-size:10.5871px;font-family:'Liber Grotesque Family';-inkscape-font-specification:'Liber Grotesque Family, Heavy';letter-spacing:0.155751px;fill:#b23917;fill-opacity:1;" x="255.99095" y="-42.682663" id="text25-0-3-2-6-4-6-3-8-3-3-1" transform="rotate(38.026687)"><tspan sodipodi:role="line" id="tspan25-9-3-0-0-7-4-6-7-2-6-6" style="font-size:8.1439px;fill:#b23917;fill-opacity:1;" x="255.99095" y="-42.682663">2+</tspan></text>
        <text xml:space="preserve" style="font-style:normal;font-variant:normal;font-weight:900;font-stretch:normal;font-size:10.5871px;font-family:'Liber Grotesque Family';-inkscape-font-specification:'Liber Grotesque Family, Heavy';letter-spacing:0.155751px;fill:#b23917;fill-opacity:1;" x="272.06821" y="-71.387688" id="text25-0-3-2-6-4-6-3-8-3-3-1-5" transform="rotate(44.644537)"><tspan sodipodi:role="line" id="tspan25-9-3-0-0-7-4-6-7-2-6-6-4" style="font-size:8.1439px;fill:#b23917;fill-opacity:1;" x="272.06821" y="-71.387688">3+</tspan></text>
        <text xml:space="preserve" style="font-style:normal;font-variant:normal;font-weight:900;font-stretch:normal;font-size:9.17222px;font-family:'Liber Grotesque Family';-inkscape-font-specification:'Liber Grotesque Family, Heavy';letter-spacing:0.134937px;fill:#b23917;fill-opacity:1;" x="236.22183" y="6.1910048" id="text25-0-6" transform="rotate(22.68453)"><tspan sodipodi:role="line" id="tspan25-9-4" style="font-size:7.05556px;fill:#b23917;fill-opacity:1;" x="236.35677" y="6.1910048">VU</tspan></text>
        <path id="path29" style="fill:none;stroke:#000000;stroke-width:1.5875;" d="m 159.29835,93.994003 c -22.26533,-5.882426 -47.04623,-4.536405 -67.761347,3.511987 -16.32021,6.34085 -27.573587,18.24695 -35.168167,28.30748" transform="translate(29.205193,20.301249)" />
        <path id="path30" style="fill:none;stroke:#b23917;stroke-width:1.5875;" d="M 204.96014,123.831 C 197.17932,113.75556 185.8973,104.81693 169.80972,97.266348 166.54166,95.732509 162.92667,94.85207 159.30328,93.907993" transform="translate(29.205193,20.301249)" />
        <path style="stroke:#000000;stroke-width:1.5875;fill:none;" d="M 85.949113,145.38311 81.679,142.17248" id="path31" />
        <path style="stroke:#000000;stroke-width:1.5875;fill:none;" d="m 88.386639,142.52642 -5.340905,-4.96425" id="path32" />
        <path style="stroke:#000000;stroke-width:1.5875;fill:none;" d="m 101.5107,129.1951 -3.873521,-4.98944" id="path33" />
        <path style="stroke:#000000;stroke-width:1.5875;fill:none;" d="m 114.22763,120.65015 -2.86592,-5.10882" id="path34" />
        <path style="stroke:#000000;stroke-width:1.5875;fill:none;" d="m 120.74865,117.65962 -1.4122,-3.1982" id="path35" />
        <path style="stroke:#000000;stroke-width:1.5875;fill:none;" d="m 128.30804,115.16751 -2.11829,-5.89799" id="path36" />
        <path style="stroke:#000000;stroke-width:1.5875;fill:none;" d="m 137.11349,112.80001 -0.99684,-4.11198" id="path37" />
        <path style="stroke:#000000;stroke-width:1.5875;fill:none;" d="m 147.20653,111.30475 -0.74763,-6.8533" id="path38" />
        <path style="stroke:#000000;stroke-width:1.5875;fill:none;" d="m 159.00251,110.34944 0.12461,-6.64563" id="path39" />
        <path style="stroke:#000000;stroke-width:1.5875;fill:none;" d="m 172.33529,111.18014 0.95531,-6.52102" id="path40" />
        <path style="stroke:#000000;stroke-width:1.5875;fill:none;" d="m 179.85315,112.13545 0.87224,-3.94584" id="path41" />
        <path style="stroke:#b23917;stroke-width:1.5875;fill:none;" d="m 195.63651,116.20589 1.20452,-3.03206" id="path43" />
        <path style="stroke:#000000;stroke-width:1.5875;fill:none;" d="m 187.49562,113.67225 1.74448,-5.56571" id="path42" />
        <path style="stroke:#b23917;stroke-width:1.5875;fill:none;" d="m 203.69433,119.57024 2.61671,-4.94268" id="path44" />
        <path style="stroke:#b23917;stroke-width:1.5875;fill:none;" d="m 219.64382,129.74635 3.61356,-4.23659" id="path45" />
        <path style="stroke:#b23917;stroke-width:1.69305;fill:none;" d="m 233.37926,144.49318 5.38341,-3.74186" id="path46" />
        <text xml:space="preserve" style="font-style:normal;font-variant:normal;font-weight:450;font-stretch:normal;font-size:5.50508px;font-family:'Liber Grotesque Family';-inkscape-font-specification:'Liber Grotesque Family,  weight=450';letter-spacing:1.59475px;fill-opacity:1;" x="-50.647621" y="172.4422" id="text46" transform="matrix(0.64458548,-0.76662272,0.75165547,0.65742071,0,0)"><tspan sodipodi:role="line" id="tspan46" x="-49.052872" y="172.4422">0</tspan></text>
        <text xml:space="preserve" style="font-style:normal;font-variant:normal;font-weight:450;font-stretch:normal;font-size:5.21124px;font-family:'Liber Grotesque Family';-inkscape-font-specification:'Liber Grotesque Family,  weight=450';letter-spacing:1.35249px;fill-opacity:1;" x="-39.264275" y="175.40523" id="text46-2" transform="matrix(0.70954035,-0.69823988,0.7613045,0.6601835,0,0)"><tspan sodipodi:role="line" id="tspan46-0" style="letter-spacing:-0.150276px;" x="-39.264275" y="175.40523">20</tspan></text>
        <text xml:space="preserve" style="font-style:normal;font-variant:normal;font-weight:450;font-stretch:normal;font-size:5.21124px;font-family:'Liber Grotesque Family';-inkscape-font-specification:'Liber Grotesque Family,  weight=450';letter-spacing:1.35249px;fill-opacity:1;" x="27.445862" y="174.06479" id="text46-2-2" transform="matrix(0.87550876,-0.47378354,0.54807251,0.84560235,0,0)"><tspan sodipodi:role="line" id="tspan46-0-5" style="letter-spacing:-0.150276px;" x="27.445862" y="174.06479">40</tspan></text>
        <text xml:space="preserve" style="font-style:normal;font-variant:normal;font-weight:450;font-stretch:normal;font-size:5.21124px;font-family:'Liber Grotesque Family';-inkscape-font-specification:'Liber Grotesque Family,  weight=450';letter-spacing:1.35249px;fill-opacity:1;" x="114.75133" y="140.1382" id="text46-2-2-5" transform="matrix(0.98979629,-0.10625313,0.18633425,0.9903062,0,0)"><tspan sodipodi:role="line" id="tspan46-0-5-1" style="letter-spacing:-0.150276px;" x="114.75133" y="140.1382">60</tspan></text>
        <text xml:space="preserve" style="font-style:normal;font-variant:normal;font-weight:450;font-stretch:normal;font-size:5.21124px;font-family:'Liber Grotesque Family';-inkscape-font-specification:'Liber Grotesque Family,  weight=450';letter-spacing:1.35249px;fill-opacity:1;" x="157.94716" y="118.70664" id="text46-2-2-5-0" transform="matrix(0.99513136,0.02645857,0.05284189,1.0062974,0,0)"><tspan sodipodi:role="line" id="tspan46-0-5-1-7" style="letter-spacing:-0.150276px;" x="157.94716" y="118.70664">80</tspan></text>
        <text xml:space="preserve" style="font-style:normal;font-variant:normal;font-weight:450;font-stretch:normal;font-size:5.21124px;font-family:'Liber Grotesque Family';-inkscape-font-specification:'Liber Grotesque Family,  weight=450';letter-spacing:1.35249px;fill-opacity:1;" x="213.20253" y="68.529312" id="text46-2-2-5-0-9" transform="matrix(0.95329328,0.28673758,-0.2131486,0.98488294,0,0)"><tspan sodipodi:role="line" id="tspan46-0-5-1-7-1" style="letter-spacing:-0.150276px;" x="213.20253" y="68.529312">100</tspan></text>
      </g>
      
      <!-- Calibration screw and surrounding elements -->
      <g id="calibration_assembly">
        <path
         id="path18-6-5"
         style="fill:#171717;fill-opacity:1;"
         d="m 114.74508,201.79037 c -1.17089,0 -2.11357,0.94268 -2.11357,2.11357 v 23.82852 a 18.61248,18.047438 0 0 0 -1.63297,0.93999 v -24.29051 c 0,-1.38698 -1.1131,-2.50372 -2.49546,-2.50372 -1.38236,0 -2.49494,1.11674 -2.49494,2.50372 v 28.89798 c 0,0.0445 8.4e-4,0.0889 0.003,0.13281 a 18.61248,18.047438 0 0 0 -3.32072,10.28878 18.61248,18.047438 0 0 0 3.21324,10.13633 c -0.0549,0.17823 -0.0847,0.3681 -0.0847,0.56482 v 21.97024 c 0,1.05447 0.84929,1.90324 1.90376,1.90324 h 1.18339 c 1.05447,0 1.90376,-0.84877 1.90376,-1.90324 v -17.76584 a 18.61248,18.047438 0 0 0 1.50378,0.8971 v 17.22996 c 0,0.85419 0.68731,1.54202 1.54151,1.54202 h 1.90686 c 0.8542,0 1.54203,-0.68783 1.54203,-1.54202 V 261.3273 a 18.61248,18.047438 0 0 0 1.50378,0.2589 v 15.62386 c 0,0.85419 0.68783,1.54202 1.54202,1.54202 h 1.90635 c 0.8542,0 1.54202,-0.68783 1.54202,-1.54202 V 261.5862 a 18.61248,18.047438 0 0 0 1.50379,-0.2589 v 15.40682 c 0,0.85419 0.68782,1.54202 1.54202,1.54202 h 1.90686 c 0.8542,0 1.54151,-0.68783 1.54151,-1.54202 v -17.22996 a 18.61248,18.047438 0 0 0 1.50378,-0.8971 v 17.76584 c 0,1.05447 0.84929,1.90324 1.90376,1.90324 h 1.18339 c 1.05447,0 1.90376,-0.84877 1.90376,-1.90324 v -21.97024 c 0,-0.19672 -0.0298,-0.38658 -0.0847,-0.56482 a 18.61248,18.047438 0 0 0 3.21324,-10.13633 18.61248,18.047438 0 0 0 -2.45514,-8.95915 c 0.0207,-0.13381 0.031,-0.27133 0.031,-0.41134 v -29.67416 c 0,-1.42423 -1.11258,-2.5709 -2.49493,-2.5709 -1.38236,0 -2.49546,1.14667 -2.49546,2.5709 v 24.62899 a 18.61248,18.047438 0 0 0 -1.63246,-1.06609 v -24.31582 c 0,-1.17089 -0.94267,-2.11357 -2.11356,-2.11357 h -0.76378 c -1.17089,0 -2.11357,0.94268 -2.11357,2.11357 v 22.30354 a 18.61248,18.047438 0 0 0 -1.63246,-0.32659 v -22.13767 c 0,-1.08183 -0.87102,-1.95285 -1.95285,-1.95285 h -1.0852 c -1.08183,0 -1.95234,0.87102 -1.95234,1.95285 v 22.02036 a 18.61248,18.047438 0 0 0 -1.63297,0.24702 v -22.10666 c 0,-1.17089 -0.94268,-2.11357 -2.11357,-2.11357 z"
         transform="translate(37.446923,2.0402449)" />
        <circle
         style="fill:#6b6b6b;fill-opacity:0.5"
         id="path18"
         cx="158.75"
         cy="245.74168"
         r="13.693438" />
        <!-- Calibration screw: Applied radial gradient for metallic look -->
        <circle
         style="fill:url(#screwGradient);fill-opacity:1;"
         id="path18-6"
         cx="158.75"
         cy="245.74168"
         r="11.784876" />
        <!-- Screw slot -->
        <rect
         style="fill:#101010;fill-opacity:1;"
         id="rect20"
         width="13.939898"
         height="2.0510621"
         x="169.85199"
         y="231.2079"
         transform="rotate(5.429)" />
      </g>
      
      <!-- New element for glass glare/reflection -->
      <path
         id="glassGlare"
         style="fill:url(#glareGradient); stroke:none;"
         d="m 76,55 a 102.88,71.53 0 0 1 165,0 L 230,65 A 80,60 0 0 0 90,65 Z" />

    </g>
  </g>
</svg>