<?xml version="1.0" encoding="UTF-8" standalone="no"?>
<svg
   width="100"
   height="100"
   version="1.1"
   id="svg27"
   xmlns="http://www.w3.org/2000/svg"
   xmlns:svg="http://www.w3.org/2000/svg">
  <defs
     id="defs27" />
  <!-- Outer rectangular border (like vintage meter housing) -->
  <rect
     x="2"
     y="2"
     width="96"
     height="96"
     rx="8"
     ry="8"
     fill="#2a2a2a"
     stroke="#1a1a1a"
     stroke-width="2"
     id="outer-border" />
  <rect
     x="4"
     y="4"
     width="92"
     height="92"
     rx="6"
     ry="6"
     fill="#353535"
     id="inner-border" />
  <rect
     x="6"
     y="6"
     width="88"
     height="88"
     rx="4"
     ry="4"
     fill="#404040"
     id="meter-housing" />
  <!-- Drop shadow for curved meter face -->
  <path
     d="M 15,20 L 85,20 L 85,60 Q 85,80 50,77 Q 15,80 15,60 Z"
     fill="#000000"
     opacity="0.15"
     transform="translate(1,1)"
     id="face-shadow" />
  <!-- Outer bezel - curved rectangular shape like vintage meter (flat top, curved bottom) -->
  <path
     d="M 15,20 L 85,20 L 85,60 Q 85,80 50,77 Q 15,80 15,60 Z"
     fill="#1a1a1a"
     id="outer-bezel" />
  <path
     d="M 16,21 L 84,21 L 84,59 Q 84,78 50,76 Q 16,78 16,59 Z"
     fill="#202020"
     opacity="0.9"
     id="mid-bezel" />
  <path
     d="M 17,22 L 83,22 L 83,58 Q 83,76 50,74 Q 17,76 17,58 Z"
     fill="#0a0a0a"
     id="inner-bezel" />
  <!-- Meter face - curved cream-colored area (flat top, curved bottom) -->
  <path
     d="M 19,24 L 81,24 L 81,56 Q 81,74 50,72 Q 19,74 19,56 Z"
     fill="#f4e6a1"
     id="meter-face" />
  <path
     d="M 20,25 L 80,25 L 80,55 Q 80,72 50,71 Q 20,72 20,55 Z"
     fill="#f7e9a8"
     opacity="0.9"
     id="meter-face-highlight" />
  <!-- Red overload section - positioned on the right side -->
  <path
     d="M 66.771484,41.940186 H 81 v 16.051603 q -3.283504,8.025802 -14.228516,4.012901 z"
     fill="#cc2211"
     opacity="0.7"
     id="red-zone"
     style="stroke-width:0.937238" />
  <!-- Scale markings -->
  <g
     stroke="#2a2a2a"
     stroke-width="0.8"
     fill="#2a2a2a"
     id="scale-marks">
    <!-- Major tick marks following the meter arc - fine-tuned position -->
    <line
       x1="24"
       y1="55"
       x2="27"
       y2="51"
       id="tick-20" />
    <line
       x1="28"
       y1="36"
       x2="31"
       y2="39"
       id="tick-10" />
    <line
       x1="37"
       y1="28"
       x2="40"
       y2="31"
       id="tick-5" />
    <line
       x1="50"
       y1="26"
       x2="50"
       y2="30"
       id="tick-0" />
    <line
       x1="63"
       y1="28"
       x2="60"
       y2="31"
       id="tick-1" />
    <line
       x1="72"
       y1="36"
       x2="69"
       y2="39"
       id="tick-2" />
    <line
       x1="76"
       y1="55"
       x2="73"
       y2="51"
       id="tick-3" />
    <!-- Minor tick marks -->
    <line
       x1="31"
       y1="32"
       x2="33"
       y2="34"
       stroke-width="0.5"
       id="minor-1" />
    <line
       x1="43"
       y1="27"
       x2="44"
       y2="30"
       stroke-width="0.5"
       id="minor-2" />
    <line
       x1="57"
       y1="27"
       x2="56"
       y2="30"
       stroke-width="0.5"
       id="minor-3" />
    <line
       x1="69"
       y1="32"
       x2="67"
       y2="34"
       stroke-width="0.5"
       id="minor-4" />
  </g>
  <!-- VU Scale numbers -->
  <g
     font-family="Arial, sans-serif"
     font-size="4"
     font-weight="bold"
     fill="#2a2a2a"
     text-anchor="middle"
     id="vu-numbers">
    <path
       d="M 21.333984,59.236328 V 58.6875 h 1.078125 v 0.548828 z m 3.13086,0.253906 V 60 h -1.923828 q 0.03125,-0.289063 0.1875,-0.546875 0.15625,-0.259766 0.617187,-0.6875 0.371094,-0.345703 0.455078,-0.46875 0.113281,-0.169922 0.113281,-0.335938 0,-0.183593 -0.09961,-0.28125 -0.09766,-0.09961 -0.271484,-0.09961 -0.171875,0 -0.273438,0.103516 -0.101562,0.103515 -0.117187,0.34375 l -0.546875,-0.05469 q 0.04883,-0.453125 0.30664,-0.65039 0.257813,-0.197266 0.644532,-0.197266 0.423828,0 0.666015,0.228516 0.242188,0.228515 0.242188,0.568359 0,0.193359 -0.07031,0.369141 -0.06836,0.173828 -0.21875,0.365234 -0.09961,0.126953 -0.359375,0.365234 -0.259765,0.238282 -0.330078,0.316407 -0.06836,0.07813 -0.111328,0.152343 z M 25.763672,57.125 q 0.416015,0 0.65039,0.296875 0.279297,0.351562 0.279297,1.166016 0,0.8125 -0.28125,1.167968 -0.232422,0.292969 -0.648437,0.292969 -0.417969,0 -0.673828,-0.320312 -0.25586,-0.322266 -0.25586,-1.146485 0,-0.808594 0.28125,-1.164062 Q 25.347656,57.125 25.763672,57.125 Z m 0,0.455078 q -0.09961,0 -0.177735,0.06445 -0.07813,0.0625 -0.121093,0.226563 -0.05664,0.21289 -0.05664,0.716797 0,0.503906 0.05078,0.693359 0.05078,0.1875 0.126953,0.25 0.07813,0.0625 0.177735,0.0625 0.09961,0 0.177734,-0.0625 0.07813,-0.06445 0.121094,-0.228516 0.05664,-0.210937 0.05664,-0.714843 0,-0.503907 -0.05078,-0.691407 -0.05078,-0.189453 -0.128906,-0.251953 -0.07617,-0.06445 -0.175781,-0.06445 z"
       id="vu-20"
       aria-label="-20" />
    <path
       d="M 25.333984,46.236328 V 45.6875 h 1.078125 v 0.548828 z M 28.015625,47 h -0.548828 v -2.068359 q -0.300781,0.28125 -0.708985,0.416015 v -0.498047 q 0.214844,-0.07031 0.466797,-0.265625 0.251953,-0.197265 0.345703,-0.458984 h 0.445313 z m 1.748047,-2.875 q 0.416015,0 0.65039,0.296875 0.279297,0.351562 0.279297,1.166016 0,0.8125 -0.28125,1.167968 -0.232422,0.292969 -0.648437,0.292969 -0.417969,0 -0.673828,-0.320312 -0.25586,-0.322266 -0.25586,-1.146485 0,-0.808594 0.28125,-1.164062 Q 29.347656,44.125 29.763672,44.125 Z m 0,0.455078 q -0.09961,0 -0.177735,0.06445 -0.07813,0.0625 -0.121093,0.226563 -0.05664,0.21289 -0.05664,0.716797 0,0.503906 0.05078,0.693359 0.05078,0.1875 0.126953,0.25 0.07813,0.0625 0.177735,0.0625 0.09961,0 0.177734,-0.0625 0.07813,-0.06445 0.121094,-0.228516 0.05664,-0.210937 0.05664,-0.714843 0,-0.503907 -0.05078,-0.691407 -0.05078,-0.189453 -0.128906,-0.251953 -0.07617,-0.06445 -0.175781,-0.06445 z"
       id="vu-10"
       aria-label="-10" />
    <path
       d="M 33.446289,36.236328 V 35.6875 h 1.078125 v 0.548828 z m 1.285156,0.02734 0.546875,-0.05664 q 0.02344,0.185547 0.138672,0.294922 0.115235,0.107422 0.265625,0.107422 0.171875,0 0.291016,-0.138672 0.11914,-0.140625 0.11914,-0.421875 0,-0.263672 -0.11914,-0.394531 -0.117188,-0.132813 -0.306641,-0.132813 -0.236328,0 -0.423828,0.208985 l -0.445312,-0.06445 0.28125,-1.490235 h 1.451171 v 0.513672 h -1.035156 l -0.08594,0.486328 q 0.183593,-0.0918 0.375,-0.0918 0.365234,0 0.61914,0.265625 0.253907,0.265625 0.253907,0.689453 0,0.353516 -0.205079,0.63086 -0.279296,0.378906 -0.77539,0.378906 -0.396485,0 -0.646485,-0.212891 -0.25,-0.21289 -0.298828,-0.572265 z"
       id="vu-5"
       aria-label="-5" />
    <path
       d="m 49.985352,32.125 q 0.416015,0 0.65039,0.296875 0.279297,0.351562 0.279297,1.166016 0,0.8125 -0.28125,1.167968 -0.232422,0.292969 -0.648437,0.292969 -0.417969,0 -0.673829,-0.320312 -0.255859,-0.322266 -0.255859,-1.146485 0,-0.808594 0.28125,-1.164062 Q 49.569336,32.125 49.985352,32.125 Z m 0,0.455078 q -0.09961,0 -0.177735,0.06445 -0.07813,0.0625 -0.121094,0.226563 -0.05664,0.21289 -0.05664,0.716797 0,0.503906 0.05078,0.693359 0.05078,0.1875 0.126953,0.25 0.07813,0.0625 0.177735,0.0625 0.09961,0 0.177734,-0.0625 0.07813,-0.06445 0.121094,-0.228516 0.05664,-0.210937 0.05664,-0.714843 0,-0.503907 -0.05078,-0.691407 -0.05078,-0.189453 -0.128906,-0.251953 -0.07617,-0.06445 -0.175781,-0.06445 z"
       id="vu-0"
       aria-label="0" />
    <path
       d="M 63.635742,36.587891 V 35.84375 h -0.75 v -0.513672 h 0.75 v -0.744141 h 0.5 v 0.744141 h 0.751953 v 0.513672 h -0.751953 v 0.744141 z M 66.629883,37 h -0.548828 v -2.068359 q -0.300782,0.28125 -0.708985,0.416015 v -0.498047 q 0.214844,-0.07031 0.466797,-0.265625 Q 66.09082,34.386719 66.18457,34.125 h 0.445313 z"
       id="vu-1"
       aria-label="+1" />
    <path
       d="M 70.635742,46.587891 V 45.84375 h -0.75 v -0.513672 h 0.75 v -0.744141 h 0.5 v 0.744141 h 0.751953 v 0.513672 h -0.751953 v 0.744141 z m 3.44336,-0.09766 V 47 h -1.923829 q 0.03125,-0.289063 0.1875,-0.546875 0.15625,-0.259766 0.617188,-0.6875 0.371094,-0.345703 0.455078,-0.46875 0.113281,-0.169922 0.113281,-0.335938 0,-0.183593 -0.09961,-0.28125 -0.09766,-0.09961 -0.271484,-0.09961 -0.171875,0 -0.273438,0.103516 -0.101562,0.103515 -0.117187,0.34375 l -0.546875,-0.05469 q 0.04883,-0.453125 0.30664,-0.65039 Q 72.78418,44.125 73.170898,44.125 q 0.423829,0 0.666016,0.228516 0.242188,0.228515 0.242188,0.568359 0,0.193359 -0.07031,0.369141 -0.06836,0.173828 -0.21875,0.365234 -0.09961,0.126953 -0.359375,0.365234 -0.259766,0.238282 -0.330078,0.316407 -0.06836,0.07813 -0.111328,0.152343 z"
       id="vu-2"
       aria-label="+2" />
    <path
       d="M 74.635742,59.587891 V 58.84375 h -0.75 v -0.513672 h 0.75 v -0.744141 h 0.5 v 0.744141 h 0.751953 v 0.513672 h -0.751953 v 0.744141 z m 1.570313,-0.347657 0.53125,-0.06445 q 0.02539,0.203125 0.136718,0.310547 0.111329,0.107422 0.269532,0.107422 0.169922,0 0.285156,-0.128906 0.117187,-0.128907 0.117187,-0.347657 0,-0.207031 -0.111328,-0.328125 -0.111328,-0.121093 -0.271484,-0.121093 -0.105469,0 -0.251953,0.04102 l 0.06055,-0.447265 q 0.222656,0.0059 0.339843,-0.0957 0.117188,-0.103516 0.117188,-0.273438 0,-0.144531 -0.08594,-0.230469 -0.08594,-0.08594 -0.228515,-0.08594 -0.140625,0 -0.240235,0.09766 -0.09961,0.09766 -0.121093,0.285156 l -0.50586,-0.08594 q 0.05274,-0.259766 0.158203,-0.414063 0.107422,-0.15625 0.296875,-0.24414 0.191407,-0.08984 0.427735,-0.08984 0.404297,0 0.648437,0.257812 0.201172,0.210938 0.201172,0.476563 0,0.376953 -0.412109,0.601562 0.246094,0.05273 0.392578,0.236329 0.148437,0.183593 0.148437,0.443359 0,0.376953 -0.27539,0.642578 -0.275391,0.265625 -0.685547,0.265625 -0.388672,0 -0.644531,-0.222656 -0.25586,-0.22461 -0.296875,-0.585938 z"
       id="vu-3"
       style="fill:#cc2211"
       aria-label="+3" />
  </g>
  <!-- Percentage numbers -->
  <g
     font-family="Arial, sans-serif"
     font-size="3"
     fill="#555555"
     text-anchor="middle"
     id="percent-numbers">
    <path
       d="m 27.816895,55.843018 v 0.253418 h -1.419434 q -0.0029,-0.09521 0.03076,-0.183106 0.0542,-0.145019 0.172851,-0.285644 0.120117,-0.140625 0.345703,-0.325196 0.350098,-0.287109 0.473145,-0.454101 0.123047,-0.168457 0.123047,-0.317871 0,-0.156739 -0.112793,-0.263672 -0.111328,-0.108399 -0.291504,-0.108399 -0.19043,0 -0.304688,0.114258 -0.114257,0.114258 -0.115722,0.316406 l -0.270996,-0.02783 q 0.02783,-0.303222 0.209472,-0.461425 0.181641,-0.159668 0.487793,-0.159668 0.309082,0 0.489258,0.171386 0.180176,0.171387 0.180176,0.424805 0,0.128906 -0.05273,0.253418 -0.05273,0.124512 -0.175781,0.262207 -0.121582,0.137695 -0.405762,0.37793 -0.237304,0.199218 -0.304687,0.270996 -0.06738,0.07031 -0.111328,0.14209 z m 0.282714,-0.805664 q 0,-0.38086 0.07764,-0.612305 0.0791,-0.23291 0.23291,-0.358887 0.155274,-0.125976 0.389649,-0.125976 0.172851,0 0.303222,0.07031 0.130371,0.06885 0.215332,0.200684 0.08496,0.130371 0.133301,0.319336 0.04834,0.1875 0.04834,0.506836 0,0.377929 -0.07764,0.610839 -0.07764,0.231446 -0.23291,0.358887 -0.153808,0.125977 -0.389648,0.125977 -0.310547,0 -0.487793,-0.222657 -0.212403,-0.268066 -0.212403,-0.873046 z m 0.270996,0 q 0,0.528808 0.123047,0.704589 0.124512,0.174317 0.306153,0.174317 0.18164,0 0.304687,-0.175781 0.124512,-0.175782 0.124512,-0.703125 0,-0.530274 -0.124512,-0.70459 -0.123047,-0.174317 -0.307617,-0.174317 -0.181641,0 -0.290039,0.153809 -0.136231,0.196289 -0.136231,0.725098 z"
       id="pct-20"
       aria-label="20" />
    <path
       d="m 39.824219,41.378418 -0.262207,0.02051 q -0.03516,-0.155274 -0.09961,-0.225586 -0.106933,-0.112793 -0.263672,-0.112793 -0.125976,0 -0.221191,0.07031 -0.124512,0.09082 -0.196289,0.265137 -0.07178,0.174316 -0.07471,0.496582 0.09521,-0.145019 0.23291,-0.215332 0.137695,-0.07031 0.288574,-0.07031 0.263672,0 0.448243,0.194824 0.186035,0.193359 0.186035,0.500976 0,0.202149 -0.08789,0.376465 -0.08643,0.172852 -0.238769,0.265137 -0.152344,0.09228 -0.345704,0.09228 -0.329589,0 -0.537597,-0.241699 -0.208008,-0.243164 -0.208008,-0.799805 0,-0.622558 0.22998,-0.905273 0.200684,-0.246094 0.540528,-0.246094 0.253418,0 0.414551,0.14209 0.162597,0.14209 0.194824,0.392578 z m -1.07666,0.925781 q 0,0.136231 0.05713,0.260742 0.05859,0.124512 0.162598,0.19043 0.104004,0.06445 0.218262,0.06445 0.166992,0 0.287109,-0.134765 0.120117,-0.134766 0.120117,-0.366211 0,-0.222657 -0.118652,-0.350098 -0.118652,-0.128906 -0.298828,-0.128906 -0.178711,0 -0.303223,0.128906 -0.124511,0.127441 -0.124511,0.335449 z m 1.376953,-0.363281 q 0,-0.380859 0.07764,-0.612305 0.0791,-0.23291 0.232911,-0.358886 0.155273,-0.125977 0.389648,-0.125977 0.172852,0 0.303223,0.07031 0.130371,0.06885 0.215332,0.200684 0.08496,0.130371 0.1333,0.319336 0.04834,0.1875 0.04834,0.506836 0,0.37793 -0.07764,0.61084 -0.07764,0.231445 -0.232911,0.358887 -0.153808,0.125976 -0.389648,0.125976 -0.310547,0 -0.487793,-0.222656 -0.212402,-0.268067 -0.212402,-0.873047 z m 0.270996,0 q 0,0.528809 0.123047,0.70459 0.124511,0.174316 0.306152,0.174316 0.181641,0 0.304688,-0.175781 0.124511,-0.175781 0.124511,-0.703125 0,-0.530273 -0.124511,-0.70459 -0.123047,-0.174316 -0.307618,-0.174316 -0.18164,0 -0.290039,0.153808 -0.13623,0.196289 -0.13623,0.725098 z"
       id="pct-60"
       aria-label="60" />
    <path
       d="m 58.861816,41.835449 q -0.164062,-0.06006 -0.243164,-0.171387 -0.0791,-0.111328 -0.0791,-0.266601 0,-0.234375 0.168457,-0.394043 0.168457,-0.159668 0.448242,-0.159668 0.28125,0 0.452637,0.164062 0.171386,0.162598 0.171386,0.396973 0,0.149414 -0.0791,0.260742 -0.07764,0.109864 -0.237305,0.169922 0.197754,0.06445 0.300293,0.208008 0.104004,0.143555 0.104004,0.342773 0,0.275391 -0.194824,0.462891 -0.194824,0.1875 -0.512695,0.1875 -0.317872,0 -0.512696,-0.1875 -0.194824,-0.188965 -0.194824,-0.470215 0,-0.209472 0.105469,-0.350097 0.106933,-0.14209 0.303222,-0.19336 z m -0.05273,-0.446777 q 0,0.152344 0.09815,0.249023 0.09814,0.09668 0.254882,0.09668 0.152344,0 0.249024,-0.09522 0.09814,-0.09668 0.09814,-0.23584 0,-0.145019 -0.101074,-0.243164 -0.09961,-0.09961 -0.249023,-0.09961 -0.150879,0 -0.250489,0.09668 -0.09961,0.09668 -0.09961,0.231445 z m -0.08496,0.991699 q 0,0.112793 0.05273,0.218262 0.0542,0.105469 0.159668,0.164062 0.105469,0.05713 0.227051,0.05713 0.188965,0 0.312012,-0.121582 0.123047,-0.121582 0.123047,-0.309082 0,-0.19043 -0.127442,-0.314941 -0.125976,-0.124512 -0.316406,-0.124512 -0.186035,0 -0.309082,0.123047 -0.121582,0.123047 -0.121582,0.307617 z m 1.400391,-0.439453 q 0,-0.380859 0.07764,-0.612305 0.0791,-0.23291 0.232911,-0.358886 0.155273,-0.125977 0.389648,-0.125977 0.172852,0 0.303223,0.07031 0.130371,0.06885 0.215332,0.200684 0.08496,0.130371 0.1333,0.319336 0.04834,0.1875 0.04834,0.506836 0,0.37793 -0.07764,0.61084 -0.07764,0.231445 -0.232911,0.358887 -0.153808,0.125976 -0.389648,0.125976 -0.310547,0 -0.487793,-0.222656 -0.212402,-0.268067 -0.212402,-0.873047 z m 0.270996,0 q 0,0.528809 0.123047,0.70459 0.124511,0.174316 0.306152,0.174316 0.181641,0 0.304688,-0.175781 0.124511,-0.175781 0.124511,-0.703125 0,-0.530273 -0.124511,-0.70459 -0.123047,-0.174316 -0.307618,-0.174316 -0.18164,0 -0.290039,0.153808 -0.13623,0.196289 -0.13623,0.725098 z"
       id="pct-80"
       aria-label="80" />
    <path
       d="M 69.023437,56.096436 H 68.759766 V 54.41626 q -0.09521,0.09082 -0.250489,0.18164 -0.153808,0.09082 -0.276855,0.136231 v -0.254883 q 0.221191,-0.104004 0.386719,-0.251953 0.165527,-0.147949 0.234375,-0.287109 h 0.169921 z m 0.675293,-1.059082 q 0,-0.38086 0.07764,-0.612305 0.0791,-0.23291 0.23291,-0.358887 0.155274,-0.125976 0.389649,-0.125976 0.172851,0 0.303222,0.07031 0.130372,0.06885 0.215332,0.200684 0.08496,0.130371 0.133301,0.319336 0.04834,0.1875 0.04834,0.506836 0,0.377929 -0.07764,0.610839 -0.07764,0.231446 -0.23291,0.358887 -0.153808,0.125977 -0.389648,0.125977 -0.310547,0 -0.487793,-0.222657 -0.212403,-0.268066 -0.212403,-0.873046 z m 0.270997,0 q 0,0.528808 0.123046,0.704589 0.124512,0.174317 0.306153,0.174317 0.18164,0 0.304687,-0.175781 0.124512,-0.175782 0.124512,-0.703125 0,-0.530274 -0.124512,-0.70459 -0.123047,-0.174317 -0.307617,-0.174317 -0.181641,0 -0.290039,0.153809 -0.13623,0.196289 -0.13623,0.725098 z m 1.39746,0 q 0,-0.38086 0.07764,-0.612305 0.0791,-0.23291 0.23291,-0.358887 0.155274,-0.125976 0.389649,-0.125976 0.172851,0 0.303222,0.07031 0.130372,0.06885 0.215332,0.200684 0.08496,0.130371 0.133301,0.319336 0.04834,0.1875 0.04834,0.506836 0,0.377929 -0.07764,0.610839 -0.07764,0.231446 -0.23291,0.358887 -0.153808,0.125977 -0.389648,0.125977 -0.310547,0 -0.487793,-0.222657 -0.212403,-0.268066 -0.212403,-0.873046 z m 0.270997,0 q 0,0.528808 0.123046,0.704589 0.124512,0.174317 0.306153,0.174317 0.18164,0 0.304687,-0.175781 0.124512,-0.175782 0.124512,-0.703125 0,-0.530274 -0.124512,-0.70459 -0.123047,-0.174317 -0.307617,-0.174317 -0.181641,0 -0.290039,0.153809 -0.13623,0.196289 -0.13623,0.725098 z"
       id="pct-100"
       aria-label="100" />
    <path
       d="m 49.297607,39.572926 v -0.514161 h -0.93164 v -0.241699 l 0.97998,-1.391601 h 0.215332 v 1.391601 h 0.290039 v 0.241699 h -0.290039 v 0.514161 z m 0,-0.75586 v -0.968262 l -0.672363,0.968262 z m 0.823243,-0.303222 q 0,-0.38086 0.07764,-0.612305 0.0791,-0.23291 0.23291,-0.358887 0.155274,-0.125976 0.389649,-0.125976 0.172851,0 0.303223,0.07031 0.130371,0.06885 0.215332,0.200684 0.08496,0.130371 0.1333,0.319336 0.04834,0.1875 0.04834,0.506836 0,0.377929 -0.07764,0.610839 -0.07764,0.231446 -0.232911,0.358887 -0.153808,0.125977 -0.389648,0.125977 -0.310547,0 -0.487793,-0.222657 -0.212402,-0.268066 -0.212402,-0.873046 z m 0.270996,0 q 0,0.528808 0.123047,0.704589 0.124511,0.174317 0.306152,0.174317 0.181641,0 0.304687,-0.175781 0.124512,-0.175782 0.124512,-0.703125 0,-0.530274 -0.124512,-0.70459 -0.123046,-0.174317 -0.307617,-0.174317 -0.18164,0 -0.290039,0.153809 -0.13623,0.196289 -0.13623,0.725098 z"
       id="text4"
       style="-inkscape-font-specification:'Arial, sans-serif, Normal'"
       aria-label="40" />
  </g>
  <!-- VU label -->
  <path
     d="m 48.131121,66.906289 h -0.786133 l -0.64209,-3.579101 h 0.734863 l 0.454102,2.707519 1.481934,-2.707519 h 0.72998 z m 2.294922,-3.579101 h 0.734863 l -0.405273,1.943359 -0.100098,0.478516 q -0.0098,0.06104 -0.0098,0.114746 0,0.212402 0.153809,0.351562 0.15625,0.136719 0.45166,0.136719 0.266113,0 0.439453,-0.100097 0.17334,-0.100098 0.268555,-0.297852 0.09521,-0.197754 0.192871,-0.671387 l 0.410156,-1.955566 h 0.734863 l -0.407714,1.958008 q -0.129395,0.617675 -0.297852,0.944824 -0.168457,0.327148 -0.510254,0.532226 -0.341797,0.205079 -0.864258,0.205079 -0.625,0 -0.957031,-0.305176 -0.332031,-0.307617 -0.332031,-0.788574 0,-0.100098 0.01709,-0.217286 0.0098,-0.07813 0.08545,-0.444335 z"
     id="vu-label"
     style="font-style:italic;font-weight:bold;font-size:5px;font-family:Arial, sans-serif;text-anchor:middle;fill:#2a2a2a"
     aria-label="VU" />
  <!-- Brand label -->
  <!-- Glass reflection effect -->
  <ellipse
     cx="45"
     cy="45"
     rx="12"
     ry="6"
     fill="#ffffff"
     opacity="0.15"
     transform="rotate(-20 45 45)"
     id="glass-reflection" />
  <ellipse
     cx="42"
     cy="42"
     rx="6"
     ry="3"
     fill="#ffffff"
     opacity="0.2"
     transform="rotate(-20 42 42)"
     id="glass-highlight" />
  <!-- Corner mounting screws -->
  <g
     id="mounting-screws">
    <!-- Top-left screw -->
    <circle
       cx="8"
       cy="8"
       r="3"
       fill="#5a5a5a"
       id="screw-tl-outer" />
    <circle
       cx="8"
       cy="8"
       r="2.2"
       fill="#707070"
       id="screw-tl-mid" />
    <circle
       cx="8"
       cy="8"
       r="1.5"
       fill="#404040"
       id="screw-tl-inner" />
    <line
       x1="6.5"
       y1="8"
       x2="9.5"
       y2="8"
       stroke="#2a2a2a"
       stroke-width="0.3"
       id="screw-tl-slot" />
    <!-- Top-right screw -->
    <circle
       cx="92"
       cy="8"
       r="3"
       fill="#5a5a5a"
       id="screw-tr-outer" />
    <circle
       cx="92"
       cy="8"
       r="2.2"
       fill="#707070"
       id="screw-tr-mid" />
    <circle
       cx="92"
       cy="8"
       r="1.5"
       fill="#404040"
       id="screw-tr-inner" />
    <line
       x1="90.5"
       y1="8"
       x2="93.5"
       y2="8"
       stroke="#2a2a2a"
       stroke-width="0.3"
       id="screw-tr-slot" />
    <!-- Bottom-left screw -->
    <circle
       cx="8"
       cy="92"
       r="3"
       fill="#5a5a5a"
       id="screw-bl-outer" />
    <circle
       cx="8"
       cy="92"
       r="2.2"
       fill="#707070"
       id="screw-bl-mid" />
    <circle
       cx="8"
       cy="92"
       r="1.5"
       fill="#404040"
       id="screw-bl-inner" />
    <line
       x1="6.5"
       y1="92"
       x2="9.5"
       y2="92"
       stroke="#2a2a2a"
       stroke-width="0.3"
       id="screw-bl-slot" />
    <!-- Bottom-right screw -->
    <circle
       cx="92"
       cy="92"
       r="3"
       fill="#5a5a5a"
       id="screw-br-outer" />
    <circle
       cx="92"
       cy="92"
       r="2.2"
       fill="#707070"
       id="screw-br-mid" />
    <circle
       cx="92"
       cy="92"
       r="1.5"
       fill="#404040"
       id="screw-br-inner" />
    <line
       x1="90.5"
       y1="92"
       x2="93.5"
       y2="92"
       stroke="#2a2a2a"
       stroke-width="0.3"
       id="screw-br-slot" />
    <line
       x1="92"
       y1="6.5"
       x2="92"
       y2="9.5"
       stroke="#2a2a2a"
       stroke-width="0.3"
       id="line1" />
    <line
       x1="8"
       y1="6.5"
       x2="8"
       y2="9.5"
       stroke="#2a2a2a"
       stroke-width="0.3"
       id="line2" />
    <line
       x1="8"
       y1="90.5"
       x2="8"
       y2="93.5"
       stroke="#2a2a2a"
       stroke-width="0.3"
       id="line3" />
    <line
       x1="91.849998"
       y1="90.5"
       x2="91.849998"
       y2="93.5"
       stroke="#2a2a2a"
       stroke-width="0.3"
       id="line4" />
  </g>
  <path
     d="m 38.513218,80.687462 v 0.792969 q -0.371094,-0.265625 -0.667969,-0.265625 -0.320312,0 -0.523437,0.226562 -0.203125,0.214844 -0.203125,0.574219 0,0.316406 0.144531,0.542969 0.07422,0.121093 0.242187,0.3125 0.171875,0.191406 0.441407,0.460937 0.496093,0.503906 0.675781,0.871094 0.179687,0.355469 0.179687,0.871094 0,0.699218 -0.394531,1.152343 -0.394531,0.441407 -1.011719,0.441407 -0.519531,0 -0.886718,-0.285157 v -0.804687 q 0.433593,0.316406 0.789062,0.316406 0.332031,0 0.519531,-0.21875 0.1875,-0.222656 0.1875,-0.601562 0,-0.328125 -0.144531,-0.589844 -0.07422,-0.125 -0.207031,-0.285156 -0.132813,-0.164063 -0.332031,-0.363282 -0.308594,-0.304687 -0.511719,-0.539062 -0.203125,-0.234375 -0.300781,-0.410156 -0.1875,-0.34375 -0.1875,-0.867188 0,-0.707031 0.367187,-1.121094 0.371094,-0.417968 0.996094,-0.417968 0.433594,0 0.828125,0.207031 z m 0.972656,-0.125 h 0.8125 v 2.359375 h 1.191406 v -2.359375 h 0.8125 v 6.03125 h -0.8125 v -2.984375 h -1.191406 v 2.984375 h -0.8125 z m 4.605469,0 h 0.632812 l 1.292969,6.03125 h -0.804687 l -0.226563,-1.175781 h -1.195312 l -0.230469,1.175781 h -0.78125 z m 0.777344,4.226562 -0.179688,-0.960937 q -0.179687,-0.980469 -0.292969,-2.09375 -0.05469,0.542969 -0.140625,1.101562 -0.08594,0.554688 -0.203125,1.179688 l -0.148437,0.773437 z m 1.625,-4.226562 h 1.070312 q 0.773438,0 1.125,0.390625 0.351563,0.394531 0.351563,1.25 0,1.203125 -0.707032,1.554687 -0.355468,0.160157 -1.027343,0.160157 v 2.675781 h -0.8125 z m 0.8125,2.660156 q 0.503906,0 0.695312,-0.203125 0.195313,-0.207031 0.195313,-0.734375 0,-0.539062 -0.1875,-0.789062 -0.1875,-0.25 -0.589844,-0.25 h -0.113281 z m 2.359375,-2.660156 h 2.160156 v 0.6875 h -1.347656 v 1.910156 h 1.195312 v 0.6875 h -1.195312 v 2.058594 h 1.347656 v 0.6875 h -2.160156 z m 2.425781,0 h 2.644531 v 0.710937 h -0.910156 v 5.320313 h -0.796875 v -5.320313 h -0.9375 z m 3.839844,0 h 0.632812 l 1.292969,6.03125 H 57.05228 l -0.226562,-1.175781 h -1.195313 l -0.230468,1.175781 h -0.78125 z m 0.777343,4.226562 -0.179687,-0.960937 q -0.179688,-0.980469 -0.292969,-2.09375 -0.05469,0.542969 -0.140625,1.101562 -0.08594,0.554688 -0.203125,1.179688 l -0.148437,0.773437 z m 1.625,-4.226562 h 0.8125 v 2.921875 l 1.132813,-2.921875 h 0.820312 l -1.1875,2.921875 1.28125,3.109375 H 60.278843 L 59.14603,83.484337 v 3.109375 h -0.8125 z m 3.367188,0 h 2.160156 v 0.6875 h -1.347656 v 1.910156 h 1.195312 v 0.6875 h -1.195312 v 2.058594 h 1.347656 v 0.6875 h -2.160156 z m 2.90625,0 h 1.070312 q 0.664063,0 0.988282,0.316406 0.410156,0.410156 0.410156,1.253906 0,0.648438 -0.21875,1.042969 -0.214844,0.390625 -0.617188,0.484375 l 1.109375,2.933594 h -0.824218 l -1.105469,-2.953125 v 2.953125 h -0.8125 z m 0.8125,2.671875 q 0.472656,0 0.667969,-0.21875 0.195312,-0.21875 0.195312,-0.738281 0,-0.28125 -0.04297,-0.480469 -0.03906,-0.199219 -0.128906,-0.324219 -0.08594,-0.125 -0.226562,-0.183594 -0.136719,-0.05859 -0.328125,-0.05859 h -0.136719 z"
     id="text1"
     style="font-weight:500;font-stretch:condensed;font-size:8px;font-family:Futura;-inkscape-font-specification:'Futura, Medium Condensed';opacity:0.85;fill-opacity:0.996516;fill-rule:evenodd;stroke:#505050;stroke-width:0.103363"
     transform="scale(0.98388204,1.016382)"
     aria-label="SHAPETAKER" />
</svg>
