<?xml version="1.0" encoding="UTF-8" standalone="no"?>
<svg
   width="100"
   height="100"
   version="1.1"
   id="svg27"
   xmlns="http://www.w3.org/2000/svg"
   xmlns:svg="http://www.w3.org/2000/svg">
  <defs
     id="defs27" />
  <!-- Drop shadow -->
  <circle
     cx="50.5"
     cy="50.5"
     r="48"
     fill="#000000"
     opacity="0.15"
     id="circle1" />
  <!-- Outer case - multi-layer for depth -->
  <circle
     cx="50"
     cy="50"
     r="47"
     fill="#1a1a1a"
     id="circle2" />
  <circle
     cx="50"
     cy="50"
     r="46"
     fill="#202020"
     opacity="0.9"
     id="circle3" />
  <circle
     cx="50"
     cy="50"
     r="45"
     fill="#252525"
     opacity="0.8"
     id="circle4" />
  <circle
     cx="50"
     cy="50"
     r="44"
     fill="#2a2a2a"
     opacity="0.7"
     id="circle5" />
  <circle
     cx="50"
     cy="50"
     r="43"
     fill="#303030"
     opacity="0.6"
     id="circle6" />
  <!-- Inner bezel -->
  <circle
     cx="50"
     cy="50"
     r="41"
     fill="#0a0a0a"
     id="circle7" />
  <circle
     cx="50"
     cy="50"
     r="40"
     fill="#151515"
     opacity="0.8"
     id="circle8" />
  <!-- Meter face (cream colored circle) -->
  <circle
     cx="50"
     cy="50"
     r="38"
     fill="#f4e6a1"
     id="circle9" />
  <circle
     cx="50"
     cy="50"
     r="37"
     fill="#f7e9a8"
     opacity="0.9"
     id="circle10" />
  <!-- Red overload section -->
  <path
     d="M 50,50 L 74,25 A 37,37 0 0,1 87,50 A 37,37 0 0,1 74,75 Z"
     fill="#cc2211"
     opacity="0.7"
     id="path10" />
  <!-- Scale markings -->
  <g
     stroke="#2a2a2a"
     stroke-width="1"
     fill="#2a2a2a"
     id="g18">
    <!-- Major tick marks -->
    <line
       x1="22"
       y1="22"
       x2="26"
       y2="26"
       id="line10" />
    <line
       x1="35"
       y1="18"
       x2="37"
       y2="23"
       id="line11" />
    <line
       x1="50"
       y1="15"
       x2="50"
       y2="20"
       id="line12" />
    <line
       x1="65"
       y1="18"
       x2="63"
       y2="23"
       id="line13" />
    <line
       x1="78"
       y1="22"
       x2="74"
       y2="26"
       id="line14" />
    <line
       x1="85"
       y1="50"
       x2="80"
       y2="50"
       id="line15" />
    <!-- Minor tick marks -->
    <line
       x1="42"
       y1="16"
       x2="43"
       y2="19"
       stroke-width="0.6"
       id="line16" />
    <line
       x1="58"
       y1="16"
       x2="57"
       y2="19"
       stroke-width="0.6"
       id="line17" />
    <line
       x1="82"
       y1="35"
       x2="78"
       y2="37"
       stroke-width="0.6"
       id="line18" />
  </g>
  <!-- Scale numbers -->
  <g
     font-family="Arial, sans-serif"
     font-size="7"
     font-weight="bold"
     fill="#2a2a2a"
     text-anchor="middle"
     id="g22">
    <path
       d="M 21.647949,37.10791 V 38 H 18.28125 q 0.05469,-0.505859 0.328125,-0.957031 0.273437,-0.45459 1.080078,-1.203125 0.649414,-0.604981 0.796387,-0.820313 0.198242,-0.297363 0.198242,-0.58789 0,-0.321289 -0.174316,-0.492188 -0.170899,-0.174316 -0.475098,-0.174316 -0.300781,0 -0.478516,0.181152 -0.177734,0.181152 -0.205078,0.601563 l -0.957031,-0.0957 q 0.08545,-0.792968 0.536621,-1.138183 0.451172,-0.345215 1.12793,-0.345215 0.741699,0 1.165527,0.399902 0.423828,0.399903 0.423828,0.994629 0,0.338379 -0.123047,0.645996 -0.119629,0.3042 -0.382812,0.63916 -0.174317,0.222168 -0.628906,0.639161 -0.45459,0.416992 -0.577637,0.553711 -0.119629,0.136718 -0.194824,0.266601 z m 2.272949,-4.13916 q 0.728028,0 1.138184,0.519531 0.48877,0.615235 0.48877,2.040528 0,1.421875 -0.492188,2.043945 -0.406738,0.512695 -1.134766,0.512695 -0.731445,0 -1.179199,-0.560547 -0.447754,-0.563965 -0.447754,-2.006347 0,-1.415039 0.492188,-2.03711 0.406738,-0.512695 1.134765,-0.512695 z m 0,0.796387 q -0.174316,0 -0.311035,0.112793 -0.136718,0.109375 -0.211914,0.396484 -0.09912,0.372559 -0.09912,1.254395 0,0.881836 0.08887,1.213378 0.08887,0.328125 0.222168,0.4375 0.136719,0.109375 0.311035,0.109375 0.174317,0 0.311036,-0.109375 0.136718,-0.112792 0.211914,-0.399902 0.09912,-0.36914 0.09912,-1.250976 0,-0.881836 -0.08887,-1.209961 -0.08887,-0.331543 -0.225586,-0.440918 -0.133301,-0.112793 -0.307618,-0.112793 z"
       id="text18"
       aria-label="20" />
    <path
       d="M 33.861816,32 H 32.901367 V 28.380371 Q 32.375,28.872559 31.660645,29.108398 v -0.871582 q 0.375976,-0.123046 0.816894,-0.464843 0.440918,-0.345215 0.604981,-0.803223 h 0.779296 z m 3.059082,-5.03125 q 0.728028,0 1.138184,0.519531 0.48877,0.615235 0.48877,2.040528 0,1.421875 -0.492188,2.043945 -0.406738,0.512695 -1.134766,0.512695 -0.731445,0 -1.179199,-0.560547 -0.447754,-0.563965 -0.447754,-2.006347 0,-1.415039 0.492188,-2.03711 0.406738,-0.512695 1.134765,-0.512695 z m 0,0.796387 q -0.174316,0 -0.311035,0.112793 -0.136718,0.109375 -0.211914,0.396484 -0.09912,0.372559 -0.09912,1.254395 0,0.881836 0.08887,1.213378 0.08887,0.328125 0.222168,0.4375 0.136719,0.109375 0.311035,0.109375 0.174317,0 0.311036,-0.109375 0.136718,-0.112792 0.211914,-0.399902 0.09912,-0.36914 0.09912,-1.250976 0,-0.881836 -0.08887,-1.209961 -0.08887,-0.331543 -0.225586,-0.440918 -0.133301,-0.112793 -0.307618,-0.112793 z"
       id="text19"
       aria-label="10" />
    <path
       d="m 49.974365,23.96875 q 0.728028,0 1.138184,0.519531 0.488769,0.615235 0.488769,2.040528 0,1.421875 -0.492187,2.043945 -0.406738,0.512695 -1.134766,0.512695 -0.731445,0 -1.179199,-0.560547 -0.447754,-0.563965 -0.447754,-2.006347 0,-1.415039 0.492188,-2.03711 0.406738,-0.512695 1.134765,-0.512695 z m 0,0.796387 q -0.174316,0 -0.311035,0.112793 -0.136719,0.109375 -0.211914,0.396484 -0.09912,0.372559 -0.09912,1.254395 0,0.881836 0.08887,1.213378 0.08887,0.328125 0.222168,0.4375 0.136719,0.109375 0.311035,0.109375 0.174317,0 0.311035,-0.109375 0.136719,-0.112792 0.211914,-0.399902 0.09912,-0.36914 0.09912,-1.250976 0,-0.881836 -0.08887,-1.209961 -0.08887,-0.331543 -0.225586,-0.440918 -0.1333,-0.112793 -0.307617,-0.112793 z"
       id="text20"
       aria-label="0" />
    <path
       d="M 65.80835,32 H 64.8479 v -3.619629 q -0.526367,0.492188 -1.240722,0.728027 v -0.871582 q 0.375976,-0.123046 0.816894,-0.464843 0.440918,-0.345215 0.604981,-0.803223 h 0.779297 z"
       id="text21"
       aria-label="1" />
    <path
       d="m 73.31665,40.67041 0.929688,-0.112793 q 0.04443,0.355469 0.239258,0.543457 0.194824,0.187988 0.471679,0.187988 0.297364,0 0.499024,-0.225585 0.205078,-0.225586 0.205078,-0.608399 0,-0.362305 -0.194824,-0.574219 -0.194824,-0.211914 -0.475098,-0.211914 -0.18457,0 -0.440918,0.07178 l 0.105957,-0.782715 q 0.389649,0.01025 0.594727,-0.167481 0.205078,-0.181152 0.205078,-0.478515 0,-0.25293 -0.150391,-0.403321 -0.15039,-0.15039 -0.399902,-0.15039 -0.246094,0 -0.42041,0.170898 -0.174317,0.170899 -0.211914,0.499024 l -0.885254,-0.150391 q 0.09228,-0.45459 0.276855,-0.724609 0.187988,-0.273438 0.519531,-0.427246 0.334961,-0.157227 0.748536,-0.157227 0.707519,0 1.134765,0.451172 0.352051,0.36914 0.352051,0.833984 0,0.659668 -0.721191,1.052735 0.430664,0.09229 0.687011,0.413574 0.259766,0.321289 0.259766,0.775879 0,0.659668 -0.481934,1.124511 -0.481933,0.464844 -1.199707,0.464844 -0.680175,0 -1.127929,-0.389648 -0.447754,-0.393067 -0.519532,-1.025391 z"
       id="text22"
       aria-label="3" />
  </g>
  <!-- Percentage numbers -->
  <g
     font-family="Arial, sans-serif"
     font-size="5px"
     fill="#2a2a2a"
     text-anchor="middle"
     id="g25"
     transform="translate(0.40092444,-2.40625)">
    <path
       d="m 33.835449,41 v -0.856934 h -1.552734 v -0.402832 l 1.633301,-2.319336 h 0.358886 v 2.319336 h 0.483399 v 0.402832 H 34.274902 V 41 Z m 0,-1.259766 v -1.613769 l -1.120605,1.613769 z m 1.372071,-0.505371 q 0,-0.634765 0.129394,-1.020508 0.131836,-0.388183 0.388184,-0.598144 0.258789,-0.209961 0.649414,-0.209961 0.288086,0 0.505371,0.117187 0.217285,0.114747 0.358887,0.334473 0.141601,0.217285 0.222167,0.532227 0.08057,0.3125 0.08057,0.844726 0,0.629883 -0.129395,1.018067 -0.129394,0.385742 -0.388183,0.598144 -0.256348,0.209961 -0.649414,0.209961 -0.517578,0 -0.812989,-0.371094 -0.354003,-0.446777 -0.354003,-1.455078 z m 0.45166,0 q 0,0.881348 0.205078,1.174317 0.207519,0.290527 0.510254,0.290527 0.302734,0 0.507812,-0.292969 0.20752,-0.292968 0.20752,-1.171875 0,-0.883789 -0.20752,-1.174316 -0.205078,-0.290527 -0.512695,-0.290527 -0.302734,0 -0.483399,0.256347 -0.22705,0.327149 -0.22705,1.208496 z"
       id="text23"
       aria-label="40" />
    <path
       d="m 49.707031,35.297363 -0.437011,0.03418 q -0.05859,-0.258789 -0.166016,-0.375977 -0.178223,-0.187988 -0.439453,-0.187988 -0.209961,0 -0.368653,0.117188 -0.207519,0.151367 -0.327148,0.441894 -0.119629,0.290527 -0.124512,0.827637 0.158692,-0.241699 0.388184,-0.358887 0.229492,-0.117187 0.480957,-0.117187 0.439453,0 0.74707,0.324707 0.310059,0.322265 0.310059,0.834961 0,0.336914 -0.146485,0.627441 -0.144043,0.288086 -0.397949,0.441895 -0.253906,0.153808 -0.576172,0.153808 -0.549316,0 -0.895996,-0.402832 -0.346679,-0.405273 -0.346679,-1.333008 0,-1.037597 0.3833,-1.508789 0.334473,-0.410156 0.900879,-0.410156 0.422364,0 0.690918,0.236816 0.270996,0.236817 0.324707,0.654297 z m -1.794433,1.542969 q 0,0.227051 0.09521,0.43457 0.09766,0.20752 0.270997,0.317383 0.173339,0.107422 0.363769,0.107422 0.27832,0 0.478516,-0.224609 0.200195,-0.22461 0.200195,-0.610352 0,-0.371094 -0.197754,-0.583496 -0.197754,-0.214844 -0.498047,-0.214844 -0.297851,0 -0.505371,0.214844 -0.207519,0.212402 -0.207519,0.559082 z m 2.294922,-0.605469 q 0,-0.634765 0.129394,-1.020508 0.131836,-0.388183 0.388184,-0.598144 0.258789,-0.209961 0.649414,-0.209961 0.288086,0 0.505371,0.117187 0.217285,0.114747 0.358887,0.334473 0.141601,0.217285 0.222167,0.532227 0.08057,0.3125 0.08057,0.844726 0,0.629883 -0.129395,1.018067 -0.129394,0.385742 -0.388183,0.598144 -0.256348,0.209961 -0.649414,0.209961 -0.517578,0 -0.812989,-0.371094 -0.354003,-0.446777 -0.354003,-1.455078 z m 0.45166,0 q 0,0.881348 0.205078,1.174317 0.207519,0.290527 0.510254,0.290527 0.302734,0 0.507812,-0.292969 0.20752,-0.292968 0.20752,-1.171875 0,-0.883789 -0.20752,-1.174316 -0.205078,-0.290527 -0.512695,-0.290527 -0.302734,0 -0.483399,0.256347 -0.22705,0.327149 -0.22705,1.208496 z"
       id="text24"
       aria-label="60" />
    <path
       d="m 62.69165,41 h -0.439453 v -2.800293 q -0.158691,0.151367 -0.41748,0.302734 -0.256348,0.151368 -0.461426,0.227051 v -0.424805 q 0.368652,-0.173339 0.644531,-0.419921 0.275879,-0.246582 0.390625,-0.478516 h 0.283203 z m 1.125489,-1.765137 q 0,-0.634765 0.129394,-1.020508 0.131836,-0.388183 0.388184,-0.598144 0.258789,-0.209961 0.649414,-0.209961 0.288086,0 0.505371,0.117187 0.217285,0.114747 0.358887,0.334473 0.141601,0.217285 0.222168,0.532227 0.08057,0.3125 0.08057,0.844726 0,0.629883 -0.129394,1.018067 -0.129395,0.385742 -0.388184,0.598144 -0.256348,0.209961 -0.649414,0.209961 -0.517578,0 -0.812988,-0.371094 -0.354004,-0.446777 -0.354004,-1.455078 z m 0.45166,0 q 0,0.881348 0.205078,1.174317 0.207519,0.290527 0.510254,0.290527 0.302734,0 0.507812,-0.292969 0.20752,-0.292968 0.20752,-1.171875 0,-0.883789 -0.20752,-1.174316 -0.205078,-0.290527 -0.512695,-0.290527 -0.302734,0 -0.483398,0.256347 -0.227051,0.327149 -0.227051,1.208496 z m 2.329101,0 q 0,-0.634765 0.129395,-1.020508 0.131836,-0.388183 0.388184,-0.598144 0.258789,-0.209961 0.649414,-0.209961 0.288086,0 0.505371,0.117187 0.217285,0.114747 0.358886,0.334473 0.141602,0.217285 0.222168,0.532227 0.08057,0.3125 0.08057,0.844726 0,0.629883 -0.129395,1.018067 -0.129394,0.385742 -0.388183,0.598144 -0.256348,0.209961 -0.649414,0.209961 -0.517579,0 -0.812989,-0.371094 Q 66.5979,40.243164 66.5979,39.234863 Z m 0.451661,0 q 0,0.881348 0.205078,1.174317 0.207519,0.290527 0.510254,0.290527 0.302734,0 0.507812,-0.292969 0.20752,-0.292968 0.20752,-1.171875 0,-0.883789 -0.20752,-1.174316 -0.205078,-0.290527 -0.512695,-0.290527 -0.302735,0 -0.483399,0.256347 -0.22705,0.327149 -0.22705,1.208496 z"
       id="text25"
       aria-label="100" />
  </g>
  <!-- VU label -->
  <!-- Glass reflection effect -->
  <ellipse
     cx="42"
     cy="35"
     rx="10"
     ry="5"
     fill="#ffffff"
     opacity="0.2"
     transform="rotate(-15 42 35)"
     id="ellipse26" />
  <ellipse
     cx="40"
     cy="33"
     rx="5"
     ry="2.5"
     fill="#ffffff"
     opacity="0.25"
     transform="rotate(-15 40 33)"
     id="ellipse27" />
  <path
     d="m 30.241699,65.936333 -0.610351,0.610351 q -0.429688,-0.385742 -0.795899,-0.385742 -0.249023,0 -0.415039,0.141602 -0.161133,0.136718 -0.161133,0.341797 0,0.200195 0.136719,0.336914 0.136719,0.141601 0.571289,0.380859 0.620117,0.34668 0.830078,0.634766 0.22461,0.283203 0.22461,0.737304 0,0.654297 -0.454102,1.049805 -0.463867,0.390625 -1.206055,0.390625 -1.010742,0 -1.674804,-0.913086 l 0.708008,-0.493164 q 0.43457,0.522461 0.927734,0.522461 0.27832,0 0.444336,-0.146484 0.170898,-0.146485 0.170898,-0.38086 0,-0.205078 -0.141601,-0.332031 -0.06836,-0.06348 -0.239258,-0.175781 -0.170899,-0.112305 -0.463867,-0.268555 -0.517578,-0.288086 -0.717774,-0.561523 -0.200195,-0.288086 -0.200195,-0.703125 0,-0.625 0.458984,-1.035157 0.458985,-0.410156 1.166993,-0.410156 0.78125,0 1.440429,0.65918 z m 2.827149,-4.155274 -0.498047,4.038086 q 0.649414,-0.502929 1.318359,-0.502929 0.673828,0 1.074219,0.356445 0.415039,0.351562 0.415039,0.922851 0,0.136719 -0.01465,0.3125 -0.01465,0.170899 -0.03906,0.390625 l -0.336914,2.729493 h -1.079102 l 0.341797,-2.788086 q 0.0293,-0.22461 0.0293,-0.405274 0,-0.615234 -0.722656,-0.615234 -1.035156,0 -1.206055,1.401367 l -0.297851,2.407227 h -1.079102 l 1.015625,-8.247071 z m 8.505859,3.647461 -0.566406,4.59961 h -1.079102 l 0.06348,-0.498047 q -0.69336,0.605468 -1.435547,0.605468 -0.913086,0 -1.489258,-0.620117 -0.576172,-0.620117 -0.576172,-1.606445 0,-1.137695 0.65918,-1.865234 0.668945,-0.727539 1.713867,-0.727539 0.493164,0 0.839844,0.161132 0.351562,0.161133 0.717773,0.556641 l 0.07324,-0.605469 z m -1.313477,2.167969 q 0,-0.610352 -0.351562,-0.991211 -0.351563,-0.385742 -0.908203,-0.385742 -0.605469,0 -1.015625,0.473633 -0.410156,0.478515 -0.410156,1.171875 0,0.605468 0.341796,0.991211 0.341797,0.385742 0.878907,0.385742 0.595703,0 1.030273,-0.483399 0.43457,-0.493164 0.43457,-1.162109 z m 3.896485,-2.167969 -0.05859,0.483399 q 0.698242,-0.595703 1.469727,-0.595703 0.917968,0 1.52832,0.639648 0.610352,0.639648 0.610352,1.616211 0,1.083984 -0.698243,1.826172 -0.693359,0.737304 -1.723632,0.737304 -0.527344,0 -0.864258,-0.166015 -0.351563,-0.166016 -0.747071,-0.600586 l -0.405273,3.291016 h -1.079102 l 0.888672,-7.231446 z m 2.470703,2.1875 q 0,-0.610351 -0.351563,-1.000976 -0.351562,-0.395508 -0.898437,-0.395508 -0.654297,0 -1.09375,0.478515 -0.439453,0.478516 -0.439453,1.176758 0,0.610352 0.371094,0.981446 0.371093,0.380859 0.957031,0.380859 0.615234,0 1.035156,-0.46875 0.419922,-0.478516 0.419922,-1.152344 z m 3.115234,0.498047 q 0,0.507813 0.351563,0.834961 0.356445,0.327148 0.908203,0.327148 0.756836,0 1.162109,-0.566406 l 0.805664,0.444336 q -0.419921,0.566406 -0.864257,0.791016 -0.449219,0.229492 -1.123047,0.229492 -1.069336,0 -1.704102,-0.629883 -0.634765,-0.629883 -0.634765,-1.68457 0,-1.103516 0.698242,-1.845703 0.693359,-0.737305 1.752929,-0.737305 1.025391,0 1.616211,0.664063 0.600586,0.668945 0.600586,1.791992 0,0.117187 -0.01465,0.380859 z m 2.475586,-0.869141 q -0.170898,-1.064453 -1.176758,-1.064453 -0.952148,0 -1.240234,1.064453 z"
     id="text2"
     style="font-style:italic;font-weight:500;font-size:10px;font-family:Futura;-inkscape-font-specification:'Futura, Medium Italic';opacity:0.85;fill-opacity:0.996516;fill-rule:evenodd;stroke:#505050;stroke-width:0.094"
     aria-label="shape" />
  <path
     d="m 40.815346,77.789024 -0.444336,3.598633 h -1.079102 l 0.444336,-3.598633 h -0.610351 l 0.12207,-1.000976 h 0.610352 l 0.263671,-2.133789 h 1.079102 l -0.263672,2.133789 h 0.996094 l -0.12207,1.000976 z m 6.596679,-1.000976 -0.566406,4.599609 h -1.079101 l 0.06348,-0.498047 q -0.693359,0.605469 -1.435547,0.605469 -0.913086,0 -1.489257,-0.620117 -0.576172,-0.620117 -0.576172,-1.606445 0,-1.137696 0.659179,-1.865235 0.668946,-0.727539 1.713868,-0.727539 0.493164,0 0.839843,0.161133 0.351563,0.161133 0.717774,0.556641 l 0.07324,-0.605469 z m -1.313476,2.167969 q 0,-0.610352 -0.351563,-0.991211 -0.351562,-0.385743 -0.908203,-0.385743 -0.605468,0 -1.015625,0.473633 -0.410156,0.478516 -0.410156,1.171875 0,0.605469 0.341797,0.991211 0.341797,0.385742 0.878906,0.385742 0.595703,0 1.030274,-0.483398 0.43457,-0.493164 0.43457,-1.162109 z m 4.350586,-5.81543 -0.668945,5.43457 1.933593,-1.787109 h 1.44043 l -2.412109,2.099609 1.938476,2.5 h -1.303711 l -1.674804,-2.1875 -0.268555,2.1875 h -1.079102 l 1.015625,-8.24707 z m 3.955078,6.333008 q 0,0.507812 0.351562,0.834961 0.356446,0.327148 0.908204,0.327148 0.756836,0 1.162109,-0.566406 l 0.805664,0.444336 q -0.419922,0.566406 -0.864258,0.791015 -0.449219,0.229493 -1.123047,0.229493 -1.069336,0 -1.704101,-0.629883 -0.634766,-0.629883 -0.634766,-1.684571 0,-1.103515 0.698242,-1.845703 0.69336,-0.737304 1.75293,-0.737304 1.025391,0 1.616211,0.664062 0.600586,0.668945 0.600586,1.791992 0,0.117188 -0.01465,0.38086 z m 2.475586,-0.869141 q -0.170899,-1.064453 -1.176758,-1.064453 -0.952148,0 -1.240234,1.064453 z m 3.676758,-1.816406 -0.04883,0.395508 q 0.546875,-0.517579 1.103515,-0.517579 0.488281,0 0.888672,0.356446 l -0.688476,0.888672 q -0.297852,-0.253907 -0.595704,-0.253907 -0.205078,0 -0.361328,0.08301 -0.15625,0.07813 -0.273437,0.253906 -0.112305,0.170899 -0.19043,0.444336 -0.07324,0.273438 -0.117187,0.654297 l -0.283204,2.294922 h -1.079101 l 0.566406,-4.599609 z"
     id="text3"
     style="font-style:italic;font-weight:500;font-size:10px;font-family:Futura;-inkscape-font-specification:'Futura, Medium Italic';opacity:0.85;fill-opacity:0.996516;fill-rule:evenodd;stroke:#505050;stroke-width:0.094"
     aria-label="taker" />
  <path
     d="m 16.148437,49.085937 h 4.265625 v 1.828125 h -4.265625 z"
     id="text4"
     style="font-weight:500;font-stretch:condensed;font-size:24px;font-family:Futura;-inkscape-font-specification:'Futura, Medium Condensed';opacity:0.78;fill:#141414;fill-rule:evenodd;stroke:#505050;stroke-width:0.094"
     aria-label="-" />
  <path
     d="m 68.402069,51.490234 v -2.003906 h 3.222656 v -3.175781 h 2.027344 v 3.175781 h 3.210938 v 2.003906 h -3.210938 v 3.199219 h -2.027344 v -3.199219 z"
     id="text5"
     style="font-weight:500;font-stretch:condensed;font-size:24px;font-family:Futura;-inkscape-font-specification:'Futura, Medium Condensed';opacity:0.78;fill:#141414;fill-rule:evenodd;stroke:#505050;stroke-width:0.094"
     aria-label="+" />
  <path
     d="m 47.269821,38.616337 h 0.800781 l 0.363282,2.226562 0.0625,0.402344 0.128906,0.875 q 0.03125,0.222656 0.05469,0.40625 0.02734,0.183594 0.04687,0.332031 l 0.03906,0.296875 q 0.01172,-0.08984 0.01953,-0.160156 0.0078,-0.07031 0.01563,-0.117187 l 0.105469,-0.699219 0.136719,-0.917969 q 0.01953,-0.125 0.03516,-0.230469 0.01953,-0.105468 0.03516,-0.1875 l 0.390625,-2.226562 h 0.757813 l -1.183594,6.03125 h -0.644531 z m 3.4375,0 h 0.796875 v 4.261719 q 0,0.652343 0.117188,0.867187 0.121093,0.214844 0.476562,0.214844 0.355469,0 0.46875,-0.1875 0.117188,-0.191406 0.117188,-0.777344 v -4.378906 h 0.796875 v 4.378906 q 0,0.984375 -0.300782,1.332031 -0.359375,0.394532 -1.097656,0.394532 -0.8125,0 -1.144531,-0.507813 -0.230469,-0.347656 -0.230469,-1.335937 z"
     id="text6"
     style="font-weight:500;font-stretch:condensed;font-size:8px;font-family:Futura;-inkscape-font-specification:'Futura, Medium Condensed';opacity:0.85;fill-opacity:0.996516;fill-rule:evenodd;stroke:#505050;stroke-width:0.094"
     aria-label="VU" />
</svg>
