<?xml version="1.0" encoding="UTF-8" standalone="no"?>
<svg
   width="20"
   height="20"
   viewBox="0 0 20 20"
   version="1.1"
   id="svg10"
   sodipodi:docname="jewel_led_medium.svg"
   inkscape:version="1.4.2 (ebf0e940, 2025-05-08)"
   xmlns:inkscape="http://www.inkscape.org/namespaces/inkscape"
   xmlns:sodipodi="http://sodipodi.sourceforge.net/DTD/sodipodi-0.dtd"
   xmlns="http://www.w3.org/2000/svg"
   xmlns:svg="http://www.w3.org/2000/svg">
  <defs
     id="defs1" />
  <sodipodi:namedview
     id="namedview1"
     pagecolor="#505050"
     bordercolor="#eeeeee"
     borderopacity="1"
     inkscape:showpageshadow="0"
     inkscape:pageopacity="0"
     inkscape:pagecheckerboard="0"
     inkscape:deskcolor="#505050"
     inkscape:zoom="20.906791"
     inkscape:cx="5.2136171"
     inkscape:cy="14.37332"
     inkscape:window-width="2560"
     inkscape:window-height="1381"
     inkscape:window-x="0"
     inkscape:window-y="31"
     inkscape:window-maximized="1"
     inkscape:current-layer="svg10" />
  <g
     transform="translate(10, 10) scale(0.8) translate(-12.5, -12.5)"
     id="g1">
    <defs
       id="defs10" />
    <!-- Brass bezel - simplified -->
    <circle
       cx="12.5"
       cy="12.5"
       r="12"
       fill="#b8844a"
       stroke="#8f6d3c"
       stroke-width="0.5"
       id="circle1"
       style="display:inline" />
    <circle
       cx="12.5"
       cy="12.5"
       r="10"
       fill="#9a7040"
       stroke="#7a5d36"
       stroke-width="0.25"
       id="circle2"
       style="display:inline" />
    <circle
       cx="12.5"
       cy="12.5"
       r="8.5"
       fill="#333333"
       stroke="#222222"
       stroke-width="0.25"
       id="circle3"
       style="display:inline" />
    <circle
       cx="12.500046"
       cy="12.500047"
       fill="#75583a"
       stroke="#5a4530"
       stroke-width="0.281421"
       id="circle4"
       style="display:inline;fill:#e6d7ca;fill-opacity:0.294584;stroke:#cbb59f;stroke-opacity:0.248349"
       r="8.4426231" />
    <polygon
       points="14,11 12.5,12.5 11,11 12.5,9.5 "
       fill="#b0b0b0"
       stroke="none"
       id="polygon8-1-0-1-3-4-2-6-2-2-8-7-1-2-6-9-8-8"
       transform="matrix(0.41340463,-0.36982538,0.26357997,0.35431641,-2.2035512,14.339194)"
       style="fill:#6c6c6c;fill-opacity:1;stroke:#505050;stroke-width:0.135414;stroke-dasharray:none;stroke-opacity:1" />
    <polygon
       points="12.5,9.5 14,11 12.5,12.5 11,11 "
       fill="#b0b0b0"
       stroke="none"
       id="polygon8-1-0-1-3-4-2-6-2-2-8-7-1-2-6-9-8"
       transform="matrix(-0.36191752,-0.42034499,0.35925217,-0.25681199,9.2482628,26.142804)"
       style="fill:#6c6c6c;fill-opacity:1;stroke:#505050;stroke-width:0.135414;stroke-dasharray:none;stroke-opacity:1" />
    <polygon
       points="12.5,9.5 14,11 12.5,12.5 11,11 "
       fill="#b0b0b0"
       stroke="none"
       id="polygon8-1-0-1-3-4-2-6-2-2-8-7-1-2-6-9-8-5"
       transform="matrix(-0.36191752,-0.42034499,0.35925217,-0.25681199,7.8054632,24.654244)"
       style="fill:#6c6c6c;fill-opacity:1;stroke:#505050;stroke-width:0.135414;stroke-dasharray:none;stroke-opacity:1" />
    <polygon
       points="12.5,9.5 14,11 12.5,12.5 11,11 "
       fill="#b0b0b0"
       stroke="none"
       id="polygon8-1-0-1-3-4-2-6-2-2-8-7-1-2-6"
       transform="matrix(-0.44098199,0.33646558,-0.23515084,-0.37378952,21.598934,19.111168)"
       style="fill:#6c6c6c;fill-opacity:1;stroke:#505050;stroke-width:0.135414;stroke-dasharray:none;stroke-opacity:1" />
    <polygon
       points="14,11 12.5,12.5 11,11 12.5,9.5 "
       fill="#b0b0b0"
       stroke="none"
       id="polygon8-1-0-1-3-4-2-6-2-2-8-7-1-2-6-9"
       transform="matrix(-0.36191752,-0.42034499,0.35925217,-0.25681199,12.298136,27.250011)"
       style="fill:#6c6c6c;fill-opacity:1;stroke:#505050;stroke-width:0.135414;stroke-dasharray:none;stroke-opacity:1" />
    <polygon
       points="12.5,12.5 11,11 12.5,9.5 14,11 "
       fill="#b0b0b0"
       stroke="none"
       id="polygon8-1-0-1-3-4-2-6-2"
       transform="matrix(0.09284267,-0.54685869,0.42694403,0.11284203,10.405068,12.580207)"
       style="fill:#6c6c6c;fill-opacity:1;stroke:#505050;stroke-width:0.135414;stroke-dasharray:none;stroke-opacity:1" />
    <polygon
       points="14,11 12.5,12.5 11,11 12.5,9.5 "
       fill="#b0b0b0"
       stroke="none"
       id="polygon8-1-0-1-3-4-2-6-2-2"
       transform="matrix(0.09284267,-0.54685869,0.42694403,0.11284203,12.242285,14.234688)"
       style="fill:#6c6c6c;fill-opacity:1;stroke:#505050;stroke-width:0.135414;stroke-dasharray:none;stroke-opacity:1" />
    <polygon
       points="12.5,9.5 14,11 12.5,12.5 11,11 "
       fill="#b0b0b0"
       stroke="none"
       id="polygon8-1-0-1-3-4-2-6-2-2-8"
       transform="matrix(0.30073488,0.46608232,-0.39112853,0.20501951,19.708213,3.6750045)"
       style="fill:#6c6c6c;fill-opacity:1;stroke:#505050;stroke-width:0.135414;stroke-dasharray:none;stroke-opacity:1" />
    <polygon
       points="14,11 12.5,12.5 11,11 12.5,9.5 "
       fill="#b0b0b0"
       stroke="none"
       id="polygon8-1-0-1-3-4-2-6-2-2-8-7"
       transform="matrix(-0.0311946,0.55380601,-0.43687467,-0.06445967,24.498016,7.0228449)"
       style="fill:#6c6c6c;fill-opacity:1;stroke:#505050;stroke-width:0.135414;stroke-dasharray:none;stroke-opacity:1" />
    <polygon
       points="12.5,9.5 14,11 12.5,12.5 11,11 "
       fill="#b0b0b0"
       stroke="none"
       id="polygon8-1-0-1-3-4-2-6-2-2-8-7-1"
       transform="matrix(-0.0311946,0.55380601,-0.43687467,-0.06445967,23.321528,9.9500354)"
       style="fill:#6c6c6c;fill-opacity:1;stroke:#505050;stroke-width:0.135414;stroke-dasharray:none;stroke-opacity:1" />
    <polygon
       points="14,11 12.5,12.5 11,11 12.5,9.5 "
       fill="#b0b0b0"
       stroke="none"
       id="polygon8-1-0-1-3-4-2-6-2-2-8-7-1-2"
       transform="matrix(-0.44098199,0.33646558,-0.23515084,-0.37378952,24.673934,17.832123)"
       style="fill:#6c6c6c;fill-opacity:1;stroke:#505050;stroke-width:0.135414;stroke-dasharray:none;stroke-opacity:1" />
    <polygon
       points="12.5,9.5 14,11 12.5,12.5 11,11 "
       fill="#b0b0b0"
       stroke="none"
       id="polygon8-1-0-1-3-4-2-6"
       transform="matrix(0.35019912,-0.43015667,0.31595046,0.3085285,5.5008342,7.8770785)"
       style="fill:#6c6c6c;fill-opacity:1;stroke:#505050;stroke-width:0.135414;stroke-dasharray:none;stroke-opacity:1" />
    <polygon
       points="14,11 12.5,12.5 11,11 12.5,9.5 "
       fill="#b0b0b0"
       stroke="none"
       id="polygon8-1-0-1-3-4"
       transform="matrix(-0.20829267,-0.51408983,0.42256261,-0.12827849,6.7459875,14.822922)"
       style="fill:#6c6c6c;fill-opacity:1;stroke:#505050;stroke-width:0.135414;stroke-dasharray:none;stroke-opacity:1" />
    <polygon
       points="12.5,9.5 14,11 12.5,12.5 11,11 "
       fill="#b0b0b0"
       stroke="none"
       id="polygon8-1-0-1-3-4-2"
       transform="matrix(-0.21579875,-0.51098443,0.42063876,-0.13445282,9.9167972,13.76022)"
       style="fill:#6c6c6c;fill-opacity:1;stroke:#505050;stroke-width:0.135414;stroke-dasharray:none;stroke-opacity:1" />
    <!-- Neutral faceted jewel for RGB lighting -->
    <polygon
       points="11,11 12.5,9.5 14,11 12.5,12.5 "
       fill="#b0b0b0"
       stroke="none"
       id="polygon8-1-0-1-1-7"
       transform="matrix(-0.33503305,-0.68261367,0.56887491,-0.27920903,13.036356,29.898193)"
       style="fill:#6c6c6c;fill-opacity:1;stroke-width:0.13541435;stroke-dasharray:none;stroke:#505050;stroke-opacity:1" />
    <!-- Simple facet lines for sparkle effect -->
    <polygon
       points="15,8.5 12.5,11 10,8.5 12.5,6 "
       fill="#808080"
       stroke="#505050"
       stroke-width="0.15"
       id="polygon4-8"
       transform="rotate(44.872474,13.212211,12.799336)" />
    <polygon
       points="12.5,6 15,8.5 12.5,11 10,8.5 "
       fill="#808080"
       stroke="#505050"
       stroke-width="0.15"
       id="polygon4-8-4"
       transform="rotate(44.872474,9.9714137,4.9506642)" />
    <polygon
       points="12.5,6 15,8.5 12.5,11 10,8.5"
       fill="#808080"
       stroke="#505050"
       stroke-width="0.15"
       id="polygon4" />
    <polygon
       points="10,8.5 12.5,6 15,8.5 12.5,11 "
       fill="#808080"
       stroke="#505050"
       stroke-width="0.15"
       id="polygon4-8-4-6"
       transform="rotate(44.872474,5.6439826,15.924336)" />
    <polygon
       points="12.5,12.5 11,11 12.5,9.5 14,11 "
       fill="#b0b0b0"
       stroke="none"
       id="polygon8-1-0-1-1-0-5-7"
       transform="matrix(0.68115047,0.33799795,-0.2816799,0.5676555,13.077827,4.0308151)"
       style="fill:#6c6c6c;fill-opacity:1;stroke-width:0.13541435;stroke-dasharray:none;stroke:#505050;stroke-opacity:1" />
    <polygon
       points="12.5,11 10,8.5 12.5,6 15,8.5 "
       fill="#808080"
       stroke="#505050"
       stroke-width="0.15"
       id="polygon4-8-4-6-3"
       transform="rotate(44.872474,2.5700162,8.4797018)" />
    <polygon
       points="12.5,14 15,16.5 12.5,19 10,16.5"
       fill="#808080"
       stroke="#505050"
       stroke-width="0.15"
       id="polygon5" />
    <polygon
       points="6,12.5 8.5,10 11,12.5 8.5,15"
       fill="#808080"
       stroke="#505050"
       stroke-width="0.15"
       id="polygon6" />
    <polygon
       points="14,12.5 16.5,10 19,12.5 16.5,15"
       fill="#808080"
       stroke="#505050"
       stroke-width="0.15"
       id="polygon7" />
    <!-- Central highlight -->
    <circle
       cx="12.5"
       cy="12.5"
       r="4"
       fill="#909090"
       stroke="#606060"
       stroke-width="0.15"
       id="circle7" />
    <polygon
       points="12.5,9.5 14,11 12.5,12.5 11,11"
       fill="#b0b0b0"
       stroke="none"
       id="polygon8" />
    <polygon
       points="12.5,12.5 11,11 12.5,9.5 14,11 "
       fill="#b0b0b0"
       stroke="none"
       id="polygon8-1"
       transform="matrix(0.76040027,0,0,0.63370052,4.7364323,5.5292943)" />
    <polygon
       points="12.5,9.5 14,11 12.5,12.5 11,11 "
       fill="#b0b0b0"
       stroke="none"
       id="polygon8-1-0"
       transform="matrix(0.76040027,0,0,0.63370052,1.0803369,5.5292943)" />
    <polygon
       points="12.5,12.5 11,11 12.5,9.5 14,11 "
       fill="#b0b0b0"
       stroke="none"
       id="polygon8-1-0-1"
       transform="matrix(-0.64803751,-0.39781397,0.33152923,-0.54005992,10.976725,21.23039)"
       style="fill:#6c6c6c;fill-opacity:1;stroke:#505050;stroke-width:0.135414;stroke-dasharray:none;stroke-opacity:1" />
    <polygon
       points="12.5,12.5 11,11 12.5,9.5 14,11 "
       fill="#b0b0b0"
       stroke="none"
       id="polygon8-1-0-1-3"
       transform="matrix(-0.20829267,-0.51408983,0.42256261,-0.12827849,4.8383494,16.644226)"
       style="fill:#6c6c6c;fill-opacity:1;stroke:#505050;stroke-width:0.135414;stroke-dasharray:none;stroke-opacity:1" />
    <polygon
       points="14,11 12.5,12.5 11,11 12.5,9.5 "
       fill="#b0b0b0"
       stroke="none"
       id="polygon8-1-0-1-3-9"
       transform="matrix(0.49573678,-0.24883576,0.16174157,0.41091872,-2.081933,10.256521)"
       style="fill:#6c6c6c;fill-opacity:1;stroke:#505050;stroke-width:0.135414;stroke-dasharray:none;stroke-opacity:1" />
    <polygon
       points="14,11 12.5,12.5 11,11 12.5,9.5 "
       fill="#b0b0b0"
       stroke="none"
       id="polygon8-1-0-1-1"
       transform="matrix(0.29426637,-0.70115324,0.58432538,0.24523499,0.14409125,24.383887)"
       style="fill:#6c6c6c;fill-opacity:1;stroke-width:0.14405782;stroke-dasharray:none;stroke:#505050;stroke-opacity:1" />
    <polygon
       points="12.5,9.5 14,11 12.5,12.5 11,11 "
       fill="#b0b0b0"
       stroke="none"
       id="polygon8-1-0-1-1-0"
       transform="matrix(-0.44342318,-0.61772522,0.51479834,-0.36953893,10.213877,18.307411)"
       style="fill:#6c6c6c;fill-opacity:1;stroke-width:0.13541435;stroke-dasharray:none;stroke:#505050;stroke-opacity:1" />
    <polygon
       points="14,11 12.5,12.5 11,11 12.5,9.5 "
       fill="#b0b0b0"
       stroke="none"
       id="polygon8-1-0-1-1-0-5"
       transform="matrix(0.71840279,-0.24921076,0.20768665,0.59870076,-4.4823445,11.529426)"
       style="fill:#6c6c6c;fill-opacity:1;stroke-width:0.13541435;stroke-dasharray:none;stroke:#505050;stroke-opacity:1" />
    <polygon
       points="14,11 12.5,12.5 11,11 12.5,9.5 "
       fill="#b0b0b0"
       stroke="none"
       id="polygon8-1-0-1-1-0-8"
       transform="matrix(0.46355223,-0.60276686,0.50233238,0.38631403,3.42659,9.8809811)"
       style="fill:#6c6c6c;fill-opacity:1;stroke-width:0.13541435;stroke-dasharray:none;stroke-opacity:1" />
    <polygon
       points="12.5,12.5 14,14 12.5,15.5 11,14"
       fill="#b0b0b0"
       stroke="none"
       id="polygon9" />
    <!-- Bright highlights for sparkle -->
    <circle
       cx="11"
       cy="10"
       r="0.75"
       fill="#ffffff"
       opacity="0.8"
       id="circle9" />
    <circle
       cx="14"
       cy="15"
       r="0.5"
       fill="#ffffff"
       opacity="0.6"
       id="circle10" />
    <polygon
       points="11,11 12.5,9.5 14,11 12.5,12.5 "
       fill="#b0b0b0"
       stroke="none"
       id="polygon8-1-0-15"
       transform="matrix(0.64821568,-0.39752359,0.33128723,0.5402084,6.7468731,9.3438081)"
       style="fill:#6c6c6c;fill-opacity:1;stroke:#505050;stroke-width:0.144058;stroke-dasharray:none;stroke-opacity:1" />
  </g>
</svg>
