<?xml version="1.0" encoding="UTF-8" standalone="no"?>
<svg width="60.96mm" height="128.5mm" viewBox="0 0 60.96 128.5" version="1.1" xmlns="http://www.w3.org/2000/svg">
  <defs>
    <style type="text/css"><![CDATA[
      .foot { fill:none; stroke:#ff0066; stroke-width:0.25; }
      .label { fill:#666; font-size:2.0px; font-family:Arial, sans-serif; }
    ]]></style>
  </defs>

  <!-- Oscilloscope screen footprint (for reference) -->
  <circle class="foot" cx="30.480001" cy="20.781843" r="13.0" />
  <text class="label" x="44" y="21.5">oscope (Ø ~26mm)</text>

  <!-- Frequency knobs (Large) -->
  <circle class="foot" cx="12.39288" cy="28.178133" r="4.8" />
  <circle class="foot" cx="49.135624" cy="28.178133" r="4.8" />

  <!-- Sync switches (Shuttle 11×11mm) -->
  <rect class="foot" x="26.167959 - 5.5" y="47.738434 - 5.5" width="11" height="11" rx="1" />
  <rect class="foot" x="35.155243 - 5.5" y="47.738434 - 5.5" width="11" height="11" rx="1" />

  <!-- Fine tune knobs (Medium/Attenuverter) -->
  <circle class="foot" cx="15.0233" cy="45.038658" r="3.8" />
  <circle class="foot" cx="45.0233" cy="45.038658" r="3.8" />

  <!-- Fine attenuverters (Ø 7.0mm) -->
  <circle class="foot" cx="15.034473" cy="58.820183" r="3.5" />
  <circle class="foot" cx="45.034473" cy="58.820183" r="3.5" />

  <!-- Crossfade knob + atten (Large + attenuverters) -->
  <circle class="foot" cx="30.48" cy="64.107727" r="4.8" />
  <circle class="foot" cx="30.48" cy="83.021637" r="3.5" />

  <!-- Shape knobs (Large) + attenuverters -->
  <circle class="foot" cx="10.240995" cy="74.654305" r="4.8" />
  <circle class="foot" cx="50.719231" cy="74.654305" r="4.8" />
  <circle class="foot" cx="15.034473" cy="86.433929" r="3.5" />
  <circle class="foot" cx="44.581718" cy="86.433929" r="3.5" />

  <!-- Ports (BNC Ø ~8.0mm) -->
  <circle class="foot" cx="8.721756"  cy="99.862808"  r="4.0" />
  <circle class="foot" cx="21.777"     cy="99.862808"  r="4.0" />
  <circle class="foot" cx="34.832245"  cy="99.862808"  r="4.0" />
  <circle class="foot" cx="47.887489"  cy="99.862808"  r="4.0" />

  <circle class="foot" cx="8.721756"   cy="113.38142"  r="4.0" />
  <circle class="foot" cx="21.112274"  cy="113.38142"  r="4.0" />
  <circle class="foot" cx="33.502792"  cy="113.38142"  r="4.0" />
  <circle class="foot" cx="45.893311"  cy="113.38142"  r="4.0" />
  <circle class="foot" cx="53.724667"  cy="113.38142"  r="4.0" />

  <!-- Notes -->
  <text class="label" x="2" y="126">Footprints approximated from current widget sizes; adjust as you prefer.</text>
</svg>
