<?xml version="1.0" encoding="UTF-8" standalone="no"?>
<svg
  width="16mm"
  height="16mm"
  viewBox="0 0 30 30"
  version="1.1"
  xmlns="http://www.w3.org/2000/svg">
  <defs>
    <radialGradient id="altSmallShadow" cx="0.5" cy="0.55" r="0.55">
      <stop offset="0%" stop-color="#000000" stop-opacity="0.35"/>
      <stop offset="60%" stop-color="#000000" stop-opacity="0.18"/>
      <stop offset="100%" stop-color="#000000" stop-opacity="0"/>
    </radialGradient>
    <radialGradient id="altSmallDisc" cx="0.5" cy="0.52" r="0.78">
      <stop offset="0%" stop-color="#3c404a"/>
      <stop offset="38%" stop-color="#1a1d24"/>
      <stop offset="100%" stop-color="#020203"/>
    </radialGradient>
    <radialGradient id="altSmallDiscHighlight" cx="0.5" cy="0.4" r="0.52">
      <stop offset="0%" stop-color="#ffffff" stop-opacity="0.7"/>
      <stop offset="55%" stop-color="#b9c1d2" stop-opacity="0.25"/>
      <stop offset="100%" stop-color="#353a45" stop-opacity="0"/>
    </radialGradient>
    <radialGradient id="altSmallBody" cx="0.5" cy="0.5" r="0.78">
      <stop offset="0%" stop-color="#242830"/>
      <stop offset="45%" stop-color="#373d48"/>
      <stop offset="78%" stop-color="#556071"/>
      <stop offset="100%" stop-color="#9099ad"/>
    </radialGradient>
    <radialGradient id="altSmallBodyHighlight" cx="0.55" cy="0.28" r="0.85">
      <stop offset="0%" stop-color="#eef2ff" stop-opacity="0.22"/>
      <stop offset="40%" stop-color="#c3cad9" stop-opacity="0.12"/>
      <stop offset="100%" stop-color="#000000" stop-opacity="0"/>
    </radialGradient>
    <linearGradient id="altSmallEdge" x1="0.32" y1="0.16" x2="0.68" y2="0.92">
      <stop offset="0%" stop-color="#cdd4e5" stop-opacity="0.55"/>
      <stop offset="55%" stop-color="#5e6471" stop-opacity="0.18"/>
      <stop offset="100%" stop-color="#050609" stop-opacity="0.85"/>
    </linearGradient>
    <linearGradient id="altSmallRidge" x1="0.28" y1="0.2" x2="0.72" y2="0.86">
      <stop offset="0%" stop-color="#dde3f1" stop-opacity="0.45"/>
      <stop offset="50%" stop-color="#7f8799" stop-opacity="0.18"/>
      <stop offset="100%" stop-color="#08090d" stop-opacity="0.8"/>
    </linearGradient>
    <radialGradient id="altSmallTop" cx="0.5" cy="0.52" r="0.56">
      <stop offset="0%" stop-color="#1f222a"/>
      <stop offset="45%" stop-color="#313744"/>
      <stop offset="78%" stop-color="#535c6d"/>
      <stop offset="100%" stop-color="#6c7587"/>
    </radialGradient>
    <linearGradient id="altSmallTopSheen" x1="0.22" y1="0.18" x2="0.78" y2="0.86">
      <stop offset="0%" stop-color="#eef3ff" stop-opacity="0.32"/>
      <stop offset="40%" stop-color="#b3bbcd" stop-opacity="0.08"/>
      <stop offset="100%" stop-color="#000000" stop-opacity="0"/>
    </linearGradient>
  </defs>
  <circle
    cx="15"
    cy="15"
    r="11.6"
    fill="url(#altSmallShadow)"/>
  <g>
    <circle
      cx="15"
      cy="15"
      r="12.8"
      fill="url(#altSmallDisc)"/>
    <circle
      cx="15"
      cy="15"
      r="12.8"
      fill="url(#altSmallDiscHighlight)"/>
    <circle
      cx="15"
      cy="15"
      r="12.0"
      fill="none"
      stroke="#0a0b0f"
      stroke-width="0.6"
      opacity="0.5"/>
    <circle
      cx="15"
      cy="15"
      r="12.6"
      fill="none"
      stroke="#1b1e26"
      stroke-width="0.3"
      opacity="0.55"/>
  </g>
  <g>
    <path
      d="M 26.600 15.000
         C 26.600 15.367 26.409 15.763 26.172 16.100
         C 25.936 16.438 25.512 16.744 25.181 17.025
         C 24.849 17.306 24.467 17.538 24.181 17.785
         C 23.895 18.032 23.669 18.262 23.465 18.506
         C 23.261 18.751 23.122 19.005 22.958 19.254
         C 22.795 19.503 22.651 19.758 22.484 20.001
         C 22.317 20.243 22.144 20.482 21.957 20.710
         C 21.770 20.937 21.572 21.156 21.364 21.364
         C 21.156 21.572 20.937 21.770 20.710 21.957
         C 20.482 22.144 20.243 22.317 20.001 22.484
         C 19.758 22.651 19.503 22.795 19.254 22.958
         C 19.005 23.122 18.751 23.261 18.506 23.465
         C 18.262 23.669 18.032 23.895 17.785 24.181
         C 17.538 24.467 17.306 24.849 17.025 25.181
         C 16.744 25.512 16.438 25.936 16.100 26.172
         C 15.763 26.409 15.367 26.600 15.000 26.600
         C 14.633 26.600 14.237 26.409 13.900 26.172
         C 13.562 25.936 13.256 25.512 12.975 25.181
         C 12.694 24.849 12.462 24.467 12.215 24.181
         C 11.968 23.895 11.738 23.669 11.494 23.465
         C 11.249 23.261 10.995 23.122 10.746 22.958
         C 10.497 22.795 10.242 22.651 9.999 22.484
         C 9.757 22.317 9.518 22.144 9.290 21.957
         C 9.063 21.770 8.844 21.572 8.636 21.364
         C 8.428 21.156 8.230 20.937 8.043 20.710
         C 7.856 20.482 7.683 20.243 7.516 20.001
         C 7.349 19.758 7.205 19.503 7.042 19.254
         C 6.878 19.005 6.739 18.751 6.535 18.506
         C 6.331 18.262 6.105 18.032 5.819 17.785
         C 5.533 17.538 5.151 17.306 4.819 17.025
         C 4.488 16.744 4.064 16.438 3.828 16.100
         C 3.591 15.763 3.400 15.367 3.400 15.000
         C 3.400 14.633 3.591 14.237 3.828 13.900
         C 4.064 13.562 4.488 13.256 4.819 12.975
         C 5.151 12.694 5.533 12.462 5.819 12.215
         C 6.105 11.968 6.331 11.738 6.535 11.494
         C 6.739 11.249 6.878 10.995 7.042 10.746
         C 7.205 10.497 7.349 10.242 7.516 9.999
         C 7.683 9.757 7.856 9.518 8.043 9.290
         C 8.230 9.063 8.428 8.844 8.636 8.636
         C 8.844 8.428 9.063 8.230 9.290 8.043
         C 9.518 7.856 9.757 7.683 9.999 7.516
         C 10.242 7.349 10.497 7.205 10.746 7.042
         C 10.995 6.878 11.249 6.739 11.494 6.535
         C 11.738 6.331 11.968 6.105 12.215 5.819
         C 12.462 5.533 12.694 5.151 12.975 4.819
         C 13.256 4.488 13.562 4.064 13.900 3.828
         C 14.237 3.591 14.633 3.400 15.000 3.400
         C 15.367 3.400 15.763 3.591 16.100 3.828
         C 16.438 4.064 16.744 4.488 17.025 4.819
         C 17.306 5.151 17.538 5.533 17.785 5.819
         C 18.032 6.105 18.262 6.331 18.506 6.535
         C 18.751 6.739 19.005 6.878 19.254 7.042
         C 19.503 7.205 19.758 7.349 20.001 7.516
         C 20.243 7.683 20.482 7.856 20.710 8.043
         C 20.937 8.230 21.156 8.428 21.364 8.636
         C 21.572 8.844 21.770 9.063 21.957 9.290
         C 22.144 9.518 22.317 9.757 22.484 9.999
         C 22.651 10.242 22.795 10.497 22.958 10.746
         C 23.122 10.995 23.261 11.249 23.465 11.494
         C 23.669 11.738 23.895 11.968 24.181 12.215
         C 24.467 12.462 24.849 12.694 25.181 12.975
         C 25.512 13.256 25.936 13.562 26.172 13.900
         C 26.409 14.237 26.600 14.633 26.600 15.000
         Z"
      fill="url(#altSmallBody)"/>
    <path
      d="M 26.600 15.000
         C 26.600 15.367 26.409 15.763 26.172 16.100
         C 25.936 16.438 25.512 16.744 25.181 17.025
         C 24.849 17.306 24.467 17.538 24.181 17.785
         C 23.895 18.032 23.669 18.262 23.465 18.506
         C 23.261 18.751 23.122 19.005 22.958 19.254
         C 22.795 19.503 22.651 19.758 22.484 20.001
         C 22.317 20.243 22.144 20.482 21.957 20.710
         C 21.770 20.937 21.572 21.156 21.364 21.364
         C 21.156 21.572 20.937 21.770 20.710 21.957
         C 20.482 22.144 20.243 22.317 20.001 22.484
         C 19.758 22.651 19.503 22.795 19.254 22.958
         C 19.005 23.122 18.751 23.261 18.506 23.465
         C 18.262 23.669 18.032 23.895 17.785 24.181
         C 17.538 24.467 17.306 24.849 17.025 25.181
         C 16.744 25.512 16.438 25.936 16.100 26.172
         C 15.763 26.409 15.367 26.600 15.000 26.600
         C 14.633 26.600 14.237 26.409 13.900 26.172
         C 13.562 25.936 13.256 25.512 12.975 25.181
         C 12.694 24.849 12.462 24.467 12.215 24.181
         C 11.968 23.895 11.738 23.669 11.494 23.465
         C 11.249 23.261 10.995 23.122 10.746 22.958
         C 10.497 22.795 10.242 22.651 9.999 22.484
         C 9.757 22.317 9.518 22.144 9.290 21.957
         C 9.063 21.770 8.844 21.572 8.636 21.364
         C 8.428 21.156 8.230 20.937 8.043 20.710
         C 7.856 20.482 7.683 20.243 7.516 20.001
         C 7.349 19.758 7.205 19.503 7.042 19.254
         C 6.878 19.005 6.739 18.751 6.535 18.506
         C 6.331 18.262 6.105 18.032 5.819 17.785
         C 5.533 17.538 5.151 17.306 4.819 17.025
         C 4.488 16.744 4.064 16.438 3.828 16.100
         C 3.591 15.763 3.400 15.367 3.400 15.000
         C 3.400 14.633 3.591 14.237 3.828 13.900
         C 4.064 13.562 4.488 13.256 4.819 12.975
         C 5.151 12.694 5.533 12.462 5.819 12.215
         C 6.105 11.968 6.331 11.738 6.535 11.494
         C 6.739 11.249 6.878 10.995 7.042 10.746
         C 7.205 10.497 7.349 10.242 7.516 9.999
         C 7.683 9.757 7.856 9.518 8.043 9.290
         C 8.230 9.063 8.428 8.844 8.636 8.636
         C 8.844 8.428 9.063 8.230 9.290 8.043
         C 9.518 7.856 9.757 7.683 9.999 7.516
         C 10.242 7.349 10.497 7.205 10.746 7.042
         C 10.995 6.878 11.249 6.739 11.494 6.535
         C 11.738 6.331 11.968 6.105 12.215 5.819
         C 12.462 5.533 12.694 5.151 12.975 4.819
         C 13.256 4.488 13.562 4.064 13.900 3.828
         C 14.237 3.591 14.633 3.400 15.000 3.400
         C 15.367 3.400 15.763 3.591 16.100 3.828
         C 16.438 4.064 16.744 4.488 17.025 4.819
         C 17.306 5.151 17.538 5.533 17.785 5.819
         C 18.032 6.105 18.262 6.331 18.506 6.535
         C 18.751 6.739 19.005 6.878 19.254 7.042
         C 19.503 7.205 19.758 7.349 20.001 7.516
         C 20.243 7.683 20.482 7.856 20.710 8.043
         C 20.937 8.230 21.156 8.428 21.364 8.636
         C 21.572 8.844 21.770 9.063 21.957 9.290
         C 22.144 9.518 22.317 9.757 22.484 9.999
         C 22.651 10.242 22.795 10.497 22.958 10.746
         C 23.122 10.995 23.261 11.249 23.465 11.494
         C 23.669 11.738 23.895 11.968 24.181 12.215
         C 24.467 12.462 24.849 12.694 25.181 12.975
         C 25.512 13.256 25.936 13.562 26.172 13.900
         C 26.409 14.237 26.600 14.633 26.600 15.000
         Z"
      fill="url(#altSmallBodyHighlight)"/>
    <path
      d="M 26.600 15.000
         C 26.600 15.367 26.409 15.763 26.172 16.100
         C 25.936 16.438 25.512 16.744 25.181 17.025
         C 24.849 17.306 24.467 17.538 24.181 17.785
         C 23.895 18.032 23.669 18.262 23.465 18.506
         C 23.261 18.751 23.122 19.005 22.958 19.254
         C 22.795 19.503 22.651 19.758 22.484 20.001
         C 22.317 20.243 22.144 20.482 21.957 20.710
         C 21.770 20.937 21.572 21.156 21.364 21.364
         C 21.156 21.572 20.937 21.770 20.710 21.957
         C 20.482 22.144 20.243 22.317 20.001 22.484
         C 19.758 22.651 19.503 22.795 19.254 22.958
         C 19.005 23.122 18.751 23.261 18.506 23.465
         C 18.262 23.669 18.032 23.895 17.785 24.181
         C 17.538 24.467 17.306 24.849 17.025 25.181
         C 16.744 25.512 16.438 25.936 16.100 26.172
         C 15.763 26.409 15.367 26.600 15.000 26.600
         C 14.633 26.600 14.237 26.409 13.900 26.172
         C 13.562 25.936 13.256 25.512 12.975 25.181
         C 12.694 24.849 12.462 24.467 12.215 24.181
         C 11.968 23.895 11.738 23.669 11.494 23.465
         C 11.249 23.261 10.995 23.122 10.746 22.958
         C 10.497 22.795 10.242 22.651 9.999 22.484
         C 9.757 22.317 9.518 22.144 9.290 21.957
         C 9.063 21.770 8.844 21.572 8.636 21.364
         C 8.428 21.156 8.230 20.937 8.043 20.710
         C 7.856 20.482 7.683 20.243 7.516 20.001
         C 7.349 19.758 7.205 19.503 7.042 19.254
         C 6.878 19.005 6.739 18.751 6.535 18.506
         C 6.331 18.262 6.105 18.032 5.819 17.785
         C 5.533 17.538 5.151 17.306 4.819 17.025
         C 4.488 16.744 4.064 16.438 3.828 16.100
         C 3.591 15.763 3.400 15.367 3.400 15.000
         C 3.400 14.633 3.591 14.237 3.828 13.900
         C 4.064 13.562 4.488 13.256 4.819 12.975
         C 5.151 12.694 5.533 12.462 5.819 12.215
         C 6.105 11.968 6.331 11.738 6.535 11.494
         C 6.739 11.249 6.878 10.995 7.042 10.746
         C 7.205 10.497 7.349 10.242 7.516 9.999
         C 7.683 9.757 7.856 9.518 8.043 9.290
         C 8.230 9.063 8.428 8.844 8.636 8.636
         C 8.844 8.428 9.063 8.230 9.290 8.043
         C 9.518 7.856 9.757 7.683 9.999 7.516
         C 10.242 7.349 10.497 7.205 10.746 7.042
         C 10.995 6.878 11.249 6.739 11.494 6.535
         C 11.738 6.331 11.968 6.105 12.215 5.819
         C 12.462 5.533 12.694 5.151 12.975 4.819
         C 13.256 4.488 13.562 4.064 13.900 3.828
         C 14.237 3.591 14.633 3.400 15.000 3.400
         C 15.367 3.400 15.763 3.591 16.100 3.828
         C 16.438 4.064 16.744 4.488 17.025 4.819
         C 17.306 5.151 17.538 5.533 17.785 5.819
         C 18.032 6.105 18.262 6.331 18.506 6.535
         C 18.751 6.739 19.005 6.878 19.254 7.042
         C 19.503 7.205 19.758 7.349 20.001 7.516
         C 20.243 7.683 20.482 7.856 20.710 8.043
         C 20.937 8.230 21.156 8.428 21.364 8.636
         C 21.572 8.844 21.770 9.063 21.957 9.290
         C 22.144 9.518 22.317 9.757 22.484 9.999
         C 22.651 10.242 22.795 10.497 22.958 10.746
         C 23.122 10.995 23.261 11.249 23.465 11.494
         C 23.669 11.738 23.895 11.968 24.181 12.215
         C 24.467 12.462 24.849 12.694 25.181 12.975
         C 25.512 13.256 25.936 13.562 26.172 13.900
         C 26.409 14.237 26.600 14.633 26.600 15.000
         Z"
      fill="none"
      stroke="url(#altSmallEdge)"
      stroke-width="0.7"
      stroke-linejoin="round"/>
  </g>
  <g>
    <circle
      cx="15"
      cy="15"
      r="8.4"
      fill="none"
      stroke="url(#altSmallRidge)"
      stroke-width="0.6"/>
    <circle
      cx="15"
      cy="15"
      r="7.5"
      fill="url(#altSmallTop)"/>
    <circle
      cx="15"
      cy="15"
      r="7.5"
      fill="url(#altSmallTopSheen)"/>
    <circle
      cx="15"
      cy="15"
      r="7.5"
      fill="none"
      stroke="#0b0c10"
      stroke-width="0.55"
      opacity="0.45"/>
    <circle
      cx="15"
      cy="15"
      r="6.2"
      fill="none"
      stroke="#8e95a5"
      stroke-width="0.45"
      opacity="0.55"/>
    <circle
      cx="15"
      cy="15"
      r="5.1"
      fill="#191b22"
      opacity="0.78"/>
    <circle
      cx="15"
      cy="15"
      r="4.9"
      fill="url(#altSmallTop)"/>
    <circle
      cx="15"
      cy="15"
      r="4.9"
      fill="url(#altSmallTopSheen)"/>
  </g>
</svg>
