<?xml version="1.0" encoding="UTF-8" standalone="no"?>
<svg
  width="20mm"
  height="20mm"
  viewBox="0 0 52 52"
  version="1.1"
  xmlns="http://www.w3.org/2000/svg">
  <defs>
    <radialGradient id="altMediumShadow" cx="0.5" cy="0.55" r="0.55">
      <stop offset="0%" stop-color="#000000" stop-opacity="0.35"/>
      <stop offset="60%" stop-color="#000000" stop-opacity="0.18"/>
      <stop offset="100%" stop-color="#000000" stop-opacity="0"/>
    </radialGradient>
    <radialGradient id="altMediumDisc" cx="0.5" cy="0.52" r="0.78">
      <stop offset="0%" stop-color="#3c404a"/>
      <stop offset="38%" stop-color="#1a1d24"/>
      <stop offset="100%" stop-color="#020203"/>
    </radialGradient>
    <radialGradient id="altMediumDiscHighlight" cx="0.5" cy="0.4" r="0.52">
      <stop offset="0%" stop-color="#ffffff" stop-opacity="0.7"/>
      <stop offset="55%" stop-color="#b9c1d2" stop-opacity="0.25"/>
      <stop offset="100%" stop-color="#353a45" stop-opacity="0"/>
    </radialGradient>
    <radialGradient id="altMediumBody" cx="0.5" cy="0.46" r="0.74">
      <stop offset="0%" stop-color="#798292"/>
      <stop offset="38%" stop-color="#404650"/>
      <stop offset="78%" stop-color="#1b1e24"/>
      <stop offset="100%" stop-color="#090a0d"/>
    </radialGradient>
    <radialGradient id="altMediumBodyHighlight" cx="0.5" cy="0.36" r="0.58">
      <stop offset="0%" stop-color="#dae0ef" stop-opacity="0.55"/>
      <stop offset="45%" stop-color="#9ea6b6" stop-opacity="0.24"/>
      <stop offset="100%" stop-color="#181b22" stop-opacity="0"/>
    </radialGradient>
    <linearGradient id="altMediumEdge" x1="0.32" y1="0.16" x2="0.68" y2="0.92">
      <stop offset="0%" stop-color="#cdd4e5" stop-opacity="0.55"/>
      <stop offset="55%" stop-color="#5e6471" stop-opacity="0.18"/>
      <stop offset="100%" stop-color="#050609" stop-opacity="0.85"/>
    </linearGradient>
    <linearGradient id="altMediumRidge" x1="0.28" y1="0.2" x2="0.72" y2="0.86">
      <stop offset="0%" stop-color="#dde3f1" stop-opacity="0.45"/>
      <stop offset="50%" stop-color="#7f8799" stop-opacity="0.18"/>
      <stop offset="100%" stop-color="#08090d" stop-opacity="0.8"/>
    </linearGradient>
    <radialGradient id="altMediumTop" cx="0.5" cy="0.44" r="0.52">
      <stop offset="0%" stop-color="#8c94a5"/>
      <stop offset="55%" stop-color="#404652"/>
      <stop offset="80%" stop-color="#1e2129"/>
      <stop offset="100%" stop-color="#08090d"/>
    </radialGradient>
    <radialGradient id="altMediumTopSheen" cx="0.5" cy="0.34" r="0.38">
      <stop offset="0%" stop-color="#ffffff" stop-opacity="0.75"/>
      <stop offset="45%" stop-color="#d5dced" stop-opacity="0.28"/>
      <stop offset="100%" stop-color="#485064" stop-opacity="0"/>
    </radialGradient>
    <radialGradient id="altMediumCenterGlow" cx="0.5" cy="0.36" r="0.28">
      <stop offset="0%" stop-color="#ffffff" stop-opacity="0.95"/>
      <stop offset="60%" stop-color="#b7c0d6" stop-opacity="0.4"/>
      <stop offset="100%" stop-color="#475063" stop-opacity="0"/>
    </radialGradient>
  </defs>
  <g transform="translate(26,26) scale(1.7333333) translate(-15,-15)">
    <circle
      cx="15"
      cy="15"
      r="11.6"
      fill="url(#altMediumShadow)"/>
    <g>
      <circle
        cx="15"
        cy="15"
        r="12.8"
        fill="url(#altMediumDisc)"/>
      <circle
        cx="15"
        cy="15"
        r="12.8"
        fill="url(#altMediumDiscHighlight)"/>
      <circle
        cx="15"
        cy="15"
        r="12.0"
        fill="none"
        stroke="#0a0b0f"
        stroke-width="0.6"
        opacity="0.5"/>
      <circle
        cx="15"
        cy="15"
        r="12.6"
        fill="none"
        stroke="#1b1e26"
        stroke-width="0.3"
        opacity="0.55"/>
    </g>
    <g>
      <path
        d="M 15.000 3.600
           A 10.200 10.200 0 0 1 18.903 5.576
           A 11.400 11.400 0 0 1 23.061 6.939
           A 10.200 10.200 0 0 1 24.424 11.097
           A 11.400 11.400 0 0 1 26.400 15.000
           A 10.200 10.200 0 0 1 24.424 18.903
           A 11.400 11.400 0 0 1 23.061 23.061
           A 10.200 10.200 0 0 1 18.903 24.424
           A 11.400 11.400 0 0 1 15.000 26.400
           A 10.200 10.200 0 0 1 11.097 24.424
           A 11.400 11.400 0 0 1 6.939 23.061
           A 10.200 10.200 0 0 1 5.576 18.903
           A 11.400 11.400 0 0 1 3.600 15.000
           A 10.200 10.200 0 0 1 5.576 11.097
           A 11.400 11.400 0 0 1 6.939 6.939
           A 10.200 10.200 0 0 1 11.097 5.576
           A 11.400 11.400 0 0 1 15.000 3.600 Z"
        fill="url(#altMediumBody)"/>
      <path
        d="M 15.000 3.600
           A 10.200 10.200 0 0 1 18.903 5.576
           A 11.400 11.400 0 0 1 23.061 6.939
           A 10.200 10.200 0 0 1 24.424 11.097
           A 11.400 11.400 0 0 1 26.400 15.000
           A 10.200 10.200 0 0 1 24.424 18.903
           A 11.400 11.400 0 0 1 23.061 23.061
           A 10.200 10.200 0 0 1 18.903 24.424
           A 11.400 11.400 0 0 1 15.000 26.400
           A 10.200 10.200 0 0 1 11.097 24.424
           A 11.400 11.400 0 0 1 6.939 23.061
           A 10.200 10.200 0 0 1 5.576 18.903
           A 11.400 11.400 0 0 1 3.600 15.000
           A 10.200 10.200 0 0 1 5.576 11.097
           A 11.400 11.400 0 0 1 6.939 6.939
           A 10.200 10.200 0 0 1 11.097 5.576
           A 11.400 11.400 0 0 1 15.000 3.600 Z"
        fill="url(#altMediumBodyHighlight)"
        opacity="0.6"/>
      <path
        d="M 15.000 3.600
           A 10.200 10.200 0 0 1 18.903 5.576
           A 11.400 11.400 0 0 1 23.061 6.939
           A 10.200 10.200 0 0 1 24.424 11.097
           A 11.400 11.400 0 0 1 26.400 15.000
           A 10.200 10.200 0 0 1 24.424 18.903
           A 11.400 11.400 0 0 1 23.061 23.061
           A 10.200 10.200 0 0 1 18.903 24.424
           A 11.400 11.400 0 0 1 15.000 26.400
           A 10.200 10.200 0 0 1 11.097 24.424
           A 11.400 11.400 0 0 1 6.939 23.061
           A 10.200 10.200 0 0 1 5.576 18.903
           A 11.400 11.400 0 0 1 3.600 15.000
           A 10.200 10.200 0 0 1 5.576 11.097
           A 11.400 11.400 0 0 1 6.939 6.939
           A 10.200 10.200 0 0 1 11.097 5.576
           A 11.400 11.400 0 0 1 15.000 3.600 Z"
        fill="none"
        stroke="url(#altMediumEdge)"
        stroke-width="0.7"
        stroke-linejoin="round"/>
    </g>
    <g>
      <circle
        cx="15"
        cy="15"
        r="8.4"
        fill="none"
        stroke="url(#altMediumRidge)"
        stroke-width="0.6"/>
      <circle
        cx="15"
        cy="15"
        r="7.5"
        fill="url(#altMediumTop)"/>
      <circle
        cx="15"
        cy="15"
        r="7.5"
        fill="url(#altMediumTopSheen)"/>
      <circle
        cx="15"
        cy="15"
        r="7.5"
        fill="none"
        stroke="#0b0c10"
        stroke-width="0.55"
        opacity="0.45"/>
      <circle
        cx="15"
        cy="15"
        r="5.1"
        fill="#191b22"
        opacity="0.78"/>
      <circle
        cx="15"
        cy="15"
        r="4.9"
        fill="url(#altMediumTop)"/>
      <circle
        cx="15"
        cy="15"
        r="4.9"
        fill="url(#altMediumTopSheen)"/>
      <circle
        cx="15"
        cy="14.4"
        r="3.1"
        fill="url(#altMediumCenterGlow)"
        opacity="0.88"/>
    </g>
  </g>
</svg>
