<svg width="28" height="28" viewBox="0 0 28 28" xmlns="http://www.w3.org/2000/svg">
  <!-- Drop shadow -->
  <circle cx="14.5" cy="14.5" r="13" fill="#000000" opacity="0.2"/>
  
  <!-- Base knob - darkest layer -->
  <circle cx="14" cy="14" r="12.5" fill="#0a0a0a"/>
  
  <!-- Ultra-smooth gradient with tiny steps -->
  <circle cx="14" cy="14" r="12" fill="#1a1a1a" opacity="0.95"/>
  <circle cx="14" cy="14" r="11.8" fill="#1d1d1d" opacity="0.93"/>
  <circle cx="14" cy="14" r="11.6" fill="#202020" opacity="0.91"/>
  <circle cx="14" cy="14" r="11.4" fill="#232323" opacity="0.89"/>
  <circle cx="14" cy="14" r="11.2" fill="#262626" opacity="0.87"/>
  <circle cx="14" cy="14" r="11" fill="#292929" opacity="0.85"/>
  <circle cx="14" cy="14" r="10.8" fill="#2c2c2c" opacity="0.83"/>
  <circle cx="14" cy="14" r="10.6" fill="#2f2f2f" opacity="0.81"/>
  <circle cx="14" cy="14" r="10.4" fill="#323232" opacity="0.79"/>
  <circle cx="14" cy="14" r="10.2" fill="#353535" opacity="0.77"/>
  <circle cx="14" cy="14" r="10" fill="#383838" opacity="0.75"/>
  <circle cx="14" cy="14" r="9.8" fill="#3b3b3b" opacity="0.73"/>
  <circle cx="14" cy="14" r="9.6" fill="#3e3e3e" opacity="0.71"/>
  <circle cx="14" cy="14" r="9.4" fill="#414141" opacity="0.69"/>
  <circle cx="14" cy="14" r="9.2" fill="#444444" opacity="0.67"/>
  <circle cx="14" cy="14" r="9" fill="#474747" opacity="0.65"/>
  <circle cx="14" cy="14" r="8.8" fill="#4a4a4a" opacity="0.63"/>
  <circle cx="14" cy="14" r="8.6" fill="#4d4d4d" opacity="0.61"/>
  <circle cx="14" cy="14" r="8.4" fill="#505050" opacity="0.59"/>
  <circle cx="14" cy="14" r="8.2" fill="#535353" opacity="0.57"/>
  <circle cx="14" cy="14" r="8" fill="#565656" opacity="0.55"/>
  <circle cx="14" cy="14" r="7.8" fill="#595959" opacity="0.53"/>
  <circle cx="14" cy="14" r="7.6" fill="#5c5c5c" opacity="0.51"/>
  <circle cx="14" cy="14" r="7.4" fill="#5f5f5f" opacity="0.49"/>
  <circle cx="14" cy="14" r="7.2" fill="#626262" opacity="0.47"/>
  <circle cx="14" cy="14" r="7" fill="#656565" opacity="0.45"/>
  <circle cx="14" cy="14" r="6.8" fill="#686868" opacity="0.43"/>
  <circle cx="14" cy="14" r="6.6" fill="#6b6b6b" opacity="0.41"/>
  <circle cx="14" cy="14" r="6.4" fill="#6e6e6e" opacity="0.39"/>
  <circle cx="14" cy="14" r="6.2" fill="#717171" opacity="0.37"/>
  <circle cx="14" cy="14" r="6" fill="#747474" opacity="0.35"/>
  
  <!-- Bottom shadow for depth -->
  <ellipse cx="14.5" cy="14.5" rx="10" ry="9" fill="#000000" opacity="0.15"/>
  
  <!-- Rim details -->
  <circle cx="14" cy="14" r="12.2" fill="none" stroke="#5a5a5a" stroke-width="0.2" opacity="0.4"/>
  <circle cx="14" cy="14" r="11" fill="none" stroke="#1a1a1a" stroke-width="0.2"/>
  
  <!-- Realistic highlight layers -->
  <ellipse cx="11.5" cy="11.5" rx="4" ry="2.8" fill="#ffffff" opacity="0.12" transform="rotate(-25 11.5 11.5)"/>
  <ellipse cx="11" cy="11" rx="2.5" ry="1.7" fill="#ffffff" opacity="0.15" transform="rotate(-25 11 11)"/>
  <ellipse cx="10.5" cy="10.5" rx="1.3" ry="0.9" fill="#ffffff" opacity="0.2" transform="rotate(-25 10.5 10.5)"/>
</svg>