<svg width="20mm" height="20mm" viewBox="0 0 52 52" xmlns="http://www.w3.org/2000/svg">
  <!-- Drop shadow -->
  <circle cx="26.3" cy="26.3" r="10.5" fill="#000000" opacity="0.15"/>
  
  <!-- Base knob - darkest layer -->
  <circle cx="26" cy="26" r="10.0" fill="#0a0a0a"/>
  
  <!-- Ultra-smooth gradient with tiny steps -->
  <circle cx="26" cy="26" r="20.2" fill="#1a1a1a" opacity="0.95"/>
  <circle cx="26" cy="26" r="19.9" fill="#1d1d1d" opacity="0.93"/>
  <circle cx="26" cy="26" r="19.5" fill="#202020" opacity="0.91"/>
  <circle cx="26" cy="26" r="19.2" fill="#232323" opacity="0.89"/>
  <circle cx="26" cy="26" r="18.8" fill="#262626" opacity="0.87"/>
  <circle cx="26" cy="26" r="18.5" fill="#292929" opacity="0.85"/>
  <circle cx="26" cy="26" r="18.1" fill="#2c2c2c" opacity="0.83"/>
  <circle cx="26" cy="26" r="17.8" fill="#2f2f2f" opacity="0.81"/>
  <circle cx="26" cy="26" r="17.5" fill="#323232" opacity="0.79"/>
  <circle cx="26" cy="26" r="17.1" fill="#353535" opacity="0.77"/>
  <circle cx="26" cy="26" r="16.8" fill="#383838" opacity="0.75"/>
  <circle cx="26" cy="26" r="16.4" fill="#3b3b3b" opacity="0.73"/>
  <circle cx="26" cy="26" r="16.1" fill="#3e3e3e" opacity="0.71"/>
  <circle cx="26" cy="26" r="15.7" fill="#414141" opacity="0.69"/>
  <circle cx="26" cy="26" r="15.4" fill="#444444" opacity="0.67"/>
  <circle cx="26" cy="26" r="15.0" fill="#474747" opacity="0.65"/>
  <circle cx="26" cy="26" r="14.7" fill="#4a4a4a" opacity="0.63"/>
  <circle cx="26" cy="26" r="14.3" fill="#4d4d4d" opacity="0.61"/>
  <circle cx="26" cy="26" r="14.0" fill="#505050" opacity="0.59"/>
  <circle cx="26" cy="26" r="13.6" fill="#535353" opacity="0.57"/>
  <circle cx="26" cy="26" r="13.3" fill="#565656" opacity="0.55"/>
  <circle cx="26" cy="26" r="13.0" fill="#595959" opacity="0.53"/>
  <circle cx="26" cy="26" r="12.6" fill="#5c5c5c" opacity="0.51"/>
  <circle cx="26" cy="26" r="12.3" fill="#5f5f5f" opacity="0.49"/>
  <circle cx="26" cy="26" r="11.9" fill="#626262" opacity="0.47"/>
  <circle cx="26" cy="26" r="11.6" fill="#656565" opacity="0.45"/>
  <circle cx="26" cy="26" r="11.2" fill="#686868" opacity="0.43"/>
  <circle cx="26" cy="26" r="10.9" fill="#6b6b6b" opacity="0.41"/>
  <circle cx="26" cy="26" r="10.5" fill="#6e6e6e" opacity="0.39"/>
  <circle cx="26" cy="26" r="10.2" fill="#717171" opacity="0.37"/>
  <circle cx="26" cy="26" r="9.8" fill="#747474" opacity="0.35"/>
  
  <!-- Rim details -->
  <circle cx="26" cy="26" r="19.9" fill="none" stroke="#5a5a5a" stroke-width="0.35" opacity="0.4"/>
  
  <!-- Realistic highlight layers -->
  <ellipse cx="18.5" cy="18.5" rx="6.4" ry="4.4" fill="#ffffff" opacity="0.12" transform="rotate(-25 18.5 18.5)"/>
  <ellipse cx="17.9" cy="17.9" rx="4.0" ry="2.7" fill="#ffffff" opacity="0.15" transform="rotate(-25 17.9 17.9)"/>
  <ellipse cx="17.3" cy="17.3" rx="2.1" ry="1.4" fill="#ffffff" opacity="0.2" transform="rotate(-25 17.3 17.3)"/>
</svg>
