<svg width="16mm" height="16mm" viewBox="0 0 30 30" xmlns="http://www.w3.org/2000/svg">
  <!-- Drop shadow -->
  <circle cx="15.2" cy="15.2" r="3.0" fill="#000000" opacity="0.15"/>
  
  <!-- Base knob - darkest layer (align closer to other sizes) -->
  <circle cx="15" cy="15" r="3.0" fill="#202020"/>
  
  <!-- Multi-layer gradient using overlapping circles with opacity -->
  <circle cx="15" cy="15" r="12.0" fill="#1a1a1a" opacity="0.95"/>
  <circle cx="15" cy="15" r="11.5" fill="#1d1d1d" opacity="0.93"/>
  <circle cx="15" cy="15" r="11.0" fill="#202020" opacity="0.91"/>
  <circle cx="15" cy="15" r="10.5" fill="#232323" opacity="0.89"/>
  <circle cx="15" cy="15" r="10.0" fill="#2a2a2a" opacity="0.87"/>
  <circle cx="15" cy="15" r="9.5" fill="#2f2f2f" opacity="0.85"/>
  <circle cx="15" cy="15" r="9.0" fill="#323232" opacity="0.83"/>
  <circle cx="15" cy="15" r="8.5" fill="#353535" opacity="0.81"/>
  <circle cx="15" cy="15" r="8.0" fill="#383838" opacity="0.79"/>
  <circle cx="15" cy="15" r="7.5" fill="#3b3b3b" opacity="0.77"/>
  <circle cx="15" cy="15" r="7.0" fill="#3e3e3e" opacity="0.75"/>
  <circle cx="15" cy="15" r="6.5" fill="#414141" opacity="0.73"/>
  <circle cx="15" cy="15" r="6.0" fill="#444444" opacity="0.70"/>
  <circle cx="15" cy="15" r="5.6" fill="#4a4a4a" opacity="0.66"/>
  <circle cx="15" cy="15" r="5.2" fill="#505050" opacity="0.62"/>
  <circle cx="15" cy="15" r="4.8" fill="#565656" opacity="0.58"/>
  <circle cx="15" cy="15" r="4.4" fill="#5c5c5c" opacity="0.54"/>
  <circle cx="15" cy="15" r="4.0" fill="#626262" opacity="0.50"/>
  <circle cx="15" cy="15" r="3.6" fill="#686868" opacity="0.46"/>
  <circle cx="15" cy="15" r="3.2" fill="#6e6e6e" opacity="0.42"/>
  <circle cx="15" cy="15" r="2.8" fill="#747474" opacity="0.38"/>
  
  <!-- Rim details -->
  <circle cx="15" cy="15" r="12.0" fill="none" stroke="#5a5a5a" stroke-width="0.25" opacity="0.4"/>
  
  <!-- Highlight layers for 3D effect -->
  <ellipse cx="11.7" cy="11.7" rx="3.7" ry="2.5" fill="#ffffff" opacity="0.12" transform="rotate(-25 11.7 11.7)"/>
  <ellipse cx="11.3" cy="11.3" rx="2.3" ry="1.7" fill="#ffffff" opacity="0.15" transform="rotate(-25 11.3 11.3)"/>
  <ellipse cx="11.0" cy="11.0" rx="1.3" ry="0.8" fill="#ffffff" opacity="0.2" transform="rotate(-25 11.0 11.0)"/>
</svg>
