<svg width="18" height="18" viewBox="0 0 18 18" xmlns="http://www.w3.org/2000/svg">
  <!-- Drop shadow -->
  <circle cx="9.5" cy="9.5" r="8" fill="#000000" opacity="0.2"/>
  
  <!-- Base knob - darkest layer -->
  <circle cx="9" cy="9" r="7.5" fill="#0a0a0a"/>
  
  <!-- Multi-layer gradient using overlapping circles with opacity -->
  <circle cx="9" cy="9" r="7.2" fill="#1a1a1a" opacity="0.95"/>
  <circle cx="9" cy="9" r="6.9" fill="#1d1d1d" opacity="0.93"/>
  <circle cx="9" cy="9" r="6.6" fill="#202020" opacity="0.91"/>
  <circle cx="9" cy="9" r="6.3" fill="#232323" opacity="0.89"/>
  <circle cx="9" cy="9" r="6" fill="#262626" opacity="0.87"/>
  <circle cx="9" cy="9" r="5.7" fill="#292929" opacity="0.85"/>
  <circle cx="9" cy="9" r="5.4" fill="#2c2c2c" opacity="0.83"/>
  <circle cx="9" cy="9" r="5.1" fill="#2f2f2f" opacity="0.81"/>
  <circle cx="9" cy="9" r="4.8" fill="#323232" opacity="0.79"/>
  <circle cx="9" cy="9" r="4.5" fill="#353535" opacity="0.77"/>
  <circle cx="9" cy="9" r="4.2" fill="#383838" opacity="0.75"/>
  <circle cx="9" cy="9" r="3.9" fill="#3b3b3b" opacity="0.73"/>
  <circle cx="9" cy="9" r="3.6" fill="#3e3e3e" opacity="0.71"/>
  <circle cx="9" cy="9" r="3.3" fill="#414141" opacity="0.69"/>
  <circle cx="9" cy="9" r="3" fill="#444444" opacity="0.67"/>
  
  <!-- Rim details -->
  <circle cx="9" cy="9" r="7.2" fill="none" stroke="#5a5a5a" stroke-width="0.15" opacity="0.4"/>
  <circle cx="9" cy="9" r="6.5" fill="none" stroke="#1a1a1a" stroke-width="0.15"/>
  
  <!-- Highlight layers for 3D effect -->
  <ellipse cx="7" cy="7" rx="2.2" ry="1.5" fill="#ffffff" opacity="0.12" transform="rotate(-25 7 7)"/>
  <ellipse cx="6.8" cy="6.8" rx="1.4" ry="1" fill="#ffffff" opacity="0.15" transform="rotate(-25 6.8 6.8)"/>
  <ellipse cx="6.6" cy="6.6" rx="0.8" ry="0.5" fill="#ffffff" opacity="0.2" transform="rotate(-25 6.6 6.6)"/>
</svg>