<svg width="58" height="58" viewBox="0 0 58 58" xmlns="http://www.w3.org/2000/svg">
  <!-- Drop shadow -->
  <circle cx="29.5" cy="29.5" r="28" fill="#000000" opacity="0.2"/>
  
  <!-- Base knob - darkest layer -->
  <circle cx="29" cy="29" r="27.5" fill="#202020"/>
  
  <!-- Multi-layer gradient using overlapping circles with opacity -->
  <circle cx="29" cy="29" r="27" fill="#252525" opacity="0.9"/>
  <circle cx="29" cy="29" r="26.5" fill="#2a2a2a" opacity="0.85"/>
  <circle cx="29" cy="29" r="26" fill="#303030" opacity="0.8"/>
  <circle cx="29" cy="29" r="25.5" fill="#353535" opacity="0.75"/>
  <circle cx="29" cy="29" r="25" fill="#3a3a3a" opacity="0.7"/>
  <circle cx="29" cy="29" r="24.5" fill="#404040" opacity="0.65"/>
  <circle cx="29" cy="29" r="24" fill="#454545" opacity="0.6"/>
  <circle cx="29" cy="29" r="23.5" fill="#4a4a4a" opacity="0.55"/>
  <circle cx="29" cy="29" r="23" fill="#505050" opacity="0.5"/>
  <circle cx="29" cy="29" r="22.5" fill="#555555" opacity="0.45"/>
  <circle cx="29" cy="29" r="22" fill="#5a5a5a" opacity="0.4"/>
  <circle cx="29" cy="29" r="21.5" fill="#606060" opacity="0.35"/>
  <circle cx="29" cy="29" r="21" fill="#656565" opacity="0.3"/>
  <circle cx="29" cy="29" r="20.5" fill="#6a6a6a" opacity="0.25"/>
  <circle cx="29" cy="29" r="20" fill="#707070" opacity="0.2"/>
  <circle cx="29" cy="29" r="19.5" fill="#757575" opacity="0.18"/>
  <circle cx="29" cy="29" r="19" fill="#7a7a7a" opacity="0.16"/>
  <circle cx="29" cy="29" r="18.5" fill="#808080" opacity="0.14"/>
  <circle cx="29" cy="29" r="18" fill="#858585" opacity="0.12"/>
  <circle cx="29" cy="29" r="17.5" fill="#8a8a8a" opacity="0.1"/>
  <circle cx="29" cy="29" r="17" fill="#909090" opacity="0.08"/>
  <circle cx="29" cy="29" r="16.5" fill="#959595" opacity="0.06"/>
  <circle cx="29" cy="29" r="16" fill="#9a9a9a" opacity="0.04"/>
  
  <!-- Rim details -->
  <circle cx="29" cy="29" r="27.2" fill="none" stroke="#606060" stroke-width="0.5" opacity="0.4"/>
  <circle cx="29" cy="29" r="26" fill="none" stroke="#1a1a1a" stroke-width="0.5"/>
  
  <!-- Highlight layers for 3D effect -->
  <ellipse cx="23" cy="23" rx="8.5" ry="5.8" fill="#ffffff" opacity="0.12" transform="rotate(-25 23 23)"/>
  <ellipse cx="22.5" cy="22.5" rx="5.5" ry="3.8" fill="#ffffff" opacity="0.15" transform="rotate(-25 22.5 22.5)"/>
  <ellipse cx="22" cy="22" rx="2.8" ry="1.9" fill="#ffffff" opacity="0.18" transform="rotate(-25 22 22)"/>
</svg>