<?xml version="1.0" encoding="UTF-8" standalone="no"?>
<svg xmlns:inkscape="http://www.inkscape.org/namespaces/inkscape" xmlns:sodipodi="http://sodipodi.sourceforge.net/DTD/sodipodi-0.dtd" xmlns="http://www.w3.org/2000/svg" xmlns:svg="http://www.w3.org/2000/svg" xmlns:rdf="http://www.w3.org/1999/02/22-rdf-syntax-ns#" xmlns:cc="http://creativecommons.org/ns#" xmlns:dc="http://purl.org/dc/elements/1.1/" sodipodi:docname="ChickenHead47x47Clean2.svg" inkscape:version="1.1.2 (b8e25be833, 2022-02-05)" id="svg8910" version="1.1" viewBox="0 0 127 127" height="127mm" width="127mm">
  <defs id="defs8904"/>
  
  
  <g inkscape:groupmode="layer" id="layer3" inkscape:label="Chicken" style="display:inline">
    <g id="g18038" transform="matrix(10.09303,0,0,10.09303,-0.59073954,-0.30136661)">
      <circle style="display:inline;fill:#3b3b3b;fill-opacity:1;stroke-width:0.451279;stroke-linecap:square" id="path1052" cx="6.3499999" cy="6.3917685" r="3.7899513" inkscape:label="path1052"/>
      <ellipse style="fill:#515151;fill-opacity:1;stroke:none;stroke-width:0.199447;stroke-linecap:square;stroke-miterlimit:4;stroke-dasharray:none;stroke-opacity:1" id="path14508" cx="6.3278551" cy="5.6444325" rx="2.4644172" ry="2.0246816"/>
      <circle style="fill:#191919;fill-opacity:1;stroke:#2b2b2b;stroke-width:0.159084;stroke-linecap:square;stroke-miterlimit:4;stroke-dasharray:none;stroke-opacity:1" id="path1158" cx="6.3499999" cy="6.3917685" r="2.1702054"/>
      <path style="fill:#191919;fill-opacity:1;stroke:none;stroke-width:0.286333px;stroke-linecap:butt;stroke-linejoin:miter;stroke-opacity:1" d="m 4.6275268,4.1816338 c 0.249103,-0.124465 0.4920823,-0.1693223 0.729255,-0.1386926 l 1.9193273,0.017895 C 7.598234,4.0429982 7.9203589,4.1942281 8.2424838,4.351644 7.8344521,3.9151001 7.4664942,3.5415483 6.8555573,3.233155 L 5.7773337,3.2689468 C 5.2087795,3.4987903 4.8865492,3.7136887 4.6275268,4.1816338 Z" id="path8278" sodipodi:nodetypes="ccccccc"/>
      <path style="display:inline;fill:#4c4c4c;fill-opacity:1;stroke:none;stroke-width:0.304178px;stroke-linecap:butt;stroke-linejoin:miter;stroke-opacity:1" d="M 4.4388669,11.641035 5.847859,0.10342257 c 0.2353315,-0.09343005 0.4651997,-0.09398281 0.6895069,0 L 8.2611329,11.653091 C 7.0494042,12.351154 5.7704693,12.370926 4.438867,11.641041 Z" id="path8782-7" sodipodi:nodetypes="cccccc"/>
      <path style="display:inline;fill:#191919;fill-opacity:1;stroke:none;stroke-width:0.286333px;stroke-linecap:butt;stroke-linejoin:miter;stroke-opacity:1" d="M 4.7365818,12.389153 5.9260822,0.27902662 c 0.1882915,-0.33294518 0.382784,-0.30623364 0.5820959,0 L 7.963418,12.401808 c -1.0229666,0.3643 -2.1026697,0.331444 -3.2268362,-0.01265 z" id="path8782" sodipodi:nodetypes="cccccc"/>
      <rect style="fill:#e9e9e9;fill-opacity:1;stroke:none;stroke-width:0.119283;stroke-linecap:square;stroke-miterlimit:4;stroke-dasharray:none;stroke-opacity:1" id="rect11708" width="0.41270167" height="3.1945593" x="6.017107" y="0.03859571" ry="0.20635083"/>
    </g>
  </g>
</svg>
