<?xml version="1.0" encoding="UTF-8"?>
<svg width="44" height="44" viewBox="0 0 44 44" xmlns="http://www.w3.org/2000/svg">
  <defs>
    <radialGradient id="bezelGradient" cx="50%" cy="43%" r="55%">
      <stop offset="0%" stop-color="#3a3937"/>
      <stop offset="45%" stop-color="#282726"/>
      <stop offset="85%" stop-color="#121110"/>
      <stop offset="100%" stop-color="#050403"/>
    </radialGradient>
    <radialGradient id="rimHighlight" cx="38%" cy="30%" r="65%">
      <stop offset="0%" stop-color="#ffffff" stop-opacity="0.22"/>
      <stop offset="70%" stop-color="#ffffff" stop-opacity="0.05"/>
      <stop offset="100%" stop-color="#ffffff" stop-opacity="0"/>
    </radialGradient>
    <radialGradient id="dirtGlow" cx="50%" cy="50%" r="50%">
      <stop offset="0%" stop-color="#ceb074" stop-opacity="0.38"/>
      <stop offset="100%" stop-color="#ceb074" stop-opacity="0"/>
    </radialGradient>
  </defs>
  <g>
    <circle cx="22" cy="22" r="20.5" fill="url(#bezelGradient)"/>
    <circle cx="22" cy="22" r="20.5" fill="url(#rimHighlight)"/>
    <circle cx="22" cy="22" r="16.5" fill="#1a1918" stroke="#020202" stroke-width="0.6" opacity="0.9"/>

    <g opacity="0.85">
      <path d="M22 5 A17 17 0 0 1 36 12.7" fill="none" stroke="#4b443a" stroke-width="0.6"/>
      <path d="M36 12.7 A17 17 0 0 1 38.5 22" fill="none" stroke="#4b443a" stroke-width="0.6"/>
      <path d="M38.5 22 A17 17 0 0 1 36 31.3" fill="none" stroke="#4b443a" stroke-width="0.6"/>
      <path d="M36 31.3 A17 17 0 0 1 22 39" fill="none" stroke="#4b443a" stroke-width="0.6"/>
      <path d="M22 39 A17 17 0 0 1 8 31.3" fill="none" stroke="#4b443a" stroke-width="0.6"/>
      <path d="M8 31.3 A17 17 0 0 1 5.5 22" fill="none" stroke="#4b443a" stroke-width="0.6"/>
      <path d="M5.5 22 A17 17 0 0 1 8 12.7" fill="none" stroke="#4b443a" stroke-width="0.6"/>
      <path d="M8 12.7 A17 17 0 0 1 22 5" fill="none" stroke="#4b443a" stroke-width="0.6"/>
    </g>

    <g stroke-linecap="round">
      <line x1="22" y1="4.5" x2="22" y2="7.5" stroke="#d1c29b" stroke-width="1.2"/>
      <line x1="37.1" y1="13.2" x2="34.5" y2="15.2" stroke="#b0a27f" stroke-width="1"/>
      <line x1="37.1" y1="30.8" x2="34.5" y2="28.8" stroke="#b0a27f" stroke-width="1"/>
      <line x1="22" y1="39.5" x2="22" y2="36.5" stroke="#d1c29b" stroke-width="1.2"/>
      <line x1="6.9" y1="30.8" x2="9.5" y2="28.8" stroke="#b0a27f" stroke-width="1"/>
      <line x1="6.9" y1="13.2" x2="9.5" y2="15.2" stroke="#b0a27f" stroke-width="1"/>
    </g>

    <g fill="url(#dirtGlow)" opacity="0.68">
      <circle cx="13" cy="18" r="1.1"/>
      <circle cx="30" cy="14" r="0.9"/>
      <circle cx="34" cy="25" r="0.8"/>
      <circle cx="19" cy="30" r="0.7"/>
      <circle cx="26" cy="33" r="0.5"/>
      <circle cx="17" cy="12" r="0.5"/>
      <circle cx="28" cy="20" r="0.45"/>
      <circle cx="14" cy="25" r="0.45"/>
      <circle cx="25" cy="28" r="0.4"/>
    </g>

    <circle cx="22" cy="22" r="20.5" fill="none" stroke="#040403" stroke-width="0.7" opacity="0.85"/>
  </g>
</svg>
