<svg width="30" height="60" viewBox="0 0 30 60" xmlns="http://www.w3.org/2000/svg">
  <defs>
    <!-- Enhanced gradients for dimensionality -->
    <linearGradient id="panelGradient" x1="0%" y1="0%" x2="100%" y2="100%">
      <stop offset="0%" style="stop-color:#2a2a2a;stop-opacity:1" />
      <stop offset="30%" style="stop-color:#1a1a1a;stop-opacity:1" />
      <stop offset="70%" style="stop-color:#0a0a0a;stop-opacity:1" />
      <stop offset="100%" style="stop-color:#000000;stop-opacity:1" />
    </linearGradient>
    
    <linearGradient id="coverGradient" x1="0%" y1="0%" x2="100%" y2="100%">
      <stop offset="0%" style="stop-color:#404040;stop-opacity:1" />
      <stop offset="30%" style="stop-color:#2a2a2a;stop-opacity:1" />
      <stop offset="70%" style="stop-color:#1a1a1a;stop-opacity:1" />
      <stop offset="100%" style="stop-color:#0a0a0a;stop-opacity:1" />
    </linearGradient>
    
    <radialGradient id="chromeGradient" cx="30%" cy="30%" r="70%">
      <stop offset="0%" style="stop-color:#ffffff;stop-opacity:1" />
      <stop offset="20%" style="stop-color:#f0f0f0;stop-opacity:1" />
      <stop offset="60%" style="stop-color:#d0d0d0;stop-opacity:1" />
      <stop offset="90%" style="stop-color:#b0b0b0;stop-opacity:1" />
      <stop offset="100%" style="stop-color:#909090;stop-opacity:1" />
    </radialGradient>
    
    <linearGradient id="toggleLeverGradient" x1="0%" y1="0%" x2="100%" y2="0%">
      <stop offset="0%" style="stop-color:#ffffff;stop-opacity:1" />
      <stop offset="20%" style="stop-color:#f0f0f0;stop-opacity:1" />
      <stop offset="40%" style="stop-color:#e0e0e0;stop-opacity:1" />
      <stop offset="60%" style="stop-color:#d0d0d0;stop-opacity:1" />
      <stop offset="80%" style="stop-color:#c0c0c0;stop-opacity:1" />
      <stop offset="100%" style="stop-color:#a0a0a0;stop-opacity:1" />
    </linearGradient>
    
    <radialGradient id="switchBodyGradient" cx="20%" cy="20%" r="80%">
      <stop offset="0%" style="stop-color:#ffffff;stop-opacity:1" />
      <stop offset="30%" style="stop-color:#f0f0f0;stop-opacity:1" />
      <stop offset="60%" style="stop-color:#e0e0e0;stop-opacity:1" />
      <stop offset="90%" style="stop-color:#c0c0c0;stop-opacity:1" />
      <stop offset="100%" style="stop-color:#a0a0a0;stop-opacity:1" />
    </radialGradient>
    
    <linearGradient id="threadedNutGradient" x1="0%" y1="0%" x2="100%" y2="100%">
      <stop offset="0%" style="stop-color:#f8f8f8;stop-opacity:1" />
      <stop offset="15%" style="stop-color:#e8e8e8;stop-opacity:1" />
      <stop offset="30%" style="stop-color:#f0f0f0;stop-opacity:1" />
      <stop offset="45%" style="stop-color:#d8d8d8;stop-opacity:1" />
      <stop offset="60%" style="stop-color:#e8e8e8;stop-opacity:1" />
      <stop offset="75%" style="stop-color:#d0d0d0;stop-opacity:1" />
      <stop offset="90%" style="stop-color:#c0c0c0;stop-opacity:1" />
      <stop offset="100%" style="stop-color:#b0b0b0;stop-opacity:1" />
    </linearGradient>
    
    <filter id="dropShadow" x="-25%" y="-25%" width="100%" height="100%">
      <feDropShadow dx="0.5" dy="1" stdDeviation="1" flood-color="#000000" flood-opacity="0.4"/>
    </filter>
    
    <filter id="ledGlow" x="-25%" y="-25%" width="100%" height="100%">
      <feGaussianBlur stdDeviation="2" result="coloredBlur"/>
      <feMerge>
        <feMergeNode in="coloredBlur"/>
        <feMergeNode in="SourceGraphic"/>
      </feMerge>
    </filter>
    
    <filter id="strongLedGlow" x="-25%" y="-25%" width="100%" height="100%">
      <feGaussianBlur stdDeviation="3" result="coloredBlur"/>
      <feMerge>
        <feMergeNode in="coloredBlur"/>
        <feMergeNode in="SourceGraphic"/>
      </feMerge>
    </filter>
    
    <filter id="insetShadow" x="-25%" y="-25%" width="100%" height="100%">
      <feDropShadow dx="0.5" dy="0.5" stdDeviation="0.5" flood-color="#000000" flood-opacity="0.6"/>
    </filter>
  </defs>
  
  <!-- Base panel with gradient -->
  <rect x="7.5" y="12.5" width="15" height="22.5" rx="1" ry="1" 
        fill="url(#panelGradient)" stroke="#404040" stroke-width="0.5" 
        filter="url(#dropShadow)"/>
  
  <!-- 3D edges -->
  <path d="M 22.5 12.5 L 24 14 L 24 36.5 L 22.5 35 Z" fill="#0a0a0a" stroke="#202020" stroke-width="0.25"/>
  <path d="M 7.5 35 L 22.5 35 L 24 36.5 L 9 36.5 Z" fill="#0a0a0a" stroke="#202020" stroke-width="0.25"/>
  
  <!-- Mounting screws with gradient -->
  <circle cx="10" cy="15" r="0.6" fill="url(#threadedNutGradient)" stroke="#808080" stroke-width="0.25"/>
  <circle cx="20" cy="15" r="0.6" fill="url(#threadedNutGradient)" stroke="#808080" stroke-width="0.25"/>
  <circle cx="10" cy="32.5" r="0.6" fill="url(#threadedNutGradient)" stroke="#808080" stroke-width="0.25"/>
  <circle cx="20" cy="32.5" r="0.6" fill="url(#threadedNutGradient)" stroke="#808080" stroke-width="0.25"/>
  
  <!-- Screw slots -->
  <line x1="9.75" y1="15" x2="10.25" y2="15" stroke="#606060" stroke-width="0.25" stroke-linecap="round"/>
  <line x1="19.75" y1="15" x2="20.25" y2="15" stroke="#606060" stroke-width="0.25" stroke-linecap="round"/>
  <line x1="9.75" y1="32.5" x2="10.25" y2="32.5" stroke="#606060" stroke-width="0.25" stroke-linecap="round"/>
  <line x1="19.75" y1="32.5" x2="20.25" y2="32.5" stroke="#606060" stroke-width="0.25" stroke-linecap="round"/>
  
  <!-- Switch housing recess with inset shadow -->
  <rect x="12.5" y="21" width="5" height="5" rx="0.5" ry="0.5" 
        fill="#101010" stroke="#303030" stroke-width="0.5" filter="url(#insetShadow)"/>
  
  <!-- Metal switch body with enhanced gradient and texture -->
  <rect x="12.375" y="22" width="5.25" height="4.5" rx="0.25" ry="0.25" 
        fill="url(#switchBodyGradient)" stroke="#a0a0a0" stroke-width="0.2"/>
  
  <!-- Switch body surface detail -->
  <rect x="12.75" y="22.25" width="4.5" height="0.4" fill="#ffffff" opacity="0.4"/>
  <rect x="12.75" y="22.75" width="4.5" height="0.15" fill="#d0d0d0" opacity="0.3"/>
  <rect x="12.75" y="23.5" width="4.5" height="0.15" fill="#e0e0e0" opacity="0.2"/>
  <rect x="12.75" y="24.1" width="4.5" height="0.4" fill="#909090" opacity="0.4"/>
  
  <!-- Switch mounting nut with threading texture -->
  <circle cx="15" cy="22" r="1.8" fill="url(#threadedNutGradient)" stroke="#909090" stroke-width="0.25"/>
  
  <!-- Enhanced threading detail on nut -->
  <circle cx="15" cy="22" r="1.7" fill="none" stroke="#c0c0c0" stroke-width="0.1" opacity="0.8"/>
  <circle cx="15" cy="22" r="1.5" fill="none" stroke="#e0e0e0" stroke-width="0.1" opacity="0.6"/>
  <circle cx="15" cy="22" r="1.3" fill="none" stroke="#c0c0c0" stroke-width="0.1" opacity="0.8"/>
  <circle cx="15" cy="22" r="1.1" fill="none" stroke="#e0e0e0" stroke-width="0.1" opacity="0.6"/>
  <circle cx="15" cy="22" r="0.9" fill="none" stroke="#c0c0c0" stroke-width="0.1" opacity="0.8"/>
  
  <!-- Hexagonal nut detail with enhanced gradient -->
  <path d="M13.5,21.25 L16.5,21.25 L16.75,22 L16.5,22.75 L13.5,22.75 L13.25,22 Z" 
        fill="url(#chromeGradient)" stroke="#808080" stroke-width="0.2"/>
  
  <!-- Hex nut surface texture -->
  <path d="M13.6,21.35 L16.4,21.35 L16.65,22 L16.4,22.65 L13.6,22.65 L13.35,22 Z" 
        fill="#ffffff" opacity="0.3"/>
  
  <!-- Toggle lever with cylindrical gradient and texture -->
  <rect x="14.475" y="17.5" width="1.05" height="6" rx="0.25" ry="0.25" 
        fill="url(#toggleLeverGradient)" stroke="#c0c0c0" stroke-width="0.2"/>
  
  <!-- Enhanced toggle lever surface highlights -->
  <rect x="14.55" y="17.5" width="0.14" height="6" rx="0.04" ry="0.04" 
        fill="#ffffff" opacity="0.9"/>
  <rect x="14.65" y="17.5" width="0.09" height="6" rx="0.025" ry="0.025" 
        fill="#d0d0d0" opacity="0.6"/>
  <rect x="14.7" y="17.5" width="0.05" height="6" rx="0.0125" ry="0.0125" 
        fill="#f0f0f0" opacity="0.4"/>
  
  <!-- Toggle actuator tip with enhanced chrome texture -->
  <circle cx="15" cy="18" r="0.6" fill="url(#chromeGradient)" stroke="#b0b0b0" stroke-width="0.2"/>
  
  <!-- Enhanced actuator surface texture -->
  <circle cx="15" cy="18" r="0.55" fill="#ffffff" opacity="0.5"/>
  <circle cx="14.8" cy="17.8" r="0.35" fill="#ffffff" opacity="0.9"/>
  <circle cx="14.7" cy="17.7" r="0.2" fill="#ffffff" opacity="0.95"/>
  
  <!-- Enhanced actuator grip texture -->
  <circle cx="15" cy="18" r="0.5" fill="none" stroke="#e0e0e0" stroke-width="0.075" opacity="0.8"/>
  <circle cx="15" cy="18" r="0.4" fill="none" stroke="#f0f0f0" stroke-width="0.075" opacity="0.6"/>
  <circle cx="15" cy="18" r="0.3" fill="none" stroke="#e0e0e0" stroke-width="0.075" opacity="0.8"/>
  <circle cx="15" cy="18" r="0.2" fill="none" stroke="#f0f0f0" stroke-width="0.075" opacity="0.6"/>
  
  <!-- Safety cover (FLIPPED UP) with gradient -->
  <path d="M 9.5 16 L 20.5 16 L 20 10.5 L 18 9 L 12 9 L 10 10.5 Z" 
        fill="url(#coverGradient)" stroke="#505050" stroke-width="0.6" 
        filter="url(#dropShadow)"/>
  
  <!-- Cover 3D top surface -->
  <path d="M 12 9 L 18 9 L 20 10.5 L 10 10.5 Z" 
        fill="#1a1a1a" stroke="#303030" stroke-width="0.5"/>
  
  <!-- Cover side -->
  <path d="M 20 10.5 L 21.5 12 L 21.5 17.5 L 20 16 Z" 
        fill="#0f0f0f" stroke="#303030" stroke-width="0.5"/>
  
  <!-- Cover internal detail -->
  <rect x="11" y="11.5" width="8" height="3" rx="0.5" ry="0.5" 
        fill="#151515" stroke="#404040" stroke-width="0.4"/>
  
  <!-- Cover ribbing -->
  <line x1="12" y1="12.5" x2="18" y2="12.5" stroke="#505050" stroke-width="0.25" opacity="0.6"/>
  
  <!-- Warning stripes -->
  <rect x="12" y="12" width="0.5" height="2" fill="#ff4444"/>
  <rect x="17.5" y="12" width="0.5" height="2" fill="#ff4444"/>
  
  <!-- Safety bar with gradient -->
  <ellipse cx="13.5" cy="29" rx="5" ry="0.5" fill="url(#threadedNutGradient)" stroke="#808080" stroke-width="0.5"/>
  
  <!-- Bar mounting brackets with gradient -->
  <rect x="8" y="28.6" width="1" height="1" rx="0.3" ry="0.3" 
        fill="url(#threadedNutGradient)" stroke="#808080" stroke-width="0.5"/>
  <rect x="18" y="28.6" width="1" height="1" rx="0.3" ry="0.3" 
        fill="url(#threadedNutGradient)" stroke="#808080" stroke-width="0.5"/>
  
  <!-- Bar 3D bottom -->
  <ellipse cx="13.5" cy="29.5" rx="5" ry="0.5" fill="#a0a0a0" stroke="#606060" stroke-width="0.4"/>
  
  <!-- Mounting bracket 3D bottoms -->
  <path d="M 8 29.6 L 9 29.6 L 10 30.6 L 9 30.6 Z" 
        fill="#a0a0a0" stroke="#606060" stroke-width="0.4"/>
  <path d="M 18 29.6 L 19 29.6 L 20 30.6 L 19 30.6 Z" 
        fill="#a0a0a0" stroke="#606060" stroke-width="0.4"/>
  
  <!-- Bar end caps -->
  <circle cx="8.5" cy="29" r="0.3" fill="url(#chromeGradient)" stroke="#606060" stroke-width="0.25"/>
  <circle cx="18.5" cy="29" r="0.3" fill="url(#chromeGradient)" stroke="#606060" stroke-width="0.25"/>
  
  <!-- LED indicators with enhanced glow -->
  <!-- Purple LED (ON) -->
  <circle cx="11" cy="26" r="0.75" fill="#2a2a2a" stroke="#505050" stroke-width="0.5"/>
  <circle cx="11" cy="26" r="1.25" fill="#8a2be2" filter="url(#strongLedGlow)" opacity="0.8"/>
  <circle cx="11" cy="26" r="0.9" fill="#8a2be2" filter="url(#ledGlow)" opacity="0.9"/>
  <circle cx="11" cy="26" r="0.6" fill="#bb66ff"/>
  <circle cx="11" cy="26" r="0.4" fill="#dd88ff"/>
  <circle cx="10.85" cy="25.85" r="0.2" fill="#ffffff" opacity="0.95"/>
  
  <!-- Teal LED (OFF) -->
  <circle cx="19" cy="26" r="0.75" fill="#2a2a2a" stroke="#505050" stroke-width="0.5"/>
  <circle cx="19" cy="26" r="0.4" fill="#404040"/>
  
  <!-- Panel highlights -->
  <line x1="7.5" y1="12.5" x2="22.5" y2="12.5" stroke="#606060" stroke-width="0.25" opacity="0.8"/>
  <line x1="7.5" y1="12.5" x2="7.5" y2="35" stroke="#606060" stroke-width="0.25" opacity="0.8"/>
</svg>