<svg width="20" height="30" viewBox="0 0 20 30" xmlns="http://www.w3.org/2000/svg">
  <defs>
    <!-- Scaled gradients for compact design -->
    <linearGradient id="panelGradient" x1="0%" y1="0%" x2="100%" y2="100%">
      <stop offset="0%" style="stop-color:#2a2a2a;stop-opacity:1" />
      <stop offset="30%" style="stop-color:#1a1a1a;stop-opacity:1" />
      <stop offset="70%" style="stop-color:#0a0a0a;stop-opacity:1" />
      <stop offset="100%" style="stop-color:#000000;stop-opacity:1" />
    </linearGradient>
    
    <linearGradient id="coverGradient" x1="0%" y1="0%" x2="100%" y2="100%">
      <stop offset="0%" style="stop-color:#404040;stop-opacity:1" />
      <stop offset="30%" style="stop-color:#2a2a2a;stop-opacity:1" />
      <stop offset="70%" style="stop-color:#1a1a1a;stop-opacity:1" />
      <stop offset="100%" style="stop-color:#0a0a0a;stop-opacity:1" />
    </linearGradient>
    
    <radialGradient id="chromeGradient" cx="30%" cy="30%" r="70%">
      <stop offset="0%" style="stop-color:#ffffff;stop-opacity:1" />
      <stop offset="20%" style="stop-color:#f0f0f0;stop-opacity:1" />
      <stop offset="60%" style="stop-color:#d0d0d0;stop-opacity:1" />
      <stop offset="90%" style="stop-color:#b0b0b0;stop-opacity:1" />
      <stop offset="100%" style="stop-color:#909090;stop-opacity:1" />
    </radialGradient>
    
    <linearGradient id="toggleLeverGradient" x1="0%" y1="0%" x2="100%" y2="0%">
      <stop offset="0%" style="stop-color:#ffffff;stop-opacity:1" />
      <stop offset="20%" style="stop-color:#f0f0f0;stop-opacity:1" />
      <stop offset="40%" style="stop-color:#e0e0e0;stop-opacity:1" />
      <stop offset="60%" style="stop-color:#d0d0d0;stop-opacity:1" />
      <stop offset="80%" style="stop-color:#c0c0c0;stop-opacity:1" />
      <stop offset="100%" style="stop-color:#a0a0a0;stop-opacity:1" />
    </linearGradient>
    
    <radialGradient id="switchBodyGradient" cx="20%" cy="20%" r="80%">
      <stop offset="0%" style="stop-color:#ffffff;stop-opacity:1" />
      <stop offset="30%" style="stop-color:#f0f0f0;stop-opacity:1" />
      <stop offset="60%" style="stop-color:#e0e0e0;stop-opacity:1" />
      <stop offset="90%" style="stop-color:#c0c0c0;stop-opacity:1" />
      <stop offset="100%" style="stop-color:#a0a0a0;stop-opacity:1" />
    </radialGradient>
    
    <linearGradient id="threadedNutGradient" x1="0%" y1="0%" x2="100%" y2="100%">
      <stop offset="0%" style="stop-color:#f8f8f8;stop-opacity:1" />
      <stop offset="15%" style="stop-color:#e8e8e8;stop-opacity:1" />
      <stop offset="30%" style="stop-color:#f0f0f0;stop-opacity:1" />
      <stop offset="45%" style="stop-color:#d8d8d8;stop-opacity:1" />
      <stop offset="60%" style="stop-color:#e8e8e8;stop-opacity:1" />
      <stop offset="75%" style="stop-color:#d0d0d0;stop-opacity:1" />
      <stop offset="90%" style="stop-color:#c0c0c0;stop-opacity:1" />
      <stop offset="100%" style="stop-color:#b0b0b0;stop-opacity:1" />
    </linearGradient>
    
    <filter id="dropShadow" x="-50%" y="-50%" width="200%" height="200%">
      <feDropShadow dx="0.3" dy="0.5" stdDeviation="0.5" flood-color="#000000" flood-opacity="0.4"/>
    </filter>
    
    <filter id="ledGlow" x="-50%" y="-50%" width="200%" height="200%">
      <feGaussianBlur stdDeviation="1" result="coloredBlur"/>
      <feMerge>
        <feMergeNode in="coloredBlur"/>
        <feMergeNode in="SourceGraphic"/>
      </feMerge>
    </filter>
    
    <filter id="strongLedGlow" x="-50%" y="-50%" width="200%" height="200%">
      <feGaussianBlur stdDeviation="1.5" result="coloredBlur"/>
      <feMerge>
        <feMergeNode in="coloredBlur"/>
        <feMergeNode in="SourceGraphic"/>
      </feMerge>
    </filter>
    
    <filter id="insetShadow" x="-50%" y="-50%" width="200%" height="200%">
      <feDropShadow dx="0.2" dy="0.2" stdDeviation="0.3" flood-color="#000000" flood-opacity="0.6"/>
    </filter>
  </defs>
  
  <!-- Base panel -->
  <rect x="5" y="6" width="10" height="15" rx="0.7" ry="0.7" 
        fill="url(#panelGradient)" stroke="#404040" stroke-width="0.3" 
        filter="url(#dropShadow)"/>
  
  <!-- Mounting screws -->
  <circle cx="6.5" cy="8" r="0.4" fill="url(#threadedNutGradient)" stroke="#808080" stroke-width="0.15"/>
  <circle cx="13.5" cy="8" r="0.4" fill="url(#threadedNutGradient)" stroke="#808080" stroke-width="0.15"/>
  <circle cx="6.5" cy="19" r="0.4" fill="url(#threadedNutGradient)" stroke="#808080" stroke-width="0.15"/>
  <circle cx="13.5" cy="19" r="0.4" fill="url(#threadedNutGradient)" stroke="#808080" stroke-width="0.15"/>
  
  <!-- Screw slots -->
  <line x1="6.3" y1="8" x2="6.7" y2="8" stroke="#606060" stroke-width="0.15" stroke-linecap="round"/>
  <line x1="13.3" y1="8" x2="13.7" y2="8" stroke="#606060" stroke-width="0.15" stroke-linecap="round"/>
  <line x1="6.3" y1="19" x2="6.7" y2="19" stroke="#606060" stroke-width="0.15" stroke-linecap="round"/>
  <line x1="13.3" y1="19" x2="13.7" y2="19" stroke="#606060" stroke-width="0.15" stroke-linecap="round"/>
  
  <!-- Switch housing recess -->
  <rect x="8.7" y="13.5" width="2.6" height="3.3" rx="0.3" ry="0.3" 
        fill="#101010" stroke="#303030" stroke-width="0.3" filter="url(#insetShadow)"/>
  
  <!-- Metal switch body -->
  <rect x="9" y="14" width="2" height="2" rx="0.2" ry="0.2" 
        fill="url(#switchBodyGradient)" stroke="#a0a0a0" stroke-width="0.12"/>
  
  <!-- Switch body surface detail -->
  <rect x="9.1" y="14.1" width="1.8" height="0.3" fill="#ffffff" opacity="0.4"/>
  <rect x="9.1" y="14.4" width="1.8" height="0.1" fill="#d0d0d0" opacity="0.3"/>
  <rect x="9.1" y="15.1" width="1.8" height="0.1" fill="#e0e0e0" opacity="0.2"/>
  <rect x="9.1" y="15.6" width="1.8" height="0.3" fill="#909090" opacity="0.4"/>
  
  <!-- Switch mounting nut -->
  <circle cx="10" cy="14" r="0.7" fill="url(#threadedNutGradient)" stroke="#909090" stroke-width="0.15"/>
  
  <!-- Threading detail on nut -->
  <circle cx="10" cy="14" r="0.6" fill="none" stroke="#c0c0c0" stroke-width="0.06" opacity="0.8"/>
  <circle cx="10" cy="14" r="0.5" fill="none" stroke="#e0e0e0" stroke-width="0.06" opacity="0.6"/>
  <circle cx="10" cy="14" r="0.4" fill="none" stroke="#c0c0c0" stroke-width="0.06" opacity="0.8"/>
  <circle cx="10" cy="14" r="0.35" fill="none" stroke="#e0e0e0" stroke-width="0.06" opacity="0.6"/>
  <circle cx="10" cy="14" r="0.3" fill="none" stroke="#c0c0c0" stroke-width="0.06" opacity="0.8"/>
  
  <!-- Hexagonal nut detail -->
  <path d="M9.5,13.5 L10.5,13.5 L10.7,14 L10.5,14.5 L9.5,14.5 L9.3,14 Z" 
        fill="url(#chromeGradient)" stroke="#808080" stroke-width="0.12"/>
  
  <!-- Hex nut surface texture -->
  <path d="M9.6,13.6 L10.4,13.6 L10.6,14 L10.4,14.4 L9.6,14.4 L9.4,14 Z" 
        fill="#ffffff" opacity="0.3"/>
  
  <!-- Toggle lever (UP position) -->
  <rect x="9.8" y="11.7" width="0.4" height="4" rx="0.2" ry="0.2" 
        fill="url(#toggleLeverGradient)" stroke="#c0c0c0" stroke-width="0.12"/>
  
  <!-- Toggle lever surface highlights -->
  <rect x="9.85" y="11.7" width="0.06" height="4" rx="0.03" ry="0.03" 
        fill="#ffffff" opacity="0.9"/>
  <rect x="9.9" y="11.7" width="0.04" height="4" rx="0.02" ry="0.02" 
        fill="#d0d0d0" opacity="0.6"/>
  <rect x="9.95" y="11.7" width="0.02" height="4" rx="0.01" ry="0.01" 
        fill="#f0f0f0" opacity="0.4"/>
  
  <!-- Toggle actuator tip -->
  <circle cx="10" cy="12" r="0.4" fill="url(#chromeGradient)" stroke="#b0b0b0" stroke-width="0.12"/>
  
  <!-- Actuator surface texture -->
  <circle cx="10" cy="12" r="0.37" fill="#ffffff" opacity="0.5"/>
  <circle cx="9.85" cy="11.85" r="0.23" fill="#ffffff" opacity="0.9"/>
  <circle cx="9.8" cy="11.8" r="0.13" fill="#ffffff" opacity="0.95"/>
  
  <!-- Actuator grip texture -->
  <circle cx="10" cy="12" r="0.33" fill="none" stroke="#e0e0e0" stroke-width="0.05" opacity="0.8"/>
  <circle cx="10" cy="12" r="0.27" fill="none" stroke="#f0f0f0" stroke-width="0.05" opacity="0.6"/>
  <circle cx="10" cy="12" r="0.2" fill="none" stroke="#e0e0e0" stroke-width="0.05" opacity="0.8"/>
  <circle cx="10" cy="12" r="0.13" fill="none" stroke="#f0f0f0" stroke-width="0.05" opacity="0.6"/>
  
  <!-- Safety cover (FLIPPED UP) -->
  <path d="M 6.3 10.7 L 13.7 10.7 L 13.3 5.7 L 12 4.8 L 8 4.8 L 6.7 5.7 Z" 
        fill="url(#coverGradient)" stroke="#505050" stroke-width="0.4" 
        filter="url(#dropShadow)"/>
  
  <!-- Cover 3D top surface -->
  <path d="M 8 4.8 L 12 4.8 L 13.3 5.7 L 6.7 5.7 Z" 
        fill="#1a1a1a" stroke="#303030" stroke-width="0.3"/>
  
  <!-- Cover side -->
  <path d="M 13.3 5.7 L 14.3 6.3 L 14.3 11.7 L 13.3 10.7 Z" 
        fill="#0f0f0f" stroke="#303030" stroke-width="0.3"/>
  
  <!-- Cover internal detail -->
  <rect x="7.3" y="6.1" width="5.4" height="2" rx="0.3" ry="0.3" 
        fill="#151515" stroke="#404040" stroke-width="0.25"/>
  
  <!-- Cover ribbing -->
  <line x1="8" y1="6.7" x2="12" y2="6.7" stroke="#505050" stroke-width="0.15" opacity="0.6"/>
  
  <!-- Warning stripes -->
  <rect x="8" y="6.4" width="0.3" height="1.3" fill="#ff4444"/>
  <rect x="11.7" y="6.4" width="0.3" height="1.3" fill="#ff4444"/>
  
  <!-- Safety bar -->
  <ellipse cx="9" cy="19.3" rx="3.3" ry="0.3" fill="url(#threadedNutGradient)" stroke="#808080" stroke-width="0.3"/>
  
  <!-- Bar mounting brackets -->
  <rect x="5.3" y="19.1" width="0.7" height="0.7" rx="0.2" ry="0.2" 
        fill="url(#threadedNutGradient)" stroke="#808080" stroke-width="0.3"/>
  <rect x="12" y="19.1" width="0.7" height="0.7" rx="0.2" ry="0.2" 
        fill="url(#threadedNutGradient)" stroke="#808080" stroke-width="0.3"/>
  
  <!-- Bar 3D bottom -->
  <ellipse cx="9" cy="19.6" rx="3.3" ry="0.3" fill="#a0a0a0" stroke="#606060" stroke-width="0.25"/>
  
  <!-- Mounting bracket 3D bottoms -->
  <path d="M 5.3 19.8 L 6 19.8 L 6.7 20.5 L 6 20.5 Z" 
        fill="#a0a0a0" stroke="#606060" stroke-width="0.25"/>
  <path d="M 12 19.8 L 12.7 19.8 L 13.4 20.5 L 12.7 20.5 Z" 
        fill="#a0a0a0" stroke="#606060" stroke-width="0.25"/>
  
  <!-- Bar end caps -->
  <circle cx="5.7" cy="19.3" r="0.2" fill="url(#chromeGradient)" stroke="#606060" stroke-width="0.15"/>
  <circle cx="12.3" cy="19.3" r="0.2" fill="url(#chromeGradient)" stroke="#606060" stroke-width="0.15"/>
  
  <!-- LED indicators -->
  <!-- Purple LED (ON) -->
  <circle cx="7.3" cy="17.3" r="0.5" fill="#2a2a2a" stroke="#505050" stroke-width="0.3"/>
  <circle cx="7.3" cy="17.3" r="0.8" fill="#8a2be2" filter="url(#strongLedGlow)" opacity="0.8"/>
  <circle cx="7.3" cy="17.3" r="0.6" fill="#8a2be2" filter="url(#ledGlow)" opacity="0.9"/>
  <circle cx="7.3" cy="17.3" r="0.4" fill="#bb66ff"/>
  <circle cx="7.3" cy="17.3" r="0.27" fill="#dd88ff"/>
  <circle cx="7.2" cy="17.2" r="0.13" fill="#ffffff" opacity="0.95"/>
  
  <!-- Teal LED (OFF) -->
  <circle cx="12.7" cy="17.3" r="0.5" fill="#2a2a2a" stroke="#505050" stroke-width="0.3"/>
  <circle cx="12.7" cy="17.3" r="0.27" fill="#404040"/>
  
  <!-- Panel highlights -->
  <line x1="5" y1="6" x2="15" y2="6" stroke="#606060" stroke-width="0.15" opacity="0.8"/>
  <line x1="5" y1="6" x2="5" y2="21" stroke="#606060" stroke-width="0.15" opacity="0.8"/>
</svg>