<svg width="35" height="35" viewBox="0 0 35 35" xmlns="http://www.w3.org/2000/svg">
  <!-- Outer mounting ring - chrome/silver -->
  <circle cx="17.5" cy="17.5" r="17" fill="#e0e0e0" stroke="#c0c0c0" stroke-width="0.5"/>
  <circle cx="17.5" cy="17.5" r="16.2" fill="#f0f0f0" stroke="#d0d0d0" stroke-width="0.3"/>
  
  <!-- Hash marks on the outside ring -->
  <g stroke="#333333" stroke-width="1.2" stroke-linecap="round">
    <!-- Position 0 (12 o'clock) -->
    <line x1="17.5" y1="1" x2="17.5" y2="4" opacity="0.8"/>
    <!-- Position 1 (2 o'clock) - ACTIVE -->
    <line x1="27.1" y1="6.4" x2="24.8" y2="8.7" stroke="#00ffcc" stroke-width="2"/>
    <!-- Position 2 (4 o'clock) -->
    <line x1="31" y1="17.5" x2="28" y2="17.5" opacity="0.8"/>
    <!-- Position 3 (6 o'clock) -->
    <line x1="17.5" y1="34" x2="17.5" y2="31" opacity="0.8"/>
    <!-- Position 4 (8 o'clock) -->
    <line x1="6.4" y1="27.1" x2="8.7" y2="24.8" opacity="0.8"/>
    <!-- Position 5 (10 o'clock) -->
    <line x1="4" y1="17.5" x2="7" y2="17.5" opacity="0.8"/>
  </g>
  
  <!-- Main knob body - black bakelite style -->
  <circle cx="17.5" cy="17.5" r="13.5" fill="#1a1a1a" stroke="#0a0a0a" stroke-width="0.8"/>
  <circle cx="17.5" cy="17.5" r="12.5" fill="#2a2a2a" stroke="#333333" stroke-width="0.3"/>
  
  <!-- Detailed chicken head pointer - pointing to position 1 (60 degrees) -->
  <g transform="rotate(60 17.5 17.5)">
    <!-- Main pointer body -->
    <path d="M 15.5 5 L 19.5 5 L 20.2 7.5 L 19.8 10.5 L 19.2 12 L 15.8 12 L 15.2 10.5 L 14.8 7.5 Z" 
          fill="#444444" stroke="#666666" stroke-width="0.4"/>
    <!-- Pointer sides with beveled edges -->
    <path d="M 15.5 5 L 16.2 5.5 L 16.5 10.5 L 15.8 12 L 15.2 10.5 L 14.8 7.5 Z" 
          fill="#555555" opacity="0.8"/>
    <path d="M 19.5 5 L 18.8 5.5 L 18.5 10.5 L 19.2 12 L 19.8 10.5 L 20.2 7.5 Z" 
          fill="#333333" opacity="0.8"/>
    <!-- Sharp pointer tip -->
    <path d="M 16.2 5 L 17.5 2.5 L 18.8 5 Z" fill="#555555" stroke="#777777" stroke-width="0.3"/>
    <path d="M 16.8 4.5 L 17.5 3.2 L 18.2 4.5 Z" fill="#666666"/>
    <!-- Highlight on pointer -->
    <path d="M 16.5 5.5 L 17.2 3.8 L 17.8 5.5 L 17.5 9 L 16.8 9 Z" fill="#777777" opacity="0.5"/>
  </g>
  
  <!-- Center hub -->
  <circle cx="17.5" cy="17.5" r="3" fill="#555555" stroke="#777777" stroke-width="0.4"/>
  <circle cx="17.5" cy="17.5" r="2.3" fill="#444444" stroke="#333333" stroke-width="0.2"/>
  <circle cx="17.5" cy="17.5" r="1.5" fill="#333333"/>
  <circle cx="17.5" cy="17.5" r="0.8" fill="#222222" stroke="#444444" stroke-width="0.2"/>
</svg>