
<?xml version="1.0" encoding="UTF-8" standalone="no"?>
<svg width="64" height="64" viewBox="0 0 64 64" version="1.1" xmlns="http://www.w3.org/2000/svg">
  <defs>
    <radialGradient id="bezel" cx="50%" cy="45%" r="60%">
      <stop offset="0%" stop-color="#393939"/>
      <stop offset="45%" stop-color="#262626"/>
      <stop offset="85%" stop-color="#0f0f0f"/>
      <stop offset="100%" stop-color="#050505"/>
    </radialGradient>
    <radialGradient id="bezelHighlight" cx="38%" cy="30%" r="65%">
      <stop offset="0%" stop-color="rgba(255,255,255,0.25)"/>
      <stop offset="60%" stop-color="rgba(255,255,255,0.05)"/>
      <stop offset="100%" stop-color="rgba(255,255,255,0)"/>
    </radialGradient>
    <radialGradient id="hubGradient" cx="40%" cy="35%" r="70%">
      <stop offset="0%" stop-color="#515151"/>
      <stop offset="55%" stop-color="#2f2f2f"/>
      <stop offset="100%" stop-color="#1b1b1b"/>
    </radialGradient>
    <linearGradient id="pointerGradient" x1="0" y1="0" x2="0" y2="1">
      <stop offset="0%" stop-color="#e8decc"/>
      <stop offset="60%" stop-color="#b8a88f"/>
      <stop offset="100%" stop-color="#8d7d63"/>
    </linearGradient>
    <filter id="dust" x="-0.1" y="-0.1" width="1.2" height="1.2">
      <feGaussianBlur in="SourceGraphic" stdDeviation="0.4"/>
    </filter>
  </defs>
  <g>
    <circle cx="32" cy="32" r="30.5" fill="url(#bezel)"/>
    <circle cx="32" cy="32" r="30.5" fill="url(#bezelHighlight)"/>
    <circle cx="32" cy="32" r="23" fill="url(#hubGradient)"/>
    <path d="M32 9 L38 28 L26 28 Z" fill="url(#pointerGradient)" opacity="0.92"/>
    <circle cx="32" cy="32" r="6" fill="#151515" opacity="0.9"/>
    <circle cx="32" cy="32" r="5" fill="#1f1f1f" stroke="#464646" stroke-width="1"/>
    <g fill="#f2d28f" opacity="0.18" filter="url(#dust)">
      <circle cx="19" cy="18" r="1.2"/>
      <circle cx="43" cy="20" r="0.9"/>
      <circle cx="46" cy="38" r="0.7"/>
      <circle cx="22" cy="45" r="0.8"/>
      <circle cx="33" cy="50" r="0.6"/>
      <circle cx="27" cy="22" r="0.6"/>
      <circle cx="40" cy="28" r="0.5"/>
      <circle cx="24" cy="36" r="0.5"/>
      <circle cx="37" cy="42" r="0.5"/>
      <circle cx="30" cy="18" r="0.7"/>
    </g>
    <circle cx="32" cy="32" r="30.5" fill="none" stroke="#040404" stroke-width="0.8" opacity="0.85"/>
  </g>
</svg>
