<svg width="20" height="20" viewBox="0 0 20 20" xmlns="http://www.w3.org/2000/svg">
  <!-- Outer mounting ring - chrome/silver -->
  <circle cx="10" cy="10" r="9.5" fill="#c0c0c0" stroke="#a0a0a0" stroke-width="0.4"/>
  <circle cx="10" cy="10" r="8.8" fill="#d0d0d0" stroke="#b0b0b0" stroke-width="0.25"/>
  
  <!-- BNC bayonet slots -->
  <g stroke="#808080" stroke-width="0.6" fill="none">
    <!-- Top slot -->
    <path d="M 10 1.5 L 10 3.8 M 9.2 2.6 L 10.8 2.6"/>
    <!-- Right slot -->
    <path d="M 18.5 10 L 16.2 10 M 17.4 9.2 L 17.4 10.8"/>
    <!-- Bottom slot -->
    <path d="M 10 18.5 L 10 16.2 M 9.2 17.4 L 10.8 17.4"/>
    <!-- Left slot -->
    <path d="M 1.5 10 L 3.8 10 M 2.6 9.2 L 2.6 10.8"/>
  </g>
  
  <!-- Inner connector body -->
  <circle cx="10" cy="10" r="7.2" fill="#2a2a2a" stroke="#1a1a1a" stroke-width="0.4"/>
  <circle cx="10" cy="10" r="6.6" fill="#333333" stroke="#555555" stroke-width="0.25"/>
  
  <!-- Center pin/socket -->
  <circle cx="10" cy="10" r="2.8" fill="#1a1a1a" stroke="#0a0a0a" stroke-width="0.25"/>
  <circle cx="10" cy="10" r="2.2" fill="#000000"/>
  
  <!-- Pin highlight for depth -->
  <circle cx="9.2" cy="9.2" r="1" fill="#333333" opacity="0.4"/>
  
  <!-- Connector threads/ridges -->
  <circle cx="10" cy="10" r="6" fill="none" stroke="#555555" stroke-width="0.15" opacity="0.6"/>
  <circle cx="10" cy="10" r="5.4" fill="none" stroke="#555555" stroke-width="0.15" opacity="0.6"/>
  <circle cx="10" cy="10" r="4.8" fill="none" stroke="#555555" stroke-width="0.15" opacity="0.6"/>
</svg>