<?xml version="1.0" encoding="UTF-8" standalone="no"?>
<svg
  width="32mm"
  height="32mm"
  viewBox="0 0 85 85"
  version="1.1"
  xmlns="http://www.w3.org/2000/svg">
  <defs>
    <linearGradient id="hugePanelTickGradient" x1="0.5" y1="0" x2="0.5" y2="1">
      <stop offset="0%" stop-color="#ffffff" stop-opacity="0.35"/>
      <stop offset="50%" stop-color="#c8d0df" stop-opacity="0.25"/>
      <stop offset="100%" stop-color="#8892a4" stop-opacity="0.15"/>
    </linearGradient>
  </defs>
  <g transform="translate(42.5,42.5)">
    <!-- 20 tick marks covering 300째 range (from -150째 to +150째, skipping bottom 60째) -->
    <rect x="-0.7" y="-38.5" width="1.4" height="3.2" rx="0.7" fill="url(#hugePanelTickGradient)" transform="rotate(-150)"/>
    <rect x="-0.7" y="-38.5" width="1.4" height="3.2" rx="0.7" fill="url(#hugePanelTickGradient)" transform="rotate(-135)"/>
    <rect x="-0.7" y="-38.5" width="1.4" height="3.2" rx="0.7" fill="url(#hugePanelTickGradient)" transform="rotate(-120)"/>
    <rect x="-0.7" y="-38.5" width="1.4" height="3.2" rx="0.7" fill="url(#hugePanelTickGradient)" transform="rotate(-105)"/>
    <rect x="-0.7" y="-38.5" width="1.4" height="3.2" rx="0.7" fill="url(#hugePanelTickGradient)" transform="rotate(-90)"/>
    <rect x="-0.7" y="-38.5" width="1.4" height="3.2" rx="0.7" fill="url(#hugePanelTickGradient)" transform="rotate(-75)"/>
    <rect x="-0.7" y="-38.5" width="1.4" height="3.2" rx="0.7" fill="url(#hugePanelTickGradient)" transform="rotate(-60)"/>
    <rect x="-0.7" y="-38.5" width="1.4" height="3.2" rx="0.7" fill="url(#hugePanelTickGradient)" transform="rotate(-45)"/>
    <rect x="-0.7" y="-38.5" width="1.4" height="3.2" rx="0.7" fill="url(#hugePanelTickGradient)" transform="rotate(-30)"/>
    <rect x="-0.7" y="-38.5" width="1.4" height="3.2" rx="0.7" fill="url(#hugePanelTickGradient)" transform="rotate(-15)"/>
    <rect x="-0.7" y="-38.5" width="1.4" height="3.2" rx="0.7" fill="url(#hugePanelTickGradient)" transform="rotate(0)"/>
    <rect x="-0.7" y="-38.5" width="1.4" height="3.2" rx="0.7" fill="url(#hugePanelTickGradient)" transform="rotate(15)"/>
    <rect x="-0.7" y="-38.5" width="1.4" height="3.2" rx="0.7" fill="url(#hugePanelTickGradient)" transform="rotate(30)"/>
    <rect x="-0.7" y="-38.5" width="1.4" height="3.2" rx="0.7" fill="url(#hugePanelTickGradient)" transform="rotate(45)"/>
    <rect x="-0.7" y="-38.5" width="1.4" height="3.2" rx="0.7" fill="url(#hugePanelTickGradient)" transform="rotate(60)"/>
    <rect x="-0.7" y="-38.5" width="1.4" height="3.2" rx="0.7" fill="url(#hugePanelTickGradient)" transform="rotate(75)"/>
    <rect x="-0.7" y="-38.5" width="1.4" height="3.2" rx="0.7" fill="url(#hugePanelTickGradient)" transform="rotate(90)"/>
    <rect x="-0.7" y="-38.5" width="1.4" height="3.2" rx="0.7" fill="url(#hugePanelTickGradient)" transform="rotate(105)"/>
    <rect x="-0.7" y="-38.5" width="1.4" height="3.2" rx="0.7" fill="url(#hugePanelTickGradient)" transform="rotate(120)"/>
    <rect x="-0.7" y="-38.5" width="1.4" height="3.2" rx="0.7" fill="url(#hugePanelTickGradient)" transform="rotate(135)"/>
    <rect x="-0.7" y="-38.5" width="1.4" height="3.2" rx="0.7" fill="url(#hugePanelTickGradient)" transform="rotate(150)"/>
  </g>
</svg>
