<?xml version="1.0" encoding="UTF-8" standalone="no"?>
<svg
   width="180"
   height="380"
   viewBox="0 0 180 380"
   version="1.1"
   id="svg34"
   xmlns="http://www.w3.org/2000/svg"
   xmlns:svg="http://www.w3.org/2000/svg">
  <defs
     id="defs34" />
  <!-- Dark panel background -->
  <rect
     width="180"
     height="380"
     fill="#1a1a1a"
     stroke="#0a0a0a"
     stroke-width="1"
     id="rect1"
     x="0"
     y="0"
     style="display:inline" />
  <circle
     style="display:none;fill:#ffff00;fill-opacity:1;fill-rule:evenodd;stroke:#ffffff;stroke-width:0"
     id="lin_exp_switch"
     cx="39.055355"
     cy="118.11002"
     r="6" />
  <circle
     style="display:none;fill:#ffff00;fill-opacity:1;fill-rule:evenodd;stroke:#ffffff;stroke-width:0"
     id="link_switch"
     cx="90"
     cy="118.35313"
     r="6" />
  <circle
     style="display:none;fill:#ffff00;fill-opacity:1;fill-rule:evenodd;stroke:#ffffff;stroke-width:0"
     id="vu_meter_l"
     cx="34.505978"
     cy="67.63459"
     r="6" />
  <circle
     style="display:none;fill:#ffff00;fill-opacity:1;fill-rule:evenodd;stroke:#ffffff;stroke-width:0"
     id="vu_meter_r"
     cx="147.92859"
     cy="67.63459"
     r="6" />
  <circle
     style="display:none;fill:#ffff00;fill-opacity:1;fill-rule:evenodd;stroke:#ffffff;stroke-width:0"
     id="intensity_led"
     cx="90"
     cy="81.712997"
     r="6" />
  <circle
     style="display:none;opacity:1;fill:#00ff00;fill-opacity:1;fill-rule:evenodd;stroke:#ffffff;stroke-width:0"
     id="type_cv"
     cx="154.53073"
     cy="194.29344"
     r="8" />
  <circle
     style="display:none;opacity:1;fill:#00ff00;fill-opacity:1;fill-rule:evenodd;stroke:#ffffff;stroke-width:0"
     id="drive_cv"
     cx="29.17642"
     cy="235.87756"
     r="8" />
  <circle
     style="display:none;opacity:1;fill:#00ff00;fill-opacity:1;fill-rule:evenodd;stroke:#ffffff;stroke-width:0"
     id="mix_cv"
     cx="29.17642"
     cy="288.9314"
     r="8" />
  <circle
     style="display:none;opacity:1;fill:#ff0000;fill-opacity:1;fill-rule:evenodd;stroke:#ffffff;stroke-width:0"
     id="distortion_type_select"
     cx="117.74269"
     cy="194.29344"
     r="8" />
  <circle
     style="display:none;opacity:1;fill:#ff0000;fill-opacity:1;fill-rule:evenodd;stroke:#ffffff;stroke-width:0"
     id="drive_amount"
     cx="73.836395"
     cy="235.87756"
     r="8" />
  <circle
     style="display:none;opacity:1;fill:#ff0000;fill-opacity:1;fill-rule:evenodd;stroke:#ffffff;stroke-width:0"
     id="mix_amount"
     cx="73.836395"
     cy="288.9314"
     r="8" />
  <!-- Module name -->
  <path
     d="m 30.597656,18.585937 v 2.15625 q -1.578125,-1.320312 -3.265625,-1.320312 -1.859375,0 -3.132812,1.335937 -1.28125,1.328125 -1.28125,3.25 0,1.898438 1.28125,3.203125 1.28125,1.304688 3.140625,1.304688 0.960937,0 1.632812,-0.3125 0.375,-0.15625 0.773438,-0.421875 0.40625,-0.265625 0.851562,-0.640625 v 2.195312 q -1.5625,0.882813 -3.28125,0.882813 -2.585937,0 -4.414062,-1.804688 -1.820313,-1.820312 -1.820313,-4.390625 0,-2.304687 1.523438,-4.109375 1.875,-2.210937 4.851562,-2.210937 1.625,0 3.140625,0.882812 z m 6.453125,4.070313 h 5.203125 V 17.9375 h 1.820313 V 30 H 42.253906 V 24.367187 H 37.050781 V 30 H 35.230469 V 17.9375 h 1.820312 z M 50.785156,17.9375 V 30 H 48.964844 V 17.9375 Z m 11.984375,9.132812 H 57.605469 L 56.261719,30 H 54.300781 L 60.269531,17.179687 66.027344,30 h -1.992188 z m -0.742187,-1.710937 -1.789063,-4.101563 -1.875,4.101563 z m 11.59375,-0.5 L 77.355469,30 H 75.128906 L 71.683594,25.0625 H 71.355469 V 30 H 69.535156 V 17.9375 h 2.132813 q 2.390625,0 3.453125,0.898437 1.171875,1 1.171875,2.640625 0,1.28125 -0.734375,2.203125 -0.734375,0.921875 -1.9375,1.179688 z m -2.265625,-1.382813 h 0.578125 q 2.585937,0 2.585937,-1.976562 0,-1.851563 -2.515625,-1.851563 h -0.648437 z m 8.9375,0.4375 q 0,-2.546875 1.867187,-4.375 1.859375,-1.828125 4.46875,-1.828125 2.578125,0 4.421875,1.84375 1.851563,1.84375 1.851563,4.429688 0,2.601562 -1.859375,4.414062 -1.867188,1.820313 -4.507813,1.820313 -2.335937,0 -4.195312,-1.617188 -2.046875,-1.789062 -2.046875,-4.6875 z m 1.835937,0.02344 q 0,2 1.34375,3.289062 1.335938,1.289063 3.085938,1.289063 1.898437,0 3.203125,-1.3125 1.304687,-1.328125 1.304687,-3.234375 0,-1.929688 -1.289062,-3.234375 -1.28125,-1.3125 -3.171875,-1.3125 -1.882813,0 -3.179688,1.3125 -1.296875,1.296875 -1.296875,3.203125 z m 21.882814,-4.203125 -1.47656,0.875 q -0.41407,-0.71875 -0.78907,-0.9375 -0.39062,-0.25 -1.00781,-0.25 -0.757811,0 -1.257811,0.429687 -0.5,0.421875 -0.5,1.0625 0,0.882813 1.312501,1.421875 l 1.20312,0.492188 q 1.46875,0.59375 2.14844,1.453125 0.67969,0.851562 0.67969,2.09375 0,1.664062 -1.10938,2.75 -1.11718,1.09375 -2.77343,1.09375 -1.570316,0 -2.593754,-0.929688 -1.007812,-0.929687 -1.257812,-2.617187 l 1.84375,-0.40625 q 0.125,1.0625 0.4375,1.46875 0.5625,0.78125 1.640626,0.78125 0.85156,0 1.41406,-0.570313 0.5625,-0.570312 0.5625,-1.445312 0,-0.351563 -0.10156,-0.640625 -0.0937,-0.296875 -0.30469,-0.539063 -0.20312,-0.25 -0.53125,-0.460937 -0.32812,-0.21875 -0.78125,-0.414063 l -1.164061,-0.484375 q -2.476563,-1.046875 -2.476563,-3.0625 0,-1.359375 1.039063,-2.273437 1.039062,-0.921875 2.585941,-0.921875 2.08593,0 3.25781,2.03125 z m 13.42187,-1.148438 v 2.15625 q -1.57812,-1.320312 -3.26562,-1.320312 -1.85938,0 -3.13281,1.335937 -1.28125,1.328125 -1.28125,3.25 0,1.898438 1.28125,3.203125 1.28125,1.304688 3.14062,1.304688 0.96094,0 1.63281,-0.3125 0.375,-0.15625 0.77344,-0.421875 0.40625,-0.265625 0.85156,-0.640625 v 2.195312 q -1.5625,0.882813 -3.28125,0.882813 -2.58593,0 -4.41406,-1.804688 -1.82031,-1.820312 -1.82031,-4.390625 0,-2.304687 1.52344,-4.109375 1.875,-2.210937 4.85156,-2.210937 1.625,0 3.14062,0.882812 z m 6.11719,-0.648437 v 7.265625 q 0,1.554687 0.50781,2.273437 0.75782,1.039063 2.13282,1.039063 1.38281,0 2.14062,-1.039063 0.50781,-0.695312 0.50781,-2.273437 V 17.9375 h 1.82032 v 7.765625 q 0,1.90625 -1.1875,3.140625 -1.33594,1.375 -3.28125,1.375 -1.94532,0 -3.27344,-1.375 -1.1875,-1.234375 -1.1875,-3.140625 V 17.9375 Z M 139.63672,24.859375 143.37109,30 h -2.22656 l -3.44531,-4.9375 h -0.32813 V 30 h -1.82031 V 17.9375 h 2.13281 q 2.39063,0 3.45313,0.898437 1.17187,1 1.17187,2.640625 0,1.28125 -0.73437,2.203125 -0.73438,0.921875 -1.9375,1.179688 z m -2.26563,-1.382813 h 0.57813 q 2.58594,0 2.58594,-1.976562 0,-1.851563 -2.51563,-1.851563 h -0.64844 z m 8.9375,0.4375 q 0,-2.546875 1.86719,-4.375 1.85938,-1.828125 4.46875,-1.828125 2.57813,0 4.42188,1.84375 1.85156,1.84375 1.85156,4.429688 0,2.601562 -1.85938,4.414062 -1.86718,1.820313 -4.50781,1.820313 -2.33594,0 -4.19531,-1.617188 -2.04688,-1.789062 -2.04688,-4.6875 z m 1.83594,0.02344 q 0,2 1.34375,3.289062 1.33594,1.289063 3.08594,1.289063 1.89844,0 3.20312,-1.3125 1.30469,-1.328125 1.30469,-3.234375 0,-1.929688 -1.28906,-3.234375 -1.28125,-1.3125 -3.17188,-1.3125 -1.88281,0 -3.17968,1.3125 -1.29688,1.296875 -1.29688,3.203125 z"
     id="text1"
     style="font-weight:500;font-size:16px;font-family:Futura, 'Futura PT', 'Century Gothic', 'Avant Garde', sans-serif;letter-spacing:2px;text-anchor:middle;fill:#e8e8e8"
     aria-label="CHIAROSCURO" />
  <!-- Minimal section dividers -->
  <line
     x1="15.000001"
     y1="39.656555"
     x2="165"
     y2="39.656555"
     stroke="#333333"
     stroke-width="0.5"
     id="line1" />
  <line
     x1="15"
     y1="141.04433"
     x2="165"
     y2="141.04433"
     stroke="#333333"
     stroke-width="0.5"
     id="line2" />
  <!-- Audio I/O labels -->
  <path
     d="m 48.582581,338.99108 v 6.03125 h -0.910156 v -6.03125 z m 1.449219,6.03125 v -6.4414 l 4.398437,4.60156 v -4.19141 h 0.910156 v 6.39844 l -4.398437,-4.58984 v 4.22265 z"
     id="text2"
     style="font-size:8px;font-family:Futura, sans-serif;text-anchor:middle;fill:#999999"
     aria-label="IN" />
  <path
     d="m 118.82839,341.95984 q 0,-1.27344 0.93359,-2.1875 0.92969,-0.91407 2.23438,-0.91407 1.28906,0 2.21094,0.92188 0.92578,0.92187 0.92578,2.21484 0,1.30078 -0.92969,2.20703 -0.93359,0.91016 -2.25391,0.91016 -1.16796,0 -2.09765,-0.80859 -1.02344,-0.89453 -1.02344,-2.34375 z m 0.91797,0.0117 q 0,1 0.67187,1.64453 0.66797,0.64453 1.54297,0.64453 0.94922,0 1.60157,-0.65625 0.65234,-0.66406 0.65234,-1.61719 0,-0.96484 -0.64453,-1.61719 -0.64063,-0.65625 -1.58594,-0.65625 -0.94141,0 -1.58984,0.65625 -0.64844,0.64844 -0.64844,1.60157 z m 7.44141,-3 v 3.63281 q 0,0.77734 0.2539,1.13672 0.37891,0.51953 1.06641,0.51953 0.6914,0 1.07031,-0.51953 0.25391,-0.34766 0.25391,-1.13672 v -3.63281 h 0.91015 v 3.88281 q 0,0.95312 -0.59375,1.57031 -0.66797,0.6875 -1.64062,0.6875 -0.97266,0 -1.63672,-0.6875 -0.59375,-0.61719 -0.59375,-1.57031 v -3.88281 z m 6.66406,0.85547 v 5.17578 h -0.91016 V 339.827 h -1.38672 v -0.85546 h 3.67969 v 0.85546 z"
     id="text3"
     style="font-size:8px;font-family:Futura, sans-serif;text-anchor:middle;fill:#999999"
     aria-label="OUT" />
  <!-- Channel labels -->
  <!-- VCA section -->
  <path
     d="m 127.94205,260.60883 1.45947,3.65722 1.47998,-3.65722 h 0.87158 l -2.36865,5.67383 -2.31396,-5.67383 z m 8.12793,0.2837 v 0.94336 q -0.69043,-0.57764 -1.42871,-0.57764 -0.81348,0 -1.37061,0.58447 -0.56055,0.58106 -0.56055,1.42188 0,0.83056 0.56055,1.40137 0.56055,0.5708 1.37402,0.5708 0.42041,0 0.71436,-0.13672 0.16406,-0.0684 0.33838,-0.18457 0.17773,-0.11621 0.37256,-0.28028 v 0.96045 q -0.6836,0.38623 -1.43555,0.38623 -1.13135,0 -1.93115,-0.78955 -0.79639,-0.79638 -0.79639,-1.9209 0,-1.0083 0.66651,-1.79785 0.82031,-0.96728 2.12255,-0.96728 0.71094,0 1.37403,0.38623 z m 4.23144,3.7119 h -2.25927 l -0.5879,1.28175 h -0.85791 l 2.61133,-5.60889 2.51905,5.60889 h -0.87159 z m -0.3247,-0.74852 -0.78272,-1.79445 -0.82031,1.79445 z"
     id="text8"
     style="font-size:7px;font-family:Futura, sans-serif;text-anchor:middle;fill:#999999"
     aria-label="VCA" />
  <path
     d="m 110.91798,304.41507 v 0.80859 q -0.5918,-0.49512 -1.22461,-0.49512 -0.69726,0 -1.1748,0.50098 -0.48047,0.49805 -0.48047,1.21875 0,0.71191 0.48047,1.20117 0.48047,0.48926 1.17773,0.48926 0.36035,0 0.61231,-0.11719 0.14062,-0.0586 0.29004,-0.1582 0.15234,-0.0996 0.31933,-0.24023 v 0.82324 q -0.58594,0.33105 -1.23047,0.33105 -0.96972,0 -1.65527,-0.67676 -0.68262,-0.68261 -0.68262,-1.64648 0,-0.86426 0.57129,-1.54102 0.70313,-0.8291 1.81934,-0.8291 0.60937,0 1.17773,0.33106 z m 1.08984,-0.24317 1.25098,3.13477 1.26856,-3.13477 h 0.74707 l -2.03028,4.86328 -1.9834,-4.86328 z"
     id="text9"
     style="font-size:6px;font-family:Futura, sans-serif;fill:#777777"
     aria-label="CV" />
  <path
     d="m 152.06328,307.86476 h -1.93653 l -0.5039,1.09864 h -0.73536 l 2.23829,-4.80762 2.15918,4.80762 h -0.74707 z m -0.27832,-0.6416 -0.6709,-1.53808 -0.70313,1.53808 z m 3.06152,-2.1416 v 3.88184 h -0.68262 v -3.88184 h -1.04004 v -0.64159 h 2.75977 v 0.64159 z m 2.89453,0 v 3.88184 h -0.68262 v -3.88184 h -1.04004 v -0.64159 h 2.75977 v 0.64159 z"
     id="text10"
     style="font-size:6px;font-family:Futura, sans-serif;fill:#777777"
     aria-label="ATT" />
  <!-- Response and Link switches -->
  <path
     d="m 51.939973,105.33593 v 3.88184 h 1.330078 v 0.64159 h -2.012696 v -4.52343 z m 2.660156,0 v 4.52343 h -0.682617 v -4.52343 z m 1.086914,4.52343 v -4.83104 l 3.298828,3.45116 v -3.14355 h 0.682617 v 4.79883 l -3.298828,-3.44238 v 3.16698 z"
     id="text11"
     style="font-size:6px;font-family:Futura, sans-serif;text-anchor:middle;fill:#777777"
     aria-label="LIN" />
  <path
     d="m 52.447385,130.95361 h -1.813476 v 1.08692 h 1.760742 v 0.6416 h -1.760742 v 1.51172 h 1.813476 v 0.6416 h -2.496094 v -4.52344 h 2.496094 z m 1.842774,1.51758 -1.245118,-2.15918 h 0.776368 l 0.864257,1.53223 0.908204,-1.53223 h 0.782226 l -1.303711,2.15918 1.368164,2.36426 h -0.764648 l -1.001953,-1.73143 -1.03125,1.73143 H 52.86926 Z m 3.442382,0.52736 v 1.8369 h -0.682617 v -4.52344 h 0.773438 q 0.568359,0 0.858398,0.0791 0.292969,0.0791 0.515625,0.29883 0.389649,0.38086 0.389649,0.96094 0,0.62109 -0.416016,0.98438 -0.416016,0.36328 -1.12207,0.36328 z m 0,-0.63283 h 0.254883 q 0.94043,0 0.94043,-0.72362 0,-0.70019 -0.969727,-0.70019 h -0.225586 z"
     id="text12"
     style="font-size:6px;font-family:Futura, sans-serif;text-anchor:middle;fill:#777777"
     aria-label="EXP" />
  <path
     d="m 105.56399,116.10752 v 3.88184 h 1.33008 v 0.6416 h -2.0127 v -4.52344 z m 2.66015,0 v 4.52344 h -0.68261 v -4.52344 z m 1.08692,4.52344 v -4.83106 l 3.29883,3.45118 v -3.14356 h 0.68261 v 4.79883 l -3.29882,-3.44238 v 3.16699 z m 5.74805,-2.71875 1.76074,-1.80469 h 0.91112 l -2.04491,2.04785 2.05663,2.47559 h -0.91406 l -1.62891,-2.0127 -0.14062,0.14063 v 1.87207 h -0.68262 v -4.52344 h 0.68262 z"
     id="text13"
     style="font-size:6px;font-family:Futura, sans-serif;text-anchor:middle;fill:#777777"
     aria-label="LINK" />
  <!-- Sidechain section -->
  <path
     d="m 32.216916,152.64176 -0.738281,0.4375 q -0.207031,-0.35938 -0.394531,-0.46875 -0.195313,-0.125 -0.503906,-0.125 -0.378907,0 -0.628907,0.21484 -0.25,0.21094 -0.25,0.53125 0,0.44141 0.65625,0.71094 l 0.601563,0.24609 q 0.734375,0.29688 1.074219,0.72656 0.339843,0.42579 0.339843,1.04688 0,0.83203 -0.554687,1.375 -0.558594,0.54687 -1.386719,0.54687 -0.785157,0 -1.296875,-0.46484 -0.503907,-0.46484 -0.628907,-1.30859 l 0.921875,-0.20313 q 0.0625,0.53125 0.21875,0.73438 0.28125,0.39062 0.820313,0.39062 0.425782,0 0.707032,-0.28515 0.28125,-0.28516 0.28125,-0.72266 0,-0.17578 -0.05078,-0.32031 -0.04687,-0.14844 -0.152343,-0.26953 -0.101563,-0.125 -0.265625,-0.23047 -0.164063,-0.10938 -0.390625,-0.20703 l -0.582032,-0.24219 q -1.238281,-0.52344 -1.238281,-1.53125 0,-0.67969 0.519531,-1.13672 0.519531,-0.46094 1.292969,-0.46094 1.042969,0 1.628906,1.01563 z m 2.164063,-0.89844 v 6.03125 h -0.910156 v -6.03125 z m 1.449219,6.03125 v -6.03125 h 1.265625 q 0.910156,0 1.4375,0.17969 0.566406,0.17578 1.027343,0.59765 0.933594,0.85157 0.933594,2.23828 0,1.39063 -0.972656,2.25 -0.488281,0.42969 -1.023438,0.59766 -0.5,0.16797 -1.417968,0.16797 z m 0.910156,-0.85547 h 0.410156 q 0.613281,0 1.019531,-0.12891 0.40625,-0.13671 0.734375,-0.43359 0.671875,-0.61328 0.671875,-1.59766 0,-0.99218 -0.664062,-1.60937 -0.597656,-0.55078 -1.761719,-0.55078 h -0.410156 z m 8.226562,-4.32031 h -2.417968 v 1.44922 h 2.347656 v 0.85547 h -2.347656 v 2.01562 h 2.417968 v 0.85547 h -3.328125 v -6.03125 h 3.328125 z m 5.652344,-0.53125 v 1.07812 q -0.789062,-0.66015 -1.632812,-0.66015 -0.929688,0 -1.566407,0.66797 -0.640625,0.66406 -0.640625,1.625 0,0.94921 0.640625,1.60156 0.640625,0.65234 1.570313,0.65234 0.480469,0 0.816406,-0.15625 0.1875,-0.0781 0.386719,-0.21094 0.203125,-0.13281 0.425781,-0.32031 v 1.09766 q -0.78125,0.4414 -1.640625,0.4414 -1.292969,0 -2.207031,-0.90234 -0.910156,-0.91016 -0.910156,-2.19531 0,-1.15235 0.761718,-2.05469 0.9375,-1.10547 2.425782,-1.10547 0.8125,0 1.570312,0.44141 z m 2.226563,2.03515 h 2.601562 v -2.35937 h 0.910156 v 6.03125 h -0.910156 v -2.81641 h -2.601562 v 2.81641 h -0.910157 v -6.03125 h 0.910157 z m 8.5,2.20704 h -2.582032 l -0.671875,1.46484 h -0.980468 l 2.984375,-6.41016 2.878906,6.41016 h -0.996094 z m -0.371094,-0.85547 -0.894531,-2.05078 -0.9375,2.05078 z m 3.664062,-3.71094 v 6.03125 h -0.910156 v -6.03125 z m 1.449219,6.03125 v -6.44141 l 4.398438,4.60157 v -4.19141 h 0.910156 v 6.39844 l -4.398438,-4.58985 v 4.22266 z"
     id="text14"
     style="font-size:8px;font-family:Futura, sans-serif;text-anchor:middle;fill:#999999"
     aria-label="SIDECHAIN" />
  <!-- Distortion section -->
  <path
     d="m 110.6591,157.77457 v -6.03125 h 1.26563 q 0.91015,0 1.4375,0.17969 0.5664,0.17578 1.02734,0.59765 0.9336,0.85157 0.9336,2.23828 0,1.39063 -0.97266,2.25 -0.48828,0.42969 -1.02344,0.59766 -0.5,0.16797 -1.41797,0.16797 z m 0.91016,-0.85547 h 0.41016 q 0.61328,0 1.01953,-0.12891 0.40625,-0.13671 0.73437,-0.43359 0.67188,-0.61328 0.67188,-1.59766 0,-0.99218 -0.66407,-1.60937 -0.59765,-0.55078 -1.76171,-0.55078 h -0.41016 z m 5.80859,-5.17578 v 6.03125 h -0.91015 v -6.03125 z m 4.85938,0.89844 -0.73828,0.4375 q -0.20703,-0.35938 -0.39453,-0.46875 -0.19532,-0.125 -0.50391,-0.125 -0.37891,0 -0.62891,0.21484 -0.25,0.21094 -0.25,0.53125 0,0.44141 0.65625,0.71094 l 0.60157,0.24609 q 0.73437,0.29688 1.07421,0.72656 0.33985,0.42579 0.33985,1.04688 0,0.83203 -0.55469,1.375 -0.55859,0.54687 -1.38672,0.54687 -0.78515,0 -1.29687,-0.46484 -0.50391,-0.46484 -0.62891,-1.30859 l 0.92188,-0.20313 q 0.0625,0.53125 0.21875,0.73438 0.28125,0.39062 0.82031,0.39062 0.42578,0 0.70703,-0.28515 0.28125,-0.28516 0.28125,-0.72266 0,-0.17578 -0.0508,-0.32031 -0.0469,-0.14844 -0.15235,-0.26953 -0.10156,-0.125 -0.26562,-0.23047 -0.16406,-0.10938 -0.39063,-0.20703 l -0.58203,-0.24219 q -1.23828,-0.52344 -1.23828,-1.53125 0,-0.67969 0.51953,-1.13672 0.51953,-0.46094 1.29297,-0.46094 1.04297,0 1.62891,1.01563 z m 3.03125,-0.043 v 5.17581 h -0.91016 v -5.17578 h -1.38672 v -0.85547 h 3.67969 v 0.85547 z m 1.70312,2.13281 q 0,-1.27344 0.9336,-2.1875 0.92968,-0.91406 2.23437,-0.91406 1.28906,0 2.21094,0.92187 0.92578,0.92188 0.92578,2.21485 0,1.30078 -0.92969,2.20703 -0.93359,0.91015 -2.2539,0.91015 -1.16797,0 -2.09766,-0.80859 -1.02344,-0.89453 -1.02344,-2.34375 z m 0.91797,0.0117 q 0,1 0.67188,1.64453 0.66797,0.64453 1.54297,0.64453 0.94921,0 1.60156,-0.65625 0.65234,-0.66406 0.65234,-1.61719 0,-0.96484 -0.64453,-1.61718 -0.64062,-0.65625 -1.58594,-0.65625 -0.9414,0 -1.58984,0.65625 -0.64844,0.64843 -0.64844,1.60156 z m 8.57422,0.46094 1.86719,2.57031 h -1.11328 l -1.72266,-2.46875 h -0.16406 v 2.4688 h -0.91016 v -6.03125 h 1.06641 q 1.19531,0 1.72656,0.44922 0.58594,0.5 0.58594,1.32031 0,0.64063 -0.36719,1.10156 -0.36719,0.46094 -0.96875,0.58985 z m -1.13281,-0.69141 h 0.28906 q 1.29297,0 1.29297,-0.98828 0,-0.92578 -1.25781,-0.92578 h -0.32422 z m 5.5,-1.91406 v 5.17583 h -0.91016 v -5.17578 h -1.38672 v -0.85547 h 3.67969 v 0.85547 z m 3.10547,-0.85547 v 6.0313 h -0.91016 v -6.03125 z m 1.14843,2.98828 q 0,-1.27344 0.9336,-2.1875 0.92969,-0.91406 2.23437,-0.91406 1.28907,0 2.21094,0.92187 0.92578,0.92188 0.92578,2.21485 0,1.30078 -0.92969,2.20703 -0.93359,0.91015 -2.2539,0.91015 -1.16797,0 -2.09766,-0.80859 -1.02344,-0.89453 -1.02344,-2.34375 z m 0.91797,0.0117 q 0,1 0.67188,1.64453 0.66797,0.64453 1.54297,0.64453 0.94922,0 1.60156,-0.65625 0.65234,-0.66406 0.65234,-1.61719 0,-0.96484 -0.64453,-1.61718 -0.64062,-0.65625 -1.58594,-0.65625 -0.9414,0 -1.58984,0.65625 -0.64844,0.64843 -0.64844,1.60156 z m 6.53125,3.03132 v -6.44141 l 4.39844,4.60157 v -4.19141 h 0.91016 v 6.39844 l -4.39844,-4.58985 v 4.22266 z"
     id="text19"
     style="font-size:8px;font-family:Futura, sans-serif;text-anchor:middle;fill:#999999"
     aria-label="DISTORTION" />
  <path
     d="m 112.96583,170.37035 v 3.88184 h -0.68261 v -3.88184 h -1.04004 v -0.6416 h 2.75976 v 0.6416 z m 2.85352,1.92774 -1.47656,-2.56934 h 0.78515 l 1.03418,1.80762 1.03711,-1.80762 h 0.78516 l -1.48242,2.56934 v 1.9541 h -0.68262 z m 3.36914,0.11719 v 1.83691 h -0.68262 v -4.52344 h 0.77344 q 0.56836,0 0.8584,0.0791 0.29297,0.0791 0.51562,0.29883 0.38965,0.38086 0.38965,0.96094 0,0.62109 -0.41601,0.98437 -0.41602,0.36329 -1.12207,0.36329 z m 0,-0.63282 h 0.25488 q 0.94043,0 0.94043,-0.72363 0,-0.70019 -0.96972,-0.70019 h -0.22559 z m 5.05371,-1.41211 h -1.81348 v 1.08692 h 1.76075 v 0.6416 h -1.76075 v 1.51172 h 1.81348 v 0.6416 h -2.49609 v -4.52344 h 2.49609 z"
     id="text20"
     style="font-size:6px;font-family:Futura, sans-serif;text-anchor:middle;fill:#777777"
     aria-label="TYPE" />
  <path
     d="m 154.20236,170.20338 v 0.67383 q -0.49316,-0.4126 -1.0205,-0.4126 -0.58106,0 -0.97901,0.41748 -0.40039,0.41504 -0.40039,1.01563 0,0.59326 0.40039,1.00097 0.40039,0.40772 0.98145,0.40772 0.30029,0 0.51025,-0.0977 0.11719,-0.0488 0.2417,-0.13183 0.12695,-0.083 0.26611,-0.2002 v 0.68604 q -0.48828,0.27588 -1.02539,0.27588 -0.8081,0 -1.37939,-0.56397 -0.56885,-0.56885 -0.56885,-1.37207 0,-0.72021 0.47608,-1.28418 0.58593,-0.69092 1.51611,-0.69092 0.50781,0 0.98144,0.27588 z m 0.90821,-0.20263 1.04248,2.6123 1.05713,-2.6123 h 0.62256 l -1.6919,4.05273 -1.65283,-4.05273 z"
     id="text21"
     style="font-size:5px;font-family:Futura, sans-serif;fill:#666666"
     aria-label="CV" />
  <path
     d="m 19.80692,215.46843 h 0.315 q 0.357,0 0.637,-0.112 0.28,-0.112 0.469,-0.308 0.196,-0.196 0.294,-0.462 0.105,-0.273 0.105,-0.595 0,-0.315 -0.105,-0.588 -0.105,-0.273 -0.301,-0.469 -0.189,-0.196 -0.469,-0.308 -0.28,-0.112 -0.63,-0.112 h -0.315 z m -1.372,-4.116 h 2.03 q 0.539,0 1.008,0.217 0.476,0.217 0.826,0.581 0.357,0.357 0.56,0.84 0.203,0.476 0.203,1.001 0,0.518 -0.203,1.001 -0.196,0.476 -0.553,0.84 -0.35,0.364 -0.826,0.581 -0.469,0.217 -1.015,0.217 h -2.03 z m 6.874,2.359 h 0.259 q 0.406,0 0.623,-0.168 0.217,-0.168 0.217,-0.483 0,-0.315 -0.217,-0.483 -0.217,-0.168 -0.623,-0.168 h -0.259 z m 3.017,2.919 h -1.708 l -1.309,-2.03 v 2.03 h -1.372 v -5.278 h 2.135 q 0.441,0 0.77,0.133 0.329,0.126 0.539,0.35 0.217,0.224 0.322,0.518 0.112,0.294 0.112,0.63 0,0.602 -0.294,0.98 -0.287,0.371 -0.854,0.504 z m 1.94599,-5.278 v 5.278 h -1.372 v -5.278 z m 2.044,0 1.274,3.213 1.281,-3.213 h 1.491 l -2.226,5.278 h -1.092 l -2.219,-5.278 z m 7.60201,1.162 h -1.631 v 0.882 h 1.54 v 1.162 h -1.54 v 0.91 h 1.631 v 1.162 h -3.003 v -5.278 h 3.003 z"
     id="text22"
     style="font-weight:600;font-size:7px;font-family:Futura, sans-serif;text-anchor:middle;fill:#cc4444"
     aria-label="DRIVE" />
  <path
     d="m 14.671629,241.54528 v 0.67382 q -0.49316,-0.41259 -1.02051,-0.41259 -0.58105,0 -0.979,0.41748 -0.40039,0.41504 -0.40039,1.01562 0,0.59326 0.40039,1.00098 0.40039,0.40771 0.98145,0.40771 0.30029,0 0.51025,-0.0976 0.11719,-0.0488 0.2417,-0.13184 0.12695,-0.083 0.26611,-0.20019 v 0.68603 q -0.48828,0.27588 -1.02539,0.27588 -0.8081,0 -1.37939,-0.56397 -0.568848,-0.56884 -0.568848,-1.37207 0,-0.72021 0.476068,-1.28418 0.58594,-0.69091 1.51612,-0.69091 0.50781,0 0.98144,0.27588 z m 0.9082,-0.20264 1.04249,2.6123 1.05712,-2.6123 h 0.62256 l -1.69189,4.05273 -1.65283,-4.05273 z"
     id="text23"
     style="font-size:5px;font-family:Futura, sans-serif;fill:#666666"
     aria-label="CV" />
  <path
     d="m 21.65842,268.55798 0.896,-5.278 h 1.358 l 1.057,2.814 1.05,-2.814 h 1.358 l 0.896,5.278 h -1.365 l -0.455,-3.038 -1.246,3.038 h -0.546 l -1.183,-3.038 -0.455,3.038 z m 8.855,-5.278 v 5.278 h -1.372 v -5.278 z m 2.618,2.464 -1.645,-2.464 h 1.694 l 0.714,1.365 0.882,-1.365 h 1.694 l -1.743,2.464 1.967,2.814 h -1.673 l -1.057,-1.722 -1.239,1.722 h -1.659 z"
     id="text24"
     style="font-weight:600;font-size:7px;font-family:Futura, sans-serif;text-anchor:middle;fill:#4488cc"
     aria-label="MIX" />
  <path
     d="m 14.67163,296.14683 v 0.67382 q -0.49316,-0.41259 -1.02051,-0.41259 -0.581049,0 -0.978999,0.41748 -0.40039,0.41504 -0.40039,1.01562 0,0.59326 0.40039,1.00098 0.40039,0.40771 0.98145,0.40771 0.30029,0 0.51025,-0.0976 0.11719,-0.0488 0.2417,-0.13184 0.12695,-0.083 0.266109,-0.20019 v 0.68603 q -0.48828,0.27588 -1.02539,0.27588 -0.808099,0 -1.379389,-0.56397 -0.568851,-0.56884 -0.568851,-1.37207 0,-0.72021 0.476071,-1.28418 0.58594,-0.69091 1.51612,-0.69091 0.507809,0 0.981439,0.27588 z m 0.908201,-0.20264 1.04249,2.6123 1.05712,-2.6123 H 18.302 l -1.691889,4.05273 -1.65283,-4.05273 z"
     id="text25"
     style="font-size:5px;font-family:Futura, sans-serif;fill:#666666"
     aria-label="CV" />
  <!-- Visual feedback section -->
  <path
     d="m 75.82178,97.894163 v 4.523437 h -0.68262 v -4.523437 z m 1.08691,4.523437 v -4.831057 l 3.29883,3.451177 v -3.143557 h 0.68262 v 4.798827 l -3.29883,-3.442377 v 3.166987 z m 6.31348,-3.881837 v 3.881837 h -0.68262 v -3.881837 h -1.04004 v -0.6416 h 2.75977 v 0.6416 z m 4.14258,0 h -1.81348 v 1.08692 h 1.76074 v 0.641597 h -1.76074 v 1.51172 h 1.81348 v 0.6416 h -2.4961 v -4.523437 h 2.4961 z m 0.89648,3.881837 v -4.831057 l 3.29883,3.451177 v -3.143557 h 0.68262 v 4.798827 l -3.29883,-3.442377 v 3.166987 z m 7.62305,-3.849607 -0.55371,0.32812 q -0.15528,-0.26953 -0.2959,-0.35156 -0.14649,-0.0937 -0.37793,-0.0937 -0.28418,0 -0.47168,0.16113 -0.1875,0.15821 -0.1875,0.39844 0,0.33106 0.49219,0.5332 l 0.45117,0.18458 q 0.55078,0.22265 0.80566,0.544917 0.25488,0.31933 0.25488,0.78515 0,0.62403 -0.41601,1.03125 -0.41895,0.41016 -1.04004,0.41016 -0.58887,0 -0.97266,-0.34863 -0.37793,-0.34864 -0.47168,-0.98145 l 0.69141,-0.15234 q 0.0469,0.39844 0.16406,0.55078 0.21094,0.29297 0.61524,0.29297 0.31933,0 0.53027,-0.21387 0.21094,-0.21387 0.21094,-0.54199 0,-0.13184 -0.0381,-0.24024 -0.0352,-0.11132 -0.11426,-0.20214 -0.0762,-0.0937 -0.19922,-0.17286 -0.12305,-0.082 -0.29297,-0.15527 L 94.23192,100.153 q -0.92871,-0.392577 -0.92871,-1.148437 0,-0.50976 0.38965,-0.85254 0.38964,-0.3457 0.96972,-0.3457 0.78223,0 1.22168,0.76172 z m 1.62304,-0.67383 v 4.523437 h -0.68261 v -4.523437 z m 2.334962,0.6416 V 102.4176 H 99.15967 v -3.881837 h -1.04004 v -0.6416 h 2.75976 v 0.6416 z m 2.853518,1.927737 -1.47656,-2.569337 h 0.78515 l 1.03418,1.80762 1.03711,-1.80762 h 0.78516 l -1.48242,2.569337 v 1.9541 h -0.68262 z"
     id="text26"
     style="font-size:6px;font-family:Futura, sans-serif;text-anchor:middle;fill:#777777"
     aria-label="INTENSITY" />
  <!-- Mounting screws -->
  <circle
     cx="7.5"
     cy="7.5"
     r="3"
     fill="#2a2a2a"
     stroke="#444444"
     stroke-width="0.5"
     id="circle28"
     style="display:none" />
  <circle
     cx="172.5"
     cy="7.5"
     r="3"
     fill="#2a2a2a"
     stroke="#444444"
     stroke-width="0.5"
     id="circle29"
     style="display:none" />
  <circle
     cx="7.5"
     cy="372.5"
     r="3"
     fill="#2a2a2a"
     stroke="#444444"
     stroke-width="0.5"
     id="circle30"
     style="display:none" />
  <circle
     cx="172.5"
     cy="372.5"
     r="3"
     fill="#2a2a2a"
     stroke="#444444"
     stroke-width="0.5"
     id="circle31"
     style="display:none" />
  <!-- Screw details -->
  <line
     x1="6"
     y1="7.5"
     x2="9"
     y2="7.5"
     stroke="#1a1a1a"
     stroke-width="0.5"
     id="line31" />
  <line
     x1="171"
     y1="7.5"
     x2="174"
     y2="7.5"
     stroke="#1a1a1a"
     stroke-width="0.5"
     id="line32" />
  <line
     x1="6"
     y1="372.5"
     x2="9"
     y2="372.5"
     stroke="#1a1a1a"
     stroke-width="0.5"
     id="line33" />
  <line
     x1="171"
     y1="372.5"
     x2="174"
     y2="372.5"
     stroke="#1a1a1a"
     stroke-width="0.5"
     id="line34"
     style="display:inline" />
  <circle
     style="display:none;opacity:1;fill:#00ff00;fill-opacity:1;fill-rule:evenodd;stroke:#ffffff;stroke-width:0"
     id="l_input"
     cx="29.17642"
     cy="341.98523"
     r="8" />
  <circle
     style="display:none;opacity:1;fill:#0000ff;fill-opacity:1;fill-rule:evenodd;stroke:#ffffff;stroke-width:0"
     id="l_output"
     cx="100.33237"
     cy="341.98523"
     r="8" />
  <circle
     style="display:none;opacity:1;fill:#0000ff;fill-opacity:1;fill-rule:evenodd;stroke:#ffffff;stroke-width:0"
     id="r_output"
     cx="153.73065"
     cy="341.98523"
     r="8" />
  <circle
     style="display:none;opacity:1;fill:#00ff00;fill-opacity:1;fill-rule:evenodd;stroke:#ffffff;stroke-width:0"
     id="r_input"
     cx="73.836395"
     cy="341.98523"
     r="8" />
  <circle
     style="display:none;opacity:1;fill:#00ff00;fill-opacity:1;fill-rule:evenodd;stroke:#ffffff;stroke-width:0"
     id="vca_cv"
     cx="111.31203"
     cy="288.73596"
     r="8" />
  <circle
     style="display:none;opacity:1;fill:#00ff00;fill-opacity:1;fill-rule:evenodd;stroke:#ffffff;stroke-width:0"
     id="sidechain_in"
     cx="29.17642"
     cy="182.82373"
     r="8" />
  <circle
     style="display:none;opacity:1;fill:#ff0000;fill-opacity:1;fill-rule:evenodd;stroke:#ffffff;stroke-width:0"
     id="vca_gain"
     cx="134.39859"
     cy="235.87756"
     r="8" />
  <circle
     style="display:none;opacity:1;fill:#ff0000;fill-opacity:1;fill-rule:evenodd;stroke:#ffffff;stroke-width:0"
     id="attenu_vca"
     cx="153.83281"
     cy="288.73596"
     r="6" />
  <circle
     style="display:none;fill:#ff0000;fill-opacity:1;fill-rule:evenodd;stroke:#ffffff;stroke-width:0"
     id="dist_amount"
     cx="73.836395"
     cy="182.82373"
     r="8" />
</svg>
