<?xml version="1.0" encoding="UTF-8" standalone="no"?>
<svg
   width="203.2mm"
   height="128.5mm"
   viewBox="0 0 203.2 128.5"
   version="1.1"
   id="chimera-panel"
   sodipodi:docname="Chimera.svg"
   inkscape:version="1.4.3 (0d15f75, 2025-12-25)"
   xmlns:inkscape="http://www.inkscape.org/namespaces/inkscape"
   xmlns:sodipodi="http://sodipodi.sourceforge.net/DTD/sodipodi-0.dtd"
   xmlns="http://www.w3.org/2000/svg"
   xmlns:svg="http://www.w3.org/2000/svg">
  <sodipodi:namedview
     id="namedview8"
     pagecolor="#505050"
     bordercolor="#eeeeee"
     borderopacity="1"
     inkscape:showpageshadow="0"
     inkscape:pageopacity="0"
     inkscape:pagecheckerboard="0"
     inkscape:deskcolor="#505050"
     inkscape:document-units="mm"
     inkscape:zoom="1.7613144"
     inkscape:cx="533.40846"
     inkscape:cy="233.06458"
     inkscape:window-width="1800"
     inkscape:window-height="1101"
     inkscape:window-x="0"
     inkscape:window-y="40"
     inkscape:window-maximized="1"
     inkscape:current-layer="chimera-panel" />
  <defs
     id="defs6">
    <linearGradient
       id="panelGradient"
       x1="0"
       y1="0"
       x2="0"
       y2="1">
      <stop
         offset="0%"
         stop-color="#2f2f36"
         id="stop1" />
      <stop
         offset="50%"
         stop-color="#313338"
         id="stop2" />
      <stop
         offset="100%"
         stop-color="#27272d"
         id="stop3" />
    </linearGradient>
    <linearGradient
       id="accentGradient"
       x1="0"
       y1="0"
       x2="1"
       y2="0">
      <stop
         offset="0%"
         stop-color="#43c0c9"
         stop-opacity="0.35"
         id="stop4" />
      <stop
         offset="50%"
         stop-color="#8e5bea"
         stop-opacity="0.25"
         id="stop5" />
      <stop
         offset="100%"
         stop-color="#f2c75c"
         stop-opacity="0.35"
         id="stop6" />
    </linearGradient>
  </defs>
  <rect
     x="0"
     y="0"
     width="203.2"
     height="128.5"
     fill="none"
     id="rect6" />
  <circle
     id="ch1_level"
     cx="15.7"
     cy="17.992138"
     r="3"
     style="display:inline;fill:#ff0000" />
  <circle
     id="ch2_level"
     cx="45.133331"
     cy="17.992138"
     r="3"
     style="display:inline;fill:#ff0000" />
  <circle
     id="ch3_level"
     cx="74.566666"
     cy="17.992138"
     r="3"
     style="display:inline;fill:#ff0000" />
  <circle
     id="ch4_level"
     cx="104"
     cy="17.992138"
     r="3"
     style="display:inline;fill:#ff0000" />
  <circle
     id="ch1_pan"
     cx="15.7"
     cy="36.898476"
     r="2.5"
     style="display:inline;fill:#ff0000" />
  <circle
     id="ch2_pan"
     cx="45.133331"
     cy="36.898476"
     r="2.5"
     style="display:inline;fill:#ff0000" />
  <circle
     id="ch3_pan"
     cx="74.566666"
     cy="36.898476"
     r="2.5"
     style="display:inline;fill:#ff0000" />
  <circle
     id="ch4_pan"
     cx="104"
     cy="36.898476"
     r="2.5"
     style="display:inline;fill:#ff0000" />
  <circle
     id="ch1_morph"
     cx="15.7"
     cy="55.004814"
     r="2.5"
     style="display:inline;fill:#ff0000" />
  <circle
     id="ch2_morph"
     cx="45.133331"
     cy="55.004814"
     r="2.5"
     style="display:inline;fill:#ff0000" />
  <circle
     id="ch3_morph"
     cx="74.566666"
     cy="55.004814"
     r="2.5"
     style="display:inline;fill:#ff0000" />
  <circle
     id="ch4_morph"
     cx="104"
     cy="55.004814"
     r="2.5"
     style="display:inline;fill:#ff0000" />
  <circle
     id="ch1_loop_thresh"
     cx="15.7"
     cy="73.011154"
     r="2.4000001"
     style="display:inline;fill:#ff0000" />
  <circle
     id="ch2_loop_thresh"
     cx="45.133335"
     cy="73.011154"
     r="2.4000001"
     style="display:inline;fill:#ff0000" />
  <circle
     id="ch3_loop_thresh"
     cx="74.566666"
     cy="73.011154"
     r="2.4000001"
     style="display:inline;fill:#ff0000" />
  <circle
     id="ch4_loop_thresh"
     cx="104"
     cy="73.011154"
     r="2.4000001"
     style="display:inline;fill:#ff0000" />
  <circle
     id="ch1_tilt"
     cx="15.7"
     cy="91.017494"
     r="2.5"
     style="display:inline;fill:#ff0000" />
  <circle
     id="ch2_tilt"
     cx="45.133331"
     cy="91.017494"
     r="2.5"
     style="display:inline;fill:#ff0000" />
  <circle
     id="ch3_tilt"
     cx="74.566666"
     cy="91.017494"
     r="2.5"
     style="display:inline;fill:#ff0000" />
  <circle
     id="ch4_tilt"
     cx="104"
     cy="91.017494"
     r="2.5"
     style="display:inline;fill:#ff0000" />
  <circle
     id="ch1_loop_arm"
     cx="31.002731"
     cy="54.304813"
     r="1.8"
     style="display:inline;fill:#ffaa00" />
  <circle
     id="ch2_loop_arm"
     cx="59.849998"
     cy="55.004814"
     r="1.8"
     style="display:inline;fill:#ffaa00" />
  <circle
     id="ch3_loop_arm"
     cx="89.48333"
     cy="55.004814"
     r="1.8"
     style="display:inline;fill:#ffaa00" />
  <circle
     id="ch4_loop_arm"
     cx="118.71667"
     cy="55.408581"
     r="1.8"
     style="display:inline;fill:#ffaa00" />
  <circle
     id="ch1_bus"
     cx="30.416666"
     cy="36.898476"
     r="2"
     style="display:inline;fill:#ffaa00" />
  <circle
     id="ch2_bus"
     cx="59.849998"
     cy="36.898476"
     r="2"
     style="display:inline;fill:#ffaa00" />
  <circle
     id="ch3_bus"
     cx="89.283333"
     cy="36.898476"
     r="2"
     style="display:inline;fill:#ffaa00" />
  <circle
     id="ch4_bus"
     cx="118.71667"
     cy="36.898476"
     r="2"
     style="display:inline;fill:#ffaa00" />
  <circle
     id="ch1_in_l"
     cx="8.9661732"
     cy="114.4"
     r="2.2"
     style="display:inline;fill:#00ff00" />
  <circle
     id="ch1_in_r"
     cx="23.544235"
     cy="114.4"
     r="2.2"
     style="display:inline;fill:#00ff00" />
  <circle
     id="ch2_in_l"
     cx="38.122299"
     cy="114.4"
     r="2.2"
     style="display:inline;fill:#00ff00" />
  <circle
     id="ch2_in_r"
     cx="52.700359"
     cy="114.4"
     r="2.2"
     style="display:inline;fill:#00ff00" />
  <circle
     id="ch3_in_l"
     cx="67.278427"
     cy="114.4"
     r="2.2"
     style="display:inline;fill:#00ff00" />
  <circle
     id="ch3_in_r"
     cx="81.856483"
     cy="114.4"
     r="2.2"
     style="display:inline;fill:#00ff00" />
  <circle
     id="ch4_in_l"
     cx="96.434547"
     cy="114.4"
     r="2.2"
     style="display:inline;fill:#00ff00" />
  <circle
     id="ch4_in_r"
     cx="111.01261"
     cy="114.4"
     r="2.2"
     style="display:inline;fill:#00ff00" />
  <circle
     id="slot_a_rate"
     cx="127.79068"
     cy="17.992138"
     r="2.8"
     style="display:inline;fill:#ff0000" />
  <circle
     id="slot_a_depth"
     cx="127.79068"
     cy="38.100361"
     r="2.8"
     style="display:inline;fill:#ff0000" />
  <circle
     id="slot_a_texture"
     cx="127.79068"
     cy="58.20858"
     r="2.8"
     style="display:inline;fill:#ff0000" />
  <circle
     id="slot_b_rate"
     cx="149.64796"
     cy="17.992138"
     r="2.8"
     style="display:inline;fill:#ff0000" />
  <circle
     id="slot_b_depth"
     cx="149.64796"
     cy="38.325363"
     r="2.8"
     style="display:inline;fill:#ff0000" />
  <circle
     id="slot_b_texture"
     cx="149.64796"
     cy="58.20858"
     r="2.8"
     style="display:inline;fill:#ff0000" />
  <circle
     id="morph_master_knob"
     cx="127.58749"
     cy="91.017494"
     r="2.8"
     style="display:inline;fill:#ff0000" />
  <circle
     id="glue_threshold_knob"
     cx="171.20525"
     cy="97.463722"
     r="2.8"
     style="display:inline;fill:#ff0000" />
  <circle
     id="glue_attack_knob"
     cx="171.20525"
     cy="17.992138"
     r="2.5"
     style="display:inline;fill:#ff0000" />
  <circle
     id="glue_release_knob"
     cx="171.20525"
     cy="37.785034"
     r="2.5"
     style="display:inline;fill:#ff0000" />
  <circle
     id="glue_mix_knob"
     cx="171.20525"
     cy="77.370827"
     style="display:inline;fill:#ff0000"
     r="2.5" />
  <circle
     id="glue_makeup_knob"
     cx="171.20525"
     cy="57.57793"
     r="2.5"
     style="display:inline;fill:#ff0000" />
  <circle
     id="slot_a_mode_switch"
     cx="127.53749"
     cy="75.411156"
     r="1.8"
     style="display:inline;fill:#ffaa00" />
  <circle
     id="slot_b_mode_switch"
     cx="150.47498"
     cy="74.870827"
     r="1.8"
     style="display:inline;fill:#ffaa00" />
  <circle
     id="glue_ratio_switch"
     cx="150.85091"
     cy="103.42503"
     r="1.8"
     style="display:inline;fill:#ffaa00" />
  <circle
     id="glue_hpf_switch"
     cx="150.47498"
     cy="90.533073"
     r="1.8"
     style="display:inline;fill:#ffaa00" />
  <circle
     id="glue_sidechain_switch"
     cx="192.76251"
     cy="74.496552"
     r="1.8"
     style="display:inline;fill:#ffaa00" />
  <circle
     id="clock_bpm_knob"
     cx="192.76251"
     cy="17.992138"
     r="2.8"
     style="display:inline;fill:#ff0000" />
  <circle
     id="clock_run_switch"
     cx="192.76251"
     cy="94.235435"
     r="1.8"
     style="display:inline;fill:#ffaa00" />
  <circle
     id="clock_mode_switch"
     cx="192.76251"
     cy="41.648682"
     r="1.8"
     style="display:inline;fill:#ffaa00" />
  <circle
     id="clock_click_switch"
     cx="192.76251"
     cy="52.597973"
     r="1.8"
     style="display:inline;fill:#ffaa00" />
  <circle
     id="clock_mix_switch"
     cx="192.76251"
     cy="63.54726"
     r="1.8"
     style="display:inline;fill:#ffaa00" />
  <circle
     id="loop_bar_switch"
     cx="192.76251"
     cy="85.445839"
     r="1.8"
     style="display:inline;fill:#ffaa00" />
  <circle
     id="clock_click_level_knob"
     cx="192.76251"
     cy="29.99939"
     r="2.5"
     style="display:inline;fill:#ff0000" />
  <circle
     id="slot_a_rate_cv"
     cx="8.9661732"
     cy="103.42503"
     r="2.2"
     style="display:inline;fill:#00ff00" />
  <circle
     id="slot_a_depth_cv"
     cx="23.544235"
     cy="103.42503"
     r="2.2"
     style="display:inline;fill:#00ff00" />
  <circle
     id="slot_a_texture_cv"
     cx="38.122299"
     cy="103.42503"
     r="2.2"
     style="display:inline;fill:#00ff00" />
  <circle
     id="slot_b_rate_cv"
     cx="67.278427"
     cy="103.42503"
     r="2.2"
     style="display:inline;fill:#00ff00" />
  <circle
     id="slot_b_depth_cv"
     cx="81.856483"
     cy="103.42503"
     r="2.2"
     style="display:inline;fill:#00ff00" />
  <circle
     id="slot_b_texture_cv"
     cx="96.434547"
     cy="103.42503"
     r="2.2"
     style="display:inline;fill:#00ff00" />
  <circle
     id="gesture_input"
     cx="140.60226"
     cy="114.4"
     r="2.2"
     style="display:inline;fill:#00ff00" />
  <circle
     id="glue_sc_input"
     cx="52.700359"
     cy="103.42503"
     r="2.2"
     style="display:inline;fill:#00ff00" />
  <circle
     id="ext_clock_input"
     cx="125.59068"
     cy="114.4"
     r="2.2"
     style="display:inline;fill:#00ff00" />
  <circle
     id="morph_a_out"
     cx="153.0509"
     cy="114.4"
     r="2.2"
     style="display:inline;fill:#0000ff" />
  <circle
     id="morph_b_out"
     cx="166.2881"
     cy="114.4"
     r="2.2"
     style="display:inline;fill:#0000ff" />
  <circle
     id="main_out_l"
     cx="179.52531"
     cy="114.4"
     r="2.2"
     style="display:inline;fill:#0000ff" />
  <circle
     id="main_out_r"
     cx="192.76251"
     cy="114.4"
     r="2.2"
     style="display:inline;fill:#0000ff" />
  <circle
     id="click_output"
     cx="192.76251"
     cy="103.42503"
     r="2.2"
     style="display:inline;fill:#0000ff" />
  <path
     style="font-weight:600;font-size:2.82222px;line-height:0;font-family:Neokurat;-inkscape-font-specification:'Neokurat, Semi-Bold';text-align:center;letter-spacing:0.529167px;word-spacing:0.79375px;text-anchor:middle;opacity:0.948225;fill:#eedcbb;fill-opacity:0.890196;fill-rule:evenodd;stroke-width:0.04;stroke-linecap:round;stroke-linejoin:round;stroke-opacity:0.898039;paint-order:fill markers stroke"
     d="m 91.918746,125.45214 c -0.163689,-0.0705 -0.285044,-0.10724 -0.434622,-0.14111 -0.206022,-0.048 -0.400755,-0.127 -0.400755,-0.29351 0,-0.0169 0.0028,-0.0339 0.0056,-0.0508 0.03104,-0.15804 0.220134,-0.26811 0.437445,-0.27093 0.0028,0 0.0028,0 0.0056,0 0.180622,0 0.372533,0.0621 0.510822,0.2032 l 0.174977,-0.16369 c -0.121355,-0.13547 -0.386644,-0.27375 -0.680155,-0.27375 -0.0056,0 -0.01129,0.003 -0.01693,0.003 -0.454377,0.006 -0.660399,0.30197 -0.680155,0.48823 -0.0028,0.0169 -0.0056,0.0367 -0.0056,0.0536 0,0.2286 0.180622,0.42898 0.462844,0.50518 0.183444,0.0508 0.333022,0.079 0.530577,0.16087 0.09596,0.0423 0.194733,0.11571 0.194733,0.24553 0,0.0254 -0.0028,0.0536 -0.01129,0.0819 -0.05644,0.1778 -0.253999,0.254 -0.437444,0.26246 -0.01129,0.003 -0.0254,0.003 -0.03669,0.003 -0.259644,0 -0.533399,-0.11571 -0.62371,-0.22577 l -0.191911,0.15522 c 0.149577,0.19473 0.536222,0.30762 0.82691,0.30762 0.285045,0 0.612422,-0.13547 0.697089,-0.43744 0.01693,-0.0508 0.02258,-0.1016 0.02258,-0.14676 0,-0.2032 -0.124177,-0.37253 -0.349955,-0.46567 z m 2.473677,-0.94826 v 0.76764 h -1.114777 v -0.76764 h -0.239888 v 1.9558 h 0.239888 v -0.94827 h 1.114777 v 0.94827 h 0.239889 v -1.9558 z m 1.948742,-0.0395 -1.018822,1.9953 h 0.268111 l 0.333022,-0.65194 h 0.832555 l 0.333022,0.65194 h 0.270933 z m -0.299156,1.11476 0.299156,-0.58701 0.299155,0.58701 z m 3.385253,-0.9285 c -0.112888,-0.0903 -0.259644,-0.14675 -0.417688,-0.14675 h -0.959555 v 1.9558 h 0.239889 v -0.61807 h 0.719666 c 0.369711,0 0.668866,-0.29915 0.668866,-0.66886 0,-0.21167 -0.09878,-0.39794 -0.251178,-0.52212 z m 0.01129,0.52212 c 0,0.23706 -0.191911,0.42897 -0.428977,0.42897 h -0.719666 v -0.85514 h 0.719666 c 0.237066,0 0.428977,0.19192 0.428977,0.42617 z m 1.231898,1.04704 v -0.6604 h 1.03011 v -0.23989 h -1.03011 v -0.57292 h 1.2192 v -0.2427 h -1.45909 v 1.9558 h 1.4986 v -0.23989 z m 1.84997,-1.71591 v 0.2427 h 0.69427 v 1.71309 h 0.23988 v -1.71309 h 0.69427 v -0.2427 z m 2.86596,-0.0395 -1.01882,1.9953 h 0.26811 l 0.33302,-0.65193 h 0.83255 l 0.33303,0.65193 h 0.27093 z m -0.29916,1.11477 0.29916,-0.58702 0.29915,0.58702 z m 2.72768,-0.0931 0.97931,-0.98214 h -0.34149 l -0.80998,0.80998 -0.30762,-0.30762 v -0.50236 h -0.24271 v 1.95581 h 0.24271 v -1.11478 l 1.11478,1.11478 h 0.34149 z m 1.92052,0.73378 v -0.66041 h 1.03011 v -0.23989 h -1.03011 v -0.57291 h 1.2192 v -0.24276 h -1.45909 v 1.9558 h 1.4986 v -0.23989 z m 3.70699,0.23989 -0.45156,-0.44874 c 0.23143,-0.14393 0.38383,-0.39793 0.38383,-0.69144 0,-0.44873 -0.36407,-0.81562 -0.81563,-0.81562 h -0.81279 v 1.95862 h 0.23988 v -1.13453 l 1.13171,1.13453 z m -0.30762,-1.14018 c 0,0.20038 -0.11007,0.40922 -0.31891,0.51647 l -0.82974,-0.82974 v -0.25964 h 0.57291 c 0.31609,0 0.57574,0.25682 0.57574,0.57291 z"
     id="text6"
     aria-label="SHPETE" />
  <path
     d="m 88.147407,4.2942596 c -0.219206,0.1704941 -0.511482,0.2800975 -0.791579,0.2800975 -0.0061,0 -0.01218,0 -0.02435,-0.00609 -0.828119,-0.012181 -1.321334,-0.663712 -1.321334,-1.3274212 v -0.079158 c 0.03045,-0.5967293 0.505393,-1.1873696 1.229993,-1.2421712 0.03653,-0.00609 0.06698,-0.00609 0.103514,-0.00609 0.310543,0 0.602818,0.1278706 0.803758,0.2800974 l 0.371432,-0.365337 C 88.177853,1.5359089 87.751617,1.3958602 87.331472,1.3958602 c -0.249653,0 -0.499306,0.054802 -0.73069,0.1522268 -0.548016,0.237474 -0.955984,0.7428672 -1.077766,1.3213293 -0.02435,0.1217814 -0.03653,0.249652 -0.03653,0.3714334 0,0.5480168 0.243563,1.0777663 0.675887,1.4309326 0.3349,0.2740084 0.755046,0.4201461 1.175192,0.4201461 0.26183,0 0.517571,-0.054802 0.755045,-0.164405 0.152227,-0.06698 0.292276,-0.1583159 0.426235,-0.2679192 -0.0061,0 -0.371433,-0.3653446 -0.371433,-0.3653446 z m 3.14805,-2.8862212 c -0.340987,0 -0.657619,0.1217815 -0.907272,0.3227209 V 0.79304184 H 89.852348 V 5.0127704 h 0.535838 V 2.8450599 c 0,-0.4993041 0.407967,-0.9072721 0.907272,-0.9072721 0.499304,0 0.907272,0.407968 0.907272,0.9072721 v 2.1677105 h 0.535839 V 2.8450599 c 0,-0.7915797 -0.645442,-1.4370215 -1.443112,-1.4370215 z m 3.233296,-0.93771752 c -0.20094,0 -0.359255,0.16440499 -0.359255,0.36534447 0,0.20093945 0.158315,0.35925535 0.359255,0.35925535 0.200939,0 0.359255,-0.164405 0.359255,-0.35925535 0,-0.20093948 -0.158316,-0.36534447 -0.359255,-0.36534447 z m 0.249652,4.54244952 v -3.519485 h -0.505393 v 3.519485 z m 3.269834,-3.6108211 c -1.022964,0 -1.844989,0.822025 -1.844989,1.8449896 0,1.0168754 0.822025,1.8449895 1.844989,1.8449895 0.846382,0 1.327419,-0.5601948 1.327419,-0.5601948 V 5.0066814 H 99.89323 V 3.2469389 c 0,-1.0168755 -0.828114,-1.8449896 -1.844991,-1.8449896 z m 1.339597,1.8449896 c 0,0.736778 -0.602818,1.3395963 -1.339597,1.3395963 -0.742867,0 -1.345684,-0.6028183 -1.345684,-1.3395963 0,-0.7428671 0.602817,-1.3456855 1.345684,-1.3456855 0.7246,0 1.339597,0.5967293 1.339597,1.3456855 z m 5.955124,-1.5953375 c -0.20703,-0.1522269 -0.46278,-0.243563 -0.73679,-0.243563 -0.27401,0 -0.52975,0.091336 -0.73677,0.243563 -0.0974,0.073069 -0.18268,0.1583158 -0.25574,0.2557411 -0.0731,-0.097425 -0.16441,-0.1826723 -0.26183,-0.2557411 -0.20703,-0.1522269 -0.45669,-0.243563 -0.73679,-0.243563 -0.27401,0 -0.52974,0.091336 -0.73677,0.243563 -0.31054,0.2252957 -0.51757,0.5906402 -0.51757,1.0107863 v 2.3503827 h 0.53584 v -2.374739 c 0.0122,-0.3897008 0.32881,-0.7002436 0.7185,-0.7002436 0.40188,0 0.73069,0.32881 0.73069,0.7245999 v 2.3503827 h 0.52976 V 2.6441205 c 0.0122,-0.3897008 0.34099,-0.7063327 0.73068,-0.7063327 0.39579,0 0.7246,0.322721 0.7246,0.7185108 v 2.3564718 h 0.52975 V 2.6562986 c 0,-0.407968 -0.20702,-0.7794015 -0.51756,-1.0046972 z m 5.59585,1.5953375 c 0,-1.0168755 -0.82811,-1.8449896 -1.84499,-1.8449896 -1.02297,0 -1.84499,0.8281141 -1.84499,1.8449896 0,1.0229645 0.82202,1.8449895 1.84499,1.8449895 0.45059,0 0.85856,-0.1583159 1.18128,-0.4262352 l -0.37143,-0.3714336 c -0.2253,0.1765833 -0.5054,0.2800975 -0.80985,0.2800975 -0.67589,0 -1.23608,-0.5114822 -1.31524,-1.1630133 h 3.15414 c 0,-0.054802 0.006,-0.1096033 0.006,-0.1644049 z m -3.1237,-0.3592554 c 0.15832,-0.5541058 0.6698,-0.9681629 1.27871,-0.9681629 0.60282,0 1.12039,0.4140571 1.27262,0.9681629 z m 5.64456,-1.3943981 c -0.6637,0 -1.19346,0.5358386 -1.19346,1.1995476 v 2.3199374 h 0.51758 V 2.692833 c 0,-0.3775226 0.30445,-0.6819763 0.67588,-0.6819763 h 0.56021 V 1.4932854 Z m 3.37335,-0.091336 c -1.02297,0 -1.84499,0.822025 -1.84499,1.8449896 0,1.0168754 0.82202,1.8449895 1.84499,1.8449895 0.84638,0 1.32742,-0.5601948 1.32742,-0.5601948 v 0.4749478 h 0.51757 V 3.2469389 c 0,-1.0168755 -0.82811,-1.8449896 -1.84499,-1.8449895 z m 1.33959,1.8449896 c 0,0.736778 -0.60281,1.3395963 -1.33959,1.3395963 -0.74287,0 -1.34569,-0.6028183 -1.34569,-1.3395963 0,-0.7428671 0.60282,-1.3456855 1.34569,-1.3456855 0.7246,0 1.33959,0.5967293 1.33959,1.3456855 z"
     id="text8"
     style="font-weight:600;font-size:7.05556px;line-height:0;font-family:Neokurat;-inkscape-font-specification:'Neokurat, Semi-Bold';text-align:center;letter-spacing:1.05833px;word-spacing:0.132292px;text-anchor:middle;opacity:0.900489;fill:#eedcbb;fill-opacity:0.890196;fill-rule:evenodd;stroke-width:0.0863018;stroke-linecap:round;stroke-linejoin:round;stroke-opacity:0.631373;paint-order:fill markers stroke"
     aria-label="chiamera" />
</svg>
