<?xml version="1.0" encoding="UTF-8" standalone="no"?>
<svg
   width="172.72mm"
   height="128.5mm"
   viewBox="0 0 172.72 128.5"
   version="1.1"
   id="chimera-panel"
   xmlns="http://www.w3.org/2000/svg"
   xmlns:svg="http://www.w3.org/2000/svg">
  <defs>
    <linearGradient id="panelGradient" x1="0" y1="0" x2="0" y2="1">
      <stop offset="0%" stop-color="#2f2f36" />
      <stop offset="50%" stop-color="#313338" />
      <stop offset="100%" stop-color="#27272d" />
    </linearGradient>
    <linearGradient id="accentGradient" x1="0" y1="0" x2="1" y2="0">
      <stop offset="0%" stop-color="#43c0c9" stop-opacity="0.35" />
      <stop offset="50%" stop-color="#8e5bea" stop-opacity="0.25" />
      <stop offset="100%" stop-color="#f2c75c" stop-opacity="0.35" />
    </linearGradient>
  </defs>
  <rect
     x="0"
     y="0"
     width="172.72"
     height="128.5"
     fill="url(#panelGradient)" />
  <rect
     x="4.5"
     y="10"
     width="163.72"
     height="108.5"
     rx="6"
     fill="none"
     stroke="url(#accentGradient)"
     stroke-width="0.9" />
  <text
     x="7"
     y="9"
     font-family="Montserrat"
     font-weight="600"
     font-size="6"
     letter-spacing="0.8"
     fill="#e6e1d5">SHAPETAKER</text>
  <text
     x="7"
     y="17"
     font-family="Crimson Text"
     font-size="7"
     letter-spacing="0.6"
     fill="#d7c4ff">Chimera</text>
  <g
     id="chimera_guides"
     style="display:none">
    <!-- Channel controls -->
    <!-- Repeated for 4 channels (x positions 18,41,64,87) -->
    <!-- Level knobs -->
    <circle id="ch1_level" cx="20" cy="20" r="3" style="fill:#ff0000" />
    <circle id="ch2_level" cx="48" cy="20" r="3" style="fill:#ff0000" />
    <circle id="ch3_level" cx="76" cy="20" r="3" style="fill:#ff0000" />
    <circle id="ch4_level" cx="104" cy="20" r="3" style="fill:#ff0000" />
    <!-- Pan knobs -->
    <circle id="ch1_pan" cx="20" cy="44" r="2.5" style="fill:#ff0000" />
    <circle id="ch2_pan" cx="48" cy="44" r="2.5" style="fill:#ff0000" />
    <circle id="ch3_pan" cx="76" cy="44" r="2.5" style="fill:#ff0000" />
    <circle id="ch4_pan" cx="104" cy="44" r="2.5" style="fill:#ff0000" />
    <!-- Morph knobs -->
    <circle id="ch1_morph" cx="20" cy="68" r="2.5" style="fill:#ff0000" />
    <circle id="ch2_morph" cx="48" cy="68" r="2.5" style="fill:#ff0000" />
    <circle id="ch3_morph" cx="76" cy="68" r="2.5" style="fill:#ff0000" />
    <circle id="ch4_morph" cx="104" cy="68" r="2.5" style="fill:#ff0000" />
    <!-- Loop threshold knobs -->
    <circle id="ch1_loop_thresh" cx="20" cy="80" r="2.4" style="fill:#ff0000" />
    <circle id="ch2_loop_thresh" cx="48" cy="80" r="2.4" style="fill:#ff0000" />
    <circle id="ch3_loop_thresh" cx="76" cy="80" r="2.4" style="fill:#ff0000" />
    <circle id="ch4_loop_thresh" cx="104" cy="80" r="2.4" style="fill:#ff0000" />
    <!-- Tilt knobs -->
    <circle id="ch1_tilt" cx="20" cy="92" r="2.5" style="fill:#ff0000" />
    <circle id="ch2_tilt" cx="48" cy="92" r="2.5" style="fill:#ff0000" />
    <circle id="ch3_tilt" cx="76" cy="92" r="2.5" style="fill:#ff0000" />
    <circle id="ch4_tilt" cx="104" cy="92" r="2.5" style="fill:#ff0000" />
    <!-- Loop arm switches -->
    <circle id="ch1_loop_arm" cx="20" cy="102" r="1.8" style="fill:#ffaa00" />
    <circle id="ch2_loop_arm" cx="48" cy="102" r="1.8" style="fill:#ffaa00" />
    <circle id="ch3_loop_arm" cx="76" cy="102" r="1.8" style="fill:#ffaa00" />
    <circle id="ch4_loop_arm" cx="104" cy="102" r="1.8" style="fill:#ffaa00" />
    <!-- Bus switches -->
    <circle id="ch1_bus" cx="20" cy="116" r="2" style="fill:#ffaa00" />
    <circle id="ch2_bus" cx="48" cy="116" r="2" style="fill:#ffaa00" />
    <circle id="ch3_bus" cx="76" cy="116" r="2" style="fill:#ffaa00" />
    <circle id="ch4_bus" cx="104" cy="116" r="2" style="fill:#ffaa00" />
    <!-- Channel inputs -->
    <circle id="ch1_in_l" cx="14" cy="110" r="2.2" style="fill:#00ff00" />
    <circle id="ch1_in_r" cx="26" cy="110" r="2.2" style="fill:#00ff00" />
    <circle id="ch2_in_l" cx="42" cy="110" r="2.2" style="fill:#00ff00" />
    <circle id="ch2_in_r" cx="54" cy="110" r="2.2" style="fill:#00ff00" />
    <circle id="ch3_in_l" cx="70" cy="110" r="2.2" style="fill:#00ff00" />
    <circle id="ch3_in_r" cx="82" cy="110" r="2.2" style="fill:#00ff00" />
    <circle id="ch4_in_l" cx="98" cy="110" r="2.2" style="fill:#00ff00" />
    <circle id="ch4_in_r" cx="110" cy="110" r="2.2" style="fill:#00ff00" />

    <!-- Slot knobs -->
    <circle id="slot_a_rate" cx="118" cy="22" r="2.8" style="fill:#ff0000" />
    <circle id="slot_a_depth" cx="118" cy="44" r="2.8" style="fill:#ff0000" />
    <circle id="slot_a_texture" cx="118" cy="66" r="2.8" style="fill:#ff0000" />
    <circle id="slot_b_rate" cx="132" cy="22" r="2.8" style="fill:#ff0000" />
    <circle id="slot_b_depth" cx="132" cy="44" r="2.8" style="fill:#ff0000" />
    <circle id="slot_b_texture" cx="132" cy="66" r="2.8" style="fill:#ff0000" />

    <!-- Morph & glue knobs -->
    <circle id="morph_master_knob" cx="144" cy="90" r="2.8" style="fill:#ff0000" />
    <circle id="glue_threshold_knob" cx="156" cy="90" r="2.8" style="fill:#ff0000" />
    <circle id="glue_attack_knob" cx="144" cy="110" r="2.5" style="fill:#ff0000" />
    <circle id="glue_release_knob" cx="156" cy="110" r="2.5" style="fill:#ff0000" />
    <circle id="glue_mix_knob" cx="144" cy="126" r="2.5" style="fill:#ff0000" />
    <circle id="glue_makeup_knob" cx="156" cy="126" r="2.5" style="fill:#ff0000" />

    <!-- Switches -->
    <circle id="slot_a_mode_switch" cx="118" cy="32" r="1.8" style="fill:#ffaa00" />
    <circle id="slot_b_mode_switch" cx="132" cy="32" r="1.8" style="fill:#ffaa00" />
    <circle id="glue_ratio_switch" cx="144" cy="54" r="1.8" style="fill:#ffaa00" />
    <circle id="glue_hpf_switch" cx="156" cy="54" r="1.8" style="fill:#ffaa00" />
    <circle id="glue_sidechain_switch" cx="150" cy="78" r="1.8" style="fill:#ffaa00" />

    <!-- Clock / looper controls -->
    <circle id="clock_bpm_knob" cx="168" cy="24" r="2.8" style="fill:#ff0000" />
    <circle id="clock_run_switch" cx="168" cy="38" r="1.8" style="fill:#ffaa00" />
    <circle id="clock_mode_switch" cx="168" cy="48" r="1.8" style="fill:#ffaa00" />
    <circle id="clock_click_switch" cx="168" cy="58" r="1.8" style="fill:#ffaa00" />
    <circle id="clock_mix_switch" cx="168" cy="68" r="1.8" style="fill:#ffaa00" />
    <circle id="loop_bar_switch" cx="168" cy="80" r="1.8" style="fill:#ffaa00" />

    <!-- Slot CV inputs -->
    <circle id="slot_a_rate_cv" cx="118" cy="94" r="2.2" style="fill:#00ff00" />
    <circle id="slot_a_depth_cv" cx="130" cy="94" r="2.2" style="fill:#00ff00" />
    <circle id="slot_a_texture_cv" cx="142" cy="94" r="2.2" style="fill:#00ff00" />
    <circle id="slot_b_rate_cv" cx="118" cy="106" r="2.2" style="fill:#00ff00" />
    <circle id="slot_b_depth_cv" cx="130" cy="106" r="2.2" style="fill:#00ff00" />
    <circle id="slot_b_texture_cv" cx="142" cy="106" r="2.2" style="fill:#00ff00" />

    <!-- Utility inputs -->
    <circle id="gesture_input" cx="168" cy="106" r="2.2" style="fill:#00ff00" />
    <circle id="glue_sc_input" cx="168" cy="118" r="2.2" style="fill:#00ff00" />
    <circle id="ext_clock_input" cx="168" cy="98" r="2.2" style="fill:#00ff00" />

    <!-- Outputs -->
    <circle id="morph_a_out" cx="118" cy="120" r="2.2" style="fill:#0000ff" />
    <circle id="morph_b_out" cx="130" cy="120" r="2.2" style="fill:#0000ff" />
    <circle id="main_out_l" cx="142" cy="120" r="2.2" style="fill:#0000ff" />
    <circle id="main_out_r" cx="154" cy="120" r="2.2" style="fill:#0000ff" />
    <circle id="click_output" cx="168" cy="116" r="2.2" style="fill:#0000ff" />
  </g>
</svg>
