<?xml version="1.0" encoding="UTF-8" standalone="no"?>
<svg
   width="81.279999mm"
   height="128.5mm"
   viewBox="0 0 81.279996 128.5"
   version="1.1"
   id="svg28"
   xml:space="preserve"
   sodipodi:docname="Clairaudient.svg"
   inkscape:version="1.4.2 (ebf0e940, 2025-05-08)"
   xmlns:inkscape="http://www.inkscape.org/namespaces/inkscape"
   xmlns:sodipodi="http://sodipodi.sourceforge.net/DTD/sodipodi-0.dtd"
   xmlns="http://www.w3.org/2000/svg"
   xmlns:svg="http://www.w3.org/2000/svg"><sodipodi:namedview
     id="namedview1"
     pagecolor="#505050"
     bordercolor="#eeeeee"
     borderopacity="1"
     inkscape:showpageshadow="0"
     inkscape:pageopacity="0"
     inkscape:pagecheckerboard="0"
     inkscape:deskcolor="#505050"
     inkscape:document-units="mm"
     inkscape:zoom="2.3711314"
     inkscape:cx="164.68931"
     inkscape:cy="431.22873"
     inkscape:window-width="1800"
     inkscape:window-height="1097"
     inkscape:window-x="0"
     inkscape:window-y="44"
     inkscape:window-maximized="1"
     inkscape:current-layer="svg28"
     showguides="true" /><defs
     id="defs28"><symbol
       id="large-knob"
       inkscape:label="Large Knob (20mm)"><title
         id="title2">Large Knob</title><desc
         id="desc2">Large knob for main parameters - 20mm diameter (9mm radius)</desc><circle
         cx="0"
         cy="0"
         r="9"
         fill="none"
         stroke="#ff0000"
         stroke-width="0.4"
         stroke-dasharray="1, 1"
         opacity="0.8"
         id="circle2" /><text
         x="0"
         y="12"
         text-anchor="middle"
         font-size="2px"
         fill="#ff0000"
         id="text2-0">Large Knob</text><text
         x="0"
         y="14"
         text-anchor="middle"
         font-size="1.5px"
         fill="#666666"
         id="text3">20mm ⌀</text></symbol><symbol
       id="medium-knob"
       inkscape:label="Medium Knob (15mm)"><title
         id="title3">Medium Knob</title><desc
         id="desc3">Medium knob for secondary parameters - 15mm diameter (7.5mm radius)</desc><circle
         cx="0"
         cy="0"
         r="7.5"
         fill="none"
         stroke="#0066ff"
         stroke-width="0.3"
         stroke-dasharray="0.8, 0.8"
         opacity="0.8"
         id="circle3" /><text
         x="0"
         y="10.5"
         text-anchor="middle"
         font-size="1.8px"
         fill="#0066ff"
         id="text4">Med Knob</text><text
         x="0"
         y="12.5"
         text-anchor="middle"
         font-size="1.3px"
         fill="#666666"
         id="text5-6">15mm ⌀</text></symbol><symbol
       id="small-knob"
       inkscape:label="Small Knob (12mm)"><title
         id="title5">Small Knob</title><desc
         id="desc5">Small knob for fine adjustments - 12mm diameter (6mm radius)</desc><circle
         cx="0"
         cy="0"
         r="6"
         fill="none"
         stroke="#9900cc"
         stroke-width="0.3"
         stroke-dasharray="0.6, 0.6"
         opacity="0.8"
         id="circle5" /><text
         x="0"
         y="9"
         text-anchor="middle"
         font-size="1.6px"
         fill="#9900cc"
         id="text6-4">Small</text><text
         x="0"
         y="11"
         text-anchor="middle"
         font-size="1.2px"
         fill="#666666"
         id="text7-7">12mm ⌀</text></symbol><symbol
       id="audio-jack"
       inkscape:label="Audio Jack (6.35mm)"><title
         id="title7">Audio Jack</title><desc
         id="desc7">Standard 1/4&quot; audio jack - 6.35mm diameter (3mm radius)</desc><circle
         cx="0"
         cy="0"
         r="3"
         fill="none"
         stroke="#00aa00"
         stroke-width="0.3"
         opacity="0.8"
         id="circle7" /><circle
         cx="0"
         cy="0"
         r="1.5"
         fill="none"
         stroke="#00aa00"
         stroke-width="0.2"
         opacity="0.5"
         id="circle8" /><text
         x="0"
         y="6"
         text-anchor="middle"
         font-size="1.4px"
         fill="#00aa00"
         id="text8">Audio Jack</text><text
         x="0"
         y="8"
         text-anchor="middle"
         font-size="1.1px"
         fill="#666666"
         id="text9">6.35mm ⌀</text></symbol><symbol
       id="cv-jack"
       inkscape:label="CV Jack (6.35mm)"><title
         id="title9">CV Jack</title><desc
         id="desc9">CV input/output jack - 6.35mm diameter (3mm radius)</desc><circle
         cx="0"
         cy="0"
         r="3"
         fill="none"
         stroke="#aa8800"
         stroke-width="0.3"
         opacity="0.8"
         id="circle9" /><circle
         cx="0"
         cy="0"
         r="1.5"
         fill="none"
         stroke="#aa8800"
         stroke-width="0.2"
         opacity="0.5"
         id="circle10" /><text
         x="0"
         y="6"
         text-anchor="middle"
         font-size="1.4px"
         fill="#aa8800"
         id="text10-8">CV Jack</text><text
         x="0"
         y="8"
         text-anchor="middle"
         font-size="1.1px"
         fill="#666666"
         id="text11">6.35mm ⌀</text></symbol><symbol
       id="gate-jack"
       inkscape:label="Gate Jack (6.35mm)"><title
         id="title11">Gate Jack</title><desc
         id="desc11">Gate/trigger input jack - 6.35mm diameter (3mm radius)</desc><circle
         cx="0"
         cy="0"
         r="3"
         fill="none"
         stroke="#cc0066"
         stroke-width="0.3"
         opacity="0.8"
         id="circle11" /><rect
         x="-1.5"
         y="-1.5"
         width="3"
         height="3"
         fill="none"
         stroke="#cc0066"
         stroke-width="0.2"
         opacity="0.5"
         id="rect11" /><text
         x="0"
         y="6"
         text-anchor="middle"
         font-size="1.4px"
         fill="#cc0066"
         id="text12">Gate Jack</text><text
         x="0"
         y="8"
         text-anchor="middle"
         font-size="1.1px"
         fill="#666666"
         id="text13-4">6.35mm ⌀</text></symbol><symbol
       id="toggle-switch"
       inkscape:label="Toggle Switch"><title
         id="title13">Toggle Switch</title><desc
         id="desc13">Standard toggle switch</desc><rect
         x="-2"
         y="-4"
         width="4"
         height="8"
         fill="none"
         stroke="#666666"
         stroke-width="0.3"
         rx="1"
         ry="1"
         opacity="0.8"
         id="rect13" /><circle
         cx="0"
         cy="0"
         r="1.5"
         fill="none"
         stroke="#666666"
         stroke-width="0.3"
         id="circle13" /><text
         x="0"
         y="8"
         text-anchor="middle"
         font-size="1.4px"
         fill="#666666"
         id="text14-0">Toggle</text><text
         x="0"
         y="10"
         text-anchor="middle"
         font-size="1.1px"
         fill="#666666"
         id="text15-0">Switch</text></symbol><symbol
       id="momentary-button"
       inkscape:label="Momentary Button"><title
         id="title15">Momentary Button</title><desc
         id="desc15">Momentary push button</desc><circle
         cx="0"
         cy="0"
         r="4"
         fill="none"
         stroke="#ff6600"
         stroke-width="0.3"
         opacity="0.8"
         id="circle15" /><circle
         cx="0"
         cy="0"
         r="2.5"
         fill="none"
         stroke="#ff6600"
         stroke-width="0.2"
         opacity="0.6"
         id="circle16" /><text
         x="0"
         y="7"
         text-anchor="middle"
         font-size="1.4px"
         fill="#ff6600"
         id="text16-6">Button</text><text
         x="0"
         y="9"
         text-anchor="middle"
         font-size="1.1px"
         fill="#666666"
         id="text17-2">Momentary</text></symbol><symbol
       id="led-indicator"
       inkscape:label="LED Indicator"><title
         id="title17">LED Indicator</title><desc
         id="desc17">LED indicator light</desc><circle
         cx="0"
         cy="0"
         r="2.5"
         fill="none"
         stroke="#ff0000"
         stroke-width="0.3"
         opacity="0.8"
         id="circle17" /><circle
         cx="0"
         cy="0"
         r="1.5"
         fill="#ff0000"
         opacity="0.3"
         id="circle18" /><text
         x="0"
         y="6"
         text-anchor="middle"
         font-size="1.4px"
         fill="#ff0000"
         id="text18-4">LED</text><text
         x="0"
         y="8"
         text-anchor="middle"
         font-size="1.1px"
         fill="#666666"
         id="text19">5mm ⌀</text></symbol><symbol
       id="display-screen"
       inkscape:label="Display Screen"><title
         id="title19">Display Screen</title><desc
         id="desc19">LCD/OLED display or oscilloscope screen</desc><circle
         cx="0"
         cy="0"
         r="8"
         fill="none"
         stroke="#ff8800"
         stroke-width="0.4"
         stroke-dasharray="2, 1"
         opacity="0.8"
         id="circle19" /><rect
         x="-6"
         y="-4"
         width="12"
         height="8"
         fill="none"
         stroke="#ff8800"
         stroke-width="0.2"
         opacity="0.5"
         id="rect19" /><text
         x="0"
         y="12"
         text-anchor="middle"
         font-size="1.6px"
         fill="#ff8800"
         id="text20-74">Display</text><text
         x="0"
         y="14"
         text-anchor="middle"
         font-size="1.2px"
         fill="#666666"
         id="text21">16mm ⌀</text></symbol><symbol
       id="module-4hp"
       inkscape:label="4HP Module Outline"><title
         id="title21">4HP Module</title><desc
         id="desc21">4HP module outline (20.32mm wide)</desc><rect
         x="0"
         y="0"
         width="20.32"
         height="128.5"
         fill="none"
         stroke="#333333"
         stroke-width="0.2"
         id="rect21" /><text
         x="10.16"
         y="5"
         text-anchor="middle"
         font-size="2px"
         fill="#333333"
         id="text22">4HP</text></symbol><symbol
       id="module-8hp"
       inkscape:label="8HP Module Outline"><title
         id="title22">8HP Module</title><desc
         id="desc22">8HP module outline (40.64mm wide)</desc><rect
         x="0"
         y="0"
         width="40.639999"
         height="128.5"
         fill="none"
         stroke="#333333"
         stroke-width="0.2"
         id="rect22" /><text
         x="20.32"
         y="5"
         text-anchor="middle"
         font-size="2px"
         fill="#333333"
         id="text23">8HP</text></symbol><symbol
       id="module-14hp"
       inkscape:label="14HP Module Outline"><title
         id="title23">14HP Module</title><desc
         id="desc23">14HP module outline (71.12mm wide)</desc><rect
         x="0"
         y="0"
         width="71.120003"
         height="128.5"
         fill="none"
         stroke="#333333"
         stroke-width="0.2"
         id="rect23" /><text
         x="35.560001"
         y="5"
         text-anchor="middle"
         font-size="2px"
         fill="#333333"
         id="text24">14HP</text></symbol><marker
       id="Arrow2Sstart"
       inkscape:isstock="true"
       inkscape:stockid="Arrow2Sstart"
       orient="auto"
       refX="0"
       refY="0"
       style="overflow:visible"
       viewBox="0 0 3.279 2.409"
       markerWidth="3.279"
       markerHeight="2.409"
       preserveAspectRatio="xMidYMid"><path
         d="M 8.72,4.03 -2.21,0.02 8.72,-4 c -1.75,2.37 -1.74,5.62 0,8.03 z"
         id="Arrow2SstartPath"
         style="fill:#000000;fill-opacity:1;stroke:none"
         transform="matrix(0.3,0,0,0.3,-0.69,0)" /></marker><marker
       id="Arrow2Send"
       inkscape:isstock="true"
       inkscape:stockid="Arrow2Send"
       orient="auto"
       refX="0"
       refY="0"
       style="overflow:visible"
       viewBox="0 0 3.279 2.409"
       markerWidth="3.279"
       markerHeight="2.409"
       preserveAspectRatio="xMidYMid"><path
         d="M 8.72,4.03 -2.21,0.02 8.72,-4 c -1.75,2.37 -1.74,5.62 0,8.03 z"
         id="Arrow2SendPath"
         style="fill:#000000;fill-opacity:1;stroke:none"
         transform="matrix(-0.3,0,0,-0.3,0.69,0)" /></marker></defs><rect
     style="fill:#e0c8e8;fill-opacity:0.1707819;fill-rule:evenodd;stroke:#e8e0c8;stroke-width:0;stroke-linecap:round;stroke-miterlimit:4.3"
     id="rect7-9"
     width="41.716526"
     height="12.306173"
     x="17.528484"
     y="113.7077"
     ry="0.11694288" /><rect
     style="fill:#4cb490;fill-opacity:0.17;fill-rule:evenodd;stroke:#e8e0c8;stroke-width:0;stroke-linecap:round;stroke-miterlimit:4.3"
     id="rect7"
     width="41.716526"
     height="12.306194"
     x="17.528484"
     y="101.4015"
     ry="0.11694308" /><!-- Dark panel background --><rect
     style="display:inline;fill:#c8c8b6;fill-opacity:0;fill-rule:evenodd;stroke:#c8c8b6;stroke-width:0"
     id="rect1"
     width="81.279999"
     height="128.5"
     x="0"
     y="0"
     ry="0" /><circle
     style="display:none;fill:#00ff00;fill-opacity:1;fill-rule:evenodd;stroke:#2f2f2f;stroke-width:0.0835458"
     id="x_fade_cv"
     cx="40.639999"
     cy="90.126892"
     r="3" /><circle
     style="display:none;fill:#00ff00;fill-opacity:1;fill-rule:evenodd;stroke:#2f2f2f;stroke-width:0.0835458"
     id="shape_cv_v"
     cx="52.878323"
     cy="105.77721"
     inkscape:label="shape_cv_v"
     r="3" /><circle
     style="display:none;fill:#00ff00;fill-opacity:1;fill-rule:evenodd;stroke:#2f2f2f;stroke-width:0.0835458"
     id="fine_cv_v"
     cx="38.386749"
     cy="105.77721"
     inkscape:label="fine_cv_v"
     r="3" /><ellipse
     style="display:none;fill:#00ff00;fill-opacity:1;fill-rule:evenodd;stroke:#2f2f2f;stroke-width:0.087205"
     id="v_oct_v"
     cx="23.762346"
     cy="105.77721"
     inkscape:label="v_oct_v"
     rx="3.131"
     ry="3.1313975" /><circle
     style="display:none;fill:#00ff00;fill-opacity:1;fill-rule:evenodd;stroke:#2f2f2f;stroke-width:0.087205"
     id="v_out_z"
     cx="23.76195"
     cy="118.09399"
     inkscape:label="v_oct_z"
     r="3.1313975" /><circle
     style="display:none;fill:#00ff00;fill-opacity:1;fill-rule:evenodd;stroke:#2f2f2f;stroke-width:0.0835458"
     id="fine_cv_z"
     cx="38.386749"
     cy="118.09399"
     inkscape:label="fine_cv_z"
     r="3" /><circle
     style="display:none;fill:#00ff00;fill-opacity:1;fill-rule:evenodd;stroke:#2f2f2f;stroke-width:0.0835458"
     id="shape_cv_z"
     cx="52.878323"
     cy="118.09399"
     inkscape:label="shape_cv_z"
     r="3" /><circle
     style="display:none;fill:#0000ff;fill-opacity:1;fill-rule:evenodd;stroke:#2f2f2f;stroke-width:0.0835458"
     id="output_l"
     cx="67.369896"
     cy="105.77721"
     r="3" /><ellipse
     style="display:none;fill:#0000ff;fill-opacity:1;fill-rule:evenodd;stroke:#2f2f2f;stroke-width:0.265257"
     id="output_r"
     cx="67.369896"
     cy="117.72548"
     rx="3.042371"
     ry="3.0423715" /><!-- Header --><!-- Module name --><!-- Minimal section dividers --><line
     x1="7.3024712"
     y1="9.259861"
     x2="73.977524"
     y2="9.259861"
     stroke="#333333"
     stroke-width="0.343153"
     id="line1"
     style="display:inline;fill:#e8e0c8;fill-opacity:1;stroke:#e8e0c8;stroke-opacity:1" /><line
     x1="8.4023008"
     y1="98.752586"
     x2="73.621849"
     y2="98.752586"
     stroke="#333333"
     stroke-width="0.339388"
     id="line2"
     style="display:inline;fill:#e8e0c8;fill-opacity:1;stroke:#e8e0c8;stroke-opacity:1" /><!-- Section labels --><!-- Row 1: Frequency controls --><!-- Row 2: Fine tune and sync --><!-- Row 3: Fine tune attenuverters --><!-- Row 4: Shape controls --><!-- Row 5: Shape attenuverters --><!-- Row 6: Crossfade --><!-- Input labels --><!-- Output labels (stacked) --><!-- Decorative lines --><circle
     style="display:none;fill:#ff0000;fill-opacity:1;fill-rule:evenodd;stroke:#2f2f2f;stroke-width:0.232488"
     id="freq_v"
     cx="13.422475"
     cy="25.464647"
     inkscape:label="freq_v"
     r="7.8837562" /><circle
     style="display:none;fill:#ff0000;fill-opacity:1;fill-rule:evenodd;stroke:#2f2f2f;stroke-width:0.232487"
     id="freq_z"
     cx="68.319061"
     cy="25.695415"
     inkscape:label="freq_z"
     r="7.8837566" /><ellipse
     style="display:none;fill:#ff0000;fill-opacity:1;fill-rule:evenodd;stroke:#2f2f2f;stroke-width:0.192263"
     id="fine_v"
     cx="19.023623"
     cy="45.841431"
     inkscape:label="fine_v"
     rx="6.9038687"
     ry="6.9038682" /><circle
     style="display:none;fill:#ff0000;fill-opacity:1;fill-rule:evenodd;stroke:#2f2f2f;stroke-width:0.0775465"
     id="sh_knob_v"
     cx="13.422475"
     cy="79.825134"
     inkscape:label="sh_knob_v"
     r="6.9612269" /><circle
     style="display:none;fill:#ff0000;fill-opacity:1;fill-rule:evenodd;stroke:#2f2f2f;stroke-width:0.0775442"
     id="sh_knob_z"
     cx="68.319061"
     cy="79.825134"
     inkscape:label="sh_knob_z"
     r="6.9612279" /><circle
     style="display:none;fill:#ff0000;fill-opacity:1;fill-rule:evenodd;stroke:#2f2f2f;stroke-width:0.110454;stroke-dasharray:none"
     id="fine_atten_v"
     cx="12.023623"
     cy="61.744068"
     inkscape:label="fine_atten_v"
     r="3.9447732" /><circle
     style="display:none;fill:#ff0000;fill-opacity:1;fill-rule:evenodd;stroke:#2f2f2f;stroke-width:0.109865"
     id="fine_atten_z"
     cx="69.621849"
     cy="61.744068"
     inkscape:label="fine_atten_z"
     r="3.9450676" /><circle
     style="display:none;fill:#ff0000;fill-opacity:1;fill-rule:evenodd;stroke:#2f2f2f;stroke-width:0.109865"
     id="sh_cv_v"
     cx="22.421556"
     cy="93.003937"
     inkscape:label="sh_cv_v"
     r="3.9450676" /><path
     style="fill:#e8e0c8;fill-opacity:1;fill-rule:evenodd;stroke:#e8e0c8;stroke-width:0;stroke-linecap:round;stroke-linejoin:miter;stroke-miterlimit:4.3;stroke-dasharray:none;stroke-dashoffset:0;stroke-opacity:1"
     d="M 40.639999,87.126891 39.157158,75.860123 h 2.803298 z"
     id="path11" /><ellipse
     style="display:none;fill:#ff0000;fill-opacity:1;fill-rule:evenodd;stroke:#2f2f2f;stroke-width:0.109864"
     id="x_fade_atten"
     cx="40.639999"
     cy="75.910126"
     rx="3.9450676"
     ry="3.9450679" /><circle
     style="display:none;fill:#ff0000;fill-opacity:1;fill-rule:evenodd;stroke:#2f2f2f;stroke-width:0.109865"
     id="sh_cv_z"
     cx="58.858444"
     cy="93.003937"
     inkscape:label="sh_cv_z"
     r="3.9450676" /><ellipse
     style="display:none;fill:#ff0000;fill-opacity:1;fill-rule:evenodd;stroke:#2f2f2f;stroke-width:0.192133;stroke-dasharray:none;stroke-opacity:1"
     id="fine_z"
     cx="62.717918"
     cy="45.883205"
     inkscape:label="fine_z"
     rx="6.903934"
     ry="6.9039335" /><circle
     style="display:none;fill:#ff0000;fill-opacity:1;fill-rule:evenodd;stroke:#2f2f2f;stroke-width:0.0646798"
     id="x_fade_knob"
     cx="40.87077"
     cy="55.937233"
     r="6.96766" /><circle
     style="display:none;fill:#ff0000;fill-opacity:1;fill-rule:evenodd;stroke:#2f2f2f;stroke-width:0.0835458"
     id="sync_v"
     cx="26.023623"
     cy="66.637276"
     inkscape:label="sync_v"
     r="3" /><ellipse
     style="display:none;fill:#ffff00;fill-opacity:1;fill-rule:evenodd;stroke:#2f2f2f;stroke-width:0.166224"
     id="oscope_screen"
     cx="40.87077"
     cy="29.04454"
     rx="15.916887"
     ry="15.916888" /><circle
     style="display:none;fill:#ff0000;fill-opacity:1;fill-rule:evenodd;stroke:#2f2f2f;stroke-width:0.250637"
     id="sync_z"
     cx="55.676144"
     cy="66.637276"
     inkscape:label="sync_z"
     r="2.8746815" /><path
     d="M 13.763258,15.561939 H 13.081692 L 11.98526,12.450441 h 0.465666 l 0.973666,2.747431 0.973665,-2.747431 h 0.461433 z"
     id="text2-7"
     style="font-weight:600;font-size:4.23333px;line-height:0;font-family:'Liber Grotesque Family';-inkscape-font-specification:'Liber Grotesque Family, Semi-Bold';letter-spacing:0.0635px;word-spacing:0px;direction:rtl;fill:#e8e0c8;fill-rule:evenodd;stroke:#e8e0c8;stroke-width:0"
     aria-label="V" /><path
     d="m 67.226026,14.17764 v -0.376767 h 0.859366 l 0.605366,-0.965199 h -1.574799 v -0.385233 h 2.129365 l 0.0635,0.110067 -0.745066,1.240365 h 0.6096 v 0.376767 h -0.8255 l -0.618066,0.999066 h 1.553632 v 0.385233 h -2.129365 l -0.0635,-0.110067 0.778933,-1.274232 z"
     id="text2-7-6"
     style="font-weight:600;font-size:4.23333px;line-height:0;font-family:'Liber Grotesque Family';-inkscape-font-specification:'Liber Grotesque Family, Semi-Bold';letter-spacing:0.0635px;word-spacing:0px;direction:rtl;display:inline;fill:#e8e0c8;fill-rule:evenodd;stroke:#e8e0c8;stroke-width:0"
     aria-label="Z" /><path
     d="m 16.763727,4.9036542 q 0,0.47625 0.17145,0.88265 0.1778,0.4064 0.47625,0.70485 0.3048,0.29845 0.70485,0.4699 0.4064,0.17145 0.85725,0.17145 0.47625,0 0.8636,-0.17145 0.38735,-0.1778 0.7112,-0.47625 l 0.12065,0.12065 q -0.32385,0.32385 -0.762,0.51435 -0.4318,0.18415 -0.93345,0.18415 -0.508,0 -0.94615,-0.18415 -0.43815,-0.1905 -0.762,-0.51435 -0.32385,-0.32385 -0.508,-0.762 -0.18415,-0.43815 -0.18415,-0.9398 0,-0.4953 0.1778,-0.93345 0.18415,-0.43815 0.50165,-0.762 0.32385,-0.3302 0.762,-0.5207 0.4445,-0.1905 0.95885,-0.1905 0.51435,0 0.9398,0.1905 0.42545,0.18415 0.75565,0.508 l -0.12065,0.12065 q -0.3048,-0.3048 -0.7112,-0.47625 -0.4064,-0.17145 -0.8636,-0.17145 -0.4699,0 -0.8763,0.1778 -0.40005,0.17145 -0.6985,0.47625 -0.2921,0.29845 -0.46355,0.70485 -0.17145,0.4064 -0.17145,0.8763 z m 6.94002,2.33045 h -2.0955 v -4.66725 h 0.1905 v 4.4958 h 1.905 z m 4.387325,0 -0.45085,-1.1049 h -2.7559 l -0.45085,1.1049 h -0.1905 l 1.8796,-4.66725 h 0.2794 l 1.8796,4.66725 z m -1.8288,-4.55295 -1.3081,3.28295 h 2.6162 z m 2.622021,0.05715 v -0.17145 h 2.00025 v 0.17145 h -0.9017 v 4.32435 h 0.9017 v 0.17145 h -2.00025 v -0.17145 h 0.90805 v -4.32435 z m 3.25702,4.4958 h -0.1905 v -4.66725 h 1.905 q 0.3048,0 0.5715,0.1143 0.2667,0.1143 0.46355,0.3175 0.2032,0.19685 0.3175,0.46355 0.1143,0.2667 0.1143,0.5715 0,0.53975 -0.3048,0.90805 -0.3048,0.3683 -0.80645,0.51435 l 1.06045,1.778 h -0.20955 l -1.0414,-1.7399 h -1.8796 z m 1.7018,-1.905 q 0.28575,0 0.5207,-0.1016 0.2413,-0.1016 0.41275,-0.2794 0.17145,-0.1778 0.2667,-0.41275 0.09525,-0.23495 0.09525,-0.50165 0,-0.2667 -0.1016,-0.50165 -0.1016,-0.2413 -0.2794,-0.41275 -0.17145,-0.1778 -0.4064,-0.2794 -0.23495,-0.1016 -0.508,-0.1016 h -1.7018 v 2.5908 z m 6.057369,1.905 -0.45085,-1.1049 h -2.7559 l -0.45085,1.1049 h -0.1905 l 1.8796,-4.66725 h 0.2794 l 1.8796,4.66725 z m -1.8288,-4.55295 -1.3081,3.28295 h 2.6162 z m 2.780776,2.6543 q 0,0.37465 0.13335,0.6985 0.13335,0.32385 0.3683,0.56515 0.23495,0.2413 0.5588,0.381 0.3302,0.1397 0.71755,0.1397 0.38735,0 0.7112,-0.1397 0.3302,-0.1397 0.56515,-0.381 0.23495,-0.2413 0.3683,-0.56515 0.13335,-0.32385 0.13335,-0.6985 v -2.7686 h 0.1905 v 2.7686 q 0,0.4064 -0.14605,0.76835 -0.14605,0.3556 -0.4064,0.6223 -0.26035,0.2667 -0.6223,0.42545 -0.36195,0.1524 -0.79375,0.1524 -0.43815,0 -0.8001,-0.1524 -0.36195,-0.15875 -0.6223,-0.42545 -0.26035,-0.2667 -0.4064,-0.6223 -0.1397,-0.36195 -0.1397,-0.76835 v -2.7686 h 0.1905 z m 5.098523,1.89865 v -4.66725 h 1.2319 q 0.4826,0 0.9017,0.18415 0.42545,0.18415 0.74295,0.50165 0.3175,0.3175 0.50165,0.74295 0.18415,0.4191 0.18415,0.9017 0,0.4826 -0.18415,0.90805 -0.18415,0.42545 -0.50165,0.74295 -0.3175,0.3175 -0.74295,0.50165 -0.4191,0.18415 -0.9017,0.18415 z m 0.1905,-4.4958 v 4.32435 h 1.0414 q 0.4445,0 0.83185,-0.17145 0.3937,-0.17145 0.6858,-0.46355 0.2921,-0.2921 0.4572,-0.6858 0.1651,-0.3937 0.1651,-0.84455 0,-0.4445 -0.1651,-0.8382 -0.1651,-0.3937 -0.4572,-0.6858 -0.2921,-0.2921 -0.6858,-0.46355 -0.38735,-0.17145 -0.83185,-0.17145 z m 3.866628,0 v -0.17145 h 2.00025 v 0.17145 h -0.9017 v 4.32435 h 0.9017 v 0.17145 h -2.00025 v -0.17145 h 0.90805 v -4.32435 z m 3.06652,-0.17145 h 2.66065 v 0.17145 h -2.47015 v 2.05105 h 2.34315 v 0.15875 h -2.34315 v 2.11455 h 2.47015 v 0.17145 h -2.66065 z m 7.524228,0 h 0.1905 v 4.6355 l -0.0762,0.0381 -3.62585,-4.2545 v 4.24815 h -0.1905 v -4.6355 l 0.06985,-0.03175 3.6322,4.24815 z m 4.107914,0 v 0.17145 h -1.39065 v 4.4958 h -0.1905 v -4.4958 h -1.397 v -0.17145 z"
     id="text6"
     style="font-weight:100;font-size:6.35px;line-height:0;font-family:'Liber Grotesque Family';-inkscape-font-specification:'Liber Grotesque Family, Thin';letter-spacing:0.304271px;word-spacing:0px;direction:rtl;display:inline;fill:#e8e0c8;fill-opacity:0.704402;fill-rule:evenodd;stroke:#e8e0c8;stroke-width:0.1"
     aria-label="CLAIRAUDIENT" /><path
     d="m 11.414998,34.99956 q -0.107245,0 -0.186267,0.08184 -0.0762,0.07902 -0.0762,0.208844 v 0.276578 h 0.412044 v 0.146755 h -0.412044 v 1.298222 H 10.98602 v -1.298222 h -0.256822 v -0.146755 h 0.256822 v -0.268111 q 0,-0.09031 0.02822,-0.172155 0.03105,-0.08467 0.08749,-0.146756 0.05645,-0.06209 0.135467,-0.09878 0.08184,-0.03669 0.180622,-0.03669 0.03951,0 0.0762,0.0028 0.03669,0.0028 0.06209,0.0085 v 0.143933 z m 0.691088,2.012243 h -0.169333 v -1.444977 h 0.146755 v 0.282222 q 0.07056,-0.138289 0.197556,-0.208844 0.127,-0.07338 0.285044,-0.07338 h 0.06491 v 0.146755 h -0.06491 q -0.09878,0 -0.183444,0.03387 -0.08467,0.03387 -0.146756,0.09596 -0.05927,0.06209 -0.09596,0.146755 -0.03387,0.08184 -0.03387,0.183444 z m 2.192513,-0.716844 q 0,0.01411 -0.0028,0.03669 0,0.01975 -0.0028,0.03387 h -1.247421 q 0,0.115711 0.04798,0.211667 0.04798,0.09595 0.124177,0.163689 0.07902,0.06773 0.1778,0.107244 0.09878,0.03669 0.2032,0.03669 0.132645,0 0.234244,-0.03951 0.1016,-0.04233 0.183445,-0.107245 l 0.110066,0.104422 q -0.104422,0.09313 -0.237066,0.146756 -0.129822,0.0508 -0.293511,0.0508 -0.132644,0 -0.262466,-0.04798 -0.129823,-0.04798 -0.234245,-0.143933 -0.1016,-0.09596 -0.166511,-0.234244 -0.06209,-0.141111 -0.06209,-0.324556 0,-0.155222 0.0508,-0.290688 0.0508,-0.138289 0.143934,-0.239889 0.09313,-0.1016 0.222955,-0.158044 0.132644,-0.05927 0.293511,-0.05927 0.166511,0 0.299155,0.06209 0.132645,0.06209 0.225778,0.166511 0.09313,0.1016 0.141111,0.239889 0.0508,0.135466 0.0508,0.285044 z m -0.714022,-0.603955 q -0.121355,0 -0.220133,0.04233 -0.09878,0.04233 -0.169333,0.115711 -0.07056,0.07055 -0.110067,0.169333 -0.03951,0.09878 -0.03951,0.208844 h 1.08091 q 0,-0.104422 -0.03951,-0.200377 -0.03951,-0.09878 -0.112889,-0.172156 -0.07056,-0.07338 -0.169333,-0.118533 -0.09878,-0.04516 -0.220133,-0.04516 z m 1.074911,0.59831 q 0,-0.149577 0.05362,-0.282222 0.05645,-0.132644 0.1524,-0.2286 0.09878,-0.09878 0.231422,-0.155222 0.135467,-0.05644 0.290689,-0.05644 0.09313,0 0.174978,0.0254 0.08184,0.0254 0.149577,0.06773 0.06773,0.04233 0.118534,0.09878 0.05362,0.05362 0.08467,0.112889 v -0.3048 h 0.166511 v 2.167465 h -0.166511 v -1.021644 q -0.03104,0.05927 -0.08467,0.112889 -0.05362,0.05362 -0.124178,0.09596 -0.06773,0.03951 -0.149578,0.06491 -0.08184,0.0254 -0.169333,0.0254 -0.155222,0 -0.290689,-0.05645 -0.132644,-0.05644 -0.231422,-0.1524 -0.09596,-0.09878 -0.1524,-0.231422 -0.05362,-0.132644 -0.05362,-0.282222 z m 1.28411,0 q 0,-0.118533 -0.04233,-0.220133 -0.04233,-0.104422 -0.115711,-0.180622 -0.07338,-0.0762 -0.172155,-0.118533 -0.09878,-0.04516 -0.214489,-0.04516 -0.118533,0 -0.222955,0.04516 -0.104423,0.04233 -0.180623,0.118533 -0.0762,0.0762 -0.121355,0.180622 -0.04516,0.1016 -0.04516,0.220133 0,0.118534 0.04516,0.222956 0.04515,0.104422 0.121355,0.180622 0.0762,0.0762 0.180623,0.121355 0.104422,0.04233 0.222955,0.04233 0.115711,0 0.214489,-0.04233 0.09878,-0.04516 0.172155,-0.121355 0.07338,-0.0762 0.115711,-0.180622 0.04233,-0.104422 0.04233,-0.222956 z"
     id="text5"
     style="font-weight:300;font-size:2.82222px;line-height:0;font-family:'Liber Grotesque Family';-inkscape-font-specification:'Liber Grotesque Family, Light';text-align:center;letter-spacing:0.0899583px;word-spacing:0.264583px;text-anchor:middle;fill:#e8e0c8;fill-rule:evenodd;stroke:#2f2f2f;stroke-width:0"
     aria-label="freq" /><path
     d="m 17.531197,55.324812 q 0,-0.07056 -0.01975,-0.138289 -0.01693,-0.06773 -0.05927,-0.121356 -0.03951,-0.05644 -0.107244,-0.09031 -0.06773,-0.03387 -0.166511,-0.03387 -0.07338,0 -0.138289,0.02822 -0.06209,0.0254 -0.110067,0.0762 -0.04516,0.0508 -0.07338,0.121355 -0.02822,0.07056 -0.02822,0.158045 v 0.293511 h 0.465667 v 0.146755 h -0.465667 v 1.298221 h -0.16651 V 55.765073 H 16.3882 v -0.146755 h 0.273756 v -0.293511 q 0,-0.107245 0.03669,-0.206022 0.03669,-0.09878 0.104423,-0.172156 0.06773,-0.0762 0.163688,-0.118533 0.09596,-0.04516 0.214489,-0.04516 0.127,0 0.222955,0.04516 0.09596,0.04233 0.160867,0.118533 0.06773,0.07338 0.1016,0.172156 0.03387,0.09596 0.03387,0.206022 z m 0.169334,0.293511 v 1.444976 h -0.169334 v -1.444976 z m 2.087737,1.444976 h -0.166511 v -0.778933 q 0,-0.112888 -0.03951,-0.211666 -0.03669,-0.09878 -0.104423,-0.172155 -0.06773,-0.07338 -0.163688,-0.115711 -0.09596,-0.04233 -0.214489,-0.04233 -0.110067,0 -0.208844,0.04516 -0.09596,0.04233 -0.169334,0.118533 -0.07056,0.0762 -0.115711,0.183444 -0.04233,0.104422 -0.04516,0.2286 v 0.745066 h -0.166511 v -1.444976 h 0.166511 v 0.34431 q 0.02258,-0.06209 0.07338,-0.127 0.0508,-0.06491 0.124177,-0.118533 0.07338,-0.05644 0.166511,-0.09031 0.09313,-0.03669 0.200378,-0.03669 0.143933,0 0.265289,0.05362 0.124177,0.0508 0.211666,0.146755 0.08749,0.09595 0.135467,0.2286 0.0508,0.129822 0.0508,0.287866 z m 1.867958,-0.716844 q 0,0.01411 -0.0028,0.03669 0,0.01976 -0.0028,0.03387 H 20.40316 q 0,0.115711 0.04798,0.211666 0.04798,0.09596 0.124177,0.163689 0.07902,0.06773 0.1778,0.107244 0.09878,0.03669 0.2032,0.03669 0.132645,0 0.234244,-0.03951 0.1016,-0.04233 0.183445,-0.107244 l 0.110066,0.104422 q -0.104422,0.09313 -0.237066,0.146755 -0.129822,0.0508 -0.293511,0.0508 -0.132644,0 -0.262467,-0.04798 -0.129822,-0.04798 -0.234244,-0.143934 -0.1016,-0.09595 -0.166511,-0.234244 -0.06209,-0.141111 -0.06209,-0.324555 0,-0.155222 0.0508,-0.290689 0.0508,-0.138289 0.143934,-0.239889 0.09313,-0.101599 0.222955,-0.158044 0.132644,-0.05927 0.293511,-0.05927 0.166511,0 0.299155,0.06209 0.132645,0.06209 0.225778,0.166511 0.09313,0.1016 0.141111,0.239889 0.0508,0.135467 0.0508,0.285044 z M 20.942204,55.7425 q -0.121355,0 -0.220133,0.04233 -0.09878,0.04233 -0.169333,0.115711 -0.07056,0.07055 -0.110067,0.169333 -0.03951,0.09878 -0.03951,0.208844 h 1.08091 q 0,-0.104422 -0.03951,-0.200378 -0.03951,-0.09878 -0.112889,-0.172155 -0.07055,-0.07338 -0.169333,-0.118533 -0.09878,-0.04516 -0.220133,-0.04516 z"
     id="text5-4"
     style="font-weight:300;font-size:2.82222px;line-height:0;font-family:'Liber Grotesque Family';-inkscape-font-specification:'Liber Grotesque Family, Light';text-align:center;letter-spacing:0.0899583px;word-spacing:0.264583px;text-anchor:middle;fill:#e8e0c8;fill-rule:evenodd;stroke:#2f2f2f;stroke-width:0"
     aria-label="fine" /><path
     d="m 61.228311,55.324812 q 0,-0.07056 -0.01976,-0.138289 -0.01693,-0.06773 -0.05927,-0.121356 -0.03951,-0.05644 -0.107244,-0.09031 -0.06773,-0.03387 -0.166511,-0.03387 -0.07338,0 -0.138289,0.02822 -0.06209,0.0254 -0.110067,0.0762 -0.04516,0.0508 -0.07338,0.121355 -0.02822,0.07056 -0.02822,0.158045 v 0.293511 h 0.465667 v 0.146755 h -0.465659 v 1.298221 h -0.166511 v -1.298221 h -0.273755 v -0.146755 h 0.273755 v -0.293511 q 0,-0.107245 0.03669,-0.206021 0.03669,-0.09878 0.104422,-0.172157 0.06773,-0.0762 0.163689,-0.118533 0.09596,-0.04516 0.214489,-0.04516 0.127,0 0.222955,0.04516 0.09596,0.04233 0.160867,0.118533 0.06773,0.07338 0.1016,0.172157 0.03387,0.09596 0.03387,0.206021 z m 0.169333,0.293512 v 1.444975 h -0.169333 v -1.444975 z m 2.087738,1.444975 h -0.166511 v -0.778933 q 0,-0.112888 -0.03951,-0.211666 -0.03669,-0.09878 -0.104423,-0.172155 -0.06773,-0.07338 -0.163688,-0.11571 -0.09596,-0.04233 -0.214489,-0.04233 -0.110067,0 -0.208844,0.04516 -0.09596,0.04233 -0.169334,0.118533 -0.07056,0.0762 -0.115711,0.183444 -0.04233,0.104422 -0.04516,0.2286 v 0.745066 h -0.166511 v -1.444976 h 0.166511 v 0.34431 q 0.02258,-0.06209 0.07338,-0.127 0.0508,-0.06491 0.124177,-0.118533 0.07338,-0.05644 0.166511,-0.09031 0.09313,-0.03669 0.200378,-0.03669 0.143933,0 0.265289,0.05362 0.124177,0.0508 0.211666,0.146755 0.08749,0.09595 0.135467,0.2286 0.0508,0.129822 0.0508,0.287866 z m 1.867958,-0.716844 q 0,0.01411 -0.0028,0.03669 0,0.01976 -0.0028,0.03387 h -1.247421 q 0,0.115711 0.04798,0.211666 0.04798,0.09596 0.124177,0.163689 0.07902,0.06773 0.1778,0.107244 0.09878,0.03669 0.2032,0.03669 0.132644,0 0.234244,-0.03951 0.1016,-0.04233 0.183445,-0.107244 l 0.110066,0.104422 q -0.104422,0.09313 -0.237066,0.146755 -0.129822,0.0508 -0.293511,0.0508 -0.132645,0 -0.262467,-0.04798 -0.129822,-0.04798 -0.234244,-0.143934 -0.1016,-0.09595 -0.166511,-0.234244 -0.06209,-0.141111 -0.06209,-0.324555 0,-0.155222 0.0508,-0.290689 0.0508,-0.138289 0.143933,-0.239888 0.09313,-0.101599 0.222956,-0.158044 0.132644,-0.05927 0.293511,-0.05927 0.166511,0 0.299155,0.06209 0.132644,0.06209 0.225778,0.166511 0.09313,0.1016 0.141111,0.239889 0.0508,0.135467 0.0508,0.285044 z m -0.714022,-0.603954 q -0.121356,0 -0.220133,0.04233 -0.09878,0.04233 -0.169333,0.115711 -0.07056,0.07055 -0.110067,0.169333 -0.03951,0.09878 -0.03951,0.208844 h 1.08091 q 0,-0.104422 -0.03951,-0.200378 -0.03951,-0.09878 -0.112889,-0.172155 -0.07055,-0.07338 -0.169333,-0.118533 -0.09878,-0.04516 -0.220133,-0.04516 z"
     id="text5-4-1"
     style="font-weight:300;font-size:2.82222px;line-height:0;font-family:'Liber Grotesque Family';-inkscape-font-specification:'Liber Grotesque Family, Light';text-align:center;letter-spacing:0.0899583px;word-spacing:0.264583px;text-anchor:middle;fill:#e8e0c8;fill-rule:evenodd;stroke:#2f2f2f;stroke-width:0"
     aria-label="fine" /><path
     d="m 38.385102,68.16115 h -0.197555 l -0.423333,-0.578556 -0.426155,0.578556 h -0.194733 l 0.519288,-0.719667 -0.516466,-0.72531 h 0.194733 l 0.423333,0.584199 0.423333,-0.584199 h 0.194733 l -0.519288,0.72531 z m 0.897116,-2.012243 q -0.107244,0 -0.186266,0.08184 -0.0762,0.07902 -0.0762,0.208844 v 0.276578 h 0.412044 v 0.146755 h -0.412044 v 1.298222 h -0.166511 v -1.298222 h -0.256822 v -0.146755 h 0.256822 v -0.268111 q 0,-0.09031 0.02822,-0.172155 0.03104,-0.08467 0.08749,-0.146756 0.05644,-0.06209 0.135466,-0.09878 0.08184,-0.03669 0.180623,-0.03669 0.03951,0 0.0762,0.0028 0.03669,0.0028 0.06209,0.0085 v 0.143934 z m 1.388175,1.670754 q -0.02822,0.0762 -0.08184,0.143933 -0.05362,0.06491 -0.127,0.115711 -0.07055,0.0508 -0.160867,0.07902 -0.09031,0.02822 -0.19191,0.02822 -0.118534,0 -0.214489,-0.03105 -0.09313,-0.03387 -0.160867,-0.09031 -0.06491,-0.05927 -0.09878,-0.135467 -0.03387,-0.07902 -0.03387,-0.169333 0,-0.0762 0.03104,-0.146755 0.03104,-0.07056 0.09596,-0.121356 0.06773,-0.05362 0.166511,-0.08467 0.1016,-0.03104 0.239888,-0.03104 h 0.530578 v -0.06209 q 0,-0.08467 -0.0254,-0.166511 -0.0254,-0.08185 -0.07902,-0.143934 -0.0508,-0.06491 -0.132645,-0.104422 -0.07902,-0.03951 -0.191911,-0.03951 -0.110066,0 -0.203199,0.03951 -0.09313,0.03951 -0.166511,0.110067 l -0.107245,-0.104422 q 0.09313,-0.09031 0.214489,-0.143934 0.124178,-0.05362 0.262466,-0.05362 0.146756,0 0.259645,0.0508 0.112888,0.0508 0.186266,0.135467 0.07338,0.08467 0.110067,0.194733 0.03951,0.107244 0.03951,0.222955 v 0.849489 h -0.160867 z m -0.900288,-0.05927 q 0,0.124178 0.09878,0.2032 0.1016,0.07902 0.262466,0.07902 0.09878,0 0.194733,-0.03387 0.09596,-0.03387 0.169334,-0.1016 0.0762,-0.06773 0.121355,-0.166511 0.04798,-0.09878 0.04798,-0.2286 h -0.530578 q -0.189088,0 -0.276577,0.07338 -0.08749,0.07055 -0.08749,0.174977 z m 1.518003,-0.321733 q 0,-0.149577 0.05362,-0.282222 0.05644,-0.132644 0.152399,-0.2286 0.09878,-0.09878 0.231422,-0.155222 0.135467,-0.05644 0.290689,-0.05644 0.08749,0 0.169333,0.0254 0.08184,0.0254 0.149578,0.06773 0.07055,0.03951 0.124178,0.09313 0.05362,0.05362 0.08467,0.112889 V 65.99368 h 0.166511 v 2.167465 h -0.166511 v -0.301978 q -0.03104,0.05644 -0.08467,0.112889 -0.0508,0.05362 -0.118534,0.09595 -0.06773,0.04233 -0.149577,0.06773 -0.08184,0.0254 -0.174978,0.0254 -0.155222,0 -0.290689,-0.05644 -0.132644,-0.05644 -0.231422,-0.1524 -0.09595,-0.09878 -0.152399,-0.231422 -0.05362,-0.132644 -0.05362,-0.282222 z m 1.292577,0 q 0,-0.121355 -0.04233,-0.225777 -0.04233,-0.104423 -0.115711,-0.180622 -0.07338,-0.0762 -0.174978,-0.118534 -0.09878,-0.04515 -0.214489,-0.04515 -0.121355,0 -0.225777,0.04515 -0.104422,0.04233 -0.183444,0.118534 -0.0762,0.0762 -0.121356,0.180622 -0.04516,0.104422 -0.04516,0.225777 0,0.121356 0.04516,0.225778 0.04516,0.104422 0.121356,0.180622 0.07902,0.0762 0.183444,0.121355 0.104422,0.04233 0.225777,0.04233 0.115711,0 0.214489,-0.04233 0.1016,-0.04516 0.174978,-0.121355 0.07338,-0.0762 0.115711,-0.180622 0.04233,-0.104422 0.04233,-0.225778 z m 2.014709,0.0056 q 0,0.01411 -0.0028,0.03669 0,0.01976 -0.0028,0.03387 h -1.247422 q 0,0.115711 0.04798,0.211667 0.04798,0.09596 0.124178,0.163688 0.07902,0.06773 0.1778,0.107245 0.09878,0.03669 0.2032,0.03669 0.132644,0 0.234244,-0.03951 0.1016,-0.04233 0.183444,-0.107245 l 0.110067,0.104422 q -0.104422,0.09313 -0.237067,0.146756 -0.129822,0.0508 -0.293511,0.0508 -0.132644,0 -0.262466,-0.04798 -0.129822,-0.04798 -0.234244,-0.143933 -0.1016,-0.09596 -0.166511,-0.234244 -0.06209,-0.141112 -0.06209,-0.324556 0,-0.155222 0.0508,-0.290688 0.0508,-0.138289 0.143933,-0.239889 0.09313,-0.1016 0.222955,-0.158045 0.132645,-0.05927 0.293511,-0.05927 0.166511,0 0.299156,0.06209 0.132644,0.06209 0.225777,0.166511 0.09313,0.1016 0.141111,0.239888 0.0508,0.135467 0.0508,0.285045 z m -0.714022,-0.603907 q -0.121355,0 -0.220133,0.04233 -0.09878,0.04233 -0.169333,0.115711 -0.07055,0.07055 -0.110067,0.169333 -0.03951,0.09878 -0.03951,0.208844 h 1.080911 q 0,-0.104422 -0.03951,-0.200377 -0.03951,-0.09878 -0.112889,-0.172156 -0.07056,-0.07338 -0.169333,-0.118533 -0.09878,-0.04516 -0.220134,-0.04516 z"
     id="text5-4-1-7"
     style="font-weight:300;font-size:2.82222px;line-height:0;font-family:'Liber Grotesque Family';-inkscape-font-specification:'Liber Grotesque Family, Light';text-align:center;letter-spacing:0.0899583px;word-spacing:0.264583px;text-anchor:middle;fill:#e8e0c8;fill-rule:evenodd;stroke:#2f2f2f;stroke-width:0"
     aria-label="xfade" /><path
     d="m 66.192215,34.99956 q -0.107244,0 -0.186266,0.08184 -0.0762,0.07902 -0.0762,0.208844 v 0.276578 h 0.412044 v 0.146755 h -0.412044 v 1.298222 h -0.166511 v -1.298222 h -0.256822 v -0.146755 h 0.256822 v -0.268111 q 0,-0.09031 0.02822,-0.172155 0.03105,-0.08467 0.08749,-0.146756 0.05644,-0.06209 0.135467,-0.09878 0.08184,-0.03669 0.180622,-0.03669 0.03951,0 0.0762,0.0028 0.03669,0.0028 0.06209,0.0085 v 0.143933 z m 0.691089,2.012243 h -0.169333 v -1.444977 h 0.146755 v 0.282222 q 0.07056,-0.138289 0.197556,-0.208844 0.127,-0.07338 0.285044,-0.07338 h 0.06491 v 0.146755 h -0.06491 q -0.09878,0 -0.183444,0.03387 -0.08467,0.03387 -0.146756,0.09596 -0.05927,0.06209 -0.09596,0.146755 -0.03387,0.08184 -0.03387,0.183444 z m 2.192513,-0.716844 q 0,0.01411 -0.0028,0.03669 0,0.01975 -0.0028,0.03387 h -1.247421 q 0,0.115711 0.04798,0.211667 0.04798,0.09595 0.124177,0.163689 0.07902,0.06773 0.1778,0.107244 0.09878,0.03669 0.2032,0.03669 0.132644,0 0.234244,-0.03951 0.1016,-0.04233 0.183445,-0.107245 l 0.110066,0.104422 q -0.104422,0.09313 -0.237066,0.146756 -0.129822,0.0508 -0.293511,0.0508 -0.132644,0 -0.262467,-0.04798 -0.129822,-0.04798 -0.234244,-0.143933 -0.1016,-0.09596 -0.166511,-0.234244 -0.06209,-0.141111 -0.06209,-0.324556 0,-0.155222 0.0508,-0.290688 0.0508,-0.138289 0.143933,-0.239889 0.09313,-0.1016 0.222956,-0.158044 0.132644,-0.05927 0.293511,-0.05927 0.166511,0 0.299155,0.06209 0.132644,0.06209 0.225778,0.166511 0.09313,0.1016 0.141111,0.239889 0.0508,0.135466 0.0508,0.285044 z m -0.714022,-0.603955 q -0.121355,0 -0.220133,0.04233 -0.09878,0.04233 -0.169333,0.115711 -0.07056,0.07055 -0.110067,0.169333 -0.03951,0.09878 -0.03951,0.208844 h 1.08091 q 0,-0.104422 -0.03951,-0.200377 -0.03951,-0.09878 -0.112889,-0.172156 -0.07055,-0.07338 -0.169333,-0.118533 -0.09878,-0.04516 -0.220133,-0.04516 z m 1.074911,0.59831 q 0,-0.149577 0.05362,-0.282222 0.05644,-0.132644 0.1524,-0.2286 0.09878,-0.09878 0.231422,-0.155222 0.135467,-0.05644 0.290689,-0.05644 0.09313,0 0.174978,0.0254 0.08184,0.0254 0.149577,0.06773 0.06773,0.04233 0.118533,0.09878 0.05362,0.05362 0.08467,0.112889 v -0.3048 h 0.166511 v 2.167465 h -0.166511 v -1.021644 q -0.03104,0.05927 -0.08467,0.112889 -0.05362,0.05362 -0.124177,0.09596 -0.06773,0.03951 -0.149578,0.06491 -0.08184,0.0254 -0.169333,0.0254 -0.155222,0 -0.290689,-0.05645 -0.132644,-0.05644 -0.231422,-0.1524 -0.09596,-0.09878 -0.1524,-0.231422 -0.05362,-0.132644 -0.05362,-0.282222 z m 1.28411,0 q 0,-0.118533 -0.04233,-0.220133 -0.04233,-0.104422 -0.115711,-0.180622 -0.07338,-0.0762 -0.172156,-0.118533 -0.09878,-0.04516 -0.214488,-0.04516 -0.118533,0 -0.222956,0.04516 -0.104422,0.04233 -0.180622,0.118533 -0.0762,0.0762 -0.121355,0.180622 -0.04516,0.1016 -0.04516,0.220133 0,0.118534 0.04516,0.222956 0.04515,0.104422 0.121355,0.180622 0.0762,0.0762 0.180622,0.121355 0.104423,0.04233 0.222956,0.04233 0.115711,0 0.214488,-0.04233 0.09878,-0.04516 0.172156,-0.121355 0.07338,-0.0762 0.115711,-0.180622 0.04233,-0.104422 0.04233,-0.222956 z"
     id="text5-69"
     style="font-weight:300;font-size:2.82222px;line-height:0;font-family:'Liber Grotesque Family';-inkscape-font-specification:'Liber Grotesque Family, Light';text-align:center;letter-spacing:0.0899583px;word-spacing:0.264583px;text-anchor:middle;fill:#e8e0c8;fill-rule:evenodd;stroke:#2f2f2f;stroke-width:0"
     aria-label="freq" /><path
     d="m 22.43904,72.934811 q 0,0.0762 0.05927,0.13829 0.05927,0.05927 0.194734,0.1016 l 0.344312,0.1016 q 0.220134,0.06491 0.313268,0.166512 0.09313,0.1016 0.09313,0.239889 0,0.07902 -0.03387,0.146756 -0.03387,0.06773 -0.101601,0.118534 -0.06773,0.0508 -0.172156,0.07902 -0.104422,0.03105 -0.245534,0.03105 -0.09878,0 -0.194734,-0.01976 -0.09313,-0.01976 -0.1778,-0.05362 -0.08185,-0.03387 -0.149578,-0.07902 -0.06773,-0.04798 -0.11289,-0.1016 l 0.127001,-0.09878 q 0.04233,0.04798 0.1016,0.08467 0.05927,0.03669 0.127,0.06491 0.06773,0.0254 0.13829,0.03951 0.07338,0.01411 0.141111,0.01411 0.197556,0 0.287868,-0.06491 0.09313,-0.06773 0.09313,-0.160867 0,-0.08184 -0.05927,-0.141111 -0.05644,-0.06209 -0.208845,-0.110067 l -0.335845,-0.1016 q -0.197556,-0.05645 -0.299156,-0.158045 -0.09878,-0.101601 -0.09878,-0.237068 0,-0.07902 0.03387,-0.149578 0.03387,-0.07338 0.104423,-0.129822 0.07056,-0.05644 0.174978,-0.09031 0.107245,-0.03387 0.248356,-0.03387 0.143934,0 0.251179,0.04516 0.110067,0.04516 0.183445,0.112889 0.0762,0.06773 0.112889,0.149579 0.03669,0.08184 0.03669,0.158044 h -0.163689 q -0.01411,-0.135467 -0.129823,-0.225778 -0.115711,-0.09031 -0.29069,-0.09031 -0.1016,0 -0.1778,0.02258 -0.07338,0.01976 -0.121356,0.05644 -0.04798,0.03669 -0.07056,0.08185 -0.02258,0.04515 -0.02258,0.09313 z m 2.833163,1.086559 h -0.166511 v -0.778936 q 0,-0.112889 -0.03951,-0.211667 -0.03669,-0.09878 -0.104422,-0.172156 -0.06773,-0.07338 -0.163689,-0.115711 -0.09596,-0.04233 -0.21449,-0.04233 -0.110067,0 -0.208845,0.04516 -0.09596,0.04233 -0.169334,0.118534 -0.07056,0.0762 -0.115711,0.183445 -0.04233,0.104422 -0.04516,0.2286 v 0.745069 h -0.166511 v -1.444982 h 0.166511 V 72.9207 q 0.02258,-0.06209 0.07338,-0.127 0.0508,-0.06491 0.124178,-0.118534 0.07338,-0.05644 0.166512,-0.09031 0.09313,-0.03669 0.200378,-0.03669 0.143934,0 0.26529,0.05362 0.124178,0.0508 0.211667,0.146756 0.08749,0.09596 0.135467,0.228601 0.0508,0.129822 0.0508,0.287867 z M 26.9539,73.832281 q -0.1016,0.104422 -0.234245,0.160867 -0.132645,0.05644 -0.293512,0.05644 -0.155223,0 -0.293512,-0.05927 -0.135467,-0.05927 -0.237067,-0.160867 -0.101601,-0.1016 -0.160868,-0.237067 -0.05927,-0.138289 -0.05927,-0.293512 0,-0.155223 0.05927,-0.29069 0.05927,-0.138289 0.160868,-0.239889 0.1016,-0.101601 0.237067,-0.160867 0.138289,-0.05927 0.293512,-0.05927 0.166511,0 0.304801,0.06209 0.138289,0.06209 0.237067,0.169334 L 26.8523,72.892478 q -0.07902,-0.08467 -0.18909,-0.129823 -0.107245,-0.04798 -0.237067,-0.04798 -0.121356,0 -0.228601,0.04798 -0.107245,0.04516 -0.186267,0.124178 -0.07902,0.07902 -0.124178,0.186268 -0.04516,0.104422 -0.04516,0.225778 0,0.121356 0.04516,0.228601 0.04516,0.107244 0.124178,0.186267 0.07902,0.07902 0.186267,0.124178 0.107245,0.04516 0.228601,0.04516 0.129822,0 0.231423,-0.04233 0.104422,-0.04515 0.186267,-0.124178 z m 2.143478,0.03669 0.510823,-1.292582 h 0.183445 l -0.581379,1.444982 h -0.242712 l -0.581379,-1.444982 h 0.183445 l 0.510823,1.292582 z"
     id="text10-1-7"
     style="font-weight:300;font-size:2.82223px;line-height:0;font-family:'Liber Grotesque Family';-inkscape-font-specification:'Liber Grotesque Family, Light';text-align:center;letter-spacing:0.0899583px;word-spacing:0.264583px;text-anchor:middle;fill:#e8e0c8;fill-rule:evenodd;stroke:#e8e0c8;stroke-width:0;stroke-linecap:round;stroke-miterlimit:4.3"
     aria-label="snc v&#10;" /><path
     d="m 52.054759,72.934811 q 0,0.0762 0.05927,0.13829 0.05927,0.05927 0.194734,0.1016 l 0.344312,0.1016 q 0.220134,0.06491 0.313268,0.166512 0.09313,0.1016 0.09313,0.239889 0,0.07902 -0.03387,0.146756 -0.03387,0.06773 -0.1016,0.118534 -0.06773,0.0508 -0.172156,0.07902 -0.104422,0.03105 -0.245534,0.03105 -0.09878,0 -0.194734,-0.01976 -0.09313,-0.01976 -0.1778,-0.05362 -0.08184,-0.03387 -0.149578,-0.07902 -0.06773,-0.04798 -0.11289,-0.1016 l 0.127001,-0.09878 q 0.04233,0.04798 0.1016,0.08467 0.05927,0.03669 0.127,0.06491 0.06773,0.0254 0.13829,0.03951 0.07338,0.01411 0.141111,0.01411 0.197556,0 0.287868,-0.06491 0.09313,-0.06773 0.09313,-0.160867 0,-0.08184 -0.05927,-0.141111 -0.05644,-0.06209 -0.208845,-0.110067 l -0.335845,-0.1016 q -0.197556,-0.05645 -0.299156,-0.158045 -0.09878,-0.101601 -0.09878,-0.237068 0,-0.07902 0.03387,-0.149578 0.03387,-0.07338 0.104423,-0.129822 0.07055,-0.05644 0.174978,-0.09031 0.107245,-0.03387 0.248356,-0.03387 0.143934,0 0.251179,0.04516 0.110067,0.04516 0.183445,0.112889 0.0762,0.06773 0.112889,0.149579 0.03669,0.08184 0.03669,0.158044 h -0.163689 q -0.01411,-0.135467 -0.129823,-0.225778 -0.115711,-0.09031 -0.29069,-0.09031 -0.1016,0 -0.1778,0.02258 -0.07338,0.01976 -0.121356,0.05644 -0.04798,0.03669 -0.07056,0.08185 -0.02258,0.04515 -0.02258,0.09313 z m 2.833163,1.086559 h -0.166511 v -0.778936 q 0,-0.112889 -0.03951,-0.211667 -0.03669,-0.09878 -0.104422,-0.172156 -0.06773,-0.07338 -0.16369,-0.115711 -0.09595,-0.04233 -0.214489,-0.04233 -0.110067,0 -0.208845,0.04516 -0.09596,0.04233 -0.169334,0.118534 -0.07056,0.0762 -0.115711,0.183445 -0.04233,0.104422 -0.04516,0.2286 V 74.02137 H 53.49374 v -1.444982 h 0.166512 V 72.9207 q 0.02258,-0.06209 0.07338,-0.127 0.0508,-0.06491 0.124178,-0.118534 0.07338,-0.05644 0.166512,-0.09031 0.09313,-0.03669 0.200378,-0.03669 0.143934,0 0.26529,0.05362 0.124178,0.0508 0.211667,0.146756 0.08749,0.09596 0.135467,0.228601 0.0508,0.129822 0.0508,0.287867 z m 1.681697,-0.189089 q -0.101601,0.104422 -0.234245,0.160867 -0.132645,0.05644 -0.293512,0.05644 -0.155223,0 -0.293512,-0.05927 -0.135467,-0.05927 -0.237068,-0.160867 -0.1016,-0.1016 -0.160867,-0.237067 -0.05927,-0.138289 -0.05927,-0.293512 0,-0.155223 0.05927,-0.29069 0.05927,-0.138289 0.160867,-0.239889 0.101601,-0.101601 0.237068,-0.160867 0.138289,-0.05927 0.293512,-0.05927 0.166511,0 0.304801,0.06209 0.138289,0.06209 0.237067,0.169334 l -0.115712,0.112889 q -0.07902,-0.08467 -0.189089,-0.129823 -0.107245,-0.04798 -0.237067,-0.04798 -0.121356,0 -0.228601,0.04798 -0.107245,0.04516 -0.186267,0.124178 -0.07902,0.07902 -0.124178,0.186268 -0.04516,0.104422 -0.04516,0.225778 0,0.121356 0.04516,0.228601 0.04515,0.107244 0.124178,0.186267 0.07902,0.07902 0.186267,0.124178 0.107245,0.04516 0.228601,0.04516 0.129822,0 0.231423,-0.04233 0.104422,-0.04515 0.186267,-0.124178 z m 2.143478,0.03669 0.510823,-1.292582 h 0.183445 l -0.581379,1.444982 h -0.242712 l -0.581379,-1.444982 h 0.183445 l 0.510823,1.292582 z"
     id="text10-1-7-9"
     style="font-weight:300;font-size:2.82223px;line-height:0;font-family:'Liber Grotesque Family';-inkscape-font-specification:'Liber Grotesque Family, Light';text-align:center;letter-spacing:0.0899583px;word-spacing:0.264583px;text-anchor:middle;fill:#e8e0c8;fill-rule:evenodd;stroke:#e8e0c8;stroke-width:0;stroke-linecap:round;stroke-miterlimit:4.3"
     aria-label="snc v&#10;" /><path
     d="m 7.3964029,90.537175 q 0,0.0762 0.059267,0.138289 0.059267,0.05927 0.1947339,0.1016 l 0.3443121,0.101601 q 0.2201339,0.06491 0.3132675,0.166511 0.093134,0.101601 0.093134,0.23989 0,0.07902 -0.033867,0.146756 -0.033867,0.06773 -0.1016003,0.118534 -0.067734,0.0508 -0.1721561,0.07902 -0.1044225,0.03104 -0.245534,0.03104 -0.098778,0 -0.1947338,-0.01976 -0.093134,-0.01976 -0.1778005,-0.05362 -0.081845,-0.03387 -0.1495782,-0.07902 -0.067734,-0.04798 -0.1128892,-0.1016 l 0.1270003,-0.09878 q 0.042333,0.04798 0.1016003,0.08467 0.059267,0.03669 0.1270003,0.06491 0.067734,0.0254 0.1382893,0.03951 0.073378,0.01411 0.1411115,0.01411 0.1975561,0 0.2878675,-0.06491 0.093134,-0.06773 0.093134,-0.160867 0,-0.08185 -0.059267,-0.141112 -0.056445,-0.06209 -0.2088451,-0.110067 l -0.3358454,-0.1016 q -0.1975561,-0.05644 -0.2991563,-0.158045 -0.098778,-0.1016 -0.098778,-0.237067 0,-0.07902 0.033867,-0.149578 0.033867,-0.07338 0.1044225,-0.129823 0.070556,-0.05644 0.1749782,-0.09031 0.1072448,-0.03387 0.2483563,-0.03387 0.1439337,0 0.2511785,0.04516 0.1100669,0.04515 0.1834449,0.112889 0.0762,0.06773 0.1128892,0.149578 0.036689,0.08185 0.036689,0.158045 H 8.2092052 q -0.014111,-0.135467 -0.1298226,-0.225778 -0.1157114,-0.09031 -0.2906897,-0.09031 -0.1016003,0 -0.1778005,0.02258 -0.073378,0.01976 -0.1213559,0.05644 -0.047978,0.03669 -0.070556,0.08184 -0.022578,0.04516 -0.022578,0.09313 z m 2.8359841,1.086559 H 10.063053 V 90.87302 q 0,-0.112889 -0.04233,-0.211667 -0.042334,-0.09878 -0.1157114,-0.172156 -0.073378,-0.07338 -0.1721561,-0.115711 -0.098778,-0.04233 -0.2116672,-0.04233 -0.110067,0 -0.2088451,0.04798 -0.098778,0.04798 -0.1749782,0.129823 -0.073378,0.08184 -0.1185337,0.191911 -0.042333,0.110067 -0.042333,0.234245 v 0.688625 H 8.807161 v -2.167473 h 0.1693338 v 1.109136 q 0.036689,-0.08749 0.093134,-0.160867 0.059267,-0.07338 0.1354671,-0.127 0.0762,-0.05362 0.1636893,-0.08185 0.090311,-0.02822 0.1890895,-0.0254 0.1382892,0 0.2596451,0.05644 0.1241781,0.05644 0.2144896,0.155222 0.09313,0.09596 0.146756,0.228601 0.05362,0.129822 0.05362,0.282223 z m 1.955454,-0.722491 q 0,0.149578 -0.05644,0.282223 -0.05362,0.132644 -0.152401,0.231422 -0.09596,0.09596 -0.231422,0.152401 -0.132645,0.05644 -0.287868,0.05644 -0.08749,0 -0.169334,-0.0254 -0.08184,-0.0254 -0.1524,-0.06491 -0.06773,-0.04233 -0.121356,-0.09596 -0.05362,-0.05362 -0.08467,-0.112889 v 1.021647 h -0.166512 v -2.167472 h 0.166512 v 0.304801 q 0.03105,-0.05927 0.08185,-0.11289 0.05362,-0.05644 0.121356,-0.09878 0.06773,-0.04233 0.149578,-0.06773 0.08184,-0.0254 0.174978,-0.0254 0.155223,0 0.287868,0.05644 0.135467,0.05644 0.231422,0.155223 0.09878,0.09596 0.152401,0.228601 0.05644,0.132644 0.05644,0.282223 z m -1.284114,0 q 0,0.118533 0.04233,0.222956 0.04233,0.104422 0.115712,0.180623 0.07338,0.0762 0.172156,0.121355 0.09878,0.04233 0.214489,0.04233 0.118534,0 0.222956,-0.04233 0.104423,-0.04515 0.180623,-0.121355 0.0762,-0.0762 0.121356,-0.180623 0.04516,-0.104423 0.04516,-0.222956 0,-0.118534 -0.04516,-0.220134 -0.04516,-0.104423 -0.121356,-0.180623 -0.0762,-0.0762 -0.180623,-0.118534 -0.104422,-0.04515 -0.222956,-0.04515 -0.115711,0 -0.214489,0.04515 -0.09878,0.04233 -0.172156,0.118534 -0.07338,0.0762 -0.115712,0.180623 -0.04233,0.1016 -0.04233,0.220134 z m 3.06459,0.0056 q 0,0.01411 -0.0028,0.03669 0,0.01976 -0.0028,0.03387 h -1.247425 q 0,0.115711 0.04798,0.211667 0.04798,0.09596 0.124178,0.163689 0.07902,0.06773 0.1778,0.107245 0.09878,0.03669 0.203201,0.03669 0.132645,0 0.234245,-0.03951 0.1016,-0.04233 0.183445,-0.107245 l 0.110067,0.104423 q -0.104423,0.09313 -0.237067,0.146756 -0.129823,0.0508 -0.293512,0.0508 -0.132645,0 -0.262468,-0.04798 -0.129822,-0.04798 -0.234245,-0.143934 -0.1016,-0.09596 -0.166511,-0.234245 -0.06209,-0.141111 -0.06209,-0.324556 0,-0.155223 0.0508,-0.29069 0.0508,-0.138289 0.143933,-0.23989 0.09313,-0.1016 0.222957,-0.158045 0.132644,-0.05927 0.293512,-0.05927 0.166511,0 0.299156,0.06209 0.132645,0.06209 0.225778,0.166511 0.09313,0.101601 0.141112,0.23989 0.0508,0.135467 0.0508,0.285045 z M 13.254293,90.30293 q -0.121356,0 -0.220134,0.04233 -0.09878,0.04233 -0.169334,0.115712 -0.07056,0.07055 -0.110067,0.169334 -0.03951,0.09878 -0.03951,0.208845 h 1.080914 q 0,-0.104423 -0.03951,-0.200379 -0.03951,-0.09878 -0.11289,-0.172156 -0.07056,-0.07338 -0.169333,-0.118533 -0.09878,-0.04516 -0.220134,-0.04516 z m 2.885725,1.168403 0.510823,-1.292581 h 0.183445 l -0.581379,1.444982 h -0.242712 l -0.581379,-1.444982 h 0.183445 l 0.510823,1.292581 z"
     id="text1"
     style="font-weight:300;font-size:2.82223px;line-height:0;font-family:'Liber Grotesque Family';-inkscape-font-specification:'Liber Grotesque Family, Light';text-align:center;letter-spacing:0.0899583px;word-spacing:0.264583px;text-anchor:middle;fill:#e8e0c8;fill-rule:evenodd;stroke:#e8e0c8;stroke-width:0;stroke-linecap:round;stroke-miterlimit:4.3"
     aria-label="shpe v" /><path
     d="m 13.442297,109.36964 h -0.795161 l -0.770467,-3.63009 h 0.543278 l 0.686505,3.20534 1.585384,-3.20534 h 0.538339 z"
     id="text1-5"
     style="font-style:oblique;font-weight:600;font-size:4.93889px;line-height:0;font-family:'Liber Grotesque Family';-inkscape-font-specification:'Liber Grotesque Family, Semi-Bold Oblique';text-align:center;letter-spacing:0.0899583px;word-spacing:0.264583px;text-anchor:middle;fill:#e8e0c8;fill-rule:evenodd;stroke:#e8e0c8;stroke-width:0;stroke-linecap:round;stroke-miterlimit:4.3"
     aria-label="V" /><path
     d="m 12.135957,120.06081 0.05927,-0.43956 h 1.002595 l 0.869244,-1.12607 h -1.837267 l 0.05927,-0.44944 h 2.484262 l 0.05927,0.12841 -1.076678,1.4471 h 0.7112 l -0.05927,0.43956 h -0.963084 l -0.884061,1.16558 h 1.812573 l -0.06421,0.44944 h -2.484262 l -0.05433,-0.12841 1.116189,-1.48661 z"
     id="text1-5-2"
     style="font-style:oblique;font-weight:600;font-size:4.93889px;line-height:0;font-family:'Liber Grotesque Family';-inkscape-font-specification:'Liber Grotesque Family, Semi-Bold Oblique';text-align:center;letter-spacing:0.0899583px;word-spacing:0.264583px;text-anchor:middle;fill:#e8e0c8;fill-rule:evenodd;stroke:#e8e0c8;stroke-width:0;stroke-linecap:round;stroke-miterlimit:4.3"
     aria-label="Z" /><path
     d="m 21.122859,112.79356 0.510823,-1.29258 h 0.183445 l -0.581379,1.44498 h -0.242712 l -0.581379,-1.44498 h 0.183445 l 0.510823,1.29258 z m 1.458738,-1.94169 -0.541868,2.16747 h -0.169334 l 0.541869,-2.16747 z m 0.352424,1.3716 q 0,-0.15522 0.05645,-0.28787 0.05927,-0.13546 0.158045,-0.23424 0.1016,-0.1016 0.237067,-0.15805 0.135467,-0.0593 0.287868,-0.0593 0.155222,0 0.290689,0.0593 0.135467,0.0564 0.234245,0.15805 0.101601,0.0988 0.158045,0.23424 0.05927,0.13265 0.05927,0.28787 0,0.15522 -0.05927,0.29069 -0.05644,0.13547 -0.158045,0.23707 -0.09878,0.0988 -0.234245,0.15804 -0.135467,0.0564 -0.290689,0.0564 -0.152401,0 -0.287868,-0.0564 -0.135467,-0.0593 -0.237067,-0.15804 -0.09878,-0.1016 -0.158045,-0.23707 -0.05645,-0.13547 -0.05645,-0.29069 z m 0.166512,0 q 0,0.11853 0.04516,0.22578 0.04515,0.10442 0.124178,0.18344 0.07902,0.0762 0.180623,0.12136 0.104422,0.0452 0.222956,0.0452 0.118533,0 0.222956,-0.0452 0.104422,-0.0452 0.183445,-0.12136 0.07902,-0.079 0.124178,-0.18344 0.04516,-0.10725 0.04516,-0.22578 0,-0.11853 -0.04516,-0.22296 -0.04516,-0.10442 -0.124178,-0.18344 -0.07902,-0.079 -0.183445,-0.12418 -0.104423,-0.0452 -0.222956,-0.0452 -0.118534,0 -0.222956,0.0452 -0.101601,0.0452 -0.180623,0.12418 -0.07902,0.079 -0.124178,0.18344 -0.04516,0.10443 -0.04516,0.22296 z m 2.965811,0.5334 q -0.1016,0.10442 -0.234245,0.16087 -0.132645,0.0564 -0.293512,0.0564 -0.155223,0 -0.293512,-0.0593 -0.135467,-0.0593 -0.237067,-0.16087 -0.101601,-0.1016 -0.160867,-0.23707 -0.05927,-0.13829 -0.05927,-0.29351 0,-0.15522 0.05927,-0.29069 0.05927,-0.13829 0.160867,-0.23989 0.1016,-0.1016 0.237067,-0.16087 0.138289,-0.0593 0.293512,-0.0593 0.166511,0 0.304801,0.0621 0.138289,0.0621 0.237067,0.16933 l -0.115711,0.11289 q -0.07902,-0.0847 -0.18909,-0.12982 -0.107245,-0.048 -0.237067,-0.048 -0.121356,0 -0.228601,0.048 -0.107245,0.0451 -0.186267,0.12417 -0.07902,0.079 -0.124178,0.18627 -0.04516,0.10442 -0.04516,0.22578 0,0.12136 0.04516,0.2286 0.04516,0.10725 0.124178,0.18627 0.07902,0.079 0.186267,0.12418 0.107245,0.0452 0.228601,0.0452 0.129822,0 0.231423,-0.0423 0.104422,-0.0452 0.186267,-0.12418 z m 0.544335,0.18909 v -1.29822 h -0.333023 v -0.14676 h 0.333023 v -0.36125 h 0.169334 v 0.36125 h 0.333023 v 0.14676 h -0.333023 v 1.29822 z"
     id="text1-7"
     style="font-weight:300;font-size:2.82223px;line-height:0;font-family:'Liber Grotesque Family';-inkscape-font-specification:'Liber Grotesque Family, Light';text-align:center;letter-spacing:0.0899583px;word-spacing:0.264583px;text-anchor:middle;fill:#e8e0c8;fill-rule:evenodd;stroke:#e8e0c8;stroke-width:0;stroke-linecap:round;stroke-miterlimit:4.3"
     aria-label="v/oct" /><path
     d="m 36.887033,111.39059 q 0,-0.0706 -0.01976,-0.13829 -0.01693,-0.0677 -0.05927,-0.12136 -0.03951,-0.0564 -0.107245,-0.0903 -0.06773,-0.0339 -0.166512,-0.0339 -0.07338,0 -0.138289,0.0282 -0.06209,0.0254 -0.110067,0.0762 -0.04516,0.0508 -0.07338,0.12135 -0.02822,0.0706 -0.02822,0.15805 v 0.29351 h 0.465668 v 0.14676 h -0.465668 v 1.29822 h -0.166512 v -1.29822 H 35.74403 v -0.14676 h 0.273756 v -0.29351 q 0,-0.10725 0.03669,-0.20602 0.03669,-0.0988 0.104423,-0.17216 0.06773,-0.0762 0.163689,-0.11853 0.09596,-0.0452 0.214489,-0.0452 0.127001,0 0.222957,0.0452 0.09596,0.0423 0.160867,0.11853 0.06773,0.0734 0.1016,0.17216 0.03387,0.096 0.03387,0.20602 z m 0.169334,0.29351 v 1.44498 h -0.169334 v -1.44498 z m 2.087744,1.44498 h -0.166512 v -0.77893 q 0,-0.11289 -0.03951,-0.21167 -0.03669,-0.0988 -0.104423,-0.17216 -0.06773,-0.0734 -0.163689,-0.11571 -0.09596,-0.0423 -0.214489,-0.0423 -0.110067,0 -0.208845,0.0452 -0.09596,0.0423 -0.169334,0.11854 -0.07056,0.0762 -0.115712,0.18344 -0.04233,0.10442 -0.04516,0.2286 v 0.74507 h -0.166512 v -1.44498 h 0.166512 v 0.34431 q 0.02258,-0.0621 0.07338,-0.127 0.0508,-0.0649 0.124178,-0.11853 0.07338,-0.0565 0.166511,-0.0903 0.09313,-0.0367 0.200379,-0.0367 0.143933,0 0.265289,0.0536 0.124178,0.0508 0.211668,0.14676 0.08749,0.0959 0.135467,0.2286 0.0508,0.12982 0.0508,0.28786 z m 1.867964,-0.71684 q 0,0.0141 -0.0028,0.0367 0,0.0198 -0.0028,0.0339 h -1.247426 q 0,0.11571 0.04798,0.21167 0.04798,0.0959 0.124178,0.16369 0.07902,0.0677 0.177801,0.10724 0.09878,0.0367 0.2032,0.0367 0.132645,0 0.234245,-0.0395 0.101601,-0.0423 0.183445,-0.10724 l 0.110067,0.10442 q -0.104422,0.0931 -0.237067,0.14675 -0.129823,0.0508 -0.293512,0.0508 -0.132645,0 -0.262467,-0.048 -0.129823,-0.048 -0.234246,-0.14394 -0.1016,-0.096 -0.166511,-0.23424 -0.06209,-0.14111 -0.06209,-0.32456 0,-0.15522 0.0508,-0.29069 0.0508,-0.13829 0.143934,-0.23989 0.09313,-0.1016 0.222956,-0.15804 0.132645,-0.0593 0.293512,-0.0593 0.166511,0 0.299156,0.0621 0.132645,0.0621 0.225779,0.16651 0.09313,0.1016 0.141111,0.23989 0.0508,0.13547 0.0508,0.28505 z m -0.714024,-0.60396 q -0.121356,0 -0.220134,0.0423 -0.09878,0.0423 -0.169334,0.11571 -0.07056,0.0706 -0.110067,0.16934 -0.03951,0.0988 -0.03951,0.20884 h 1.080914 q 0,-0.10442 -0.03951,-0.20038 -0.03951,-0.0988 -0.112889,-0.17215 -0.07056,-0.0734 -0.169334,-0.11854 -0.09878,-0.0452 -0.220134,-0.0452 z"
     id="text1-7-8"
     style="font-weight:300;font-size:2.82223px;line-height:0;font-family:'Liber Grotesque Family';-inkscape-font-specification:'Liber Grotesque Family, Light';text-align:center;letter-spacing:0.0899583px;word-spacing:0.264583px;text-anchor:middle;fill:#e8e0c8;fill-rule:evenodd;stroke:#e8e0c8;stroke-width:0;stroke-linecap:round;stroke-miterlimit:4.3"
     aria-label="fine&#10;" /><path
     d="m 49.68409,111.57154 q 0,0.0762 0.05927,0.13829 0.05927,0.0593 0.194734,0.1016 l 0.344312,0.1016 q 0.220134,0.0649 0.313268,0.16651 0.09313,0.1016 0.09313,0.23989 0,0.079 -0.03387,0.14675 -0.03387,0.0677 -0.101601,0.11854 -0.06773,0.0508 -0.172156,0.079 -0.104422,0.031 -0.245534,0.031 -0.09878,0 -0.194733,-0.0198 -0.09313,-0.0198 -0.177801,-0.0536 -0.08185,-0.0339 -0.149578,-0.079 -0.06773,-0.048 -0.112889,-0.1016 l 0.127,-0.0988 q 0.04233,0.048 0.1016,0.0847 0.05927,0.0367 0.127001,0.0649 0.06773,0.0254 0.138289,0.0395 0.07338,0.0141 0.141111,0.0141 0.197556,0 0.287868,-0.0649 0.09313,-0.0677 0.09313,-0.16087 0,-0.0819 -0.05927,-0.14111 -0.05644,-0.0621 -0.208845,-0.11007 l -0.335846,-0.1016 q -0.197556,-0.0564 -0.299156,-0.15804 -0.09878,-0.10161 -0.09878,-0.23707 0,-0.079 0.03387,-0.14958 0.03387,-0.0734 0.104422,-0.12982 0.07056,-0.0564 0.174978,-0.0903 0.107245,-0.0339 0.248357,-0.0339 0.143933,0 0.251178,0.0452 0.110067,0.0452 0.183445,0.11289 0.0762,0.0677 0.112889,0.14958 0.03669,0.0819 0.03669,0.15805 h -0.163689 q -0.01411,-0.13547 -0.129823,-0.22578 -0.115711,-0.0903 -0.290689,-0.0903 -0.101601,0 -0.177801,0.0226 -0.07338,0.0198 -0.121356,0.0564 -0.04798,0.0367 -0.07056,0.0818 -0.02258,0.0452 -0.02258,0.0931 z m 2.835984,1.08656 H 52.35074 v -0.75072 q 0,-0.11289 -0.04233,-0.21166 -0.04233,-0.0988 -0.115712,-0.17216 -0.07338,-0.0734 -0.172156,-0.11571 -0.09878,-0.0423 -0.211667,-0.0423 -0.110067,0 -0.208845,0.048 -0.09878,0.048 -0.174978,0.12983 -0.07338,0.0818 -0.118534,0.19191 -0.04233,0.11006 -0.04233,0.23424 v 0.68863 h -0.169334 v -2.16748 h 0.169334 v 1.10914 q 0.03669,-0.0875 0.09313,-0.16087 0.05927,-0.0734 0.135467,-0.127 0.0762,-0.0536 0.163689,-0.0818 0.09031,-0.0282 0.18909,-0.0254 0.138289,0 0.259645,0.0564 0.124178,0.0564 0.21449,0.15523 0.09313,0.096 0.146756,0.2286 0.05362,0.12982 0.05362,0.28222 z m 1.955454,-0.72249 q 0,0.14957 -0.05644,0.28222 -0.05362,0.13264 -0.1524,0.23142 -0.09596,0.096 -0.231423,0.1524 -0.132645,0.0564 -0.287867,0.0564 -0.08749,0 -0.169334,-0.0254 -0.08185,-0.0254 -0.152401,-0.0649 -0.06773,-0.0423 -0.121355,-0.096 -0.05362,-0.0536 -0.08467,-0.11289 v 1.02165 h -0.166512 v -2.16748 h 0.166512 v 0.30481 q 0.03104,-0.0593 0.08184,-0.11289 0.05362,-0.0564 0.121356,-0.0988 0.06773,-0.0423 0.149578,-0.0677 0.08185,-0.0254 0.174979,-0.0254 0.155222,0 0.287867,0.0564 0.135467,0.0564 0.231423,0.15522 0.09878,0.096 0.1524,0.2286 0.05644,0.13265 0.05644,0.28223 z m -1.284115,0 q 0,0.11853 0.04233,0.22295 0.04233,0.10442 0.115711,0.18062 0.07338,0.0762 0.172156,0.12136 0.09878,0.0423 0.21449,0.0423 0.118533,0 0.222956,-0.0423 0.104422,-0.0452 0.180623,-0.12136 0.0762,-0.0762 0.121356,-0.18062 0.04516,-0.10442 0.04516,-0.22295 0,-0.11854 -0.04516,-0.22014 -0.04516,-0.10442 -0.121356,-0.18062 -0.0762,-0.0762 -0.180623,-0.11853 -0.104423,-0.0452 -0.222956,-0.0452 -0.115712,0 -0.21449,0.0452 -0.09878,0.0423 -0.172156,0.11853 -0.07338,0.0762 -0.115711,0.18062 -0.04233,0.1016 -0.04233,0.22014 z m 3.064591,0.006 q 0,0.0141 -0.0028,0.0367 0,0.0198 -0.0028,0.0339 h -1.247426 q 0,0.11571 0.04798,0.21166 0.04798,0.096 0.124178,0.16369 0.07902,0.0677 0.177801,0.10725 0.09878,0.0367 0.203201,0.0367 0.132644,0 0.234245,-0.0395 0.1016,-0.0423 0.183445,-0.10724 l 0.110067,0.10442 q -0.104423,0.0931 -0.237068,0.14676 -0.129822,0.0508 -0.293512,0.0508 -0.132644,0 -0.262467,-0.048 -0.129823,-0.048 -0.234245,-0.14393 -0.1016,-0.096 -0.166512,-0.23425 -0.06209,-0.14111 -0.06209,-0.32455 0,-0.15523 0.0508,-0.29069 0.0508,-0.13829 0.143934,-0.23989 0.09313,-0.1016 0.222956,-0.15805 0.132645,-0.0593 0.293512,-0.0593 0.166512,0 0.299157,0.0621 0.132644,0.0621 0.225778,0.16652 0.09313,0.1016 0.141111,0.23988 0.0508,0.13547 0.0508,0.28505 z m -0.714025,-0.60396 q -0.121355,0 -0.220134,0.0423 -0.09878,0.0423 -0.169333,0.11571 -0.07056,0.0705 -0.110067,0.16933 -0.03951,0.0988 -0.03951,0.20885 h 1.080915 q 0,-0.10443 -0.03951,-0.20038 -0.03951,-0.0988 -0.112889,-0.17216 -0.07056,-0.0734 -0.169334,-0.11853 -0.09878,-0.0452 -0.220134,-0.0452 z"
     id="text1-7-8-0"
     style="font-weight:300;font-size:2.82223px;line-height:0;font-family:'Liber Grotesque Family';-inkscape-font-specification:'Liber Grotesque Family, Light';text-align:center;letter-spacing:0.0899583px;word-spacing:0.264583px;text-anchor:middle;fill:#e8e0c8;fill-rule:evenodd;stroke:#e8e0c8;stroke-width:0;stroke-linecap:round;stroke-miterlimit:4.3"
     aria-label="shpe" /><path
     d="m 65.372295,111.92106 v -2.16747 h 0.169334 v 2.16747 z m 2.054227,-0.71685 q 0,0.0141 -0.0028,0.0367 0,0.0198 -0.0028,0.0339 h -1.247426 q 0,0.11571 0.04798,0.21167 0.04798,0.096 0.124178,0.16368 0.07902,0.0677 0.177801,0.10725 0.09878,0.0367 0.2032,0.0367 0.132645,0 0.234245,-0.0395 0.101601,-0.0423 0.183445,-0.10725 l 0.110067,0.10442 q -0.104422,0.0931 -0.237067,0.14676 -0.129823,0.0508 -0.293512,0.0508 -0.132645,0 -0.262467,-0.048 -0.129823,-0.048 -0.234245,-0.14393 -0.101601,-0.096 -0.166512,-0.23425 -0.06209,-0.14111 -0.06209,-0.32455 0,-0.15522 0.0508,-0.29069 0.0508,-0.13829 0.143934,-0.23989 0.09313,-0.1016 0.222956,-0.15805 0.132645,-0.0593 0.293512,-0.0593 0.166512,0 0.299156,0.0621 0.132645,0.0621 0.225779,0.16651 0.09313,0.1016 0.141111,0.23989 0.0508,0.13546 0.0508,0.28504 z m -0.714024,-0.60396 q -0.121356,0 -0.220134,0.0423 -0.09878,0.0423 -0.169334,0.11571 -0.07055,0.0706 -0.110067,0.16933 -0.03951,0.0988 -0.03951,0.20885 h 1.080914 q 0,-0.10442 -0.03951,-0.20038 -0.03951,-0.0988 -0.112889,-0.17216 -0.07056,-0.0734 -0.169334,-0.11853 -0.09878,-0.0452 -0.220134,-0.0452 z m 1.684516,-0.69144 q -0.107244,0 -0.186267,0.0818 -0.0762,0.079 -0.0762,0.20885 v 0.27658 h 0.412046 v 0.14675 h -0.412046 v 1.29823 h -0.166512 v -1.29823 h -0.256822 v -0.14675 h 0.256822 v -0.26812 q 0,-0.0903 0.02822,-0.17215 0.03104,-0.0847 0.08749,-0.14676 0.05644,-0.0621 0.135467,-0.0988 0.08185,-0.0367 0.180623,-0.0367 0.03951,0 0.0762,0.003 0.03669,0.003 0.06209,0.008 v 0.14394 z m 0.637469,2.01225 v -1.29823 H 68.70146 v -0.14675 h 0.333023 v -0.36125 h 0.169334 v 0.36125 h 0.333023 v 0.14675 h -0.333023 v 1.29823 z"
     id="text1-7-8-0-5"
     style="font-weight:300;font-size:2.82223px;line-height:0;font-family:'Liber Grotesque Family';-inkscape-font-specification:'Liber Grotesque Family, Light';text-align:center;letter-spacing:0.0899583px;word-spacing:0.264583px;text-anchor:middle;fill:#e8e0c8;fill-rule:evenodd;stroke:#e8e0c8;stroke-width:0;stroke-linecap:round;stroke-miterlimit:4.3"
     aria-label="left" /><path
     d="m 64.524381,125.32202 h -0.169334 v -1.44498 h 0.146756 v 0.28222 q 0.07056,-0.13829 0.197556,-0.20884 0.127,-0.0734 0.285045,-0.0734 h 0.06491 v 0.14676 h -0.06491 q -0.09878,0 -0.183445,0.0339 -0.08467,0.0339 -0.146756,0.096 -0.05927,0.0621 -0.09595,0.14675 -0.03387,0.0819 -0.03387,0.18345 z m 1.049517,-1.44498 v 1.44498 h -0.169334 v -1.44498 z m -0.217312,-0.57574 q 0,-0.0564 0.03669,-0.0931 0.03951,-0.0395 0.09596,-0.0395 0.05644,0 0.09313,0.0395 0.03951,0.0367 0.03951,0.0931 0,0.0564 -0.03951,0.096 -0.03669,0.0395 -0.09313,0.0395 -0.05645,0 -0.09596,-0.0395 -0.03669,-0.0395 -0.03669,-0.096 z m 0.764469,1.09221 q 0,-0.12136 0.04516,-0.2286 0.04798,-0.10725 0.127,-0.18627 0.07902,-0.0818 0.183445,-0.127 0.107245,-0.048 0.228601,-0.048 0.107245,0 0.2032,0.0367 0.09596,0.0367 0.172156,0.1016 0.08185,-0.0367 0.166512,-0.0508 0.08749,-0.0141 0.191912,-0.0141 h 0.02258 v 0.14676 H 67.13988 q 0.07056,0.0706 0.112889,0.16651 0.04233,0.096 0.04233,0.2032 0,0.12135 -0.04798,0.2286 -0.04516,0.10442 -0.127,0.18344 -0.07902,0.079 -0.186268,0.127 -0.107244,0.0452 -0.2286,0.0452 -0.09596,0 -0.191912,-0.0367 -0.09596,-0.0395 -0.160867,-0.0988 -0.1016,0.0339 -0.158045,0.096 -0.05362,0.0593 -0.05362,0.14675 0,0.0931 0.05927,0.14394 0.05927,0.0508 0.169333,0.0508 h 0.55598 q 0.242712,0 0.364067,0.10724 0.124179,0.10725 0.124179,0.28505 0,0.0931 -0.03951,0.16651 -0.03669,0.0762 -0.107244,0.127 -0.06773,0.0508 -0.16369,0.079 -0.09596,0.0282 -0.214489,0.0282 -0.149578,0 -0.276579,-0.0452 -0.124178,-0.0423 -0.214489,-0.11853 -0.09031,-0.0762 -0.141112,-0.18345 -0.04798,-0.10442 -0.03951,-0.2286 l 0.08185,-0.0593 q -0.143934,-0.0113 -0.231423,-0.096 -0.08749,-0.0819 -0.08467,-0.22578 0.0028,-0.11853 0.07902,-0.21167 0.07902,-0.096 0.197556,-0.13829 -0.06491,-0.0762 -0.1016,-0.16933 -0.03669,-0.096 -0.03669,-0.2032 z m 0.155223,0 q 0,0.0903 0.03387,0.16933 0.03387,0.0762 0.09031,0.13547 0.05927,0.0564 0.135467,0.0903 0.07902,0.0339 0.169334,0.0339 0.09031,0 0.169334,-0.0339 0.07902,-0.0339 0.135467,-0.0903 0.05927,-0.0593 0.09313,-0.13547 0.03387,-0.079 0.03387,-0.16933 0,-0.0903 -0.03387,-0.16934 -0.03387,-0.079 -0.09313,-0.13546 -0.05644,-0.0593 -0.135467,-0.0931 -0.07902,-0.0339 -0.169334,-0.0339 -0.09031,0 -0.169334,0.0339 -0.0762,0.0339 -0.135467,0.0931 -0.05645,0.0564 -0.09031,0.13546 -0.03387,0.079 -0.03387,0.16934 z m 0.612424,1.524 q 0.160867,0 0.259645,-0.0621 0.09878,-0.0593 0.09878,-0.18344 0,-0.10725 -0.08185,-0.17216 -0.08184,-0.0621 -0.239889,-0.0621 h -0.572913 q -0.0056,0.10443 0.03387,0.19191 0.03951,0.0875 0.110067,0.14958 0.07338,0.0649 0.172156,0.1016 0.1016,0.0367 0.220134,0.0367 z m 2.37314,-0.59549 h -0.169334 v -0.75071 q 0,-0.11289 -0.04233,-0.21167 -0.04233,-0.0988 -0.115712,-0.17216 -0.07338,-0.0734 -0.172156,-0.11571 -0.09878,-0.0423 -0.211667,-0.0423 -0.110067,0 -0.208845,0.048 -0.09878,0.048 -0.174978,0.12982 -0.07338,0.0819 -0.118534,0.19191 -0.04233,0.11007 -0.04233,0.23425 v 0.68862 h -0.169333 v -2.16747 h 0.169333 v 1.10914 q 0.03669,-0.0875 0.09313,-0.16087 0.05927,-0.0734 0.135467,-0.127 0.0762,-0.0536 0.163689,-0.0819 0.09031,-0.0282 0.18909,-0.0254 0.138289,0 0.259645,0.0564 0.124178,0.0564 0.21449,0.15522 0.09313,0.096 0.146755,0.2286 0.05362,0.12982 0.05362,0.28222 z m 0.620539,0 v -1.29822 h -0.333024 v -0.14676 h 0.333024 v -0.36125 h 0.169333 v 0.36125 h 0.333024 v 0.14676 h -0.333024 v 1.29822 z"
     id="text1-7-8-0-5-4"
     style="font-weight:300;font-size:2.82223px;line-height:0;font-family:'Liber Grotesque Family';-inkscape-font-specification:'Liber Grotesque Family, Light';text-align:center;letter-spacing:0.0899583px;word-spacing:0.264583px;text-anchor:middle;fill:#e8e0c8;fill-rule:evenodd;stroke:#e8e0c8;stroke-width:0;stroke-linecap:round;stroke-miterlimit:4.3"
     aria-label="right&#10;" /><path
     d="m 49.723122,123.88832 q 0,0.0762 0.05927,0.13829 0.05927,0.0593 0.194734,0.1016 l 0.344312,0.1016 q 0.220134,0.0649 0.313268,0.16651 0.09313,0.1016 0.09313,0.23989 0,0.079 -0.03387,0.14675 -0.03387,0.0677 -0.101601,0.11854 -0.06773,0.0508 -0.172156,0.079 -0.104422,0.0311 -0.245534,0.0311 -0.09878,0 -0.194734,-0.0198 -0.09313,-0.0198 -0.1778,-0.0536 -0.08185,-0.0339 -0.149578,-0.079 -0.06773,-0.048 -0.112889,-0.1016 l 0.127,-0.0988 q 0.04233,0.048 0.1016,0.0847 0.05927,0.0367 0.127001,0.0649 0.06773,0.0254 0.138289,0.0395 0.07338,0.0141 0.141111,0.0141 0.197556,0 0.287868,-0.0649 0.09313,-0.0677 0.09313,-0.16087 0,-0.0819 -0.05927,-0.14111 -0.05644,-0.0621 -0.208845,-0.11007 l -0.335846,-0.1016 q -0.197556,-0.0564 -0.299156,-0.15804 -0.09878,-0.10161 -0.09878,-0.23707 0,-0.079 0.03387,-0.14958 0.03387,-0.0734 0.104422,-0.12982 0.07056,-0.0564 0.174978,-0.0903 0.107245,-0.0339 0.248357,-0.0339 0.143933,0 0.251178,0.0451 0.110067,0.0452 0.183445,0.11289 0.0762,0.0677 0.112889,0.14958 0.03669,0.0819 0.03669,0.15805 h -0.163689 q -0.01411,-0.13547 -0.129823,-0.22578 -0.115711,-0.0903 -0.290689,-0.0903 -0.101601,0 -0.177801,0.0226 -0.07338,0.0198 -0.121356,0.0564 -0.04798,0.0367 -0.07056,0.0818 -0.02258,0.0452 -0.02258,0.0931 z m 2.835984,1.08656 h -0.169334 v -0.75072 q 0,-0.11289 -0.04233,-0.21166 -0.04233,-0.0988 -0.115712,-0.17216 -0.07338,-0.0734 -0.172156,-0.11571 -0.09878,-0.0423 -0.211667,-0.0423 -0.110067,0 -0.208845,0.048 -0.09878,0.048 -0.174978,0.12983 -0.07338,0.0818 -0.118534,0.19191 -0.04233,0.11006 -0.04233,0.23424 v 0.68863 H 51.13388 v -2.16748 h 0.169333 v 1.10914 q 0.03669,-0.0875 0.09313,-0.16087 0.05927,-0.0734 0.135467,-0.127 0.0762,-0.0536 0.163689,-0.0818 0.09031,-0.0282 0.18909,-0.0254 0.138289,0 0.259645,0.0564 0.124178,0.0564 0.21449,0.15523 0.09313,0.096 0.146756,0.2286 0.05362,0.12982 0.05362,0.28222 z m 1.955454,-0.72249 q 0,0.14957 -0.05645,0.28222 -0.05362,0.13264 -0.1524,0.23142 -0.09596,0.096 -0.231423,0.1524 -0.132645,0.0564 -0.287867,0.0564 -0.08749,0 -0.169334,-0.0254 -0.08185,-0.0254 -0.152401,-0.0649 -0.06773,-0.0423 -0.121355,-0.096 -0.05362,-0.0536 -0.08467,-0.11289 v 1.02165 h -0.166512 v -2.16748 h 0.166512 v 0.30481 q 0.03104,-0.0593 0.08184,-0.11289 0.05362,-0.0564 0.121356,-0.0988 0.06773,-0.0423 0.149578,-0.0677 0.08185,-0.0254 0.174979,-0.0254 0.155222,0 0.287867,0.0565 0.135467,0.0564 0.231423,0.15522 0.09878,0.096 0.1524,0.2286 0.05645,0.13265 0.05645,0.28223 z m -1.284115,0 q 0,0.11853 0.04233,0.22295 0.04233,0.10442 0.115711,0.18062 0.07338,0.0762 0.172156,0.12136 0.09878,0.0423 0.21449,0.0423 0.118533,0 0.222956,-0.0423 0.104422,-0.0452 0.180623,-0.12136 0.0762,-0.0762 0.121356,-0.18062 0.04515,-0.10442 0.04515,-0.22295 0,-0.11854 -0.04515,-0.22014 -0.04516,-0.10442 -0.121356,-0.18062 -0.0762,-0.0762 -0.180623,-0.11853 -0.104423,-0.0452 -0.222956,-0.0452 -0.115712,0 -0.21449,0.0452 -0.09878,0.0423 -0.172156,0.11853 -0.07338,0.0762 -0.115711,0.18062 -0.04233,0.1016 -0.04233,0.22014 z m 3.064591,0.006 q 0,0.0141 -0.0028,0.0367 0,0.0198 -0.0028,0.0339 h -1.247426 q 0,0.11571 0.04798,0.21166 0.04798,0.096 0.124178,0.16369 0.07902,0.0677 0.177801,0.10725 0.09878,0.0367 0.203201,0.0367 0.132644,0 0.234245,-0.0395 0.1016,-0.0423 0.183445,-0.10724 l 0.110067,0.10442 q -0.104423,0.0931 -0.237068,0.14676 -0.129822,0.0508 -0.293512,0.0508 -0.132645,0 -0.262467,-0.048 -0.129823,-0.048 -0.234245,-0.14393 -0.1016,-0.096 -0.166512,-0.23425 -0.06209,-0.14111 -0.06209,-0.32455 0,-0.15523 0.0508,-0.29069 0.0508,-0.13829 0.143934,-0.23989 0.09313,-0.1016 0.222956,-0.15805 0.132645,-0.0593 0.293512,-0.0593 0.166512,0 0.299157,0.0621 0.132644,0.0621 0.225778,0.16652 0.09313,0.1016 0.141111,0.23988 0.0508,0.13547 0.0508,0.28505 z m -0.714025,-0.60396 q -0.121356,0 -0.220134,0.0423 -0.09878,0.0423 -0.169333,0.11571 -0.07056,0.0706 -0.110067,0.16933 -0.03951,0.0988 -0.03951,0.20885 h 1.080915 q 0,-0.10443 -0.03951,-0.20038 -0.03951,-0.0988 -0.112889,-0.17216 -0.07056,-0.0734 -0.169334,-0.11853 -0.09878,-0.0452 -0.220134,-0.0452 z"
     id="text1-7-8-0-7"
     style="font-weight:300;font-size:2.82223px;line-height:0;font-family:'Liber Grotesque Family';-inkscape-font-specification:'Liber Grotesque Family, Light';text-align:center;letter-spacing:0.0899583px;word-spacing:0.264583px;text-anchor:middle;fill:#e8e0c8;fill-rule:evenodd;stroke:#e8e0c8;stroke-width:0;stroke-linecap:round;stroke-miterlimit:4.3"
     aria-label="shpe" /><path
     d="m 36.811243,123.63997 q 0,-0.0706 -0.01976,-0.13829 -0.01693,-0.0677 -0.05927,-0.12136 -0.03951,-0.0564 -0.107245,-0.0903 -0.06773,-0.0339 -0.166511,-0.0339 -0.07338,0 -0.138289,0.0282 -0.06209,0.0254 -0.110067,0.0762 -0.04516,0.0508 -0.07338,0.12136 -0.02822,0.0705 -0.02822,0.15804 v 0.29351 h 0.465668 v 0.14676 h -0.465668 v 1.29822 h -0.166511 v -1.29822 h -0.273757 v -0.14676 h 0.273757 v -0.29351 q 0,-0.10724 0.03669,-0.20602 0.03669,-0.0988 0.104422,-0.17216 0.06773,-0.0762 0.16369,-0.11853 0.09595,-0.0452 0.214489,-0.0452 0.127,0 0.222956,0.0452 0.09596,0.0423 0.160867,0.11853 0.06773,0.0734 0.101601,0.17216 0.03387,0.096 0.03387,0.20602 z m 0.169333,0.29351 v 1.44498 h -0.169333 v -1.44498 z m 2.087744,1.44498 h -0.166511 v -0.77893 q 0,-0.11289 -0.03951,-0.21167 -0.03669,-0.0988 -0.104423,-0.17216 -0.06773,-0.0734 -0.163689,-0.11571 -0.09596,-0.0423 -0.21449,-0.0423 -0.110067,0 -0.208845,0.0452 -0.09596,0.0423 -0.169334,0.11853 -0.07055,0.0762 -0.115711,0.18344 -0.04233,0.10443 -0.04516,0.2286 v 0.74507 h -0.166511 v -1.44498 h 0.166511 v 0.34431 q 0.02258,-0.0621 0.07338,-0.127 0.0508,-0.0649 0.124178,-0.11853 0.07338,-0.0564 0.166512,-0.0903 0.09313,-0.0367 0.200378,-0.0367 0.143934,0 0.26529,0.0536 0.124178,0.0508 0.211667,0.14676 0.08749,0.096 0.135467,0.2286 0.0508,0.12982 0.0508,0.28787 z m 1.867965,-0.71684 q 0,0.0141 -0.0028,0.0367 0,0.0197 -0.0028,0.0339 h -1.247425 q 0,0.11571 0.04798,0.21167 0.04798,0.096 0.124178,0.16369 0.07902,0.0677 0.1778,0.10724 0.09878,0.0367 0.203201,0.0367 0.132645,0 0.234245,-0.0395 0.1016,-0.0423 0.183445,-0.10724 l 0.110067,0.10442 q -0.104423,0.0931 -0.237068,0.14676 -0.129822,0.0508 -0.293512,0.0508 -0.132644,0 -0.262467,-0.048 -0.129822,-0.048 -0.234245,-0.14394 -0.1016,-0.096 -0.166512,-0.23424 -0.06209,-0.14111 -0.06209,-0.32456 0,-0.15522 0.0508,-0.29069 0.0508,-0.13829 0.143933,-0.23989 0.09313,-0.1016 0.222956,-0.15804 0.132645,-0.0593 0.293512,-0.0593 0.166512,0 0.299157,0.0621 0.132645,0.0621 0.225778,0.16651 0.09313,0.1016 0.141112,0.23989 0.0508,0.13547 0.0508,0.28505 z m -0.714024,-0.60396 q -0.121356,0 -0.220134,0.0423 -0.09878,0.0423 -0.169334,0.11571 -0.07056,0.0706 -0.110067,0.16934 -0.03951,0.0988 -0.03951,0.20884 h 1.080914 q 0,-0.10442 -0.03951,-0.20037 -0.03951,-0.0988 -0.11289,-0.17216 -0.07055,-0.0734 -0.169333,-0.11853 -0.09878,-0.0452 -0.220134,-0.0452 z"
     id="text1-7-8-5"
     style="font-weight:300;font-size:2.82223px;line-height:0;font-family:'Liber Grotesque Family';-inkscape-font-specification:'Liber Grotesque Family, Light';text-align:center;letter-spacing:0.0899583px;word-spacing:0.264583px;text-anchor:middle;fill:#e8e0c8;fill-rule:evenodd;stroke:#e8e0c8;stroke-width:0;stroke-linecap:round;stroke-miterlimit:4.3"
     aria-label="fine&#10;" /><path
     d="m 21.074662,125.11035 0.510823,-1.29258 h 0.183445 l -0.581379,1.44498 h -0.242712 l -0.581379,-1.44498 h 0.183445 l 0.510823,1.29258 z m 1.458739,-1.9417 -0.541869,2.16748 h -0.169333 l 0.541868,-2.16748 z m 0.352424,1.37161 q 0,-0.15522 0.05644,-0.28787 0.05927,-0.13547 0.158045,-0.23424 0.1016,-0.10161 0.237067,-0.15805 0.135467,-0.0593 0.287868,-0.0593 0.155222,0 0.29069,0.0593 0.135467,0.0564 0.234245,0.15805 0.1016,0.0988 0.158045,0.23424 0.05927,0.13265 0.05927,0.28787 0,0.15522 -0.05927,0.29069 -0.05645,0.13546 -0.158045,0.23706 -0.09878,0.0988 -0.234245,0.15805 -0.135468,0.0564 -0.29069,0.0564 -0.152401,0 -0.287868,-0.0564 -0.135467,-0.0593 -0.237067,-0.15805 -0.09878,-0.1016 -0.158045,-0.23706 -0.05644,-0.13547 -0.05644,-0.29069 z m 0.166511,0 q 0,0.11853 0.04516,0.22578 0.04516,0.10442 0.124178,0.18344 0.07902,0.0762 0.180623,0.12136 0.104422,0.0451 0.222956,0.0451 0.118534,0 0.222956,-0.0451 0.104423,-0.0452 0.183445,-0.12136 0.07902,-0.079 0.124178,-0.18344 0.04516,-0.10725 0.04516,-0.22578 0,-0.11854 -0.04516,-0.22296 -0.04516,-0.10442 -0.124178,-0.18344 -0.07902,-0.079 -0.183445,-0.12418 -0.104422,-0.0452 -0.222956,-0.0452 -0.118534,0 -0.222956,0.0452 -0.101601,0.0451 -0.180623,0.12418 -0.07902,0.079 -0.124178,0.18344 -0.04516,0.10442 -0.04516,0.22296 z m 2.965811,0.5334 q -0.1016,0.10442 -0.234245,0.16087 -0.132645,0.0564 -0.293512,0.0564 -0.155223,0 -0.293512,-0.0593 -0.135467,-0.0593 -0.237067,-0.16086 -0.101601,-0.1016 -0.160867,-0.23707 -0.05927,-0.13829 -0.05927,-0.29351 0,-0.15522 0.05927,-0.29069 0.05927,-0.13829 0.160867,-0.23989 0.1016,-0.1016 0.237067,-0.16087 0.138289,-0.0593 0.293512,-0.0593 0.166512,0 0.304801,0.0621 0.138289,0.0621 0.237067,0.16934 l -0.115711,0.11289 q -0.07902,-0.0847 -0.18909,-0.12983 -0.107244,-0.048 -0.237067,-0.048 -0.121356,0 -0.228601,0.048 -0.107244,0.0452 -0.186267,0.12418 -0.07902,0.079 -0.124178,0.18627 -0.04516,0.10442 -0.04516,0.22578 0,0.12135 0.04516,0.2286 0.04516,0.10724 0.124178,0.18627 0.07902,0.079 0.186267,0.12417 0.107245,0.0452 0.228601,0.0452 0.129823,0 0.231423,-0.0423 0.104422,-0.0452 0.186267,-0.12418 z m 0.544335,0.18909 v -1.29823 h -0.333023 v -0.14675 h 0.333023 v -0.36125 h 0.169334 v 0.36125 h 0.333023 v 0.14675 h -0.333023 v 1.29823 z"
     id="text1-7-7"
     style="font-weight:300;font-size:2.82223px;line-height:0;font-family:'Liber Grotesque Family';-inkscape-font-specification:'Liber Grotesque Family, Light';text-align:center;letter-spacing:0.0899583px;word-spacing:0.264583px;text-anchor:middle;fill:#e8e0c8;fill-rule:evenodd;stroke:#e8e0c8;stroke-width:0;stroke-linecap:round;stroke-miterlimit:4.3"
     aria-label="v/oct&#10;" /><path
     d="m 64.663023,90.537175 q 0,0.0762 0.05927,0.138289 0.05927,0.05927 0.194733,0.1016 l 0.344312,0.101601 q 0.220134,0.06491 0.313268,0.166511 0.09313,0.101601 0.09313,0.23989 0,0.07902 -0.03387,0.146756 -0.03387,0.06773 -0.1016,0.118534 -0.06773,0.0508 -0.172156,0.07902 -0.104423,0.03104 -0.245534,0.03104 -0.09878,0 -0.194734,-0.01976 -0.09313,-0.01976 -0.177801,-0.05362 -0.08185,-0.03387 -0.149578,-0.07902 -0.06773,-0.04798 -0.112889,-0.1016 l 0.127,-0.09878 q 0.04233,0.04798 0.1016,0.08467 0.05927,0.03669 0.127001,0.06491 0.06773,0.0254 0.138289,0.03951 0.07338,0.01411 0.141112,0.01411 0.197556,0 0.287867,-0.06491 0.09313,-0.06773 0.09313,-0.160867 0,-0.08185 -0.05927,-0.141112 -0.05644,-0.06209 -0.208845,-0.110067 l -0.335846,-0.1016 q -0.197556,-0.05644 -0.299156,-0.158045 -0.09878,-0.1016 -0.09878,-0.237067 0,-0.07902 0.03387,-0.149578 0.03387,-0.07338 0.104422,-0.129823 0.07056,-0.05644 0.174978,-0.09031 0.107245,-0.03387 0.248357,-0.03387 0.143933,0 0.251178,0.04516 0.110067,0.04515 0.183445,0.112889 0.0762,0.06773 0.112889,0.149578 0.03669,0.08185 0.03669,0.158045 h -0.163689 q -0.01411,-0.135467 -0.129823,-0.225778 -0.115711,-0.09031 -0.290689,-0.09031 -0.101601,0 -0.177801,0.02258 -0.07338,0.01976 -0.121356,0.05644 -0.04798,0.03669 -0.07055,0.08184 -0.02258,0.04516 -0.02258,0.09313 z m 2.835984,1.086559 H 67.329673 V 90.87302 q 0,-0.112889 -0.04233,-0.211667 -0.04233,-0.09878 -0.115712,-0.172156 -0.07338,-0.07338 -0.172156,-0.115711 -0.09878,-0.04233 -0.211667,-0.04233 -0.110067,0 -0.208845,0.04798 -0.09878,0.04798 -0.174978,0.129823 -0.07338,0.08184 -0.118534,0.191911 -0.04233,0.110067 -0.04233,0.234245 v 0.688625 h -0.169334 v -2.167473 h 0.169334 v 1.109136 q 0.03669,-0.08749 0.09313,-0.160867 0.05927,-0.07338 0.135467,-0.127 0.0762,-0.05362 0.16369,-0.08185 0.09031,-0.02822 0.189089,-0.0254 0.138289,0 0.259645,0.05644 0.124178,0.05644 0.21449,0.155222 0.09313,0.09596 0.146756,0.228601 0.05362,0.129822 0.05362,0.282223 z m 1.955454,-0.722491 q 0,0.149578 -0.05644,0.282223 -0.05362,0.132644 -0.152401,0.231422 -0.09596,0.09596 -0.231423,0.152401 -0.132645,0.05644 -0.287867,0.05644 -0.08749,0 -0.169334,-0.0254 -0.08184,-0.0254 -0.1524,-0.06491 -0.06773,-0.04233 -0.121356,-0.09596 -0.05362,-0.05362 -0.08467,-0.112889 v 1.021647 h -0.166512 v -2.167472 h 0.166512 v 0.304801 q 0.03104,-0.05927 0.08184,-0.11289 0.05362,-0.05644 0.121356,-0.09878 0.06773,-0.04233 0.149579,-0.06773 0.08184,-0.0254 0.174978,-0.0254 0.155222,0 0.287867,0.05644 0.135467,0.05644 0.231423,0.155223 0.09878,0.09596 0.152401,0.228601 0.05644,0.132644 0.05644,0.282223 z m -1.284114,0 q 0,0.118533 0.04233,0.222956 0.04233,0.104422 0.115711,0.180623 0.07338,0.0762 0.172156,0.121355 0.09878,0.04233 0.21449,0.04233 0.118534,0 0.222956,-0.04233 0.104423,-0.04515 0.180623,-0.121355 0.0762,-0.0762 0.121356,-0.180623 0.04516,-0.104423 0.04516,-0.222956 0,-0.118534 -0.04516,-0.220134 -0.04516,-0.104423 -0.121356,-0.180623 -0.0762,-0.0762 -0.180623,-0.118534 -0.104422,-0.04515 -0.222956,-0.04515 -0.115712,0 -0.21449,0.04515 -0.09878,0.04233 -0.172156,0.118534 -0.07338,0.0762 -0.115711,0.180623 -0.04233,0.1016 -0.04233,0.220134 z m 3.06459,0.0056 q 0,0.01411 -0.0028,0.03669 0,0.01976 -0.0028,0.03387 h -1.247425 q 0,0.115711 0.04798,0.211667 0.04798,0.09596 0.124179,0.163689 0.07902,0.06773 0.1778,0.107245 0.09878,0.03669 0.203201,0.03669 0.132644,0 0.234245,-0.03951 0.1016,-0.04233 0.183445,-0.107245 l 0.110067,0.104423 q -0.104423,0.09313 -0.237068,0.146756 -0.129822,0.0508 -0.293512,0.0508 -0.132644,0 -0.262467,-0.04798 -0.129823,-0.04798 -0.234245,-0.143934 -0.1016,-0.09596 -0.166512,-0.234245 -0.06209,-0.141111 -0.06209,-0.324556 0,-0.155223 0.0508,-0.29069 0.0508,-0.138289 0.143934,-0.23989 0.09313,-0.1016 0.222956,-0.158045 0.132645,-0.05927 0.293512,-0.05927 0.166512,0 0.299157,0.06209 0.132645,0.06209 0.225778,0.166511 0.09313,0.101601 0.141112,0.23989 0.0508,0.135467 0.0508,0.285045 z M 70.520913,90.30293 q -0.121356,0 -0.220134,0.04233 -0.09878,0.04233 -0.169334,0.115712 -0.07056,0.07055 -0.110067,0.169334 -0.03951,0.09878 -0.03951,0.208845 h 1.080914 q 0,-0.104423 -0.03951,-0.200379 -0.03951,-0.09878 -0.112889,-0.172156 -0.07055,-0.07338 -0.169334,-0.118533 -0.09878,-0.04516 -0.220133,-0.04516 z m 3.419126,1.171225 v 0.149579 h -1.123247 l -0.04233,-0.07056 0.939803,-1.22767 h -0.894647 v -0.146756 h 1.095025 l 0.03951,0.07055 -0.93698,1.224848 z"
     id="text1-8"
     style="font-weight:300;font-size:2.82223px;line-height:0;font-family:'Liber Grotesque Family';-inkscape-font-specification:'Liber Grotesque Family, Light';text-align:center;letter-spacing:0.0899583px;word-spacing:0.264583px;text-anchor:middle;fill:#e8e0c8;fill-rule:evenodd;stroke:#e8e0c8;stroke-width:0;stroke-linecap:round;stroke-miterlimit:4.3"
     aria-label="shpe z" /></svg>
