<?xml version="1.0" encoding="UTF-8" standalone="no"?>
<svg
   width="60.96mm"
   height="128.5mm"
   viewBox="0 0 60.96 128.5"
   version="1.1"
   id="svg28"
   xmlns="http://www.w3.org/2000/svg"
   xmlns:svg="http://www.w3.org/2000/svg">
  <defs
     id="defs28" />
  <!-- Dark panel background -->
  <rect
     width="60.959999"
     height="128.5"
     fill="#1a1a1a"
     stroke="#0a0a0a"
     stroke-width="0.5"
     id="rect1"
     x="0"
     y="0" />
  <path
     d="m 19.337569,118.84646 -0.02687,0.22014 h -0.551905 l -0.05064,0.41135 h 0.551905 l -0.02481,0.20464 H 18.68231 l -0.09302,0.75964 h -0.236679 l 0.197405,-1.59577 z m 0.44235,0.15916 q 0,0.0496 -0.03617,0.0858 -0.03617,0.0362 -0.08682,0.0362 -0.05064,0 -0.08785,-0.0372 -0.03617,-0.0393 -0.03617,-0.0899 0,-0.0507 0.03514,-0.0858 0.03617,-0.0362 0.08578,-0.0362 0.05064,0 0.08785,0.0382 0.03824,0.0372 0.03824,0.0889 z m -0.07131,0.46303 -0.11989,0.97358 h -0.22841 l 0.11989,-0.97358 z m 0.546737,0 -0.01034,0.0899 q 0.135393,-0.11369 0.273886,-0.11369 0.142627,0 0.22841,0.0796 0.08372,0.0796 0.08372,0.21704 0,0.0744 -0.0124,0.17776 l -0.06511,0.52297 h -0.227377 l 0.07028,-0.57257 q 0.0041,-0.032 0.0052,-0.0568 0.0021,-0.0248 0.0021,-0.0444 0,-0.13229 -0.142627,-0.13229 -0.08785,0 -0.150895,0.0537 -0.05168,0.0424 -0.07648,0.10335 -0.01344,0.031 -0.02274,0.0765 -0.0093,0.0444 -0.01654,0.10335 l -0.05788,0.46922 h -0.22841 l 0.11989,-0.97358 z m 1.051101,0.56844 q 0,0.10748 0.07441,0.17673 0.07545,0.0692 0.192236,0.0692 0.160198,0 0.245981,-0.11989 l 0.170532,0.0941 q -0.08888,0.11989 -0.182935,0.16743 -0.09509,0.0486 -0.237712,0.0486 -0.226343,0 -0.360702,-0.13333 -0.134359,-0.13332 -0.134359,-0.35657 0,-0.23357 0.147795,-0.39067 0.146761,-0.15606 0.371037,-0.15606 0.217042,0 0.342099,0.14056 0.127124,0.14159 0.127124,0.3793 0,0.0248 -0.0031,0.0806 z m 0.523999,-0.18397 q -0.03617,-0.22531 -0.24908,-0.22531 -0.201539,0 -0.262517,0.22531 z m 1.746667,-0.12506 -0.08785,0.71417 h -0.236678 l 0.09095,-0.7307 -0.414446,-0.86507 h 0.254248 l 0.294557,0.63459 0.418579,-0.63459 h 0.271819 z"
     id="text20-7"
     style="font-style:italic;font-weight:500;font-size:2.11667px;font-family:Futura;-inkscape-font-specification:'Futura, Medium Italic';fill:#ffffff;fill-rule:evenodd;stroke:#2f2f2f;stroke-width:0.079375"
     aria-label="Fine Y" />
  <path
     d="m 30.891775,118.86195 -0.15813,0.1509 q -0.112655,-0.16537 -0.258383,-0.16537 -0.10542,0 -0.174667,0.0651 -0.06925,0.0651 -0.06925,0.16329 0,0.0785 0.04754,0.1354 0.02377,0.0269 0.06925,0.061 0.04651,0.0341 0.115755,0.0754 0.205673,0.11989 0.274919,0.21704 0.07028,0.0982 0.07028,0.25735 0,0.20671 -0.136426,0.33487 -0.134359,0.12815 -0.354501,0.12815 -0.177767,0 -0.300757,-0.0765 -0.06201,-0.0382 -0.115755,-0.0992 -0.05374,-0.062 -0.103353,-0.14986 l 0.179834,-0.12195 q 0.07338,0.12919 0.143661,0.17776 0.07028,0.0486 0.182935,0.0486 0.125057,0 0.195337,-0.0661 0.07131,-0.0661 0.07131,-0.1881 0,-0.0837 -0.05168,-0.14159 -0.02584,-0.03 -0.07752,-0.0672 -0.05064,-0.0372 -0.129191,-0.0837 -0.179834,-0.10645 -0.251148,-0.20257 -0.06821,-0.0961 -0.06821,-0.24081 0,-0.19327 0.134359,-0.3204 0.134359,-0.12816 0.338998,-0.12816 0.133325,0 0.227376,0.0537 0.09612,0.0537 0.197405,0.18293 z m 0.561207,-0.35346 -0.10542,0.85473 q 0.137459,-0.10646 0.279053,-0.10646 0.142627,0 0.227376,0.0755 0.08785,0.0744 0.08785,0.19534 0,0.0289 -0.0031,0.0661 -0.0031,0.0362 -0.0083,0.0827 l -0.07131,0.57774 h -0.22841 l 0.07235,-0.59015 q 0.0062,-0.0475 0.0062,-0.0858 0,-0.13023 -0.152962,-0.13023 -0.219109,0 -0.255282,0.29663 l -0.06305,0.50953 h -0.22841 l 0.214974,-1.74563 z m 1.800409,0.77204 -0.119889,0.97359 h -0.22841 l 0.01344,-0.10542 q -0.146761,0.12816 -0.303857,0.12816 -0.193271,0 -0.315227,-0.13126 -0.121957,-0.13126 -0.121957,-0.34003 0,-0.24082 0.139527,-0.39481 0.141593,-0.154 0.362769,-0.154 0.104387,0 0.177767,0.0341 0.07441,0.0341 0.151929,0.11782 l 0.0155,-0.12816 z m -0.278019,0.45889 q 0,-0.12919 -0.07441,-0.20981 -0.07441,-0.0817 -0.192236,-0.0817 -0.128158,0 -0.214974,0.10026 -0.08682,0.10128 -0.08682,0.24804 0,0.12816 0.07235,0.20981 0.07235,0.0817 0.186036,0.0817 0.12609,0 0.218074,-0.10232 0.09198,-0.10439 0.09198,-0.24598 z m 0.824757,-0.45889 -0.0124,0.10232 q 0.147795,-0.12609 0.311093,-0.12609 0.194304,0 0.323495,0.13539 0.129191,0.1354 0.129191,0.3421 0,0.22945 -0.147795,0.38654 -0.146761,0.15607 -0.364836,0.15607 -0.111621,0 -0.182935,-0.0351 -0.07441,-0.0351 -0.15813,-0.12713 l -0.08578,0.6966 h -0.228416 l 0.188103,-1.53066 z m 0.522966,0.46302 q 0,-0.12919 -0.07441,-0.21187 -0.07441,-0.0837 -0.19017,-0.0837 -0.138493,0 -0.23151,0.10129 -0.09302,0.10129 -0.09302,0.24908 0,0.12919 0.07855,0.20774 0.07855,0.0806 0.202572,0.0806 0.130225,0 0.219108,-0.0992 0.08888,-0.10129 0.08888,-0.24392 z m 0.659392,0.10542 q 0,0.10749 0.07441,0.17674 0.07545,0.0692 0.192237,0.0692 0.160197,0 0.24598,-0.11988 l 0.170533,0.094 q -0.08888,0.11989 -0.182935,0.16743 -0.09508,0.0486 -0.237712,0.0486 -0.226343,0 -0.360702,-0.13332 -0.134359,-0.13333 -0.134359,-0.35657 0,-0.23358 0.147795,-0.39067 0.146761,-0.15607 0.371037,-0.15607 0.217041,0 0.342099,0.14056 0.127124,0.1416 0.127124,0.37931 0,0.0248 -0.0031,0.0806 z m 0.524,-0.18396 q -0.03617,-0.22531 -0.249081,-0.22531 -0.201538,0 -0.262517,0.22531 z m 1.746666,-0.12506 -0.08785,0.71417 h -0.236678 l 0.09095,-0.73071 -0.414445,-0.86506 h 0.254248 l 0.294556,0.63459 0.41858,-0.63459 h 0.271818 z"
     id="text20-7-5"
     style="font-style:italic;font-weight:500;font-size:2.11667px;font-family:Futura;-inkscape-font-specification:'Futura, Medium Italic';fill:#ffffff;fill-rule:evenodd;stroke:#2f2f2f;stroke-width:0.079375"
     aria-label="Shape Y" />
  <path
     d="m 47.994033,119.59786 q 0,0.22324 -0.155029,0.37517 -0.153996,0.15193 -0.38034,0.15193 -0.236678,0 -0.38654,-0.14366 -0.150895,-0.14469 -0.150895,-0.36587 0,-0.22634 0.156063,-0.3762 0.157096,-0.1509 0.392741,-0.1509 0.231511,0 0.377239,0.14263 0.146761,0.14056 0.146761,0.3669 z m -0.230477,-0.0114 q 0,-0.14056 -0.08165,-0.22221 -0.08165,-0.0847 -0.213941,-0.0847 -0.137459,0 -0.227376,0.0941 -0.08992,0.0951 -0.08992,0.23874 0,0.1447 0.08475,0.23255 0.08475,0.0899 0.219108,0.0899 0.134359,0 0.221176,-0.0982 0.08785,-0.0971 0.08785,-0.25012 z m 1.386997,-0.46612 -0.06925,0.56638 q -0.0083,0.0723 -0.02067,0.12609 -0.0124,0.0537 -0.02687,0.0899 -0.02894,0.0692 -0.09715,0.12299 -0.115756,0.0909 -0.304892,0.0909 -0.179834,0 -0.287321,-0.092 -0.107487,-0.093 -0.107487,-0.24908 0,-0.0238 0.0021,-0.0558 0.0031,-0.032 0.0083,-0.0734 l 0.06408,-0.52607 h 0.22841 l -0.06718,0.54674 q -0.0041,0.0351 -0.0062,0.062 -0.0021,0.0258 -0.0021,0.0434 0,0.15399 0.180868,0.15399 0.09819,0 0.144694,-0.0506 0.04651,-0.0506 0.06201,-0.17777 l 0.07131,-0.57774 z m 0.53847,0.21187 -0.09405,0.76172 h -0.22841 l 0.09405,-0.76172 h -0.129192 l 0.02584,-0.21187 h 0.129192 l 0.05581,-0.45165 h 0.228411 l -0.05581,0.45165 h 0.21084 l -0.02584,0.21187 z m 0.630453,-0.21187 -0.0124,0.10232 q 0.147794,-0.12609 0.311092,-0.12609 0.194304,0 0.323495,0.13539 0.129191,0.13539 0.129191,0.3421 0,0.22944 -0.147794,0.38654 -0.146762,0.15606 -0.364837,0.15606 -0.111621,0 -0.182934,-0.0351 -0.07441,-0.0351 -0.158131,-0.12712 l -0.08578,0.6966 h -0.22841 l 0.188103,-1.53066 z m 0.522966,0.46302 q 0,-0.12919 -0.07441,-0.21187 -0.07441,-0.0837 -0.19017,-0.0837 -0.138493,0 -0.23151,0.10129 -0.09302,0.10128 -0.09302,0.24908 0,0.12919 0.07855,0.20774 0.07855,0.0806 0.202572,0.0806 0.130225,0 0.219109,-0.0992 0.08888,-0.10129 0.08888,-0.24392 z m 1.383897,-0.46302 -0.06925,0.56638 q -0.0083,0.0723 -0.02067,0.12609 -0.0124,0.0537 -0.02687,0.0899 -0.02894,0.0692 -0.09715,0.12299 -0.115756,0.0909 -0.304892,0.0909 -0.179834,0 -0.287321,-0.092 -0.107487,-0.093 -0.107487,-0.24908 0,-0.0238 0.0021,-0.0558 0.0031,-0.032 0.0083,-0.0734 l 0.06408,-0.52607 h 0.22841 l -0.06718,0.54674 q -0.0041,0.0351 -0.0062,0.062 -0.0021,0.0258 -0.0021,0.0434 0,0.15399 0.180868,0.15399 0.09819,0 0.144694,-0.0506 0.04651,-0.0506 0.06201,-0.17777 l 0.07131,-0.57774 z m 0.538469,0.21187 -0.09405,0.76172 h -0.22841 l 0.09405,-0.76172 h -0.129191 l 0.02584,-0.21187 h 0.129191 l 0.05581,-0.45165 h 0.22841 l -0.05581,0.45165 h 0.21084 l -0.02584,0.21187 z"
     id="text20-7-5-5"
     style="font-style:italic;font-weight:500;font-size:2.11667px;font-family:Futura;-inkscape-font-specification:'Futura, Medium Italic';fill:#ffffff;fill-rule:evenodd;stroke:#2f2f2f;stroke-width:0.079375"
     aria-label="output" />
  <path
     d="m 42.026136,113.58353 -0.168466,1.37562 h 0.451653 l -0.02687,0.22015 h -0.688331 l 0.196371,-1.59577 z"
     id="text20-7-5-5-5"
     style="font-style:italic;font-weight:500;font-size:2.11667px;font-family:Futura;-inkscape-font-specification:'Futura, Medium Italic';fill:#ffffff;fill-rule:evenodd;stroke:#2f2f2f;stroke-width:0.079375"
     aria-label="L" />
  <path
     d="m 57.959155,114.50647 0.40101,0.67283 H 58.11005 l -0.378272,-0.6563 h -0.08578 l -0.08062,0.6563 h -0.236679 l 0.196371,-1.59577 h 0.31316 q 0.152962,0 0.242879,0.0279 0.08888,0.0258 0.15503,0.0951 0.125057,0.12815 0.125057,0.33073 0,0.37103 -0.402043,0.46922 z m -0.22531,-0.7028 -0.06201,0.51263 h 0.10852 q 0.11989,0 0.178801,-0.0227 0.06305,-0.0227 0.10542,-0.0775 0.05788,-0.0765 0.05788,-0.17984 0,-0.12092 -0.07028,-0.17673 -0.06925,-0.0558 -0.219109,-0.0558 z"
     id="text20-7-5-5-5-0"
     style="font-style:italic;font-weight:500;font-size:2.11667px;font-family:Futura;-inkscape-font-specification:'Futura, Medium Italic';fill:#ffffff;fill-rule:evenodd;stroke:#2f2f2f;stroke-width:0.079375"
     aria-label="R" />
  <ellipse
     style="fill:#00ff00;fill-opacity:1;fill-rule:evenodd;stroke:#2f2f2f;stroke-width:0.0835458"
     id="x_fade_cv"
     cx="47.887489"
     cy="99.862808"
     rx="0.95822704"
     ry="0.9582271" />
  <ellipse
     style="fill:#00ff00;fill-opacity:1;fill-rule:evenodd;stroke:#2f2f2f;stroke-width:0.0835458"
     id="shape_o1"
     cx="34.832245"
     cy="99.862808"
     rx="0.95822704"
     ry="0.9582271" />
  <ellipse
     style="fill:#00ff00;fill-opacity:1;fill-rule:evenodd;stroke:#2f2f2f;stroke-width:0.0835458"
     id="fine_cv_o1"
     cx="21.777"
     cy="99.862808"
     rx="0.95822704"
     ry="0.9582271" />
  <ellipse
     style="fill:#00ff00;fill-opacity:1;fill-rule:evenodd;stroke:#2f2f2f;stroke-width:0.0835458"
     id="v_oct_o1"
     cx="8.721756"
     cy="99.862808"
     rx="0.95822704"
     ry="0.9582271" />
  <ellipse
     style="fill:#00ff00;fill-opacity:1;fill-rule:evenodd;stroke:#2f2f2f;stroke-width:0.0835458"
     id="v_out_o1"
     cx="8.721756"
     cy="113.38142"
     rx="0.95822704"
     ry="0.9582271" />
  <ellipse
     style="fill:#00ff00;fill-opacity:1;fill-rule:evenodd;stroke:#2f2f2f;stroke-width:0.0835458"
     id="fine_cv_o2"
     cx="21.112274"
     cy="113.38142"
     rx="0.95822704"
     ry="0.9582271" />
  <ellipse
     style="fill:#00ff00;fill-opacity:1;fill-rule:evenodd;stroke:#2f2f2f;stroke-width:0.0835458"
     id="shape_o2"
     cx="33.502792"
     cy="113.38142"
     rx="0.95822704"
     ry="0.9582271" />
  <ellipse
     style="fill:#0000ff;fill-opacity:1;fill-rule:evenodd;stroke:#2f2f2f;stroke-width:0.0835458"
     id="output_l"
     cx="45.893311"
     cy="113.38142"
     rx="0.95822704"
     ry="0.9582271" />
  <ellipse
     style="fill:#0000ff;fill-opacity:1;fill-rule:evenodd;stroke:#2f2f2f;stroke-width:0.0835458"
     id="output_r"
     cx="53.724667"
     cy="113.38142"
     rx="0.95822704"
     ry="0.9582271" />
  <!-- Header -->
  <path
     d="m 24.025413,4.1177492 -0.272461,0.1450196 q -0.06445,-0.131836 -0.159667,-0.131836 -0.04541,0 -0.07764,0.030762 -0.03223,0.029297 -0.03223,0.076172 0,0.082031 0.19043,0.1625977 0.262207,0.112793 0.353027,0.2080078 0.09082,0.095215 0.09082,0.2563477 0,0.2065429 -0.152344,0.3457031 -0.147949,0.1318359 -0.357422,0.1318359 -0.358887,0 -0.508301,-0.3500976 l 0.28125,-0.1303711 q 0.05859,0.102539 0.08936,0.1303711 0.06006,0.055664 0.143554,0.055664 0.166993,0 0.166993,-0.1523437 0,-0.087891 -0.128907,-0.1640625 -0.0498,-0.024902 -0.09961,-0.04834 -0.0498,-0.023437 -0.101074,-0.04834 -0.143555,-0.070312 -0.202149,-0.140625 -0.07471,-0.089355 -0.07471,-0.2299805 0,-0.1860351 0.127442,-0.3076172 0.130371,-0.121582 0.316406,-0.121582 0.273926,0 0.407226,0.2827148 z m 0.388184,-1.2905273 h 0.32959 v 1.1660156 q 0.175781,-0.1582031 0.388183,-0.1582031 0.2417,0 0.386719,0.1567383 0.123047,0.1362305 0.123047,0.4350586 V 5.301343 h -0.32959 v -0.84375 q 0,-0.1713867 -0.06152,-0.2475586 -0.06006,-0.077637 -0.194824,-0.077637 -0.172852,0 -0.243164,0.1069336 -0.06885,0.1083984 -0.06885,0.3720703 V 5.301343 h -0.32959 z m 2.696777,1.0473633 h 0.331055 V 5.301343 H 27.110374 V 5.1519289 q -0.203613,0.1904297 -0.437988,0.1904297 -0.295898,0 -0.489258,-0.2138672 -0.191894,-0.2182617 -0.191894,-0.5449218 0,-0.3208008 0.191894,-0.534668 0.191895,-0.2138672 0.480469,-0.2138672 0.249023,0 0.446777,0.2050781 z m -0.782226,0.7089844 q 0,0.2050781 0.109863,0.3339843 0.112793,0.1303711 0.28418,0.1303711 0.183105,0 0.295898,-0.1259765 0.112793,-0.1303711 0.112793,-0.3310547 0,-0.2006836 -0.112793,-0.3310547 -0.112793,-0.1274414 -0.292969,-0.1274414 -0.169921,0 -0.284179,0.1289062 -0.112793,0.1303711 -0.112793,0.3222657 z m 1.858887,1.4941406 h -0.32959 v -2.203125 h 0.32959 v 0.1552734 q 0.194824,-0.1948242 0.442382,-0.1948242 0.294434,0 0.484864,0.2167969 0.193359,0.215332 0.193359,0.543457 0,0.3208008 -0.191895,0.534668 -0.190429,0.2124023 -0.480468,0.2124023 -0.250489,0 -0.448242,-0.2006836 z m 0.783691,-1.480957 q 0,-0.2050782 -0.111328,-0.3339844 -0.112793,-0.1303711 -0.28418,-0.1303711 -0.181641,0 -0.294433,0.1259765 -0.112793,0.1259766 -0.112793,0.3310547 0,0.2006836 0.112793,0.3310547 0.111328,0.1274414 0.292968,0.1274414 0.171387,0 0.282715,-0.1289062 0.114258,-0.1289063 0.114258,-0.3222656 z m 1.984863,0.068848 h -1.022461 q 0.01318,0.1757813 0.114258,0.2797852 0.101074,0.102539 0.259277,0.102539 0.123047,0 0.203614,-0.058594 0.0791,-0.058594 0.180175,-0.2167969 l 0.278321,0.1552734 q -0.06445,0.1098633 -0.136231,0.1889649 -0.07178,0.077637 -0.153808,0.1289062 -0.08203,0.049805 -0.177246,0.073242 -0.09521,0.023437 -0.206543,0.023437 -0.319336,0 -0.512696,-0.2050781 -0.193359,-0.206543 -0.193359,-0.5478516 0,-0.3383789 0.1875,-0.5478515 0.188965,-0.206543 0.500977,-0.206543 0.314941,0 0.498046,0.2006836 0.181641,0.1992187 0.181641,0.5522461 z M 30.61721,4.3960696 q -0.06885,-0.2636719 -0.332519,-0.2636719 -0.06006,0 -0.112793,0.019043 -0.05273,0.017578 -0.09668,0.052734 -0.04248,0.033691 -0.07324,0.082031 -0.03076,0.04834 -0.04687,0.1098633 z M 31.682152,4.1822024 V 5.301343 h -0.32959 V 4.1822024 H 31.211937 V 3.8745852 h 0.140625 V 3.351636 h 0.32959 v 0.5229492 h 0.256347 V 4.1822024 Z M 33.240745,3.8745852 H 33.5718 V 5.301343 H 33.240745 V 5.1519289 q -0.203613,0.1904297 -0.437988,0.1904297 -0.295898,0 -0.489258,-0.2138672 -0.191894,-0.2182617 -0.191894,-0.5449218 0,-0.3208008 0.191894,-0.534668 0.191895,-0.2138672 0.480469,-0.2138672 0.249024,0 0.446777,0.2050781 z m -0.782226,0.7089844 q 0,0.2050781 0.109863,0.3339843 0.112793,0.1303711 0.28418,0.1303711 0.183105,0 0.295898,-0.1259765 0.112793,-0.1303711 0.112793,-0.3310547 0,-0.2006836 -0.112793,-0.3310547 -0.112793,-0.1274414 -0.292968,-0.1274414 -0.169922,0 -0.28418,0.1289062 -0.112793,0.1303711 -0.112793,0.3222657 z M 34.317406,2.8272219 V 4.336011 l 0.464355,-0.4614258 h 0.442383 L 34.604515,4.4737063 35.269554,5.301343 H 34.84182 L 34.37014,4.6992922 34.31741,4.7520262 V 5.301343 H 33.987816 V 2.8272219 Z m 2.415527,1.8383789 h -1.022461 q 0.01318,0.1757813 0.114258,0.2797852 0.101074,0.102539 0.259277,0.102539 0.123047,0 0.203613,-0.058594 0.0791,-0.058594 0.180176,-0.2167969 l 0.278321,0.1552734 q -0.06445,0.1098633 -0.136231,0.1889649 -0.07178,0.077637 -0.153809,0.1289062 -0.08203,0.049805 -0.177246,0.073242 -0.09521,0.023437 -0.206543,0.023437 -0.319336,0 -0.512695,-0.2050781 -0.193359,-0.206543 -0.193359,-0.5478516 0,-0.3383789 0.1875,-0.5478515 0.188965,-0.206543 0.500976,-0.206543 0.314942,0 0.498047,0.2006836 0.181641,0.1992187 0.181641,0.5522461 z M 36.394554,4.3960696 q -0.06885,-0.2636719 -0.332519,-0.2636719 -0.06006,0 -0.112793,0.019043 -0.05273,0.017578 -0.09668,0.052734 -0.04248,0.033691 -0.07324,0.082031 -0.03076,0.04834 -0.04687,0.1098633 z m 0.698731,-0.5214844 h 0.329589 v 0.1274414 q 0.09082,-0.095215 0.161133,-0.1303711 0.07178,-0.036621 0.169922,-0.036621 0.130371,0 0.272461,0.084961 l -0.150879,0.3017579 q -0.09375,-0.067383 -0.183105,-0.067383 -0.269532,0 -0.269532,0.4072266 v 0.739746 h -0.329589 z"
     id="text1"
     style="font-size:3px;font-family:Futura, Helvetica, sans-serif;text-anchor:middle;fill:#ffffff"
     aria-label="shapetaker" />
  <!-- Module name -->
  <path
     d="m 18.694843,7.8931048 v 0.5390629 q -0.394531,-0.330078 -0.816406,-0.330078 -0.464844,0 -0.783203,0.333984 -0.320313,0.332031 -0.320313,0.8125 0,0.47461 0.320313,0.8007813 0.320312,0.326172 0.785156,0.326172 0.240235,0 0.408203,-0.07813 0.09375,-0.03906 0.19336,-0.105468 0.101562,-0.06641 0.21289,-0.160157 V 10.5806 q -0.390625,0.220703 -0.820312,0.220703 -0.646485,0 -1.103516,-0.451171 -0.455078,-0.4550783 -0.455078,-1.0976573 0,-0.576171 0.380859,-1.027343 0.46875,-0.5527349 1.212891,-0.5527349 0.40625,0 0.785156,0.220703 z m 1.029297,-0.162109 v 2.5878912 h 0.886719 v 0.427734 H 19.269062 V 7.7309958 Z m 3.257813,2.2832032 H 21.690937 L 21.355,10.746621 h -0.490235 l 1.492188,-3.2050782 1.439453,3.2050782 H 23.298359 Z M 22.796406,9.5864647 22.34914,8.5610737 21.88039,9.5864647 Z M 24.628437,7.7309958 V 10.746621 H 24.173359 V 7.7309958 Z m 1.746094,1.7304689 0.933594,1.2851563 H 26.751484 L 25.890156,9.5122457 h -0.08203 V 10.746621 H 25.353047 V 7.7309958 h 0.533204 q 0.597656,0 0.863281,0.224609 0.292969,0.2499999 0.292969,0.6601569 0,0.320312 -0.183594,0.550781 -0.183594,0.230469 -0.484375,0.294922 z m -0.566406,-0.345703 h 0.144531 q 0.646484,0 0.646484,-0.494141 0,-0.462891 -0.628906,-0.462891 h -0.162109 z m 3.724609,0.8984373 h -1.291016 l -0.335937,0.732422 h -0.490235 l 1.492188,-3.2050782 1.439453,3.2050782 H 29.84914 Z m -0.185547,-0.4277343 -0.447266,-1.025391 -0.46875,1.025391 z m 1.716797,-1.8554689 v 1.8164059 q 0,0.388672 0.126953,0.5683603 0.189453,0.259765 0.533203,0.259765 0.345703,0 0.535156,-0.259765 Q 32.38625,9.9419337 32.38625,9.5474017 V 7.7309958 h 0.455078 v 1.9414059 q 0,0.4765633 -0.296875,0.7851573 -0.333985,0.343749 -0.820313,0.343749 -0.486328,0 -0.818359,-0.343749 -0.296875,-0.308594 -0.296875,-0.7851573 V 7.7309958 Z m 2.5,3.0156252 V 7.7309958 h 0.632812 q 0.455079,0 0.71875,0.08984 0.283204,0.08789 0.513672,0.2988279 0.466797,0.425781 0.466797,1.119141 0,0.695312 -0.486328,1.1250003 -0.244141,0.214843 -0.511719,0.298828 -0.25,0.08399 -0.708984,0.08399 z m 0.455078,-0.427734 h 0.205078 q 0.306641,0 0.509766,-0.06445 0.203125,-0.06836 0.367187,-0.216797 0.335938,-0.3066413 0.335938,-0.7988283 0,-0.496094 -0.332031,-0.804688 -0.298829,-0.275391 -0.88086,-0.275391 H 34.019062 Z M 36.923359,7.7309958 V 10.746621 H 36.468281 V 7.7309958 Z m 2.388672,0.4277339 h -1.208985 v 0.72461 h 1.173829 v 0.427734 h -1.173829 v 1.0078133 h 1.208985 v 0.427734 H 37.647968 V 7.7309958 h 1.664063 z m 0.597656,2.5878913 V 7.5259178 l 2.199219,2.3007809 V 7.7309958 h 0.455078 V 10.930215 L 40.364765,8.6352927 V 10.746621 Z M 44.118671,8.1587297 V 10.746621 H 43.663593 V 8.1587297 H 42.970234 V 7.7309958 h 1.839844 v 0.4277339 z"
     id="text2"
     style="font-weight:500;font-size:4px;font-family:Futura, 'Futura PT', 'Century Gothic', 'Avant Garde', sans-serif;letter-spacing:0.5px;text-anchor:middle;fill:#e8e8e8"
     aria-label="CLAIRAUDIENT" />
  <!-- Minimal section dividers -->
  <line
     x1="5"
     y1="12.925013"
     x2="55.959999"
     y2="12.925013"
     stroke="#333333"
     stroke-width="0.3"
     id="line1" />
  <line
     x1="5.0000005"
     y1="95.155602"
     x2="55.959999"
     y2="95.155602"
     stroke="#333333"
     stroke-width="0.3"
     id="line2" />
  <!-- Section labels -->
  <!-- Row 1: Frequency controls -->
  <path
     d="m 8.3857482,21.576264 h -0.525391 v 0.362304 h 0.506836 v 0.213868 h -0.506836 v 0.717773 h -0.227539 v -1.507813 h 0.75293 z m 0.7744144,0.651367 0.466797,0.642578 h -0.278321 l -0.430664,-0.617188 h -0.04101 v 0.617188 h -0.227544 v -1.507813 h 0.266601 q 0.298828,0 0.431641,0.112305 0.146484,0.125 0.146484,0.330078 0,0.160157 -0.0918,0.275391 -0.0918,0.115234 -0.242187,0.147461 z m -0.283203,-0.172852 h 0.07226 q 0.323243,0 0.323243,-0.24707 0,-0.231445 -0.314454,-0.231445 h -0.08105 z m 1.8085944,-0.478515 h -0.604493 v 0.362304 h 0.586914 v 0.213868 h -0.586914 v 0.503906 h 0.604493 v 0.213867 H 9.8535216 v -1.507813 h 0.8320324 z m 1.833005,1.321289 h -0.286131 l -0.118164,-0.121094 q -0.188477,0.121094 -0.419921,0.121094 -0.299805,0 -0.532227,-0.203125 -0.252929,-0.223633 -0.252929,-0.571289 0,-0.340821 0.239257,-0.56836 0.232422,-0.220703 0.548828,-0.220703 0.28711,0 0.514649,0.19336 0.273437,0.232421 0.273437,0.606445 0,0.292969 -0.21582,0.520508 z m -0.625976,-0.624024 0.21875,0.217774 q 0.144531,-0.150391 0.144531,-0.372071 0,-0.243164 -0.161133,-0.407226 -0.161133,-0.164063 -0.40039,-0.164063 -0.242188,0 -0.398438,0.164063 -0.157227,0.163086 -0.157227,0.413086 0,0.24414 0.16211,0.399414 0.168945,0.160156 0.385742,0.160156 0.147461,0 0.266602,-0.06738 l -0.354494,-0.34375 z"
     id="text5"
     style="font-size:2px;font-family:Futura, 'Futura PT', 'Century Gothic', 'Avant Garde', sans-serif;text-anchor:middle;fill:#e8e8e8"
     aria-label="FREQ" />
  <path
     d="m 48.898206,21.576264 h -0.525391 v 0.362304 h 0.506835 v 0.213868 h -0.506835 v 0.717773 h -0.22754 v -1.507813 h 0.752931 z m 0.774413,0.651367 0.466797,0.642578 h -0.27832 l -0.430664,-0.617188 h -0.04102 v 0.617188 h -0.227533 v -1.507813 h 0.266601 q 0.298828,0 0.43164,0.112305 0.146485,0.125 0.146485,0.330078 0,0.160157 -0.0918,0.275391 -0.0918,0.115234 -0.242188,0.147461 z m -0.283203,-0.172852 h 0.07227 q 0.323242,0 0.323242,-0.24707 0,-0.231445 -0.314453,-0.231445 h -0.08105 z m 1.808594,-0.478515 h -0.604492 v 0.362304 h 0.586914 v 0.213868 h -0.586914 v 0.503906 h 0.604492 v 0.213867 h -0.832031 v -1.507813 h 0.832031 z m 1.833008,1.321289 h -0.286133 l -0.118164,-0.121094 q -0.188477,0.121094 -0.419921,0.121094 -0.299806,0 -0.532228,-0.203125 -0.252929,-0.223633 -0.252929,-0.571289 0,-0.340821 0.239257,-0.56836 0.232422,-0.220703 0.548829,-0.220703 0.287109,0 0.514649,0.19336 0.273437,0.232421 0.273437,0.606445 0,0.292969 -0.215821,0.520508 z m -0.625977,-0.624024 0.21875,0.217774 q 0.144531,-0.150391 0.144531,-0.372071 0,-0.243164 -0.161132,-0.407226 -0.161133,-0.164063 -0.40039,-0.164063 -0.242188,0 -0.398438,0.164063 -0.157227,0.163086 -0.157227,0.413086 0,0.24414 0.162109,0.399414 0.168946,0.160156 0.385743,0.160156 0.14746,0 0.266601,-0.06738 l -0.354492,-0.34375 z"
     id="text6"
     style="font-size:2px;font-family:Futura, 'Futura PT', 'Century Gothic', 'Avant Garde', sans-serif;text-anchor:middle;fill:#e8e8e8"
     aria-label="FREQ" />
  <!-- Row 2: Fine tune and sync -->
  <path
     d="m 13.843808,38.659438 h -0.472852 v 0.326074 h 0.456153 v 0.192481 h -0.456153 v 0.645996 h -0.204785 v -1.357031 h 0.677637 z m 0.44209,-0.19248 v 1.357031 h -0.204785 v -1.357031 z m 0.326074,1.357031 v -1.449316 l 0.989648,1.035351 v -0.943066 h 0.204785 v 1.439648 l -0.989648,-1.032715 v 0.950098 z m 2.268457,-1.164551 h -0.544043 v 0.326074 h 0.528222 v 0.192481 h -0.528222 v 0.453516 h 0.544043 v 0.19248 h -0.748828 v -1.357031 h 0.748828 z"
     id="text7"
     style="font-size:1.8px;font-family:Futura, 'Futura PT', 'Century Gothic', 'Avant Garde', sans-serif;text-anchor:middle;fill:#e8e8e8"
     aria-label="FINE" />
  <path
     d="m 24.981923,53.049471 -0.129199,0.07656 q -0.03623,-0.06289 -0.06904,-0.08203 -0.03418,-0.02188 -0.08818,-0.02188 -0.06631,0 -0.110058,0.0376 -0.04375,0.03691 -0.04375,0.09297 0,0.07725 0.114843,0.124415 l 0.105274,0.04307 q 0.128516,0.05195 0.187988,0.127148 0.05947,0.07451 0.05947,0.183204 0,0.145605 -0.09707,0.240625 -0.09775,0.0957 -0.242676,0.0957 -0.137403,0 -0.226953,-0.08135 -0.08818,-0.08135 -0.110059,-0.229004 l 0.161328,-0.03555 q 0.01094,0.09297 0.03828,0.128516 0.04922,0.06836 0.143555,0.06836 0.07451,0 0.123731,-0.0499 0.04922,-0.0499 0.04922,-0.126465 0,-0.03076 -0.0089,-0.05606 -0.0082,-0.02598 -0.02666,-0.04717 -0.01777,-0.02188 -0.04648,-0.04033 -0.02871,-0.01914 -0.06836,-0.03623 l -0.101856,-0.04238 q -0.216699,-0.0916 -0.216699,-0.267969 0,-0.118945 0.09092,-0.198925 0.09092,-0.08067 0.226269,-0.08067 0.18252,0 0.285059,0.177735 z m 0.423145,0.442285 -0.344532,-0.599512 h 0.183203 l 0.241309,0.421778 0.241992,-0.421778 h 0.183203 l -0.345898,0.599512 v 0.455957 h -0.159277 z m 0.626855,0.455957 v -1.127246 l 0.769727,0.805273 v -0.733496 h 0.159277 v 1.119727 L 26.1912,53.208748 v 0.738965 z m 1.971484,-0.99873 v 0.188671 q -0.138086,-0.115527 -0.285742,-0.115527 -0.162695,0 -0.274121,0.116895 -0.112109,0.116211 -0.112109,0.284375 0,0.166113 0.112109,0.280273 0.112109,0.11416 0.274805,0.11416 0.08408,0 0.142871,-0.02734 0.03281,-0.01367 0.06768,-0.03691 0.03555,-0.02324 0.07451,-0.05605 v 0.19209 q -0.136718,0.07725 -0.287109,0.07725 -0.22627,0 -0.38623,-0.157911 -0.159278,-0.159277 -0.159278,-0.384179 0,-0.20166 0.133301,-0.359571 0.164062,-0.193457 0.424512,-0.193457 0.142187,0 0.274804,0.07725 z"
     id="text8"
     style="font-size:1.4px;font-family:Futura, 'Futura PT', 'Century Gothic', 'Avant Garde', sans-serif;text-anchor:middle;fill:#ffffff;fill-opacity:1"
     aria-label="SYNC" />
  <path
     d="m 33.969204,53.049471 -0.129199,0.07656 q -0.03623,-0.06289 -0.06904,-0.08203 -0.03418,-0.02188 -0.08818,-0.02188 -0.06631,0 -0.110058,0.0376 -0.04375,0.03691 -0.04375,0.09297 0,0.07725 0.114843,0.124415 l 0.105274,0.04307 q 0.128516,0.05195 0.187988,0.127148 0.05947,0.07451 0.05947,0.183204 0,0.145605 -0.09707,0.240625 -0.09775,0.0957 -0.242676,0.0957 -0.137403,0 -0.226953,-0.08135 -0.08818,-0.08135 -0.110059,-0.229004 l 0.161328,-0.03555 q 0.01094,0.09297 0.03828,0.128516 0.04922,0.06836 0.143555,0.06836 0.07451,0 0.123731,-0.0499 0.04922,-0.0499 0.04922,-0.126465 0,-0.03076 -0.0089,-0.05606 -0.0082,-0.02598 -0.02666,-0.04717 -0.01777,-0.02188 -0.04648,-0.04033 -0.02871,-0.01914 -0.06836,-0.03623 l -0.101856,-0.04238 q -0.216699,-0.0916 -0.216699,-0.267969 0,-0.118945 0.09092,-0.198925 0.09092,-0.08067 0.226269,-0.08067 0.18252,0 0.285059,0.177735 z m 0.423145,0.442285 -0.344532,-0.599512 h 0.183203 l 0.241309,0.421778 0.241992,-0.421778 h 0.183203 l -0.345898,0.599512 v 0.455957 h -0.159277 z m 0.626855,0.455957 v -1.127246 l 0.769727,0.805273 v -0.733496 h 0.159277 v 1.119727 l -0.769727,-0.803223 v 0.738965 z m 1.971484,-0.99873 v 0.188671 q -0.138086,-0.115527 -0.285742,-0.115527 -0.162695,0 -0.274121,0.116895 -0.112109,0.116211 -0.112109,0.284375 0,0.166113 0.112109,0.280273 0.112109,0.11416 0.274805,0.11416 0.08408,0 0.142871,-0.02734 0.03281,-0.01367 0.06768,-0.03691 0.03555,-0.02324 0.07451,-0.05605 v 0.19209 q -0.136718,0.07725 -0.287109,0.07725 -0.22627,0 -0.38623,-0.157911 -0.159278,-0.159277 -0.159278,-0.384179 0,-0.20166 0.133301,-0.359571 0.164062,-0.193457 0.424512,-0.193457 0.142187,0 0.274804,0.07725 z"
     id="text9"
     style="font-size:1.4px;font-family:Futura, 'Futura PT', 'Century Gothic', 'Avant Garde', sans-serif;text-anchor:middle;fill:#ffffff;fill-opacity:1"
     aria-label="SYNC" />
  <path
     d="m 43.843809,38.659438 h -0.472853 v 0.326074 h 0.456154 v 0.192481 h -0.456154 v 0.645996 h -0.204785 v -1.357031 h 0.677638 z m 0.44209,-0.19248 v 1.357031 h -0.204785 v -1.357031 z m 0.326074,1.357031 v -1.449316 l 0.989648,1.035351 v -0.943066 h 0.204785 v 1.439648 l -0.989648,-1.032715 v 0.950098 z m 2.268456,-1.164551 h -0.544043 v 0.326074 h 0.528222 v 0.192481 h -0.528222 v 0.453516 h 0.544043 v 0.19248 h -0.748828 v -1.357031 h 0.748828 z"
     id="text10"
     style="font-size:1.8px;font-family:Futura, 'Futura PT', 'Century Gothic', 'Avant Garde', sans-serif;text-anchor:middle;fill:#e8e8e8"
     aria-label="FINE" />
  <!-- Row 3: Fine tune attenuverters -->
  <path
     d="m 13.986155,53.09598 h -0.341504 v 0.235498 h 0.329443 v 0.139013 h -0.329443 v 0.466553 H 13.49675 v -0.980078 h 0.489405 z m 0.09141,0.464648 h 0.283105 v 0.124414 h -0.283105 z m 1.039746,0.138379 h -0.41958 l -0.109184,0.238037 h -0.159326 l 0.484961,-1.04165 0.467822,1.04165 h -0.161865 z m -0.0603,-0.139014 -0.145361,-0.333252 -0.152344,0.333252 z m 0.66333,-0.464013 v 0.841064 h -0.1479 V 53.09598 h -0.225342 v -0.139014 h 0.597949 v 0.139014 z m 0.627149,0 v 0.841064 H 16.199588 V 53.09598 h -0.22534 v -0.139014 h 0.597948 v 0.139014 z"
     id="text11"
     style="font-size:1.3px;font-family:Futura, 'Futura PT', 'Century Gothic', 'Avant Garde', sans-serif;text-anchor:middle;fill:#ffffff;fill-opacity:1"
     aria-label="F-ATT" />
  <path
     d="M 43.986154,53.09598 H 43.64465 v 0.235498 h 0.329443 v 0.139013 H 43.64465 v 0.466553 h -0.147901 v -0.980078 h 0.489405 z m 0.09141,0.464648 h 0.283105 v 0.124414 h -0.283105 z m 1.039747,0.138379 H 44.69773 l -0.109184,0.238037 H 44.42922 l 0.484961,-1.04165 0.467822,1.04165 h -0.161865 z m -0.0603,-0.139014 -0.145361,-0.333252 -0.152344,0.333252 z m 0.66333,-0.464013 v 0.841064 h -0.1479 V 53.09598 h -0.225342 v -0.139014 h 0.597949 v 0.139014 z m 0.627149,0 v 0.841064 H 46.199589 V 53.09598 h -0.225341 v -0.139014 h 0.597949 v 0.139014 z"
     id="text12"
     style="font-size:1.3px;font-family:Futura, 'Futura PT', 'Century Gothic', 'Avant Garde', sans-serif;text-anchor:middle;fill:#ffffff;fill-opacity:1"
     aria-label="F-ATT" />
  <!-- Row 4: Shape controls -->
  <path
     d="m 7.9526387,65.728733 -0.18457,0.109375 c -0.03451,-0.05989 -0.06738,-0.09896 -0.09863,-0.117188 -0.03255,-0.02083 -0.07455,-0.03125 -0.125976,-0.03125 -0.06315,0 -0.115562,0.0179 -0.157227,0.05371 -0.04167,0.03516 -0.0625,0.07943 -0.0625,0.132813 0,0.07357 0.05469,0.132812 0.164063,0.177734 l 0.15039,0.06152 c 0.122396,0.04948 0.211914,0.110027 0.268555,0.18164 0.05664,0.07096 0.08496,0.158204 0.08496,0.261719 0,0.138672 -0.04622,0.253256 -0.138672,0.34375 -0.0931,0.09115 -0.208659,0.136719 -0.34668,0.136719 -0.130859,0 -0.238932,-0.03874 -0.324218,-0.116211 -0.08399,-0.07747 -0.136394,-0.186523 -0.157227,-0.327149 l 0.230469,-0.05078 c 0.01042,0.08854 0.02865,0.14974 0.05469,0.183594 0.04687,0.06511 0.115233,0.09766 0.205078,0.09766 0.07096,0 0.129883,-0.02376 0.176758,-0.07129 0.04687,-0.04753 0.07031,-0.107748 0.07031,-0.180664 0,-0.02929 -0.0042,-0.05599 -0.0127,-0.08008 -0.0078,-0.02474 -0.02051,-0.0472 -0.03808,-0.06738 -0.01693,-0.02083 -0.03906,-0.04004 -0.06641,-0.05762 -0.02735,-0.01823 -0.0599,-0.03548 -0.09766,-0.05176 l -0.145508,-0.06055 c -0.20638,-0.08724 -0.30957,-0.214843 -0.30957,-0.382812 0,-0.113281 0.04329,-0.208008 0.129883,-0.28418 0.08659,-0.07682 0.194336,-0.115234 0.323242,-0.115234 0.173828,0 0.319831,0.07912 0.407226,0.253906 z m 0.541016,0.365234 h 0.650391 v -0.589844 h 0.227539 v 1.507813 h -0.227539 v -0.704102 h -0.650391 v 0.704102 h -0.227539 v -1.507813 h 0.227539 z m 2.1249993,0.551758 H 9.973146 L 9.805178,67.011936 H 9.5600605 l 0.7460935,-1.602539 0.719727,1.602539 h -0.249024 z m -0.09277,-0.213867 -0.223633,-0.512695 -0.234375,0.512695 z m 0.916015,-0.03223 v 0.612308 H 11.21436 v -1.507813 h 0.257813 c 0.126302,0 0.22168,0.0088 0.286133,0.02637 0.06511,0.01758 0.122398,0.05078 0.171875,0.09961 0.08659,0.08464 0.129882,0.191407 0.129882,0.320313 0,0.138021 -0.04622,0.247396 -0.138672,0.328125 -0.09245,0.08073 -0.217122,0.121102 -0.374023,0.121093 z m 0,-0.210937 h 0.08496 c 0.208985,0 0.313477,-0.0804 0.313477,-0.241211 0,-0.155599 -0.107747,-0.233399 -0.323242,-0.233399 h -0.0752 z m 1.684571,-0.470703 h -0.604493 v 0.362304 h 0.586914 v 0.213868 h -0.586914 v 0.503906 h 0.604493 v 0.21387 h -0.832032 v -1.507813 h 0.832032 z"
     id="text13"
     style="font-size:2px;font-family:Futura, 'Futura PT', 'Century Gothic', 'Avant Garde', sans-serif;text-anchor:middle;fill:#e8e8e8"
     aria-label="SHAPE" />
  <path
     d="m 48.465096,65.728733 -0.18457,0.109375 c -0.03451,-0.05989 -0.06738,-0.09896 -0.09863,-0.117188 -0.03255,-0.02083 -0.07455,-0.03125 -0.125976,-0.03125 -0.06315,0 -0.115562,0.0179 -0.157227,0.05371 -0.04167,0.03516 -0.0625,0.07943 -0.0625,0.132813 0,0.07357 0.05469,0.132812 0.164063,0.177734 l 0.15039,0.06152 c 0.122396,0.04948 0.211914,0.110027 0.268555,0.18164 0.05664,0.07096 0.08496,0.158204 0.08496,0.261719 0,0.138672 -0.04622,0.253256 -0.138672,0.34375 -0.0931,0.09115 -0.208659,0.136719 -0.34668,0.136719 -0.130859,0 -0.238932,-0.03874 -0.324218,-0.116211 -0.08398,-0.07747 -0.136394,-0.186523 -0.157227,-0.327149 l 0.230469,-0.05078 c 0.01042,0.08854 0.02865,0.14974 0.05469,0.183594 0.04687,0.06511 0.115233,0.09766 0.205078,0.09766 0.07096,0 0.129883,-0.02376 0.176758,-0.07129 0.04687,-0.04753 0.07031,-0.107748 0.07031,-0.180664 0,-0.02929 -0.0042,-0.05599 -0.0127,-0.08008 -0.0078,-0.02474 -0.02051,-0.0472 -0.03808,-0.06738 -0.01693,-0.02083 -0.03906,-0.04004 -0.06641,-0.05762 -0.02734,-0.01823 -0.05989,-0.03548 -0.09766,-0.05176 l -0.145508,-0.06055 c -0.20638,-0.08724 -0.30957,-0.214843 -0.30957,-0.382812 0,-0.113281 0.04329,-0.208008 0.129883,-0.28418 0.08659,-0.07682 0.194336,-0.115234 0.323242,-0.115234 0.173828,0 0.319831,0.07912 0.407226,0.253906 z m 0.541016,0.365234 h 0.650391 v -0.589844 h 0.227539 v 1.507813 h -0.227539 v -0.704102 h -0.650391 v 0.704102 h -0.227539 v -1.507813 h 0.227539 z m 2.125,0.551758 h -0.645508 l -0.167968,0.366211 h -0.245118 l 0.746094,-1.602539 0.719727,1.602539 h -0.249024 z m -0.09277,-0.213867 -0.223633,-0.512695 -0.234375,0.512695 z m 0.916015,-0.03223 v 0.612308 h -0.227539 v -1.507813 h 0.257813 c 0.126302,0 0.22168,0.0088 0.286133,0.02637 0.06511,0.01758 0.122398,0.05078 0.171875,0.09961 0.08659,0.08464 0.129882,0.191407 0.129882,0.320313 0,0.138021 -0.04622,0.247396 -0.138672,0.328125 -0.09245,0.08073 -0.217122,0.121102 -0.374023,0.121093 z m 0,-0.210937 h 0.08496 c 0.208985,0 0.313477,-0.0804 0.313477,-0.241211 0,-0.155599 -0.107747,-0.233399 -0.323242,-0.233399 h -0.0752 z m 1.684571,-0.470703 h -0.604493 v 0.362304 h 0.586914 v 0.213868 h -0.586914 v 0.503906 h 0.604493 v 0.21387 h -0.832032 v -1.507813 h 0.832032 z"
     id="text14"
     style="font-size:2px;font-family:Futura, 'Futura PT', 'Century Gothic', 'Avant Garde', sans-serif;text-anchor:middle;fill:#e8e8e8"
     aria-label="SHAPE" />
  <!-- Row 5: Shape attenuverters -->
  <path
     d="m 14.045509,90.596537 -0.119971,0.07109 q -0.03364,-0.0584 -0.06411,-0.07617 -0.03174,-0.02031 -0.08188,-0.02031 -0.06157,0 -0.102197,0.03491 -0.04062,0.03428 -0.04062,0.08633 0,0.07173 0.10664,0.115527 l 0.09775,0.03999 q 0.119336,0.04824 0.174561,0.118067 0.05522,0.06919 0.05522,0.170117 0,0.135205 -0.09014,0.223437 -0.09077,0.08887 -0.225342,0.08887 -0.127588,0 -0.210742,-0.07554 -0.08188,-0.07554 -0.102198,-0.212646 l 0.149805,-0.03301 q 0.01016,0.08633 0.03555,0.119336 0.0457,0.06348 0.1333,0.06348 0.06919,0 0.114892,-0.04634 0.0457,-0.04634 0.0457,-0.117432 0,-0.02856 -0.0083,-0.05205 -0.0076,-0.02412 -0.02476,-0.0438 -0.0165,-0.02031 -0.04316,-0.03745 -0.02666,-0.01777 -0.06348,-0.03364 l -0.09458,-0.03936 q -0.201221,-0.08506 -0.201221,-0.248828 0,-0.110449 0.08442,-0.184717 0.08442,-0.0749 0.210107,-0.0749 0.169483,0 0.264698,0.165039 z m 0.08633,0.457666 h 0.283105 v 0.124414 h -0.283105 z m 1.039746,0.138379 h -0.41958 l -0.109182,0.238037 h -0.159326 l 0.484961,-1.04165 0.467822,1.04165 h -0.161865 z m -0.0603,-0.139014 -0.145361,-0.333252 -0.152344,0.333252 z m 0.66333,-0.464013 v 0.841064 h -0.1479 v -0.841064 h -0.225342 v -0.139014 h 0.597949 v 0.139014 z m 0.627149,0 v 0.841064 h -0.147906 v -0.841064 h -0.225342 v -0.139014 h 0.59795 v 0.139014 z"
     id="text15"
     style="font-size:1.3px;font-family:Futura, 'Futura PT', 'Century Gothic', 'Avant Garde', sans-serif;text-anchor:middle;fill:#fbfbfb;fill-opacity:1"
     aria-label="S-ATT" />
  <path
     d="m 43.592754,90.596537 -0.119971,0.07109 q -0.03364,-0.0584 -0.06411,-0.07617 -0.03174,-0.02031 -0.08188,-0.02031 -0.06157,0 -0.102197,0.03491 -0.04062,0.03428 -0.04062,0.08633 0,0.07173 0.10664,0.115527 l 0.09775,0.03999 q 0.119336,0.04824 0.174561,0.118067 0.05522,0.06919 0.05522,0.170117 0,0.135205 -0.09014,0.223437 -0.09077,0.08887 -0.225342,0.08887 -0.127588,0 -0.210742,-0.07554 -0.08188,-0.07554 -0.102198,-0.212646 l 0.149805,-0.03301 q 0.01016,0.08633 0.03555,0.119336 0.0457,0.06348 0.133301,0.06348 0.06919,0 0.114892,-0.04634 0.0457,-0.04634 0.0457,-0.117432 0,-0.02856 -0.0083,-0.05205 -0.0076,-0.02412 -0.02475,-0.0438 -0.0165,-0.02031 -0.04316,-0.03745 -0.02666,-0.01777 -0.06348,-0.03364 l -0.09458,-0.03936 q -0.201221,-0.08506 -0.201221,-0.248828 0,-0.110449 0.08442,-0.184717 0.08442,-0.0749 0.210107,-0.0749 0.169483,0 0.264698,0.165039 z m 0.08633,0.457666 h 0.283105 v 0.124414 h -0.283105 z m 1.039746,0.138379 h -0.41958 l -0.109182,0.238037 h -0.159326 l 0.484961,-1.04165 0.467822,1.04165 H 44.82166 Z m -0.0603,-0.139014 -0.145361,-0.333252 -0.152344,0.333252 z m 0.66333,-0.464013 v 0.841064 h -0.1479 v -0.841064 h -0.225342 v -0.139014 h 0.597949 v 0.139014 z m 0.627149,0 v 0.841064 h -0.147906 v -0.841064 h -0.225342 v -0.139014 h 0.59795 v 0.139014 z"
     id="text16"
     style="font-size:1.3px;font-family:Futura, 'Futura PT', 'Century Gothic', 'Avant Garde', sans-serif;text-anchor:middle;fill:#fbfbfb;fill-opacity:1"
     aria-label="S-ATT" />
  <!-- Row 6: Crossfade -->
  <path
     d="m 25.945332,74.688942 v 0.269531 q -0.197266,-0.165039 -0.408203,-0.165039 -0.232422,0 -0.391602,0.166993 -0.160156,0.166015 -0.160156,0.40625 0,0.237304 0.160156,0.40039 0.160156,0.163086 0.392578,0.163086 0.120118,0 0.204102,-0.03906 0.04687,-0.01953 0.09668,-0.05273 0.05078,-0.0332 0.106445,-0.08008 v 0.274414 q -0.195313,0.110352 -0.410156,0.110352 -0.323243,0 -0.551758,-0.225586 -0.227539,-0.227539 -0.227539,-0.548828 0,-0.288086 0.190429,-0.513672 0.234375,-0.276367 0.606446,-0.276367 0.203125,0 0.392578,0.110351 z m 0.797851,0.78418 0.466797,0.642578 h -0.27832 l -0.430664,-0.617188 h -0.04102 V 76.1157 h -0.227539 v -1.507813 h 0.266602 q 0.298828,0 0.43164,0.112305 0.146485,0.125 0.146485,0.330078 0,0.160157 -0.0918,0.275391 -0.0918,0.115234 -0.242188,0.147461 z M 26.45998,75.30027 h 0.07227 q 0.323242,0 0.323242,-0.24707 0,-0.231445 -0.314453,-0.231445 h -0.08106 z m 0.867188,0.05469 q 0,-0.31836 0.233398,-0.546875 0.232422,-0.228516 0.558594,-0.228516 0.322266,0 0.552734,0.230469 0.231446,0.230469 0.231446,0.553711 0,0.325195 -0.232422,0.551758 -0.233399,0.227539 -0.563477,0.227539 -0.291992,0 -0.524414,-0.202149 -0.255859,-0.223633 -0.255859,-0.585937 z m 0.229492,0.0029 q 0,0.25 0.167969,0.411133 0.166992,0.161133 0.385742,0.161133 0.237305,0 0.400391,-0.164062 0.163086,-0.166016 0.163086,-0.404297 0,-0.241211 -0.161133,-0.404297 -0.160157,-0.164063 -0.396485,-0.164063 -0.235351,0 -0.397461,0.164063 -0.162109,0.162109 -0.162109,0.40039 z m 2.485352,-0.52539 -0.184571,0.109375 q -0.05176,-0.08984 -0.09863,-0.117188 -0.04883,-0.03125 -0.125976,-0.03125 -0.09473,0 -0.157227,0.05371 -0.0625,0.05274 -0.0625,0.132813 0,0.110351 0.164063,0.177734 l 0.15039,0.06152 q 0.183594,0.07422 0.268555,0.18164 0.08496,0.106446 0.08496,0.261719 0,0.208008 -0.138672,0.34375 -0.139648,0.136719 -0.346679,0.136719 -0.19629,0 -0.324219,-0.116211 -0.125977,-0.116211 -0.157227,-0.327149 l 0.230469,-0.05078 q 0.01563,0.132813 0.05469,0.183594 0.07031,0.09766 0.205079,0.09766 0.106445,0 0.176757,-0.07129 0.07031,-0.07129 0.07031,-0.180664 0,-0.04394 -0.0127,-0.08008 -0.01172,-0.03711 -0.03809,-0.06738 -0.02539,-0.03125 -0.06641,-0.05762 -0.04101,-0.02734 -0.09766,-0.05176 l -0.145508,-0.06055 q -0.30957,-0.130859 -0.30957,-0.382812 0,-0.169922 0.129883,-0.28418 0.129883,-0.115234 0.323242,-0.115234 0.260742,0 0.407227,0.253906 z m 1.166015,0 -0.18457,0.109375 q -0.05176,-0.08984 -0.09863,-0.117188 -0.04883,-0.03125 -0.125976,-0.03125 -0.09473,0 -0.157227,0.05371 -0.0625,0.05274 -0.0625,0.132813 0,0.110351 0.164062,0.177734 l 0.150391,0.06152 q 0.183594,0.07422 0.268555,0.18164 0.08496,0.106446 0.08496,0.261719 0,0.208008 -0.138672,0.34375 -0.139649,0.136719 -0.34668,0.136719 -0.196289,0 -0.324219,-0.116211 -0.125976,-0.116211 -0.157226,-0.327149 l 0.230469,-0.05078 q 0.01563,0.132813 0.05469,0.183594 0.07031,0.09766 0.205078,0.09766 0.106446,0 0.176758,-0.07129 0.07031,-0.07129 0.07031,-0.180664 0,-0.04394 -0.0127,-0.08008 -0.01172,-0.03711 -0.03809,-0.06738 -0.02539,-0.03125 -0.06641,-0.05762 -0.04102,-0.02734 -0.09766,-0.05176 l -0.145508,-0.06055 q -0.30957,-0.130859 -0.30957,-0.382812 0,-0.169922 0.129882,-0.28418 0.129883,-0.115234 0.323243,-0.115234 0.260742,0 0.407226,0.253906 z m 1.066406,-0.01074 h -0.52539 v 0.362304 h 0.506836 v 0.213868 H 31.749043 V 76.1157 h -0.227539 v -1.507813 h 0.752929 z m 1.049805,0.927734 H 32.67873 L 32.510762,76.1157 h -0.245118 l 0.746094,-1.602539 0.719727,1.602539 h -0.249024 z m -0.09277,-0.213867 -0.223633,-0.512695 -0.234375,0.512695 z m 0.688473,0.580103 v -1.507813 h 0.316407 q 0.227539,0 0.359375,0.04492 0.141601,0.04395 0.256835,0.149414 0.233399,0.212891 0.233399,0.559571 0,0.347656 -0.243164,0.5625 -0.12207,0.107422 -0.25586,0.149414 -0.125,0.04199 -0.354492,0.04199 z m 0.227539,-0.213867 h 0.102539 q 0.153321,0 0.254883,-0.03223 0.101563,-0.03418 0.183594,-0.108398 0.167969,-0.153321 0.167969,-0.399414 0,-0.248047 -0.166016,-0.402344 -0.149414,-0.137695 -0.44043,-0.137695 H 34.14748 Z m 2.056641,-1.080078 h -0.604492 v 0.362304 h 0.586914 v 0.213868 h -0.586914 v 0.503906 h 0.604492 V 76.1157 H 35.37209 v -1.507813 h 0.832031 z"
     id="text17"
     style="font-size:2px;font-family:Futura, 'Futura PT', 'Century Gothic', 'Avant Garde', sans-serif;text-anchor:middle;fill:#e8e8e8"
     aria-label="CROSSFADE" />
  <path
     d="m 29.125409,88.47199 -0.269776,-0.467822 h 0.168213 l 0.187256,0.331982 0.196777,-0.331982 h 0.169483 l -0.282471,0.467822 0.296436,0.512256 h -0.165674 l -0.21709,-0.375146 -0.223437,0.375146 h -0.167579 z m 0.522412,0.13584 h 0.283105 v 0.124414 h -0.283105 z m 1.039746,0.138379 h -0.41958 l -0.10918,0.238037 h -0.159326 l 0.484961,-1.04165 0.467822,1.04165 h -0.161865 z m -0.0603,-0.139014 -0.145361,-0.333252 -0.152344,0.333252 z m 0.66333,-0.464013 v 0.841064 h -0.1479 v -0.841064 h -0.225342 v -0.139014 h 0.597949 v 0.139014 z m 0.627149,0 v 0.841064 h -0.147901 v -0.841064 h -0.225342 v -0.139014 h 0.59795 v 0.139014 z"
     id="text18"
     style="font-size:1.3px;font-family:Futura, 'Futura PT', 'Century Gothic', 'Avant Garde', sans-serif;text-anchor:middle;fill:#fbfbfb;fill-opacity:1"
     aria-label="X-ATT" />
  <!-- Input labels -->
  <!-- Output labels (stacked) -->
  <!-- Decorative lines -->
  <line
     x1="5.0830078"
     y1="13.61554"
     x2="56.043007"
     y2="13.61554"
     stroke="#444444"
     stroke-width="0.5"
     id="line27" />
  <ellipse
     style="fill:#ff0000;fill-opacity:1;fill-rule:evenodd;stroke:#2f2f2f;stroke-width:0.0835458"
     id="freq_o1"
     cx="10.075688"
     cy="31.045906"
     rx="0.958"
     ry="0.9582271" />
  <ellipse
     style="fill:#ff0000;fill-opacity:1;fill-rule:evenodd;stroke:#2f2f2f;stroke-width:0.0835458"
     id="fine_o1"
     cx="15.0233"
     cy="45.038658"
     rx="0.95822704"
     ry="0.9582271" />
  <ellipse
     style="fill:#ff0000;fill-opacity:1;fill-rule:evenodd;stroke:#2f2f2f;stroke-width:0.0835458"
     id="sh_knob_o1"
     cx="10.240995"
     cy="74.654305"
     rx="0.958"
     ry="0.9582271" />
  <ellipse
     style="fill:#ff0000;fill-opacity:1;fill-rule:evenodd;stroke:#2f2f2f;stroke-width:0.0835458"
     id="sh_knob_o2"
     cx="50.719231"
     cy="74.654305"
     rx="0.95822704"
     ry="0.9582271" />
  <ellipse
     style="fill:#ff0000;fill-opacity:1;fill-rule:evenodd;stroke:#2f2f2f;stroke-width:0.0835458"
     id="fine_atten_o1"
     cx="15.034473"
     cy="58.820183"
     rx="0.95822704"
     ry="0.9582271" />
  <ellipse
     style="fill:#ff0000;fill-opacity:1;fill-rule:evenodd;stroke:#2f2f2f;stroke-width:0.0835458"
     id="fine_atten_o2"
     cx="45.034473"
     cy="58.820183"
     rx="0.95822704"
     ry="0.9582271" />
  <ellipse
     style="fill:#ff0000;fill-opacity:1;fill-rule:evenodd;stroke:#2f2f2f;stroke-width:0.0835458"
     id="sh_cv_o1"
     cx="15.034473"
     cy="86.433929"
     rx="0.95822704"
     ry="0.9582271" />
  <ellipse
     style="fill:#ff0000;fill-opacity:1;fill-rule:evenodd;stroke:#2f2f2f;stroke-width:0.0835458"
     id="x_fade_atten"
     cx="30.48"
     cy="83.021637"
     rx="0.95822704"
     ry="0.9582271" />
  <ellipse
     style="fill:#ff0000;fill-opacity:1;fill-rule:evenodd;stroke:#2f2f2f;stroke-width:0.0835458"
     id="sh_cv_o2"
     cx="44.581718"
     cy="86.433929"
     rx="0.95822704"
     ry="0.9582271" />
  <ellipse
     style="fill:#ff0000;fill-opacity:1;fill-rule:evenodd;stroke:#2f2f2f;stroke-width:0.0835458"
     id="fine_o2"
     cx="45.0233"
     cy="45.038658"
     rx="0.95822704"
     ry="0.9582271" />
  <ellipse
     style="fill:#ff0000;fill-opacity:1;fill-rule:evenodd;stroke:#2f2f2f;stroke-width:0.0835458"
     id="x_fade_knob"
     cx="30.48"
     cy="64.107727"
     rx="0.95822704"
     ry="0.9582271" />
  <ellipse
     style="fill:#ff0000;fill-opacity:1;fill-rule:evenodd;stroke:#2f2f2f;stroke-width:0.0835458"
     id="sync_o1"
     cx="26.167959"
     cy="47.738434"
     rx="0.95822704"
     ry="0.9582271" />
  <ellipse
     style="fill:#ffff00;fill-opacity:1;fill-rule:evenodd;stroke:#2f2f2f;stroke-width:0.0835458"
     id="oscope_screen"
     cx="30.563007"
     cy="28.92709"
     rx="0.95822704"
     ry="0.9582271" />
  <ellipse
     style="fill:#ff0000;fill-opacity:1;fill-rule:evenodd;stroke:#2f2f2f;stroke-width:0.0835458"
     id="sync_o2"
     cx="35.155243"
     cy="47.738434"
     rx="0.95822704"
     ry="0.9582271" />
  <ellipse
     style="fill:#ff0000;fill-opacity:1;fill-rule:evenodd;stroke:#2f2f2f;stroke-width:0.0835458"
     id="freq_o2"
     cx="50.588146"
     cy="31.045906"
     rx="0.95822704"
     ry="0.9582271" />
  <path
     d="m 19.977449,105.95159 -0.02687,0.22014 h -0.551906 l -0.05064,0.41135 h 0.551906 l -0.02481,0.20464 H 19.32219 l -0.09302,0.75964 h -0.236675 l 0.197404,-1.59577 z m 0.442351,0.15917 q 0,0.0496 -0.03617,0.0858 -0.03617,0.0362 -0.08682,0.0362 -0.05064,0 -0.08785,-0.0372 -0.03617,-0.0393 -0.03617,-0.0899 0,-0.0506 0.03514,-0.0858 0.03617,-0.0362 0.08578,-0.0362 0.05064,0 0.08785,0.0382 0.03824,0.0372 0.03824,0.0889 z m -0.07131,0.46302 -0.11989,0.97358 h -0.22841 l 0.119889,-0.97358 z m 0.546737,0 -0.01034,0.0899 q 0.135392,-0.11368 0.273885,-0.11368 0.142628,0 0.228411,0.0796 0.08372,0.0796 0.08372,0.21704 0,0.0744 -0.0124,0.17777 l -0.06511,0.52296 h -0.227377 l 0.07028,-0.57257 q 0.0041,-0.032 0.0052,-0.0568 0.0021,-0.0248 0.0021,-0.0444 0,-0.13229 -0.142627,-0.13229 -0.08785,0 -0.150896,0.0537 -0.05168,0.0424 -0.07648,0.10336 -0.01344,0.031 -0.02274,0.0765 -0.0093,0.0444 -0.01654,0.10335 l -0.05788,0.46922 h -0.22841 l 0.11989,-0.97358 z m 1.0511,0.56844 q 0,0.10749 0.07442,0.17673 0.07545,0.0692 0.192236,0.0692 0.160197,0 0.24598,-0.11989 l 0.170533,0.094 q -0.08888,0.11989 -0.182935,0.16743 -0.09509,0.0486 -0.237712,0.0486 -0.226343,0 -0.360702,-0.13333 -0.134359,-0.13332 -0.134359,-0.35656 0,-0.23358 0.147795,-0.39068 0.146761,-0.15606 0.371037,-0.15606 0.217042,0 0.342099,0.14056 0.127124,0.14159 0.127124,0.3793 0,0.0248 -0.0031,0.0806 z m 0.524,-0.18397 q -0.03617,-0.22531 -0.249081,-0.22531 -0.201538,0 -0.262516,0.22531 z m 1.805577,-0.24185 0.39791,0.83096 h -0.248048 l -0.296623,-0.63458 -0.441317,0.63458 H 23.41084 l 0.605648,-0.85576 -0.350366,-0.74001 h 0.251148 l 0.24598,0.54881 0.373104,-0.54881 h 0.279053 z"
     id="text20"
     style="font-style:italic;font-weight:500;font-size:2.11667px;font-family:Futura;-inkscape-font-specification:'Futura, Medium Italic';fill:#ffffff;fill-rule:evenodd;stroke:#2f2f2f;stroke-width:0.079375"
     aria-label="Fine X" />
  <path
     d="m 6.6440268,105.82204 -0.9084731,1.66812 -0.5022957,-1.66812 h 0.239779 l 0.3307297,1.11208 0.5849781,-1.11208 z m 0.9622166,-0.10335 -0.9870213,2.16214 -0.1591637,-0.0734 0.9859879,-2.15904 z m 1.7435663,0.87023 q 0,0.27285 -0.144695,0.49506 -0.114722,0.17467 -0.299724,0.26975 -0.1850017,0.0951 -0.4092778,0.0951 -0.3586349,0 -0.5849781,-0.22841 -0.2263431,-0.22945 -0.2263431,-0.59325 0,-0.36277 0.239779,-0.59945 0.2408126,-0.23771 0.6077158,-0.23771 0.3669032,0 0.5922132,0.22014 0.22531,0.21911 0.22531,0.57878 z m -0.237712,-0.002 q 0,-0.26148 -0.15503,-0.41858 -0.15503,-0.15606 -0.416513,-0.15606 -0.2625166,0 -0.4413174,0.1757 -0.1767336,0.1757 -0.1767336,0.43925 0,0.26045 0.1643313,0.43098 0.1643313,0.1695 0.4154791,0.1695 0.2614832,0 0.4351166,-0.18293 0.174667,-0.18087 0.174667,-0.45786 z m 1.2423033,-0.0486 -0.02894,0.23254 q -0.07028,-0.0899 -0.134359,-0.12919 -0.06305,-0.0382 -0.148828,-0.0382 -0.1302253,0 -0.2139413,0.0961 -0.08372,0.0961 -0.08372,0.24701 0,0.1416 0.07855,0.22635 0.07958,0.0858 0.2056733,0.0858 0.120923,0 0.250114,-0.10439 l -0.02997,0.24081 q -0.132292,0.0538 -0.2521823,0.0538 -0.213941,0 -0.348299,-0.13953 -0.133326,-0.13953 -0.133326,-0.36173 0,-0.22841 0.143661,-0.38138 0.144694,-0.15399 0.3596683,-0.15399 0.1757,0 0.335898,0.12609 z m 0.469223,0.11782 -0.09405,0.76171 h -0.22841 l 0.09405,-0.76171 h -0.129192 l 0.02584,-0.21187 h 0.129191 l 0.05581,-0.45166 h 0.228411 l -0.05581,0.45166 h 0.21084 l -0.02584,0.21187 z m 1.658815,-0.0692 0.39791,0.83096 h -0.248048 l -0.296623,-0.63459 -0.441317,0.63459 h -0.276986 l 0.605648,-0.85576 -0.350366,-0.74001 h 0.251148 l 0.24598,0.54881 0.373104,-0.54881 h 0.279053 z"
     id="text28"
     style="font-style:italic;font-weight:500;font-size:2.11667px;font-family:Futura;-inkscape-font-specification:'Futura, Medium Italic';fill:#ffffff;fill-rule:evenodd;stroke:#2f2f2f;stroke-width:0.079375"
     aria-label="V/Oct X" />
  <path
     d="m 6.2138252,118.71696 -0.9084731,1.66812 -0.5022957,-1.66812 h 0.239779 l 0.3307297,1.11208 0.5849781,-1.11208 z m 0.9622166,-0.10335 -0.9870213,2.16214 -0.1591637,-0.0734 0.9859879,-2.15904 z m 1.7435663,0.87023 q 0,0.27285 -0.144695,0.49506 -0.114722,0.17467 -0.299724,0.26975 -0.1850017,0.0951 -0.4092778,0.0951 -0.3586349,0 -0.5849781,-0.22841 -0.2263431,-0.22945 -0.2263431,-0.59325 0,-0.36277 0.239779,-0.59945 0.2408126,-0.23771 0.6077158,-0.23771 0.3669032,0 0.5922132,0.22014 0.22531,0.21911 0.22531,0.57878 z m -0.237712,-0.002 q 0,-0.26148 -0.15503,-0.41858 -0.15503,-0.15606 -0.416513,-0.15606 -0.2625166,0 -0.4413174,0.1757 -0.1767336,0.1757 -0.1767336,0.43925 0,0.26045 0.1643313,0.43098 0.1643313,0.1695 0.4154791,0.1695 0.2614832,0 0.4351166,-0.18293 0.174667,-0.18087 0.174667,-0.45786 z m 1.242303,-0.0486 -0.02894,0.23254 q -0.07028,-0.0899 -0.134359,-0.12919 -0.06305,-0.0382 -0.148828,-0.0382 -0.130225,0 -0.213941,0.0961 -0.08372,0.0961 -0.08372,0.24701 0,0.1416 0.07855,0.22635 0.07958,0.0858 0.205673,0.0858 0.120923,0 0.250114,-0.10439 l -0.02997,0.24081 q -0.132292,0.0537 -0.252182,0.0537 -0.213941,0 -0.348299,-0.13953 -0.133326,-0.13952 -0.133326,-0.36173 0,-0.22841 0.143661,-0.38138 0.144694,-0.15399 0.359668,-0.15399 0.1757,0 0.335898,0.12609 z m 0.4692229,0.11782 -0.09405,0.76171 h -0.22841 l 0.09405,-0.76171 H 10.03582 l 0.02584,-0.21187 h 0.129191 l 0.05581,-0.45166 h 0.228411 l -0.05581,0.45166 h 0.21084 l -0.02584,0.21187 z m 1.599904,0.0475 -0.08785,0.71417 h -0.236678 l 0.09095,-0.7307 -0.414445,-0.86507 h 0.254248 l 0.294556,0.63459 0.41858,-0.63459 h 0.271819 z"
     id="text28-6"
     style="font-style:italic;font-weight:500;font-size:2.11667px;font-family:Futura;-inkscape-font-specification:'Futura, Medium Italic';fill:#ffffff;fill-rule:evenodd;stroke:#2f2f2f;stroke-width:0.079375"
     aria-label="V/Oct Y" />
  <path
     d="m 31.887074,105.96709 -0.15813,0.15089 q -0.112655,-0.16536 -0.258382,-0.16536 -0.10542,0 -0.174667,0.0651 -0.06925,0.0651 -0.06925,0.1633 0,0.0785 0.04754,0.13539 0.02377,0.0269 0.06925,0.061 0.04651,0.0341 0.115755,0.0754 0.205672,0.11989 0.274919,0.21704 0.07028,0.0982 0.07028,0.25735 0,0.2067 -0.136426,0.33486 -0.134359,0.12816 -0.354501,0.12816 -0.177767,0 -0.300757,-0.0765 -0.06201,-0.0382 -0.115756,-0.0992 -0.05374,-0.062 -0.103353,-0.14986 l 0.179835,-0.12196 q 0.07338,0.12919 0.14366,0.17777 0.07028,0.0486 0.182935,0.0486 0.125057,0 0.195337,-0.0661 0.07131,-0.0661 0.07131,-0.1881 0,-0.0837 -0.05168,-0.1416 -0.02584,-0.03 -0.07752,-0.0672 -0.05064,-0.0372 -0.129192,-0.0837 -0.179834,-0.10646 -0.251147,-0.20258 -0.06821,-0.0961 -0.06821,-0.24081 0,-0.19327 0.134359,-0.32039 0.134359,-0.12816 0.338997,-0.12816 0.133326,0 0.227377,0.0537 0.09612,0.0537 0.197404,0.18294 z m 0.561207,-0.35347 -0.10542,0.85473 q 0.13746,-0.10645 0.279053,-0.10645 0.142628,0 0.227377,0.0754 0.08785,0.0744 0.08785,0.19534 0,0.0289 -0.0031,0.0661 -0.0031,0.0362 -0.0083,0.0827 l -0.07131,0.57774 H 32.62602 l 0.07235,-0.59014 q 0.0062,-0.0475 0.0062,-0.0858 0,-0.13022 -0.152963,-0.13022 -0.219108,0 -0.255282,0.29662 l -0.06304,0.50953 h -0.22841 l 0.214974,-1.74563 z m 1.80041,0.77205 -0.11989,0.97358 h -0.22841 l 0.01344,-0.10542 q -0.146761,0.12816 -0.303858,0.12816 -0.19327,0 -0.315227,-0.13126 -0.121956,-0.13126 -0.121956,-0.34003 0,-0.24081 0.139527,-0.39481 0.141593,-0.15399 0.362769,-0.15399 0.104386,0 0.177767,0.0341 0.07441,0.0341 0.151929,0.11783 l 0.0155,-0.12816 z m -0.27802,0.45889 q 0,-0.1292 -0.07441,-0.20981 -0.07441,-0.0817 -0.192237,-0.0817 -0.128157,0 -0.214974,0.10025 -0.08682,0.10129 -0.08682,0.24805 0,0.12816 0.07235,0.20981 0.07235,0.0816 0.186035,0.0816 0.126091,0 0.218075,-0.10231 0.09198,-0.10439 0.09198,-0.24598 z m 0.824757,-0.45889 -0.0124,0.10232 q 0.147795,-0.12609 0.311093,-0.12609 0.194303,0 0.323495,0.13539 0.129191,0.13539 0.129191,0.3421 0,0.22944 -0.147795,0.38654 -0.146761,0.15606 -0.364836,0.15606 -0.111621,0 -0.182935,-0.0351 -0.07441,-0.0351 -0.15813,-0.12712 l -0.08578,0.6966 h -0.22841 l 0.188102,-1.53066 z m 0.522967,0.46302 q 0,-0.12919 -0.07441,-0.21187 -0.07442,-0.0837 -0.19017,-0.0837 -0.138493,0 -0.231511,0.10129 -0.09302,0.10128 -0.09302,0.24908 0,0.12919 0.07855,0.20774 0.07855,0.0806 0.202572,0.0806 0.130224,0 0.219108,-0.0992 0.08888,-0.10128 0.08888,-0.24391 z m 0.659392,0.10542 q 0,0.10749 0.07441,0.17673 0.07545,0.0692 0.192237,0.0692 0.160197,0 0.24598,-0.11989 l 0.170532,0.094 q -0.08888,0.11989 -0.182935,0.16743 -0.09508,0.0486 -0.237712,0.0486 -0.226343,0 -0.360702,-0.13333 -0.134359,-0.13332 -0.134359,-0.35656 0,-0.23358 0.147795,-0.39068 0.146762,-0.15606 0.371038,-0.15606 0.217041,0 0.342098,0.14056 0.127124,0.14159 0.127124,0.3793 0,0.0248 -0.0031,0.0806 z m 0.524,-0.18397 q -0.03617,-0.22531 -0.249081,-0.22531 -0.201539,0 -0.262517,0.22531 z m 1.805577,-0.24185 0.397909,0.83096 h -0.248047 l -0.296623,-0.63458 -0.441318,0.63458 h -0.276986 l 0.605649,-0.85576 -0.350367,-0.74001 h 0.251148 l 0.24598,0.54881 0.373105,-0.54881 h 0.279053 z"
     id="text29"
     style="font-style:italic;font-weight:500;font-size:2.11667px;font-family:Futura;-inkscape-font-specification:'Futura, Medium Italic';fill:#ffffff;fill-rule:evenodd;stroke:#2f2f2f;stroke-width:0.079375"
     aria-label="Shape X" />
  <path
     d="m 45.714295,106.82036 0.397909,0.83096 h -0.248047 l -0.296623,-0.63458 -0.441318,0.63458 H 44.84923 l 0.605649,-0.85576 -0.350367,-0.74001 h 0.251148 l 0.24598,0.54881 0.373105,-0.54881 h 0.279053 z m 0.985988,0.23772 -0.02274,0.18086 h -0.445451 l 0.02067,-0.18086 z m 1.102776,-1.00253 -0.02687,0.22014 h -0.551905 l -0.05064,0.41135 h 0.551905 l -0.02481,0.20464 H 47.1478 l -0.09302,0.75964 h -0.236679 l 0.197404,-1.59577 z m 0.287322,1.2206 -0.194304,0.37517 h -0.257349 l 0.882635,-1.70946 0.550872,1.70946 h -0.247014 l -0.115755,-0.37517 z m 0.102319,-0.20464 h 0.45062 l -0.171566,-0.56741 z m 1.262974,-1.01596 h 0.322462 q 0.182934,0 0.28112,0.0186 0.100252,0.0176 0.185002,0.0672 0.156063,0.0899 0.24598,0.26976 0.08992,0.17983 0.08992,0.40204 0,0.23564 -0.101286,0.43615 -0.05064,0.0992 -0.117822,0.17467 -0.06718,0.0744 -0.153996,0.12712 -0.101286,0.0579 -0.211874,0.0796 -0.05891,0.0103 -0.14056,0.0155 -0.08165,0.005 -0.191203,0.005 h -0.404111 z m 0.208773,0.22014 -0.141593,1.15549 h 0.179834 q 0.198438,0 0.310059,-0.0393 0.108521,-0.0382 0.189136,-0.14263 0.14056,-0.17777 0.14056,-0.44545 0,-0.1664 -0.06304,-0.29146 -0.06408,-0.12712 -0.173633,-0.18397 -0.104387,-0.0527 -0.309026,-0.0527 z m 2.128039,-0.22014 -0.02687,0.22014 h -0.586011 l -0.05064,0.41342 h 0.586011 l -0.02481,0.20463 h -0.586011 l -0.06615,0.53744 h 0.586012 l -0.02791,0.22014 h -0.821656 l 0.19637,-1.59577 z"
     id="text29-4"
     style="font-style:italic;font-weight:500;font-size:2.11667px;font-family:Futura;-inkscape-font-specification:'Futura, Medium Italic';fill:#ffffff;fill-rule:evenodd;stroke:#2f2f2f;stroke-width:0.079375"
     aria-label="X-FADE" />
  <path
     d="m 9.0359673,17.559862 q 0,0.363802 -0.192925,0.66008 -0.152963,0.232889 -0.399631,0.359668 -0.246669,0.126779 -0.545703,0.126779 -0.4781795,0 -0.7799695,-0.304546 -0.30179,-0.305924 -0.30179,-0.790993 0,-0.483691 0.319705,-0.799262 0.321082,-0.316948 0.8102855,-0.316948 0.489204,0 0.789616,0.293522 0.300412,0.292144 0.300412,0.7717 z m -0.316949,-0.0028 q 0,-0.348643 -0.206705,-0.558105 -0.206706,-0.208083 -0.555349,-0.208083 -0.350022,0 -0.5884225,0.234266 -0.235645,0.234266 -0.235645,0.585666 0,0.347265 0.219108,0.574641 0.219108,0.225998 0.5539715,0.225998 0.348644,0 0.580154,-0.243912 0.232888,-0.241157 0.232888,-0.610471 z m 1.9581917,-0.748274 -0.21084,0.201194 q -0.150206,-0.220486 -0.344509,-0.220486 -0.1405603,0 -0.2328883,0.08682 -0.09233,0.08682 -0.09233,0.21773 0,0.104731 0.06339,0.180523 0.03169,0.03583 0.09233,0.0813 0.06201,0.04547 0.1543403,0.100597 0.274229,0.159852 0.366558,0.289387 0.09371,0.130914 0.09371,0.343132 0,0.275607 -0.181901,0.446484 -0.179145,0.170876 -0.4726663,0.170876 -0.237023,0 -0.4010094,-0.101974 -0.08268,-0.05099 -0.15434,-0.132292 -0.07166,-0.08268 -0.137804,-0.199815 l 0.239778,-0.162609 q 0.09784,0.172255 0.1915474,0.237023 0.09371,0.06477 0.243913,0.06477 0.1667433,0 0.2604493,-0.08819 0.09508,-0.08819 0.09508,-0.250803 0,-0.111621 -0.0689,-0.188791 -0.03445,-0.03996 -0.103354,-0.08957 -0.06752,-0.04961 -0.1722543,-0.111621 -0.239778,-0.141938 -0.334864,-0.270096 -0.09095,-0.128157 -0.09095,-0.321082 0,-0.257693 0.1791454,-0.427192 0.179145,-0.170876 0.4519949,-0.170876 0.177767,0 0.303168,0.07166 0.128157,0.07166 0.263205,0.243912 z m 1.99402,-0.0813 -0.04272,0.344509 q -0.276986,-0.281119 -0.66008,-0.281119 -0.337619,0 -0.545703,0.239778 -0.209461,0.238401 -0.209461,0.621495 0,0.35829 0.201193,0.559483 0.199815,0.199815 0.564995,0.199815 0.304546,0 0.537435,-0.187413 l -0.04548,0.373448 q -0.293521,0.108865 -0.54708,0.108865 -0.463021,0 -0.745518,-0.293522 -0.282498,-0.290765 -0.282498,-0.774456 0,-0.493338 0.300412,-0.818555 0.30179,-0.325216 0.757921,-0.325216 0.359667,0 0.716579,0.232888 z m 1.94441,0.829578 0.530544,1.107942 h -0.330729 l -0.395497,-0.846115 -0.588422,0.846115 h -0.369313 l 0.807529,-1.141015 -0.467155,-0.986674 h 0.334863 l 0.327973,0.731738 0.497471,-0.731738 h 0.37207 z"
     id="text30"
     style="font-style:italic;font-weight:500;font-size:2.82222px;font-family:Futura;-inkscape-font-specification:'Futura, Medium Italic';fill:#ffffff;fill-rule:evenodd;stroke:#2f2f2f;stroke-width:0"
     aria-label="OSC X" />
  <path
     d="m 47.553476,17.559862 q 0,0.363802 -0.192926,0.66008 -0.152962,0.232889 -0.39963,0.359668 -0.246669,0.126779 -0.545703,0.126779 -0.478179,0 -0.77997,-0.304546 -0.30179,-0.305924 -0.30179,-0.790993 0,-0.483691 0.319704,-0.799262 0.321084,-0.316948 0.810287,-0.316948 0.489203,0 0.789615,0.293522 0.300413,0.292144 0.300413,0.7717 z m -0.31695,-0.0028 q 0,-0.348643 -0.206704,-0.558105 -0.206706,-0.208083 -0.555349,-0.208083 -0.350023,0 -0.588423,0.234266 -0.235644,0.234266 -0.235644,0.585666 0,0.347265 0.219107,0.574641 0.219109,0.225998 0.553972,0.225998 0.348643,0 0.580153,-0.243912 0.232888,-0.241157 0.232888,-0.610471 z m 1.958191,-0.748274 -0.210839,0.201194 q -0.150206,-0.220486 -0.344509,-0.220486 -0.140561,0 -0.232888,0.08682 -0.09233,0.08682 -0.09233,0.21773 0,0.104731 0.06339,0.180523 0.03169,0.03583 0.09233,0.0813 0.06201,0.04547 0.154341,0.100597 0.274228,0.159852 0.366557,0.289387 0.09371,0.130914 0.09371,0.343132 0,0.275607 -0.181902,0.446484 -0.179144,0.170876 -0.472667,0.170876 -0.237022,0 -0.401007,-0.101974 -0.08268,-0.05099 -0.154341,-0.132292 -0.07166,-0.08268 -0.137804,-0.199815 l 0.239778,-0.162609 q 0.09784,0.172255 0.191547,0.237023 0.09371,0.06477 0.243914,0.06477 0.166742,0 0.260448,-0.08819 0.09508,-0.08819 0.09508,-0.250803 0,-0.111621 -0.0689,-0.188791 -0.03445,-0.03996 -0.103353,-0.08957 -0.06752,-0.04961 -0.172255,-0.111621 -0.239778,-0.141938 -0.334863,-0.270096 -0.09095,-0.128157 -0.09095,-0.321082 0,-0.257693 0.179144,-0.427192 0.179145,-0.170876 0.451997,-0.170876 0.177766,0 0.303168,0.07166 0.128157,0.07166 0.263205,0.243912 z m 1.994021,-0.0813 -0.04272,0.344509 q -0.276987,-0.281119 -0.660081,-0.281119 -0.337618,0 -0.545703,0.239778 -0.209462,0.238401 -0.209462,0.621495 0,0.35829 0.201194,0.559483 0.199815,0.199815 0.564996,0.199815 0.304546,0 0.537433,-0.187413 l -0.04548,0.373448 q -0.293522,0.108865 -0.54708,0.108865 -0.46302,0 -0.745519,-0.293522 -0.282497,-0.290765 -0.282497,-0.774456 0,-0.493338 0.300412,-0.818555 0.30179,-0.325216 0.75792,-0.325216 0.359668,0 0.71658,0.232888 z m 1.865861,0.985297 -0.117132,0.952223 h -0.315572 l 0.121267,-0.974272 -0.552593,-1.153417 h 0.338999 l 0.39274,0.846115 0.558105,-0.846115 h 0.362423 z"
     id="text30-4"
     style="font-style:italic;font-weight:500;font-size:2.82222px;font-family:Futura;-inkscape-font-specification:'Futura, Medium Italic';fill:#ffffff;fill-rule:evenodd;stroke:#2f2f2f;stroke-width:0"
     aria-label="OSC Y" />
</svg>
