<?xml version="1.0" encoding="UTF-8" standalone="no"?>
<svg
   width="60.96mm"
   height="128.5mm"
   viewBox="0 0 60.96 128.5"
   version="1.1"
   id="svg28"
   xmlns="http://www.w3.org/2000/svg"
   xmlns:svg="http://www.w3.org/2000/svg">
  <defs
     id="defs28" />
  <!-- Dark panel background -->
  <rect
     width="60.96"
     height="128.5"
     fill="#1a1a1a"
     stroke="#0a0a0a"
     stroke-width="0.5"
     id="rect1" />
  <!-- Header -->
  <path
     d="M 24.025413,5.5510664 23.752952,5.696086 Q 23.688502,5.56425 23.593285,5.56425 q -0.04541,0 -0.07764,0.030762 -0.03223,0.029297 -0.03223,0.076172 0,0.082031 0.19043,0.1625977 0.262207,0.112793 0.353027,0.2080078 0.09082,0.095215 0.09082,0.2563477 0,0.2065429 -0.152344,0.3457031 -0.147949,0.1318359 -0.357422,0.1318359 -0.358887,0 -0.508301,-0.3500976 l 0.28125,-0.1303711 q 0.05859,0.102539 0.08936,0.1303711 0.06006,0.055664 0.143554,0.055664 0.166993,0 0.166993,-0.1523437 0,-0.087891 -0.128907,-0.1640625 -0.0498,-0.024902 -0.09961,-0.04834 -0.0498,-0.023437 -0.101074,-0.04834 -0.143555,-0.070312 -0.202149,-0.140625 -0.07471,-0.089355 -0.07471,-0.2299805 0,-0.1860351 0.127442,-0.3076172 0.130371,-0.121582 0.316406,-0.121582 0.273926,0 0.407226,0.2827148 z m 0.388184,-1.2905273 h 0.32959 v 1.1660156 q 0.175781,-0.1582031 0.388183,-0.1582031 0.2417,0 0.386719,0.1567383 0.123047,0.1362305 0.123047,0.4350586 v 0.8745117 h -0.32959 v -0.84375 q 0,-0.1713867 -0.06152,-0.2475586 -0.06006,-0.077637 -0.194824,-0.077637 -0.172852,0 -0.243164,0.1069336 -0.06885,0.1083984 -0.06885,0.3720703 v 0.6899417 h -0.32959 z m 2.696777,1.0473633 h 0.331055 V 6.7346602 H 27.110374 V 6.5852461 q -0.203613,0.1904297 -0.437988,0.1904297 -0.295898,0 -0.489258,-0.2138672 -0.191894,-0.2182617 -0.191894,-0.5449218 0,-0.3208008 0.191894,-0.534668 0.191895,-0.2138672 0.480469,-0.2138672 0.249023,0 0.446777,0.2050781 z m -0.782226,0.7089844 q 0,0.2050781 0.109863,0.3339843 0.112793,0.1303711 0.28418,0.1303711 0.183105,0 0.295898,-0.1259765 0.112793,-0.1303711 0.112793,-0.3310547 0,-0.2006836 -0.112793,-0.3310547 -0.112793,-0.1274414 -0.292969,-0.1274414 -0.169921,0 -0.284179,0.1289062 -0.112793,0.1303711 -0.112793,0.3222657 z m 1.858887,1.4941406 h -0.32959 v -2.203125 h 0.32959 v 0.1552734 q 0.194824,-0.1948242 0.442382,-0.1948242 0.294434,0 0.484864,0.2167969 0.193359,0.215332 0.193359,0.543457 0,0.3208008 -0.191895,0.534668 -0.190429,0.2124023 -0.480468,0.2124023 -0.250489,0 -0.448242,-0.2006836 z m 0.783691,-1.480957 q 0,-0.2050782 -0.111328,-0.3339844 -0.112793,-0.1303711 -0.28418,-0.1303711 -0.181641,0 -0.294433,0.1259765 -0.112793,0.1259766 -0.112793,0.3310547 0,0.2006836 0.112793,0.3310547 0.111328,0.1274414 0.292968,0.1274414 0.171387,0 0.282715,-0.1289062 0.114258,-0.1289063 0.114258,-0.3222656 z m 1.984863,0.068848 h -1.022461 q 0.01318,0.1757813 0.114258,0.2797852 0.101074,0.102539 0.259277,0.102539 0.123047,0 0.203614,-0.058594 0.0791,-0.058594 0.180175,-0.2167969 l 0.278321,0.1552734 q -0.06445,0.1098633 -0.136231,0.1889649 -0.07178,0.077637 -0.153808,0.1289062 -0.08203,0.049805 -0.177246,0.073242 -0.09521,0.023437 -0.206543,0.023437 -0.319336,0 -0.512696,-0.2050781 -0.193359,-0.206543 -0.193359,-0.5478516 0,-0.3383789 0.1875,-0.5478515 0.188965,-0.206543 0.500977,-0.206543 0.314941,0 0.498046,0.2006836 0.181641,0.1992187 0.181641,0.5522461 z M 30.61721,5.8293868 q -0.06885,-0.2636719 -0.332519,-0.2636719 -0.06006,0 -0.112793,0.019043 -0.05273,0.017578 -0.09668,0.052734 -0.04248,0.033691 -0.07324,0.082031 -0.03076,0.04834 -0.04687,0.1098633 z m 1.064942,-0.2138672 v 1.1191406 h -0.32959 V 5.6155196 H 31.211937 V 5.3079024 h 0.140625 V 4.7849532 h 0.32959 v 0.5229492 h 0.256347 V 5.6155196 Z M 33.240745,5.3079024 H 33.5718 V 6.7346602 H 33.240745 V 6.5852461 q -0.203613,0.1904297 -0.437988,0.1904297 -0.295898,0 -0.489258,-0.2138672 -0.191894,-0.2182617 -0.191894,-0.5449218 0,-0.3208008 0.191894,-0.534668 0.191895,-0.2138672 0.480469,-0.2138672 0.249024,0 0.446777,0.2050781 z m -0.782226,0.7089844 q 0,0.2050781 0.109863,0.3339843 0.112793,0.1303711 0.28418,0.1303711 0.183105,0 0.295898,-0.1259765 0.112793,-0.1303711 0.112793,-0.3310547 0,-0.2006836 -0.112793,-0.3310547 -0.112793,-0.1274414 -0.292968,-0.1274414 -0.169922,0 -0.28418,0.1289062 -0.112793,0.1303711 -0.112793,0.3222657 z m 1.858887,-1.7563477 v 1.5087891 l 0.464355,-0.4614258 h 0.442383 l -0.619629,0.5991211 0.665039,0.8276367 H 34.84182 L 34.37014,6.1326094 34.31741,6.1853434 V 6.7346602 H 33.987816 V 4.2605391 Z m 2.415527,1.8383789 h -1.022461 q 0.01318,0.1757813 0.114258,0.2797852 0.101074,0.102539 0.259277,0.102539 0.123047,0 0.203613,-0.058594 0.0791,-0.058594 0.180176,-0.2167969 l 0.278321,0.1552734 q -0.06445,0.1098633 -0.136231,0.1889649 -0.07178,0.077637 -0.153809,0.1289062 -0.08203,0.049805 -0.177246,0.073242 -0.09521,0.023437 -0.206543,0.023437 -0.319336,0 -0.512695,-0.2050781 -0.193359,-0.206543 -0.193359,-0.5478516 0,-0.3383789 0.1875,-0.5478515 0.188965,-0.206543 0.500976,-0.206543 0.314942,0 0.498047,0.2006836 0.181641,0.1992187 0.181641,0.5522461 z M 36.394554,5.8293868 q -0.06885,-0.2636719 -0.332519,-0.2636719 -0.06006,0 -0.112793,0.019043 -0.05273,0.017578 -0.09668,0.052734 -0.04248,0.033691 -0.07324,0.082031 -0.03076,0.04834 -0.04687,0.1098633 z m 0.698731,-0.5214844 h 0.329589 v 0.1274414 q 0.09082,-0.095215 0.161133,-0.1303711 0.07178,-0.036621 0.169922,-0.036621 0.130371,0 0.272461,0.084961 l -0.150879,0.3017579 q -0.09375,-0.067383 -0.183105,-0.067383 -0.269532,0 -0.269532,0.4072266 v 0.739746 h -0.329589 z"
     id="text1"
     style="font-size:3px;font-family:Futura, Helvetica, sans-serif;text-anchor:middle;fill:#ffffff"
     aria-label="shapetaker" />
  <!-- Module name -->
  <path
     d="M 18.694843,9.8249671 V 10.36403 q -0.394531,-0.330078 -0.816406,-0.330078 -0.464844,0 -0.783203,0.333984 -0.320313,0.332031 -0.320313,0.8125 0,0.47461 0.320313,0.800781 0.320312,0.326172 0.785156,0.326172 0.240235,0 0.408203,-0.07813 0.09375,-0.03906 0.19336,-0.105468 0.101562,-0.06641 0.21289,-0.160157 v 0.548828 q -0.390625,0.220703 -0.820312,0.220703 -0.646485,0 -1.103516,-0.451171 -0.455078,-0.455078 -0.455078,-1.097657 0,-0.576171 0.380859,-1.027343 0.46875,-0.5527349 1.212891,-0.5527349 0.40625,0 0.785156,0.220703 z m 1.029297,-0.162109 v 2.5878909 h 0.886719 v 0.427734 H 19.269062 V 9.6628581 Z m 3.257813,2.2832029 H 21.690937 L 21.355,12.678483 h -0.490235 l 1.492188,-3.2050779 1.439453,3.2050779 H 23.298359 Z M 22.796406,11.518327 22.34914,10.492936 21.88039,11.518327 Z M 24.628437,9.6628581 V 12.678483 H 24.173359 V 9.6628581 Z m 1.746094,1.7304689 0.933594,1.285156 h -0.556641 l -0.861328,-1.234375 h -0.08203 v 1.234375 H 25.353047 V 9.6628581 h 0.533204 q 0.597656,0 0.863281,0.224609 0.292969,0.2499999 0.292969,0.6601569 0,0.320312 -0.183594,0.550781 -0.183594,0.230469 -0.484375,0.294922 z m -0.566406,-0.345703 h 0.144531 q 0.646484,0 0.646484,-0.494141 0,-0.462891 -0.628906,-0.462891 h -0.162109 z m 3.724609,0.898437 h -1.291016 l -0.335937,0.732422 h -0.490235 l 1.492188,-3.2050779 1.439453,3.2050779 H 29.84914 Z m -0.185547,-0.427734 -0.447266,-1.025391 -0.46875,1.025391 z m 1.716797,-1.8554689 v 1.8164059 q 0,0.388672 0.126953,0.56836 0.189453,0.259765 0.533203,0.259765 0.345703,0 0.535156,-0.259765 0.126954,-0.173828 0.126954,-0.56836 V 9.6628581 h 0.455078 v 1.9414059 q 0,0.476563 -0.296875,0.785157 -0.333985,0.343749 -0.820313,0.343749 -0.486328,0 -0.818359,-0.343749 -0.296875,-0.308594 -0.296875,-0.785157 V 9.6628581 Z m 2.5,3.0156249 V 9.6628581 h 0.632812 q 0.455079,0 0.71875,0.08984 0.283204,0.08789 0.513672,0.2988279 0.466797,0.425781 0.466797,1.119141 0,0.695312 -0.486328,1.125 -0.244141,0.214843 -0.511719,0.298828 -0.25,0.08399 -0.708984,0.08399 z m 0.455078,-0.427734 h 0.205078 q 0.306641,0 0.509766,-0.06445 0.203125,-0.06836 0.367187,-0.216797 0.335938,-0.306641 0.335938,-0.798828 0,-0.496094 -0.332031,-0.804688 -0.298829,-0.275391 -0.88086,-0.275391 H 34.019062 Z M 36.923359,9.6628581 V 12.678483 H 36.468281 V 9.6628581 Z m 2.388672,0.4277339 h -1.208985 v 0.72461 h 1.173829 v 0.427734 h -1.173829 v 1.007813 h 1.208985 v 0.427734 H 37.647968 V 9.6628581 h 1.664063 z m 0.597656,2.587891 V 9.4577801 l 2.199219,2.3007809 V 9.6628581 h 0.455078 v 3.1992189 l -2.199219,-2.294922 v 2.111328 z m 4.208984,-2.587891 v 2.587891 H 43.663593 V 10.090592 H 42.970234 V 9.6628581 h 1.839844 v 0.4277339 z"
     id="text2"
     style="font-weight:500;font-size:4px;font-family:Futura, 'Futura PT', 'Century Gothic', 'Avant Garde', sans-serif;letter-spacing:0.5px;text-anchor:middle;fill:#e8e8e8"
     aria-label="CLAIRAUDIENT" />
  <!-- Minimal section dividers -->
  <line
     x1="5"
     y1="15"
     x2="55.96"
     y2="15"
     stroke="#333"
     stroke-width="0.3"
     id="line1" />
  <line
     x1="5"
     y1="85"
     x2="55.96"
     y2="85"
     stroke="#333333"
     stroke-width="0.3"
     id="line2" />
  <!-- Section labels -->
  <path
     d="m 11.905567,19.75677 v 0.765381 h -0.284424 v -1.884766 h 0.322266 q 0.236816,0 0.357666,0.03296 0.12207,0.03296 0.214844,0.124512 0.162353,0.158691 0.162353,0.400391 0,0.258789 -0.17334,0.410156 -0.17334,0.151367 -0.467529,0.151367 z m 0,-0.263672 h 0.106201 q 0.391846,0 0.391846,-0.301513 0,-0.291748 -0.404053,-0.291748 h -0.09399 z m 2.034912,0.571289 h -0.806885 l -0.20996,0.457764 h -0.306397 l 0.932617,-2.003174 0.899658,2.003174 h -0.311279 z m -0.115967,-0.267334 -0.279541,-0.640869 -0.292968,0.640869 z m 1.14502,-1.159668 v 1.884766 h -0.284424 v -1.884766 z m 1.091308,1.081543 0.583497,0.803223 h -0.347902 l -0.538329,-0.771484 h -0.05127 v 0.771484 h -0.284424 v -1.884766 h 0.333252 q 0.373534,0 0.53955,0.140381 0.183106,0.15625 0.183106,0.412598 0,0.200195 -0.114747,0.344238 -0.114746,0.144043 -0.302733,0.184326 z m -0.354003,-0.216064 h 0.09033 q 0.404051,0 0.404051,-0.308838 0,-0.289307 -0.393065,-0.289307 h -0.101318 z m 2.443847,-0.599365 h -0.325927 l 0.15625,-0.266114 h 0.4541 v 1.884766 h -0.284424 z"
     id="text3"
     style="font-size:2.5px;font-family:Futura, 'Futura PT', 'Century Gothic', 'Avant Garde', sans-serif;text-anchor:middle;fill:#999999"
     aria-label="PAIR 1" />
  <path
     d="m 41.905566,19.75677 v 0.765381 h -0.284424 v -1.884766 h 0.322266 q 0.236816,0 0.357666,0.03296 0.12207,0.03296 0.214844,0.124512 0.162353,0.158691 0.162353,0.400391 0,0.258789 -0.17334,0.410156 -0.17334,0.151367 -0.467529,0.151367 z m 0,-0.263672 h 0.106201 q 0.391846,0 0.391846,-0.301513 0,-0.291748 -0.404053,-0.291748 h -0.09399 z m 2.034912,0.571289 h -0.806885 l -0.20996,0.457764 h -0.306397 l 0.932617,-2.003174 0.899658,2.003174 h -0.311279 z m -0.115967,-0.267334 -0.279541,-0.640869 -0.292968,0.640869 z m 1.145021,-1.159668 v 1.884766 h -0.284425 v -1.884766 z m 1.091308,1.081543 0.583497,0.803223 h -0.347902 l -0.53833,-0.771484 h -0.05127 v 0.771484 h -0.284424 v -1.884766 h 0.333252 q 0.373535,0 0.539551,0.140381 0.183105,0.15625 0.183105,0.412598 0,0.200195 -0.114746,0.344238 -0.114745,0.144043 -0.302733,0.184326 z m -0.354004,-0.216064 h 0.09033 q 0.404052,0 0.404052,-0.308838 0,-0.289307 -0.393066,-0.289307 h -0.101318 z m 2.392578,0.751953 h 0.701904 v 0.267334 h -1.265869 l 0.654297,-0.792236 q 0.09643,-0.118409 0.161133,-0.205078 0.06592,-0.08667 0.100097,-0.145264 0.06958,-0.114746 0.06958,-0.206299 0,-0.131836 -0.09277,-0.220947 -0.09277,-0.08911 -0.229492,-0.08911 -0.285645,0 -0.327149,0.338135 h -0.283203 q 0.06836,-0.595703 0.601807,-0.595703 0.257568,0 0.432129,0.163574 0.175781,0.163575 0.175781,0.405274 0,0.153808 -0.08179,0.301513 -0.0415,0.07691 -0.12207,0.183106 -0.07935,0.10498 -0.201416,0.249023 z"
     id="text4"
     style="font-size:2.5px;font-family:Futura, 'Futura PT', 'Century Gothic', 'Avant Garde', sans-serif;text-anchor:middle;fill:#999999"
     aria-label="PAIR 2" />
  <!-- Row 1: Frequency controls -->
  <path
     d="m 13.338185,24.112215 h -0.525391 v 0.362304 h 0.506836 v 0.213868 h -0.506836 v 0.717773 h -0.227539 v -1.507813 h 0.75293 z m 0.774414,0.651367 0.466797,0.642578 h -0.278321 l -0.430664,-0.617188 h -0.04101 v 0.617188 h -0.227544 v -1.507813 h 0.266601 q 0.298828,0 0.431641,0.112305 0.146484,0.125 0.146484,0.330078 0,0.160157 -0.0918,0.275391 -0.0918,0.115234 -0.242187,0.147461 z M 13.829396,24.59073 h 0.07226 q 0.323243,0 0.323243,-0.24707 0,-0.231445 -0.314454,-0.231445 h -0.08105 z m 1.808594,-0.478515 h -0.604493 v 0.362304 h 0.586914 v 0.213868 h -0.586914 v 0.503906 h 0.604493 v 0.213867 h -0.832032 v -1.507813 h 0.832032 z m 1.833005,1.321289 H 17.184864 L 17.0667,25.31241 q -0.188477,0.121094 -0.419921,0.121094 -0.299805,0 -0.532227,-0.203125 -0.25293,-0.223633 -0.25293,-0.571289 0,-0.340821 0.239258,-0.56836 0.232422,-0.220703 0.548828,-0.220703 0.28711,0 0.514649,0.19336 0.273437,0.232421 0.273437,0.606445 0,0.292969 -0.21582,0.520508 z m -0.625976,-0.624024 0.21875,0.217774 q 0.144531,-0.150391 0.144531,-0.372071 0,-0.243164 -0.161133,-0.407226 -0.161133,-0.164063 -0.40039,-0.164063 -0.242188,0 -0.398438,0.164063 -0.157227,0.163086 -0.157227,0.413086 0,0.24414 0.16211,0.399414 0.168945,0.160156 0.385742,0.160156 0.147461,0 0.266602,-0.06738 l -0.354493,-0.34375 z"
     id="text5"
     style="font-size:2px;font-family:Futura, 'Futura PT', 'Century Gothic', 'Avant Garde', sans-serif;text-anchor:middle;fill:#e8e8e8"
     aria-label="FREQ" />
  <path
     d="m 43.338183,24.112215 h -0.525391 v 0.362304 h 0.506836 v 0.213868 h -0.506836 v 0.717773 h -0.227539 v -1.507813 h 0.75293 z m 0.774414,0.651367 0.466797,0.642578 h -0.278321 l -0.430664,-0.617188 h -0.04102 v 0.617188 h -0.227534 v -1.507813 h 0.266601 q 0.298828,0 0.431641,0.112305 0.146484,0.125 0.146484,0.330078 0,0.160157 -0.0918,0.275391 -0.0918,0.115234 -0.242188,0.147461 z M 43.829394,24.59073 h 0.07227 q 0.323242,0 0.323242,-0.24707 0,-0.231445 -0.314453,-0.231445 h -0.08105 z m 1.808593,-0.478515 h -0.604492 v 0.362304 h 0.586914 v 0.213868 h -0.586914 v 0.503906 h 0.604492 v 0.213867 h -0.832031 v -1.507813 h 0.832031 z m 1.833008,1.321289 H 47.184862 L 47.066698,25.31241 q -0.188476,0.121094 -0.419921,0.121094 -0.299805,0 -0.532227,-0.203125 -0.25293,-0.223633 -0.25293,-0.571289 0,-0.340821 0.239258,-0.56836 0.232422,-0.220703 0.548828,-0.220703 0.28711,0 0.514649,0.19336 0.273437,0.232421 0.273437,0.606445 0,0.292969 -0.21582,0.520508 z m -0.625976,-0.624024 0.21875,0.217774 q 0.144531,-0.150391 0.144531,-0.372071 0,-0.243164 -0.161133,-0.407226 -0.161133,-0.164063 -0.40039,-0.164063 -0.242188,0 -0.398438,0.164063 -0.157227,0.163086 -0.157227,0.413086 0,0.24414 0.16211,0.399414 0.168945,0.160156 0.385742,0.160156 0.147461,0 0.266602,-0.06738 l -0.354493,-0.34375 z"
     id="text6"
     style="font-size:2px;font-family:Futura, 'Futura PT', 'Century Gothic', 'Avant Garde', sans-serif;text-anchor:middle;fill:#e8e8e8"
     aria-label="FREQ" />
  <!-- Row 2: Fine tune and sync -->
  <path
     d="m 13.854981,39.085243 h -0.472852 v 0.326074 h 0.456153 v 0.192481 h -0.456153 v 0.645996 h -0.204785 v -1.357031 h 0.677637 z m 0.44209,-0.19248 v 1.357031 h -0.204785 v -1.357031 z m 0.326074,1.357031 v -1.449316 l 0.989648,1.035351 v -0.943066 h 0.204785 v 1.439648 L 14.82793,39.299696 v 0.950098 z m 2.268457,-1.164551 h -0.544043 v 0.326074 h 0.528222 v 0.192481 h -0.528222 v 0.453516 h 0.544043 v 0.19248 h -0.748828 v -1.357031 h 0.748828 z"
     id="text7"
     style="font-size:1.8px;font-family:Futura, 'Futura PT', 'Century Gothic', 'Avant Garde', sans-serif;text-anchor:middle;fill:#e8e8e8"
     aria-label="FINE" />
  <path
     d="m 23.819971,39.351552 -0.129199,0.07656 q -0.03623,-0.06289 -0.06904,-0.08203 -0.03418,-0.02188 -0.08818,-0.02188 -0.06631,0 -0.110058,0.0376 -0.04375,0.03691 -0.04375,0.09297 0,0.07725 0.114843,0.124415 l 0.105274,0.04307 q 0.128516,0.05195 0.187988,0.127148 0.05947,0.07451 0.05947,0.183204 0,0.145605 -0.09707,0.240625 -0.09775,0.0957 -0.242676,0.0957 -0.137403,0 -0.226953,-0.08135 -0.08818,-0.08135 -0.110059,-0.229004 l 0.161328,-0.03555 q 0.01094,0.09297 0.03828,0.128516 0.04922,0.06836 0.143555,0.06836 0.07451,0 0.123731,-0.0499 0.04922,-0.0499 0.04922,-0.126465 0,-0.03076 -0.0089,-0.05606 -0.0082,-0.02598 -0.02666,-0.04717 -0.01777,-0.02188 -0.04648,-0.04033 -0.02871,-0.01914 -0.06836,-0.03623 l -0.101856,-0.04238 q -0.216699,-0.0916 -0.216699,-0.267969 0,-0.118945 0.09092,-0.198925 0.09092,-0.08067 0.226269,-0.08067 0.18252,0 0.285059,0.177735 z m 0.423145,0.442285 -0.344532,-0.599512 h 0.183203 l 0.241309,0.421778 0.241992,-0.421778 h 0.183203 l -0.345898,0.599512 v 0.455957 h -0.159277 z m 0.626855,0.455957 v -1.127246 l 0.769727,0.805273 v -0.733496 h 0.159277 v 1.119727 l -0.769727,-0.803223 v 0.738965 z m 1.971484,-0.99873 v 0.188671 q -0.138086,-0.115527 -0.285742,-0.115527 -0.162695,0 -0.274121,0.116895 -0.112109,0.116211 -0.112109,0.284375 0,0.166113 0.112109,0.280273 0.112109,0.11416 0.274805,0.11416 0.08408,0 0.142871,-0.02734 0.03281,-0.01367 0.06768,-0.03691 0.03555,-0.02324 0.07451,-0.05605 v 0.19209 q -0.136718,0.07725 -0.287109,0.07725 -0.22627,0 -0.38623,-0.157911 -0.159278,-0.159277 -0.159278,-0.384179 0,-0.20166 0.133301,-0.359571 0.164062,-0.193457 0.424512,-0.193457 0.142187,0 0.274804,0.07725 z"
     id="text8"
     style="font-size:1.4px;font-family:Futura, 'Futura PT', 'Century Gothic', 'Avant Garde', sans-serif;text-anchor:middle;fill:#777777"
     aria-label="SYNC" />
  <path
     d="m 33.819971,39.351552 -0.129199,0.07656 q -0.03623,-0.06289 -0.06904,-0.08203 -0.03418,-0.02188 -0.08818,-0.02188 -0.06631,0 -0.110058,0.0376 -0.04375,0.03691 -0.04375,0.09297 0,0.07725 0.114843,0.124415 l 0.105274,0.04307 q 0.128516,0.05195 0.187988,0.127148 0.05947,0.07451 0.05947,0.183204 0,0.145605 -0.09707,0.240625 -0.09775,0.0957 -0.242676,0.0957 -0.137403,0 -0.226953,-0.08135 -0.08818,-0.08135 -0.110059,-0.229004 l 0.161328,-0.03555 q 0.01094,0.09297 0.03828,0.128516 0.04922,0.06836 0.143555,0.06836 0.07451,0 0.123731,-0.0499 0.04922,-0.0499 0.04922,-0.126465 0,-0.03076 -0.0089,-0.05606 -0.0082,-0.02598 -0.02666,-0.04717 -0.01777,-0.02188 -0.04648,-0.04033 -0.02871,-0.01914 -0.06836,-0.03623 l -0.101856,-0.04238 q -0.216699,-0.0916 -0.216699,-0.267969 0,-0.118945 0.09092,-0.198925 0.09092,-0.08067 0.226269,-0.08067 0.18252,0 0.285059,0.177735 z m 0.423145,0.442285 -0.344532,-0.599512 h 0.183203 l 0.241309,0.421778 0.241992,-0.421778 h 0.183203 l -0.345898,0.599512 v 0.455957 h -0.159277 z m 0.626855,0.455957 v -1.127246 l 0.769727,0.805273 v -0.733496 h 0.159277 v 1.119727 l -0.769727,-0.803223 v 0.738965 z m 1.971484,-0.99873 v 0.188671 q -0.138086,-0.115527 -0.285742,-0.115527 -0.162695,0 -0.274121,0.116895 -0.112109,0.116211 -0.112109,0.284375 0,0.166113 0.112109,0.280273 0.112109,0.11416 0.274805,0.11416 0.08408,0 0.142871,-0.02734 0.03281,-0.01367 0.06768,-0.03691 0.03555,-0.02324 0.07451,-0.05605 v 0.19209 q -0.136718,0.07725 -0.287109,0.07725 -0.22627,0 -0.38623,-0.157911 -0.159278,-0.159277 -0.159278,-0.384179 0,-0.20166 0.133301,-0.359571 0.164062,-0.193457 0.424512,-0.193457 0.142187,0 0.274804,0.07725 z"
     id="text9"
     style="font-size:1.4px;font-family:Futura, 'Futura PT', 'Century Gothic', 'Avant Garde', sans-serif;text-anchor:middle;fill:#777777"
     aria-label="SYNC" />
  <path
     d="m 43.854981,39.085243 h -0.472852 v 0.326074 h 0.456153 v 0.192481 h -0.456153 v 0.645996 h -0.204785 v -1.357031 h 0.677637 z m 0.44209,-0.19248 v 1.357031 h -0.204785 v -1.357031 z m 0.326074,1.357031 v -1.449316 l 0.989648,1.035351 v -0.943066 h 0.204785 v 1.439648 L 44.82793,39.299696 v 0.950098 z m 2.268457,-1.164551 h -0.544043 v 0.326074 h 0.528222 v 0.192481 h -0.528222 v 0.453516 h 0.544043 v 0.19248 h -0.748828 v -1.357031 h 0.748828 z"
     id="text10"
     style="font-size:1.8px;font-family:Futura, 'Futura PT', 'Century Gothic', 'Avant Garde', sans-serif;text-anchor:middle;fill:#e8e8e8"
     aria-label="FINE" />
  <!-- Row 3: Fine tune attenuverters -->
  <path
     d="m 14.009449,49.40873 h -0.341504 v 0.235498 h 0.329443 v 0.139013 h -0.329443 v 0.466553 h -0.147901 v -0.980078 h 0.489405 z m 0.09141,0.464648 h 0.283105 v 0.124414 h -0.283105 z m 1.039746,0.138379 h -0.41958 l -0.109184,0.238037 h -0.159326 l 0.484961,-1.04165 0.467822,1.04165 h -0.161865 z m -0.0603,-0.139014 -0.145361,-0.333252 -0.152344,0.333252 z m 0.66333,-0.464013 v 0.841064 h -0.1479 V 49.40873 h -0.225342 v -0.139014 h 0.597949 v 0.139014 z m 0.627149,0 v 0.841064 H 16.222883 V 49.40873 h -0.225341 v -0.139014 h 0.597949 v 0.139014 z"
     id="text11"
     style="font-size:1.3px;font-family:Futura, 'Futura PT', 'Century Gothic', 'Avant Garde', sans-serif;text-anchor:middle;fill:#777777"
     aria-label="F-ATT" />
  <path
     d="m 44.009449,49.40873 h -0.341504 v 0.235498 h 0.329443 v 0.139013 h -0.329443 v 0.466553 h -0.147901 v -0.980078 h 0.489405 z m 0.09141,0.464648 h 0.283105 v 0.124414 h -0.283105 z m 1.039746,0.138379 h -0.41958 l -0.109184,0.238037 h -0.159326 l 0.484961,-1.04165 0.467822,1.04165 h -0.161865 z m -0.0603,-0.139014 -0.145361,-0.333252 -0.152344,0.333252 z m 0.66333,-0.464013 v 0.841064 h -0.1479 V 49.40873 h -0.225342 v -0.139014 h 0.597949 v 0.139014 z m 0.627149,0 v 0.841064 H 46.222883 V 49.40873 h -0.225341 v -0.139014 h 0.597949 v 0.139014 z"
     id="text12"
     style="font-size:1.3px;font-family:Futura, 'Futura PT', 'Century Gothic', 'Avant Garde', sans-serif;text-anchor:middle;fill:#777777"
     aria-label="F-ATT" />
  <!-- Row 4: Shape controls -->
  <path
     d="m 12.918087,60.388716 -0.18457,0.109375 c -0.03451,-0.05989 -0.06738,-0.09896 -0.09863,-0.117188 -0.03255,-0.02083 -0.07455,-0.03125 -0.125976,-0.03125 -0.06315,0 -0.115562,0.0179 -0.157227,0.05371 -0.04167,0.03516 -0.0625,0.07943 -0.0625,0.132813 0,0.07357 0.05469,0.132812 0.164063,0.177734 l 0.15039,0.06152 c 0.122396,0.04948 0.211914,0.110027 0.268555,0.18164 0.05664,0.07096 0.08496,0.158204 0.08496,0.261719 0,0.138672 -0.04622,0.253256 -0.138672,0.34375 -0.0931,0.09115 -0.208659,0.136719 -0.34668,0.136719 -0.130859,0 -0.238932,-0.03874 -0.324218,-0.116211 -0.08399,-0.07747 -0.136394,-0.186523 -0.157227,-0.327149 l 0.230469,-0.05078 c 0.01042,0.08854 0.02865,0.14974 0.05469,0.183594 0.04687,0.06511 0.115233,0.09766 0.205078,0.09766 0.07096,0 0.129883,-0.02376 0.176758,-0.07129 0.04687,-0.04753 0.07031,-0.107748 0.07031,-0.180664 0,-0.02929 -0.0042,-0.05599 -0.0127,-0.08008 -0.0078,-0.02474 -0.02051,-0.0472 -0.03808,-0.06738 -0.01693,-0.02083 -0.03906,-0.04004 -0.06641,-0.05762 -0.02735,-0.01823 -0.0599,-0.03548 -0.09766,-0.05176 l -0.145508,-0.06055 c -0.20638,-0.08724 -0.30957,-0.214843 -0.30957,-0.382812 0,-0.113281 0.04329,-0.208008 0.129883,-0.28418 0.08659,-0.07682 0.194336,-0.115234 0.323242,-0.115234 0.173828,0 0.319831,0.07912 0.407226,0.253906 z m 0.541016,0.365234 h 0.650391 v -0.589844 h 0.227539 v 1.507813 h -0.227539 v -0.704102 h -0.650391 v 0.704102 h -0.227539 v -1.507813 h 0.227539 z m 2.125,0.551758 h -0.645508 l -0.167968,0.366211 h -0.245118 l 0.746094,-1.602539 0.719727,1.602539 h -0.249024 z m -0.09277,-0.213867 -0.223633,-0.512695 -0.234375,0.512695 z m 0.916015,-0.03223 v 0.612308 h -0.227539 v -1.507813 h 0.257813 c 0.126302,0 0.22168,0.0088 0.286133,0.02637 0.06511,0.01758 0.122398,0.05078 0.171875,0.09961 0.08659,0.08464 0.129882,0.191407 0.129882,0.320313 0,0.138021 -0.04622,0.247396 -0.138672,0.328125 -0.09245,0.08073 -0.217122,0.121102 -0.374023,0.121093 z m 0,-0.210937 h 0.08496 c 0.208985,0 0.313477,-0.0804 0.313477,-0.241211 0,-0.155599 -0.107747,-0.233399 -0.323242,-0.233399 h -0.0752 z m 1.684571,-0.470703 h -0.604493 v 0.362304 h 0.586914 v 0.213868 h -0.586914 v 0.503906 h 0.604493 v 0.21387 h -0.832032 v -1.507813 h 0.832032 z"
     id="text13"
     style="font-size:2px;font-family:Futura, 'Futura PT', 'Century Gothic', 'Avant Garde', sans-serif;text-anchor:middle;fill:#e8e8e8"
     aria-label="SHAPE" />
  <path
     d="m 42.918087,60.388716 -0.18457,0.109375 c -0.03451,-0.05989 -0.06738,-0.09896 -0.09863,-0.117188 -0.03255,-0.02083 -0.07455,-0.03125 -0.125976,-0.03125 -0.06315,0 -0.115562,0.0179 -0.157227,0.05371 -0.04167,0.03516 -0.0625,0.07943 -0.0625,0.132813 0,0.07357 0.05469,0.132812 0.164063,0.177734 l 0.15039,0.06152 c 0.122396,0.04948 0.211914,0.110027 0.268555,0.18164 0.05664,0.07096 0.08496,0.158204 0.08496,0.261719 0,0.138672 -0.04622,0.253256 -0.138672,0.34375 -0.0931,0.09115 -0.208659,0.136719 -0.34668,0.136719 -0.130859,0 -0.238932,-0.03874 -0.324218,-0.116211 -0.08398,-0.07747 -0.136394,-0.186523 -0.157227,-0.327149 l 0.230469,-0.05078 c 0.01042,0.08854 0.02865,0.14974 0.05469,0.183594 0.04687,0.06511 0.115233,0.09766 0.205078,0.09766 0.07096,0 0.129883,-0.02376 0.176758,-0.07129 0.04687,-0.04753 0.07031,-0.107748 0.07031,-0.180664 0,-0.02929 -0.0042,-0.05599 -0.0127,-0.08008 -0.0078,-0.02474 -0.02051,-0.0472 -0.03808,-0.06738 -0.01693,-0.02083 -0.03906,-0.04004 -0.06641,-0.05762 -0.02734,-0.01823 -0.05989,-0.03548 -0.09766,-0.05176 l -0.145508,-0.06055 c -0.20638,-0.08724 -0.30957,-0.214843 -0.30957,-0.382812 0,-0.113281 0.04329,-0.208008 0.129883,-0.28418 0.08659,-0.07682 0.194336,-0.115234 0.323242,-0.115234 0.173828,0 0.319831,0.07912 0.407226,0.253906 z m 0.541016,0.365234 h 0.650391 v -0.589844 h 0.227539 v 1.507813 h -0.227539 v -0.704102 h -0.650391 v 0.704102 h -0.227539 v -1.507813 h 0.227539 z m 2.125,0.551758 h -0.645508 l -0.167968,0.366211 h -0.245118 l 0.746094,-1.602539 0.719727,1.602539 h -0.249024 z m -0.09277,-0.213867 -0.223633,-0.512695 -0.234375,0.512695 z m 0.916015,-0.03223 v 0.612308 h -0.227539 v -1.507813 h 0.257813 c 0.126302,0 0.22168,0.0088 0.286133,0.02637 0.06511,0.01758 0.122398,0.05078 0.171875,0.09961 0.08659,0.08464 0.129882,0.191407 0.129882,0.320313 0,0.138021 -0.04622,0.247396 -0.138672,0.328125 -0.09245,0.08073 -0.217122,0.121102 -0.374023,0.121093 z m 0,-0.210937 h 0.08496 c 0.208985,0 0.313477,-0.0804 0.313477,-0.241211 0,-0.155599 -0.107747,-0.233399 -0.323242,-0.233399 h -0.0752 z m 1.684571,-0.470703 h -0.604493 v 0.362304 h 0.586914 v 0.213868 h -0.586914 v 0.503906 h 0.604493 v 0.21387 h -0.832032 v -1.507813 h 0.832032 z"
     id="text14"
     style="font-size:2px;font-family:Futura, 'Futura PT', 'Century Gothic', 'Avant Garde', sans-serif;text-anchor:middle;fill:#e8e8e8"
     aria-label="SHAPE" />
  <!-- Row 5: Shape attenuverters -->
  <path
     d="m 14.044361,69.415712 -0.119971,0.07109 q -0.03364,-0.0584 -0.06411,-0.07617 -0.03174,-0.02031 -0.08188,-0.02031 -0.06157,0 -0.102197,0.03491 -0.04062,0.03428 -0.04062,0.08633 0,0.07173 0.10664,0.115527 l 0.09775,0.03999 q 0.119336,0.04824 0.174561,0.118067 0.05522,0.06919 0.05522,0.170117 0,0.135205 -0.09014,0.223437 -0.09077,0.08887 -0.225342,0.08887 -0.127588,0 -0.210742,-0.07554 -0.08188,-0.07554 -0.102198,-0.212646 l 0.149805,-0.03301 q 0.01016,0.08633 0.03555,0.119336 0.0457,0.06348 0.133301,0.06348 0.06919,0 0.114892,-0.04634 0.0457,-0.04634 0.0457,-0.117432 0,-0.02856 -0.0083,-0.05205 -0.0076,-0.02412 -0.02476,-0.0438 -0.0165,-0.02031 -0.04316,-0.03745 -0.02666,-0.01777 -0.06348,-0.03364 l -0.09458,-0.03936 q -0.201221,-0.08506 -0.201221,-0.248828 0,-0.110449 0.08442,-0.184717 0.08442,-0.0749 0.210107,-0.0749 0.169483,0 0.264698,0.165039 z m 0.08633,0.457666 h 0.283105 v 0.124414 h -0.283105 z m 1.039746,0.138379 h -0.41958 l -0.109182,0.238037 h -0.159326 l 0.484961,-1.04165 0.467822,1.04165 h -0.161865 z m -0.0603,-0.139014 -0.145361,-0.333252 -0.152344,0.333252 z m 0.66333,-0.464013 v 0.841064 h -0.1479 V 69.40873 h -0.225342 v -0.139014 h 0.597949 v 0.139014 z m 0.627149,0 v 0.841064 H 16.25271 V 69.40873 h -0.225342 v -0.139014 h 0.59795 v 0.139014 z"
     id="text15"
     style="font-size:1.3px;font-family:Futura, 'Futura PT', 'Century Gothic', 'Avant Garde', sans-serif;text-anchor:middle;fill:#777777"
     aria-label="S-ATT" />
  <path
     d="m 44.044361,69.415712 -0.119971,0.07109 q -0.03364,-0.0584 -0.06411,-0.07617 -0.03174,-0.02031 -0.08188,-0.02031 -0.06157,0 -0.102197,0.03491 -0.04062,0.03428 -0.04062,0.08633 0,0.07173 0.10664,0.115527 l 0.09775,0.03999 q 0.119336,0.04824 0.174561,0.118067 0.05522,0.06919 0.05522,0.170117 0,0.135205 -0.09014,0.223437 -0.09077,0.08887 -0.225342,0.08887 -0.127588,0 -0.210742,-0.07554 -0.08188,-0.07554 -0.102198,-0.212646 l 0.149805,-0.03301 q 0.01016,0.08633 0.03555,0.119336 0.0457,0.06348 0.133301,0.06348 0.06919,0 0.114892,-0.04634 0.0457,-0.04634 0.0457,-0.117432 0,-0.02856 -0.0083,-0.05205 -0.0076,-0.02412 -0.02475,-0.0438 -0.0165,-0.02031 -0.04316,-0.03745 -0.02666,-0.01777 -0.06348,-0.03364 l -0.09458,-0.03936 q -0.201221,-0.08506 -0.201221,-0.248828 0,-0.110449 0.08442,-0.184717 0.08442,-0.0749 0.210107,-0.0749 0.169483,0 0.264698,0.165039 z m 0.08633,0.457666 h 0.283105 v 0.124414 h -0.283105 z m 1.039746,0.138379 h -0.41958 l -0.109182,0.238037 h -0.159326 l 0.484961,-1.04165 0.467822,1.04165 h -0.161865 z m -0.0603,-0.139014 -0.145361,-0.333252 -0.152344,0.333252 z m 0.66333,-0.464013 v 0.841064 h -0.1479 V 69.40873 h -0.225342 v -0.139014 h 0.597949 v 0.139014 z m 0.627149,0 v 0.841064 H 46.25271 V 69.40873 h -0.225342 v -0.139014 h 0.59795 v 0.139014 z"
     id="text16"
     style="font-size:1.3px;font-family:Futura, 'Futura PT', 'Century Gothic', 'Avant Garde', sans-serif;text-anchor:middle;fill:#777777"
     aria-label="S-ATT" />
  <!-- Row 6: Crossfade -->
  <path
     d="m 25.945332,45.742479 v 0.269531 q -0.197266,-0.165039 -0.408203,-0.165039 -0.232422,0 -0.391602,0.166993 -0.160156,0.166015 -0.160156,0.40625 0,0.237304 0.160156,0.40039 0.160156,0.163086 0.392578,0.163086 0.120118,0 0.204102,-0.03906 0.04687,-0.01953 0.09668,-0.05273 0.05078,-0.0332 0.106445,-0.08008 v 0.274414 q -0.195313,0.110352 -0.410156,0.110352 -0.323243,0 -0.551758,-0.225586 -0.227539,-0.227539 -0.227539,-0.548828 0,-0.288086 0.190429,-0.513672 0.234375,-0.276367 0.606446,-0.276367 0.203125,0 0.392578,0.110351 z m 0.797851,0.78418 0.466797,0.642578 h -0.27832 l -0.430664,-0.617188 h -0.04102 v 0.617188 h -0.227539 v -1.507813 h 0.266602 q 0.298828,0 0.43164,0.112305 0.146485,0.125 0.146485,0.330078 0,0.160157 -0.0918,0.275391 -0.0918,0.115234 -0.242188,0.147461 z M 26.45998,46.353807 h 0.07227 q 0.323242,0 0.323242,-0.24707 0,-0.231445 -0.314453,-0.231445 h -0.08106 z m 0.867188,0.05469 q 0,-0.31836 0.233398,-0.546875 0.232422,-0.228516 0.558594,-0.228516 0.322266,0 0.552734,0.230469 0.231446,0.230469 0.231446,0.553711 0,0.325195 -0.232422,0.551758 -0.233399,0.227539 -0.563477,0.227539 -0.291992,0 -0.524414,-0.202149 -0.255859,-0.223633 -0.255859,-0.585937 z m 0.229492,0.0029 q 0,0.25 0.167969,0.411133 0.166992,0.161133 0.385742,0.161133 0.237305,0 0.400391,-0.164062 0.163086,-0.166016 0.163086,-0.404297 0,-0.241211 -0.161133,-0.404297 -0.160157,-0.164063 -0.396485,-0.164063 -0.235351,0 -0.397461,0.164063 -0.162109,0.162109 -0.162109,0.40039 z m 2.485352,-0.52539 -0.184571,0.109375 q -0.05176,-0.08984 -0.09863,-0.117188 -0.04883,-0.03125 -0.125976,-0.03125 -0.09473,0 -0.157227,0.05371 -0.0625,0.05274 -0.0625,0.132813 0,0.110351 0.164063,0.177734 l 0.15039,0.06152 q 0.183594,0.07422 0.268555,0.18164 0.08496,0.106446 0.08496,0.261719 0,0.208008 -0.138672,0.34375 -0.139648,0.136719 -0.346679,0.136719 -0.19629,0 -0.324219,-0.116211 -0.125977,-0.116211 -0.157227,-0.327149 l 0.230469,-0.05078 q 0.01563,0.132813 0.05469,0.183594 0.07031,0.09766 0.205079,0.09766 0.106445,0 0.176757,-0.07129 0.07031,-0.07129 0.07031,-0.180664 0,-0.04394 -0.0127,-0.08008 -0.01172,-0.03711 -0.03809,-0.06738 -0.02539,-0.03125 -0.06641,-0.05762 -0.04101,-0.02734 -0.09766,-0.05176 l -0.145508,-0.06055 q -0.30957,-0.130859 -0.30957,-0.382812 0,-0.169922 0.129883,-0.28418 0.129883,-0.115234 0.323242,-0.115234 0.260742,0 0.407227,0.253906 z m 1.166015,0 -0.18457,0.109375 q -0.05176,-0.08984 -0.09863,-0.117188 -0.04883,-0.03125 -0.125976,-0.03125 -0.09473,0 -0.157227,0.05371 -0.0625,0.05274 -0.0625,0.132813 0,0.110351 0.164062,0.177734 l 0.150391,0.06152 q 0.183594,0.07422 0.268555,0.18164 0.08496,0.106446 0.08496,0.261719 0,0.208008 -0.138672,0.34375 -0.139649,0.136719 -0.34668,0.136719 -0.196289,0 -0.324219,-0.116211 -0.125976,-0.116211 -0.157226,-0.327149 l 0.230469,-0.05078 q 0.01563,0.132813 0.05469,0.183594 0.07031,0.09766 0.205078,0.09766 0.106446,0 0.176758,-0.07129 0.07031,-0.07129 0.07031,-0.180664 0,-0.04394 -0.0127,-0.08008 -0.01172,-0.03711 -0.03809,-0.06738 -0.02539,-0.03125 -0.06641,-0.05762 -0.04102,-0.02734 -0.09766,-0.05176 l -0.145508,-0.06055 q -0.30957,-0.130859 -0.30957,-0.382812 0,-0.169922 0.129882,-0.28418 0.129883,-0.115234 0.323243,-0.115234 0.260742,0 0.407226,0.253906 z m 1.066406,-0.01074 h -0.52539 v 0.362304 h 0.506836 v 0.213868 h -0.506836 v 0.717798 h -0.227539 v -1.507813 h 0.752929 z m 1.049805,0.927734 H 32.67873 l -0.167968,0.366236 h -0.245118 l 0.746094,-1.602539 0.719727,1.602539 h -0.249024 z m -0.09277,-0.213867 -0.223633,-0.512695 -0.234375,0.512695 z m 0.688473,0.580103 v -1.507813 h 0.316407 q 0.227539,0 0.359375,0.04492 0.141601,0.04395 0.256835,0.149414 0.233399,0.212891 0.233399,0.559571 0,0.347656 -0.243164,0.5625 -0.12207,0.107422 -0.25586,0.149414 -0.125,0.04199 -0.354492,0.04199 z M 34.14748,46.95537 h 0.102539 q 0.153321,0 0.254883,-0.03223 0.101563,-0.03418 0.183594,-0.108398 0.167969,-0.153321 0.167969,-0.399414 0,-0.248047 -0.166016,-0.402344 -0.149414,-0.137695 -0.44043,-0.137695 H 34.14748 Z m 2.056641,-1.080078 h -0.604492 v 0.362304 h 0.586914 v 0.213868 h -0.586914 v 0.503906 h 0.604492 v 0.213867 H 35.37209 v -1.507813 h 0.832031 z"
     id="text17"
     style="font-size:2px;font-family:Futura, 'Futura PT', 'Century Gothic', 'Avant Garde', sans-serif;text-anchor:middle;fill:#e8e8e8"
     aria-label="CROSSFADE" />
  <path
     d="m 29.125409,80.770588 -0.269776,-0.467822 h 0.168213 l 0.187256,0.331982 0.196777,-0.331982 h 0.169483 l -0.282471,0.467822 0.296436,0.512256 h -0.165674 l -0.21709,-0.375146 -0.223437,0.375146 h -0.167579 z m 0.522412,0.13584 h 0.283105 v 0.124414 h -0.283105 z m 1.039746,0.138379 h -0.41958 l -0.10918,0.238037 h -0.159326 l 0.484961,-1.04165 0.467822,1.04165 h -0.161865 z m -0.0603,-0.139014 -0.145361,-0.333252 -0.152344,0.333252 z m 0.66333,-0.464013 v 0.841064 h -0.1479 V 80.44178 h -0.225342 v -0.139014 h 0.597949 v 0.139014 z m 0.627149,0 v 0.841064 H 31.769845 V 80.44178 h -0.225342 v -0.139014 h 0.59795 v 0.139014 z"
     id="text18"
     style="font-size:1.3px;font-family:Futura, 'Futura PT', 'Century Gothic', 'Avant Garde', sans-serif;text-anchor:middle;fill:#777777"
     aria-label="X-ATT" />
  <!-- Input labels -->
  <path
     d="m 7.8738724,93.601624 0.2918946,0.73145 0.295996,-0.73145 H 8.6360794 L 8.162349,94.73639 7.699556,93.601624 Z m 1.3603516,-0.11074 0.1271484,0.0561 -0.6042968,1.398636 -0.1257813,-0.0567 z m 0.2057617,0.63369 q 0,-0.22285 0.1633789,-0.38281 0.1626953,-0.15996 0.3910164,-0.15996 0.225586,0 0.386914,0.16133 0.162011,0.16132 0.162011,0.38759 0,0.22764 -0.162695,0.386226 -0.163379,0.15928 -0.394433,0.15928 -0.2043955,0 -0.3670908,-0.1415 -0.1791015,-0.156546 -0.1791015,-0.410156 z m 0.1606445,0.002 q 0,0.175 0.1175781,0.287786 0.1168945,0.1128 0.2700197,0.1128 0.166114,0 0.280274,-0.11485 0.11416,-0.116206 0.11416,-0.282996 0,-0.16885 -0.112793,-0.28301 -0.112109,-0.11485 -0.277539,-0.11485 -0.1647467,0 -0.2782232,0.11485 -0.1134766,0.11347 -0.1134766,0.28027 z m 1.9229498,-0.46826 v 0.18867 q -0.138086,-0.11553 -0.285742,-0.11553 -0.162696,0 -0.274121,0.1169 -0.11211,0.11621 -0.11211,0.28437 0,0.16612 0.11211,0.280276 0.112109,0.11416 0.274804,0.11416 0.08408,0 0.142871,-0.0273 0.03281,-0.0137 0.06768,-0.0369 0.03555,-0.0232 0.07451,-0.0561 v 0.192086 q -0.136719,0.0772 -0.287109,0.0772 -0.22627,0 -0.386231,-0.15791 -0.159277,-0.159276 -0.159277,-0.384176 0,-0.20166 0.133301,-0.35957 0.164062,-0.19346 0.424511,-0.19346 0.142188,0 0.274805,0.0773 z m 0.492187,0.093 V 94.65709 H 11.85649 v -0.905756 h -0.242676 v -0.14971 h 0.643946 v 0.14971 z"
     id="text19"
     style="font-size:1.4px;font-family:Futura, Helvetica, sans-serif;text-anchor:middle;fill:#aaaaaa"
     aria-label="V/OCT" />
  <path
     d="m 21.26484,93.880724 h -0.315235 v 0.21739 h 0.304102 v 0.12832 h -0.304102 v 0.430656 h -0.136523 v -0.904686 h 0.451758 z m 0.08438,0.42891 h 0.261328 v 0.114836 h -0.261333 z m 1.038281,-0.50859 v 0.16171 q -0.118359,-0.099 -0.244922,-0.099 -0.139453,0 -0.234961,0.1002 -0.09609,0.0996 -0.09609,0.24375 0,0.14238 0.09609,0.240226 0.09609,0.0979 0.235547,0.0979 0.07207,0 0.122461,-0.0234 0.02813,-0.0117 0.05801,-0.0316 0.03047,-0.0199 0.06387,-0.048 v 0.16465 q -0.117188,0.0662 -0.246094,0.0662 -0.193945,0 -0.331055,-0.13536 -0.136523,-0.136516 -0.136523,-0.329286 0,-0.17285 0.114258,-0.30821 0.140625,-0.16582 0.363867,-0.16582 0.121875,0 0.235547,0.0662 z m 0.217969,-0.0486 0.250195,0.62696 0.253711,-0.62696 h 0.149409 L 22.85273,94.7251 22.456051,93.752444 Z"
     id="text20"
     style="font-size:1.2px;font-family:Futura, Helvetica, sans-serif;text-anchor:middle;fill:#aaaaaa"
     aria-label="F-CV" />
  <path
     d="m 37.26484,93.880724 h -0.315235 v 0.21739 h 0.304102 v 0.12832 h -0.304102 v 0.430656 h -0.136523 v -0.904686 h 0.451758 z m 0.08438,0.42891 h 0.261328 v 0.114836 h -0.261333 z m 1.038281,-0.50859 v 0.16171 q -0.118359,-0.099 -0.244922,-0.099 -0.139453,0 -0.234961,0.1002 -0.09609,0.0996 -0.09609,0.24375 0,0.14238 0.09609,0.240226 0.09609,0.0979 0.235547,0.0979 0.07207,0 0.122461,-0.0234 0.02813,-0.0117 0.05801,-0.0316 0.03047,-0.0199 0.06387,-0.048 v 0.16465 q -0.117188,0.0662 -0.246094,0.0662 -0.193945,0 -0.331055,-0.13536 -0.136523,-0.136516 -0.136523,-0.329286 0,-0.17285 0.114258,-0.30821 0.140625,-0.16582 0.363867,-0.16582 0.121875,0 0.235547,0.0662 z m 0.217969,-0.0486 0.250195,0.62696 0.253711,-0.62696 h 0.149409 L 38.85273,94.7251 38.456051,93.752444 Z"
     id="text21"
     style="font-size:1.2px;font-family:Futura, Helvetica, sans-serif;text-anchor:middle;fill:#aaaaaa"
     aria-label="F-CV" />
  <path
     d="m 47.873873,93.601624 0.291894,0.73145 0.295997,-0.73145 h 0.174316 l -0.473731,1.134766 -0.462792,-1.134766 z m 1.360351,-0.11074 0.127149,0.0561 -0.604297,1.398636 -0.125781,-0.0567 z m 0.205762,0.63369 q 0,-0.22285 0.163379,-0.38281 0.162695,-0.15996 0.391016,-0.15996 0.225586,0 0.386914,0.16133 0.162011,0.16132 0.162011,0.38759 0,0.22764 -0.162695,0.386226 -0.163379,0.15928 -0.394433,0.15928 -0.204395,0 -0.36709,-0.1415 -0.179102,-0.156546 -0.179102,-0.410156 z m 0.160645,0.002 q 0,0.175 0.117578,0.287786 0.116894,0.1128 0.270019,0.1128 0.166114,0 0.280274,-0.11485 0.11416,-0.116206 0.11416,-0.282996 0,-0.16885 -0.112793,-0.28301 -0.112109,-0.11485 -0.277539,-0.11485 -0.164746,0 -0.278223,0.11485 -0.113476,0.11347 -0.113476,0.28027 z m 1.922949,-0.46826 v 0.18867 q -0.138086,-0.11553 -0.285742,-0.11553 -0.162696,0 -0.274121,0.1169 -0.11211,0.11621 -0.11211,0.28437 0,0.16612 0.11211,0.280276 0.112109,0.11416 0.274804,0.11416 0.08408,0 0.142871,-0.0273 0.03281,-0.0137 0.06768,-0.0369 0.03555,-0.0232 0.07451,-0.0561 v 0.192086 q -0.136719,0.0772 -0.287109,0.0772 -0.22627,0 -0.386231,-0.15791 -0.159277,-0.159276 -0.159277,-0.384176 0,-0.20166 0.133301,-0.35957 0.164062,-0.19346 0.424511,-0.19346 0.142188,0 0.274805,0.0773 z m 0.492187,0.093 V 94.65709 H 51.85649 v -0.905756 h -0.242676 v -0.14971 h 0.643946 v 0.14971 z"
     id="text22"
     style="font-size:1.4px;font-family:Futura, Helvetica, sans-serif;text-anchor:middle;fill:#aaaaaa"
     aria-label="V/OCT" />
  <path
     d="m 8.8795896,105.16501 -0.1107421,0.0656 q -0.031055,-0.0539 -0.05918,-0.0703 -0.029297,-0.0188 -0.075586,-0.0188 -0.056836,0 -0.094336,0.0322 -0.0375,0.0316 -0.0375,0.0797 0,0.0662 0.098438,0.10665 l 0.090234,0.0369 q 0.1101562,0.0445 0.1611328,0.10898 0.050977,0.0639 0.050977,0.15703 0,0.12481 -0.083203,0.20625 -0.083789,0.082 -0.2080078,0.082 -0.1177734,0 -0.1945313,-0.0697 -0.075586,-0.0697 -0.094336,-0.19629 l 0.1382813,-0.0305 q 0.00938,0.0797 0.032813,0.11016 0.042187,0.0586 0.1230468,0.0586 0.063867,0 0.1060547,-0.0428 0.042188,-0.0428 0.042188,-0.1084 0,-0.0264 -0.00762,-0.0481 -0.00703,-0.0223 -0.022851,-0.0404 -0.015234,-0.0187 -0.039844,-0.0346 -0.024609,-0.0164 -0.058594,-0.0311 l -0.087305,-0.0363 q -0.1857422,-0.0785 -0.1857422,-0.22969 0,-0.10195 0.07793,-0.17051 0.07793,-0.0691 0.1939453,-0.0691 0.1564453,0 0.2443359,0.15235 z m 0.3246094,0.21914 h 0.3902344 v -0.35391 h 0.1365235 v 0.90469 H 9.5944334 v -0.42246 H 9.204199 v 0.42246 H 9.0676756 v -0.90469 H 9.204199 Z m 0.6351563,0.20332 h 0.2613287 v 0.11484 H 9.8393553 Z m 1.0382817,-0.50859 v 0.16171 q -0.118359,-0.099 -0.244922,-0.099 -0.139453,0 -0.234961,0.1002 -0.09609,0.0996 -0.09609,0.24375 0,0.14238 0.09609,0.24023 0.09609,0.0979 0.235547,0.0979 0.07207,0 0.122461,-0.0234 0.02813,-0.0117 0.05801,-0.0316 0.03047,-0.0199 0.06387,-0.048 v 0.16465 q -0.117187,0.0662 -0.246094,0.0662 -0.193945,0 -0.331054,-0.13536 -0.136524,-0.13652 -0.136524,-0.32929 0,-0.17285 0.114258,-0.30821 0.140625,-0.16582 0.363867,-0.16582 0.121875,0 0.235547,0.0662 z m 0.217969,-0.0486 0.250195,0.62696 0.253711,-0.62696 h 0.149414 l -0.406054,0.97266 -0.39668,-0.97266 z"
     id="text23"
     style="font-size:1.2px;font-family:Futura, Helvetica, sans-serif;text-anchor:middle;fill:#aaaaaa"
     aria-label="SH-CV" />
  <path
     d="m 20.957227,105.46208 -0.249024,-0.43184 h 0.155274 l 0.172851,0.30645 0.181641,-0.30645 h 0.156445 l -0.260742,0.43184 0.273633,0.47285 h -0.15293 l -0.20039,-0.34629 -0.20625,0.34629 h -0.154688 z m 0.482226,0.12539 h 0.261329 v 0.11484 h -0.261329 z m 1.038282,-0.50859 v 0.16171 q -0.11836,-0.099 -0.244922,-0.099 -0.139453,0 -0.234961,0.1002 -0.09609,0.0996 -0.09609,0.24375 0,0.14238 0.09609,0.24023 0.09609,0.0979 0.235547,0.0979 0.07207,0 0.122461,-0.0234 0.02812,-0.0117 0.05801,-0.0316 0.03047,-0.0199 0.06387,-0.048 v 0.16465 q -0.117188,0.0662 -0.246094,0.0662 -0.193945,0 -0.331055,-0.13536 -0.136523,-0.13652 -0.136523,-0.32929 0,-0.17285 0.114258,-0.30821 0.140625,-0.16582 0.363867,-0.16582 0.121875,0 0.235547,0.0662 z m 0.217968,-0.0486 0.250196,0.62696 0.253711,-0.62696 h 0.149414 l -0.406055,0.97266 -0.39668,-0.97266 z"
     id="text24"
     style="font-size:1.2px;font-family:Futura, Helvetica, sans-serif;text-anchor:middle;fill:#aaaaaa"
     aria-label="X-CV" />
  <path
     d="m 36.87959,105.16501 -0.110742,0.0656 q -0.03106,-0.0539 -0.05918,-0.0703 -0.0293,-0.0188 -0.07559,-0.0188 -0.05684,0 -0.09434,0.0322 -0.0375,0.0316 -0.0375,0.0797 0,0.0662 0.09844,0.10665 l 0.09023,0.0369 q 0.110157,0.0445 0.161133,0.10898 0.05098,0.0639 0.05098,0.15703 0,0.12481 -0.0832,0.20625 -0.08379,0.082 -0.208008,0.082 -0.117774,0 -0.194532,-0.0697 -0.07559,-0.0697 -0.09434,-0.19629 l 0.138282,-0.0305 q 0.0094,0.0797 0.03281,0.11016 0.04219,0.0586 0.123047,0.0586 0.06387,0 0.106055,-0.0428 0.04219,-0.0428 0.04219,-0.1084 0,-0.0264 -0.0076,-0.0481 -0.007,-0.0223 -0.02285,-0.0404 -0.01523,-0.0187 -0.03984,-0.0346 -0.02461,-0.0164 -0.05859,-0.0311 l -0.08731,-0.0363 q -0.185742,-0.0785 -0.185742,-0.22969 0,-0.10195 0.07793,-0.17051 0.07793,-0.0691 0.193945,-0.0691 0.156446,0 0.244336,0.15235 z m 0.32461,0.21914 h 0.390234 v -0.35391 h 0.136523 v 0.90469 h -0.136523 v -0.42246 H 37.2042 v 0.42246 h -0.136524 v -0.90469 H 37.2042 Z m 0.635156,0.20332 h 0.261328 v 0.11484 h -0.261328 z m 1.038281,-0.50859 v 0.16171 q -0.118359,-0.099 -0.244922,-0.099 -0.139453,0 -0.234961,0.1002 -0.09609,0.0996 -0.09609,0.24375 0,0.14238 0.09609,0.24023 0.09609,0.0979 0.235547,0.0979 0.07207,0 0.122461,-0.0234 0.02812,-0.0117 0.05801,-0.0316 0.03047,-0.0199 0.06387,-0.048 v 0.16465 q -0.117187,0.0662 -0.246094,0.0662 -0.193945,0 -0.331054,-0.13536 -0.136524,-0.13652 -0.136524,-0.32929 0,-0.17285 0.114258,-0.30821 0.140625,-0.16582 0.363867,-0.16582 0.121875,0 0.235547,0.0662 z m 0.217969,-0.0486 0.250195,0.62696 0.253711,-0.62696 h 0.149414 l -0.406054,0.97266 -0.39668,-0.97266 z"
     id="text25"
     style="font-size:1.2px;font-family:Futura, Helvetica, sans-serif;text-anchor:middle;fill:#aaaaaa"
     aria-label="SH-CV" />
  <!-- Output labels (stacked) -->
  <path
     d="m 48.886084,110.62967 v 0.90576 h 0.310352 v 0.14971 h -0.469629 v -1.05547 z m 1.043848,0.14971 h -0.423145 v 0.25361 h 0.41084 v 0.14971 h -0.41084 v 0.35273 h 0.423145 v 0.14971 H 49.34751 v -1.05547 h 0.582422 z m 0.73623,0 h -0.367773 v 0.25361 h 0.354785 v 0.14971 h -0.354785 v 0.50244 h -0.159278 v -1.05547 h 0.527051 z m 0.475781,0 v 0.90576 h -0.159277 v -0.90576 H 50.73999 v -0.14971 h 0.643945 v 0.14971 z"
     id="text26"
     style="font-size:1.4px;font-family:Futura, Helvetica, sans-serif;text-anchor:middle;fill:#ffff88"
     aria-label="LEFT" />
  <path
     d="m 48.41543,118.23534 0.326758,0.4498 h -0.194825 l -0.301465,-0.43203 h -0.02871 v 0.43203 H 48.05791 v -1.05547 h 0.186621 q 0.20918,0 0.302149,0.0786 0.102539,0.0875 0.102539,0.23106 0,0.11211 -0.06426,0.19277 -0.06426,0.0807 -0.169531,0.10323 z m -0.198242,-0.121 h 0.05058 q 0.22627,0 0.22627,-0.17295 0,-0.16201 -0.220117,-0.16201 h -0.05674 z m 0.842871,-0.48467 v 1.05547 h -0.159278 v -1.05547 z m 0.796386,0.50586 h 0.436133 v 0.0349 q 0,0.11895 -0.02803,0.21055 -0.02734,0.0848 -0.09228,0.15859 -0.146973,0.16543 -0.373926,0.16543 -0.221485,0 -0.379395,-0.15996 -0.15791,-0.16064 -0.15791,-0.38554 0,-0.22969 0.160645,-0.38965 0.160644,-0.16065 0.391015,-0.16065 0.123731,0 0.231055,0.0506 0.102539,0.0506 0.20166,0.16406 l -0.113476,0.10869 q -0.129883,-0.17295 -0.316504,-0.17295 -0.167481,0 -0.280957,0.11553 -0.113477,0.11348 -0.113477,0.28438 0,0.17636 0.126465,0.29052 0.118262,0.10596 0.256348,0.10596 0.117578,0 0.21123,-0.0793 0.09365,-0.08 0.10459,-0.1914 h -0.263184 z m 0.795703,-0.093 h 0.455274 v -0.41289 h 0.159277 v 1.0555 h -0.159277 v -0.49287 h -0.455274 v 0.49287 h -0.159277 v -1.05547 h 0.159277 z m 1.158692,-0.26318 v 0.90579 h -0.159277 v -0.90576 h -0.242676 v -0.14971 h 0.643945 v 0.14971 z"
     id="text27"
     style="font-size:1.4px;font-family:Futura, Helvetica, sans-serif;text-anchor:middle;fill:#ffff88"
     aria-label="RIGHT" />
  <!-- Decorative lines -->
  <line
     x1="5.0830078"
     y1="15.690527"
     x2="56.043007"
     y2="15.690527"
     stroke="#444444"
     stroke-width="0.5"
     id="line27" />
</svg>
