<?xml version="1.0" encoding="UTF-8" standalone="no"?>
<svg
   width="101.6mm"
   height="128.5mm"
   viewBox="0 0 101.6 128.5"
   version="1.1"
   id="svg12"
   sodipodi:docname="Evocation.svg"
   inkscape:version="1.4.2 (ebf0e940, 2025-05-08)"
   xml:space="preserve"
   xmlns:inkscape="http://www.inkscape.org/namespaces/inkscape"
   xmlns:sodipodi="http://sodipodi.sourceforge.net/DTD/sodipodi-0.dtd"
   xmlns="http://www.w3.org/2000/svg"
   xmlns:svg="http://www.w3.org/2000/svg"><defs
     id="defs12"><radialGradient
       id="bezelGradient"
       cx="75.000000"
       cy="50"
       r="48"
       fx="50"
       fy="50"
       gradientUnits="userSpaceOnUse"><stop
         offset="0%"
         style="stop-color:#111111"
         id="stop1" /><stop
         offset="85%"
         style="stop-color:#0A0A0A"
         id="stop2" /><stop
         offset="95%"
         style="stop-color:#282828"
         id="stop3" /><stop
         offset="100%"
         style="stop-color:#1a1a1a"
         id="stop4" /></radialGradient><radialGradient
       id="buttonGradient"
       cx="75.000000"
       cy="43"
       r="42.000002"
       fx="50"
       fy="43"
       gradientUnits="userSpaceOnUse"><stop
         offset="0%"
         style="stop-color:#FFFFFF"
         id="stop5" /><stop
         offset="40%"
         style="stop-color:#E0E0E0"
         id="stop6" /><stop
         offset="80%"
         style="stop-color:#999999"
         id="stop7" /><stop
         offset="100%"
         style="stop-color:#777777"
         id="stop8" /></radialGradient><linearGradient
       id="highlightGradient"
       x1="19.425489"
       y1="60.969746"
       x2="19.425489"
       y2="86.870398"
       gradientTransform="scale(1.9304533,0.51801305)"
       gradientUnits="userSpaceOnUse"><stop
         offset="0%"
         style="stop-color:#FFFFFF; stop-opacity:0.8"
         id="stop9" /><stop
         offset="100%"
         style="stop-color:#FFFFFF; stop-opacity:0"
         id="stop10" /></linearGradient><filter
       id="soft-shadow"
       x="0.000000"
       y="0"
       width="1"
       height="1"><feDropShadow
         dx="0"
         dy="2"
         stdDeviation="2"
         flood-color="#000000"
         flood-opacity="0.5" /></filter><radialGradient
       id="bezelGradient-3"
       cx="50%"
       cy="50%"
       r="50%"
       fx="50%"
       fy="50%"><stop
         offset="0%"
         style="stop-color:#111111"
         id="stop1-9" /><stop
         offset="85%"
         style="stop-color:#0A0A0A"
         id="stop2-9" /><stop
         offset="95%"
         style="stop-color:#282828"
         id="stop3-4" /><stop
         offset="100%"
         style="stop-color:#1a1a1a"
         id="stop4-9" /></radialGradient><radialGradient
       id="buttonGradient-1"
       cx="50%"
       cy="40%"
       r="60%"
       fx="50%"
       fy="40%"><stop
         offset="0%"
         style="stop-color:#FFFFFF"
         id="stop5-5" /><stop
         offset="40%"
         style="stop-color:#E0E0E0"
         id="stop6-9" /><stop
         offset="80%"
         style="stop-color:#999999"
         id="stop7-8" /><stop
         offset="100%"
         style="stop-color:#777777"
         id="stop8-3" /></radialGradient><linearGradient
       id="highlightGradient-0"
       x1="0%"
       y1="0%"
       x2="0%"
       y2="100%"><stop
         offset="0%"
         style="stop-color:#FFFFFF; stop-opacity:0.8"
         id="stop9-9" /><stop
         offset="100%"
         style="stop-color:#FFFFFF; stop-opacity:0"
         id="stop10-0" /></linearGradient><filter
       id="soft-shadow-7"
       x="0.000000"
       y="0"
       width="1"
       height="1"><feDropShadow
         dx="0"
         dy="2"
         stdDeviation="2"
         flood-color="#000000"
         flood-opacity="0.5" /></filter><radialGradient
       id="highlight"
       cx="8.2165577"
       cy="10.153887"
       r="6.142475"
       gradientTransform="scale(1.2535663,0.79772404)"
       fx="8.2165577"
       fy="10.153887"
       gradientUnits="userSpaceOnUse"><stop
         offset="0%"
         stop-color="#ffffff"
         stop-opacity="0.2"
         id="stop7-1" /><stop
         offset="70%"
         stop-color="#ffffff"
         stop-opacity="0.06"
         id="stop8-7" /><stop
         offset="100%"
         stop-color="#ffffff"
         stop-opacity="0"
         id="stop9-0" /></radialGradient></defs><sodipodi:namedview
     id="namedview12"
     pagecolor="#505050"
     bordercolor="#eeeeee"
     borderopacity="1"
     inkscape:showpageshadow="0"
     inkscape:pageopacity="0"
     inkscape:pagecheckerboard="0"
     inkscape:deskcolor="#505050"
     inkscape:document-units="mm"
     inkscape:zoom="2"
     inkscape:cx="161"
     inkscape:cy="254.25"
     inkscape:window-width="2560"
     inkscape:window-height="1387"
     inkscape:window-x="0"
     inkscape:window-y="25"
     inkscape:window-maximized="0"
     inkscape:current-layer="svg12" /><circle
     style="fill:#ff0000;fill-opacity:1;fill-rule:evenodd;stroke:none;stroke-width:0.510173;stroke-linecap:round;stroke-opacity:1;paint-order:fill markers stroke"
     id="env-phase-offset"
     cx="78.077148"
     cy="47.892654"
     inkscape:label="env-phase-offset"
     r="3.75" /><circle
     style="fill:#ff0000;fill-opacity:1;fill-rule:evenodd;stroke:none;stroke-width:0.510173;stroke-linecap:round;stroke-opacity:1;paint-order:fill markers stroke"
     id="invert-sw"
     cx="49.02552"
     cy="66.94957"
     inkscape:label="invert-sw"
     r="3.75" /><circle
     style="fill:#ff0000;fill-opacity:1;fill-rule:evenodd;stroke:none;stroke-width:0.510173;stroke-linecap:round;stroke-opacity:1;paint-order:fill markers stroke"
     id="loop-sw"
     cx="78.077148"
     cy="66.94957"
     inkscape:label="loop-sw"
     r="3.75" /><rect
     width="101.6"
     height="128.5"
     fill="none"
     id="rect1"
     x="0"
     y="0"
     style="display:inline" /><rect
     id="touch-strip"
     x="6.8760643"
     y="15.399614"
     width="29.843935"
     height="79.843941"
     rx="1.7785153"
     stroke="#4bd4ff"
     opacity="0.4675"
     style="display:inline;fill:none;stroke:#ffffff;stroke-width:0.156066;stroke-opacity:1" /><rect
     id="feedback-oled"
     x="6.8391566"
     y="98.025497"
     width="29.917749"
     height="22.122351"
     rx="1.7829143"
     stroke="#4bd4ff"
     opacity="0.4675"
     style="display:inline;fill:none;stroke:#ffffff;stroke-width:0.0822507;stroke-opacity:1"
     inkscape:label="feedback-oled" /><ellipse
     style="fill:#0000ff;fill-opacity:1;fill-rule:evenodd;stroke:none;stroke-width:0.382149;stroke-linecap:round;stroke-opacity:1;paint-order:fill markers stroke"
     id="env1-eoc"
     cx="46.216522"
     cy="92.957283"
     rx="2.809"
     ry="2.8089254"
     inkscape:label="env1-eoc" /><ellipse
     style="fill:#00ff00;fill-opacity:1;fill-rule:evenodd;stroke:none;stroke-width:0.382149;stroke-linecap:round;stroke-opacity:1;paint-order:fill markers stroke"
     id="record-cv-in"
     cx="49.159584"
     cy="29.776815"
     rx="2.809"
     ry="2.8089254"
     inkscape:label="record-cv-in" /><ellipse
     style="fill:#00ff00;fill-opacity:1;fill-rule:evenodd;stroke:none;stroke-width:0.382149;stroke-linecap:round;stroke-opacity:1;paint-order:fill markers stroke"
     id="trigger-cv-in"
     cx="63.618366"
     cy="29.776815"
     rx="2.809"
     ry="2.8089254"
     inkscape:label="trigger-cv-in" /><ellipse
     style="fill:#00ff00;fill-opacity:1;fill-rule:evenodd;stroke:none;stroke-width:0.382149;stroke-linecap:round;stroke-opacity:1;paint-order:fill markers stroke"
     id="gate-cv-in"
     cx="63.618366"
     cy="40.893959"
     rx="2.809"
     ry="2.8089254"
     inkscape:label="gate-cv-in" /><ellipse
     style="fill:#00ff00;fill-opacity:1;fill-rule:evenodd;stroke:none;stroke-width:0.382149;stroke-linecap:round;stroke-opacity:1;paint-order:fill markers stroke"
     id="clear-cv-in"
     cx="78.077148"
     cy="29.776815"
     rx="2.809"
     ry="2.8089254"
     inkscape:label="clear-cv-in" /><ellipse
     style="fill:#00ff00;fill-opacity:1;fill-rule:evenodd;stroke:none;stroke-width:0.382149;stroke-linecap:round;stroke-opacity:1;paint-order:fill markers stroke"
     id="phase1-cv-in"
     cx="92.5"
     cy="100.0"
     rx="2.809"
     ry="2.8089254"
     inkscape:label="phase1-cv-in" /><ellipse
     style="fill:#00ff00;fill-opacity:1;fill-rule:evenodd;stroke:none;stroke-width:0.382149;stroke-linecap:round;stroke-opacity:1;paint-order:fill markers stroke"
     id="phase2-cv-in"
     cx="92.5"
     cy="106.5"
     rx="2.809"
     ry="2.8089254"
     inkscape:label="phase2-cv-in" /><ellipse
     style="fill:#00ff00;fill-opacity:1;fill-rule:evenodd;stroke:none;stroke-width:0.382149;stroke-linecap:round;stroke-opacity:1;paint-order:fill markers stroke"
     id="phase3-cv-in"
     cx="92.5"
     cy="113.0"
     rx="2.809"
     ry="2.8089254"
     inkscape:label="phase3-cv-in" /><ellipse
     style="fill:#00ff00;fill-opacity:1;fill-rule:evenodd;stroke:none;stroke-width:0.382149;stroke-linecap:round;stroke-opacity:1;paint-order:fill markers stroke"
     id="phase4-cv-in"
     cx="92.5"
     cy="119.5"
     rx="2.809"
     ry="2.8089254"
     inkscape:label="phase4-cv-in" /><ellipse
     style="fill:#ff0000;fill-opacity:1;fill-rule:evenodd;stroke:none;stroke-width:0.382149;stroke-linecap:round;stroke-opacity:1;paint-order:fill markers stroke"
     id="clear-buffer-btn"
     cx="78.077148"
     cy="18.659674"
     rx="2.809"
     ry="2.8089254"
     inkscape:label="clear-buffer-btn" /><ellipse
     style="fill:#ff0000;fill-opacity:1;fill-rule:evenodd;stroke:none;stroke-width:0.382149;stroke-linecap:round;stroke-opacity:1;paint-order:fill markers stroke"
     id="trigger-btn-0"
     cx="63.618366"
     cy="18.659674"
     rx="2.809"
     ry="2.8089254"
     inkscape:label="trigger-btn" /><ellipse
     style="fill:#ff0000;fill-opacity:1;fill-rule:evenodd;stroke:none;stroke-width:0.382149;stroke-linecap:round;stroke-opacity:1;paint-order:fill markers stroke"
     id="record-btn"
     cx="49.159584"
     cy="18.659674"
     rx="2.809"
     ry="2.8089254"
     inkscape:label="record-btn" /><ellipse
     style="fill:#ff0000;fill-opacity:1;fill-rule:evenodd;stroke:none;stroke-width:0.382149;stroke-linecap:round;stroke-opacity:1;paint-order:fill markers stroke"
     id="env1-select-btn"
     cx="46.216522"
     cy="80.953651"
     rx="2.809"
     ry="2.8089254"
     inkscape:label="env1-select-btn" /><ellipse
     style="fill:#ff0000;fill-opacity:1;fill-rule:evenodd;stroke:none;stroke-width:0.382149;stroke-linecap:round;stroke-opacity:1;paint-order:fill markers stroke"
     id="env2-select-btn"
     cx="58.543388"
     cy="80.953651"
     rx="2.809"
     ry="2.8089254"
     inkscape:label="env2-select-btn" /><ellipse
     style="fill:#ff0000;fill-opacity:1;fill-rule:evenodd;stroke:none;stroke-width:0.382149;stroke-linecap:round;stroke-opacity:1;paint-order:fill markers stroke"
     id="env3-select-btn"
     cx="70.870247"
     cy="80.953651"
     rx="2.809"
     ry="2.8089254"
     inkscape:label="env3-select-btn" /><ellipse
     style="fill:#ff0000;fill-opacity:1;fill-rule:evenodd;stroke:none;stroke-width:0.382149;stroke-linecap:round;stroke-opacity:1;paint-order:fill markers stroke"
     id="env4-select-btn"
     cx="83.197113"
     cy="80.953651"
     rx="2.809"
     ry="2.8089254"
     inkscape:label="env4-select-btn" /><ellipse
     style="fill:#0000ff;fill-opacity:1;fill-rule:evenodd;stroke:none;stroke-width:0.382149;stroke-linecap:round;stroke-opacity:1;paint-order:fill markers stroke"
     id="env2-eoc"
     cx="58.543388"
     cy="92.957283"
     rx="2.809"
     ry="2.8089254"
     inkscape:label="env2-eoc" /><ellipse
     style="fill:#0000ff;fill-opacity:1;fill-rule:evenodd;stroke:none;stroke-width:0.382149;stroke-linecap:round;stroke-opacity:1;paint-order:fill markers stroke"
     id="env3-eoc"
     cx="70.870247"
     cy="92.957291"
     rx="2.809"
     ry="2.8089254"
     inkscape:label="env3-eoc" /><ellipse
     style="fill:#0000ff;fill-opacity:1;fill-rule:evenodd;stroke:none;stroke-width:0.382149;stroke-linecap:round;stroke-opacity:1;paint-order:fill markers stroke"
     id="env4-eoc"
     cx="83.197113"
     cy="92.957291"
     rx="2.809"
     ry="2.8089254"
     inkscape:label="env4-eoc" /><ellipse
     style="fill:#0000ff;fill-opacity:1;fill-rule:evenodd;stroke:none;stroke-width:0.382149;stroke-linecap:round;stroke-opacity:1;paint-order:fill markers stroke"
     id="env1-gate"
     cx="46.216522"
     cy="104.96091"
     rx="2.809"
     ry="2.8089254"
     inkscape:label="env1-gate" /><ellipse
     style="fill:#0000ff;fill-opacity:1;fill-rule:evenodd;stroke:none;stroke-width:0.382149;stroke-linecap:round;stroke-opacity:1;paint-order:fill markers stroke"
     id="env2-gate"
     cx="58.543388"
     cy="104.96091"
     rx="2.809"
     ry="2.8089254"
     inkscape:label="env2-gate" /><ellipse
     style="fill:#0000ff;fill-opacity:1;fill-rule:evenodd;stroke:none;stroke-width:0.382149;stroke-linecap:round;stroke-opacity:1;paint-order:fill markers stroke"
     id="env3-gate"
     cx="70.870247"
     cy="104.96092"
     rx="2.809"
     ry="2.8089254"
     inkscape:label="env3-gate" /><ellipse
     style="fill:#0000ff;fill-opacity:1;fill-rule:evenodd;stroke:none;stroke-width:0.382149;stroke-linecap:round;stroke-opacity:1;paint-order:fill markers stroke"
     id="env4-gate"
     cx="83.197113"
     cy="104.96092"
     rx="2.809"
     ry="2.8089254"
     inkscape:label="env4-gate" /><ellipse
     style="fill:#0000ff;fill-opacity:1;fill-rule:evenodd;stroke:none;stroke-width:0.382149;stroke-linecap:round;stroke-opacity:1;paint-order:fill markers stroke"
     id="env1-out"
     cx="46.216522"
     cy="116.96455"
     rx="2.809"
     ry="2.8089254"
     inkscape:label="env1-out" /><ellipse
     style="fill:#0000ff;fill-opacity:1;fill-rule:evenodd;stroke:none;stroke-width:0.382149;stroke-linecap:round;stroke-opacity:1;paint-order:fill markers stroke"
     id="env2-out"
     cx="58.543388"
     cy="116.96455"
     rx="2.809"
     ry="2.8089254"
     inkscape:label="env2-out" /><ellipse
     style="fill:#0000ff;fill-opacity:1;fill-rule:evenodd;stroke:none;stroke-width:0.382149;stroke-linecap:round;stroke-opacity:1;paint-order:fill markers stroke"
     id="env3-out"
     cx="70.870247"
     cy="116.96455"
     rx="2.809"
     ry="2.8089254"
     inkscape:label="env3-out" /><ellipse
     style="fill:#0000ff;fill-opacity:1;fill-rule:evenodd;stroke:none;stroke-width:0.382149;stroke-linecap:round;stroke-opacity:1;paint-order:fill markers stroke"
     id="env4-out"
     cx="83.197113"
     cy="116.96455"
     rx="2.809"
     ry="2.8089254"
     inkscape:label="env4-out" /><path
     style="font-weight:450;font-size:8.46667px;line-height:0;font-family:'Liber Grotesque Family';-inkscape-font-specification:'Liber Grotesque Family,  weight=450';text-align:center;letter-spacing:0.0899583px;word-spacing:0.264583px;text-anchor:middle;fill:#ffe9ac;fill-rule:evenodd;stroke-width:0.33;stroke-linecap:round;paint-order:fill markers stroke"
     d="m 20.569769,2.2436647 h 3.716868 v 0.6942669 h -2.895601 v 2.0404675 h 2.624668 v 0.6773336 h -2.624668 v 2.1166675 h 2.895601 v 0.694267 h -3.716868 z m 7.777692,6.2230025 H 27.12826 L 24.893059,2.2436647 h 0.829734 l 2.015067,5.5795356 2.015068,-5.5795356 h 0.829734 z m 2.511417,-3.1157346 q 0,-0.6604003 0.254,-1.2446005 0.254,-0.5926669 0.685801,-1.0244671 0.440266,-0.4402668 1.024467,-0.6942669 0.5842,-0.2540001 1.2446,-0.2540001 0.668867,0 1.253067,0.2540001 0.584201,0.2540001 1.016001,0.6942669 0.440267,0.4318002 0.694267,1.0244671 0.254,0.5842002 0.254,1.2446005 0,0.6604003 -0.254,1.2530672 -0.254,0.5842002 -0.694267,1.024467 -0.4318,0.4318002 -1.016001,0.6858003 -0.5842,0.2540001 -1.253067,0.2540001 -0.6604,0 -1.2446,-0.2540001 Q 32.238945,8.060267 31.798679,7.6284668 31.366878,7.1882 31.112878,6.6039998 q -0.254,-0.5926669 -0.254,-1.2530672 z m 0.804334,0 q 0,0.4995335 0.186267,0.9398004 0.194733,0.4318001 0.516467,0.7620003 0.3302,0.3217334 0.762,0.5164669 0.440267,0.1862667 0.9398,0.1862667 0.499534,0 0.931334,-0.1862667 0.440267,-0.1947335 0.762,-0.5164669 0.3302,-0.3302002 0.516467,-0.7620003 0.194734,-0.4402669 0.194734,-0.9398004 0,-0.4910669 -0.194734,-0.9313337 Q 36.09128,3.9793321 35.76108,3.6575986 35.439347,3.3273985 34.99908,3.1411317 34.56728,2.9463983 34.067746,2.9463983 q -0.499533,0 -0.9398,0.1947334 -0.4318,0.1862668 -0.762,0.5164669 -0.321734,0.3217335 -0.516467,0.7620003 -0.186267,0.4402668 -0.186267,0.9313337 z m 7.235829,0.00847 q 0,0.5249335 0.186267,0.973667 0.194734,0.4402669 0.524934,0.770467 0.3302,0.3302001 0.770467,0.5164669 0.448733,0.1862667 0.956733,0.1862667 0.508001,0 0.931334,-0.1947334 0.4318,-0.2032001 0.778934,-0.5334002 l 0.516467,0.5503335 q -0.423334,0.4318002 -0.999067,0.6858003 -0.575734,0.2455334 -1.261534,0.2455334 -0.677334,0 -1.261534,-0.2455334 -0.5842,-0.2540001 -1.016001,-0.6858003 -0.4318,-0.4318001 -0.677333,-1.0160004 -0.245534,-0.5842002 -0.245534,-1.2530671 0,-0.6773336 0.245534,-1.2615339 0.245533,-0.5842002 0.668867,-1.0160004 0.4318,-0.4318001 1.016,-0.6773336 0.5842,-0.2540001 1.270001,-0.2540001 0.6858,0 1.253067,0.2540001 0.575733,0.2455335 1.007534,0.6773336 l -0.524934,0.5503336 q -0.3302,-0.3217335 -0.770467,-0.5164669 -0.4318,-0.2032001 -0.931334,-0.2032001 -0.524933,0 -0.973667,0.1862668 -0.440266,0.1862667 -0.770467,0.5164668 -0.321733,0.3302002 -0.508,0.7789337 -0.186267,0.4487335 -0.186267,0.9652004 z m 9.93669,3.1072679 -0.524934,-1.2869339 H 45.279729 L 44.754796,8.4666672 H 43.916595 L 46.39733,2.2436647 h 0.795867 l 2.480734,6.2230025 z m -2.040468,-5.1900688 -1.261534,3.208868 h 2.531535 z m 6.863302,-1.024467 V 2.9379316 H 51.914431 V 8.4666672 H 51.12703 V 2.9379316 H 49.382896 V 2.2521314 Z m 0.648762,0.6858002 V 2.2436647 h 3.090335 v 0.6942669 h -1.134534 v 4.8344686 h 1.134534 v 0.694267 h -3.090335 v -0.694267 h 1.134534 V 2.9379316 Z m 3.747557,2.413001 q 0,-0.6604003 0.254,-1.2446005 0.254,-0.5926669 0.6858,-1.0244671 0.440267,-0.4402668 1.024468,-0.6942669 0.5842,-0.2540001 1.2446,-0.2540001 0.668867,0 1.253067,0.2540001 0.5842,0.2540001 1.016001,0.6942669 0.440266,0.4318002 0.694267,1.0244671 0.254,0.5842002 0.254,1.2446005 0,0.6604003 -0.254,1.2530672 -0.254001,0.5842002 -0.694267,1.024467 -0.431801,0.4318002 -1.016001,0.6858003 -0.5842,0.2540001 -1.253067,0.2540001 -0.6604,0 -1.2446,-0.2540001 -0.584201,-0.2540001 -1.024468,-0.6858003 -0.4318,-0.4402668 -0.6858,-1.024467 -0.254,-0.5926669 -0.254,-1.2530672 z m 0.804334,0 q 0,0.4995335 0.186266,0.9398004 0.194734,0.4318001 0.516467,0.7620003 0.3302,0.3217334 0.762001,0.5164669 0.440267,0.1862667 0.9398,0.1862667 0.499534,0 0.931334,-0.1862667 0.440267,-0.1947335 0.762,-0.5164669 0.3302,-0.3302002 0.516467,-0.7620003 0.194733,-0.4402669 0.194733,-0.9398004 0,-0.4910669 -0.194733,-0.9313337 -0.186267,-0.4402668 -0.516467,-0.7620003 -0.321733,-0.3302001 -0.762,-0.5164669 -0.4318,-0.1947334 -0.931334,-0.1947334 -0.499533,0 -0.9398,0.1947334 -0.431801,0.1862668 -0.762001,0.5164669 -0.321733,0.3217335 -0.516467,0.7620003 -0.186266,0.4402668 -0.186266,0.9313337 z M 70.074379,2.2436647 h 0.795867 v 6.1806691 l -0.1016,0.0508 -4.445002,-4.5127351 V 8.4666672 H 65.527777 V 2.285998 l 0.09313,-0.042333 4.453469,4.5127351 z"
     id="text1"
     aria-label="EVOCATION" /><circle
     style="fill:#ff0000;fill-opacity:1;fill-rule:evenodd;stroke:none;stroke-width:0.850287;stroke-linecap:round;stroke-opacity:1;paint-order:fill markers stroke"
     id="env-speed"
     cx="49.159584"
     cy="47.892654"
     inkscape:label="env-speed"
     r="6.25" /><path
     style="fill:#ffe9ac;fill-opacity:1;fill-rule:evenodd;stroke:#ffe9ac;stroke-width:0.317446;stroke-linecap:round;stroke-opacity:1;paint-order:fill markers stroke"
     d="M 8.8672035,9.7833065 82.572811,10.192735"
     id="path2" /></svg>
