<?xml version="1.0" encoding="UTF-8" standalone="no"?>
<svg
   width="81.28mm"
   height="128.5mm"
   viewBox="0 0 81.28 128.5"
   version="1.1"
   id="svg12"
   sodipodi:docname="Evocation.svg"
   inkscape:version="1.4.2 (ebf0e940, 2025-05-08)"
   xml:space="preserve"
   xmlns:inkscape="http://www.inkscape.org/namespaces/inkscape"
   xmlns:sodipodi="http://sodipodi.sourceforge.net/DTD/sodipodi-0.dtd"
   xmlns="http://www.w3.org/2000/svg"
   xmlns:svg="http://www.w3.org/2000/svg"><defs
     id="defs12"><radialGradient
       id="bezelGradient"
       cx="50"
       cy="50"
       r="48"
       fx="50"
       fy="50"
       gradientUnits="userSpaceOnUse"><stop
         offset="0%"
         style="stop-color:#111111"
         id="stop1" /><stop
         offset="85%"
         style="stop-color:#0A0A0A"
         id="stop2" /><stop
         offset="95%"
         style="stop-color:#282828"
         id="stop3" /><stop
         offset="100%"
         style="stop-color:#1a1a1a"
         id="stop4" /></radialGradient><radialGradient
       id="buttonGradient"
       cx="50"
       cy="43"
       r="42.000002"
       fx="50"
       fy="43"
       gradientUnits="userSpaceOnUse"><stop
         offset="0%"
         style="stop-color:#FFFFFF"
         id="stop5" /><stop
         offset="40%"
         style="stop-color:#E0E0E0"
         id="stop6" /><stop
         offset="80%"
         style="stop-color:#999999"
         id="stop7" /><stop
         offset="100%"
         style="stop-color:#777777"
         id="stop8" /></radialGradient><linearGradient
       id="highlightGradient"
       x1="12.950326"
       y1="60.969746"
       x2="12.950326"
       y2="86.870398"
       gradientTransform="scale(1.9304533,0.51801305)"
       gradientUnits="userSpaceOnUse"><stop
         offset="0%"
         style="stop-color:#FFFFFF; stop-opacity:0.8"
         id="stop9" /><stop
         offset="100%"
         style="stop-color:#FFFFFF; stop-opacity:0"
         id="stop10" /></linearGradient><filter
       id="soft-shadow"
       x="0"
       y="0"
       width="1"
       height="1"><feDropShadow
         dx="0"
         dy="2"
         stdDeviation="2"
         flood-color="#000000"
         flood-opacity="0.5" /></filter><radialGradient
       id="bezelGradient-3"
       cx="50%"
       cy="50%"
       r="50%"
       fx="50%"
       fy="50%"><stop
         offset="0%"
         style="stop-color:#111111"
         id="stop1-9" /><stop
         offset="85%"
         style="stop-color:#0A0A0A"
         id="stop2-9" /><stop
         offset="95%"
         style="stop-color:#282828"
         id="stop3-4" /><stop
         offset="100%"
         style="stop-color:#1a1a1a"
         id="stop4-9" /></radialGradient><radialGradient
       id="buttonGradient-1"
       cx="50%"
       cy="40%"
       r="60%"
       fx="50%"
       fy="40%"><stop
         offset="0%"
         style="stop-color:#FFFFFF"
         id="stop5-5" /><stop
         offset="40%"
         style="stop-color:#E0E0E0"
         id="stop6-9" /><stop
         offset="80%"
         style="stop-color:#999999"
         id="stop7-8" /><stop
         offset="100%"
         style="stop-color:#777777"
         id="stop8-3" /></radialGradient><linearGradient
       id="highlightGradient-0"
       x1="0%"
       y1="0%"
       x2="0%"
       y2="100%"><stop
         offset="0%"
         style="stop-color:#FFFFFF; stop-opacity:0.8"
         id="stop9-9" /><stop
         offset="100%"
         style="stop-color:#FFFFFF; stop-opacity:0"
         id="stop10-0" /></linearGradient><filter
       id="soft-shadow-7"
       x="0"
       y="0"
       width="1"
       height="1"><feDropShadow
         dx="0"
         dy="2"
         stdDeviation="2"
         flood-color="#000000"
         flood-opacity="0.5" /></filter></defs><sodipodi:namedview
     id="namedview12"
     pagecolor="#505050"
     bordercolor="#eeeeee"
     borderopacity="1"
     inkscape:showpageshadow="0"
     inkscape:pageopacity="0"
     inkscape:pagecheckerboard="0"
     inkscape:deskcolor="#505050"
     inkscape:document-units="mm"
     inkscape:zoom="2"
     inkscape:cx="100.75"
     inkscape:cy="232.25"
     inkscape:window-width="2560"
     inkscape:window-height="1387"
     inkscape:window-x="0"
     inkscape:window-y="25"
     inkscape:window-maximized="0"
     inkscape:current-layer="svg12" /><rect
     width="81.28"
     height="128.5"
     fill="none"
     id="rect1" /><rect
     id="touch-strip"
     x="10.002355"
     y="33.633526"
     width="28.032951"
     height="59.925419"
     rx="2.5029421"
     stroke="#4bd4ff"
     opacity="0.4675"
     style="display:none;fill:none;stroke-width:0.167048" /><rect
     x="11.01883"
     y="12.855062"
     width="26"
     height="18"
     rx="2"
     stroke="#303345"
     opacity="0.2975"
     id="rect3"
     style="display:none;fill:none;stroke-width:0.2" /><circle
     id="record-btn"
     cx="15.472826"
     cy="18.761517"
     r="0.44999999"
     stroke="#ff7070"
     style="display:none;opacity:0.85;fill:none;stroke-width:0.2" /><circle
     id="trigger-btn"
     cx="24.56883"
     cy="18.761517"
     r="0.44999999"
     stroke="#6cffc5"
     style="display:none;opacity:0.85;fill:none;stroke-width:0.2" /><circle
     id="clear-btn"
     cx="33.664833"
     cy="18.761517"
     r="0.44999999"
     stroke="#9da4ff"
     style="display:none;opacity:0.85;fill:none;stroke-width:0.2" /><circle
     id="trigger-cv"
     cx="24.56883"
     cy="24.364933"
     r="0.34999999"
     stroke="#606060"
     opacity="0.595"
     style="display:none;fill:none;stroke-width:0.2" /><circle
     id="clear-cv"
     cx="34.114834"
     cy="24.364933"
     r="0.34999999"
     stroke="#606060"
     opacity="0.595"
     style="display:none;fill:none;stroke-width:0.2" /><circle
     id="env1-loop"
     cx="71.526848"
     cy="25.896393"
     r="0.31999999"
     style="display:none;opacity:0.85;fill:none;stroke:#ff86bb;stroke-width:0.2" /><circle
     id="env1-speed"
     cx="52.366844"
     cy="18.872976"
     r="0.47999999"
     style="display:none;opacity:0.85;fill:none;stroke:#ff86bb;stroke-width:0.2" /><circle
     id="env1-speed-cv"
     cx="52.366844"
     cy="26.872976"
     r="0.31999999"
     style="display:none;opacity:0.85;fill:none;stroke:#ff86bb;stroke-width:0.2" /><circle
     id="env1-invert"
     cx="62.366844"
     cy="18.872976"
     r="0.31999999"
     style="display:none;opacity:0.85;fill:none;stroke:#ff86bb;stroke-width:0.2" /><circle
     id="env1-out"
     cx="72.366844"
     cy="18.872976"
     r="0.31999999"
     style="display:none;opacity:0.85;fill:none;stroke:#ff86bb;stroke-width:0.2" /><circle
     id="env2-loop"
     cx="70.686852"
     cy="49.804504"
     r="0.31999999"
     style="display:none;opacity:0.85;fill:none;stroke:#a5b7ff;stroke-width:0.2" /><circle
     id="env2-speed"
     cx="51.526848"
     cy="41.804504"
     r="0.47999999"
     style="display:none;opacity:0.85;fill:none;stroke:#a5b7ff;stroke-width:0.2" /><circle
     id="env2-speed-cv"
     cx="51.526848"
     cy="49.804504"
     r="0.31999999"
     style="display:none;opacity:0.85;fill:none;stroke:#a5b7ff;stroke-width:0.2" /><circle
     id="env2-invert"
     cx="61.526848"
     cy="41.804504"
     r="0.31999999"
     style="display:none;opacity:0.85;fill:none;stroke:#a5b7ff;stroke-width:0.2" /><circle
     id="env2-out"
     cx="71.526848"
     cy="41.804504"
     r="0.31999999"
     style="display:none;opacity:0.85;fill:none;stroke:#a5b7ff;stroke-width:0.2" /><circle
     id="env3-loop"
     cx="71.946846"
     cy="73.397491"
     r="0.31999999"
     style="display:none;opacity:0.85;fill:none;stroke:#ffd482;stroke-width:0.2" /><circle
     id="env3-speed"
     cx="51.946846"
     cy="65.397491"
     r="0.47999999"
     style="display:none;opacity:0.85;fill:none;stroke:#ffd482;stroke-width:0.2" /><circle
     id="env3-speed-cv"
     cx="51.946846"
     cy="73.397491"
     r="0.31999999"
     style="display:none;opacity:0.85;fill:none;stroke:#ffd482;stroke-width:0.2" /><circle
     id="env3-invert"
     cx="61.946846"
     cy="65.397491"
     r="0.31999999"
     style="display:none;opacity:0.85;fill:none;stroke:#ffd482;stroke-width:0.2" /><circle
     id="env3-out"
     cx="71.946846"
     cy="65.397491"
     r="0.31999999"
     style="display:none;opacity:0.85;fill:none;stroke:#ffd482;stroke-width:0.2" /><circle
     id="env4-loop"
     cx="63.16993"
     cy="97.660248"
     r="0.31999999"
     style="display:none;opacity:0.85;fill:none;stroke:#8df6ff;stroke-width:0.2" /><circle
     id="env4-speed"
     cx="52.749931"
     cy="90.080246"
     r="0.47999999"
     style="display:none;opacity:0.85;fill:none;stroke:#8df6ff;stroke-width:0.2" /><circle
     id="env4-speed-cv"
     cx="52.749931"
     cy="98.080246"
     r="0.31999999"
     style="display:none;opacity:0.85;fill:none;stroke:#8df6ff;stroke-width:0.2" /><circle
     id="env4-invert"
     cx="62.749931"
     cy="90.080246"
     r="0.31999999"
     style="display:none;opacity:0.85;fill:none;stroke:#8df6ff;stroke-width:0.2" /><circle
     id="env4-out"
     cx="72.749931"
     cy="90.080246"
     r="0.31999999"
     style="display:none;opacity:0.85;fill:none;stroke:#8df6ff;stroke-width:0.2" /><circle
     id="gate-out"
     cx="53.169926"
     cy="112.54297"
     r="0.34999999"
     stroke="#f7f7f7"
     opacity="0.595"
     style="display:none;fill:none;stroke-width:0.2" /><path
     d="m 15.472826,2.0915145 h 3.716868 v 0.694267 H 16.294093 V 4.826249 h 2.624668 v 0.6773336 h -2.624668 v 2.1166675 h 2.895601 V 8.314517 H 15.472826 Z M 23.250518,8.314517 H 22.031317 L 19.796116,2.0915145 h 0.829734 l 2.015068,5.5795356 2.015067,-5.5795356 h 0.829734 z m 2.511417,-3.1157346 q 0,-0.6604002 0.254,-1.2446004 0.254001,-0.592667 0.685801,-1.0244671 0.440267,-0.4402669 1.024467,-0.694267 0.5842,-0.2540001 1.2446,-0.2540001 0.668867,0 1.253067,0.2540001 0.584201,0.2540001 1.016001,0.694267 0.440267,0.4318001 0.694267,1.0244671 0.254,0.5842002 0.254,1.2446004 0,0.6604003 -0.254,1.2530672 -0.254,0.5842002 -0.694267,1.0244671 -0.4318,0.4318002 -1.016001,0.6858003 -0.5842,0.2540001 -1.253067,0.2540001 -0.6604,0 -1.2446,-0.2540001 -0.5842,-0.2540001 -1.024467,-0.6858003 -0.4318,-0.4402669 -0.685801,-1.0244671 -0.254,-0.5926669 -0.254,-1.2530672 z m 0.804334,0 q 0,0.4995336 0.186267,0.9398004 0.194733,0.4318002 0.516467,0.7620003 0.3302,0.3217335 0.762,0.5164669 0.440267,0.1862667 0.9398,0.1862667 0.499534,0 0.931334,-0.1862667 0.440267,-0.1947334 0.762,-0.5164669 0.3302,-0.3302001 0.516467,-0.7620003 0.194734,-0.4402668 0.194734,-0.9398004 0,-0.4910668 -0.194734,-0.9313337 -0.186267,-0.4402668 -0.516467,-0.7620003 -0.321733,-0.3302001 -0.762,-0.5164668 -0.4318,-0.1947334 -0.931334,-0.1947334 -0.499533,0 -0.9398,0.1947334 -0.4318,0.1862667 -0.762,0.5164668 -0.321734,0.3217335 -0.516467,0.7620003 -0.186267,0.4402669 -0.186267,0.9313337 z m 7.23583,0.00847 q 0,0.5249336 0.186266,0.9736671 0.194734,0.4402668 0.524934,0.7704669 0.3302,0.3302002 0.770467,0.5164669 0.448733,0.1862668 0.956734,0.1862668 0.508,0 0.931333,-0.1947335 0.4318,-0.2032 0.778934,-0.5334002 l 0.516467,0.5503336 Q 38.0439,7.9081169 37.468167,8.162117 q -0.575734,0.2455334 -1.261534,0.2455334 -0.677334,0 -1.261534,-0.2455334 -0.5842,-0.2540001 -1.016,-0.6858003 -0.431801,-0.4318002 -0.677334,-1.0160004 -0.245533,-0.5842002 -0.245533,-1.2530672 0,-0.6773336 0.245533,-1.2615338 0.245533,-0.5842003 0.668867,-1.0160004 0.4318,-0.4318002 1.016,-0.6773336 0.584201,-0.2540001 1.270001,-0.2540001 0.6858,0 1.253067,0.2540001 0.575734,0.2455334 1.007534,0.6773336 L 37.9423,3.4800484 Q 37.6121,3.158315 37.171833,2.9635816 36.740033,2.7603815 36.2405,2.7603815 q -0.524934,0 -0.973668,0.1862667 -0.440266,0.1862668 -0.770467,0.5164669 -0.321733,0.3302001 -0.508,0.7789336 -0.186266,0.4487335 -0.186266,0.9652004 z M 43.738788,8.314517 43.213854,7.0275832 H 40.182786 L 39.657853,8.314517 h -0.838201 l 2.480735,-6.2230025 h 0.795867 L 44.576988,8.314517 Z M 41.69832,3.1244483 40.436786,6.3333162 h 2.531535 z M 48.561622,2.0999812 V 2.7857815 H 46.817488 V 8.314517 H 46.030087 V 2.7857815 H 44.285953 V 2.0999812 Z m 0.648763,0.6858003 v -0.694267 h 3.090334 v 0.694267 h -1.134534 v 4.8344686 h 1.134534 V 8.314517 H 49.210385 V 7.6202501 h 1.134533 V 2.7857815 Z m 3.747556,2.4130009 q 0,-0.6604002 0.254,-1.2446004 0.254,-0.592667 0.685801,-1.0244671 0.440266,-0.4402669 1.024467,-0.694267 0.5842,-0.2540001 1.2446,-0.2540001 0.668867,0 1.253067,0.2540001 0.584201,0.2540001 1.016001,0.694267 0.440267,0.4318001 0.694267,1.0244671 0.254,0.5842002 0.254,1.2446004 0,0.6604003 -0.254,1.2530672 -0.254,0.5842002 -0.694267,1.0244671 -0.4318,0.4318002 -1.016001,0.6858003 -0.5842,0.2540001 -1.253067,0.2540001 -0.6604,0 -1.2446,-0.2540001 -0.584201,-0.2540001 -1.024467,-0.6858003 -0.431801,-0.4402669 -0.685801,-1.0244671 -0.254,-0.5926669 -0.254,-1.2530672 z m 0.804334,0 q 0,0.4995336 0.186267,0.9398004 0.194733,0.4318002 0.516466,0.7620003 0.330201,0.3217335 0.762001,0.5164669 0.440267,0.1862667 0.9398,0.1862667 0.499534,0 0.931334,-0.1862667 0.440267,-0.1947334 0.762,-0.5164669 0.3302,-0.3302001 0.516467,-0.7620003 0.194733,-0.4402668 0.194733,-0.9398004 0,-0.4910668 -0.194733,-0.9313337 -0.186267,-0.4402668 -0.516467,-0.7620003 -0.321733,-0.3302001 -0.762,-0.5164668 -0.4318,-0.1947334 -0.931334,-0.1947334 -0.499533,0 -0.9398,0.1947334 -0.4318,0.1862667 -0.762001,0.5164668 -0.321733,0.3217335 -0.516466,0.7620003 -0.186267,0.4402669 -0.186267,0.9313337 z M 64.977436,2.0915145 h 0.795867 v 6.1806692 l -0.1016,0.0508 -4.445002,-4.5127351 V 8.314517 H 60.430834 V 2.1338479 l 0.09313,-0.042333 4.453469,4.5127352 z"
     id="text13"
     style="font-weight:450;font-size:8.46667px;line-height:0;font-family:'Liber Grotesque Family';-inkscape-font-specification:'Liber Grotesque Family,  weight=450';text-align:center;letter-spacing:0.0899583px;word-spacing:0.264583px;text-anchor:middle;fill:#e8e0c8;fill-rule:evenodd;stroke:#e8e0c8;stroke-width:0;stroke-linecap:round;paint-order:fill markers stroke"
     aria-label="EVOCATION" /></svg>
