<?xml version="1.0" encoding="UTF-8" standalone="no"?>
<svg
   width="101.6mm"
   height="128.5mm"
   viewBox="0 0 101.6 128.5"
   version="1.1"
   id="svg28"
   xml:space="preserve"
   sodipodi:docname="Fatebinder.svg"
   inkscape:version="1.4.3 (0d15f75, 2025-12-25)"
   xmlns:inkscape="http://www.inkscape.org/namespaces/inkscape"
   xmlns:sodipodi="http://sodipodi.sourceforge.net/DTD/sodipodi-0.dtd"
   xmlns="http://www.w3.org/2000/svg"
   xmlns:svg="http://www.w3.org/2000/svg"><sodipodi:namedview
   id="namedview14"
   pagecolor="#505050"
   bordercolor="#eeeeee"
   borderopacity="1"
   inkscape:showpageshadow="0"
   inkscape:pageopacity="0"
   inkscape:pagecheckerboard="0"
   inkscape:deskcolor="#505050"
   inkscape:document-units="mm"
   inkscape:zoom="1.5862262"
   inkscape:cx="192.9107"
   inkscape:cy="242.39922"
   inkscape:window-width="1800"
   inkscape:window-height="1101"
   inkscape:window-x="0"
   inkscape:window-y="40"
   inkscape:window-maximized="1"
   inkscape:current-layer="svg28" />

<defs
   id="defs28">
   <!-- Matte texture filter using SVG turbulence -->
   <filter
   id="matteTexture"
   x="0"
   y="0"
   width="1"
   height="1">
     <feTurbulence
   baseFrequency="0.9"
   numOctaves="4"
   result="turbulence"
   id="feTurbulence1" />
     <feColorMatrix
   in="turbulence"
   type="saturate"
   values="0"
   id="feColorMatrix1" />
     <feComposite
   in="SourceGraphic"
   in2="turbulence"
   operator="multiply"
   id="feComposite1" />
   </filter>

   <!-- Panel gradient to match other modules -->
   <linearGradient
   id="panelGradient"
   x1="0%"
   y1="0%"
   x2="100%"
   y2="100%">
     <stop
   offset="0%"
   style="stop-color:#2a2a2a;stop-opacity:1"
   id="stop1" />
     <stop
   offset="50%"
   style="stop-color:#1f1f1f;stop-opacity:1"
   id="stop2" />
     <stop
   offset="100%"
   style="stop-color:#1a1a1a;stop-opacity:1"
   id="stop3" />
   </linearGradient>

  
  
  

  
  
  

  
  

  
  
  

  
  
  
  
  

  
  
  
  
  
  
  
  

  
  
  
  
  
  
  
  

  
  
  
  
  
  
  
  

  
  
  
  
  
  
  
  

  
  
</defs>

<!-- Matte black background with texture to match other modules -->

<!-- Control alignment markers (hidden in panel render) -->
<g
   id="fatebinder-control-markers"
   style="display:none;fill:#ff0000;fill-opacity:1;stroke:#ff0000;stroke-width:0.35;stroke-linecap:round;stroke-opacity:1;paint-order:fill markers stroke">
  <!-- Display -->
  <rect
   id="unified-display"
   x="9.8967848"
   y="7.0115738"
   width="81.440002"
   height="35" />
  <!-- Rhythm column -->
  <circle
   id="steps-knob"
   cx="18.08"
   cy="54"
   r="3" />
  <circle
   id="hits-knob"
   cx="18.08"
   cy="64.5"
   r="3" />
  <circle
   id="rotation-knob"
   cx="18.08"
   cy="75"
   r="3" />
  <circle
   id="ring2-knob"
   cx="18.08"
   cy="85.5"
   r="3" />
  <circle
   id="ring3-knob"
   cx="18.08"
   cy="96"
   r="3" />
  <!-- Probability column -->
  <circle
   id="probability-knob"
   cx="37.080002"
   cy="56"
   r="3" />
  <circle
   id="chaos-knob"
   cx="37.080002"
   cy="71.5"
   r="3.5" />
  <circle
   id="density-knob"
   cx="37.080002"
   cy="87"
   r="3" />
  <!-- Mutation column -->
  <circle
   id="tempo-knob"
   cx="64.580002"
   cy="54"
   r="3" />
  <circle
   id="mutation-knob"
   cx="64.580002"
   cy="64.5"
   r="3" />
  <circle
   id="freeze-btn"
   cx="64.580002"
   cy="75"
   r="2.4000001" />
  <circle
   id="reset-btn"
   cx="64.580002"
   cy="85.5"
   r="2.4000001" />
  <circle
   id="overlap-switch"
   cx="64.580002"
   cy="96"
   r="2.4000001" />
  <!-- Envelope column -->
  <circle
   id="attack-knob"
   cx="83.580002"
   cy="54"
   r="3" />
  <circle
   id="decay-knob"
   cx="83.580002"
   cy="64.5"
   r="3" />
  <circle
   id="curve-knob"
   cx="83.580002"
   cy="75"
   r="3" />
  <circle
   id="shape-knob"
   cx="83.580002"
   cy="85.5"
   r="3" />
  <!-- Inputs -->
  <circle
   id="clock-input"
   cx="18.08"
   cy="107"
   r="2.5999999" />
  <circle
   id="reset-input"
   cx="29.58"
   cy="107"
   r="2.5999999" />
  <circle
   id="chaos-cv-input"
   cx="41.080002"
   cy="107"
   r="2.5999999" />
  <circle
   id="probability-cv-input"
   cx="52.580002"
   cy="107"
   r="2.5999999" />
  <!-- Outputs -->
  <circle
   id="ring1-output"
   cx="18.08"
   cy="119.5"
   r="2.5999999" />
  <circle
   id="ring2-output"
   cx="29.58"
   cy="119.5"
   r="2.5999999" />
  <circle
   id="ring3-output"
   cx="41.080002"
   cy="119.5"
   r="2.5999999" />
  <circle
   id="gate-output"
   cx="52.580002"
   cy="119.5"
   r="2.5999999" />
  <circle
   id="accent-output"
   cx="64.080002"
   cy="119.5"
   r="2.5999999" />
  <circle
   id="main-output"
   cx="75.580002"
   cy="119.5"
   r="2.5999999" />
  <!-- Bipolar toggle -->
  <circle
   id="bipolar-toggle"
   cx="75.580002"
   cy="109.5"
   r="2.3" />
</g>


<circle
   style="display:none;fill:#ebe9c6;fill-opacity:0.818543;fill-rule:evenodd;stroke-width:0;stroke-linecap:round;paint-order:fill markers stroke"
   id="circle1"
   cx="50.798294"
   cy="55.33194"
   r="3"
   inkscape:label="clock-input" /><path
   style="font-weight:600;font-size:2.82222px;line-height:0;font-family:Neokurat;-inkscape-font-specification:'Neokurat, Semi-Bold';text-align:center;letter-spacing:0.529167px;word-spacing:0.79375px;text-anchor:middle;fill:#eedcbb;fill-opacity:0.89019608;fill-rule:evenodd;stroke-width:0.04;stroke-linecap:round;stroke-linejoin:round;stroke-opacity:0.898039;paint-order:fill markers stroke;opacity:0.94822485"
   transform="translate(0,1.058875)"
   d="m 41.073027,125.08186 c -0.163689,-0.0705 -0.285044,-0.10724 -0.434622,-0.14111 -0.206022,-0.048 -0.400755,-0.127 -0.400755,-0.29351 0,-0.0169 0.0028,-0.0339 0.0056,-0.0508 0.03104,-0.15804 0.220134,-0.26811 0.437445,-0.27093 0.0028,0 0.0028,0 0.0056,0 0.180622,0 0.372533,0.0621 0.510822,0.2032 l 0.174977,-0.16369 c -0.121355,-0.13547 -0.386644,-0.27375 -0.680155,-0.27375 -0.0056,0 -0.01129,0.003 -0.01693,0.003 -0.454377,0.006 -0.660399,0.30197 -0.680155,0.48823 -0.0028,0.0169 -0.0056,0.0367 -0.0056,0.0536 0,0.2286 0.180622,0.42898 0.462844,0.50518 0.183444,0.0508 0.333022,0.079 0.530577,0.16087 0.09596,0.0423 0.194733,0.11571 0.194733,0.24553 0,0.0254 -0.0028,0.0536 -0.01129,0.0819 -0.05644,0.1778 -0.253999,0.254 -0.437444,0.26246 -0.01129,0.003 -0.0254,0.003 -0.03669,0.003 -0.259644,0 -0.533399,-0.11571 -0.62371,-0.22577 l -0.191911,0.15522 c 0.149577,0.19473 0.536222,0.30762 0.82691,0.30762 0.285045,0 0.612422,-0.13547 0.697089,-0.43744 0.01693,-0.0508 0.02258,-0.1016 0.02258,-0.14676 0,-0.2032 -0.124177,-0.37253 -0.349955,-0.46567 z m 2.473677,-0.94826 v 0.76764 h -1.114777 v -0.76764 h -0.239888 v 1.9558 h 0.239888 v -0.94827 h 1.114777 v 0.94827 h 0.239889 v -1.9558 z m 1.948742,-0.0395 -1.018822,1.9953 h 0.268111 l 0.333022,-0.65194 h 0.832555 l 0.333022,0.65194 h 0.270933 z m -0.299156,1.11476 0.299156,-0.58701 0.299155,0.58701 z m 3.385253,-0.9285 c -0.112888,-0.0903 -0.259644,-0.14675 -0.417688,-0.14675 H 47.2043 v 1.9558 h 0.239889 v -0.61807 h 0.719666 c 0.369711,0 0.668866,-0.29915 0.668866,-0.66886 0,-0.21167 -0.09878,-0.39794 -0.251178,-0.52212 z m 0.01129,0.52212 c 0,0.23706 -0.191911,0.42897 -0.428977,0.42897 H 47.44419 v -0.85513 h 0.719666 c 0.237066,0 0.428977,0.19191 0.428977,0.42616 z m 1.231901,1.04704 v -0.6604 h 1.03011 v -0.23989 h -1.03011 v -0.57291 h 1.219199 v -0.24271 h -1.459088 v 1.9558 h 1.498599 v -0.23989 z m 1.849967,-1.71591 v 0.24271 h 0.694267 v 1.71308 h 0.239888 v -1.71308 h 0.694266 v -0.24271 z m 2.865963,-0.0395 -1.018821,1.9953 h 0.268111 l 0.333022,-0.65193 h 0.832555 l 0.333022,0.65193 h 0.270933 z m -0.299155,1.11477 0.299155,-0.58702 0.299156,0.58702 z m 2.727676,-0.0931 0.97931,-0.98214 h -0.341488 l -0.809977,0.80998 -0.307622,-0.30762 v -0.50236 h -0.242711 v 1.95581 h 0.242711 v -1.11478 l 1.114777,1.11478 h 0.341488 z m 1.920522,0.73378 v -0.66041 h 1.03011 v -0.23989 h -1.03011 v -0.57291 h 1.219199 v -0.24276 h -1.459089 v 1.9558 h 1.498599 v -0.23989 z m 3.706988,0.23989 -0.451555,-0.44874 c 0.231422,-0.14393 0.383822,-0.39793 0.383822,-0.69144 0,-0.44873 -0.364067,-0.81562 -0.815622,-0.81562 h -0.812799 v 1.95862 h 0.239889 v -1.13453 l 1.13171,1.13453 z m -0.307622,-1.14018 c 0,0.20038 -0.110066,0.40922 -0.318911,0.51647 L 61.14043,124.636 v -0.25964 h 0.57291 c 0.316089,0 0.575733,0.25682 0.575733,0.57291 z"
   id="text6"
   aria-label="SHPETE" /><path
   style="font-weight:600;font-size:6.35px;line-height:0;font-family:Neokurat;-inkscape-font-specification:'Neokurat, Semi-Bold';text-align:center;letter-spacing:1.05833px;word-spacing:0.132292px;text-anchor:middle;opacity:0.900489;fill:#eedcbb;fill-opacity:0.890196;fill-rule:evenodd;stroke-width:0.1;stroke-linecap:round;stroke-linejoin:round;stroke-opacity:0.631373;paint-order:fill markers stroke"
   d="m 31.108179,2.8376725 h 0.5842 v -0.53975 h -0.5842 c -0.69215,0 -1.2446,0.55245 -1.2446,1.2446 v 3.15595 h 0.53975 v -2.24155 h 0.95885 v -0.53975 h -0.95885 v -0.37465 c 0,-0.38735 0.3175,-0.70485 0.70485,-0.70485 z m 3.503086,0.09525 c -1.0668,0 -1.92405,0.85725 -1.92405,1.92405 0,1.06045 0.85725,1.92405 1.92405,1.92405 0.882649,0 1.384299,-0.5842 1.384299,-0.5842 v 0.4953 h 0.53975 v -1.83515 c 0,-1.06045 -0.8636,-1.92405 -1.924049,-1.92405 z m 1.396999,1.92405 c 0,0.76835 -0.62865,1.397 -1.396999,1.397 -0.7747,0 -1.40335,-0.62865 -1.40335,-1.397 0,-0.7747 0.62865,-1.40335 1.40335,-1.40335 0.755649,0 1.396999,0.6223 1.396999,1.40335 z m 3.407831,1.2954 c -0.38735,0 -0.70485,-0.31115 -0.70485,-0.70485 v -1.87325 h 0.95885 v -0.5461 h -0.95885 v -0.73025 h -0.53975 v 3.1496 c 0,0.69215 0.55245,1.25095 1.2446,1.25095 h 0.5842 v -0.5461 z m 5.573174,-1.2954 c 0,-1.06045 -0.8636,-1.92405 -1.92405,-1.92405 -1.0668,0 -1.92405,0.8636 -1.92405,1.92405 0,1.0668 0.85725,1.92405 1.92405,1.92405 0.4699,0 0.89535,-0.1651 1.2319,-0.4445 l -0.38735,-0.38735 c -0.23495,0.18415 -0.52705,0.2921 -0.84455,0.2921 -0.70485,0 -1.28905,-0.5334 -1.3716,-1.21285 h 3.2893 c 0,-0.05715 0.0063,-0.1143 0.0063,-0.17145 z m -3.25755,-0.37465 c 0.1651,-0.57785 0.6985,-1.00965 1.3335,-1.00965 0.62865,0 1.1684,0.4318 1.32715,1.00965 z m 6.716175,-1.5494 c -0.5334,0 -1.03505,0.22225 -1.3843,0.5842 v -1.22555 h -0.5461 v 4.40055 h 0.5461 v -0.4953 c 0.34925,0.36195 0.8382,0.5842 1.3843,0.5842 1.06045,0 1.92405,-0.8636 1.92405,-1.92405 0,-1.0668 -0.8636,-1.92405 -1.92405,-1.92405 z m 0,3.32105 c -0.7747,0 -1.40335,-0.6223 -1.40335,-1.397 0,-0.7747 0.62865,-1.397 1.40335,-1.397 0.76835,0 1.397,0.6223 1.397,1.397 0,0.7747 -0.62865,1.397 -1.397,1.397 z m 3.776135,-4.2926 c -0.20955,0 -0.37465,0.17145 -0.37465,0.381 0,0.20955 0.1651,0.37465 0.37465,0.37465 0.20955,0 0.37465,-0.17145 0.37465,-0.37465 0,-0.20955 -0.1651,-0.381 -0.37465,-0.381 z m 0.26035,4.7371 v -3.6703 h -0.52705 v 3.6703 z m 3.160188,-3.7592 c -0.47625,0 -0.89535,0.2159 -1.17475,0.56515 -0.2032,0.254 -0.32385,0.5842 -0.32385,0.9398 v 2.25425 h 0.55245 v -2.25425 c 0,-0.52705 0.42545,-0.94615 0.94615,-0.94615 0.5207,0 0.94615,0.4191 0.94615,0.94615 v 2.25425 h 0.5588 v -2.25425 c 0,-0.83185 -0.6731,-1.50495 -1.50495,-1.50495 z m 6.354236,-0.6477 v 1.22555 c -0.34925,-0.36195 -0.84455,-0.5842 -1.3843,-0.5842 -1.0668,0 -1.92405,0.85725 -1.92405,1.92405 0,1.06045 0.85725,1.92405 1.92405,1.92405 0.53975,0 1.03505,-0.22225 1.3843,-0.5842 v 0.4953 h 0.53975 v -4.40055 z m -1.3843,3.9624 c -0.7747,0 -1.40335,-0.6223 -1.40335,-1.397 0,-0.7747 0.62865,-1.397 1.40335,-1.397 0.76835,0 1.397,0.6223 1.397,1.397 0,0.7747 -0.62865,1.397 -1.397,1.397 z m 7.363881,-1.397 c 0,-1.06045 -0.8636,-1.92405 -1.92405,-1.92405 -1.0668,0 -1.92405,0.8636 -1.92405,1.92405 0,1.0668 0.85725,1.92405 1.92405,1.92405 0.4699,0 0.89535,-0.1651 1.2319,-0.4445 l -0.38735,-0.38735 c -0.23495,0.18415 -0.52705,0.2921 -0.84455,0.2921 -0.70485,0 -1.28905,-0.5334 -1.3716,-1.21285 h 3.2893 c 0,-0.05715 0.0064,-0.1143 0.0064,-0.17145 z m -3.25755,-0.37465 c 0.1651,-0.57785 0.6985,-1.00965 1.3335,-1.00965 0.62865,0 1.1684,0.4318 1.32715,1.00965 z m 5.992277,-1.45415 c -0.69215,0 -1.2446,0.5588 -1.2446,1.25095 v 2.41935 h 0.53975 v -2.41935 c 0,-0.3937 0.3175,-0.7112 0.70485,-0.7112 h 0.5842 v -0.53975 z"
   id="text1"
   aria-label="fatebinder" /></svg>
