<?xml version="1.0" encoding="UTF-8" standalone="no"?>
<svg
   width="100mm"
   height="128.5mm"
   viewBox="0 0 377.953 485.827"
   version="1.1"
   id="svg38"
   xmlns="http://www.w3.org/2000/svg"
   xmlns:svg="http://www.w3.org/2000/svg">
  <defs
     id="defs38" />
  <!-- Simple solid background -->
  <rect
     width="377.953"
     height="485.827"
     fill="#1a1a1a"
     stroke="#333"
     stroke-width="1"
     id="rect1" />
  <!-- Simple border -->
  <rect
     x="3"
     y="3"
     width="371.953"
     height="479.827"
     fill="none"
     stroke="#444"
     stroke-width="1"
     id="rect2" />
  <!-- Title -->
  <path
     d="M 139.66016,25 V 13.546875 h 7.85156 v 1.9375 h -5.53906 v 2.710937 h 4.78125 v 1.9375 h -4.78125 V 25 Z m 19.20312,0 h -2.51562 l -1,-2.601563 h -4.57813 L 149.82422,25 h -2.45313 l 4.46094,-11.453125 h 2.44531 z m -4.25781,-4.53125 -1.57813,-4.25 -1.54687,4.25 z M 161.48047,25 v -9.515625 h -3.39844 v -1.9375 h 9.10156 v 1.9375 h -3.39062 V 25 Z m 7.19531,0 V 13.546875 h 8.49219 v 1.9375 h -6.17969 v 2.539062 h 5.75 v 1.929688 h -5.75 v 3.117187 h 6.39844 V 25 Z m 10.67969,-11.453125 h 4.57812 q 1.35938,0 2.02344,0.117188 0.67188,0.109375 1.19531,0.46875 0.53125,0.359375 0.88282,0.960937 0.35156,0.59375 0.35156,1.335937 0,0.804688 -0.4375,1.476563 -0.42969,0.671875 -1.17188,1.007812 1.04688,0.304688 1.60938,1.039063 0.5625,0.734375 0.5625,1.726562 0,0.78125 -0.36719,1.523438 -0.35937,0.734375 -0.99219,1.179687 -0.625,0.4375 -1.54687,0.539063 -0.57813,0.0625 -2.78906,0.07813 h -3.89844 z m 2.3125,1.90625 v 2.648437 h 1.51562 q 1.35157,0 1.67969,-0.03906 0.59375,-0.07031 0.92969,-0.40625 0.34375,-0.34375 0.34375,-0.898438 0,-0.53125 -0.29688,-0.859374 -0.28906,-0.335938 -0.86718,-0.40625 -0.34375,-0.03906 -1.97657,-0.03906 z m 0,4.554687 v 3.0625 h 2.14062 q 1.25,0 1.58594,-0.07031 0.51563,-0.09375 0.83594,-0.453125 0.32812,-0.367188 0.32812,-0.976563 0,-0.515625 -0.25,-0.875 -0.25,-0.359375 -0.72656,-0.523437 -0.46875,-0.164063 -2.04687,-0.164063 z M 190.83203,25 V 13.546875 h 2.3125 V 25 Z m 4.53906,0 V 13.546875 h 2.25 l 4.6875,7.648437 v -7.648437 h 2.14844 V 25 h -2.32031 l -4.61719,-7.46875 V 25 Z m 11.52344,-11.453125 h 4.22656 q 1.42969,0 2.17969,0.21875 1.00781,0.296875 1.72656,1.054688 0.71875,0.757812 1.09375,1.859374 0.375,1.09375 0.375,2.703125 0,1.414063 -0.35156,2.4375 -0.42969,1.25 -1.22656,2.023438 -0.60156,0.585937 -1.625,0.914062 Q 212.52734,25 211.24609,25 h -4.35156 z m 2.3125,1.9375 v 7.585937 h 1.72656 q 0.96875,0 1.39844,-0.109375 0.5625,-0.140625 0.92969,-0.476562 0.375,-0.335938 0.60937,-1.101563 0.23438,-0.773437 0.23438,-2.101562 0,-1.328125 -0.23438,-2.039063 -0.23437,-0.710937 -0.65625,-1.109375 -0.42187,-0.398437 -1.07031,-0.539062 -0.48437,-0.109375 -1.89844,-0.109375 z M 218.45703,25 V 13.546875 h 8.49219 v 1.9375 h -6.17969 v 2.539062 h 5.75 v 1.929688 h -5.75 v 3.117187 h 6.39844 V 25 Z m 10.67969,0 V 13.546875 h 4.86719 q 1.83593,0 2.66406,0.3125 0.83594,0.304688 1.33594,1.09375 0.5,0.789063 0.5,1.804687 0,1.289063 -0.75782,2.132813 -0.75781,0.835937 -2.26562,1.054687 0.75,0.4375 1.23437,0.960938 0.49219,0.523437 1.32032,1.859375 L 239.43359,25 h -2.76562 l -1.67188,-2.492188 q -0.89062,-1.335937 -1.21875,-1.679687 -0.32812,-0.351563 -0.69531,-0.476563 -0.36719,-0.132812 -1.16406,-0.132812 h -0.46875 V 25 Z m 2.3125,-6.609375 h 1.71094 q 1.66406,0 2.07812,-0.140625 0.41406,-0.140625 0.64844,-0.484375 0.23437,-0.34375 0.23437,-0.859375 0,-0.578125 -0.3125,-0.929687 -0.30468,-0.359375 -0.86718,-0.453125 -0.28125,-0.03906 -1.6875,-0.03906 h -1.80469 z"
     id="text2"
     style="font-weight:bold;font-size:16px;font-family:Arial;text-anchor:middle;fill:#ffffff"
     aria-label="FATEBINDER" />
  <path
     d="m 164.56885,38.452148 0.86914,-0.136718 q 0.0732,0.522461 0.40527,0.800781 0.33692,0.27832 0.9375,0.27832 0.60547,0 0.89844,-0.24414 0.29297,-0.249024 0.29297,-0.581055 0,-0.297852 -0.25879,-0.46875 -0.18067,-0.117188 -0.89844,-0.297852 -0.9668,-0.24414 -1.34277,-0.419922 -0.3711,-0.180664 -0.56641,-0.493164 -0.19043,-0.317382 -0.19043,-0.698242 0,-0.346679 0.15625,-0.639648 0.16113,-0.297852 0.43457,-0.493164 0.20508,-0.151367 0.55664,-0.253907 0.35645,-0.107421 0.76172,-0.107421 0.61035,0 1.06934,0.175781 0.46386,0.175781 0.68359,0.478515 0.21973,0.297852 0.30274,0.800782 l -0.85938,0.117187 q -0.0586,-0.40039 -0.3418,-0.625 -0.27832,-0.224609 -0.79101,-0.224609 -0.60547,0 -0.86426,0.200195 -0.25879,0.200195 -0.25879,0.46875 0,0.170899 0.10742,0.307617 0.10743,0.141602 0.33692,0.234375 0.13183,0.04883 0.77636,0.22461 0.93262,0.249023 1.29883,0.410156 0.3711,0.15625 0.58106,0.458984 0.20996,0.302735 0.20996,0.751953 0,0.439454 -0.25879,0.830079 -0.25391,0.385742 -0.73731,0.600586 -0.48339,0.20996 -1.09375,0.20996 -1.01074,0 -1.54296,-0.419921 -0.52735,-0.419922 -0.67383,-1.245118 z M 169.92041,40 v -7.158203 h 0.87891 v 2.568359 q 0.61523,-0.71289 1.55273,-0.71289 0.57617,0 1.00098,0.229492 0.4248,0.224609 0.60547,0.625 0.18554,0.40039 0.18554,1.162109 V 40 h -0.8789 v -3.286133 q 0,-0.65918 -0.28809,-0.957031 -0.2832,-0.302734 -0.80566,-0.302734 -0.39063,0 -0.73731,0.205078 -0.34179,0.200195 -0.48828,0.546875 -0.14648,0.346679 -0.14648,0.957031 V 40 Z m 8.94531,-0.639648 q -0.48828,0.415039 -0.94238,0.585937 -0.44922,0.170898 -0.9668,0.170898 -0.85449,0 -1.31347,-0.415039 -0.45899,-0.419921 -0.45899,-1.069336 0,-0.380859 0.1709,-0.693359 0.17578,-0.317383 0.4541,-0.507812 0.28321,-0.19043 0.63477,-0.288086 0.25879,-0.06836 0.78125,-0.131836 1.06445,-0.126953 1.56738,-0.302735 0.005,-0.180664 0.005,-0.229492 0,-0.537109 -0.24902,-0.756836 -0.33691,-0.297851 -1.00098,-0.297851 -0.62011,0 -0.91797,0.219726 -0.29296,0.214844 -0.43457,0.766602 l -0.85937,-0.117188 q 0.11719,-0.551758 0.38574,-0.888672 0.26856,-0.341796 0.77637,-0.522461 0.50781,-0.185546 1.17676,-0.185546 0.66406,0 1.0791,0.15625 0.41504,0.15625 0.61035,0.395507 0.19531,0.234375 0.27344,0.595704 0.0439,0.224609 0.0439,0.810546 v 1.171875 q 0,1.225586 0.0537,1.552735 0.0586,0.322265 0.22461,0.620117 h -0.91797 q -0.13671,-0.273438 -0.17578,-0.639648 z m -0.0732,-1.962891 q -0.47852,0.195312 -1.43555,0.332031 -0.54199,0.07813 -0.7666,0.175781 -0.22461,0.09766 -0.34668,0.288086 -0.12207,0.185547 -0.12207,0.415039 0,0.351563 0.26367,0.585938 0.26856,0.234375 0.78125,0.234375 0.50782,0 0.90332,-0.219727 0.39551,-0.224609 0.58106,-0.610351 0.1416,-0.297852 0.1416,-0.878906 z m 2.25098,4.589844 v -7.172852 h 0.80078 v 0.673828 q 0.2832,-0.395508 0.63965,-0.59082 0.35644,-0.200195 0.86425,-0.200195 0.66407,0 1.17188,0.341796 0.50781,0.341797 0.7666,0.966797 0.25879,0.620118 0.25879,1.362305 0,0.795898 -0.28809,1.435547 -0.2832,0.634766 -0.83007,0.976562 -0.542,0.336914 -1.14258,0.336914 -0.43946,0 -0.79102,-0.185546 -0.34668,-0.185547 -0.57129,-0.46875 v 2.524414 z m 0.7959,-4.550782 q 0,1.000977 0.40527,1.479493 0.40527,0.478515 0.98144,0.478515 0.58594,0 1.00098,-0.493164 0.41992,-0.498047 0.41992,-1.538086 0,-0.991211 -0.41015,-1.484375 -0.40528,-0.493164 -0.97168,-0.493164 -0.56153,0 -0.9961,0.527344 -0.42968,0.522461 -0.42968,1.523437 z m 8.31543,0.893555 0.9082,0.112305 q -0.21485,0.795898 -0.7959,1.235351 -0.58105,0.439453 -1.48438,0.439453 -1.13769,0 -1.80664,-0.698242 -0.66406,-0.703125 -0.66406,-1.967773 0,-1.308594 0.67383,-2.03125 0.67383,-0.722656 1.74805,-0.722656 1.04004,0 1.69922,0.708007 0.65918,0.708008 0.65918,1.992188 0,0.07813 -0.005,0.234375 h -3.86719 q 0.0488,0.854492 0.4834,1.308594 0.43457,0.454101 1.08399,0.454101 0.4834,0 0.82519,-0.253906 0.3418,-0.253906 0.542,-0.810547 z m -2.88575,-1.420898 h 2.89551 q -0.0586,-0.654297 -0.33203,-0.981446 -0.41992,-0.507812 -1.08887,-0.507812 -0.60547,0 -1.02051,0.405273 -0.41015,0.405274 -0.4541,1.083985 z m 6.81641,2.304687 0.12695,0.776367 q -0.37109,0.07813 -0.66406,0.07813 -0.47852,0 -0.74219,-0.151367 -0.26367,-0.151367 -0.37109,-0.395508 -0.10742,-0.249023 -0.10742,-1.040039 v -2.983398 h -0.64453 v -0.683594 h 0.64453 v -1.28418 l 0.87402,-0.527343 v 1.811523 h 0.88379 v 0.683594 h -0.88379 v 3.032226 q 0,0.375977 0.0439,0.483399 0.0488,0.107422 0.15136,0.170898 0.10742,0.06348 0.30274,0.06348 0.14648,0 0.38574,-0.03418 z m 4.24316,0.146485 q -0.48828,0.415039 -0.94238,0.585937 -0.44922,0.170898 -0.9668,0.170898 -0.85449,0 -1.31347,-0.415039 -0.45899,-0.419921 -0.45899,-1.069336 0,-0.380859 0.1709,-0.693359 0.17578,-0.317383 0.4541,-0.507812 0.28321,-0.19043 0.63477,-0.288086 0.25879,-0.06836 0.78125,-0.131836 1.06445,-0.126953 1.56738,-0.302735 0.005,-0.180664 0.005,-0.229492 0,-0.537109 -0.24902,-0.756836 -0.33691,-0.297851 -1.00098,-0.297851 -0.62011,0 -0.91796,0.219726 -0.29297,0.214844 -0.43458,0.766602 l -0.85937,-0.117188 q 0.11719,-0.551758 0.38574,-0.888672 0.26856,-0.341796 0.77637,-0.522461 0.50781,-0.185546 1.17676,-0.185546 0.66406,0 1.0791,0.15625 0.41504,0.15625 0.61035,0.395507 0.19531,0.234375 0.27344,0.595704 0.0439,0.224609 0.0439,0.810546 v 1.171875 q 0,1.225586 0.0537,1.552735 0.0586,0.322265 0.22461,0.620117 h -0.91797 q -0.13671,-0.273438 -0.17578,-0.639648 z m -0.0732,-1.962891 q -0.47851,0.195312 -1.43555,0.332031 -0.54199,0.07813 -0.7666,0.175781 -0.22461,0.09766 -0.34668,0.288086 -0.12207,0.185547 -0.12207,0.415039 0,0.351563 0.26367,0.585938 0.26856,0.234375 0.78125,0.234375 0.50782,0 0.90332,-0.219727 0.39551,-0.224609 0.58106,-0.610351 0.1416,-0.297852 0.1416,-0.878906 z M 200.51123,40 v -7.158203 h 0.87891 v 4.082031 l 2.08007,-2.109375 h 1.1377 L 202.62549,36.738281 204.80811,40 h -1.08399 l -1.71387,-2.651367 -0.62011,0.595703 V 40 Z m 8.54492,-1.669922 0.90821,0.112305 q -0.21485,0.795898 -0.7959,1.235351 -0.58106,0.439453 -1.48438,0.439453 -1.13769,0 -1.80664,-0.698242 -0.66406,-0.703125 -0.66406,-1.967773 0,-1.308594 0.67383,-2.03125 0.67383,-0.722656 1.74804,-0.722656 1.04004,0 1.69922,0.708007 0.65918,0.708008 0.65918,1.992188 0,0.07813 -0.005,0.234375 h -3.86719 q 0.0488,0.854492 0.4834,1.308594 0.43457,0.454101 1.08398,0.454101 0.4834,0 0.8252,-0.253906 0.3418,-0.253906 0.54199,-0.810547 z m -2.88574,-1.420898 h 2.89551 q -0.0586,-0.654297 -0.33203,-0.981446 -0.41993,-0.507812 -1.08887,-0.507812 -0.60547,0 -1.02051,0.405273 -0.41015,0.405274 -0.4541,1.083985 z M 211.05811,40 v -5.185547 h 0.79101 v 0.786133 q 0.30274,-0.551758 0.55664,-0.727539 0.25879,-0.175781 0.56641,-0.175781 0.44433,0 0.90332,0.283203 l -0.30274,0.815429 q -0.32226,-0.190429 -0.64453,-0.190429 -0.28808,0 -0.51758,0.175781 -0.22949,0.170898 -0.32714,0.478516 -0.14649,0.46875 -0.14649,1.02539 V 40 Z"
     id="text3"
     style="font-size:10px;font-family:Arial;text-anchor:middle;fill:#aaaaaa"
     aria-label="shapetaker" />
  <!-- Master Section -->
  <rect
     x="20"
     y="50"
     width="337"
     height="35"
     fill="#2a2a2a"
     stroke="#555"
     stroke-width="1"
     id="rect3" />
  <path
     d="m 30.708008,65 v -7.158203 h 2.163086 l 1.298828,4.882812 1.28418,-4.882812 H 37.62207 V 65 H 36.279297 V 59.365234 L 34.858398,65 H 33.466797 L 32.050781,59.365234 V 65 Z m 14.804687,0 H 43.94043 l -0.625,-1.625977 H 40.454102 L 39.863281,65 h -1.533203 l 2.788086,-7.158203 h 1.52832 z m -2.661133,-2.832031 -0.986328,-2.65625 -0.966797,2.65625 z m 3.061524,0.502929 1.40625,-0.136718 q 0.126953,0.708007 0.512695,1.040039 0.390625,0.332031 1.049805,0.332031 0.698242,0 1.049805,-0.292969 0.356445,-0.297851 0.356445,-0.693359 0,-0.253906 -0.151367,-0.429688 -0.146485,-0.180664 -0.517578,-0.3125 -0.253907,-0.08789 -1.157227,-0.3125 -1.162109,-0.288086 -1.630859,-0.708007 -0.65918,-0.590821 -0.65918,-1.44043 0,-0.546875 0.307617,-1.020508 0.3125,-0.478516 0.893555,-0.727539 0.585937,-0.249023 1.411133,-0.249023 1.347656,0 2.026367,0.59082 0.683594,0.59082 0.717773,1.577148 l -1.445312,0.06348 q -0.09277,-0.551758 -0.400391,-0.791016 -0.302734,-0.24414 -0.913086,-0.24414 -0.629883,0 -0.986328,0.258789 -0.229492,0.166015 -0.229492,0.444336 0,0.253906 0.214844,0.43457 0.273437,0.229492 1.328125,0.478516 1.054687,0.249023 1.557617,0.517578 0.507812,0.263672 0.791015,0.727539 0.288086,0.458984 0.288086,1.137695 0,0.615234 -0.341796,1.152344 -0.341797,0.537109 -0.966797,0.800781 -0.625,0.258789 -1.557618,0.258789 -1.357421,0 -2.08496,-0.625 -0.72754,-0.629883 -0.869141,-1.831055 z M 54.560547,65 V 59.052734 H 52.436523 V 57.841797 H 58.125 v 1.210937 H 56.005859 V 65 Z m 4.49707,0 v -7.158203 h 5.307617 v 1.210937 H 60.50293 v 1.586914 h 3.59375 v 1.206055 h -3.59375 v 1.948242 h 3.999023 V 65 Z m 6.674805,0 v -7.158203 h 3.041992 q 1.147461,0 1.665039,0.195312 0.522461,0.19043 0.834961,0.683594 0.3125,0.493164 0.3125,1.12793 0,0.805664 -0.473633,1.333008 -0.473633,0.522461 -1.416015,0.659179 0.46875,0.273438 0.771484,0.600586 0.307617,0.327149 0.825195,1.16211 L 72.167969,65 h -1.728516 l -1.044922,-1.557617 q -0.55664,-0.834961 -0.761719,-1.049805 -0.205078,-0.219726 -0.43457,-0.297851 -0.229492,-0.08301 -0.727539,-0.08301 H 67.177734 V 65 Z m 1.445312,-4.130859 h 1.069336 q 1.040039,0 1.298828,-0.08789 0.258789,-0.08789 0.405274,-0.302734 0.146484,-0.214844 0.146484,-0.53711 0,-0.361328 -0.195312,-0.581054 -0.19043,-0.22461 -0.541992,-0.283204 -0.175782,-0.02441 -1.054688,-0.02441 h -1.12793 z"
     id="text4"
     style="font-weight:bold;font-size:10px;font-family:Arial;fill:#ffffff"
     aria-label="MASTER" />
  <path
     d="m 93.654297,78 v -5.726563 h 3.863281 v 0.675782 h -3.105469 v 1.773437 h 2.6875 v 0.675781 h -2.6875 V 78 Z m 4.859375,0 v -5.726563 h 2.539058 q 0.76563,0 1.16407,0.15625 0.39843,0.152344 0.63672,0.542969 0.23828,0.390625 0.23828,0.863281 0,0.609375 -0.39453,1.027344 -0.39454,0.417969 -1.21875,0.53125 0.30078,0.144531 0.45703,0.285156 0.33203,0.304688 0.6289,0.761719 L 103.56055,78 h -0.95313 l -0.75781,-1.191406 q -0.33203,-0.515625 -0.54688,-0.789063 -0.21484,-0.273437 -0.38671,-0.382812 -0.16797,-0.109375 -0.34375,-0.152344 -0.12891,-0.02734 -0.42188,-0.02734 H 99.271484 V 78 Z m 0.757812,-3.199219 h 1.628906 q 0.51953,0 0.8125,-0.105469 0.29297,-0.109375 0.44531,-0.34375 0.15235,-0.238281 0.15235,-0.515625 0,-0.40625 -0.29688,-0.667968 -0.29297,-0.261719 -0.92969,-0.261719 H 99.271484 Z M 104.29492,78 v -5.726563 h 4.14063 v 0.675782 h -3.38282 v 1.753906 h 3.16797 V 75.375 h -3.16797 v 1.949219 h 3.51563 V 78 Z m 9.66016,-0.613281 q 0.52734,0.363281 0.97265,0.53125 l -0.22265,0.527343 q -0.61719,-0.222656 -1.23047,-0.703125 -0.63672,0.355469 -1.40625,0.355469 -0.77734,0 -1.41016,-0.375 -0.63281,-0.375 -0.97656,-1.054687 -0.33984,-0.679688 -0.33984,-1.53125 0,-0.847657 0.34375,-1.542969 0.34375,-0.695313 0.97656,-1.058594 0.63672,-0.363281 1.42187,-0.363281 0.79297,0 1.42969,0.378906 0.63672,0.375 0.96875,1.054688 0.33594,0.675781 0.33594,1.527343 0,0.707032 -0.21484,1.273438 -0.21485,0.5625 -0.64844,0.980469 z m -1.66797,-0.96875 q 0.65625,0.183593 1.08203,0.546875 0.66797,-0.609375 0.66797,-1.832032 0,-0.695312 -0.23828,-1.214843 -0.23438,-0.519532 -0.69141,-0.804688 -0.45312,-0.289062 -1.01953,-0.289062 -0.84766,0 -1.40625,0.582031 -0.55859,0.578125 -0.55859,1.730469 0,1.117187 0.55078,1.714843 0.55469,0.597657 1.41406,0.597657 0.40625,0 0.76563,-0.152344 -0.35547,-0.230469 -0.75,-0.328125 z m 5.15625,1.679687 1.66016,-5.921875 h 0.5625 l -1.65625,5.921875 z m 9.14844,-2.105469 0.75781,0.191407 q -0.23828,0.933593 -0.85938,1.425781 -0.61718,0.488281 -1.51171,0.488281 -0.92579,0 -1.50782,-0.375 -0.57812,-0.378906 -0.88281,-1.09375 -0.30078,-0.714844 -0.30078,-1.535156 0,-0.894531 0.33984,-1.558594 0.34375,-0.667969 0.97266,-1.011719 0.63281,-0.347656 1.39062,-0.347656 0.85938,0 1.44532,0.4375 0.58593,0.4375 0.8164,1.230469 l -0.74609,0.175781 q -0.19922,-0.625 -0.57813,-0.910156 -0.3789,-0.285156 -0.95312,-0.285156 -0.66016,0 -1.10547,0.316406 -0.44141,0.316406 -0.62109,0.851562 -0.17969,0.53125 -0.17969,1.097657 0,0.730468 0.21094,1.277343 0.21484,0.542969 0.66406,0.8125 0.44922,0.269532 0.97266,0.269532 0.63671,0 1.07812,-0.367188 0.44141,-0.367187 0.59766,-1.089844 z M 129.91992,78 127.70117,72.273437 h 0.82031 l 1.48829,4.160157 q 0.17968,0.5 0.30078,0.9375 0.13281,-0.46875 0.30859,-0.9375 l 1.54688,-4.160157 h 0.77343 L 130.69727,78 Z"
     id="text5"
     style="font-size:8px;font-family:Arial;text-anchor:middle;fill:#cccccc"
     aria-label="FREQ / CV" />
  <path
     d="m 200.54883,78 v -5.726563 h 2.53906 q 0.76563,0 1.16406,0.15625 0.39844,0.152344 0.63672,0.542969 0.23828,0.390625 0.23828,0.863281 0,0.609375 -0.39453,1.027344 -0.39453,0.417969 -1.21875,0.53125 0.30078,0.144531 0.45703,0.285156 0.33203,0.304688 0.62891,0.761719 L 205.5957,78 h -0.95312 l -0.75781,-1.191406 q -0.33204,-0.515625 -0.54688,-0.789063 -0.21484,-0.273437 -0.38672,-0.382812 -0.16797,-0.109375 -0.34375,-0.152344 -0.1289,-0.02734 -0.42187,-0.02734 h -0.87891 V 78 Z m 0.75781,-3.199219 h 1.62891 q 0.51953,0 0.8125,-0.105469 0.29297,-0.109375 0.44531,-0.34375 0.15234,-0.238281 0.15234,-0.515625 0,-0.40625 -0.29687,-0.667968 -0.29297,-0.261719 -0.92969,-0.261719 h -1.8125 z M 206.33008,78 v -5.726563 h 4.14062 v 0.675782 h -3.38281 v 1.753906 h 3.16797 V 75.375 h -3.16797 v 1.949219 h 3.51563 V 78 Z m 5.0625,-1.839844 0.71484,-0.0625 q 0.0508,0.429688 0.23438,0.707031 0.1875,0.273438 0.57812,0.445313 0.39063,0.167969 0.87891,0.167969 0.43359,0 0.76562,-0.128907 0.33203,-0.128906 0.49219,-0.351562 0.16406,-0.226563 0.16406,-0.492188 0,-0.269531 -0.15625,-0.46875 -0.15625,-0.203125 -0.51562,-0.339843 -0.23047,-0.08984 -1.01953,-0.277344 Q 212.74023,75.167969 212.42383,75 q -0.41016,-0.214844 -0.61328,-0.53125 -0.19922,-0.320313 -0.19922,-0.714844 0,-0.433594 0.24609,-0.808594 0.2461,-0.378906 0.71875,-0.574218 0.47266,-0.195313 1.05078,-0.195313 0.63672,0 1.1211,0.207031 0.48828,0.203125 0.75,0.601563 0.26172,0.398437 0.28125,0.902344 l -0.72657,0.05469 q -0.0586,-0.542969 -0.39843,-0.820312 -0.33594,-0.277344 -0.9961,-0.277344 -0.6875,0 -1.0039,0.253906 -0.3125,0.25 -0.3125,0.605469 0,0.308594 0.22265,0.507812 0.21875,0.199219 1.14063,0.410157 0.92578,0.207031 1.26953,0.363281 0.5,0.230469 0.73828,0.585937 0.23828,0.351563 0.23828,0.8125 0,0.457032 -0.26172,0.863282 -0.26172,0.402343 -0.7539,0.628906 -0.48828,0.222656 -1.10157,0.222656 -0.77734,0 -1.30468,-0.226562 -0.52344,-0.226563 -0.82422,-0.679688 -0.29688,-0.457031 -0.3125,-1.03125 z M 217.00195,78 v -5.726563 h 4.14063 v 0.675782 h -3.38281 v 1.753906 h 3.16796 V 75.375 h -3.16796 v 1.949219 h 3.51562 V 78 Z m 6.77735,0 v -5.050781 h -1.88672 v -0.675782 h 4.53906 v 0.675782 h -1.89453 V 78 Z m 4.89062,0.09766 1.66016,-5.921875 h 0.5625 l -1.65625,5.921875 z M 235.04492,78 v -5.050781 h -1.88672 v -0.675782 h 4.53907 v 0.675782 h -1.89454 V 78 Z m 3.44141,0 v -5.726563 h 2.53906 q 0.76563,0 1.16406,0.15625 0.39844,0.152344 0.63672,0.542969 0.23828,0.390625 0.23828,0.863281 0,0.609375 -0.39453,1.027344 -0.39453,0.417969 -1.21875,0.53125 0.30078,0.144531 0.45703,0.285156 0.33203,0.304688 0.62891,0.761719 L 243.5332,78 h -0.95312 l -0.75781,-1.191406 q -0.33204,-0.515625 -0.54688,-0.789063 -0.21484,-0.273437 -0.38672,-0.382812 -0.16797,-0.109375 -0.34375,-0.152344 -0.1289,-0.02734 -0.42187,-0.02734 h -0.87891 V 78 Z m 0.75781,-3.199219 h 1.62891 q 0.51953,0 0.8125,-0.105469 0.29297,-0.109375 0.44531,-0.34375 0.15234,-0.238281 0.15234,-0.515625 0,-0.40625 -0.29687,-0.667968 -0.29297,-0.261719 -0.92969,-0.261719 h -1.8125 z M 244.38086,78 v -5.726563 h 0.75781 V 78 Z m 4.77344,-2.246094 v -0.671875 l 2.42578,-0.0039 v 2.125 q -0.5586,0.445312 -1.15235,0.671875 -0.59375,0.222656 -1.21875,0.222656 -0.84375,0 -1.53515,-0.359375 -0.6875,-0.363281 -1.03906,-1.046875 -0.35157,-0.683594 -0.35157,-1.527344 0,-0.835937 0.34766,-1.558593 0.35156,-0.726563 1.00781,-1.078125 0.65625,-0.351563 1.51172,-0.351563 0.62109,0 1.12109,0.203125 0.50391,0.199219 0.78907,0.558594 0.28515,0.359375 0.43359,0.9375 l -0.68359,0.1875 q -0.12891,-0.4375 -0.32032,-0.6875 -0.1914,-0.25 -0.54687,-0.398438 -0.35547,-0.152343 -0.78906,-0.152343 -0.51953,0 -0.89844,0.160156 -0.37891,0.15625 -0.61328,0.414062 -0.23047,0.257813 -0.35938,0.566407 -0.21875,0.53125 -0.21875,1.152343 0,0.765625 0.26172,1.28125 0.26563,0.515625 0.76953,0.765625 0.50391,0.25 1.07032,0.25 0.49218,0 0.96093,-0.1875 0.46875,-0.191406 0.71094,-0.40625 v -1.066406 z"
     id="text6"
     style="font-size:8px;font-family:Arial;text-anchor:middle;fill:#cccccc"
     aria-label="RESET / TRIG" />
  <!-- Lorenz Section -->
  <rect
     x="20"
     y="95"
     width="337"
     height="75"
     fill="#2a2a2a"
     stroke="#cc4444"
     stroke-width="2"
     id="rect6" />
  <path
     d="m 30.843262,110 v -7.80957 h 1.589843 v 6.48291 H 36.38623 V 110 Z m 6.354004,-3.88867 q 0,-1.20313 0.359863,-2.01953 0.268555,-0.60157 0.730469,-1.07959 0.467285,-0.47803 1.020507,-0.70899 0.73584,-0.31152 1.697266,-0.31152 1.740234,0 2.782227,1.07959 1.047363,1.07959 1.047363,3.00244 0,1.90674 -1.036621,2.98633 -1.036621,1.07422 -2.771485,1.07422 -1.756347,0 -2.792968,-1.06885 -1.036621,-1.07422 -1.036621,-2.9541 z m 1.638183,-0.0537 q 0,1.3374 0.617676,2.03027 0.617676,0.6875 1.568359,0.6875 0.950684,0 1.557618,-0.68213 0.612304,-0.6875 0.612304,-2.05713 0,-1.35351 -0.596191,-2.01953 -0.59082,-0.66601 -1.573731,-0.66601 -0.98291,0 -1.584472,0.67675 -0.601563,0.67139 -0.601563,2.03028 z M 46.081055,110 v -7.87402 h 3.346191 q 1.262207,0 1.831543,0.21484 0.574707,0.20947 0.918457,0.75195 0.34375,0.54248 0.34375,1.24073 0,0.88623 -0.520996,1.4663 -0.520996,0.57471 -1.557617,0.7251 0.515625,0.30078 0.848633,0.66065 0.338379,0.35986 0.907714,1.27832 L 53.160156,110 h -1.901367 l -1.149414,-1.71338 q -0.612305,-0.91846 -0.837891,-1.15478 -0.225586,-0.2417 -0.478027,-0.32764 -0.252441,-0.0913 -0.800293,-0.0913 H 47.670898 V 110 Z m 1.589843,-4.54395 h 1.17627 q 1.144043,0 1.428711,-0.0967 0.284668,-0.0967 0.445801,-0.33301 0.161132,-0.23633 0.161132,-0.59082 0,-0.39746 -0.214843,-0.63916 -0.209473,-0.24707 -0.596192,-0.31153 -0.193359,-0.0268 -1.160156,-0.0268 H 47.670898 Z M 54.019531,110 v -7.87402 h 5.838379 v 1.33203 h -4.248535 v 1.7456 H 59.5625 v 1.32666 h -3.953125 v 2.14307 h 4.398926 V 110 Z m 7.353028,0 v -7.87402 h 1.546875 l 3.222656,5.2583 v -5.2583 h 1.477051 V 110 h -1.595215 l -3.174317,-5.13477 V 110 Z m 7.245605,0 v -1.43408 l 4.135742,-5.10791 h -3.668457 v -1.33203 h 5.763184 v 1.23535 l -4.312988,5.31201 h 4.479492 V 110 Z"
     id="text7"
     style="font-weight:bold;font-size:11px;font-family:Arial;fill:#cc4444"
     aria-label="LORENZ" />
  <!-- Lorenz Control Labels -->
  <path
     d="m 65.851807,125 v -5.01074 h 3.380371 v 0.59131 h -2.717285 v 1.55175 h 2.351562 v 0.59131 H 66.514893 V 125 Z m 4.251953,0 v -5.01074 h 2.221679 q 0.669922,0 1.018555,0.13672 0.348633,0.1333 0.557129,0.47509 0.208496,0.3418 0.208496,0.75538 0,0.5332 -0.345215,0.89892 -0.345215,0.36572 -1.066406,0.46484 0.263184,0.12647 0.399902,0.24952 0.290528,0.2666 0.550293,0.6665 L 74.519775,125 h -0.833984 l -0.663086,-1.04248 q -0.290527,-0.45117 -0.478516,-0.69043 -0.187988,-0.23926 -0.338378,-0.33496 -0.146973,-0.0957 -0.300782,-0.1333 -0.112793,-0.0239 -0.36914,-0.0239 H 70.766846 V 125 Z m 0.663086,-2.79932 h 1.425293 q 0.45459,0 0.710937,-0.0923 0.256348,-0.0957 0.389649,-0.30078 0.1333,-0.2085 0.1333,-0.45117 0,-0.35547 -0.259765,-0.58448 -0.256348,-0.229 -0.813477,-0.229 H 70.766846 Z M 75.162354,125 v -5.01074 H 78.7854 v 0.59131 h -2.959961 v 1.53466 h 2.771973 v 0.5879 h -2.771973 v 1.70556 h 3.076172 V 125 Z m 8.452636,-0.53662 q 0.461426,0.31787 0.851074,0.46484 l -0.194824,0.46143 q -0.540039,-0.19483 -1.07666,-0.61524 -0.557129,0.31104 -1.230469,0.31104 -0.680175,0 -1.233886,-0.32813 -0.553711,-0.32812 -0.854493,-0.92285 -0.297363,-0.59472 -0.297363,-1.33984 0,-0.7417 0.300781,-1.3501 0.300782,-0.6084 0.854493,-0.92627 0.557128,-0.31787 1.24414,-0.31787 0.693848,0 1.250977,0.33154 0.557129,0.32813 0.847656,0.92286 0.293945,0.5913 0.293945,1.33642 0,0.61865 -0.187988,1.11426 -0.187988,0.49219 -0.567383,0.85791 z m -1.459472,-0.84766 q 0.574218,0.16065 0.946777,0.47852 0.584473,-0.5332 0.584473,-1.60303 0,-0.6084 -0.208497,-1.06299 -0.205078,-0.45459 -0.60498,-0.7041 -0.396484,-0.25293 -0.89209,-0.25293 -0.741699,0 -1.230469,0.50928 -0.488769,0.50586 -0.488769,1.51416 0,0.97754 0.481933,1.50049 0.485352,0.52295 1.237305,0.52295 0.355469,0 0.669922,-0.1333 -0.311035,-0.20166 -0.65625,-0.28711 z"
     id="text8"
     style="font-size:7px;font-family:Arial;text-anchor:middle;fill:#ffffff"
     aria-label="FREQ" />
  <path
     d="m 131.25317,123.24316 0.66309,0.16748 q -0.2085,0.8169 -0.75195,1.24756 -0.54004,0.42725 -1.32276,0.42725 -0.81006,0 -1.31933,-0.32813 -0.50586,-0.33154 -0.77246,-0.95703 -0.26319,-0.62549 -0.26319,-1.34326 0,-0.78271 0.29737,-1.36377 0.30078,-0.58447 0.85107,-0.88525 0.55371,-0.3042 1.2168,-0.3042 0.75195,0 1.26465,0.38281 0.51269,0.38281 0.71435,1.07666 l -0.65283,0.15381 q -0.17432,-0.54688 -0.50586,-0.79639 -0.33154,-0.24951 -0.83399,-0.24951 -0.57763,0 -0.96728,0.27686 -0.38623,0.27685 -0.54346,0.74511 -0.15722,0.46485 -0.15722,0.96045 0,0.63916 0.18457,1.11768 0.18798,0.4751 0.58105,0.71094 0.39307,0.23584 0.85108,0.23584 0.55712,0 0.94335,-0.32129 0.38624,-0.32129 0.52295,-0.95362 z m 2.91211,1.75684 -1.9414,-5.01074 h 0.71777 l 1.30225,3.64013 q 0.15722,0.4375 0.26318,0.82032 0.11621,-0.41016 0.27002,-0.82032 l 1.35352,-3.64013 h 0.67675 L 134.84546,125 Z"
     id="text9"
     style="font-size:7px;font-family:Arial;text-anchor:middle;fill:#ffffff"
     aria-label="CV" />
  <path
     d="m 181.77271,125 v -5.01074 h 2.22167 q 0.66993,0 1.01856,0.13672 0.34863,0.1333 0.55713,0.47509 0.20849,0.3418 0.20849,0.75538 0,0.5332 -0.34521,0.89892 -0.34522,0.36572 -1.06641,0.46484 0.26319,0.12647 0.39991,0.24952 0.29052,0.2666 0.55029,0.6665 L 186.18872,125 h -0.83398 l -0.66309,-1.04248 q -0.29053,-0.45117 -0.47852,-0.69043 -0.18798,-0.23926 -0.33837,-0.33496 -0.14698,-0.0957 -0.30079,-0.1333 -0.11279,-0.0239 -0.36914,-0.0239 h -0.76904 V 125 Z m 0.66308,-2.79932 h 1.42529 q 0.45459,0 0.71094,-0.0923 0.25635,-0.0957 0.38965,-0.30078 0.1333,-0.2085 0.1333,-0.45117 0,-0.35547 -0.25976,-0.58448 -0.25635,-0.229 -0.81348,-0.229 h -1.58594 z M 186.83813,125 v -5.01074 h 0.66309 v 2.05762 h 2.60449 v -2.05762 h 0.66309 V 125 h -0.66309 v -2.36182 h -2.60449 V 125 Z m 4.83301,-2.44043 q 0,-1.24756 0.66992,-1.95166 0.66993,-0.70752 1.7295,-0.70752 0.69384,0 1.25097,0.33154 0.55713,0.33155 0.84766,0.92627 0.29394,0.59131 0.29394,1.34326 0,0.76221 -0.30761,1.36377 -0.30762,0.60157 -0.87158,0.9126 -0.56397,0.30762 -1.2168,0.30762 -0.70752,0 -1.26465,-0.3418 -0.55713,-0.34179 -0.84424,-0.9331 -0.28711,-0.59131 -0.28711,-1.25098 z m 0.6836,0.0103 q 0,0.90577 0.48535,1.42872 0.48877,0.51953 1.22363,0.51953 0.74854,0 1.23047,-0.52637 0.48535,-0.52637 0.48535,-1.49365 0,-0.61182 -0.2085,-1.06641 -0.20507,-0.45801 -0.60498,-0.70752 -0.39648,-0.25293 -0.89209,-0.25293 -0.7041,0 -1.21337,0.48535 -0.50586,0.48194 -0.50586,1.61328 z"
     id="text10"
     style="font-size:7px;font-family:Arial;text-anchor:middle;fill:#ffffff"
     aria-label="RHO" />
  <!-- Lorenz Input Labels -->
  <path
     d="m 270.15771,125 v -4.29492 h 2.89747 v 0.50683 h -2.32911 v 1.33008 h 2.01563 v 0.50684 h -2.01563 V 125 Z m 3.64454,0 v -4.29492 h 1.90429 q 0.57422,0 0.87305,0.11719 0.29883,0.11425 0.47754,0.40722 0.17871,0.29297 0.17871,0.64746 0,0.45703 -0.2959,0.77051 -0.2959,0.31348 -0.91406,0.39844 0.22558,0.1084 0.34277,0.21387 0.24903,0.22851 0.47168,0.57128 L 277.5874,125 h -0.71484 l -0.56836,-0.89355 q -0.24902,-0.38672 -0.41016,-0.5918 -0.16113,-0.20508 -0.29004,-0.28711 -0.12597,-0.082 -0.25781,-0.11426 -0.0967,-0.0205 -0.3164,-0.0205 h -0.65918 V 125 Z m 0.56836,-2.39941 h 1.22168 q 0.38964,0 0.60937,-0.0791 0.21973,-0.082 0.33398,-0.25781 0.11426,-0.17871 0.11426,-0.38672 0,-0.30468 -0.22265,-0.50097 -0.21973,-0.19629 -0.69727,-0.19629 h -1.35937 z M 278.13818,125 v -4.29492 h 3.10547 v 0.50683 h -2.53711 v 1.31543 h 2.37598 v 0.50391 h -2.37598 v 1.46191 h 2.63672 V 125 Z m 7.24512,-0.45996 q 0.39551,0.27246 0.72949,0.39844 l -0.16699,0.3955 q -0.46289,-0.16699 -0.92285,-0.52734 -0.47754,0.2666 -1.05469,0.2666 -0.58301,0 -1.05762,-0.28125 -0.4746,-0.28125 -0.73242,-0.79101 -0.25488,-0.50977 -0.25488,-1.14844 0,-0.63574 0.25781,-1.15723 0.25781,-0.52148 0.73242,-0.79394 0.47754,-0.27246 1.06641,-0.27246 0.59473,0 1.07227,0.28418 0.47754,0.28125 0.72656,0.79101 0.25195,0.50684 0.25195,1.14551 0,0.53027 -0.16113,0.95508 -0.16113,0.42187 -0.48633,0.73535 z m -1.25098,-0.72656 q 0.49219,0.13769 0.81153,0.41015 0.50097,-0.45703 0.50097,-1.37402 0,-0.52148 -0.17871,-0.91113 -0.17578,-0.38965 -0.51855,-0.60352 -0.33985,-0.2168 -0.76465,-0.2168 -0.63574,0 -1.05469,0.43653 -0.41894,0.43359 -0.41894,1.29785 0,0.83789 0.41308,1.28613 0.41602,0.44824 1.06055,0.44824 0.30469,0 0.57422,-0.11425 -0.2666,-0.17286 -0.5625,-0.2461 z m 7.39454,-0.31934 0.56835,0.14356 q -0.17871,0.70019 -0.64453,1.06933 -0.46289,0.36621 -1.13379,0.36621 -0.69433,0 -1.13085,-0.28125 -0.4336,-0.28418 -0.66211,-0.82031 -0.22559,-0.53613 -0.22559,-1.15137 0,-0.6709 0.25488,-1.16894 0.25782,-0.50098 0.72949,-0.75879 0.47461,-0.26074 1.04297,-0.26074 0.64453,0 1.08399,0.32812 0.43945,0.32813 0.6123,0.92285 l -0.55957,0.13184 q -0.14941,-0.46875 -0.43359,-0.68262 -0.28418,-0.21387 -0.71485,-0.21387 -0.49511,0 -0.8291,0.23731 -0.33105,0.2373 -0.46582,0.63867 -0.13476,0.39844 -0.13476,0.82324 0,0.54785 0.1582,0.95801 0.16113,0.40723 0.49805,0.60938 0.33691,0.20214 0.72949,0.20214 0.47754,0 0.80859,-0.27539 0.33106,-0.27539 0.44825,-0.81738 z m 2.49609,1.50586 -1.66406,-4.29492 h 0.61523 l 1.11621,3.12012 q 0.13477,0.375 0.22559,0.70312 0.0996,-0.35156 0.23144,-0.70312 l 1.16016,-3.12012 h 0.58008 L 294.60596,125 Z"
     id="text11"
     style="font-size:6px;font-family:Arial;text-anchor:middle;fill:#aaaaaa"
     aria-label="FREQ CV" />
  <path
     d="m 328.8042,125 v -4.29492 h 1.9043 q 0.57421,0 0.87304,0.11719 0.29883,0.11425 0.47754,0.40722 0.17871,0.29297 0.17871,0.64746 0,0.45703 -0.2959,0.77051 -0.29589,0.31348 -0.91406,0.39844 0.22559,0.1084 0.34278,0.21387 0.24902,0.22851 0.47168,0.57128 L 332.58936,125 h -0.71485 l -0.56836,-0.89355 q -0.24902,-0.38672 -0.41015,-0.5918 -0.16114,-0.20508 -0.29004,-0.28711 -0.12598,-0.082 -0.25782,-0.11426 -0.0967,-0.0205 -0.3164,-0.0205 h -0.65918 V 125 Z m 0.56836,-2.39941 h 1.22168 q 0.38965,0 0.60937,-0.0791 0.21973,-0.082 0.33399,-0.25781 0.11426,-0.17871 0.11426,-0.38672 0,-0.30468 -0.22266,-0.50097 -0.21973,-0.19629 -0.69727,-0.19629 h -1.35937 z M 333.146,125 v -4.29492 h 0.56836 v 1.76367 h 2.23242 v -1.76367 h 0.56836 V 125 h -0.56836 v -2.02441 h -2.23242 V 125 Z m 4.14257,-2.0918 q 0,-1.06933 0.57422,-1.67285 0.57422,-0.60644 1.48242,-0.60644 0.59473,0 1.07227,0.28418 0.47754,0.28418 0.72656,0.79394 0.25196,0.50684 0.25196,1.15137 0,0.65332 -0.26368,1.16894 -0.26367,0.51563 -0.74707,0.78223 -0.48339,0.26367 -1.04296,0.26367 -0.60645,0 -1.08399,-0.29297 -0.47754,-0.29297 -0.72363,-0.7998 -0.2461,-0.50684 -0.2461,-1.07227 z m 0.58594,0.009 q 0,0.77637 0.41602,1.22461 0.41894,0.44531 1.04883,0.44531 0.6416,0 1.05468,-0.45117 0.41602,-0.45117 0.41602,-1.28027 0,-0.52442 -0.17871,-0.91406 -0.17578,-0.39258 -0.51856,-0.60645 -0.33984,-0.2168 -0.76465,-0.2168 -0.60351,0 -1.04003,0.41602 -0.4336,0.41309 -0.4336,1.38281 z m 8.98535,0.57715 0.56836,0.14356 q -0.17871,0.70019 -0.64453,1.06933 -0.46289,0.36621 -1.13379,0.36621 -0.69433,0 -1.13086,-0.28125 -0.43359,-0.28418 -0.66211,-0.82031 -0.22558,-0.53613 -0.22558,-1.15137 0,-0.6709 0.25488,-1.16894 0.25781,-0.50098 0.72949,-0.75879 0.47461,-0.26074 1.04297,-0.26074 0.64453,0 1.08399,0.32812 0.43945,0.32813 0.6123,0.92285 l -0.55957,0.13184 q -0.14941,-0.46875 -0.43359,-0.68262 -0.28418,-0.21387 -0.71485,-0.21387 -0.49511,0 -0.8291,0.23731 -0.33105,0.2373 -0.46582,0.63867 -0.13476,0.39844 -0.13476,0.82324 0,0.54785 0.1582,0.95801 0.16113,0.40723 0.49805,0.60938 0.33691,0.20214 0.72949,0.20214 0.47754,0 0.80859,-0.27539 0.33106,-0.27539 0.44824,-0.81738 z m 2.4961,1.50586 -1.66407,-4.29492 h 0.61524 l 1.11621,3.12012 q 0.13477,0.375 0.22559,0.70312 0.0996,-0.35156 0.23144,-0.70312 l 1.16016,-3.12012 h 0.58008 L 349.93896,125 Z"
     id="text12"
     style="font-size:6px;font-family:Arial;text-anchor:middle;fill:#aaaaaa"
     aria-label="RHO CV" />
  <!-- Lorenz Output -->
  <path
     d="m 123.9043,157.17187 q 0,-0.875 0.26172,-1.46875 0.19531,-0.4375 0.53125,-0.78515 0.33984,-0.34766 0.74218,-0.51563 0.53516,-0.22656 1.23438,-0.22656 1.26562,0 2.02344,0.78516 0.76171,0.78515 0.76171,2.18359 0,1.38672 -0.7539,2.17188 -0.75391,0.78125 -2.01563,0.78125 -1.27734,0 -2.03125,-0.77735 -0.7539,-0.78125 -0.7539,-2.14844 z m 1.1914,-0.0391 q 0,0.97266 0.44922,1.47656 0.44922,0.5 1.14063,0.5 0.6914,0 1.13281,-0.49609 0.44531,-0.5 0.44531,-1.49609 0,-0.98438 -0.43359,-1.46875 -0.42969,-0.48438 -1.14453,-0.48438 -0.71485,0 -1.15235,0.49219 -0.4375,0.48828 -0.4375,1.47656 z m 5.25782,-2.85937 h 1.15625 v 3.10156 q 0,0.73828 0.043,0.95703 0.0742,0.35156 0.35157,0.56641 0.28125,0.21093 0.76562,0.21093 0.49219,0 0.74219,-0.19921 0.25,-0.20313 0.30078,-0.4961 0.0508,-0.29297 0.0508,-0.97265 v -3.16797 h 1.15625 v 3.00781 q 0,1.03125 -0.0937,1.45703 -0.0937,0.42578 -0.34765,0.71875 -0.25,0.29297 -0.67188,0.46875 -0.42187,0.17188 -1.10156,0.17188 -0.82031,0 -1.2461,-0.1875 -0.42187,-0.19141 -0.66796,-0.49219 -0.2461,-0.30469 -0.32422,-0.63672 -0.11328,-0.49219 -0.11328,-1.45313 z M 137.42773,160 v -4.75781 h -1.69921 v -0.96875 h 4.55078 v 0.96875 h -1.69532 V 160 Z"
     id="text13"
     style="font-weight:bold;font-size:8px;font-family:Arial;text-anchor:middle;fill:#ffffff"
     aria-label="OUT" />
  <!-- Thomas Section -->
  <rect
     x="20"
     y="180"
     width="337"
     height="75"
     fill="#2a2a2a"
     stroke="#44cc44"
     stroke-width="2"
     id="rect13" />
  <path
     d="m 32.572754,195 v -6.54199 h -2.336426 v -1.33203 h 6.257324 v 1.33203 H 34.162598 V 195 Z m 4.952148,0 v -7.87402 h 1.589844 v 3.09912 h 3.115234 v -3.09912 h 1.589844 V 195 H 42.22998 v -3.44287 H 39.114746 V 195 Z m 7.616211,-3.88867 q 0,-1.20313 0.359864,-2.01953 0.268554,-0.60157 0.730468,-1.07959 0.467285,-0.47803 1.020508,-0.70899 0.73584,-0.31152 1.697266,-0.31152 1.740234,0 2.782226,1.07959 1.047364,1.07959 1.047364,3.00244 0,1.90674 -1.036622,2.98633 -1.036621,1.07422 -2.771484,1.07422 -1.756348,0 -2.792969,-1.06885 -1.036621,-1.07422 -1.036621,-2.9541 z m 1.638184,-0.0537 q 0,1.3374 0.617676,2.03027 0.617675,0.6875 1.568359,0.6875 0.950684,0 1.557617,-0.68213 0.612305,-0.6875 0.612305,-2.05713 0,-1.35351 -0.596192,-2.01953 -0.59082,-0.66601 -1.57373,-0.66601 -0.98291,0 -1.584473,0.67675 -0.601562,0.67139 -0.601562,2.03028 z M 53.998047,195 v -7.87402 h 2.379394 l 1.428711,5.37109 1.412598,-5.37109 h 2.384766 V 195 h -1.477051 v -6.19824 L 58.563477,195 h -1.530762 l -1.557617,-6.19824 V 195 Z m 16.285156,0 h -1.729492 l -0.6875,-1.78857 H 64.71875 L 64.068848,195 h -1.686524 l 3.066895,-7.87402 h 1.681152 z m -2.927246,-3.11523 -1.084961,-2.92188 -1.063476,2.92188 z m 3.367676,0.55322 1.546875,-0.15039 q 0.139648,0.77881 0.563965,1.14404 0.429687,0.36523 1.154785,0.36523 0.768066,0 1.154785,-0.32226 0.39209,-0.32764 0.39209,-0.7627 0,-0.27929 -0.166504,-0.47265 -0.161133,-0.19873 -0.569336,-0.34375 -0.279297,-0.0967 -1.272949,-0.34375 -1.278321,-0.3169 -1.793946,-0.77881 -0.725097,-0.6499 -0.725097,-1.58447 0,-0.60157 0.338379,-1.12256 0.34375,-0.52637 0.98291,-0.8003 0.644531,-0.27392 1.552246,-0.27392 1.482422,0 2.229004,0.6499 0.751953,0.6499 0.789551,1.73486 l -1.589844,0.0698 q -0.102051,-0.60693 -0.44043,-0.87012 -0.333008,-0.26855 -1.004394,-0.26855 -0.692871,0 -1.084961,0.28467 -0.252442,0.18261 -0.252442,0.48876 0,0.2793 0.236328,0.47803 0.300782,0.25244 1.460938,0.52637 1.160156,0.27392 1.713379,0.56934 0.558594,0.29003 0.870117,0.80029 0.316895,0.50488 0.316895,1.25146 0,0.67676 -0.375977,1.26758 -0.375977,0.59082 -1.063477,0.88086 -0.6875,0.28467 -1.713378,0.28467 -1.493165,0 -2.293458,-0.6875 -0.800292,-0.69287 -0.956054,-2.01416 z"
     id="text14"
     style="font-weight:bold;font-size:11px;font-family:Arial;fill:#44cc44"
     aria-label="THOMAS" />
  <!-- Thomas Control Labels -->
  <path
     d="m 65.851807,210 v -5.01074 h 3.380371 v 0.59131 h -2.717285 v 1.55175 h 2.351562 v 0.59131 H 66.514893 V 210 Z m 4.251953,0 v -5.01074 h 2.221679 q 0.669922,0 1.018555,0.13672 0.348633,0.1333 0.557129,0.47509 0.208496,0.3418 0.208496,0.75538 0,0.5332 -0.345215,0.89892 -0.345215,0.36572 -1.066406,0.46484 0.263184,0.12647 0.399902,0.24952 0.290528,0.2666 0.550293,0.6665 L 74.519775,210 h -0.833984 l -0.663086,-1.04248 q -0.290527,-0.45117 -0.478516,-0.69043 -0.187988,-0.23926 -0.338378,-0.33496 -0.146973,-0.0957 -0.300782,-0.1333 -0.112793,-0.0239 -0.36914,-0.0239 H 70.766846 V 210 Z m 0.663086,-2.79932 h 1.425293 q 0.45459,0 0.710937,-0.0923 0.256348,-0.0957 0.389649,-0.30078 0.1333,-0.2085 0.1333,-0.45117 0,-0.35547 -0.259765,-0.58448 -0.256348,-0.229 -0.813477,-0.229 H 70.766846 Z M 75.162354,210 v -5.01074 H 78.7854 v 0.59131 h -2.959961 v 1.53466 h 2.771973 v 0.58789 h -2.771973 v 1.70557 h 3.076172 V 210 Z m 8.452636,-0.53662 q 0.461426,0.31787 0.851074,0.46484 l -0.194824,0.46143 q -0.540039,-0.19483 -1.07666,-0.61524 -0.557129,0.31104 -1.230469,0.31104 -0.680175,0 -1.233886,-0.32813 -0.553711,-0.32812 -0.854493,-0.92285 -0.297363,-0.59472 -0.297363,-1.33984 0,-0.7417 0.300781,-1.3501 0.300782,-0.6084 0.854493,-0.92627 0.557128,-0.31787 1.24414,-0.31787 0.693848,0 1.250977,0.33154 0.557129,0.32813 0.847656,0.92286 0.293945,0.5913 0.293945,1.33642 0,0.61865 -0.187988,1.11426 -0.187988,0.49219 -0.567383,0.85791 z m -1.459472,-0.84766 q 0.574218,0.16065 0.946777,0.47852 0.584473,-0.5332 0.584473,-1.60303 0,-0.6084 -0.208497,-1.06299 -0.205078,-0.45459 -0.60498,-0.7041 -0.396484,-0.25293 -0.89209,-0.25293 -0.741699,0 -1.230469,0.50928 -0.488769,0.50586 -0.488769,1.51416 0,0.97754 0.481933,1.50049 0.485352,0.52295 1.237305,0.52295 0.355469,0 0.669922,-0.1333 -0.311035,-0.20166 -0.65625,-0.28711 z"
     id="text15"
     style="font-size:7px;font-family:Arial;text-anchor:middle;fill:#ffffff"
     aria-label="FREQ" />
  <path
     d="m 131.25317,208.24316 0.66309,0.16748 q -0.2085,0.8169 -0.75195,1.24756 -0.54004,0.42725 -1.32276,0.42725 -0.81006,0 -1.31933,-0.32813 -0.50586,-0.33154 -0.77246,-0.95703 -0.26319,-0.62549 -0.26319,-1.34326 0,-0.78271 0.29737,-1.36377 0.30078,-0.58447 0.85107,-0.88525 0.55371,-0.3042 1.2168,-0.3042 0.75195,0 1.26465,0.38281 0.51269,0.38281 0.71435,1.07666 l -0.65283,0.15381 q -0.17432,-0.54688 -0.50586,-0.79639 -0.33154,-0.24951 -0.83399,-0.24951 -0.57763,0 -0.96728,0.27686 -0.38623,0.27685 -0.54346,0.74511 -0.15722,0.46485 -0.15722,0.96045 0,0.63916 0.18457,1.11768 0.18798,0.4751 0.58105,0.71094 0.39307,0.23584 0.85108,0.23584 0.55712,0 0.94335,-0.32129 0.38624,-0.32129 0.52295,-0.95362 z m 2.91211,1.75684 -1.9414,-5.01074 h 0.71777 l 1.30225,3.64013 q 0.15722,0.4375 0.26318,0.82032 0.11621,-0.41016 0.27002,-0.82032 l 1.35352,-3.64013 h 0.67675 L 134.84546,210 Z"
     id="text16"
     style="font-size:7px;font-family:Arial;text-anchor:middle;fill:#ffffff"
     aria-label="CV" />
  <path
     d="m 187.17822,210 v -5.01074 h 1.87989 q 0.57421,0 0.91943,0.15381 0.34863,0.15039 0.54346,0.46826 0.19824,0.31445 0.19824,0.65967 0,0.32129 -0.17432,0.60498 -0.17431,0.28369 -0.52637,0.458 0.45459,0.13331 0.69727,0.45459 0.24609,0.32129 0.24609,0.75879 0,0.35205 -0.15039,0.65625 -0.14697,0.30078 -0.36572,0.46485 -0.21875,0.16406 -0.55029,0.24951 -0.32813,0.082 -0.80664,0.082 z m 0.66309,-2.90527 h 1.08349 q 0.44092,0 0.63233,-0.0581 0.25293,-0.0752 0.37939,-0.24951 0.12989,-0.17432 0.12989,-0.4375 0,-0.24951 -0.11963,-0.4375 -0.11963,-0.19141 -0.3418,-0.25977 -0.22217,-0.0718 -0.76221,-0.0718 h -1.00146 z m 0,2.31396 h 1.24756 q 0.32129,0 0.45117,-0.0239 0.229,-0.041 0.38281,-0.13672 0.15381,-0.0957 0.25293,-0.27686 0.0991,-0.18457 0.0991,-0.42383 0,-0.28027 -0.14355,-0.48535 -0.14356,-0.20849 -0.3999,-0.29053 -0.25293,-0.0854 -0.73145,-0.0854 h -1.15869 z"
     id="text17"
     style="font-size:7px;font-family:Arial;text-anchor:middle;fill:#ffffff"
     aria-label="B" />
  <!-- Thomas Input Labels -->
  <path
     d="m 270.15771,210 v -4.29492 h 2.89747 v 0.50683 h -2.32911 v 1.33008 h 2.01563 v 0.50684 h -2.01563 V 210 Z m 3.64454,0 v -4.29492 h 1.90429 q 0.57422,0 0.87305,0.11719 0.29883,0.11425 0.47754,0.40722 0.17871,0.29297 0.17871,0.64746 0,0.45703 -0.2959,0.77051 -0.2959,0.31348 -0.91406,0.39844 0.22558,0.1084 0.34277,0.21387 0.24903,0.22851 0.47168,0.57128 L 277.5874,210 h -0.71484 l -0.56836,-0.89355 q -0.24902,-0.38672 -0.41016,-0.5918 -0.16113,-0.20508 -0.29004,-0.28711 -0.12597,-0.082 -0.25781,-0.11426 -0.0967,-0.0205 -0.3164,-0.0205 h -0.65918 V 210 Z m 0.56836,-2.39941 h 1.22168 q 0.38964,0 0.60937,-0.0791 0.21973,-0.082 0.33398,-0.25781 0.11426,-0.17871 0.11426,-0.38672 0,-0.30468 -0.22265,-0.50097 -0.21973,-0.19629 -0.69727,-0.19629 h -1.35937 z M 278.13818,210 v -4.29492 h 3.10547 v 0.50683 h -2.53711 v 1.31543 h 2.37598 v 0.50391 h -2.37598 v 1.46191 h 2.63672 V 210 Z m 7.24512,-0.45996 q 0.39551,0.27246 0.72949,0.39844 l -0.16699,0.3955 q -0.46289,-0.16699 -0.92285,-0.52734 -0.47754,0.2666 -1.05469,0.2666 -0.58301,0 -1.05762,-0.28125 -0.4746,-0.28125 -0.73242,-0.79101 -0.25488,-0.50977 -0.25488,-1.14844 0,-0.63574 0.25781,-1.15723 0.25781,-0.52148 0.73242,-0.79394 0.47754,-0.27246 1.06641,-0.27246 0.59473,0 1.07227,0.28418 0.47754,0.28125 0.72656,0.79101 0.25195,0.50684 0.25195,1.14551 0,0.53027 -0.16113,0.95508 -0.16113,0.42187 -0.48633,0.73535 z m -1.25098,-0.72656 q 0.49219,0.13769 0.81153,0.41015 0.50097,-0.45703 0.50097,-1.37402 0,-0.52149 -0.17871,-0.91113 -0.17578,-0.38965 -0.51855,-0.60352 -0.33985,-0.2168 -0.76465,-0.2168 -0.63574,0 -1.05469,0.43653 -0.41894,0.43359 -0.41894,1.29785 0,0.83789 0.41308,1.28613 0.41602,0.44824 1.06055,0.44824 0.30469,0 0.57422,-0.11425 -0.2666,-0.17286 -0.5625,-0.2461 z m 7.39454,-0.31934 0.56835,0.14356 q -0.17871,0.70019 -0.64453,1.06933 -0.46289,0.36621 -1.13379,0.36621 -0.69433,0 -1.13085,-0.28125 -0.4336,-0.28418 -0.66211,-0.82031 -0.22559,-0.53613 -0.22559,-1.15137 0,-0.6709 0.25488,-1.16894 0.25782,-0.50098 0.72949,-0.75879 0.47461,-0.26074 1.04297,-0.26074 0.64453,0 1.08399,0.32812 0.43945,0.32813 0.6123,0.92285 l -0.55957,0.13184 q -0.14941,-0.46875 -0.43359,-0.68262 -0.28418,-0.21387 -0.71485,-0.21387 -0.49511,0 -0.8291,0.23731 -0.33105,0.2373 -0.46582,0.63867 -0.13476,0.39844 -0.13476,0.82324 0,0.54785 0.1582,0.95801 0.16113,0.40723 0.49805,0.60938 0.33691,0.20214 0.72949,0.20214 0.47754,0 0.80859,-0.27539 0.33106,-0.27539 0.44825,-0.81738 z m 2.49609,1.50586 -1.66406,-4.29492 h 0.61523 l 1.11621,3.12012 q 0.13477,0.375 0.22559,0.70312 0.0996,-0.35156 0.23144,-0.70312 l 1.16016,-3.12012 h 0.58008 L 294.60596,210 Z"
     id="text18"
     style="font-size:6px;font-family:Arial;text-anchor:middle;fill:#aaaaaa"
     aria-label="FREQ CV" />
  <path
     d="m 333.4375,210 v -4.29492 h 1.61133 q 0.49219,0 0.78808,0.13183 0.29883,0.12891 0.46582,0.40137 0.16993,0.26953 0.16993,0.56543 0,0.27539 -0.14942,0.51856 -0.14941,0.24316 -0.45117,0.39257 0.38965,0.11426 0.59766,0.38965 0.21093,0.27539 0.21093,0.65039 0,0.30176 -0.1289,0.5625 -0.12598,0.25782 -0.31348,0.39844 -0.1875,0.14063 -0.47168,0.21387 Q 335.48535,210 335.0752,210 Z m 0.56836,-2.49023 h 0.92871 q 0.37793,0 0.54199,-0.0498 0.2168,-0.0644 0.3252,-0.21387 0.11133,-0.14941 0.11133,-0.375 0,-0.21386 -0.10254,-0.375 -0.10254,-0.16406 -0.29297,-0.22265 -0.19043,-0.0615 -0.65332,-0.0615 h -0.8584 z m 0,1.98339 h 1.06934 q 0.27539,0 0.38671,-0.0205 0.19629,-0.0352 0.32813,-0.11719 0.13183,-0.082 0.2168,-0.23731 0.085,-0.1582 0.085,-0.36328 0,-0.24023 -0.12305,-0.41601 -0.12305,-0.17871 -0.34277,-0.24903 -0.2168,-0.0732 -0.62696,-0.0732 h -0.99316 z m 8.18848,-0.99902 0.56836,0.14356 q -0.17872,0.70019 -0.64454,1.06933 -0.46289,0.36621 -1.13379,0.36621 -0.69433,0 -1.13085,-0.28125 -0.4336,-0.28418 -0.66211,-0.82031 -0.22559,-0.53613 -0.22559,-1.15137 0,-0.6709 0.25488,-1.16894 0.25782,-0.50098 0.7295,-0.75879 0.4746,-0.26074 1.04296,-0.26074 0.64454,0 1.08399,0.32812 0.43945,0.32813 0.6123,0.92285 l -0.55957,0.13184 q -0.14941,-0.46875 -0.43359,-0.68262 -0.28418,-0.21387 -0.71484,-0.21387 -0.49512,0 -0.82911,0.23731 -0.33105,0.2373 -0.46582,0.63867 -0.13476,0.39844 -0.13476,0.82324 0,0.54785 0.1582,0.95801 0.16113,0.40723 0.49805,0.60938 0.33691,0.20214 0.72949,0.20214 0.47754,0 0.80859,-0.27539 0.33106,-0.27539 0.44825,-0.81738 z m 2.49609,1.50586 -1.66406,-4.29492 h 0.61523 l 1.11621,3.12012 q 0.13477,0.375 0.22559,0.70312 0.0996,-0.35156 0.23144,-0.70312 l 1.16016,-3.12012 h 0.58008 L 345.27344,210 Z"
     id="text19"
     style="font-size:6px;font-family:Arial;text-anchor:middle;fill:#aaaaaa"
     aria-label="B CV" />
  <!-- Thomas Output -->
  <path
     d="m 123.9043,242.17187 q 0,-0.875 0.26172,-1.46875 0.19531,-0.4375 0.53125,-0.78515 0.33984,-0.34766 0.74218,-0.51563 0.53516,-0.22656 1.23438,-0.22656 1.26562,0 2.02344,0.78516 0.76171,0.78515 0.76171,2.18359 0,1.38672 -0.7539,2.17188 -0.75391,0.78125 -2.01563,0.78125 -1.27734,0 -2.03125,-0.77735 -0.7539,-0.78125 -0.7539,-2.14844 z m 1.1914,-0.0391 q 0,0.97266 0.44922,1.47656 0.44922,0.5 1.14063,0.5 0.6914,0 1.13281,-0.49609 0.44531,-0.5 0.44531,-1.49609 0,-0.98438 -0.43359,-1.46875 -0.42969,-0.48438 -1.14453,-0.48438 -0.71485,0 -1.15235,0.49219 -0.4375,0.48828 -0.4375,1.47656 z m 5.25782,-2.85937 h 1.15625 v 3.10156 q 0,0.73828 0.043,0.95703 0.0742,0.35156 0.35157,0.56641 0.28125,0.21093 0.76562,0.21093 0.49219,0 0.74219,-0.19921 0.25,-0.20313 0.30078,-0.4961 0.0508,-0.29297 0.0508,-0.97265 v -3.16797 h 1.15625 v 3.00781 q 0,1.03125 -0.0937,1.45703 -0.0937,0.42578 -0.34765,0.71875 -0.25,0.29297 -0.67188,0.46875 -0.42187,0.17188 -1.10156,0.17188 -0.82031,0 -1.2461,-0.1875 -0.42187,-0.19141 -0.66796,-0.49219 -0.2461,-0.30469 -0.32422,-0.63672 -0.11328,-0.49219 -0.11328,-1.45313 z M 137.42773,245 v -4.75781 h -1.69921 v -0.96875 h 4.55078 v 0.96875 h -1.69532 V 245 Z"
     id="text20"
     style="font-weight:bold;font-size:8px;font-family:Arial;text-anchor:middle;fill:#ffffff"
     aria-label="OUT" />
  <!-- Rössler Section -->
  <rect
     x="20"
     y="265"
     width="337"
     height="75"
     fill="#2a2a2a"
     stroke="#4444cc"
     stroke-width="2"
     id="rect20" />
  <path
     d="m 30.805664,280 v -7.87402 h 3.346191 q 1.262207,0 1.831543,0.21484 0.574707,0.20947 0.918457,0.75195 0.34375,0.54248 0.34375,1.24073 0,0.88623 -0.520996,1.4663 -0.520996,0.57471 -1.557617,0.7251 0.515625,0.30078 0.848633,0.66065 0.338379,0.35986 0.907715,1.27832 L 37.884766,280 h -1.901368 l -1.149414,-1.71338 q -0.612304,-0.91846 -0.83789,-1.15478 -0.225586,-0.2417 -0.478028,-0.32764 -0.252441,-0.0913 -0.800293,-0.0913 H 32.395508 V 280 Z m 1.589844,-4.54395 h 1.176269 q 1.144043,0 1.428711,-0.0967 0.284668,-0.0967 0.445801,-0.333 0.161133,-0.23633 0.161133,-0.59082 0,-0.39746 -0.214844,-0.63916 -0.209473,-0.24707 -0.596191,-0.31153 -0.19336,-0.0269 -1.160157,-0.0269 h -1.240722 z m 6.026367,0.65528 q 0,-1.20313 0.359863,-2.01953 0.268555,-0.60157 0.730469,-1.07959 0.467285,-0.47803 1.020508,-0.70899 0.73584,-0.31152 1.697265,-0.31152 1.740235,0 2.782227,1.07959 1.047363,1.07959 1.047363,3.00244 0,1.90674 -1.036621,2.98633 -1.036621,1.07422 -2.771484,1.07422 -1.756348,0 -2.792969,-1.06885 -1.036621,-1.07422 -1.036621,-2.9541 z m 1.638184,-0.0537 q 0,1.3374 0.617675,2.03027 0.617676,0.6875 1.56836,0.6875 0.950683,0 1.557617,-0.68213 0.612305,-0.6875 0.612305,-2.05713 0,-1.35351 -0.596192,-2.01953 -0.59082,-0.66601 -1.57373,-0.66601 -0.98291,0 -1.584473,0.67675 -0.601562,0.67139 -0.601562,2.03028 z m 0.284668,-4.38282 v -1.29443 h 1.294433 v 1.29443 z m 2.30957,0 v -1.29443 h 1.299805 v 1.29443 z m 4.243164,5.76319 1.546875,-0.15039 q 0.139648,0.77881 0.563965,1.14404 0.429687,0.36523 1.154785,0.36523 0.768066,0 1.154785,-0.32226 0.39209,-0.32764 0.39209,-0.7627 0,-0.27929 -0.166504,-0.47265 -0.161133,-0.19873 -0.569336,-0.34375 -0.279297,-0.0967 -1.272949,-0.34375 -1.27832,-0.3169 -1.793945,-0.77881 -0.725098,-0.6499 -0.725098,-1.58447 0,-0.60157 0.338379,-1.12256 0.34375,-0.52637 0.98291,-0.8003 0.644531,-0.27392 1.552246,-0.27392 1.482422,0 2.229004,0.6499 0.751953,0.6499 0.789551,1.73486 l -1.589844,0.0698 q -0.102051,-0.60693 -0.44043,-0.87012 -0.333008,-0.26855 -1.004394,-0.26855 -0.692871,0 -1.084961,0.28467 -0.252442,0.18261 -0.252442,0.48876 0,0.2793 0.236329,0.47803 0.300781,0.25244 1.460937,0.52637 1.160156,0.27392 1.713379,0.56934 0.558594,0.29003 0.870117,0.80029 0.316895,0.50488 0.316895,1.25146 0,0.67676 -0.375977,1.26758 -0.375976,0.59082 -1.063476,0.88086 -0.6875,0.28467 -1.713379,0.28467 -1.493164,0 -2.293457,-0.6875 -0.800293,-0.69287 -0.956055,-2.01416 z m 7.336914,0 1.546875,-0.15039 q 0.139648,0.77881 0.563965,1.14404 0.429687,0.36523 1.154785,0.36523 0.768066,0 1.154785,-0.32226 0.39209,-0.32764 0.39209,-0.7627 0,-0.27929 -0.166504,-0.47265 -0.161133,-0.19873 -0.569336,-0.34375 -0.279297,-0.0967 -1.272949,-0.34375 -1.27832,-0.3169 -1.793945,-0.77881 -0.725098,-0.6499 -0.725098,-1.58447 0,-0.60157 0.338379,-1.12256 0.34375,-0.52637 0.98291,-0.8003 0.644531,-0.27392 1.552246,-0.27392 1.482422,0 2.229004,0.6499 0.751953,0.6499 0.789551,1.73486 l -1.589844,0.0698 q -0.102051,-0.60693 -0.44043,-0.87012 -0.333007,-0.26855 -1.004394,-0.26855 -0.692871,0 -1.084961,0.28467 -0.252442,0.18261 -0.252442,0.48876 0,0.2793 0.236329,0.47803 0.300781,0.25244 1.460937,0.52637 1.160156,0.27392 1.713379,0.56934 0.558594,0.29003 0.870117,0.80029 0.316895,0.50488 0.316895,1.25146 0,0.67676 -0.375977,1.26758 -0.375976,0.59082 -1.063476,0.88086 -0.6875,0.28467 -1.713379,0.28467 -1.493164,0 -2.293457,-0.6875 -0.800293,-0.69287 -0.956055,-2.01416 z M 62.01709,280 v -7.80957 h 1.589844 v 6.48291 h 3.953125 V 280 Z m 6.676269,0 v -7.87402 h 5.838379 v 1.33203 h -4.248535 v 1.7456 h 3.953125 v 1.32666 h -3.953125 v 2.14307 h 4.398926 V 280 Z m 7.342286,0 v -7.87402 h 3.346191 q 1.262207,0 1.831543,0.21484 0.574707,0.20947 0.918457,0.75195 0.34375,0.54248 0.34375,1.24073 0,0.88623 -0.520996,1.4663 -0.520996,0.57471 -1.557617,0.7251 0.515625,0.30078 0.848632,0.66065 0.338379,0.35986 0.907715,1.27832 L 83.114746,280 h -1.901367 l -1.149414,-1.71338 q -0.612305,-0.91846 -0.837891,-1.15478 -0.225586,-0.2417 -0.478027,-0.32764 -0.252442,-0.0913 -0.800293,-0.0913 H 77.625488 V 280 Z m 1.589843,-4.54395 h 1.17627 q 1.144043,0 1.428711,-0.0967 0.284668,-0.0967 0.445801,-0.333 0.161132,-0.23633 0.161132,-0.59082 0,-0.39746 -0.214843,-0.63916 -0.209473,-0.24707 -0.596192,-0.31153 -0.193359,-0.0269 -1.160156,-0.0269 h -1.240723 z"
     id="text21"
     style="font-weight:bold;font-size:11px;font-family:Arial;fill:#4444cc"
     aria-label="RÖSSLER" />
  <!-- Rössler Control Labels -->
  <path
     d="m 65.851807,295 v -5.01074 h 3.380371 v 0.59131 h -2.717285 v 1.55175 h 2.351562 v 0.59131 H 66.514893 V 295 Z m 4.251953,0 v -5.01074 h 2.221679 q 0.669922,0 1.018555,0.13672 0.348633,0.1333 0.557129,0.47509 0.208496,0.3418 0.208496,0.75538 0,0.5332 -0.345215,0.89892 -0.345215,0.36572 -1.066406,0.46484 0.263184,0.12647 0.399902,0.24952 0.290528,0.2666 0.550293,0.6665 L 74.519775,295 h -0.833984 l -0.663086,-1.04248 q -0.290527,-0.45117 -0.478516,-0.69043 -0.187988,-0.23926 -0.338378,-0.33496 -0.146973,-0.0957 -0.300782,-0.1333 -0.112793,-0.0239 -0.36914,-0.0239 H 70.766846 V 295 Z m 0.663086,-2.79932 h 1.425293 q 0.45459,0 0.710937,-0.0923 0.256348,-0.0957 0.389649,-0.30078 0.1333,-0.2085 0.1333,-0.45117 0,-0.35547 -0.259765,-0.58448 -0.256348,-0.229 -0.813477,-0.229 H 70.766846 Z M 75.162354,295 v -5.01074 H 78.7854 v 0.59131 h -2.959961 v 1.53466 h 2.771973 v 0.58789 h -2.771973 v 1.70557 h 3.076172 V 295 Z m 8.452636,-0.53662 q 0.461426,0.31787 0.851074,0.46484 l -0.194824,0.46143 q -0.540039,-0.19483 -1.07666,-0.61524 -0.557129,0.31104 -1.230469,0.31104 -0.680175,0 -1.233886,-0.32813 -0.553711,-0.32812 -0.854493,-0.92285 -0.297363,-0.59472 -0.297363,-1.33984 0,-0.7417 0.300781,-1.3501 0.300782,-0.6084 0.854493,-0.92627 0.557128,-0.31787 1.24414,-0.31787 0.693848,0 1.250977,0.33154 0.557129,0.32813 0.847656,0.92286 0.293945,0.5913 0.293945,1.33642 0,0.61865 -0.187988,1.11426 -0.187988,0.49219 -0.567383,0.85791 z m -1.459472,-0.84766 q 0.574218,0.16065 0.946777,0.47852 0.584473,-0.5332 0.584473,-1.60303 0,-0.6084 -0.208497,-1.06299 -0.205078,-0.45459 -0.60498,-0.7041 -0.396484,-0.25293 -0.89209,-0.25293 -0.741699,0 -1.230469,0.50928 -0.488769,0.50586 -0.488769,1.51416 0,0.97754 0.481933,1.50049 0.485352,0.52295 1.237305,0.52295 0.355469,0 0.669922,-0.1333 -0.311035,-0.20166 -0.65625,-0.28711 z"
     id="text22"
     style="font-size:7px;font-family:Arial;text-anchor:middle;fill:#ffffff"
     aria-label="FREQ" />
  <path
     d="m 131.25317,293.24316 0.66309,0.16748 q -0.2085,0.8169 -0.75195,1.24756 -0.54004,0.42725 -1.32276,0.42725 -0.81006,0 -1.31933,-0.32813 -0.50586,-0.33154 -0.77246,-0.95703 -0.26319,-0.62549 -0.26319,-1.34326 0,-0.78271 0.29737,-1.36377 0.30078,-0.58447 0.85107,-0.88525 0.55371,-0.3042 1.2168,-0.3042 0.75195,0 1.26465,0.38281 0.51269,0.38281 0.71435,1.07666 l -0.65283,0.15381 q -0.17432,-0.54688 -0.50586,-0.79639 -0.33154,-0.24951 -0.83399,-0.24951 -0.57763,0 -0.96728,0.27686 -0.38623,0.27685 -0.54346,0.74511 -0.15722,0.46485 -0.15722,0.96045 0,0.63916 0.18457,1.11768 0.18798,0.4751 0.58105,0.71094 0.39307,0.23584 0.85108,0.23584 0.55712,0 0.94335,-0.32129 0.38624,-0.32129 0.52295,-0.95362 z m 2.91211,1.75684 -1.9414,-5.01074 h 0.71777 l 1.30225,3.64013 q 0.15722,0.4375 0.26318,0.82032 0.11621,-0.41016 0.27002,-0.82032 l 1.35352,-3.64013 h 0.67675 L 134.84546,295 Z"
     id="text23"
     style="font-size:7px;font-family:Arial;text-anchor:middle;fill:#ffffff"
     aria-label="CV" />
  <path
     d="m 186.65527,295 1.92432,-5.01074 h 0.71436 L 191.34473,295 h -0.75537 l -0.58448,-1.51758 h -2.09521 L 187.35937,295 Z m 1.4458,-2.05762 h 1.69873 l -0.52294,-1.38769 q -0.23926,-0.63233 -0.35547,-1.03907 -0.0957,0.48194 -0.27002,0.95704 z"
     id="text24"
     style="font-size:7px;font-family:Arial;text-anchor:middle;fill:#ffffff"
     aria-label="A" />
  <!-- Rössler Input Labels -->
  <path
     d="m 270.15771,295 v -4.29492 h 2.89747 v 0.50683 h -2.32911 v 1.33008 h 2.01563 v 0.50684 h -2.01563 V 295 Z m 3.64454,0 v -4.29492 h 1.90429 q 0.57422,0 0.87305,0.11719 0.29883,0.11425 0.47754,0.40722 0.17871,0.29297 0.17871,0.64746 0,0.45703 -0.2959,0.77051 -0.2959,0.31348 -0.91406,0.39844 0.22558,0.1084 0.34277,0.21387 0.24903,0.22851 0.47168,0.57128 L 277.5874,295 h -0.71484 l -0.56836,-0.89355 q -0.24902,-0.38672 -0.41016,-0.5918 -0.16113,-0.20508 -0.29004,-0.28711 -0.12597,-0.082 -0.25781,-0.11426 -0.0967,-0.0205 -0.3164,-0.0205 h -0.65918 V 295 Z m 0.56836,-2.39941 h 1.22168 q 0.38964,0 0.60937,-0.0791 0.21973,-0.082 0.33398,-0.25781 0.11426,-0.17871 0.11426,-0.38672 0,-0.30468 -0.22265,-0.50097 -0.21973,-0.19629 -0.69727,-0.19629 h -1.35937 z M 278.13818,295 v -4.29492 h 3.10547 v 0.50683 h -2.53711 v 1.31543 h 2.37598 v 0.50391 h -2.37598 v 1.46191 h 2.63672 V 295 Z m 7.24512,-0.45996 q 0.39551,0.27246 0.72949,0.39844 l -0.16699,0.3955 q -0.46289,-0.16699 -0.92285,-0.52734 -0.47754,0.2666 -1.05469,0.2666 -0.58301,0 -1.05762,-0.28125 -0.4746,-0.28125 -0.73242,-0.79101 -0.25488,-0.50977 -0.25488,-1.14844 0,-0.63574 0.25781,-1.15723 0.25781,-0.52148 0.73242,-0.79394 0.47754,-0.27246 1.06641,-0.27246 0.59473,0 1.07227,0.28418 0.47754,0.28125 0.72656,0.79101 0.25195,0.50684 0.25195,1.14551 0,0.53027 -0.16113,0.95508 -0.16113,0.42187 -0.48633,0.73535 z m -1.25098,-0.72656 q 0.49219,0.13769 0.81153,0.41015 0.50097,-0.45703 0.50097,-1.37402 0,-0.52149 -0.17871,-0.91113 -0.17578,-0.38965 -0.51855,-0.60352 -0.33985,-0.2168 -0.76465,-0.2168 -0.63574,0 -1.05469,0.43653 -0.41894,0.43359 -0.41894,1.29785 0,0.83789 0.41308,1.28613 0.41602,0.44824 1.06055,0.44824 0.30469,0 0.57422,-0.11425 -0.2666,-0.17286 -0.5625,-0.2461 z m 7.39454,-0.31934 0.56835,0.14356 q -0.17871,0.70019 -0.64453,1.06933 -0.46289,0.36621 -1.13379,0.36621 -0.69433,0 -1.13085,-0.28125 -0.4336,-0.28418 -0.66211,-0.82031 -0.22559,-0.53613 -0.22559,-1.15137 0,-0.6709 0.25488,-1.16894 0.25782,-0.50098 0.72949,-0.75879 0.47461,-0.26074 1.04297,-0.26074 0.64453,0 1.08399,0.32812 0.43945,0.32813 0.6123,0.92285 l -0.55957,0.13184 q -0.14941,-0.46875 -0.43359,-0.68262 -0.28418,-0.21387 -0.71485,-0.21387 -0.49511,0 -0.8291,0.23731 -0.33105,0.2373 -0.46582,0.63867 -0.13476,0.39844 -0.13476,0.82324 0,0.54785 0.1582,0.95801 0.16113,0.40723 0.49805,0.60938 0.33691,0.20214 0.72949,0.20214 0.47754,0 0.80859,-0.27539 0.33106,-0.27539 0.44825,-0.81738 z m 2.49609,1.50586 -1.66406,-4.29492 h 0.61523 l 1.11621,3.12012 q 0.13477,0.375 0.22559,0.70312 0.0996,-0.35156 0.23144,-0.70312 l 1.16016,-3.12012 h 0.58008 L 294.60596,295 Z"
     id="text25"
     style="font-size:6px;font-family:Arial;text-anchor:middle;fill:#aaaaaa"
     aria-label="FREQ CV" />
  <path
     d="m 333.15479,295 1.64941,-4.29492 h 0.6123 L 337.17432,295 h -0.64746 l -0.50098,-1.30078 h -1.7959 L 333.7583,295 Z m 1.23925,-1.76367 h 1.45606 l -0.44824,-1.18946 q -0.20508,-0.54199 -0.30469,-0.89062 -0.082,0.41309 -0.23145,0.82031 z m 7.63477,0.25781 0.56836,0.14356 q -0.17871,0.70019 -0.64453,1.06933 -0.46289,0.36621 -1.13379,0.36621 -0.69434,0 -1.13086,-0.28125 -0.4336,-0.28418 -0.66211,-0.82031 -0.22559,-0.53613 -0.22559,-1.15137 0,-0.6709 0.25489,-1.16894 0.25781,-0.50098 0.72949,-0.75879 0.47461,-0.26074 1.04297,-0.26074 0.64453,0 1.08398,0.32812 0.43945,0.32813 0.61231,0.92285 l -0.55957,0.13184 q -0.14942,-0.46875 -0.4336,-0.68262 -0.28418,-0.21387 -0.71484,-0.21387 -0.49512,0 -0.8291,0.23731 -0.33106,0.2373 -0.46582,0.63867 -0.13477,0.39844 -0.13477,0.82324 0,0.54785 0.1582,0.95801 0.16114,0.40723 0.49805,0.60938 0.33691,0.20214 0.72949,0.20214 0.47754,0 0.8086,-0.27539 0.33105,-0.27539 0.44824,-0.81738 z M 344.5249,295 l -1.66406,-4.29492 h 0.61523 l 1.11622,3.12012 q 0.13476,0.375 0.22558,0.70312 0.0996,-0.35156 0.23145,-0.70312 l 1.16015,-3.12012 h 0.58008 L 345.10791,295 Z"
     id="text26"
     style="font-size:6px;font-family:Arial;text-anchor:middle;fill:#aaaaaa"
     aria-label="A CV" />
  <!-- Rössler Output -->
  <path
     d="m 123.9043,327.17187 q 0,-0.875 0.26172,-1.46875 0.19531,-0.4375 0.53125,-0.78515 0.33984,-0.34766 0.74218,-0.51563 0.53516,-0.22656 1.23438,-0.22656 1.26562,0 2.02344,0.78516 0.76171,0.78515 0.76171,2.18359 0,1.38672 -0.7539,2.17188 -0.75391,0.78125 -2.01563,0.78125 -1.27734,0 -2.03125,-0.77735 -0.7539,-0.78125 -0.7539,-2.14844 z m 1.1914,-0.0391 q 0,0.97266 0.44922,1.47656 0.44922,0.5 1.14063,0.5 0.6914,0 1.13281,-0.49609 0.44531,-0.5 0.44531,-1.49609 0,-0.98438 -0.43359,-1.46875 -0.42969,-0.48438 -1.14453,-0.48438 -0.71485,0 -1.15235,0.49219 -0.4375,0.48828 -0.4375,1.47656 z m 5.25782,-2.85937 h 1.15625 v 3.10156 q 0,0.73828 0.043,0.95703 0.0742,0.35156 0.35157,0.56641 0.28125,0.21093 0.76562,0.21093 0.49219,0 0.74219,-0.19921 0.25,-0.20313 0.30078,-0.4961 0.0508,-0.29297 0.0508,-0.97265 v -3.16797 h 1.15625 v 3.00781 q 0,1.03125 -0.0937,1.45703 -0.0937,0.42578 -0.34765,0.71875 -0.25,0.29297 -0.67188,0.46875 -0.42187,0.17188 -1.10156,0.17188 -0.82031,0 -1.2461,-0.1875 -0.42187,-0.19141 -0.66796,-0.49219 -0.2461,-0.30469 -0.32422,-0.63672 -0.11328,-0.49219 -0.11328,-1.45313 z M 137.42773,330 v -4.75781 h -1.69921 v -0.96875 h 4.55078 v 0.96875 h -1.69532 V 330 Z"
     id="text27"
     style="font-weight:bold;font-size:8px;font-family:Arial;text-anchor:middle;fill:#ffffff"
     aria-label="OUT" />
  <!-- Chen Section -->
  <rect
     x="20"
     y="350"
     width="337"
     height="75"
     fill="#2a2a2a"
     stroke="#cccc44"
     stroke-width="2"
     id="rect27" />
  <path
     d="m 35.838379,362.10498 1.541504,0.48877 q -0.354492,1.28906 -1.181641,1.91748 -0.821777,0.62305 -2.089355,0.62305 -1.56836,0 -2.578125,-1.06885 -1.009766,-1.07422 -1.009766,-2.93262 0,-1.96582 1.015137,-3.05078 1.015137,-1.09033 2.669433,-1.09033 1.444825,0 2.347168,0.854 0.53711,0.50489 0.805664,1.4502 l -1.57373,0.37597 q -0.139648,-0.6123 -0.585449,-0.96679 -0.44043,-0.35449 -1.074219,-0.35449 -0.875488,0 -1.42334,0.62841 -0.54248,0.62842 -0.54248,2.03565 0,1.49316 0.537109,2.12695 0.537109,0.63379 1.396484,0.63379 0.633789,0 1.090332,-0.40283 0.456543,-0.40283 0.655274,-1.26758 z M 38.749512,365 v -7.87402 h 1.589843 v 3.09912 h 3.115235 v -3.09912 h 1.589844 V 365 H 43.45459 v -3.44287 H 40.339355 V 365 Z m 7.938476,0 v -7.87402 h 5.838379 v 1.33203 h -4.248535 v 1.7456 h 3.953125 v 1.32666 h -3.953125 v 2.14307 h 4.398926 V 365 Z m 7.353028,0 v -7.87402 h 1.546875 l 3.222656,5.2583 v -5.2583 h 1.477051 V 365 h -1.595215 l -3.174317,-5.13477 V 365 Z"
     id="text28"
     style="font-weight:bold;font-size:11px;font-family:Arial;fill:#cccc44"
     aria-label="CHEN" />
  <!-- Chen Control Labels -->
  <path
     d="m 65.851807,380 v -5.01074 h 3.380371 v 0.59131 h -2.717285 v 1.55175 h 2.351562 v 0.59131 H 66.514893 V 380 Z m 4.251953,0 v -5.01074 h 2.221679 q 0.669922,0 1.018555,0.13672 0.348633,0.1333 0.557129,0.47509 0.208496,0.3418 0.208496,0.75538 0,0.5332 -0.345215,0.89892 -0.345215,0.36572 -1.066406,0.46484 0.263184,0.12647 0.399902,0.24952 0.290528,0.2666 0.550293,0.6665 L 74.519775,380 h -0.833984 l -0.663086,-1.04248 q -0.290527,-0.45117 -0.478516,-0.69043 -0.187988,-0.23926 -0.338378,-0.33496 -0.146973,-0.0957 -0.300782,-0.1333 -0.112793,-0.0239 -0.36914,-0.0239 H 70.766846 V 380 Z m 0.663086,-2.79932 h 1.425293 q 0.45459,0 0.710937,-0.0923 0.256348,-0.0957 0.389649,-0.30078 0.1333,-0.2085 0.1333,-0.45117 0,-0.35547 -0.259765,-0.58448 -0.256348,-0.229 -0.813477,-0.229 H 70.766846 Z M 75.162354,380 v -5.01074 H 78.7854 v 0.59131 h -2.959961 v 1.53466 h 2.771973 v 0.58789 h -2.771973 v 1.70557 h 3.076172 V 380 Z m 8.452636,-0.53662 q 0.461426,0.31787 0.851074,0.46484 l -0.194824,0.46143 q -0.540039,-0.19483 -1.07666,-0.61524 -0.557129,0.31104 -1.230469,0.31104 -0.680175,0 -1.233886,-0.32813 -0.553711,-0.32812 -0.854493,-0.92285 -0.297363,-0.59472 -0.297363,-1.33984 0,-0.7417 0.300781,-1.3501 0.300782,-0.6084 0.854493,-0.92627 0.557128,-0.31787 1.24414,-0.31787 0.693848,0 1.250977,0.33154 0.557129,0.32813 0.847656,0.92286 0.293945,0.5913 0.293945,1.33642 0,0.61865 -0.187988,1.11426 -0.187988,0.49219 -0.567383,0.85791 z m -1.459472,-0.84766 q 0.574218,0.16065 0.946777,0.47852 0.584473,-0.5332 0.584473,-1.60303 0,-0.6084 -0.208497,-1.06299 -0.205078,-0.45459 -0.60498,-0.7041 -0.396484,-0.25293 -0.89209,-0.25293 -0.741699,0 -1.230469,0.50928 -0.488769,0.50586 -0.488769,1.51416 0,0.97754 0.481933,1.50049 0.485352,0.52295 1.237305,0.52295 0.355469,0 0.669922,-0.1333 -0.311035,-0.20166 -0.65625,-0.28711 z"
     id="text29"
     style="font-size:7px;font-family:Arial;text-anchor:middle;fill:#ffffff"
     aria-label="FREQ" />
  <path
     d="m 131.25317,378.24316 0.66309,0.16748 q -0.2085,0.8169 -0.75195,1.24756 -0.54004,0.42725 -1.32276,0.42725 -0.81006,0 -1.31933,-0.32813 -0.50586,-0.33154 -0.77246,-0.95703 -0.26319,-0.62549 -0.26319,-1.34326 0,-0.78271 0.29737,-1.36377 0.30078,-0.58447 0.85107,-0.88525 0.55371,-0.3042 1.2168,-0.3042 0.75195,0 1.26465,0.38281 0.51269,0.38281 0.71435,1.07666 l -0.65283,0.15381 q -0.17432,-0.54688 -0.50586,-0.79639 -0.33154,-0.24951 -0.83399,-0.24951 -0.57763,0 -0.96728,0.27686 -0.38623,0.27685 -0.54346,0.74511 -0.15722,0.46485 -0.15722,0.96045 0,0.63916 0.18457,1.11768 0.18798,0.4751 0.58105,0.71094 0.39307,0.23584 0.85108,0.23584 0.55712,0 0.94335,-0.32129 0.38624,-0.32129 0.52295,-0.95362 z m 2.91211,1.75684 -1.9414,-5.01074 h 0.71777 l 1.30225,3.64013 q 0.15722,0.4375 0.26318,0.82032 0.11621,-0.41016 0.27002,-0.82032 l 1.35352,-3.64013 h 0.67675 L 134.84546,380 Z"
     id="text30"
     style="font-size:7px;font-family:Arial;text-anchor:middle;fill:#ffffff"
     aria-label="CV" />
  <path
     d="m 186.65527,380 1.92432,-5.01074 h 0.71436 L 191.34473,380 h -0.75537 l -0.58448,-1.51758 h -2.09521 L 187.35937,380 Z m 1.4458,-2.05762 h 1.69873 l -0.52294,-1.38769 q -0.23926,-0.63233 -0.35547,-1.03907 -0.0957,0.48194 -0.27002,0.95704 z"
     id="text31"
     style="font-size:7px;font-family:Arial;text-anchor:middle;fill:#ffffff"
     aria-label="A" />
  <!-- Chen Input Labels -->
  <path
     d="m 270.15771,380 v -4.29492 h 2.89747 v 0.50683 h -2.32911 v 1.33008 h 2.01563 v 0.50684 h -2.01563 V 380 Z m 3.64454,0 v -4.29492 h 1.90429 q 0.57422,0 0.87305,0.11719 0.29883,0.11425 0.47754,0.40722 0.17871,0.29297 0.17871,0.64746 0,0.45703 -0.2959,0.77051 -0.2959,0.31348 -0.91406,0.39844 0.22558,0.1084 0.34277,0.21387 0.24903,0.22851 0.47168,0.57128 L 277.5874,380 h -0.71484 l -0.56836,-0.89355 q -0.24902,-0.38672 -0.41016,-0.5918 -0.16113,-0.20508 -0.29004,-0.28711 -0.12597,-0.082 -0.25781,-0.11426 -0.0967,-0.0205 -0.3164,-0.0205 h -0.65918 V 380 Z m 0.56836,-2.39941 h 1.22168 q 0.38964,0 0.60937,-0.0791 0.21973,-0.082 0.33398,-0.25781 0.11426,-0.17871 0.11426,-0.38672 0,-0.30468 -0.22265,-0.50097 -0.21973,-0.19629 -0.69727,-0.19629 h -1.35937 z M 278.13818,380 v -4.29492 h 3.10547 v 0.50683 h -2.53711 v 1.31543 h 2.37598 v 0.50391 h -2.37598 v 1.46191 h 2.63672 V 380 Z m 7.24512,-0.45996 q 0.39551,0.27246 0.72949,0.39844 l -0.16699,0.3955 q -0.46289,-0.16699 -0.92285,-0.52734 -0.47754,0.2666 -1.05469,0.2666 -0.58301,0 -1.05762,-0.28125 -0.4746,-0.28125 -0.73242,-0.79101 -0.25488,-0.50977 -0.25488,-1.14844 0,-0.63574 0.25781,-1.15723 0.25781,-0.52148 0.73242,-0.79394 0.47754,-0.27246 1.06641,-0.27246 0.59473,0 1.07227,0.28418 0.47754,0.28125 0.72656,0.79101 0.25195,0.50684 0.25195,1.14551 0,0.53027 -0.16113,0.95508 -0.16113,0.42187 -0.48633,0.73535 z m -1.25098,-0.72656 q 0.49219,0.13769 0.81153,0.41015 0.50097,-0.45703 0.50097,-1.37402 0,-0.52149 -0.17871,-0.91113 -0.17578,-0.38965 -0.51855,-0.60352 -0.33985,-0.2168 -0.76465,-0.2168 -0.63574,0 -1.05469,0.43653 -0.41894,0.43359 -0.41894,1.29785 0,0.83789 0.41308,1.28613 0.41602,0.44824 1.06055,0.44824 0.30469,0 0.57422,-0.11425 -0.2666,-0.17286 -0.5625,-0.2461 z m 7.39454,-0.31934 0.56835,0.14356 q -0.17871,0.70019 -0.64453,1.06933 -0.46289,0.36621 -1.13379,0.36621 -0.69433,0 -1.13085,-0.28125 -0.4336,-0.28418 -0.66211,-0.82031 -0.22559,-0.53613 -0.22559,-1.15137 0,-0.6709 0.25488,-1.16894 0.25782,-0.50098 0.72949,-0.75879 0.47461,-0.26074 1.04297,-0.26074 0.64453,0 1.08399,0.32812 0.43945,0.32813 0.6123,0.92285 l -0.55957,0.13184 q -0.14941,-0.46875 -0.43359,-0.68262 -0.28418,-0.21387 -0.71485,-0.21387 -0.49511,0 -0.8291,0.23731 -0.33105,0.2373 -0.46582,0.63867 -0.13476,0.39844 -0.13476,0.82324 0,0.54785 0.1582,0.95801 0.16113,0.40723 0.49805,0.60938 0.33691,0.20214 0.72949,0.20214 0.47754,0 0.80859,-0.27539 0.33106,-0.27539 0.44825,-0.81738 z m 2.49609,1.50586 -1.66406,-4.29492 h 0.61523 l 1.11621,3.12012 q 0.13477,0.375 0.22559,0.70312 0.0996,-0.35156 0.23144,-0.70312 l 1.16016,-3.12012 h 0.58008 L 294.60596,380 Z"
     id="text32"
     style="font-size:6px;font-family:Arial;text-anchor:middle;fill:#aaaaaa"
     aria-label="FREQ CV" />
  <path
     d="m 333.15479,380 1.64941,-4.29492 h 0.6123 L 337.17432,380 h -0.64746 l -0.50098,-1.30078 h -1.7959 L 333.7583,380 Z m 1.23925,-1.76367 h 1.45606 l -0.44824,-1.18946 q -0.20508,-0.54199 -0.30469,-0.89062 -0.082,0.41309 -0.23145,0.82031 z m 7.63477,0.25781 0.56836,0.14356 q -0.17871,0.70019 -0.64453,1.06933 -0.46289,0.36621 -1.13379,0.36621 -0.69434,0 -1.13086,-0.28125 -0.4336,-0.28418 -0.66211,-0.82031 -0.22559,-0.53613 -0.22559,-1.15137 0,-0.6709 0.25489,-1.16894 0.25781,-0.50098 0.72949,-0.75879 0.47461,-0.26074 1.04297,-0.26074 0.64453,0 1.08398,0.32812 0.43945,0.32813 0.61231,0.92285 l -0.55957,0.13184 q -0.14942,-0.46875 -0.4336,-0.68262 -0.28418,-0.21387 -0.71484,-0.21387 -0.49512,0 -0.8291,0.23731 -0.33106,0.2373 -0.46582,0.63867 -0.13477,0.39844 -0.13477,0.82324 0,0.54785 0.1582,0.95801 0.16114,0.40723 0.49805,0.60938 0.33691,0.20214 0.72949,0.20214 0.47754,0 0.8086,-0.27539 0.33105,-0.27539 0.44824,-0.81738 z M 344.5249,380 l -1.66406,-4.29492 h 0.61523 l 1.11622,3.12012 q 0.13476,0.375 0.22558,0.70312 0.0996,-0.35156 0.23145,-0.70312 l 1.16015,-3.12012 h 0.58008 L 345.10791,380 Z"
     id="text33"
     style="font-size:6px;font-family:Arial;text-anchor:middle;fill:#aaaaaa"
     aria-label="A CV" />
  <!-- Chen Output -->
  <path
     d="m 123.9043,412.17187 q 0,-0.875 0.26172,-1.46875 0.19531,-0.4375 0.53125,-0.78515 0.33984,-0.34766 0.74218,-0.51563 0.53516,-0.22656 1.23438,-0.22656 1.26562,0 2.02344,0.78516 0.76171,0.78515 0.76171,2.18359 0,1.38672 -0.7539,2.17188 -0.75391,0.78125 -2.01563,0.78125 -1.27734,0 -2.03125,-0.77735 -0.7539,-0.78125 -0.7539,-2.14844 z m 1.1914,-0.0391 q 0,0.97266 0.44922,1.47656 0.44922,0.5 1.14063,0.5 0.6914,0 1.13281,-0.49609 0.44531,-0.5 0.44531,-1.49609 0,-0.98438 -0.43359,-1.46875 -0.42969,-0.48438 -1.14453,-0.48438 -0.71485,0 -1.15235,0.49219 -0.4375,0.48828 -0.4375,1.47656 z m 5.25782,-2.85937 h 1.15625 v 3.10156 q 0,0.73828 0.043,0.95703 0.0742,0.35156 0.35157,0.56641 0.28125,0.21093 0.76562,0.21093 0.49219,0 0.74219,-0.19921 0.25,-0.20313 0.30078,-0.4961 0.0508,-0.29297 0.0508,-0.97265 v -3.16797 h 1.15625 v 3.00781 q 0,1.03125 -0.0937,1.45703 -0.0937,0.42578 -0.34765,0.71875 -0.25,0.29297 -0.67188,0.46875 -0.42187,0.17188 -1.10156,0.17188 -0.82031,0 -1.2461,-0.1875 -0.42187,-0.19141 -0.66796,-0.49219 -0.2461,-0.30469 -0.32422,-0.63672 -0.11328,-0.49219 -0.11328,-1.45313 z M 137.42773,415 v -4.75781 h -1.69921 v -0.96875 h 4.55078 v 0.96875 h -1.69532 V 415 Z"
     id="text34"
     style="font-weight:bold;font-size:8px;font-family:Arial;text-anchor:middle;fill:#ffffff"
     aria-label="OUT" />
  <!-- Activity Lights -->
  <circle
     cx="353"
     cy="132"
     r="3"
     fill="#cc4444"
     opacity="0.3"
     id="circle34" />
  <circle
     cx="353"
     cy="217"
     r="3"
     fill="#44cc44"
     opacity="0.3"
     id="circle35" />
  <circle
     cx="353"
     cy="302"
     r="3"
     fill="#4444cc"
     opacity="0.3"
     id="circle36" />
  <circle
     cx="353"
     cy="387"
     r="3"
     fill="#cccc44"
     opacity="0.3"
     id="circle37" />
  <!-- Bottom text -->
  <path
     d="m 133.21582,450 v -6.44238 h 4.34619 v 0.76025 h -3.49365 v 1.99512 h 3.02344 v 0.76025 h -3.02344 V 450 Z m 5.05811,-2.3335 q 0,-1.29638 0.7207,-1.92041 0.60205,-0.51855 1.46777,-0.51855 0.9624,0 1.57324,0.63281 0.61084,0.62842 0.61084,1.74024 0,0.90087 -0.27246,1.41943 -0.26806,0.51416 -0.78662,0.7998 -0.51416,0.28565 -1.125,0.28565 -0.97998,0 -1.58642,-0.62842 -0.60205,-0.62842 -0.60205,-1.81055 z m 0.81298,0 q 0,0.89649 0.39112,1.34473 0.39111,0.44385 0.98437,0.44385 0.58887,0 0.97998,-0.44824 0.39112,-0.44825 0.39112,-1.3667 0,-0.86573 -0.39551,-1.30957 -0.39112,-0.44825 -0.97559,-0.44825 -0.59326,0 -0.98437,0.44385 -0.39112,0.44385 -0.39112,1.34033 z M 146.63232,450 v -0.68555 q -0.54492,0.79102 -1.48095,0.79102 -0.41309,0 -0.77344,-0.1582 -0.35596,-0.15821 -0.53174,-0.39551 -0.17139,-0.2417 -0.2417,-0.58887 -0.0483,-0.23291 -0.0483,-0.73828 v -2.8916 h 0.79102 v 2.58838 q 0,0.61963 0.0483,0.83496 0.0747,0.31201 0.3164,0.49219 0.2417,0.17578 0.59766,0.17578 0.35596,0 0.66797,-0.18018 0.31201,-0.18457 0.43945,-0.49658 0.13184,-0.31641 0.13184,-0.91406 v -2.50049 h 0.79101 V 450 Z m 1.93799,0 v -4.66699 h 0.71192 v 0.70752 q 0.27246,-0.49658 0.50097,-0.65479 0.23291,-0.1582 0.50977,-0.1582 0.3999,0 0.81299,0.25488 l -0.27246,0.73389 q -0.29004,-0.17139 -0.58008,-0.17139 -0.25928,0 -0.46582,0.1582 -0.20655,0.15381 -0.29444,0.43067 -0.13183,0.42187 -0.13183,0.92285 V 450 Z m 5.31739,-2.06982 0.80419,-0.0703 q 0.0571,0.4834 0.26368,0.79541 0.21093,0.30762 0.65039,0.50098 0.43945,0.18896 0.98877,0.18896 0.48779,0 0.86132,-0.14501 0.37354,-0.14502 0.55372,-0.39551 0.18457,-0.25489 0.18457,-0.55371 0,-0.30323 -0.17579,-0.52735 -0.17578,-0.22851 -0.58007,-0.38232 -0.25928,-0.10108 -1.14698,-0.31201 -0.88769,-0.21534 -1.24365,-0.4043 -0.46142,-0.2417 -0.68994,-0.59766 -0.22412,-0.36035 -0.22412,-0.8042 0,-0.48779 0.27685,-0.90966 0.27686,-0.42627 0.8086,-0.646 0.53174,-0.21973 1.18213,-0.21973 0.71631,0 1.26123,0.23291 0.54931,0.22852 0.84375,0.67676 0.29443,0.44824 0.3164,1.01514 l -0.81738,0.0615 q -0.0659,-0.61084 -0.44824,-0.92285 -0.37793,-0.31201 -1.12061,-0.31201 -0.77343,0 -1.12939,0.28564 -0.35156,0.28125 -0.35156,0.68116 0,0.34716 0.25048,0.57128 0.2461,0.22413 1.28321,0.46143 1.0415,0.23291 1.42822,0.40869 0.5625,0.25928 0.83057,0.65918 0.26806,0.39551 0.26806,0.91406 0,0.51416 -0.29443,0.9712 -0.29443,0.45263 -0.84814,0.70751 -0.54932,0.25049 -1.23926,0.25049 -0.87451,0 -1.46778,-0.25488 -0.58886,-0.25488 -0.92724,-0.76465 -0.33399,-0.51416 -0.35156,-1.16015 z m 7.91894,1.3623 0.11426,0.69873 q -0.33399,0.0703 -0.59766,0.0703 -0.43066,0 -0.66797,-0.13623 -0.2373,-0.13623 -0.33398,-0.35595 -0.0967,-0.22413 -0.0967,-0.93604 v -2.68506 h -0.58008 v -0.61523 h 0.58008 v -1.15576 l 0.78662,-0.47461 v 1.63037 h 0.79541 v 0.61523 h -0.79541 v 2.72901 q 0,0.33837 0.0395,0.43505 0.0439,0.0967 0.13623,0.15381 0.0967,0.0571 0.27246,0.0571 0.13184,0 0.34717,-0.0308 z M 162.57129,450 v -4.66699 h 0.71191 v 0.70752 q 0.27246,-0.49658 0.50098,-0.65479 0.23291,-0.1582 0.50977,-0.1582 0.3999,0 0.81298,0.25488 l -0.27246,0.73389 q -0.29004,-0.17139 -0.58008,-0.17139 -0.25927,0 -0.46582,0.1582 -0.20654,0.15381 -0.29443,0.43067 -0.13184,0.42187 -0.13184,0.92285 V 450 Z m 6.05127,-0.57568 q -0.43945,0.37353 -0.84815,0.52734 -0.40429,0.15381 -0.87011,0.15381 -0.76905,0 -1.18213,-0.37354 -0.41309,-0.37793 -0.41309,-0.9624 0,-0.34277 0.15381,-0.62402 0.1582,-0.28565 0.40869,-0.45703 0.25488,-0.17139 0.57129,-0.25928 0.23291,-0.0615 0.70313,-0.11865 0.958,-0.11426 1.41064,-0.27246 0.004,-0.1626 0.004,-0.20655 0,-0.4834 -0.22413,-0.68115 -0.30322,-0.26807 -0.90087,-0.26807 -0.55811,0 -0.82618,0.19776 -0.26367,0.19336 -0.39111,0.68994 l -0.77344,-0.10547 q 0.10547,-0.49658 0.34717,-0.7998 0.2417,-0.30762 0.69873,-0.47022 0.45703,-0.16699 1.05908,-0.16699 0.59766,0 0.97119,0.14062 0.37354,0.14063 0.54932,0.35596 0.17578,0.21094 0.24609,0.53613 0.0396,0.20215 0.0396,0.7295 v 1.05468 q 0,1.10303 0.0483,1.39746 0.0527,0.29004 0.20214,0.55811 h -0.82617 q -0.12305,-0.24609 -0.1582,-0.57568 z m -0.0659,-1.76661 q -0.43066,0.17579 -1.29199,0.29883 -0.48779,0.0703 -0.68994,0.15821 -0.20215,0.0879 -0.31201,0.25927 -0.10987,0.167 -0.10987,0.37354 0,0.3164 0.23731,0.52734 0.2417,0.21094 0.70312,0.21094 0.45703,0 0.81299,-0.19775 0.35596,-0.20215 0.52295,-0.54932 0.12744,-0.26807 0.12744,-0.79102 z M 170.58252,450 v -4.66699 h 0.71191 v 0.66357 q 0.51416,-0.76904 1.48536,-0.76904 0.42187,0 0.77343,0.15381 0.35596,0.14941 0.53174,0.39551 0.17578,0.24609 0.24609,0.58447 0.0439,0.21972 0.0439,0.76904 V 450 h -0.79102 v -2.83887 q 0,-0.4834 -0.0923,-0.7207 -0.0923,-0.2417 -0.32959,-0.38232 -0.23291,-0.14502 -0.54932,-0.14502 -0.50537,0 -0.87451,0.3208 -0.36474,0.3208 -0.36474,1.21728 V 450 Z m 4.86035,0.38672 0.76904,0.11426 q 0.0483,0.35595 0.26807,0.51855 0.29443,0.21973 0.8042,0.21973 0.54932,0 0.84814,-0.21973 0.29883,-0.21973 0.4043,-0.61523 0.0615,-0.2417 0.0571,-1.01514 Q 178.0752,450 177.30176,450 q -0.9624,0 -1.48975,-0.69434 -0.52734,-0.69433 -0.52734,-1.66552 0,-0.66797 0.2417,-1.23047 0.2417,-0.5669 0.69873,-0.87451 0.46142,-0.30762 1.08105,-0.30762 0.82617,0 1.36231,0.66797 v -0.5625 h 0.72949 v 4.03418 q 0,1.08984 -0.22412,1.54248 -0.21973,0.45703 -0.70313,0.7207 -0.479,0.26367 -1.18213,0.26367 -0.83496,0 -1.34912,-0.37793 -0.51416,-0.37353 -0.49658,-1.12939 z m 0.65479,-2.80371 q 0,0.91845 0.36474,1.34033 0.36475,0.42187 0.91406,0.42187 0.54493,0 0.91407,-0.41748 0.36914,-0.42187 0.36914,-1.31836 0,-0.85693 -0.38233,-1.29199 -0.37793,-0.43506 -0.91406,-0.43506 -0.52734,0 -0.89648,0.43067 -0.36914,0.42627 -0.36914,1.27002 z m 7.69043,0.91406 0.81738,0.10107 q -0.19336,0.71631 -0.71631,1.11182 -0.52295,0.39551 -1.33594,0.39551 -1.02392,0 -1.62597,-0.62842 -0.59766,-0.63281 -0.59766,-1.771 0,-1.17773 0.60645,-1.82812 0.60644,-0.65039 1.57324,-0.65039 0.93603,0 1.52929,0.63721 0.59327,0.6372 0.59327,1.79296 0,0.0703 -0.004,0.21094 h -3.48047 q 0.0439,0.76905 0.43506,1.17774 0.39111,0.40869 0.97559,0.40869 0.43506,0 0.74267,-0.22852 0.30762,-0.22851 0.4878,-0.72949 z m -2.59717,-1.27881 h 2.60595 q -0.0527,-0.58887 -0.29882,-0.8833 -0.37793,-0.45703 -0.97998,-0.45703 -0.54493,0 -0.91846,0.36475 -0.36914,0.36474 -0.40869,0.97558 z m 5.80517,2.78174 2.47412,-6.44238 h 0.91846 L 193.02539,450 h -0.97119 l -0.75147,-1.95117 h -2.69384 L 187.90137,450 Z m 1.85889,-2.64551 h 2.18408 l -0.67236,-1.78418 q -0.30762,-0.81299 -0.45703,-1.33594 -0.12305,0.61963 -0.34717,1.23047 z m 6.47754,1.93799 0.11426,0.69873 q -0.33399,0.0703 -0.59766,0.0703 -0.43066,0 -0.66797,-0.13623 -0.2373,-0.13623 -0.33398,-0.35595 -0.0967,-0.22413 -0.0967,-0.93604 v -2.68506 h -0.58008 v -0.61523 h 0.58008 v -1.15576 l 0.78662,-0.47461 v 1.63037 h 0.79541 v 0.61523 h -0.79541 v 2.72901 q 0,0.33837 0.0395,0.43505 0.0439,0.0967 0.13623,0.15381 0.0967,0.0571 0.27246,0.0571 0.13184,0 0.34717,-0.0308 z m 2.50049,0 0.11426,0.69873 q -0.33399,0.0703 -0.59766,0.0703 -0.43066,0 -0.66797,-0.13623 -0.2373,-0.13623 -0.33398,-0.35595 -0.0967,-0.22413 -0.0967,-0.93604 v -2.68506 h -0.58008 v -0.61523 h 0.58008 v -1.15576 l 0.78662,-0.47461 v 1.63037 h 0.79541 v 0.61523 h -0.79541 v 2.72901 q 0,0.33837 0.0395,0.43505 0.0439,0.0967 0.13623,0.15381 0.0967,0.0571 0.27246,0.0571 0.13184,0 0.34717,-0.0308 z M 198.59766,450 v -4.66699 h 0.71191 v 0.70752 q 0.27246,-0.49658 0.50098,-0.65479 0.23291,-0.1582 0.50976,-0.1582 0.3999,0 0.81299,0.25488 l -0.27246,0.73389 q -0.29004,-0.17139 -0.58008,-0.17139 -0.25928,0 -0.46582,0.1582 -0.20654,0.15381 -0.29443,0.43067 -0.13184,0.42187 -0.13184,0.92285 V 450 Z m 6.05127,-0.57568 q -0.43946,0.37353 -0.84815,0.52734 -0.4043,0.15381 -0.87012,0.15381 -0.76904,0 -1.18212,-0.37354 -0.41309,-0.37793 -0.41309,-0.9624 0,-0.34277 0.15381,-0.62402 0.1582,-0.28565 0.40869,-0.45703 0.25488,-0.17139 0.57129,-0.25928 0.23291,-0.0615 0.70312,-0.11865 0.95801,-0.11426 1.41065,-0.27246 0.004,-0.1626 0.004,-0.20655 0,-0.4834 -0.22412,-0.68115 -0.30322,-0.26807 -0.90088,-0.26807 -0.5581,0 -0.82617,0.19776 -0.26367,0.19336 -0.39111,0.68994 l -0.77344,-0.10547 q 0.10547,-0.49658 0.34717,-0.7998 0.2417,-0.30762 0.69873,-0.47022 0.45703,-0.16699 1.05908,-0.16699 0.59766,0 0.97119,0.14062 0.37354,0.14063 0.54932,0.35596 0.17578,0.21094 0.24609,0.53613 0.0396,0.20215 0.0396,0.7295 v 1.05468 q 0,1.10303 0.0483,1.39746 0.0527,0.29004 0.20215,0.55811 h -0.82617 q -0.12305,-0.24609 -0.1582,-0.57568 z m -0.0659,-1.76661 q -0.43067,0.17579 -1.29199,0.29883 -0.4878,0.0703 -0.68995,0.15821 -0.20214,0.0879 -0.31201,0.25927 -0.10986,0.167 -0.10986,0.37354 0,0.3164 0.2373,0.52734 0.2417,0.21094 0.70313,0.21094 0.45703,0 0.81299,-0.19775 0.35595,-0.20215 0.52295,-0.54932 0.12744,-0.26807 0.12744,-0.79102 z m 5.07129,0.63282 0.77783,0.10107 q -0.12744,0.8042 -0.65479,1.26123 -0.52295,0.45264 -1.28759,0.45264 -0.95801,0 -1.54248,-0.62402 -0.58008,-0.62842 -0.58008,-1.79737 0,-0.75586 0.25049,-1.32275 0.25048,-0.5669 0.76025,-0.84815 0.51416,-0.28564 1.11621,-0.28564 0.76025,0 1.24365,0.38672 0.4834,0.38232 0.61963,1.08984 l -0.76904,0.11865 q -0.10986,-0.47021 -0.39111,-0.70752 -0.27686,-0.2373 -0.67237,-0.2373 -0.59765,0 -0.97119,0.43066 -0.37353,0.42627 -0.37353,1.35352 0,0.94043 0.36035,1.3667 0.36035,0.42627 0.94043,0.42627 0.46582,0 0.77783,-0.28565 0.31201,-0.28564 0.39551,-0.8789 z m 3.18164,1.00195 0.11426,0.69873 q -0.33399,0.0703 -0.59766,0.0703 -0.43067,0 -0.66797,-0.13623 -0.2373,-0.13623 -0.33398,-0.35595 -0.0967,-0.22413 -0.0967,-0.93604 v -2.68506 h -0.58008 v -0.61523 h 0.58008 v -1.15576 l 0.78662,-0.47461 v 1.63037 h 0.79541 v 0.61523 h -0.79541 v 2.72901 q 0,0.33837 0.0396,0.43505 0.0439,0.0967 0.13623,0.15381 0.0967,0.0571 0.27246,0.0571 0.13184,0 0.34717,-0.0308 z m 0.479,-1.62598 q 0,-1.29638 0.7207,-1.92041 0.60206,-0.51855 1.46778,-0.51855 0.9624,0 1.57324,0.63281 0.61084,0.62842 0.61084,1.74024 0,0.90087 -0.27246,1.41943 -0.26807,0.51416 -0.78662,0.7998 -0.51416,0.28565 -1.125,0.28565 -0.97998,0 -1.58643,-0.62842 -0.60205,-0.62842 -0.60205,-1.81055 z m 0.81299,0 q 0,0.89649 0.39111,1.34473 0.39112,0.44385 0.98438,0.44385 0.58887,0 0.97998,-0.44824 0.39111,-0.44825 0.39111,-1.3667 0,-0.86573 -0.39551,-1.30957 -0.39111,-0.44825 -0.97558,-0.44825 -0.59326,0 -0.98438,0.44385 -0.39111,0.44385 -0.39111,1.34033 z M 218.60596,450 v -4.66699 h 0.71191 v 0.70752 q 0.27246,-0.49658 0.50098,-0.65479 0.23291,-0.1582 0.50976,-0.1582 0.39991,0 0.81299,0.25488 l -0.27246,0.73389 q -0.29004,-0.17139 -0.58008,-0.17139 -0.25927,0 -0.46582,0.1582 -0.20654,0.15381 -0.29443,0.43067 -0.13184,0.42187 -0.13184,0.92285 V 450 Z m 5.57226,0 v -6.44238 h 0.85254 v 5.68213 h 3.17285 V 450 Z m 5.08448,0 v -6.44238 h 4.34619 v 0.76025 h -3.49366 v 1.99512 h 3.02344 v 0.76025 h -3.02344 V 450 Z m 5.19433,-3.1377 q 0,-1.604 0.86133,-2.50927 0.86133,-0.90967 2.22363,-0.90967 0.89209,0 1.6084,0.42627 0.71631,0.42627 1.08984,1.19092 0.37793,0.76025 0.37793,1.72705 0,0.97998 -0.3955,1.75342 -0.39551,0.77343 -1.12061,1.17334 -0.7251,0.3955 -1.56445,0.3955 -0.90967,0 -1.62598,-0.43945 -0.71631,-0.43945 -1.08545,-1.19971 -0.36914,-0.76025 -0.36914,-1.6084 z m 0.87891,0.0132 q 0,1.16455 0.62402,1.83691 0.62842,0.66797 1.57324,0.66797 0.96241,0 1.58203,-0.67676 0.62403,-0.67675 0.62403,-1.92041 0,-0.78662 -0.26807,-1.37109 -0.26367,-0.58887 -0.77783,-0.90967 -0.50977,-0.32519 -1.14697,-0.32519 -0.90528,0 -1.56006,0.62402 -0.65039,0.61963 -0.65039,2.07422 z m 5.96338,1.73144 0.78222,-0.12304 q 0.0659,0.47021 0.36475,0.7207 0.30322,0.25049 0.84375,0.25049 0.54492,0 0.80859,-0.21973 0.26367,-0.22412 0.26367,-0.52295 0,-0.26806 -0.23291,-0.42187 -0.16259,-0.10547 -0.80859,-0.26807 -0.87012,-0.21973 -1.2085,-0.37793 -0.33398,-0.1626 -0.50976,-0.44385 -0.17139,-0.28564 -0.17139,-0.62841 0,-0.31202 0.14063,-0.57569 0.14502,-0.26806 0.39111,-0.44385 0.18457,-0.13623 0.50098,-0.22851 0.3208,-0.0967 0.68554,-0.0967 0.54932,0 0.96241,0.1582 0.41748,0.15821 0.61523,0.43067 0.19775,0.26806 0.27246,0.7207 l -0.77344,0.10547 q -0.0527,-0.36035 -0.30761,-0.5625 -0.25049,-0.20215 -0.71192,-0.20215 -0.54492,0 -0.77783,0.18018 -0.23291,0.18017 -0.23291,0.42187 0,0.15381 0.0967,0.27686 0.0967,0.12744 0.30322,0.21093 0.11866,0.044 0.69873,0.20215 0.83936,0.22412 1.16895,0.36914 0.33398,0.14063 0.52295,0.41309 0.18896,0.27246 0.18896,0.67676 0,0.3955 -0.23291,0.74707 -0.22851,0.34716 -0.66357,0.54052 -0.43506,0.18897 -0.98438,0.18897 -0.90966,0 -1.38867,-0.37793 -0.47461,-0.37793 -0.60644,-1.12061 z"
     id="text37"
     style="font-size:9px;font-family:Arial;text-anchor:middle;fill:#888888"
     aria-label="Four Strange Attractor LFOs" />
  <path
     d="m 168.49414,465 v -5.72656 h 2.16016 q 0.57031,0 0.87109,0.0547 0.42188,0.0703 0.70703,0.26954 0.28516,0.19531 0.45703,0.55078 0.17578,0.35547 0.17578,0.78125 0,0.73047 -0.46484,1.23828 -0.46484,0.5039 -1.67969,0.5039 h -1.46875 V 465 Z m 0.75781,-3.00391 h 1.48047 q 0.73438,0 1.04297,-0.27343 0.30859,-0.27344 0.30859,-0.76954 0,-0.35937 -0.18359,-0.61328 -0.17969,-0.25781 -0.47656,-0.33984 -0.19141,-0.0508 -0.70703,-0.0508 h -1.46485 z M 176.45898,465 v -0.60938 q -0.48437,0.70313 -1.3164,0.70313 -0.36719,0 -0.6875,-0.14063 -0.31641,-0.14062 -0.47266,-0.35156 -0.15234,-0.21484 -0.21484,-0.52344 -0.043,-0.20703 -0.043,-0.65625 v -2.57031 h 0.70312 v 2.30078 q 0,0.55078 0.043,0.74219 0.0664,0.27734 0.28125,0.4375 0.21485,0.15625 0.53125,0.15625 0.31641,0 0.59375,-0.16016 0.27735,-0.16406 0.39063,-0.4414 0.11719,-0.28125 0.11719,-0.8125 v -2.22266 h 0.70312 V 465 Z m 1.72266,0 v -4.14844 h 0.63281 v 0.62891 q 0.24219,-0.44141 0.44532,-0.58203 0.20703,-0.14063 0.45312,-0.14063 0.35547,0 0.72266,0.22656 l -0.24219,0.65235 q -0.25781,-0.15235 -0.51563,-0.15235 -0.23046,0 -0.41406,0.14063 -0.18359,0.13672 -0.26172,0.38281 -0.11718,0.375 -0.11718,0.82031 V 465 Z m 5.51172,-1.33594 0.72656,0.0899 q -0.17187,0.63671 -0.63672,0.98828 -0.46484,0.35156 -1.1875,0.35156 -0.91015,0 -1.44531,-0.55859 -0.53125,-0.5625 -0.53125,-1.57422 0,-1.04688 0.53906,-1.625 0.53907,-0.57813 1.39844,-0.57813 0.83203,0 1.35938,0.56641 0.52734,0.5664 0.52734,1.59375 0,0.0625 -0.004,0.1875 h -3.09375 q 0.0391,0.68359 0.38672,1.04687 0.34766,0.36328 0.86719,0.36328 0.38672,0 0.66016,-0.20312 0.27343,-0.20313 0.43359,-0.64844 z m -2.30859,-1.13672 h 2.3164 q -0.0469,-0.52343 -0.26562,-0.78515 -0.33594,-0.40625 -0.8711,-0.40625 -0.48437,0 -0.8164,0.32422 -0.32813,0.32421 -0.36328,0.86718 z m 10.3164,0.46485 0.75781,0.1914 q -0.23828,0.9336 -0.85937,1.42578 -0.61719,0.48829 -1.51172,0.48829 -0.92578,0 -1.50781,-0.375 -0.57813,-0.37891 -0.88281,-1.09375 -0.30079,-0.71485 -0.30079,-1.53516 0,-0.89453 0.33985,-1.55859 0.34375,-0.66797 0.97265,-1.01172 0.63282,-0.34766 1.39063,-0.34766 0.85937,0 1.44531,0.4375 0.58594,0.4375 0.81641,1.23047 l -0.7461,0.17578 q -0.19921,-0.625 -0.57812,-0.91016 -0.37891,-0.28515 -0.95313,-0.28515 -0.66015,0 -1.10546,0.3164 -0.44141,0.31641 -0.6211,0.85157 -0.17969,0.53125 -0.17969,1.09765 0,0.73047 0.21094,1.27735 0.21485,0.54297 0.66406,0.8125 0.44922,0.26953 0.97266,0.26953 0.63672,0 1.07813,-0.36719 0.4414,-0.36719 0.59765,-1.08984 z M 193.30273,465 v -5.72656 h 0.70313 v 2.05468 q 0.49219,-0.57031 1.24219,-0.57031 0.46093,0 0.80078,0.1836 0.33984,0.17968 0.48437,0.5 0.14844,0.32031 0.14844,0.92968 V 465 h -0.70312 v -2.62891 q 0,-0.52734 -0.23047,-0.76562 -0.22657,-0.24219 -0.64453,-0.24219 -0.3125,0 -0.58985,0.16406 -0.27344,0.16016 -0.39062,0.4375 -0.11719,0.27735 -0.11719,0.76563 V 465 Z m 7.15625,-0.51172 q -0.39062,0.33203 -0.7539,0.46875 -0.35938,0.13672 -0.77344,0.13672 -0.68359,0 -1.05078,-0.33203 -0.36719,-0.33594 -0.36719,-0.85547 0,-0.30469 0.13672,-0.55469 0.14063,-0.2539 0.36328,-0.40625 0.22656,-0.15234 0.50781,-0.23047 0.20704,-0.0547 0.625,-0.10547 0.85157,-0.10156 1.25391,-0.24218 0.004,-0.14453 0.004,-0.1836 0,-0.42968 -0.19922,-0.60547 -0.26953,-0.23828 -0.80078,-0.23828 -0.4961,0 -0.73438,0.17578 -0.23437,0.17188 -0.34765,0.61329 l -0.6875,-0.0937 q 0.0937,-0.44141 0.30859,-0.71094 0.21484,-0.27344 0.62109,-0.41797 0.40625,-0.14844 0.94141,-0.14844 0.53125,0 0.86328,0.125 0.33203,0.125 0.48828,0.31641 0.15625,0.1875 0.21875,0.47656 0.0352,0.17969 0.0352,0.64844 v 0.9375 q 0,0.98047 0.043,1.24219 0.0469,0.25781 0.17968,0.49609 h -0.73437 q -0.10938,-0.21875 -0.14063,-0.51172 z m -0.0586,-1.57031 q -0.38281,0.15625 -1.14844,0.26562 -0.43359,0.0625 -0.61328,0.14063 -0.17969,0.0781 -0.27734,0.23047 -0.0977,0.14843 -0.0977,0.33203 0,0.28125 0.21094,0.46875 0.21484,0.1875 0.625,0.1875 0.40625,0 0.72266,-0.17578 0.3164,-0.17969 0.46484,-0.48828 0.11328,-0.23829 0.11328,-0.70313 z m 1.53906,0.008 q 0,-1.15234 0.64063,-1.70703 0.53515,-0.46094 1.30469,-0.46094 0.85546,0 1.39843,0.5625 0.54297,0.5586 0.54297,1.54688 0,0.80078 -0.24219,1.26172 -0.23828,0.45703 -0.69921,0.71093 -0.45704,0.25391 -1,0.25391 -0.8711,0 -1.41016,-0.55859 -0.53516,-0.5586 -0.53516,-1.60938 z m 0.72266,0 q 0,0.79688 0.34766,1.19531 0.34765,0.39453 0.875,0.39453 0.52343,0 0.87109,-0.39843 0.34766,-0.39844 0.34766,-1.21485 0,-0.76953 -0.35157,-1.16406 -0.34765,-0.39844 -0.86718,-0.39844 -0.52735,0 -0.875,0.39453 -0.34766,0.39454 -0.34766,1.19141 z m 3.70703,0.83594 0.69531,-0.10938 q 0.0586,0.41797 0.32422,0.64063 0.26953,0.22265 0.75,0.22265 0.48438,0 0.71875,-0.19531 0.23438,-0.19922 0.23438,-0.46484 0,-0.23828 -0.20703,-0.375 -0.14454,-0.0937 -0.71875,-0.23828 -0.77344,-0.19532 -1.07422,-0.33594 -0.29688,-0.14453 -0.45313,-0.39453 -0.15234,-0.25391 -0.15234,-0.5586 0,-0.27734 0.125,-0.51171 0.1289,-0.23829 0.34765,-0.39454 0.16407,-0.12109 0.44532,-0.20312 0.28515,-0.0859 0.60937,-0.0859 0.48828,0 0.85547,0.14063 0.37109,0.14062 0.54688,0.38281 0.17578,0.23828 0.24218,0.64062 l -0.6875,0.0937 q -0.0469,-0.32031 -0.27343,-0.5 -0.22266,-0.17968 -0.63282,-0.17968 -0.48437,0 -0.6914,0.16015 -0.20703,0.16016 -0.20703,0.375 0,0.13672 0.0859,0.2461 0.0859,0.11328 0.26953,0.1875 0.10547,0.0391 0.6211,0.17968 0.74609,0.19922 1.03906,0.32813 0.29688,0.125 0.46484,0.36719 0.16797,0.24218 0.16797,0.60156 0,0.35156 -0.20703,0.66406 -0.20312,0.3086 -0.58984,0.48047 -0.38672,0.16797 -0.875,0.16797 -0.8086,0 -1.23438,-0.33594 -0.42187,-0.33594 -0.53906,-0.99609 z"
     id="text38"
     style="font-size:8px;font-family:Arial;text-anchor:middle;fill:#666666"
     aria-label="Pure Chaos" />
</svg>
