<?xml version="1.0" encoding="UTF-8" standalone="no"?>
<svg
   width="91.44mm"
   height="128.5mm"
   viewBox="0 0 91.44 128.5"
   version="1.1"
   id="svg28"
   xml:space="preserve"
   sodipodi:docname="Fatebinder.svg"
   inkscape:version="1.4.2 (ebf0e940, 2025-05-08)"
   xmlns:inkscape="http://www.inkscape.org/namespaces/inkscape"
   xmlns:sodipodi="http://sodipodi.sourceforge.net/DTD/sodipodi-0.dtd"
   xmlns="http://www.w3.org/2000/svg"
   xmlns:svg="http://www.w3.org/2000/svg"><sodipodi:namedview
   id="namedview14"
   pagecolor="#505050"
   bordercolor="#eeeeee"
   borderopacity="1"
   inkscape:showpageshadow="0"
   inkscape:pageopacity="0"
   inkscape:pagecheckerboard="0"
   inkscape:deskcolor="#505050"
   inkscape:document-units="mm"
   inkscape:zoom="1.2664864"
   inkscape:cx="79.748192"
   inkscape:cy="224.63723"
   inkscape:window-width="1800"
   inkscape:window-height="1097"
   inkscape:window-x="0"
   inkscape:window-y="44"
   inkscape:window-maximized="1"
   inkscape:current-layer="svg28" />

<defs
   id="defs28">
   <!-- Matte texture filter using SVG turbulence -->
   <filter
   id="matteTexture"
   x="0"
   y="0"
   width="1"
   height="1">
     <feTurbulence
   baseFrequency="0.9"
   numOctaves="4"
   result="turbulence"
   id="feTurbulence1" />
     <feColorMatrix
   in="turbulence"
   type="saturate"
   values="0"
   id="feColorMatrix1" />
     <feComposite
   in="SourceGraphic"
   in2="turbulence"
   operator="multiply"
   id="feComposite1" />
   </filter>

   <!-- Panel gradient to match other modules -->
   <linearGradient
   id="panelGradient"
   x1="0%"
   y1="0%"
   x2="100%"
   y2="100%">
     <stop
   offset="0%"
   style="stop-color:#2a2a2a;stop-opacity:1"
   id="stop1" />
     <stop
   offset="50%"
   style="stop-color:#1f1f1f;stop-opacity:1"
   id="stop2" />
     <stop
   offset="100%"
   style="stop-color:#1a1a1a;stop-opacity:1"
   id="stop3" />
   </linearGradient>

  
  
  

  
  
  

  
  

  
  
  

  
  
  
  
  

  
  
  
  
  
  
  
  

  
  
  
  
  
  
  
  

  
  
  
  
  
  
  
  

  
  
  
  
  
  
  
  

  
  
</defs>

<!-- Matte black background with texture to match other modules -->


<circle
   id="master-freq-cv"
   cx="18"
   cy="10.25"
   r="0.34999999"
   fill="none"
   stroke="#555555"
   stroke-width="0.18"
   opacity="0.7" /><circle
   id="reset-cv"
   cx="45.5"
   cy="10.25"
   r="0.34999999"
   fill="none"
   stroke="#555555"
   stroke-width="0.18"
   opacity="0.7" /><path
   d="m 41.995469,122.6667 0.139062,-0.0219 q 0.01172,0.0836 0.06484,0.12813 0.05391,0.0445 0.15,0.0445 0.09687,0 0.14375,-0.0391 0.04687,-0.0398 0.04687,-0.093 0,-0.0477 -0.04141,-0.075 -0.02891,-0.0187 -0.14375,-0.0477 -0.154688,-0.0391 -0.214844,-0.0672 -0.05938,-0.0289 -0.09063,-0.0789 -0.03047,-0.0508 -0.03047,-0.11172 0,-0.0555 0.025,-0.10235 0.02578,-0.0477 0.06953,-0.0789 0.03281,-0.0242 0.08906,-0.0406 0.05703,-0.0172 0.121875,-0.0172 0.09766,0 0.171094,0.0281 0.07422,0.0281 0.109375,0.0766 0.03516,0.0477 0.04844,0.12813 l -0.1375,0.0187 q -0.0094,-0.0641 -0.05469,-0.1 -0.04453,-0.0359 -0.126563,-0.0359 -0.09687,0 -0.138281,0.032 -0.04141,0.032 -0.04141,0.075 0,0.0273 0.01719,0.0492 0.01719,0.0227 0.05391,0.0375 0.02109,0.008 0.124218,0.0359 0.149219,0.0398 0.207813,0.0656 0.05938,0.025 0.09297,0.0734 0.03359,0.0484 0.03359,0.12031 0,0.0703 -0.04141,0.13281 -0.04062,0.0617 -0.117969,0.0961 -0.07734,0.0336 -0.175,0.0336 -0.161718,0 -0.246875,-0.0672 -0.08438,-0.0672 -0.107812,-0.19921 z m 0.85625,0.24765 v -1.14531 h 0.140625 v 0.41094 q 0.09844,-0.11407 0.248437,-0.11407 0.09219,0 0.160157,0.0367 0.06797,0.0359 0.09688,0.1 0.02969,0.0641 0.02969,0.18594 v 0.52578 h -0.140625 v -0.52578 q 0,-0.10547 -0.04609,-0.15312 -0.04531,-0.0484 -0.128906,-0.0484 -0.0625,0 -0.117969,0.0328 -0.05469,0.032 -0.07813,0.0875 -0.02344,0.0555 -0.02344,0.15313 v 0.4539 z m 1.43125,-0.10234 q -0.07813,0.0664 -0.150781,0.0937 -0.07187,0.0273 -0.154688,0.0273 -0.136719,0 -0.210156,-0.0664 -0.07344,-0.0672 -0.07344,-0.1711 0,-0.0609 0.02734,-0.11094 0.02813,-0.0508 0.07266,-0.0812 0.04531,-0.0305 0.101563,-0.0461 0.04141,-0.0109 0.125,-0.0211 0.170312,-0.0203 0.250781,-0.0484 7.81e-4,-0.0289 7.81e-4,-0.0367 0,-0.0859 -0.03984,-0.12109 -0.05391,-0.0477 -0.160157,-0.0477 -0.09922,0 -0.146875,0.0352 -0.04687,0.0344 -0.06953,0.12265 l -0.1375,-0.0187 q 0.01875,-0.0883 0.06172,-0.14218 0.04297,-0.0547 0.124219,-0.0836 0.08125,-0.0297 0.188281,-0.0297 0.10625,0 0.172656,0.025 0.06641,0.025 0.09766,0.0633 0.03125,0.0375 0.04375,0.0953 0.007,0.0359 0.007,0.12969 v 0.1875 q 0,0.19609 0.0086,0.24843 0.0094,0.0516 0.03594,0.0992 h -0.146875 q -0.02187,-0.0438 -0.02812,-0.10234 z m -0.01172,-0.31406 q -0.07656,0.0312 -0.229687,0.0531 -0.08672,0.0125 -0.122657,0.0281 -0.03594,0.0156 -0.05547,0.0461 -0.01953,0.0297 -0.01953,0.0664 0,0.0563 0.04219,0.0937 0.04297,0.0375 0.125,0.0375 0.08125,0 0.144531,-0.0352 0.06328,-0.0359 0.09297,-0.0977 0.02266,-0.0476 0.02266,-0.14062 z m 0.360156,0.73437 v -1.14766 h 0.128125 v 0.10782 q 0.04531,-0.0633 0.102344,-0.0945 0.05703,-0.032 0.138281,-0.032 0.10625,0 0.1875,0.0547 0.08125,0.0547 0.122657,0.15469 0.04141,0.0992 0.04141,0.21797 0,0.12734 -0.04609,0.22969 -0.04531,0.10156 -0.132812,0.15625 -0.08672,0.0539 -0.182813,0.0539 -0.07031,0 -0.126562,-0.0297 -0.05547,-0.0297 -0.09141,-0.075 v 0.40391 z m 0.127344,-0.72812 q 0,0.16015 0.06484,0.23671 0.06484,0.0766 0.157031,0.0766 0.09375,0 0.160156,-0.0789 0.06719,-0.0797 0.06719,-0.24609 0,-0.1586 -0.06562,-0.2375 -0.06484,-0.0789 -0.155469,-0.0789 -0.08984,0 -0.159375,0.0844 -0.06875,0.0836 -0.06875,0.24375 z m 1.330469,0.14296 0.145312,0.018 q -0.03437,0.12735 -0.127343,0.19766 -0.09297,0.0703 -0.2375,0.0703 -0.182032,0 -0.289063,-0.11172 -0.10625,-0.1125 -0.10625,-0.31484 0,-0.20938 0.107813,-0.325 0.107812,-0.11563 0.279687,-0.11563 0.166406,0 0.271875,0.11329 0.105469,0.11328 0.105469,0.31875 0,0.0125 -7.81e-4,0.0375 h -0.61875 q 0.0078,0.13671 0.07734,0.20937 0.06953,0.0727 0.173438,0.0727 0.07734,0 0.132031,-0.0406 0.05469,-0.0406 0.08672,-0.12969 z M 45.6275,122.41982 h 0.463281 q -0.0094,-0.10469 -0.05313,-0.15703 -0.06719,-0.0812 -0.174218,-0.0812 -0.09688,0 -0.163282,0.0648 -0.06562,0.0648 -0.07266,0.17344 z m 1.090625,0.36875 0.02031,0.12422 q -0.05938,0.0125 -0.10625,0.0125 -0.07656,0 -0.11875,-0.0242 -0.04219,-0.0242 -0.05938,-0.0633 -0.01719,-0.0398 -0.01719,-0.16641 v -0.47734 H 46.33375 v -0.10938 h 0.103125 v -0.20546 l 0.139844,-0.0844 v 0.28984 h 0.141406 v 0.10938 h -0.141406 v 0.48516 q 0,0.0602 0.007,0.0773 0.0078,0.0172 0.02422,0.0273 0.01719,0.0102 0.04844,0.0102 0.02344,0 0.06172,-0.005 z m 0.678907,0.0234 q -0.07813,0.0664 -0.150782,0.0937 -0.07188,0.0273 -0.154687,0.0273 -0.136719,0 -0.210156,-0.0664 -0.07344,-0.0672 -0.07344,-0.1711 0,-0.0609 0.02734,-0.11094 0.02813,-0.0508 0.07266,-0.0812 0.04531,-0.0305 0.101563,-0.0461 0.04141,-0.0109 0.125,-0.0211 0.170312,-0.0203 0.250781,-0.0484 7.81e-4,-0.0289 7.81e-4,-0.0367 0,-0.0859 -0.03984,-0.12109 -0.05391,-0.0477 -0.160156,-0.0477 -0.09922,0 -0.146875,0.0352 -0.04687,0.0344 -0.06953,0.12265 l -0.1375,-0.0187 q 0.01875,-0.0883 0.06172,-0.14218 0.04297,-0.0547 0.124218,-0.0836 0.08125,-0.0297 0.188282,-0.0297 0.10625,0 0.172656,0.025 0.06641,0.025 0.09766,0.0633 0.03125,0.0375 0.04375,0.0953 0.007,0.0359 0.007,0.12969 v 0.1875 q 0,0.19609 0.0086,0.24843 0.0094,0.0516 0.03594,0.0992 h -0.146875 q -0.02188,-0.0438 -0.02812,-0.10234 z m -0.01172,-0.31406 q -0.07656,0.0312 -0.229688,0.0531 -0.08672,0.0125 -0.122656,0.0281 -0.03594,0.0156 -0.05547,0.0461 -0.01953,0.0297 -0.01953,0.0664 0,0.0563 0.04219,0.0937 0.04297,0.0375 0.125,0.0375 0.08125,0 0.144531,-0.0352 0.06328,-0.0359 0.09297,-0.0977 0.02266,-0.0476 0.02266,-0.14062 z m 0.360937,0.4164 v -1.14531 h 0.140625 v 0.65312 l 0.332813,-0.3375 h 0.182031 l -0.317188,0.30782 0.349219,0.52187 h -0.173437 l -0.274219,-0.42422 -0.09922,0.0953 v 0.3289 z m 1.367188,-0.26719 0.145312,0.018 q -0.03437,0.12735 -0.127344,0.19766 -0.09297,0.0703 -0.2375,0.0703 -0.182031,0 -0.289062,-0.11172 -0.10625,-0.1125 -0.10625,-0.31484 0,-0.20938 0.107812,-0.325 0.107813,-0.11563 0.279688,-0.11563 0.166406,0 0.271875,0.11329 0.105469,0.11328 0.105469,0.31875 0,0.0125 -7.82e-4,0.0375 h -0.61875 q 0.0078,0.13671 0.07734,0.20937 0.06953,0.0727 0.173438,0.0727 0.07734,0 0.132031,-0.0406 0.05469,-0.0406 0.08672,-0.12969 z m -0.461719,-0.22734 H 49.115 q -0.0094,-0.10469 -0.05313,-0.15703 -0.06719,-0.0812 -0.174219,-0.0812 -0.09687,0 -0.163281,0.0648 -0.06563,0.0648 -0.07266,0.17344 z m 0.782031,0.49453 v -0.82969 h 0.126563 v 0.12579 q 0.04844,-0.0883 0.08906,-0.11641 0.04141,-0.0281 0.09063,-0.0281 0.07109,0 0.144532,0.0453 l -0.04844,0.13047 q -0.05156,-0.0305 -0.103125,-0.0305 -0.04609,0 -0.08281,0.0281 -0.03672,0.0273 -0.05234,0.0766 -0.02344,0.075 -0.02344,0.16407 v 0.43437 z"
   id="text14"
   style="font-size:1.6px;font-family:Arial;text-anchor:middle;fill:#7a7a7a"
   aria-label="shapetaker" />
<path
   d="m 23.75734,2.8447253 h 2.6035 v 0.3429 h -2.2098 v 1.7970499 h 2.0447 v 0.3302 h -2.0447 v 2.1971 h -0.3937 z m 6.992419,4.6672499 -0.42545,-1.03505 h -2.5146 l -0.42545,1.03505 h -0.4064 l 1.8669,-4.6672499 h 0.43815 l 1.87325,4.6672499 z m -1.68275,-4.22275 -1.12395,2.8448 h 2.25425 z m 5.563655,-0.4444999 v 0.3429 h -1.3462 v 4.3243499 h -0.3937 V 3.1876253 h -1.35255 v -0.3429 z m 1.353606,0 h 2.72415 v 0.3429 h -2.31775 v 1.7970499 h 2.15265 v 0.3302 h -2.15265 v 1.8542 h 2.31775 v 0.3429 h -2.72415 z m 4.236507,4.6672499 V 2.8447253 h 1.6002 q 0.2794,0 0.51435,0.1016 0.23495,0.09525 0.40005,0.2667 0.17145,0.1650999 0.2667,0.3873499 0.09525,0.22225 0.09525,0.47625 0,0.15875 -0.04445,0.3175 -0.04445,0.1524 -0.127,0.28575 -0.08255,0.13335 -0.2032,0.23495 -0.1143,0.1016 -0.26035,0.15875 0.20955,0.05715 0.37465,0.1778 0.1651,0.12065 0.2794,0.2794 0.12065,0.1524 0.1778,0.33655 0.0635,0.1778 0.0635,0.3683 0,0.2667 -0.09525,0.50165 -0.09525,0.2286 -0.2667,0.40005 -0.17145,0.17145 -0.4064,0.27305 -0.23495,0.1016 -0.508,0.1016 z m 0.37465,-0.34925 h 1.46685 q 0.19685,0 0.36195,-0.06985 0.17145,-0.06985 0.2921,-0.1905 0.12065,-0.127 0.1905,-0.2921 0.06985,-0.17145 0.06985,-0.36195 0,-0.2032 -0.0762,-0.37465 -0.0762,-0.1778 -0.20955,-0.3048 -0.13335,-0.13335 -0.3175,-0.2032 -0.18415,-0.0762 -0.40005,-0.0762 h -1.37795 z m 0,-2.21615 h 1.20015 q 0.4191,0 0.6731,-0.23495 0.26035,-0.23495 0.26035,-0.635 0,-0.1778 -0.06985,-0.33655 -0.0635,-0.1651 -0.1905,-0.28575 -0.12065,-0.127 -0.2921,-0.19685 -0.17145,-0.06985 -0.381,-0.06985 h -1.20015 z m 3.86186,-1.7589499 v -0.3429 h 2.158999 v 0.3429 h -0.8763 v 3.9814499 h 0.8763 v 0.3429 h -2.158999 v -0.3429 h 0.8763 V 3.1876253 Z m 7.11305,-0.3429 h 0.3937 v 4.6354999 l -0.0762,0.0381 -3.4798,-3.8227 v 3.81635 h -0.3937 V 2.8764753 l 0.06985,-0.03175 3.48615,3.8163499 z m 2.179105,4.6672499 V 2.8447253 h 1.26365 q 0.4826,0 0.9017,0.18415 0.42545,0.18415 0.74295,0.5016499 0.3175,0.3175 0.50165,0.74295 0.18415,0.4191 0.18415,0.9017 0,0.4826 -0.18415,0.90805 -0.18415,0.42545 -0.50165,0.74295 -0.3175,0.3175 -0.74295,0.50165 -0.4191,0.18415 -0.9017,0.18415 z m 0.3937,-4.3052999 v 3.9433499 h 0.85725 q 0.41275,0 0.76835,-0.1524 0.3556,-0.15875 0.61595,-0.42545 0.2667,-0.2667 0.4191,-0.6223 0.1524,-0.36195 0.1524,-0.7747 0,-0.4064 -0.1524,-0.762 -0.1524,-0.36195 -0.4191,-0.62865 -0.26035,-0.2667 -0.6223,-0.4191 -0.3556,-0.1587499 -0.762,-0.1587499 z m 4.52226,-0.36195 h 2.72415 v 0.3429 h -2.31775 v 1.7970499 h 2.15265 v 0.3302 h -2.15265 v 1.8542 h 2.31775 v 0.3429 h -2.72415 z m 4.693708,4.6672499 h -0.3937 V 2.8447253 h 1.9304 q 0.3048,0 0.5715,0.1143 0.2667,0.1143 0.46355,0.3174999 0.2032,0.19685 0.3175,0.46355 0.1143,0.2667 0.1143,0.5715 0,0.50165 -0.27305,0.8636 -0.27305,0.36195 -0.73025,0.5207 l 0.9525,1.8161 h -0.4191 l -0.92075,-1.7399 h -1.6129 z m 1.50495,-2.07645 q 0.2413,0 0.4445,-0.0889 0.20955,-0.0889 0.3556,-0.2413 0.1524,-0.1524 0.23495,-0.3556 0.08255,-0.20955 0.08255,-0.43815 0,-0.23495 -0.0889,-0.43815 -0.08255,-0.2032 -0.23495,-0.3556 -0.1524,-0.1524 -0.3556,-0.2413 -0.2032,-0.0889 -0.43815,-0.0889 h -1.50495 v 2.2478999 z"
   id="text15"
   style="font-weight:300;font-size:6.35px;line-height:0;font-family:'Liber Grotesque Family';-inkscape-font-specification:'Liber Grotesque Family, Light';text-align:center;letter-spacing:0.661458px;word-spacing:0.254px;text-anchor:middle;fill:#ebe9c6;fill-opacity:0.818543;fill-rule:evenodd;stroke-width:0;stroke-linecap:round;paint-order:fill markers stroke"
   aria-label="FATEBINDER" /></svg>
