<?xml version="1.0" encoding="UTF-8" standalone="no"?>
<svg
   width="101.6mm"
   height="128.5mm"
   viewBox="0 0 101.6 128.5"
   version="1.1"
   id="svg28"
   xml:space="preserve"
   sodipodi:docname="Fatebinder.svg"
   inkscape:version="1.4.3 (0d15f75, 2025-12-25)"
   xmlns:inkscape="http://www.inkscape.org/namespaces/inkscape"
   xmlns:sodipodi="http://sodipodi.sourceforge.net/DTD/sodipodi-0.dtd"
   xmlns="http://www.w3.org/2000/svg"
   xmlns:svg="http://www.w3.org/2000/svg"><sodipodi:namedview
   id="namedview14"
   pagecolor="#505050"
   bordercolor="#eeeeee"
   borderopacity="1"
   inkscape:showpageshadow="0"
   inkscape:pageopacity="0"
   inkscape:pagecheckerboard="0"
   inkscape:deskcolor="#505050"
   inkscape:document-units="mm"
   inkscape:zoom="8.3950161"
   inkscape:cx="170.16048"
   inkscape:cy="42.942145"
   inkscape:window-width="1800"
   inkscape:window-height="1101"
   inkscape:window-x="0"
   inkscape:window-y="40"
   inkscape:window-maximized="1"
   inkscape:current-layer="svg28"
   showguides="false" />

<defs
   id="defs28">
   <!-- Matte texture filter using SVG turbulence -->
   <filter
   id="matteTexture"
   x="0"
   y="0"
   width="1"
   height="1">
     <feTurbulence
   baseFrequency="0.9"
   numOctaves="4"
   result="turbulence"
   id="feTurbulence1" />
     <feColorMatrix
   in="turbulence"
   type="saturate"
   values="0"
   id="feColorMatrix1" />
     <feComposite
   in="SourceGraphic"
   in2="turbulence"
   operator="multiply"
   id="feComposite1" />
   </filter>

   <!-- Panel gradient to match other modules -->
   <linearGradient
   id="panelGradient"
   x1="0%"
   y1="0%"
   x2="100%"
   y2="100%">
     <stop
   offset="0%"
   style="stop-color:#2a2a2a;stop-opacity:1"
   id="stop1" />
     <stop
   offset="50%"
   style="stop-color:#1f1f1f;stop-opacity:1"
   id="stop2" />
     <stop
   offset="100%"
   style="stop-color:#1a1a1a;stop-opacity:1"
   id="stop3" />
   </linearGradient>

  
  
  

  
  
  

  
  

  
  
  

  
  
  
  
  

  
  
  
  
  
  
  
  

  
  
  
  
  
  
  
  

  
  
  
  
  
  
  
  

  
  
  
  
  
  
  
  

  
  

  
  
  
  
  
  
  
  
  
  
  
  
  
  
  
  
  
  
  
  
  
  
  
  
  
  
  
  
  
  
  
  
  
  
  
  
  
</defs>

<!-- Matte black background with texture to match other modules -->

<!-- Control alignment markers (hidden in panel render) -->
<rect
   id="unified-display"
   x="10.516528"
   y="9.4455919"
   width="81.440002"
   height="35"
   style="display:none;fill:#ff0000;fill-opacity:1;stroke:#ff0000;stroke-width:0.35;stroke-linecap:round;stroke-opacity:1;paint-order:fill markers stroke" /><circle
   id="steps-knob"
   cx="70.831474"
   cy="76.485321"
   r="3"
   style="display:none;fill:#ff0000;fill-opacity:1;stroke:#ff0000;stroke-width:0.35;stroke-linecap:round;stroke-opacity:1;paint-order:fill markers stroke" /><circle
   id="hits-knob"
   cx="10.660953"
   cy="56.30405"
   r="3"
   style="display:none;fill:#ff0000;fill-opacity:1;stroke:#ff0000;stroke-width:0.35;stroke-linecap:round;stroke-opacity:1;paint-order:fill markers stroke" /><circle
   id="rotation-knob"
   cx="30.400261"
   cy="56.30405"
   r="3"
   style="display:none;fill:#ff0000;fill-opacity:1;stroke:#ff0000;stroke-width:0.35;stroke-linecap:round;stroke-opacity:1;paint-order:fill markers stroke" /><circle
   id="ring2-knob"
   cx="50.139568"
   cy="96.666595"
   r="3"
   style="display:none;fill:#ff0000;fill-opacity:1;stroke:#ff0000;stroke-width:0.35;stroke-linecap:round;stroke-opacity:1;paint-order:fill markers stroke" /><circle
   id="ring3-knob"
   cx="70.355179"
   cy="96.666595"
   r="3"
   style="display:none;fill:#ff0000;fill-opacity:1;stroke:#ff0000;stroke-width:0.35;stroke-linecap:round;stroke-opacity:1;paint-order:fill markers stroke" /><circle
   id="probability-knob"
   cx="70.831474"
   cy="56.30405"
   r="3"
   style="display:none;fill:#ff0000;fill-opacity:1;stroke:#ff0000;stroke-width:0.35;stroke-linecap:round;stroke-opacity:1;paint-order:fill markers stroke" /><circle
   id="chaos-knob"
   cx="91.070786"
   cy="56.30405"
   r="3.5"
   style="display:none;fill:#ff0000;fill-opacity:1;stroke:#ff0000;stroke-width:0.35;stroke-linecap:round;stroke-opacity:1;paint-order:fill markers stroke" /><circle
   id="tempo-knob"
   cx="50.139568"
   cy="56.30405"
   r="3"
   style="display:none;fill:#ff0000;fill-opacity:1;stroke:#ff0000;stroke-width:0.35;stroke-linecap:round;stroke-opacity:1;paint-order:fill markers stroke" /><circle
   id="mutation-knob"
   cx="90.570786"
   cy="96.666595"
   r="3"
   style="display:none;fill:#ff0000;fill-opacity:1;stroke:#ff0000;stroke-width:0.35;stroke-linecap:round;stroke-opacity:1;paint-order:fill markers stroke" /><circle
   id="freeze-btn"
   cx="10.660953"
   cy="87.721794"
   r="2.4000001"
   style="display:none;fill:#ff0000;fill-opacity:1;stroke:#ff0000;stroke-width:0.35;stroke-linecap:round;stroke-opacity:1;paint-order:fill markers stroke" /><circle
   id="reset-btn"
   cx="30.429573"
   cy="87.721794"
   r="2.4000001"
   style="display:none;fill:#ff0000;fill-opacity:1;stroke:#ff0000;stroke-width:0.35;stroke-linecap:round;stroke-opacity:1;paint-order:fill markers stroke" /><circle
   id="attack-knob"
   cx="10.660953"
   cy="73.898895"
   r="3"
   style="display:none;fill:#ff0000;fill-opacity:1;stroke:#ff0000;stroke-width:0.35;stroke-linecap:round;stroke-opacity:1;paint-order:fill markers stroke" /><circle
   id="decay-knob"
   cx="30.429573"
   cy="73.898895"
   r="3"
   style="display:none;fill:#ff0000;fill-opacity:1;stroke:#ff0000;stroke-width:0.35;stroke-linecap:round;stroke-opacity:1;paint-order:fill markers stroke" /><circle
   id="clock-input"
   cx="9.3260221"
   cy="114.23654"
   r="2.5999999"
   style="display:none;fill:#ff0000;fill-opacity:1;stroke:#ff0000;stroke-width:0.35;stroke-linecap:round;stroke-opacity:1;paint-order:fill markers stroke" /><circle
   id="reset-input"
   cx="20.800663"
   cy="114.23654"
   r="2.5999999"
   style="display:none;fill:#ff0000;fill-opacity:1;stroke:#ff0000;stroke-width:0.35;stroke-linecap:round;stroke-opacity:1;paint-order:fill markers stroke" /><circle
   id="chaos-cv-input"
   cx="20.800663"
   cy="100.12827"
   r="2.5999999"
   style="display:none;fill:#ff0000;fill-opacity:1;stroke:#ff0000;stroke-width:0.35;stroke-linecap:round;stroke-opacity:1;paint-order:fill markers stroke" /><circle
   id="rotation-cv"
   cx="32.275303"
   cy="100.12827"
   r="2.5999999"
   style="display:none;fill:#ff0000;fill-opacity:1;stroke:#ff0000;stroke-width:0.35;stroke-linecap:round;stroke-opacity:1;paint-order:fill markers stroke"
   inkscape:label="rotation-cv" /><circle
   id="probability-cv-input"
   cx="9.3260221"
   cy="100.12827"
   r="2.5999999"
   style="display:none;fill:#ff0000;fill-opacity:1;stroke:#ff0000;stroke-width:0.35;stroke-linecap:round;stroke-opacity:1;paint-order:fill markers stroke" /><path
   id="path27-8-4-9-7-4-5"
   style="display:inline;opacity:0.800745;fill:#c9c2ba;fill-opacity:0.937255;fill-rule:evenodd;stroke-width:0.150714;stroke-linecap:round;stroke-linejoin:round;stroke-opacity:0.937255;paint-order:fill markers stroke"
   d="m 36.868409,114.23656 a 4.5931138,4.5931138 0 0 1 -4.593114,4.5931 4.5931138,4.5931138 0 0 1 -4.593113,-4.5931 4.5931138,4.5931138 0 0 1 4.593113,-4.59312 4.5931138,4.5931138 0 0 1 4.593114,4.59312 z" /><circle
   id="ring1-output"
   cx="32.275295"
   cy="114.23654"
   r="2.5999999"
   style="display:none;fill:#ff0000;fill-opacity:1;stroke:#ff0000;stroke-width:0.35;stroke-linecap:round;stroke-opacity:1;paint-order:fill markers stroke" /><path
   id="path27-8-4-9-7-4-3"
   style="display:inline;opacity:0.800745;fill:#c9c2ba;fill-opacity:0.937255;fill-rule:evenodd;stroke-width:0.150714;stroke-linecap:round;stroke-linejoin:round;stroke-opacity:0.937255;paint-order:fill markers stroke"
   d="m 48.343045,114.23656 a 4.5931138,4.5931138 0 0 1 -4.593114,4.5931 4.5931138,4.5931138 0 0 1 -4.593113,-4.5931 4.5931138,4.5931138 0 0 1 4.593113,-4.59312 4.5931138,4.5931138 0 0 1 4.593114,4.59312 z" /><circle
   id="ring2-output"
   cx="43.749931"
   cy="114.23654"
   r="2.5999999"
   style="display:none;fill:#ff0000;fill-opacity:1;stroke:#ff0000;stroke-width:0.35;stroke-linecap:round;stroke-opacity:1;paint-order:fill markers stroke" /><path
   id="path27-8-4-9-7-4-9"
   style="display:inline;opacity:0.800745;fill:#c9c2ba;fill-opacity:0.937255;fill-rule:evenodd;stroke-width:0.150714;stroke-linecap:round;stroke-linejoin:round;stroke-opacity:0.937255;paint-order:fill markers stroke"
   d="m 59.817679,114.23656 a 4.5931138,4.5931138 0 0 1 -4.59311,4.5931 4.5931138,4.5931138 0 0 1 -4.593113,-4.5931 4.5931138,4.5931138 0 0 1 4.593113,-4.59312 4.5931138,4.5931138 0 0 1 4.59311,4.59312 z" /><circle
   id="ring3-output"
   cx="55.224567"
   cy="114.23654"
   r="2.5999999"
   style="display:none;fill:#ff0000;fill-opacity:1;stroke:#ff0000;stroke-width:0.35;stroke-linecap:round;stroke-opacity:1;paint-order:fill markers stroke" /><path
   id="path27-8-4-9-7-4-2"
   style="display:inline;opacity:0.800745;fill:#c9c2ba;fill-opacity:0.937255;fill-rule:evenodd;stroke-width:0.150714;stroke-linecap:round;stroke-linejoin:round;stroke-opacity:0.937255;paint-order:fill markers stroke"
   d="m 71.292311,114.23656 a 4.5931138,4.5931138 0 0 1 -4.59311,4.5931 4.5931138,4.5931138 0 0 1 -4.59312,-4.5931 4.5931138,4.5931138 0 0 1 4.59312,-4.59312 4.5931138,4.5931138 0 0 1 4.59311,4.59312 z" /><circle
   id="gate-output"
   cx="66.699196"
   cy="114.23654"
   r="2.5999999"
   style="display:none;fill:#ff0000;fill-opacity:1;stroke:#ff0000;stroke-width:0.35;stroke-linecap:round;stroke-opacity:1;paint-order:fill markers stroke" /><path
   id="path27-8-4-9-7-4-6"
   style="display:inline;opacity:0.800745;fill:#c9c2ba;fill-opacity:0.937255;fill-rule:evenodd;stroke-width:0.150714;stroke-linecap:round;stroke-linejoin:round;stroke-opacity:0.937255;paint-order:fill markers stroke"
   d="m 82.766951,114.23656 a 4.5931138,4.5931138 0 0 1 -4.59312,4.5931 4.5931138,4.5931138 0 0 1 -4.59311,-4.5931 4.5931138,4.5931138 0 0 1 4.59311,-4.59312 4.5931138,4.5931138 0 0 1 4.59312,4.59312 z" /><circle
   id="accent-output"
   cx="78.173836"
   cy="114.23654"
   r="2.5999999"
   style="display:none;fill:#ff0000;fill-opacity:1;stroke:#ff0000;stroke-width:0.35;stroke-linecap:round;stroke-opacity:1;paint-order:fill markers stroke" /><path
   id="path27-8-4-9-7-4"
   style="display:inline;opacity:0.800745;fill:#c9c2ba;fill-opacity:0.937255;fill-rule:evenodd;stroke-width:0.150714;stroke-linecap:round;stroke-linejoin:round;stroke-opacity:0.937255;paint-order:fill markers stroke"
   d="m 94.241583,114.23656 a 4.5931138,4.5931138 0 0 1 -4.59312,4.5931 4.5931138,4.5931138 0 0 1 -4.59311,-4.5931 4.5931138,4.5931138 0 0 1 4.59311,-4.59312 4.5931138,4.5931138 0 0 1 4.59312,4.59312 z" /><circle
   id="main-output"
   cx="89.648468"
   cy="114.23654"
   r="2.5999999"
   style="display:none;fill:#ff0000;fill-opacity:1;stroke:#ff0000;stroke-width:0.35;stroke-linecap:round;stroke-opacity:1;paint-order:fill markers stroke" />


<path
   d="m -127.19098,96.923296 h 0.0889 v 0.457198 q 0,0.06985 0.0169,0.118533 0.0169,0.04762 0.055,0.07197 0.0392,0.02434 0.10477,0.02434 0.0656,0 0.10372,-0.02434 0.0392,-0.02434 0.0561,-0.07197 0.0169,-0.04868 0.0169,-0.118533 v -0.457198 h 0.0889 v 0.436032 q 0,0.106891 -0.0264,0.177799 -0.0254,0.06985 -0.0847,0.103717 -0.0593,0.03387 -0.15769,0.03387 -0.0984,0 -0.15558,-0.03387 -0.0571,-0.03387 -0.0825,-0.103717 -0.0243,-0.07091 -0.0243,-0.177799 z m 1.17157,0.738714 -0.26987,-0.450848 -0.0889,-0.164042 h -0.003 v 0.164042 0.450848 h -0.0868 v -0.738714 h 0.10266 l 0.26987,0.450848 0.0889,0.164042 h 0.003 v -0.164042 -0.450848 h 0.0868 v 0.738714 z m 0.56092,0 h -0.29633 v -0.07408 h 0.10371 v -0.590548 h -0.10371 v -0.07408 h 0.29633 v 0.07408 h -0.10372 v 0.590548 h 0.10372 z m 0.63817,-0.660398 h -0.23495 v 0.660398 h -0.0889 v -0.660398 h -0.23495 v -0.07832 h 0.5588 z m 0.72284,0.673098 q -0.0878,0 -0.14499,-0.04551 -0.0561,-0.04551 -0.0825,-0.130175 -0.0265,-0.08572 -0.0265,-0.206374 0,-0.12065 0.0265,-0.206374 0.0265,-0.08573 0.0825,-0.130175 0.0571,-0.04551 0.14499,-0.04551 0.0889,0 0.14499,0.04551 0.0561,0.04445 0.0825,0.130175 0.0265,0.08572 0.0265,0.206374 0,0.12065 -0.0265,0.206374 -0.0264,0.08467 -0.0825,0.130175 -0.0561,0.04551 -0.14499,0.04551 z m 0,-0.07726 q 0.0582,0 0.0931,-0.03069 0.0349,-0.03175 0.0508,-0.08678 0.0169,-0.05609 0.0169,-0.126999 v -0.12065 q 0,-0.07197 -0.0169,-0.126999 -0.0159,-0.05503 -0.0508,-0.08572 -0.0349,-0.03175 -0.0931,-0.03175 -0.0571,0 -0.0931,0.03175 -0.0349,0.03069 -0.0519,0.08572 -0.0159,0.05503 -0.0159,0.126999 v 0.12065 q 0,0.07091 0.0159,0.126999 0.0169,0.05503 0.0519,0.08678 0.036,0.03069 0.0931,0.03069 z m 0.51329,-0.36089 h 0.0804 q 0.0751,0 0.11218,-0.03493 0.0381,-0.03493 0.0381,-0.08784 v -0.0074 q 0,-0.05821 -0.037,-0.08678 -0.036,-0.02963 -0.0952,-0.02963 -0.0572,0 -0.0931,0.0254 -0.036,0.02434 -0.0593,0.06667 l -0.0656,-0.0508 q 0.019,-0.02963 0.0476,-0.05715 0.0286,-0.02752 0.0709,-0.04551 0.0423,-0.01799 0.1016,-0.01799 0.0624,0 0.11324,0.02223 0.0508,0.02117 0.0804,0.06244 0.0307,0.04127 0.0307,0.1016 0,0.07091 -0.0413,0.1143 -0.0413,0.04339 -0.10055,0.05821 v 0.0042 q 0.0402,0.0074 0.0751,0.03069 0.036,0.02223 0.0582,0.06138 0.0222,0.0381 0.0222,0.09419 0,0.0635 -0.0318,0.112183 -0.0307,0.04762 -0.0878,0.07514 -0.0561,0.02752 -0.13123,0.02752 -0.0635,0 -0.10901,-0.01799 -0.0444,-0.01905 -0.0762,-0.04762 -0.0307,-0.02858 -0.054,-0.06033 l 0.0667,-0.0508 q 0.0286,0.04339 0.0656,0.07091 0.0381,0.02646 0.10584,0.02646 0.0783,0 0.11853,-0.03598 0.0402,-0.03598 0.0402,-0.100541 v -0.0085 q 0,-0.06562 -0.0402,-0.100541 -0.0402,-0.03598 -0.11853,-0.03598 h -0.0868 z m 0.75777,0.438148 q -0.0762,0 -0.13229,-0.03387 -0.055,-0.03493 -0.0857,-0.09843 -0.0296,-0.0635 -0.0296,-0.151341 0,-0.08255 0.0233,-0.154516 0.0243,-0.07197 0.0635,-0.132292 0.0402,-0.06033 0.0857,-0.105833 0.0466,-0.04657 0.091,-0.07514 h 0.1143 q -0.0783,0.05715 -0.13546,0.113241 -0.0561,0.05503 -0.0931,0.119591 -0.037,0.06456 -0.0571,0.150283 l 0.005,0.0021 q 0.018,-0.03069 0.0413,-0.05397 0.0243,-0.02434 0.0582,-0.0381 0.0339,-0.01376 0.0783,-0.01376 0.0635,0 0.11218,0.02752 0.0497,0.02752 0.0773,0.07937 0.0286,0.0508 0.0286,0.12065 0,0.07197 -0.0307,0.128058 -0.0307,0.05503 -0.0857,0.08572 -0.055,0.03069 -0.12911,0.03069 z m -0.001,-0.07726 q 0.0487,0 0.0825,-0.01799 0.0349,-0.01799 0.0529,-0.05292 0.019,-0.03493 0.019,-0.08467 v -0.0085 q 0,-0.04974 -0.019,-0.08467 -0.018,-0.03492 -0.0529,-0.05292 -0.0339,-0.01799 -0.0825,-0.01799 -0.0487,0 -0.0836,0.01799 -0.0339,0.01799 -0.0529,0.05292 -0.018,0.03493 -0.018,0.08467 v 0.0085 q 0,0.04974 0.018,0.08467 0.019,0.03493 0.0529,0.05292 0.0349,0.01799 0.0836,0.01799 z m 0.84455,-0.674156 v 0.07832 h -0.32385 l -0.0212,0.281516 h 0.007 q 0.018,-0.0254 0.0381,-0.04339 0.0201,-0.01799 0.0476,-0.02752 0.0275,-0.01058 0.0656,-0.01058 0.0635,0 0.11324,0.02752 0.0497,0.02752 0.0783,0.07832 0.0286,0.0508 0.0286,0.122766 0,0.07197 -0.0296,0.127 -0.0296,0.05503 -0.0857,0.08678 -0.055,0.03069 -0.13335,0.03069 -0.0614,0 -0.10478,-0.01799 -0.0434,-0.01905 -0.0741,-0.04762 -0.0296,-0.02858 -0.0519,-0.06033 l 0.0667,-0.0508 q 0.0286,0.04339 0.0624,0.07091 0.0349,0.02646 0.1016,0.02646 0.0751,0 0.1143,-0.04022 0.0402,-0.04022 0.0402,-0.113241 v -0.01058 q 0,-0.07302 -0.0402,-0.113241 -0.0392,-0.04022 -0.1143,-0.04022 -0.0508,0 -0.0804,0.01905 -0.0286,0.01799 -0.0519,0.04339 l -0.0751,-0.01058 0.0265,-0.406399 z m 0.67204,0.660398 v 0.07832 h -0.48472 v -0.09102 l 0.2413,-0.22225 q 0.0519,-0.04762 0.0868,-0.101599 0.0349,-0.05398 0.0349,-0.106892 v -0.0127 q 0,-0.06138 -0.0339,-0.09948 -0.0339,-0.0381 -0.10265,-0.0381 -0.0677,0 -0.10372,0.03598 -0.0349,0.03598 -0.0497,0.0889 l -0.0794,-0.03069 q 0.0148,-0.04339 0.0423,-0.08255 0.0286,-0.04022 0.0762,-0.06562 0.0476,-0.0254 0.11853,-0.0254 0.072,0 0.12276,0.02752 0.0508,0.02752 0.0773,0.0762 0.0265,0.04762 0.0265,0.111125 0,0.05715 -0.0212,0.104775 -0.0201,0.04762 -0.0572,0.08996 -0.036,0.04233 -0.0836,0.08467 l -0.19897,0.178858 z"
   id="text2"
   style="font-size:1.05833px;line-height:0;font-family:'IBM Plex Sans';-inkscape-font-specification:'IBM Plex Sans, Normal';text-align:center;letter-spacing:0px;word-spacing:0.132292px;text-anchor:middle;opacity:0.900489;fill:#eedcbb;fill-opacity:0.890196;fill-rule:evenodd;stroke-width:0.1;stroke-linecap:round;stroke-linejoin:round;stroke-opacity:0.631373;paint-order:fill markers stroke"
   transform="rotate(-90)"
   aria-label="UNIT 03652 " /><path
   style="font-weight:600;font-size:2.82222px;line-height:0;font-family:Neokurat;-inkscape-font-specification:'Neokurat, Semi-Bold';text-align:center;letter-spacing:0.529167px;word-spacing:0.79375px;text-anchor:middle;fill:#eedcbb;fill-opacity:0.89019608;fill-rule:evenodd;stroke-width:0.04;stroke-linecap:round;stroke-linejoin:round;stroke-opacity:0.898039;paint-order:fill markers stroke;opacity:0.94822485"
   transform="translate(0,1.058875)"
   d="m 41.073027,125.08186 c -0.163689,-0.0705 -0.285044,-0.10724 -0.434622,-0.14111 -0.206022,-0.048 -0.400755,-0.127 -0.400755,-0.29351 0,-0.0169 0.0028,-0.0339 0.0056,-0.0508 0.03104,-0.15804 0.220134,-0.26811 0.437445,-0.27093 0.0028,0 0.0028,0 0.0056,0 0.180622,0 0.372533,0.0621 0.510822,0.2032 l 0.174977,-0.16369 c -0.121355,-0.13547 -0.386644,-0.27375 -0.680155,-0.27375 -0.0056,0 -0.01129,0.003 -0.01693,0.003 -0.454377,0.006 -0.660399,0.30197 -0.680155,0.48823 -0.0028,0.0169 -0.0056,0.0367 -0.0056,0.0536 0,0.2286 0.180622,0.42898 0.462844,0.50518 0.183444,0.0508 0.333022,0.079 0.530577,0.16087 0.09596,0.0423 0.194733,0.11571 0.194733,0.24553 0,0.0254 -0.0028,0.0536 -0.01129,0.0819 -0.05644,0.1778 -0.253999,0.254 -0.437444,0.26246 -0.01129,0.003 -0.0254,0.003 -0.03669,0.003 -0.259644,0 -0.533399,-0.11571 -0.62371,-0.22577 l -0.191911,0.15522 c 0.149577,0.19473 0.536222,0.30762 0.82691,0.30762 0.285045,0 0.612422,-0.13547 0.697089,-0.43744 0.01693,-0.0508 0.02258,-0.1016 0.02258,-0.14676 0,-0.2032 -0.124177,-0.37253 -0.349955,-0.46567 z m 2.473677,-0.94826 v 0.76764 h -1.114777 v -0.76764 h -0.239888 v 1.9558 h 0.239888 v -0.94827 h 1.114777 v 0.94827 h 0.239889 v -1.9558 z m 1.948742,-0.0395 -1.018822,1.9953 h 0.268111 l 0.333022,-0.65194 h 0.832555 l 0.333022,0.65194 h 0.270933 z m -0.299156,1.11476 0.299156,-0.58701 0.299155,0.58701 z m 3.385253,-0.9285 c -0.112888,-0.0903 -0.259644,-0.14675 -0.417688,-0.14675 H 47.2043 v 1.9558 h 0.239889 v -0.61807 h 0.719666 c 0.369711,0 0.668866,-0.29915 0.668866,-0.66886 0,-0.21167 -0.09878,-0.39794 -0.251178,-0.52212 z m 0.01129,0.52212 c 0,0.23706 -0.191911,0.42897 -0.428977,0.42897 H 47.44419 v -0.85513 h 0.719666 c 0.237066,0 0.428977,0.19191 0.428977,0.42616 z m 1.231901,1.04704 v -0.6604 h 1.03011 v -0.23989 h -1.03011 v -0.57291 h 1.219199 v -0.24271 h -1.459088 v 1.9558 h 1.498599 v -0.23989 z m 1.849967,-1.71591 v 0.24271 h 0.694267 v 1.71308 h 0.239888 v -1.71308 h 0.694266 v -0.24271 z m 2.865963,-0.0395 -1.018821,1.9953 h 0.268111 l 0.333022,-0.65193 h 0.832555 l 0.333022,0.65193 h 0.270933 z m -0.299155,1.11477 0.299155,-0.58702 0.299156,0.58702 z m 2.727676,-0.0931 0.97931,-0.98214 h -0.341488 l -0.809977,0.80998 -0.307622,-0.30762 v -0.50236 h -0.242711 v 1.95581 h 0.242711 v -1.11478 l 1.114777,1.11478 h 0.341488 z m 1.920522,0.73378 v -0.66041 h 1.03011 v -0.23989 h -1.03011 v -0.57291 h 1.219199 v -0.24276 h -1.459089 v 1.9558 h 1.498599 v -0.23989 z m 3.706988,0.23989 -0.451555,-0.44874 c 0.231422,-0.14393 0.383822,-0.39793 0.383822,-0.69144 0,-0.44873 -0.364067,-0.81562 -0.815622,-0.81562 h -0.812799 v 1.95862 h 0.239889 v -1.13453 l 1.13171,1.13453 z m -0.307622,-1.14018 c 0,0.20038 -0.110066,0.40922 -0.318911,0.51647 L 61.14043,124.636 v -0.25964 h 0.57291 c 0.316089,0 0.575733,0.25682 0.575733,0.57291 z"
   id="text6"
   aria-label="SHPETE" /><path
   style="font-weight:600;font-size:6.35px;line-height:0;font-family:Neokurat;-inkscape-font-specification:'Neokurat, Semi-Bold';text-align:center;letter-spacing:1.05833px;word-spacing:0.132292px;text-anchor:middle;opacity:0.900489;fill:#eedcbb;fill-opacity:0.890196;fill-rule:evenodd;stroke-width:0.0764326;stroke-linecap:round;stroke-linejoin:round;stroke-opacity:0.631373;paint-order:fill markers stroke"
   d="m 36.353389,2.0117347 h 0.44652 V 1.5991901 h -0.44652 c -0.529026,0 -0.951279,0.4222513 -0.951279,0.9512789 v 2.4121714 h 0.412544 V 3.2493676 h 0.732874 V 2.8368232 H 35.814654 V 2.550469 c 0,-0.2960612 0.242675,-0.5387343 0.538735,-0.5387343 z m 2.677497,0.072802 c -0.815381,0 -1.470599,0.6552175 -1.470599,1.4705996 0,0.8105281 0.655218,1.4705992 1.470599,1.4705992 0.67463,0 1.058055,-0.4465186 1.058055,-0.4465186 V 4.957787 h 0.412544 V 3.555136 c 0,-0.8105285 -0.660071,-1.4705995 -1.470599,-1.4705993 z m 1.067761,1.4705996 c 0,0.5872689 -0.480493,1.0677617 -1.067761,1.0677617 -0.592123,0 -1.072615,-0.4804928 -1.072615,-1.0677617 0,-0.5921228 0.480492,-1.0726158 1.072615,-1.0726158 0.57756,0 1.067761,0.4756395 1.067761,1.0726158 z m 2.60469,0.9901061 c -0.296061,0 -0.538733,-0.2378196 -0.538733,-0.5387344 V 2.5747362 h 0.732871 V 2.1573384 H 42.164604 V 1.5991901 H 41.752059 V 4.006508 c 0,0.5290275 0.422251,0.9561324 0.951278,0.9561324 h 0.446519 v -0.417398 z m 4.259716,-0.9901069 c 0,-0.8105283 -0.66007,-1.4705994 -1.470599,-1.4705994 -0.815382,0 -1.470599,0.6600711 -1.470599,1.4705994 0,0.8153819 0.655217,1.4705995 1.470599,1.4705995 0.359157,0 0.684339,-0.1261901 0.941572,-0.3397426 L 46.137963,4.389932 c -0.179577,0.1407504 -0.402837,0.2232593 -0.645509,0.2232593 -0.538735,0 -0.985253,-0.4076911 -1.048348,-0.9270115 h 2.514096 c 0,-0.04368 0.0048,-0.087361 0.0048,-0.1310435 z M 44.473227,3.2687814 c 0.12619,-0.4416651 0.533881,-0.7717006 1.019227,-0.7717006 0.480492,0 0.893038,0.3300355 1.014373,0.7717006 z m 5.133341,-1.1842449 c -0.407691,0 -0.791115,0.1698713 -1.058056,0.4465185 V 1.5943365 h -0.417399 v 3.3634504 h 0.417399 V 4.5792166 c 0.266941,0.2766475 0.640658,0.4465187 1.058056,0.4465187 0.810527,0 1.470598,-0.6600711 1.470598,-1.4705993 0,-0.815382 -0.660071,-1.4705995 -1.470598,-1.4705995 z m 0,2.5383613 c -0.592124,0 -1.072615,-0.4756394 -1.072615,-1.0677618 0,-0.5921227 0.480491,-1.0677621 1.072615,-1.0677621 0.587268,0 1.067761,0.4756394 1.067761,1.0677621 0,0.5921224 -0.480493,1.0677618 -1.067761,1.0677618 z m 2.886193,-3.2809413 c -0.160163,0 -0.286354,0.1310434 -0.286354,0.2912079 0,0.1601642 0.126191,0.2863544 0.286354,0.2863544 0.160164,0 0.286355,-0.1310437 0.286355,-0.2863544 0,-0.1601645 -0.126191,-0.2912079 -0.286355,-0.2912079 z m 0.198993,3.6206839 v -2.805302 h -0.402837 v 2.805302 z m 2.415409,-2.8732503 c -0.364009,0 -0.684335,0.1650177 -0.89789,0.431958 -0.155312,0.1941385 -0.247526,0.4465187 -0.247526,0.7183127 v 1.7229796 h 0.422251 V 3.2396608 c 0,-0.4028376 0.325181,-0.7231662 0.723165,-0.7231662 0.397985,0 0.723166,0.3203286 0.723166,0.7231662 v 1.7229796 h 0.427106 V 3.2396608 c 0,-0.6358038 -0.514468,-1.1502707 -1.150272,-1.1502707 z M 59.963864,1.5943365 V 2.531055 C 59.696923,2.2544078 59.318354,2.0845365 58.90581,2.0845365 c -0.815383,0 -1.470599,0.6552175 -1.470599,1.4705995 0,0.8105282 0.655216,1.4705993 1.470599,1.4705993 0.412544,0 0.791113,-0.1698712 1.058054,-0.4465187 v 0.3785703 h 0.412545 V 1.5943365 Z M 58.90581,4.6228978 c -0.592124,0 -1.072616,-0.4756394 -1.072616,-1.0677618 0,-0.5921227 0.480492,-1.0677621 1.072616,-1.0677621 0.587268,0 1.067761,0.4756394 1.067761,1.0677621 0,0.5921224 -0.480493,1.0677618 -1.067761,1.0677618 z M 64.534209,3.555136 c 0,-0.8105285 -0.660072,-1.4705995 -1.470601,-1.4705995 -0.815381,0 -1.470599,0.660071 -1.470599,1.4705995 0,0.8153817 0.655218,1.4705993 1.470599,1.4705993 0.359156,0 0.684339,-0.12619 0.941572,-0.3397426 L 63.709119,4.3899315 C 63.529541,4.530682 63.30628,4.613191 63.063608,4.613191 c -0.538734,0 -0.985253,-0.4076911 -1.048346,-0.9270117 h 2.514092 c 0,-0.04368 0.0049,-0.087362 0.0049,-0.1310433 z M 62.04438,3.2687814 c 0.12619,-0.4416651 0.533882,-0.7717006 1.019228,-0.7717006 0.480494,0 0.893038,0.3300355 1.014374,0.7717006 z m 4.580049,-1.111443 c -0.529027,0 -0.95128,0.4271049 -0.95128,0.9561322 v 1.8491698 h 0.412545 V 3.1134706 c 0,-0.3009149 0.242673,-0.5435878 0.538735,-0.5435878 h 0.446519 V 2.1573384 Z"
   id="text1"
   aria-label="fatebinder" /><path
   d="m -126.63219,98.175562 h -0.23495 v 0.660398 h -0.0889 v -0.660398 h -0.23495 v -0.07832 h 0.5588 z m 0.38523,0.660398 h -0.0889 v -0.292099 l -0.254,-0.446615 h 0.1016 l 0.19685,0.355599 h 0.003 l 0.19685,-0.355599 h 0.1016 l -0.25718,0.44344 z m 0.45826,0 h -0.0889 v -0.738714 h 0.29421 q 0.0667,0 0.11219,0.02646 0.0466,0.0254 0.0699,0.07303 0.0243,0.04657 0.0243,0.112183 0,0.06456 -0.0243,0.112183 -0.0233,0.04763 -0.0699,0.07408 -0.0455,0.0254 -0.11219,0.0254 h -0.20531 z m 0,-0.660398 v 0.2667 h 0.20531 q 0.0349,0 0.0593,-0.01164 0.0254,-0.0127 0.0381,-0.03598 0.0138,-0.02434 0.0138,-0.05821 v -0.05503 q 0,-0.03387 -0.0138,-0.05715 -0.0127,-0.02434 -0.0381,-0.03598 -0.0243,-0.0127 -0.0593,-0.0127 z m 1.0033,0.660398 h -0.45085 v -0.738714 h 0.45085 v 0.07832 h -0.36195 v 0.24765 h 0.34078 v 0.07832 h -0.34078 v 0.256116 h 0.36195 z m 0.22225,0.0127 q -0.0328,0 -0.0487,-0.01693 -0.0159,-0.01799 -0.0159,-0.04445 v -0.01376 q 0,-0.02752 0.0159,-0.04445 0.0159,-0.01693 0.0487,-0.01693 0.0339,0 0.0487,0.01693 0.0159,0.01693 0.0159,0.04445 v 0.01376 q 0,0.02646 -0.0159,0.04445 -0.0148,0.01693 -0.0487,0.01693 z m 0,-0.434973 q -0.0328,0 -0.0487,-0.01693 -0.0159,-0.01799 -0.0159,-0.04445 v -0.01376 q 0,-0.02752 0.0159,-0.04445 0.0159,-0.01693 0.0487,-0.01693 0.0339,0 0.0487,0.01693 0.0159,0.01693 0.0159,0.04445 v 0.01376 q 0,0.02646 -0.0159,0.04445 -0.0148,0.01693 -0.0487,0.01693 z m 0.72389,0.104774 v 0.317499 h -0.0889 v -0.738714 h 0.29422 q 0.0646,0 0.11007,0.02434 0.0466,0.02434 0.0709,0.07091 0.0254,0.04657 0.0254,0.114299 0,0.08043 -0.0381,0.13335 -0.0381,0.05292 -0.11006,0.06985 l 0.16933,0.325965 h -0.10054 l -0.15981,-0.317499 z m 0,-0.0762 h 0.20532 q 0.0349,0 0.0593,-0.01164 0.0254,-0.0127 0.0381,-0.03598 0.0138,-0.02434 0.0138,-0.05821 v -0.05503 q 0,-0.03387 -0.0138,-0.05715 -0.0127,-0.02434 -0.0381,-0.03598 -0.0243,-0.0127 -0.0593,-0.0127 h -0.20532 z m 1.05093,0.393698 v -0.334432 h -0.3736 v 0.334432 h -0.0889 v -0.738714 h 0.0889 v 0.325966 h 0.3736 v -0.325966 h 0.0889 v 0.738714 z m 0.54398,0 h -0.0889 v -0.292099 l -0.254,-0.446615 h 0.1016 l 0.19685,0.355599 h 0.003 l 0.19685,-0.355599 h 0.1016 l -0.25717,0.44344 z m 0.8583,-0.660398 h -0.23495 v 0.660398 h -0.0889 v -0.660398 h -0.23495 v -0.07832 h 0.5588 z m 0.5842,0.660398 v -0.334432 h -0.37359 v 0.334432 h -0.0889 v -0.738714 h 0.0889 v 0.325966 h 0.37359 v -0.325966 h 0.0889 v 0.738714 z m 0.28575,0 v -0.738714 h 0.11853 l 0.1397,0.261408 0.072,0.136524 h 0.005 l 0.073,-0.136524 0.1397,-0.261408 h 0.1143 v 0.738714 h -0.0868 v -0.498473 -0.123825 h -0.005 l -0.0624,0.123825 -0.17674,0.321732 -0.17674,-0.321732 -0.0624,-0.123825 h -0.005 v 0.123825 0.498473 z m 1.71979,0 v -0.107949 h -0.003 q -0.0137,0.05186 -0.0677,0.08678 -0.0529,0.03387 -0.13758,0.03387 -0.09,0 -0.15981,-0.04339 -0.0688,-0.04445 -0.10795,-0.129116 -0.0392,-0.08572 -0.0392,-0.20955 0,-0.122766 0.0392,-0.207432 0.0392,-0.08572 0.11007,-0.130175 0.0709,-0.04445 0.1651,-0.04445 0.0995,0 0.16615,0.04551 0.0667,0.04445 0.10266,0.116417 l -0.073,0.04445 q -0.0254,-0.05927 -0.0762,-0.09313 -0.0497,-0.03387 -0.11959,-0.03387 -0.0646,0 -0.1143,0.03069 -0.0498,0.02963 -0.0773,0.08467 -0.0275,0.05397 -0.0275,0.126999 v 0.119592 q 0,0.07302 0.0275,0.128058 0.0275,0.05397 0.0783,0.08467 0.0519,0.03069 0.12171,0.03069 0.0519,0 0.0942,-0.01799 0.0423,-0.01799 0.0677,-0.05398 0.0265,-0.03598 0.0265,-0.08996 v -0.07303 h -0.16299 v -0.07832 h 0.24977 v 0.37994 z m 0.70802,0 h -0.45085 v -0.738714 h 0.45085 v 0.07832 h -0.36195 v 0.24765 h 0.34079 v 0.07832 h -0.34079 v 0.256116 h 0.36195 z m 0.61489,0 -0.26987,-0.450848 -0.0889,-0.164041 h -0.003 v 0.164041 0.450848 h -0.0868 v -0.738714 h 0.10266 l 0.26987,0.450849 0.0889,0.164041 h 0.003 v -0.164041 -0.450849 h 0.0868 v 0.738714 z"
   id="text2-7"
   style="font-size:1.05833px;line-height:0;font-family:'IBM Plex Sans';-inkscape-font-specification:'IBM Plex Sans, Normal';text-align:center;letter-spacing:0px;word-spacing:0.132292px;text-anchor:middle;opacity:0.900489;fill:#eedcbb;fill-opacity:0.890196;fill-rule:evenodd;stroke-width:0.1;stroke-linecap:round;stroke-linejoin:round;stroke-opacity:0.631373;paint-order:fill markers stroke"
   transform="rotate(-90)"
   aria-label="TYPE: RHYTHM GEN" /><path
   d="m -127.10209,100.00991 h -0.0889 v -0.738714 h 0.44027 v 0.07832 h -0.35137 v 0.247649 h 0.32068 v 0.07832 h -0.32068 z m 0.76094,0.0127 q -0.0953,0 -0.16616,-0.04339 -0.0699,-0.04445 -0.109,-0.129116 -0.0381,-0.08573 -0.0381,-0.20955 0,-0.123824 0.0381,-0.208491 0.0391,-0.08572 0.109,-0.129116 0.0709,-0.04445 0.16616,-0.04445 0.0952,0 0.1651,0.04445 0.0709,0.04339 0.10901,0.129116 0.0392,0.08467 0.0392,0.208491 0,0.123825 -0.0392,0.20955 -0.0381,0.08467 -0.10901,0.129116 -0.0699,0.04339 -0.1651,0.04339 z m 0,-0.07937 q 0.0646,0 0.11324,-0.02963 0.0487,-0.03069 0.0762,-0.08467 0.0286,-0.05397 0.0286,-0.126999 V 99.57917 q 0,-0.07303 -0.0286,-0.126999 -0.0275,-0.05503 -0.0762,-0.08467 -0.0487,-0.02963 -0.11324,-0.02963 -0.0635,0 -0.11324,0.02963 -0.0487,0.02963 -0.0773,0.08467 -0.0275,0.05397 -0.0275,0.126999 v 0.122767 q 0,0.07302 0.0275,0.126999 0.0286,0.05397 0.0773,0.08467 0.0497,0.02963 0.11324,0.02963 z m 0.56197,-0.250824 v 0.317498 h -0.0889 v -0.738714 h 0.29422 q 0.0646,0 0.11007,0.02434 0.0466,0.02434 0.0709,0.07091 0.0254,0.04657 0.0254,0.1143 0,0.08043 -0.0381,0.133349 -0.0381,0.05292 -0.11006,0.06985 l 0.16933,0.325965 h -0.10054 l -0.15981,-0.317498 z m 0,-0.0762 h 0.20532 q 0.0349,0 0.0593,-0.01164 0.0254,-0.0127 0.0381,-0.03598 0.0138,-0.02434 0.0138,-0.05821 v -0.05503 q 0,-0.03387 -0.0138,-0.05715 -0.0127,-0.02434 -0.0381,-0.03598 -0.0243,-0.0127 -0.0593,-0.0127 h -0.20532 z m 0.8382,0.406398 q -0.0931,0 -0.15981,-0.04233 -0.0667,-0.04339 -0.10266,-0.126999 -0.0349,-0.08467 -0.0349,-0.208491 0,-0.123825 0.0349,-0.20955 0.036,-0.08678 0.10266,-0.131233 0.0667,-0.04551 0.15981,-0.04551 0.0921,0 0.15558,0.04233 0.0635,0.04233 0.0984,0.119592 l -0.072,0.04339 q -0.0222,-0.05715 -0.0677,-0.09102 -0.0455,-0.03492 -0.1143,-0.03492 -0.0953,0 -0.14922,0.06985 -0.0529,0.06879 -0.0529,0.182033 v 0.110066 q 0,0.113241 0.0529,0.178858 0.054,0.06456 0.14922,0.06456 0.0709,0 0.11853,-0.03598 0.0476,-0.03704 0.0699,-0.09737 l 0.0709,0.04445 q -0.0349,0.07726 -0.1016,0.122766 -0.0656,0.04551 -0.15769,0.04551 z m 0.84772,-0.0127 h -0.45084 v -0.738714 h 0.45084 v 0.07832 h -0.36195 v 0.247649 h 0.34079 v 0.07832 h -0.34079 v 0.256116 h 0.36195 z m 0.16616,0 v -0.738714 h 0.24765 q 0.0921,0 0.15981,0.04127 0.0688,0.04022 0.10583,0.122766 0.037,0.08149 0.037,0.205316 0,0.123825 -0.037,0.206375 -0.037,0.08149 -0.10583,0.122766 -0.0677,0.04022 -0.15981,0.04022 z m 0.0889,-0.07832 h 0.15875 q 0.0614,0 0.10795,-0.02752 0.0466,-0.02752 0.073,-0.07832 0.0264,-0.05186 0.0264,-0.124883 v -0.120649 q 0,-0.07303 -0.0264,-0.124883 -0.0265,-0.05186 -0.073,-0.07832 -0.0466,-0.02752 -0.10795,-0.02752 h -0.15875 z m 1.55892,0.07832 h -0.0931 l -0.0741,-0.218015 h -0.29845 l -0.0741,0.218015 h -0.09 l 0.25823,-0.738714 h 0.11324 z m -0.18944,-0.296332 -0.0931,-0.267757 -0.0317,-0.09207 h -0.005 l -0.0318,0.09207 -0.0931,0.267757 z m 0.71543,0.296332 h -0.40322 v -0.738714 h 0.0889 v 0.660398 h 0.31432 z m 0.38841,0 h -0.29633 v -0.07408 h 0.10371 v -0.590548 h -0.10371 v -0.07408 h 0.29633 v 0.07408 h -0.10372 v 0.590548 h 0.10372 z m 0.64029,0 v -0.107949 h -0.003 q -0.0137,0.05186 -0.0677,0.08678 -0.0529,0.03387 -0.13758,0.03387 -0.09,0 -0.15981,-0.04339 -0.0688,-0.04445 -0.10795,-0.129116 -0.0392,-0.08573 -0.0392,-0.20955 0,-0.122766 0.0392,-0.207432 0.0392,-0.08572 0.11007,-0.130175 0.0709,-0.04445 0.1651,-0.04445 0.0995,0 0.16615,0.04551 0.0667,0.04445 0.10266,0.116417 l -0.073,0.04445 q -0.0254,-0.05927 -0.0762,-0.09313 -0.0497,-0.03387 -0.11959,-0.03387 -0.0646,0 -0.1143,0.03069 -0.0498,0.02963 -0.0773,0.08467 -0.0275,0.05398 -0.0275,0.127 v 0.119591 q 0,0.07303 0.0275,0.128058 0.0275,0.05398 0.0783,0.08467 0.0519,0.03069 0.12171,0.03069 0.0519,0 0.0942,-0.01799 0.0423,-0.01799 0.0677,-0.05398 0.0265,-0.03598 0.0265,-0.08996 v -0.07302 h -0.16299 v -0.07832 h 0.24977 v 0.37994 z m 0.7059,0 -0.26987,-0.450848 -0.0889,-0.164041 h -0.003 v 0.164041 0.450848 h -0.0868 v -0.738714 h 0.10266 l 0.26987,0.450849 0.0889,0.164041 h 0.003 v -0.164041 -0.450849 h 0.0868 v 0.738714 z m 0.29951,0 v -0.738714 h 0.11854 l 0.13969,0.261408 0.072,0.136524 h 0.005 l 0.073,-0.136524 0.1397,-0.261408 h 0.1143 v 0.738714 h -0.0868 v -0.498473 -0.123824 h -0.005 l -0.0624,0.123824 -0.17674,0.321732 -0.17674,-0.321732 -0.0624,-0.123824 h -0.005 v 0.123824 0.498473 z m 1.31022,0 h -0.45085 v -0.738714 h 0.45085 v 0.07832 h -0.36195 v 0.247649 h 0.34078 v 0.07832 h -0.34078 v 0.256116 h 0.36195 z m 0.61489,0 -0.26988,-0.450848 -0.0889,-0.164041 h -0.003 v 0.164041 0.450848 h -0.0868 v -0.738714 h 0.10266 l 0.26988,0.450849 0.0889,0.164041 h 0.003 v -0.164041 -0.450849 h 0.0868 v 0.738714 z m 0.78316,-0.660397 h -0.23495 v 0.660397 h -0.0889 v -0.660397 h -0.23495 v -0.07832 h 0.5588 z"
   id="text3"
   style="font-size:1.05833px;line-height:0;font-family:'IBM Plex Sans';-inkscape-font-specification:'IBM Plex Sans, Normal';text-align:center;letter-spacing:0px;word-spacing:0.132292px;text-anchor:middle;opacity:0.900489;fill:#eedcbb;fill-opacity:0.890196;fill-rule:evenodd;stroke-width:0.1;stroke-linecap:round;stroke-linejoin:round;stroke-opacity:0.631373;paint-order:fill markers stroke"
   transform="rotate(-90)"
   aria-label="FORCED ALIGNMENT" /><path
   d="m 6.3466483,108.64972 q -0.2173108,0 -0.3728855,-0.0988 -0.1555747,-0.10124 -0.2395356,-0.29633 -0.081492,-0.19755 -0.081492,-0.48648 0,-0.28892 0.081492,-0.48895 0.083961,-0.20249 0.2395356,-0.30621 0.1555747,-0.10618 0.3728855,-0.10618 0.2148412,0 0.3630076,0.0988 0.1481664,0.0988 0.229658,0.27905 l -0.167922,0.10125 q -0.051858,-0.13335 -0.1580441,-0.21237 -0.1061859,-0.0815 -0.2666995,-0.0815 -0.2222496,0 -0.3481911,0.16299 -0.123472,0.16051 -0.123472,0.42474 v 0.25682 q 0,0.26423 0.123472,0.41734 0.1259415,0.15063 0.3481911,0.15063 0.1654524,0 0.2765772,-0.084 0.1111248,-0.0864 0.1629831,-0.22719 l 0.1654525,0.10372 q -0.081492,0.18027 -0.2370663,0.28646 -0.1531053,0.10618 -0.3679465,0.10618 z m 1.8668973,-0.0296 H 7.272689 v -1.72367 h 0.207433 v 1.54093 h 0.7334236 z m 0.8667705,0.0296 q -0.2222496,0 -0.3877021,-0.10125 -0.1629831,-0.10371 -0.2543523,-0.30127 -0.0889,-0.20002 -0.0889,-0.48895 0,-0.28892 0.0889,-0.48648 0.091369,-0.20002 0.2543523,-0.30127 0.1654525,-0.10371 0.3877021,-0.10371 0.2222496,0 0.3852326,0.10371 0.1654525,0.10125 0.2543523,0.30127 0.091369,0.19756 0.091369,0.48648 0,0.28893 -0.091369,0.48895 -0.0889,0.19756 -0.2543523,0.30127 -0.162983,0.10125 -0.3852326,0.10125 z m 0,-0.18521 q 0.1506358,0 0.26423,-0.0691 0.1135943,-0.0716 0.1777997,-0.19756 0.066675,-0.12594 0.066675,-0.29633 v -0.28645 q 0,-0.1704 -0.066675,-0.29634 -0.064205,-0.12841 -0.1777997,-0.19755 -0.1135942,-0.0691 -0.26423,-0.0691 -0.1481664,0 -0.2642301,0.0691 -0.1135943,0.0691 -0.1802691,0.19755 -0.064205,0.12594 -0.064205,0.29634 v 0.28645 q 0,0.17039 0.064205,0.29633 0.066675,0.12595 0.1802691,0.19756 0.1160637,0.0691 0.2642301,0.0691 z m 1.7113219,0.18521 q -0.21731,0 -0.372885,-0.0988 -0.155575,-0.10124 -0.239536,-0.29633 -0.08149,-0.19755 -0.08149,-0.48648 0,-0.28892 0.08149,-0.48895 0.08396,-0.20249 0.239536,-0.30621 0.155575,-0.10618 0.372885,-0.10618 0.214842,0 0.363008,0.0988 0.148167,0.0988 0.229658,0.27905 l -0.167922,0.10125 q -0.05186,-0.13335 -0.158044,-0.21237 -0.106186,-0.0815 -0.2667,-0.0815 -0.222249,0 -0.348191,0.16299 -0.123472,0.16051 -0.123472,0.42474 v 0.25682 q 0,0.26423 0.123472,0.41734 0.125942,0.15063 0.348191,0.15063 0.165453,0 0.276578,-0.084 0.111125,-0.0864 0.162983,-0.22719 l 0.165452,0.10372 q -0.08149,0.18027 -0.237066,0.28646 -0.153105,0.10618 -0.367947,0.10618 z m 1.950859,-0.0296 -0.57291,-0.84702 -0.244475,0.27164 v 0.57538 h -0.207433 v -1.72367 h 0.207433 v 0.61736 0.2988 h 0.0074 l 0.246944,-0.2988 0.521051,-0.61736 h 0.254353 l -0.642055,0.73836 0.686505,0.98531 z"
   id="text4"
   style="font-size:2.46944px;line-height:0;font-family:'IBM Plex Sans';-inkscape-font-specification:'IBM Plex Sans, Normal';text-align:center;letter-spacing:0px;word-spacing:0.132292px;text-anchor:middle;opacity:0.900489;fill:#eedcbb;fill-opacity:0.890196;fill-rule:evenodd;stroke-width:0.1;stroke-linecap:round;stroke-linejoin:round;stroke-opacity:0.631373;paint-order:fill markers stroke"
   aria-label="CLOCK" /><path
   d="m 17.496554,107.87926 v 0.74083 h -0.207433 v -1.72367 h 0.686505 q 0.150635,0 0.256821,0.0568 0.108656,0.0568 0.165453,0.16545 0.05927,0.10865 0.05927,0.2667 0,0.18768 -0.0889,0.31115 -0.0889,0.12347 -0.256822,0.16298 l 0.39511,0.76059 h -0.234597 l -0.372885,-0.74083 z m 0,-0.1778 h 0.479072 q 0.08149,0 0.138288,-0.0272 0.05927,-0.0296 0.0889,-0.084 0.0321,-0.0568 0.0321,-0.13582 v -0.12841 q 0,-0.079 -0.0321,-0.13335 -0.02963,-0.0568 -0.0889,-0.084 -0.0568,-0.0296 -0.138288,-0.0296 h -0.479072 z m 2.424989,0.91863 h -1.051982 v -1.72367 h 1.051982 v 0.18274 h -0.844549 v 0.57785 h 0.79516 v 0.18273 h -0.79516 v 0.59761 h 0.844549 z m 0.871712,0.0296 q -0.207433,0 -0.358068,-0.079 -0.148167,-0.0815 -0.251883,-0.22225 l 0.153105,-0.12841 q 0.09137,0.121 0.202494,0.18521 0.111125,0.0617 0.261761,0.0617 0.185208,0 0.281516,-0.0889 0.09878,-0.0889 0.09878,-0.23706 0,-0.0815 -0.0321,-0.13829 -0.0321,-0.0568 -0.103717,-0.0938 -0.06914,-0.0395 -0.182738,-0.0642 l -0.140758,-0.0321 q -0.155575,-0.037 -0.26423,-0.0963 -0.108656,-0.0593 -0.165453,-0.1531 -0.0568,-0.0938 -0.0568,-0.22472 0,-0.15311 0.07161,-0.25682 0.07161,-0.10619 0.200024,-0.16052 0.130881,-0.0543 0.298803,-0.0543 0.195085,0 0.333374,0.0716 0.140758,0.0716 0.237066,0.2099 l -0.155574,0.1136 q -0.06915,-0.0988 -0.172861,-0.15558 -0.101247,-0.0568 -0.251883,-0.0568 -0.165453,0 -0.261761,0.0716 -0.09384,0.0716 -0.09384,0.2099 0,0.0815 0.03457,0.13582 0.03704,0.0543 0.108655,0.0914 0.07161,0.0346 0.180269,0.0593 l 0.140758,0.0321 q 0.167922,0.037 0.274108,0.10125 0.106186,0.0642 0.155575,0.15804 0.05186,0.0938 0.05186,0.22225 0,0.15804 -0.07161,0.27411 -0.07161,0.11606 -0.204963,0.18027 -0.130881,0.0642 -0.316089,0.0642 z m 2.002715,-0.0296 h -1.051982 v -1.72367 h 1.051982 v 0.18274 h -0.844549 v 0.57785 h 0.79516 v 0.18273 h -0.79516 v 0.59761 h 0.844549 z m 1.516236,-1.54093 H 23.76399 v 1.54093 h -0.207433 v -1.54093 h -0.548215 v -0.18274 h 1.303864 z"
   id="text5"
   style="font-size:2.46944px;line-height:0;font-family:'IBM Plex Sans';-inkscape-font-specification:'IBM Plex Sans, Normal';text-align:center;letter-spacing:0px;word-spacing:0.132292px;text-anchor:middle;opacity:0.900489;fill:#eedcbb;fill-opacity:0.890196;fill-rule:evenodd;stroke-width:0.1;stroke-linecap:round;stroke-linejoin:round;stroke-opacity:0.631373;paint-order:fill markers stroke"
   aria-label="RESET" /><path
   d="m 32.887715,108.62009 h -1.133473 v -0.18274 h 0.48154 v -1.38783 h -0.01729 l -0.434621,0.40499 -0.121003,-0.13088 0.456847,-0.42721 h 0.323496 v 1.54093 h 0.4445 z"
   id="text7"
   style="font-size:2.46944px;line-height:0;font-family:'IBM Plex Sans';-inkscape-font-specification:'IBM Plex Sans, Normal';text-align:center;letter-spacing:0px;word-spacing:0.132292px;text-anchor:middle;opacity:0.900489;fill:#eedcbb;fill-opacity:0.890196;fill-rule:evenodd;stroke-width:0.1;stroke-linecap:round;stroke-linejoin:round;stroke-opacity:0.631373;paint-order:fill markers stroke"
   aria-label="1" /><path
   d="m 44.322838,108.45216 v 0.18274 h -1.131003 v -0.21238 l 0.563032,-0.51858 q 0.121003,-0.11112 0.202494,-0.23706 0.08149,-0.12595 0.08149,-0.24942 v -0.0296 q 0,-0.14323 -0.07902,-0.23213 -0.07902,-0.0889 -0.239536,-0.0889 -0.158044,0 -0.242005,0.084 -0.08149,0.084 -0.116064,0.20744 l -0.185208,-0.0716 q 0.03457,-0.10124 0.09878,-0.19261 0.06668,-0.0938 0.1778,-0.15311 0.111124,-0.0593 0.276577,-0.0593 0.167922,0 0.286455,0.0642 0.118533,0.0642 0.180269,0.1778 0.06174,0.11112 0.06174,0.25929 0,0.13335 -0.04939,0.24448 -0.04692,0.11112 -0.13335,0.2099 -0.08396,0.0988 -0.195085,0.19755 l -0.464255,0.41734 z"
   id="text8"
   style="font-size:2.46944px;line-height:0;font-family:'IBM Plex Sans';-inkscape-font-specification:'IBM Plex Sans, Normal';text-align:center;letter-spacing:0px;word-spacing:0.132292px;text-anchor:middle;opacity:0.900489;fill:#eedcbb;fill-opacity:0.890196;fill-rule:evenodd;stroke-width:0.1;stroke-linecap:round;stroke-linejoin:round;stroke-opacity:0.631373;paint-order:fill markers stroke"
   aria-label="2" /><path
   d="M 55.006022,107.62737 H 55.1937 q 0.17533,0 0.261761,-0.0815 0.0889,-0.0815 0.0889,-0.20496 v -0.0173 q 0,-0.13581 -0.08643,-0.20249 -0.08396,-0.0691 -0.22225,-0.0691 -0.133349,0 -0.21731,0.0593 -0.08396,0.0568 -0.138289,0.15558 l -0.153105,-0.11854 q 0.04445,-0.0691 0.111125,-0.13335 0.06667,-0.0642 0.165452,-0.10618 0.09878,-0.042 0.237066,-0.042 0.145697,0 0.26423,0.0519 0.118533,0.0494 0.187678,0.14569 0.07161,0.0963 0.07161,0.23707 0,0.16545 -0.09631,0.2667 -0.09631,0.10125 -0.234596,0.13582 v 0.01 q 0.09384,0.0173 0.17533,0.0716 0.08396,0.0519 0.135819,0.14323 0.05186,0.0889 0.05186,0.21978 0,0.14816 -0.07408,0.26176 -0.07161,0.11112 -0.204963,0.17533 -0.130881,0.0642 -0.306211,0.0642 -0.148166,0 -0.254352,-0.042 -0.103717,-0.0444 -0.1778,-0.11112 -0.07161,-0.0667 -0.125941,-0.14076 l 0.155574,-0.11853 q 0.06667,0.10124 0.153106,0.16545 0.0889,0.0617 0.246944,0.0617 0.182738,0 0.276577,-0.084 0.09384,-0.084 0.09384,-0.23459 v -0.0198 q 0,-0.1531 -0.09384,-0.23459 -0.09384,-0.084 -0.276577,-0.084 h -0.202495 z"
   id="text9"
   style="font-size:2.46944px;line-height:0;font-family:'IBM Plex Sans';-inkscape-font-specification:'IBM Plex Sans, Normal';text-align:center;letter-spacing:0px;word-spacing:0.132292px;text-anchor:middle;opacity:0.900489;fill:#eedcbb;fill-opacity:0.890196;fill-rule:evenodd;stroke-width:0.1;stroke-linecap:round;stroke-linejoin:round;stroke-opacity:0.631373;paint-order:fill markers stroke"
   aria-label="3" /><path
   d="m 65.057017,108.62008 v -0.25188 h -0.0074 q -0.0321,0.121 -0.158044,0.20249 -0.123472,0.079 -0.321027,0.079 -0.209903,0 -0.372886,-0.10124 -0.160513,-0.10372 -0.251883,-0.30128 -0.09137,-0.20002 -0.09137,-0.48894 0,-0.28646 0.09137,-0.48401 0.09137,-0.20003 0.256822,-0.30375 0.165453,-0.10371 0.385233,-0.10371 0.232127,0 0.387702,0.10618 0.155575,0.10372 0.239536,0.27164 l -0.170392,0.10372 q -0.05927,-0.13829 -0.1778,-0.21731 -0.116063,-0.079 -0.279046,-0.079 -0.150636,0 -0.2667,0.0716 -0.116063,0.0691 -0.180269,0.19755 -0.06421,0.12595 -0.06421,0.29634 v 0.27904 q 0,0.1704 0.06421,0.29881 0.06421,0.12594 0.182739,0.19755 0.121002,0.0716 0.283985,0.0716 0.121003,0 0.21978,-0.042 0.09878,-0.042 0.158045,-0.12595 0.06174,-0.084 0.06174,-0.2099 v -0.17039 h -0.380294 v -0.18274 h 0.582788 v 0.88653 z m 1.89653,0 h -0.217311 l -0.172861,-0.5087 h -0.696382 l -0.172861,0.5087 H 65.48423 l 0.602543,-1.72367 h 0.26423 z m -0.44203,-0.69144 -0.217311,-0.62477 -0.07408,-0.21484 h -0.01235 l -0.07408,0.21484 -0.21731,0.62477 z m 1.696506,-0.84949 h -0.548216 v 1.54093 h -0.207433 v -1.54093 h -0.548216 v -0.18274 h 1.303865 z m 1.335968,1.54093 h -1.051982 v -1.72367 h 1.051982 v 0.18274 h -0.844549 v 0.57785 h 0.79516 v 0.18274 h -0.79516 v 0.5976 h 0.844549 z"
   id="text10"
   style="font-size:2.46944px;line-height:0;font-family:'IBM Plex Sans';-inkscape-font-specification:'IBM Plex Sans, Normal';text-align:center;letter-spacing:0px;word-spacing:0.132292px;text-anchor:middle;opacity:0.900489;fill:#eedcbb;fill-opacity:0.890196;fill-rule:evenodd;stroke-width:0.1;stroke-linecap:round;stroke-linejoin:round;stroke-opacity:0.631373;paint-order:fill markers stroke"
   aria-label="GATE" /><path
   d="m 75.109256,108.62008 h -0.217311 l -0.172861,-0.5087 h -0.696382 l -0.17286,0.5087 h -0.209903 l 0.602544,-1.72367 h 0.26423 z m -0.44203,-0.69144 -0.217311,-0.62477 -0.07408,-0.21484 h -0.01235 l -0.07408,0.21484 -0.217311,0.62477 z m 1.298929,0.72107 q -0.217311,0 -0.372885,-0.0988 -0.155575,-0.10125 -0.239536,-0.29634 -0.08149,-0.19755 -0.08149,-0.48648 0,-0.28892 0.08149,-0.48895 0.08396,-0.20249 0.239536,-0.30621 0.155574,-0.10618 0.372885,-0.10618 0.214841,0 0.363008,0.0988 0.148166,0.0988 0.229658,0.27904 l -0.167922,0.10125 q -0.05186,-0.13335 -0.158044,-0.21237 -0.106186,-0.0815 -0.2667,-0.0815 -0.22225,0 -0.348191,0.16298 -0.123472,0.16051 -0.123472,0.42474 v 0.25682 q 0,0.26423 0.123472,0.41734 0.125941,0.15064 0.348191,0.15064 0.165452,0 0.276577,-0.084 0.111125,-0.0864 0.162983,-0.22718 l 0.165453,0.10371 q -0.08149,0.18027 -0.237066,0.28646 -0.153106,0.10618 -0.367947,0.10618 z m 1.501419,0 q -0.217311,0 -0.372885,-0.0988 -0.155575,-0.10125 -0.239536,-0.29634 -0.08149,-0.19755 -0.08149,-0.48648 0,-0.28892 0.08149,-0.48895 0.08396,-0.20249 0.239536,-0.30621 0.155574,-0.10618 0.372885,-0.10618 0.214841,0 0.363008,0.0988 0.148166,0.0988 0.229658,0.27904 l -0.167922,0.10125 q -0.05186,-0.13335 -0.158045,-0.21237 -0.106185,-0.0815 -0.266699,-0.0815 -0.22225,0 -0.348191,0.16298 -0.123472,0.16051 -0.123472,0.42474 v 0.25682 q 0,0.26423 0.123472,0.41734 0.125941,0.15064 0.348191,0.15064 0.165452,0 0.276577,-0.084 0.111125,-0.0864 0.162983,-0.22718 l 0.165453,0.10371 q -0.08149,0.18027 -0.237066,0.28646 -0.153106,0.10618 -0.367947,0.10618 z m 1.978022,-0.0296 h -1.051981 v -1.72367 h 1.051981 v 0.18274 h -0.844548 v 0.57785 h 0.795159 v 0.18274 h -0.795159 v 0.5976 h 0.844548 z m 1.434745,0 -0.629707,-1.05198 -0.207433,-0.38276 h -0.0074 v 0.38276 1.05198 h -0.202494 v -1.72367 h 0.239535 l 0.629708,1.05198 0.207433,0.38277 h 0.0074 v -0.38277 -1.05198 h 0.202494 v 1.72367 z m 1.827388,-1.54093 h -0.548216 v 1.54093 H 81.95208 v -1.54093 h -0.548216 v -0.18274 h 1.303865 z"
   id="text11"
   style="font-size:2.46944px;line-height:0;font-family:'IBM Plex Sans';-inkscape-font-specification:'IBM Plex Sans, Normal';text-align:center;letter-spacing:0px;word-spacing:0.132292px;text-anchor:middle;opacity:0.900489;fill:#eedcbb;fill-opacity:0.890196;fill-rule:evenodd;stroke-width:0.1;stroke-linecap:round;stroke-linejoin:round;stroke-opacity:0.631373;paint-order:fill markers stroke"
   aria-label="ACCENT" /><path
   d="m 86.717241,108.62008 v -1.72367 h 0.276577 l 0.325966,0.60995 0.167922,0.31856 h 0.01235 l 0.170391,-0.31856 0.325966,-0.60995 h 0.266699 v 1.72367 h -0.202494 v -1.16311 -0.28892 h -0.01235 l -0.145697,0.28892 -0.412396,0.75071 -0.412397,-0.75071 -0.145697,-0.28892 h -0.01235 v 0.28892 1.16311 z m 3.301642,0 h -0.217311 l -0.172861,-0.5087 h -0.696382 l -0.17286,0.5087 h -0.209903 l 0.602543,-1.72367 h 0.264231 z m -0.44203,-0.69144 -0.217311,-0.62477 -0.07408,-0.21484 h -0.01235 l -0.07408,0.21484 -0.217311,0.62477 z m 1.338439,0.69144 h -0.691444 v -0.17286 h 0.242005 v -1.37795 h -0.242005 v -0.17286 h 0.691444 v 0.17286 h -0.242006 v 1.37795 h 0.242006 z m 1.424865,0 -0.629707,-1.05198 -0.207433,-0.38276 h -0.0074 v 0.38276 1.05198 h -0.202494 v -1.72367 h 0.239536 l 0.629707,1.05198 0.207433,0.38277 h 0.0074 v -0.38277 -1.05198 h 0.202494 v 1.72367 z"
   id="text12"
   style="font-size:2.46944px;line-height:0;font-family:'IBM Plex Sans';-inkscape-font-specification:'IBM Plex Sans, Normal';text-align:center;letter-spacing:0px;word-spacing:0.132292px;text-anchor:middle;opacity:0.900489;fill:#eedcbb;fill-opacity:0.890196;fill-rule:evenodd;stroke-width:0.1;stroke-linecap:round;stroke-linejoin:round;stroke-opacity:0.631373;paint-order:fill markers stroke"
   aria-label="MAIN" /></svg>
