<?xml version="1.0" encoding="UTF-8" standalone="no"?>
<svg
   width="94.16mm"
   height="128.5mm"
   viewBox="0 0 94.16 128.5"
   version="1.1"
   id="svg28"
   xml:space="preserve"
   sodipodi:docname="Incantation.svg"
   inkscape:version="1.4.3 (0d15f75, 2025-12-25)"
   xmlns:inkscape="http://www.inkscape.org/namespaces/inkscape"
   xmlns:sodipodi="http://sodipodi.sourceforge.net/DTD/sodipodi-0.dtd"
   xmlns="http://www.w3.org/2000/svg"
   xmlns:svg="http://www.w3.org/2000/svg"><defs
   id="defs41">
    <linearGradient
   id="panelGradient"
   x1="0"
   y1="0"
   x2="0"
   y2="1">
      <stop
   offset="0%"
   stop-color="#2f2f36"
   id="stop1" />
      <stop
   offset="50%"
   stop-color="#313338"
   id="stop2" />
      <stop
   offset="100%"
   stop-color="#27272d"
   id="stop3" />
    </linearGradient>
  </defs><sodipodi:namedview
   id="namedview41"
   pagecolor="#505050"
   bordercolor="#eeeeee"
   borderopacity="1"
   inkscape:showpageshadow="0"
   inkscape:pageopacity="0"
   inkscape:pagecheckerboard="0"
   inkscape:deskcolor="#505050"
   inkscape:document-units="mm"
   inkscape:zoom="1.2803142"
   inkscape:cx="199.16986"
   inkscape:cy="275.32304"
   inkscape:window-width="1800"
   inkscape:window-height="1101"
   inkscape:window-x="0"
   inkscape:window-y="40"
   inkscape:window-maximized="1"
   inkscape:current-layer="svg28" />

  <!-- Dark panel background -->
  

  <!-- Module title -->
  

  <!-- Main module title -->
  

  <!-- Subtitle -->
  

  <!-- Top controls row -->
  

  <!-- Second controls row -->
  

  <!-- Preset buttons -->
  

  <!-- Control alignment markers -->
  

  <!-- Section divider -->
  

  <!-- 8-Band Filter Matrix -->
  

  <!-- Filter level sliders and CV inputs -->
  

  <!-- CV Bypass switch -->
  

  <!-- Section divider -->
  

  <!-- Mode switches -->
  

  <!-- Section divider -->
  

  <!-- I/O Section -->
  

  <!-- First I/O row -->
  

  <!-- Second I/O row -->
  

<rect
   style="display:none;fill:#d0d0d0;fill-rule:evenodd;stroke:#d0d0d0;stroke-width:0.1;stroke-linecap:round;stroke-linejoin:round;paint-order:fill markers stroke"
   id="rect1"
   width="94.160004"
   height="128.5"
   x="0"
   y="0"
   rx="0.16048445"
   ry="0.19768102" /><circle
   id="drive_knob"
   cx="13.208855"
   cy="19.975176"
   style="display:none;fill:#ff0000;fill-opacity:1;stroke:#ff0000;stroke-width:0.187218;stroke-linecap:round;stroke-opacity:1;paint-order:fill markers stroke"
   r="4.0563908"
   inkscape:label="drive_knob" /><circle
   id="mix_knob"
   cx="46.762012"
   cy="19.582415"
   style="display:none;fill:#ff0000;fill-opacity:1;stroke:#ff0000;stroke-width:0.187218;stroke-linecap:round;stroke-opacity:1;paint-order:fill markers stroke"
   r="4.0563908"
   inkscape:label="mix_knob" /><circle
   id="output_knob"
   cx="80.315178"
   cy="19.2085"
   style="display:none;fill:#ff0000;fill-opacity:1;stroke:#ff0000;stroke-width:0.187218;stroke-linecap:round;stroke-opacity:1;paint-order:fill markers stroke"
   r="4.0563908"
   inkscape:label="output_knob" /><circle
   id="pattern_knob"
   cx="48.417404"
   cy="54.276268"
   style="display:none;fill:#ff0000;fill-opacity:1;stroke:#ff0000;stroke-width:0.187218;stroke-linecap:round;stroke-opacity:1;paint-order:fill markers stroke"
   r="4.0563908"
   inkscape:label="pattern_knob" /><circle
   id="env_knob"
   cx="64.797302"
   cy="36.118465"
   style="display:none;fill:#ff0000;fill-opacity:1;stroke:#ff0000;stroke-width:0.187218;stroke-linecap:round;stroke-opacity:1;paint-order:fill markers stroke"
   r="4.0563908"
   inkscape:label="env_knob" /><circle
   id="rate_knob"
   cx="28.202541"
   cy="36.118465"
   style="display:none;fill:#ff0000;fill-opacity:1;stroke:#ff0000;stroke-width:0.187218;stroke-linecap:round;stroke-opacity:1;paint-order:fill markers stroke"
   r="4.0563908"
   inkscape:label="rate_knob" /><circle
   id="fader_1"
   cx="7.9228535"
   cy="81.385406"
   style="display:none;fill:#ffff00;fill-opacity:1;stroke:#ffff00;stroke-width:0.187218;stroke-linecap:round;stroke-opacity:1;paint-order:fill markers stroke"
   r="4.0563908"
   inkscape:label="fader_1" /><circle
   id="fader_2"
   cx="19.083992"
   cy="81.385406"
   style="display:none;fill:#ffff00;fill-opacity:1;stroke:#ffff00;stroke-width:0.187218;stroke-linecap:round;stroke-opacity:1;paint-order:fill markers stroke"
   r="4.0563908"
   inkscape:label="fader_2" /><circle
   id="fader_3"
   cx="30.245131"
   cy="81.385406"
   style="display:none;fill:#ffff00;fill-opacity:1;stroke:#ffff00;stroke-width:0.187218;stroke-linecap:round;stroke-opacity:1;paint-order:fill markers stroke"
   r="4.0563908"
   inkscape:label="fader_3" /><circle
   id="fader_4"
   cx="41.406269"
   cy="81.385406"
   style="display:none;fill:#ffff00;fill-opacity:1;stroke:#ffff00;stroke-width:0.187218;stroke-linecap:round;stroke-opacity:1;paint-order:fill markers stroke"
   r="4.0563908"
   inkscape:label="fader_4" /><circle
   id="fader_5"
   cx="52.567406"
   cy="81.385406"
   style="display:none;fill:#ffff00;fill-opacity:1;stroke:#ffff00;stroke-width:0.187218;stroke-linecap:round;stroke-opacity:1;paint-order:fill markers stroke"
   r="4.0563908"
   inkscape:label="fader_5" /><circle
   id="fader_6"
   cx="63.728542"
   cy="81.385406"
   style="display:none;fill:#ffff00;fill-opacity:1;stroke:#ffff00;stroke-width:0.187218;stroke-linecap:round;stroke-opacity:1;paint-order:fill markers stroke"
   r="4.0563908"
   inkscape:label="fader_6" /><circle
   id="fader_7"
   cx="74.889679"
   cy="81.385406"
   style="display:none;fill:#ffff00;fill-opacity:1;stroke:#ffff00;stroke-width:0.187218;stroke-linecap:round;stroke-opacity:1;paint-order:fill markers stroke"
   r="4.0563908"
   inkscape:label="fader_7" /><circle
   id="fader_8"
   cx="86.050819"
   cy="81.385406"
   style="display:none;fill:#ffff00;fill-opacity:1;stroke:#ffff00;stroke-width:0.187218;stroke-linecap:round;stroke-opacity:1;paint-order:fill markers stroke"
   r="4.0563908"
   inkscape:label="fader_8" /><path
   d="m 22.082903,1.5949724 c -0.256116,0 -0.457905,0.2095497 -0.457905,0.465666 0,0.2561163 0.201789,0.4579049 0.457905,0.4579049 0.256116,0 0.457905,-0.2095497 0.457905,-0.4579049 0,-0.2561163 -0.201789,-0.465666 -0.457905,-0.465666 z m 0.318205,5.7897804 V 2.8988372 h -0.644171 v 4.4859156 z m 3.627265,-4.594571 c -0.582083,0 -1.094315,0.2638774 -1.435804,0.6907378 -0.248355,0.310444 -0.395816,0.7140212 -0.395816,1.1486428 v 2.7551904 h 0.675216 V 4.6295624 c 0,-0.6441713 0.519994,-1.1564039 1.156404,-1.1564039 0.63641,0 1.156404,0.5122326 1.156404,1.1564039 v 2.7551904 h 0.682977 V 4.6295624 c 0,-1.0167041 -0.822677,-1.8393806 -1.839381,-1.8393806 z m 6.879161,3.6787613 c -0.2794,0.2173108 -0.651933,0.3570106 -1.008943,0.3570106 -0.0078,0 -0.01552,0 -0.03104,-0.00776 C 30.812037,6.8026704 30.183388,5.9722327 30.183388,5.1262728 V 5.0253785 c 0.0388,-0.7605878 0.644171,-1.5134145 1.567742,-1.5832644 0.04657,-0.00776 0.08537,-0.00776 0.131939,-0.00776 0.395816,0 0.768349,0.1629831 1.024465,0.3570106 l 0.473427,-0.465666 c -0.434622,-0.3725327 -0.977899,-0.551038 -1.513415,-0.551038 -0.318205,0 -0.63641,0.06985 -0.931332,0.1940275 -0.698499,0.3026828 -1.218492,0.9468541 -1.373714,1.6841586 -0.03104,0.155222 -0.04657,0.3182051 -0.04657,0.4734271 0,0.698499 0.310444,1.3737147 0.861482,1.8238585 0.426861,0.3492495 0.962377,0.5355158 1.497893,0.5355158 0.333727,0 0.659693,-0.06985 0.962376,-0.2095496 0.194027,-0.085372 0.372533,-0.2017886 0.543277,-0.3414884 -0.0078,0 -0.473427,-0.465666 -0.473427,-0.465666 z m 3.968748,-3.6865224 c -1.303865,0 -2.351613,1.0477484 -2.351613,2.3516132 0,1.2961037 1.047748,2.3516132 2.351613,2.3516132 1.078793,0 1.69192,-0.7140211 1.69192,-0.7140211 v 0.6053657 h 0.659693 V 5.1340339 c 0,-1.2961037 -1.055509,-2.3516132 -2.351613,-2.3516132 z m 1.707442,2.3516132 c 0,0.9390931 -0.768349,1.707442 -1.707442,1.707442 -0.946854,0 -1.715203,-0.7683489 -1.715203,-1.707442 0,-0.9468542 0.768349,-1.7152031 1.715203,-1.7152031 0.923571,0 1.707442,0.7605878 1.707442,1.7152031 z m 4.232621,-2.3438521 c -0.582083,0 -1.094315,0.2638774 -1.435804,0.6907378 -0.248355,0.310444 -0.395816,0.7140212 -0.395816,1.1486428 v 2.7551904 h 0.675216 V 4.6295624 c 0,-0.6441713 0.519993,-1.1564039 1.156404,-1.1564039 0.63641,0 1.156404,0.5122326 1.156404,1.1564039 v 2.7551904 h 0.682976 V 4.6295624 c 0,-1.0167041 -0.822676,-1.8393806 -1.83938,-1.8393806 z m 5.163957,3.9271165 c -0.473427,0 -0.861482,-0.3802939 -0.861482,-0.8614821 V 3.5662917 h 1.171926 V 2.8988372 H 47.11882 V 2.0063107 h -0.659693 v 3.8495055 c 0,0.8459599 0.675215,1.5289366 1.521175,1.5289366 h 0.714021 V 6.7172983 Z m 4.224853,-3.9348776 c -1.303865,0 -2.351613,1.0477484 -2.351613,2.3516132 0,1.2961037 1.047748,2.3516132 2.351613,2.3516132 1.078793,0 1.69192,-0.7140211 1.69192,-0.7140211 v 0.6053657 h 0.659693 V 5.1340339 c 0,-1.2961037 -1.05551,-2.3516132 -2.351613,-2.3516132 z m 1.707442,2.3516132 c 0,0.9390931 -0.768349,1.707442 -1.707442,1.707442 -0.946854,0 -1.715203,-0.7683489 -1.715203,-1.707442 0,-0.9468542 0.768349,-1.7152031 1.715203,-1.7152031 0.923571,0 1.707442,0.7605878 1.707442,1.7152031 z m 3.929937,1.5832644 c -0.473427,0 -0.861482,-0.3802939 -0.861482,-0.8614821 V 3.5662917 h 1.171926 V 2.8988372 H 56.981052 V 2.0063107 h -0.659693 v 3.8495055 c 0,0.8459599 0.675216,1.5289366 1.521175,1.5289366 h 0.714022 V 6.7172983 Z m 2.633832,-5.1223259 c -0.256116,0 -0.457905,0.2095497 -0.457905,0.465666 0,0.2561163 0.201789,0.4579049 0.457905,0.4579049 0.256116,0 0.457905,-0.2095497 0.457905,-0.4579049 0,-0.2561163 -0.201789,-0.465666 -0.457905,-0.465666 z m 0.318205,5.7897804 V 2.8988372 H 60.1504 v 4.4859156 z m 4.061882,-4.6023321 c -1.303864,0 -2.351613,1.0477484 -2.351613,2.3516132 0,1.2961037 1.047749,2.3516132 2.351613,2.3516132 1.296104,0 2.351614,-1.0555095 2.351614,-2.3516132 0,-1.3038648 -1.05551,-2.3516132 -2.351614,-2.3516132 z m 0,4.043533 c -0.931332,0 -1.691919,-0.7605878 -1.691919,-1.6919198 0,-0.931332 0.760587,-1.6919198 1.691919,-1.6919198 0.931332,0 1.69192,0.7605878 1.69192,1.6919198 0,0.931332 -0.760588,1.6919198 -1.69192,1.6919198 z m 5.831409,-4.0357719 c -0.582083,0 -1.094315,0.2638774 -1.435804,0.6907378 -0.248355,0.310444 -0.395816,0.7140212 -0.395816,1.1486428 v 2.7551904 h 0.675216 V 4.6295624 c 0,-0.6441713 0.519994,-1.1564039 1.156404,-1.1564039 0.63641,0 1.156404,0.5122326 1.156404,1.1564039 v 2.7551904 h 0.682976 V 4.6295624 c 0,-1.0167041 -0.822676,-1.8393806 -1.83938,-1.8393806 z"
   id="text1"
   style="font-weight:600;font-size:7.7611px;line-height:0;font-family:Neokurat;-inkscape-font-specification:'Neokurat, Semi-Bold';text-align:center;letter-spacing:1.05833px;word-spacing:0.132292px;text-anchor:middle;opacity:0.900489;fill:#eedcbb;fill-opacity:0.890196;fill-rule:evenodd;stroke-width:0.1;stroke-linecap:round;stroke-linejoin:round;stroke-opacity:0.631373;paint-order:fill markers stroke"
   aria-label="incantation" /><path
   style="font-weight:600;font-size:2.82222px;line-height:0;font-family:Neokurat;-inkscape-font-specification:'Neokurat, Semi-Bold';text-align:center;letter-spacing:0.529167px;word-spacing:0.79375px;text-anchor:middle;opacity:0.948225;fill:#eedcbb;fill-opacity:0.890196;fill-rule:evenodd;stroke-width:0.04;stroke-linecap:round;stroke-linejoin:round;stroke-opacity:0.898039;paint-order:fill markers stroke"
   d="m 36.916501,125.30453 c -0.163689,-0.0705 -0.285044,-0.10724 -0.434622,-0.14111 -0.206022,-0.048 -0.400755,-0.127 -0.400755,-0.29351 0,-0.0169 0.0028,-0.0339 0.0056,-0.0508 0.03104,-0.15804 0.220134,-0.26811 0.437445,-0.27093 0.0028,0 0.0028,0 0.0056,0 0.180622,0 0.372533,0.0621 0.510822,0.2032 l 0.174977,-0.16369 c -0.121355,-0.13547 -0.386644,-0.27375 -0.680155,-0.27375 -0.0056,0 -0.01129,0.003 -0.01693,0.003 -0.454377,0.006 -0.660399,0.30197 -0.680155,0.48823 -0.0028,0.0169 -0.0056,0.0367 -0.0056,0.0536 0,0.2286 0.180622,0.42898 0.462844,0.50518 0.183444,0.0508 0.333022,0.079 0.530577,0.16087 0.09596,0.0423 0.194733,0.11571 0.194733,0.24553 0,0.0254 -0.0028,0.0536 -0.01129,0.0819 -0.05644,0.1778 -0.253999,0.254 -0.437444,0.26246 -0.01129,0.003 -0.0254,0.003 -0.03669,0.003 -0.259644,0 -0.533399,-0.11571 -0.62371,-0.22577 l -0.191911,0.15522 c 0.149577,0.19473 0.536222,0.30762 0.82691,0.30762 0.285045,0 0.612422,-0.13547 0.697089,-0.43744 0.01693,-0.0508 0.02258,-0.1016 0.02258,-0.14676 0,-0.2032 -0.124177,-0.37253 -0.349955,-0.46567 z m 2.473677,-0.94826 v 0.76764 h -1.114777 v -0.76764 h -0.239888 v 1.9558 h 0.239888 v -0.94827 h 1.114777 v 0.94827 h 0.239889 v -1.9558 z m 1.948742,-0.0395 -1.018822,1.9953 h 0.268111 l 0.333022,-0.65194 h 0.832555 l 0.333022,0.65194 h 0.270933 z m -0.299156,1.11476 0.299156,-0.58701 0.299155,0.58701 z m 3.385253,-0.9285 c -0.112888,-0.0903 -0.259644,-0.14675 -0.417688,-0.14675 h -0.959555 v 1.9558 h 0.239889 v -0.61807 h 0.719666 c 0.369711,0 0.668866,-0.29915 0.668866,-0.66886 0,-0.21167 -0.09878,-0.39794 -0.251178,-0.52212 z m 0.01129,0.52212 c 0,0.23706 -0.191911,0.42897 -0.428977,0.42897 h -0.719666 v -0.85514 h 0.719666 c 0.237066,0 0.428977,0.19192 0.428977,0.42617 z m 1.231901,1.04704 v -0.6604 h 1.03011 v -0.23989 h -1.03011 v -0.57292 h 1.219199 v -0.2427 h -1.459088 v 1.9558 h 1.498599 v -0.23989 z m 1.849967,-1.71591 v 0.2427 h 0.694267 v 1.71309 h 0.239888 v -1.71309 h 0.694266 v -0.2427 z m 2.865963,-0.0395 -1.018821,1.9953 h 0.268111 l 0.333022,-0.65193 h 0.832555 l 0.333022,0.65193 h 0.270933 z m -0.299155,1.11477 0.299155,-0.58702 0.299156,0.58702 z m 2.727676,-0.0931 0.97931,-0.98214 h -0.341488 l -0.809977,0.80998 -0.307622,-0.30762 v -0.50236 h -0.242711 v 1.95581 h 0.242711 v -1.11478 l 1.114777,1.11478 h 0.341488 z m 1.920522,0.73378 v -0.66041 h 1.03011 v -0.23989 h -1.03011 v -0.57291 h 1.219199 v -0.24276 h -1.459089 v 1.9558 h 1.498599 v -0.23989 z m 3.706988,0.23989 -0.451555,-0.44874 c 0.231422,-0.14393 0.383822,-0.39793 0.383822,-0.69144 0,-0.44873 -0.364067,-0.81562 -0.815622,-0.81562 h -0.812799 v 1.95862 h 0.239889 v -1.13453 l 1.13171,1.13453 z m -0.307622,-1.14018 c 0,0.20038 -0.110066,0.40922 -0.318911,0.51647 l -0.829732,-0.82974 v -0.25964 h 0.57291 c 0.316089,0 0.575733,0.25682 0.575733,0.57291 z"
   id="text6"
   aria-label="SHPETE" /></svg>
