<?xml version="1.0" encoding="UTF-8" standalone="no"?>
<svg
   width="94.16mm"
   height="128.5mm"
   viewBox="0 0 94.16 128.5"
   version="1.1"
   id="svg28"
   xml:space="preserve"
   sodipodi:docname="Incantation.svg"
   inkscape:version="1.4.3 (0d15f75, 2025-12-25)"
   xmlns:inkscape="http://www.inkscape.org/namespaces/inkscape"
   xmlns:sodipodi="http://sodipodi.sourceforge.net/DTD/sodipodi-0.dtd"
   xmlns="http://www.w3.org/2000/svg"
   xmlns:svg="http://www.w3.org/2000/svg"><defs
   id="defs41">
    <linearGradient
   id="panelGradient"
   x1="0"
   y1="0"
   x2="0"
   y2="1">
      <stop
   offset="0%"
   stop-color="#2f2f36"
   id="stop1" />
      <stop
   offset="50%"
   stop-color="#313338"
   id="stop2" />
      <stop
   offset="100%"
   stop-color="#27272d"
   id="stop3" />
    </linearGradient>
  </defs><sodipodi:namedview
   id="namedview41"
   pagecolor="#505050"
   bordercolor="#eeeeee"
   borderopacity="1"
   inkscape:showpageshadow="0"
   inkscape:pageopacity="0"
   inkscape:pagecheckerboard="0"
   inkscape:deskcolor="#505050"
   inkscape:document-units="mm"
   inkscape:zoom="1.8614384"
   inkscape:cx="168.41814"
   inkscape:cy="237.71939"
   inkscape:window-width="1800"
   inkscape:window-height="1101"
   inkscape:window-x="0"
   inkscape:window-y="40"
   inkscape:window-maximized="1"
   inkscape:current-layer="svg28" />

  <!-- Dark panel background -->
  

  <!-- Module title -->
  

  <!-- Main module title -->
  

  <!-- Subtitle -->
  

  <!-- Top controls row -->
  

  <!-- Second controls row -->
  

  <!-- Preset buttons -->
  

  <!-- Control alignment markers -->
  

  <!-- Section divider -->
  

  <!-- 8-Band Filter Matrix -->
  

  <!-- Filter level sliders and CV inputs -->
  

  <!-- CV Bypass switch -->
  

  <!-- Section divider -->
  

  <!-- Mode switches -->
  

  <!-- Section divider -->
  

  <!-- I/O Section -->
  

  <!-- First I/O row -->
  

  <!-- Second I/O row -->
  

<circle
   id="drive_knob"
   cx="14.792051"
   cy="16.057383"
   style="display:none;fill:#ff0000;fill-opacity:1;stroke:#ff0000;stroke-width:0.187218;stroke-linecap:round;stroke-opacity:1;paint-order:fill markers stroke"
   r="4.0563908"
   inkscape:label="drive_knob" /><circle
   id="bank_switch"
   cx="30.777031"
   cy="23.6684"
   style="display:none;fill:#ff0000;fill-opacity:1;stroke:#ff0000;stroke-width:0.187218;stroke-linecap:round;stroke-opacity:1;paint-order:fill markers stroke"
   r="4.0563908"
   inkscape:label="bank_switch" /><circle
   id="freq_switch"
   cx="30.777031"
   cy="39.325058"
   style="display:none;fill:#ff0000;fill-opacity:1;stroke:#ff0000;stroke-width:0.187218;stroke-linecap:round;stroke-opacity:1;paint-order:fill markers stroke"
   r="4.0563908"
   inkscape:label="freq_switch" /><circle
   id="mix_knob"
   cx="46.762012"
   cy="16.057383"
   style="display:none;fill:#ff0000;fill-opacity:1;stroke:#ff0000;stroke-width:0.187218;stroke-linecap:round;stroke-opacity:1;paint-order:fill markers stroke"
   r="4.0563908"
   inkscape:label="mix_knob" /><circle
   id="output_knob"
   cx="78.731972"
   cy="16.057383"
   style="display:none;fill:#ff0000;fill-opacity:1;stroke:#ff0000;stroke-width:0.187218;stroke-linecap:round;stroke-opacity:1;paint-order:fill markers stroke"
   r="4.0563908"
   inkscape:label="output_knob" /><circle
   id="pattern_knob"
   cx="46.762012"
   cy="39.325058"
   style="display:none;fill:#ff0000;fill-opacity:1;stroke:#ff0000;stroke-width:0.187218;stroke-linecap:round;stroke-opacity:1;paint-order:fill markers stroke"
   r="4.0563908"
   inkscape:label="pattern_knob" /><circle
   id="env_knob"
   cx="78.731972"
   cy="39.325058"
   style="display:none;fill:#ff0000;fill-opacity:1;stroke:#ff0000;stroke-width:0.187218;stroke-linecap:round;stroke-opacity:1;paint-order:fill markers stroke"
   r="4.0563908"
   inkscape:label="env_knob" /><circle
   id="rate_knob"
   cx="14.792051"
   cy="39.325058"
   style="display:none;fill:#ff0000;fill-opacity:1;stroke:#ff0000;stroke-width:0.187218;stroke-linecap:round;stroke-opacity:1;paint-order:fill markers stroke"
   r="4.0563908"
   inkscape:label="rate_knob" /><circle
   id="fader_1"
   cx="9.1528234"
   cy="71.961861"
   style="display:none;fill:#ffff00;fill-opacity:1;stroke:#ffff00;stroke-width:0.187218;stroke-linecap:round;stroke-opacity:1;paint-order:fill markers stroke"
   r="4.0563908"
   inkscape:label="fader_1" /><circle
   id="fader_2"
   cx="20.039928"
   cy="71.961861"
   style="display:none;fill:#ffff00;fill-opacity:1;stroke:#ffff00;stroke-width:0.187218;stroke-linecap:round;stroke-opacity:1;paint-order:fill markers stroke"
   r="4.0563908"
   inkscape:label="fader_2" /><circle
   id="fader_3"
   cx="30.927034"
   cy="71.961861"
   style="display:none;fill:#ffff00;fill-opacity:1;stroke:#ffff00;stroke-width:0.187218;stroke-linecap:round;stroke-opacity:1;paint-order:fill markers stroke"
   r="4.0563908"
   inkscape:label="fader_3" /><circle
   id="fader_4"
   cx="41.81414"
   cy="71.961861"
   style="display:none;fill:#ffff00;fill-opacity:1;stroke:#ffff00;stroke-width:0.187218;stroke-linecap:round;stroke-opacity:1;paint-order:fill markers stroke"
   r="4.0563908"
   inkscape:label="fader_4" /><circle
   id="fader_5"
   cx="52.701248"
   cy="71.961861"
   style="display:none;fill:#ffff00;fill-opacity:1;stroke:#ffff00;stroke-width:0.187218;stroke-linecap:round;stroke-opacity:1;paint-order:fill markers stroke"
   r="4.0563908"
   inkscape:label="fader_5" /><circle
   id="fader_6"
   cx="63.588352"
   cy="71.961861"
   style="display:none;fill:#ffff00;fill-opacity:1;stroke:#ffff00;stroke-width:0.187218;stroke-linecap:round;stroke-opacity:1;paint-order:fill markers stroke"
   r="4.0563908"
   inkscape:label="fader_6" /><circle
   id="fader_7"
   cx="74.475456"
   cy="71.961861"
   style="display:none;fill:#ffff00;fill-opacity:1;stroke:#ffff00;stroke-width:0.187218;stroke-linecap:round;stroke-opacity:1;paint-order:fill markers stroke"
   r="4.0563908"
   inkscape:label="fader_7" /><circle
   id="fader_8"
   cx="85.362564"
   cy="71.961861"
   style="display:none;fill:#ffff00;fill-opacity:1;stroke:#ffff00;stroke-width:0.187218;stroke-linecap:round;stroke-opacity:1;paint-order:fill markers stroke"
   r="4.0563908"
   inkscape:label="fader_8" /><circle
   id="audio_input_l"
   cx="9.1528234"
   cy="114.78314"
   style="display:none;fill:#ff0000;fill-opacity:1;stroke:#ff0000;stroke-width:0.187218;stroke-linecap:round;stroke-opacity:1;paint-order:fill markers stroke"
   r="4.0563908"
   inkscape:label="audio_input_l" /><circle
   id="audio_input_r"
   cx="20.039928"
   cy="114.78314"
   style="display:none;fill:#ff0000;fill-opacity:1;stroke:#ff0000;stroke-width:0.187218;stroke-linecap:round;stroke-opacity:1;paint-order:fill markers stroke"
   r="4.0563908"
   inkscape:label="audio_input_r" /><path
   id="path27-6"
   style="display:inline;opacity:0.800745;fill:#c9c2ba;fill-opacity:0.937255;fill-rule:evenodd;stroke-width:0.150714;stroke-linecap:round;stroke-linejoin:round;stroke-opacity:0.937255;paint-order:fill markers stroke"
   d="m 79.068568,114.78315 a 4.5931138,4.5931138 0 0 1 -4.59311,4.59309 4.5931138,4.5931138 0 0 1 -4.593114,-4.59309 4.5931138,4.5931138 0 0 1 4.593114,-4.59311 4.5931138,4.5931138 0 0 1 4.59311,4.59311 z" /><circle
   id="audio_output_l"
   cx="74.475456"
   cy="114.78314"
   style="display:none;fill:#ff0000;fill-opacity:1;stroke:#ff0000;stroke-width:0.187218;stroke-linecap:round;stroke-opacity:1;paint-order:fill markers stroke"
   r="4.0563908"
   inkscape:label="audio_output_l" /><path
   id="path27"
   style="display:inline;opacity:0.800745;fill:#c9c2ba;fill-opacity:0.937255;fill-rule:evenodd;stroke-width:0.150714;stroke-linecap:round;stroke-linejoin:round;stroke-opacity:0.937255;paint-order:fill markers stroke"
   d="m 89.955677,114.78315 a 4.5931138,4.5931138 0 0 1 -4.593106,4.59309 4.5931138,4.5931138 0 0 1 -4.59312,-4.59309 4.5931138,4.5931138 0 0 1 4.59312,-4.59311 4.5931138,4.5931138 0 0 1 4.593106,4.59311 z" /><circle
   id="audio_output_r"
   cx="85.362564"
   cy="114.78314"
   style="display:none;fill:#ff0000;fill-opacity:1;stroke:#ff0000;stroke-width:0.187218;stroke-linecap:round;stroke-opacity:1;paint-order:fill markers stroke"
   r="4.0563908"
   inkscape:label="audio_output_r" /><circle
   id="filter_1_cv"
   cx="9.1528234"
   cy="101.8105"
   style="display:none;fill:#ff0000;fill-opacity:1;stroke:#ff0000;stroke-width:0.187218;stroke-linecap:round;stroke-opacity:1;paint-order:fill markers stroke"
   r="4.0563908"
   inkscape:label="filter_1_cv" /><circle
   id="filter_2_cv"
   cx="20.039928"
   cy="101.8105"
   style="display:none;fill:#ff0000;fill-opacity:1;stroke:#ff0000;stroke-width:0.187218;stroke-linecap:round;stroke-opacity:1;paint-order:fill markers stroke"
   r="4.0563908"
   inkscape:label="filter_2_cv" /><circle
   id="filter_3_cv"
   cx="30.927034"
   cy="101.8105"
   style="display:none;fill:#ff0000;fill-opacity:1;stroke:#ff0000;stroke-width:0.187218;stroke-linecap:round;stroke-opacity:1;paint-order:fill markers stroke"
   r="4.0563908"
   inkscape:label="filter_3_cv" /><circle
   id="filter_4_cv"
   cx="41.81414"
   cy="101.8105"
   style="display:none;fill:#ff0000;fill-opacity:1;stroke:#ff0000;stroke-width:0.187218;stroke-linecap:round;stroke-opacity:1;paint-order:fill markers stroke"
   r="4.0563908"
   inkscape:label="filter_4_cv" /><circle
   id="filter_5_cv"
   cx="52.701248"
   cy="101.8105"
   style="display:none;fill:#ff0000;fill-opacity:1;stroke:#ff0000;stroke-width:0.187218;stroke-linecap:round;stroke-opacity:1;paint-order:fill markers stroke"
   r="4.0563908"
   inkscape:label="filter_5_cv" /><circle
   id="filter_6_cv"
   cx="63.588352"
   cy="101.8105"
   style="display:none;fill:#ff0000;fill-opacity:1;stroke:#ff0000;stroke-width:0.187218;stroke-linecap:round;stroke-opacity:1;paint-order:fill markers stroke"
   r="4.0563908"
   inkscape:label="filter_6_cv" /><circle
   id="filter_7_cv"
   cx="74.475456"
   cy="101.8105"
   style="display:none;fill:#ff0000;fill-opacity:1;stroke:#ff0000;stroke-width:0.187218;stroke-linecap:round;stroke-opacity:1;paint-order:fill markers stroke"
   r="4.0563908"
   inkscape:label="filter_7_cv" /><circle
   id="filter_8_cv"
   cx="85.362564"
   cy="101.8105"
   style="display:none;fill:#ff0000;fill-opacity:1;stroke:#ff0000;stroke-width:0.187218;stroke-linecap:round;stroke-opacity:1;paint-order:fill markers stroke"
   r="4.0563908"
   inkscape:label="filter_8_cv" /><circle
   id="envelope_cv"
   cx="30.927034"
   cy="114.78314"
   style="display:none;fill:#ff0000;fill-opacity:1;stroke:#ff0000;stroke-width:0.187218;stroke-linecap:round;stroke-opacity:1;paint-order:fill markers stroke"
   r="4.0563908"
   inkscape:label="envelope_cv" /><circle
   id="rate_cv"
   cx="41.81414"
   cy="114.78314"
   style="display:none;fill:#ff0000;fill-opacity:1;stroke:#ff0000;stroke-width:0.187218;stroke-linecap:round;stroke-opacity:1;paint-order:fill markers stroke"
   r="4.0563908"
   inkscape:label="rate_cv" /><circle
   id="lfo_sweep_cv"
   cx="52.701248"
   cy="114.78314"
   style="display:none;fill:#ff0000;fill-opacity:1;stroke:#ff0000;stroke-width:0.187218;stroke-linecap:round;stroke-opacity:1;paint-order:fill markers stroke"
   r="4.0563908"
   inkscape:label="lfo_sweep_cv" /><circle
   id="mix_cv"
   cx="63.588352"
   cy="114.78314"
   style="display:none;fill:#ff0000;fill-opacity:1;stroke:#ff0000;stroke-width:0.187218;stroke-linecap:round;stroke-opacity:1;paint-order:fill markers stroke"
   r="4.0563908"
   inkscape:label="mix_cv" /><circle
   id="tap_step_input"
   cx="62.868774"
   cy="23.6684"
   style="display:none;fill:#ff0000;fill-opacity:1;stroke:#ff0000;stroke-width:0.187218;stroke-linecap:round;stroke-opacity:1;paint-order:fill markers stroke"
   r="4.0563908"
   inkscape:label="tap_step_input" /><circle
   id="lfo_sweep_switch"
   cx="62.868774"
   cy="39.325058"
   style="display:none;fill:#ff0000;fill-opacity:1;stroke:#ff0000;stroke-width:0.187218;stroke-linecap:round;stroke-opacity:1;paint-order:fill markers stroke"
   r="4.0563908"
   inkscape:label="lfo_sweep_switch" /><path
   d="m 29.54515,0.71501287 c -0.176428,0 -0.315433,0.14435065 -0.315433,0.32077933 0,0.1764286 0.139005,0.315433 0.315433,0.315433 0.176429,0 0.315434,-0.1443507 0.315434,-0.315433 0,-0.17642868 -0.139005,-0.32077933 -0.315434,-0.32077933 z m 0.2192,3.98835603 v -3.090174 h -0.443744 v 3.090174 z m 2.498683,-3.1650225 c -0.400976,0 -0.753831,0.1817749 -0.98907,0.4758227 C 31.102881,2.2280219 31.0013,2.5060306 31.0013,2.8054246 v 1.8979443 h 0.465131 V 2.8054246 c 0,-0.4437447 0.358204,-0.796602 0.796602,-0.796602 0.438397,0 0.796602,0.3528573 0.796602,0.796602 V 4.7033689 H 33.53011 V 2.8054246 c 0,-0.7003681 -0.566709,-1.2670782 -1.267077,-1.2670782 z m 4.738789,2.5341565 C 36.809353,4.2222 36.552729,4.3184337 36.306799,4.3184337 c -0.0054,0 -0.0107,0 -0.02138,-0.00534 -0.727102,-0.010698 -1.160153,-0.582754 -1.160153,-1.1655031 v -0.069502 c 0.02672,-0.5239395 0.443744,-1.0425327 1.079958,-1.0906496 0.03208,-0.00534 0.05881,-0.00534 0.09088,-0.00534 0.272662,0 0.529287,0.1122727 0.705716,0.2459308 l 0.326127,-0.320782 C 37.028553,1.6506245 36.654309,1.5276591 36.285413,1.5276591 c -0.219199,0 -0.438398,0.048117 -0.641558,0.1336581 -0.481169,0.2085064 -0.839372,0.6522511 -0.946299,1.1601517 -0.02138,0.1069265 -0.03208,0.2191992 -0.03208,0.3261257 0,0.4811689 0.213852,0.946299 0.593441,1.2563856 0.294048,0.2405845 0.662945,0.3688961 1.031841,0.3688961 0.229892,0 0.454437,-0.048117 0.662943,-0.1443506 0.133658,-0.05881 0.256623,-0.1390043 0.374244,-0.2352381 -0.0054,0 -0.326126,-0.3207794 -0.326126,-0.3207794 z m 2.733916,-2.5395028 c -0.898182,0 -1.619936,0.7217533 -1.619936,1.6199354 0,0.8928357 0.721754,1.6199355 1.619936,1.6199355 0.743139,0 1.165498,-0.4918615 1.165498,-0.4918615 v 0.417013 h 0.454438 v -1.545087 c 0,-0.8928357 -0.727101,-1.6199354 -1.619936,-1.6199354 z m 1.176191,1.6199354 c 0,0.646905 -0.529286,1.1761909 -1.176191,1.1761909 -0.65225,0 -1.181537,-0.5292859 -1.181537,-1.1761909 0,-0.6522512 0.529287,-1.1815371 1.181537,-1.1815371 0.636212,0 1.176191,0.5239396 1.176191,1.1815371 z m 2.915689,-1.6145891 c -0.400975,0 -0.753831,0.1817749 -0.989071,0.4758227 -0.171081,0.2138528 -0.272662,0.4918615 -0.272662,0.7912555 v 1.8979443 h 0.465131 V 2.8054246 c 0,-0.4437447 0.358203,-0.796602 0.796602,-0.796602 0.438398,0 0.796603,0.3528573 0.796603,0.796602 v 1.8979443 h 0.470475 V 2.8054246 c 0,-0.7003681 -0.56671,-1.2670782 -1.267078,-1.2670782 z m 3.55725,2.7052388 c -0.326126,0 -0.593441,-0.2619698 -0.593441,-0.5934417 V 2.0729786 h 0.807294 V 1.6131949 H 46.791427 V 0.99836792 H 46.33699 V 3.6501435 c 0,0.5827491 0.465129,1.0532254 1.047878,1.0532254 h 0.491861 V 4.2435852 Z m 2.910339,-2.7105851 c -0.898183,0 -1.619936,0.7217533 -1.619936,1.6199354 0,0.8928357 0.721753,1.6199355 1.619936,1.6199355 0.743138,0 1.165498,-0.4918615 1.165498,-0.4918615 v 0.417013 h 0.454436 v -1.545087 c 0,-0.8928357 -0.727099,-1.6199354 -1.619934,-1.6199354 z m 1.17619,1.6199354 c 0,0.646905 -0.529285,1.1761909 -1.17619,1.1761909 -0.652253,0 -1.181538,-0.5292859 -1.181538,-1.1761909 0,-0.6522512 0.529285,-1.1815371 1.181538,-1.1815371 0.636212,0 1.17619,0.5239396 1.17619,1.1815371 z m 2.707182,1.0906497 c -0.326126,0 -0.593442,-0.2619698 -0.593442,-0.5934417 V 2.0729786 h 0.807294 V 1.6131949 H 53.585137 V 0.99836792 H 53.130701 V 3.6501435 c 0,0.5827491 0.465129,1.0532254 1.047878,1.0532254 h 0.491862 V 4.2435852 Z m 1.814345,-3.52857233 c -0.176429,0 -0.315433,0.14435065 -0.315433,0.32077933 0,0.1764286 0.139004,0.315433 0.315433,0.315433 0.176428,0 0.315433,-0.1443507 0.315433,-0.315433 0,-0.17642868 -0.139005,-0.32077933 -0.315433,-0.32077933 z m 0.219199,3.98835603 v -3.090174 h -0.443744 v 3.090174 z m 2.798073,-3.1703688 c -0.898181,0 -1.619935,0.7217533 -1.619935,1.6199354 0,0.8928357 0.721754,1.6199355 1.619935,1.6199355 0.892836,0 1.619937,-0.7270998 1.619937,-1.6199355 0,-0.8981821 -0.727101,-1.6199354 -1.619937,-1.6199354 z m 0,2.7854336 c -0.641558,0 -1.165498,-0.5239396 -1.165498,-1.1654982 0,-0.6415586 0.52394,-1.1654981 1.165498,-1.1654981 0.64156,0 1.165498,0.5239395 1.165498,1.1654981 0,0.6415586 -0.523938,1.1654982 -1.165498,1.1654982 z m 4.017033,-2.7800873 c -0.400975,0 -0.753831,0.1817749 -0.98907,0.4758227 -0.171082,0.2138528 -0.272663,0.4918615 -0.272663,0.7912555 v 1.8979443 h 0.465131 V 2.8054246 c 0,-0.4437447 0.358203,-0.796602 0.796602,-0.796602 0.438398,0 0.796602,0.3528573 0.796602,0.796602 v 1.8979443 h 0.470476 V 2.8054246 c 0,-0.7003681 -0.56671,-1.2670782 -1.267078,-1.2670782 z"
   id="text1"
   style="font-weight:600;font-size:7.7611px;line-height:0;font-family:Neokurat;-inkscape-font-specification:'Neokurat, Semi-Bold';text-align:center;letter-spacing:1.05833px;word-spacing:0.132292px;text-anchor:middle;opacity:0.900489;fill:#eedcbb;fill-opacity:0.890196;fill-rule:evenodd;stroke-width:0.0688862;stroke-linecap:round;stroke-linejoin:round;stroke-opacity:0.631373;paint-order:fill markers stroke"
   aria-label="incantation" /><path
   style="font-weight:600;font-size:2.82222px;line-height:0;font-family:Neokurat;-inkscape-font-specification:'Neokurat, Semi-Bold';text-align:center;letter-spacing:0.529167px;word-spacing:0.79375px;text-anchor:middle;display:inline;opacity:0.764912;fill:#eedcbb;fill-opacity:0.890196;fill-rule:evenodd;stroke-width:0.04;stroke-linecap:round;stroke-linejoin:round;stroke-opacity:0.898039;paint-order:fill markers stroke"
   d="m 36.916501,126.40522 c -0.163689,-0.0705 -0.285044,-0.10724 -0.434622,-0.14111 -0.206022,-0.048 -0.400755,-0.127 -0.400755,-0.29351 0,-0.0169 0.0028,-0.0339 0.0056,-0.0508 0.03104,-0.15804 0.220134,-0.26811 0.437445,-0.27093 0.0028,0 0.0028,0 0.0056,0 0.180622,0 0.372533,0.0621 0.510822,0.2032 l 0.174977,-0.16369 c -0.121355,-0.13547 -0.386644,-0.27375 -0.680155,-0.27375 -0.0056,0 -0.01129,0.003 -0.01693,0.003 -0.454377,0.006 -0.660398,0.30197 -0.680155,0.48823 -0.0028,0.0169 -0.0056,0.0367 -0.0056,0.0536 0,0.2286 0.180622,0.42898 0.462844,0.50518 0.183445,0.0508 0.333022,0.079 0.530578,0.16087 0.09596,0.0423 0.194732,0.11571 0.194732,0.24553 0,0.0254 -0.0028,0.0536 -0.01129,0.0819 -0.05644,0.1778 -0.253999,0.254 -0.437444,0.26246 -0.01129,0.003 -0.0254,0.003 -0.03669,0.003 -0.259645,0 -0.533399,-0.11571 -0.62371,-0.22577 l -0.191911,0.15522 c 0.149577,0.19473 0.536221,0.30762 0.82691,0.30762 0.285045,0 0.612422,-0.13547 0.697089,-0.43744 0.01693,-0.0508 0.02258,-0.1016 0.02258,-0.14676 0,-0.2032 -0.124177,-0.37253 -0.349955,-0.46567 z m 2.473677,-0.94826 v 0.76764 h -1.114777 v -0.76764 h -0.239888 v 1.9558 h 0.239888 v -0.94827 h 1.114777 v 0.94827 h 0.239889 v -1.9558 z m 1.948742,-0.0395 -1.018822,1.9953 h 0.268111 l 0.333022,-0.65194 h 0.832555 l 0.333022,0.65194 h 0.270933 z m -0.299155,1.11476 0.299155,-0.58701 0.299155,0.58701 z m 3.385252,-0.9285 c -0.112887,-0.0903 -0.259644,-0.14675 -0.417687,-0.14675 h -0.959556 v 1.9558 h 0.239889 v -0.61807 h 0.719666 c 0.369711,0 0.668866,-0.29915 0.668866,-0.66886 0,-0.21167 -0.09878,-0.39794 -0.251178,-0.52212 z m 0.01129,0.52212 c 0,0.23706 -0.191911,0.42897 -0.428978,0.42897 h -0.719665 v -0.85514 h 0.719666 c 0.237066,0 0.428977,0.19192 0.428977,0.42617 z m 1.231901,1.04704 v -0.6604 h 1.03011 v -0.23989 h -1.03011 v -0.57292 h 1.219199 v -0.2427 h -1.459088 v 1.9558 h 1.498599 v -0.23989 z m 1.849967,-1.71591 v 0.2427 h 0.694267 v 1.71309 h 0.239888 v -1.71309 h 0.694266 v -0.2427 z m 2.865963,-0.0395 -1.018821,1.9953 h 0.26811 l 0.333022,-0.65193 h 0.832554 l 0.333022,0.65193 h 0.270933 z m -0.299155,1.11477 0.299155,-0.58702 0.299155,0.58702 z m 2.727676,-0.0931 0.97931,-0.98214 h -0.341488 l -0.809977,0.80998 -0.307622,-0.30762 V 125.457 h -0.242711 v 1.95581 h 0.242711 v -1.11478 l 1.114775,1.11478 h 0.341488 z m 1.920522,0.73378 v -0.66041 h 1.03011 v -0.23989 h -1.03011 v -0.57291 h 1.219199 v -0.24276 h -1.459089 v 1.9558 h 1.498599 v -0.23989 z m 3.706988,0.23989 -0.451555,-0.44874 c 0.231422,-0.14393 0.383822,-0.39793 0.383822,-0.69144 0,-0.44873 -0.364067,-0.81562 -0.815622,-0.81562 h -0.812799 v 1.95862 h 0.239889 v -1.13453 l 1.13171,1.13453 z m -0.307622,-1.14018 c 0,0.20038 -0.110066,0.40922 -0.318911,0.51647 l -0.829732,-0.82974 v -0.25964 h 0.57291 c 0.316089,0 0.575733,0.25682 0.575733,0.57291 z"
   id="text6-8"
   aria-label="SHPETE" /><path
   d="M 4.5095695,96.108315 H 4.3021366 v -1.72367 h 1.027287 v 0.182739 H 4.5095695 v 0.577849 h 0.7482403 v 0.182738 H 4.5095695 Z m 1.7829357,0 H 5.601062 V 95.935454 H 5.8430671 V 94.557506 H 5.601062 v -0.172861 h 0.6914432 v 0.172861 H 6.0505001 v 1.377948 h 0.2420051 z m 1.3186799,0 H 6.6703285 v -1.72367 h 0.207433 v 1.540931 H 7.6111851 Z M 8.8631908,94.567384 H 8.3149751 v 1.540931 H 8.1075421 V 94.567384 H 7.5593265 v -0.182739 h 1.3038643 z m 1.3359682,1.540931 H 9.1471774 v -1.72367 h 1.0519816 v 0.182739 H 9.3546103 v 0.577849 H 10.14977 v 0.182738 H 9.3546103 v 0.597605 h 0.8445487 z m 0.595135,-0.740832 v 0.740832 h -0.207433 v -1.72367 h 0.686505 q 0.150635,0 0.256821,0.0568 0.108656,0.0568 0.165453,0.165452 0.05927,0.108655 0.05927,0.2667 0,0.187677 -0.0889,0.311149 -0.0889,0.123472 -0.256822,0.162983 l 0.39511,0.760588 h -0.234597 l -0.372885,-0.740832 z m 0,-0.1778 h 0.479072 q 0.08149,0 0.138288,-0.02716 0.05927,-0.02963 0.0889,-0.08396 0.0321,-0.0568 0.0321,-0.135819 v -0.128411 q 0,-0.07902 -0.0321,-0.13335 -0.02963,-0.0568 -0.0889,-0.08396 -0.0568,-0.02963 -0.138288,-0.02963 h -0.479072 z m 3.209213,0.918632 h -1.133473 v -0.182739 h 0.481541 v -1.387825 h -0.01729 l -0.434621,0.404988 -0.121003,-0.13088 0.456846,-0.427214 h 0.323497 v 1.540931 h 0.444499 z"
   id="text2"
   style="font-size:2.46944px;line-height:0;font-family:'IBM Plex Sans';-inkscape-font-specification:'IBM Plex Sans, Normal';text-align:center;letter-spacing:0px;word-spacing:0.132292px;text-anchor:middle;fill:#f2e4ca;fill-opacity:0.89019603;fill-rule:evenodd;stroke-width:0.1;stroke-linecap:round;stroke-linejoin:round;paint-order:fill markers stroke"
   aria-label="FILTER 1" /><path
   d="m 20.612837,95.940392 v 0.182739 h -1.131003 v -0.212372 l 0.563032,-0.518582 q 0.121003,-0.111125 0.202494,-0.237067 0.08149,-0.125941 0.08149,-0.249413 v -0.02963 q 0,-0.143228 -0.07902,-0.232128 -0.07902,-0.0889 -0.239536,-0.0889 -0.158044,0 -0.242005,0.08396 -0.08149,0.08396 -0.116064,0.207433 l -0.185208,-0.07161 q 0.03457,-0.101247 0.09878,-0.192617 0.06668,-0.09384 0.1778,-0.153105 0.111124,-0.05927 0.276577,-0.05927 0.167922,0 0.286455,0.06421 0.118533,0.06421 0.180269,0.1778 0.06174,0.111124 0.06174,0.259291 0,0.133349 -0.04939,0.244474 -0.04692,0.111125 -0.13335,0.209903 -0.08396,0.09878 -0.195085,0.197555 l -0.464255,0.417335 z"
   id="text3"
   style="font-size:2.46944px;line-height:0;font-family:'IBM Plex Sans';-inkscape-font-specification:'IBM Plex Sans, Normal';text-align:center;letter-spacing:0px;word-spacing:0.132292px;text-anchor:middle;fill:#f2e4ca;fill-opacity:0.89019603;fill-rule:evenodd;stroke-width:0.1;stroke-linecap:round;stroke-linejoin:round;paint-order:fill markers stroke"
   aria-label="2" /><path
   d="m 30.708489,95.1156 h 0.187678 q 0.17533,0 0.261761,-0.08149 0.0889,-0.08149 0.0889,-0.204963 v -0.01729 q 0,-0.13582 -0.08643,-0.202495 -0.08396,-0.06914 -0.22225,-0.06914 -0.133349,0 -0.21731,0.05927 -0.08396,0.0568 -0.138289,0.155574 l -0.153105,-0.118533 q 0.04445,-0.06914 0.111125,-0.133349 0.06667,-0.06421 0.165452,-0.106186 0.09878,-0.04198 0.237066,-0.04198 0.145697,0 0.26423,0.05186 0.118533,0.04939 0.187678,0.145697 0.07161,0.09631 0.07161,0.237067 0,0.165452 -0.09631,0.266699 -0.09631,0.101247 -0.234596,0.135819 v 0.0099 q 0.09384,0.01729 0.17533,0.07161 0.08396,0.05186 0.135819,0.143227 0.05186,0.0889 0.05186,0.21978 0,0.148167 -0.07408,0.261761 -0.07161,0.111125 -0.204963,0.17533 -0.130881,0.06421 -0.306211,0.06421 -0.148166,0 -0.254352,-0.04198 -0.103717,-0.04445 -0.1778,-0.111124 -0.07161,-0.06668 -0.125941,-0.140759 l 0.155574,-0.118533 q 0.06668,0.101247 0.153106,0.165453 0.0889,0.06174 0.246944,0.06174 0.182738,0 0.276577,-0.08396 0.09384,-0.08396 0.09384,-0.234597 v -0.01975 q 0,-0.153106 -0.09384,-0.234597 -0.09384,-0.08396 -0.276577,-0.08396 h -0.202495 z"
   id="text4"
   style="font-size:2.46944px;line-height:0;font-family:'IBM Plex Sans';-inkscape-font-specification:'IBM Plex Sans, Normal';text-align:center;letter-spacing:0px;word-spacing:0.132292px;text-anchor:middle;fill:#f2e4ca;fill-opacity:0.89019603;fill-rule:evenodd;stroke-width:0.1;stroke-linecap:round;stroke-linejoin:round;paint-order:fill markers stroke"
   aria-label="3" /><path
   d="m 42.204311,96.108315 h -0.197555 v -0.338314 h -0.832201 v -0.182738 l 0.721076,-1.202618 h 0.30868 v 1.212495 h 0.249414 v 0.172861 H 42.204311 Z M 41.994409,94.545159 41.36964,95.59714 h 0.637116 v -1.051981 z"
   id="text5"
   style="font-size:2.46944px;line-height:0;font-family:'IBM Plex Sans';-inkscape-font-specification:'IBM Plex Sans, Normal';text-align:center;letter-spacing:0px;word-spacing:0.132292px;text-anchor:middle;fill:#f2e4ca;fill-opacity:0.89019603;fill-rule:evenodd;stroke-width:0.1;stroke-linecap:round;stroke-linejoin:round;paint-order:fill markers stroke"
   aria-label="4" /><path
   d="m 53.181553,94.369829 v 0.182739 h -0.755649 l -0.04939,0.656871 h 0.01729 q 0.04198,-0.05927 0.0889,-0.101247 0.04692,-0.04198 0.111125,-0.06421 0.06421,-0.02469 0.153105,-0.02469 0.148167,0 0.26423,0.06421 0.116064,0.06421 0.182739,0.182739 0.06668,0.118533 0.06668,0.286455 0,0.167922 -0.06915,0.296333 -0.06914,0.128411 -0.200024,0.202494 -0.128411,0.07161 -0.31115,0.07161 -0.143227,0 -0.244474,-0.04198 -0.101247,-0.04445 -0.172861,-0.111125 -0.06914,-0.06668 -0.121003,-0.140758 l 0.155575,-0.118533 q 0.06667,0.101247 0.145697,0.165453 0.08149,0.06174 0.237066,0.06174 0.175331,0 0.2667,-0.09384 0.09384,-0.09384 0.09384,-0.26423 v -0.02469 q 0,-0.170391 -0.09384,-0.26423 -0.09137,-0.09384 -0.2667,-0.09384 -0.118533,0 -0.187677,0.04445 -0.06667,0.04198 -0.121003,0.101247 l -0.17533,-0.02469 0.06174,-0.948265 z"
   id="text6"
   style="font-size:2.46944px;line-height:0;font-family:'IBM Plex Sans';-inkscape-font-specification:'IBM Plex Sans, Normal';text-align:center;letter-spacing:0px;word-spacing:0.132292px;text-anchor:middle;fill:#f2e4ca;fill-opacity:0.89019603;fill-rule:evenodd;stroke-width:0.1;stroke-linecap:round;stroke-linejoin:round;paint-order:fill markers stroke"
   aria-label="5" /><path
   d="m 63.590821,96.123132 q -0.1778,0 -0.30868,-0.07902 -0.128411,-0.08149 -0.200024,-0.229657 -0.06914,-0.148167 -0.06914,-0.35313 0,-0.192617 0.05433,-0.360539 0.0568,-0.167922 0.148166,-0.30868 0.09384,-0.140758 0.200025,-0.246944 0.108655,-0.108655 0.212372,-0.17533 h 0.266699 q -0.182738,0.13335 -0.316088,0.26423 -0.13088,0.128411 -0.217311,0.279047 -0.08643,0.150636 -0.13335,0.35066 l 0.01235,0.0049 q 0.04198,-0.07161 0.09631,-0.125941 0.0568,-0.0568 0.135819,-0.0889 0.07902,-0.0321 0.182739,-0.0321 0.148166,0 0.26176,0.06421 0.116064,0.06421 0.180269,0.185208 0.06668,0.118533 0.06668,0.281516 0,0.167922 -0.07161,0.298802 -0.07161,0.128411 -0.200024,0.200025 -0.128411,0.07161 -0.301272,0.07161 z m -0.0025,-0.18027 q 0.113594,0 0.192616,-0.04198 0.08149,-0.04198 0.123472,-0.123472 0.04445,-0.08149 0.04445,-0.197555 v -0.01976 q 0,-0.116063 -0.04445,-0.197555 -0.04198,-0.08149 -0.123472,-0.123472 -0.07902,-0.04198 -0.192616,-0.04198 -0.113595,0 -0.195086,0.04198 -0.07902,0.04198 -0.123472,0.123472 -0.04198,0.08149 -0.04198,0.197555 v 0.01976 q 0,0.116063 0.04198,0.197555 0.04445,0.08149 0.123472,0.123472 0.08149,0.04198 0.195086,0.04198 z"
   id="text7"
   style="font-size:2.46944px;line-height:0;font-family:'IBM Plex Sans';-inkscape-font-specification:'IBM Plex Sans, Normal';text-align:center;letter-spacing:0px;word-spacing:0.132292px;text-anchor:middle;fill:#f2e4ca;fill-opacity:0.89019603;fill-rule:evenodd;stroke-width:0.1;stroke-linecap:round;stroke-linejoin:round;paint-order:fill markers stroke"
   aria-label="6" /><path
   d="m 74.393962,96.108315 h -0.22225 l 0.65934,-1.54587 h -0.735893 v 0.321027 h -0.185208 v -0.498827 h 1.131004 v 0.182739 z"
   id="text8"
   style="font-size:2.46944px;line-height:0;font-family:'IBM Plex Sans';-inkscape-font-specification:'IBM Plex Sans, Normal';text-align:center;letter-spacing:0px;word-spacing:0.132292px;text-anchor:middle;fill:#f2e4ca;fill-opacity:0.89019603;fill-rule:evenodd;stroke-width:0.1;stroke-linecap:round;stroke-linejoin:round;paint-order:fill markers stroke"
   aria-label="7" /><path
   d="m 85.362564,96.137948 q -0.195086,0 -0.328436,-0.06421 -0.13335,-0.06667 -0.202494,-0.180269 -0.06667,-0.113594 -0.06667,-0.254352 0,-0.17533 0.09631,-0.279047 0.09631,-0.106186 0.251883,-0.148166 v -0.01976 q -0.135819,-0.04692 -0.217311,-0.150636 -0.07902,-0.106185 -0.07902,-0.254352 0,-0.197555 0.143228,-0.313619 0.145697,-0.118533 0.402519,-0.118533 0.256821,0 0.400049,0.118533 0.145697,0.116064 0.145697,0.313619 0,0.148167 -0.08149,0.254352 -0.07902,0.103717 -0.214841,0.150636 v 0.01976 q 0.155575,0.04198 0.251883,0.148166 0.09631,0.103717 0.09631,0.279047 0,0.140758 -0.06914,0.254352 -0.06668,0.113594 -0.200025,0.180269 -0.13088,0.06421 -0.328435,0.06421 z m 0,-0.180269 q 0.180269,0 0.279046,-0.08149 0.09878,-0.08149 0.09878,-0.227188 v -0.05186 q 0,-0.145697 -0.09878,-0.227188 -0.09878,-0.08149 -0.279046,-0.08149 -0.18027,0 -0.279047,0.08149 -0.09878,0.08149 -0.09878,0.227188 v 0.05186 q 0,0.145697 0.09878,0.227188 0.09878,0.08149 0.279047,0.08149 z m 0,-0.842079 q 0.160513,0 0.244474,-0.06915 0.08643,-0.07161 0.08643,-0.202494 v -0.03704 q 0,-0.130881 -0.08643,-0.200025 -0.08396,-0.07161 -0.244474,-0.07161 -0.160514,0 -0.246944,0.07161 -0.08396,0.06914 -0.08396,0.200025 v 0.03704 q 0,0.130881 0.08396,0.202494 0.08643,0.06915 0.246944,0.06915 z"
   id="text9"
   style="font-size:2.46944px;line-height:0;font-family:'IBM Plex Sans';-inkscape-font-specification:'IBM Plex Sans, Normal';text-align:center;letter-spacing:0px;word-spacing:0.132292px;text-anchor:middle;fill:#f2e4ca;fill-opacity:0.89019603;fill-rule:evenodd;stroke-width:0.1;stroke-linecap:round;stroke-linejoin:round;paint-order:fill markers stroke"
   aria-label="8" /><path
   style="baseline-shift:baseline;display:inline;overflow:visible;vector-effect:none;fill:#f2e4ca;fill-opacity:0.89019603;fill-rule:evenodd;stroke-linecap:round;stroke-linejoin:round;stroke-dasharray:0.1, 0.6;paint-order:fill markers stroke;enable-background:accumulate;stop-color:#000000;stop-opacity:1;opacity:0.529412"
   d="m 13.560547,95.197266 a 0.05,0.05 0 0 0 -0.04883,0.04883 0.05,0.05 0 0 0 0.04883,0.05078 h 0.09961 a 0.05,0.05 0 0 0 0.05078,-0.05078 0.05,0.05 0 0 0 -0.05078,-0.04883 z m 0.701172,0 a 0.05,0.05 0 0 0 -0.05078,0.04883 0.05,0.05 0 0 0 0.05078,0.05078 h 0.09961 a 0.05,0.05 0 0 0 0.04883,-0.05078 0.05,0.05 0 0 0 -0.04883,-0.04883 z m 0.699219,0 a 0.05,0.05 0 0 0 -0.05078,0.04883 0.05,0.05 0 0 0 0.05078,0.05078 h 0.09961 a 0.05,0.05 0 0 0 0.05078,-0.05078 0.05,0.05 0 0 0 -0.05078,-0.04883 z m 0.699218,0 a 0.05,0.05 0 0 0 -0.04883,0.04883 0.05,0.05 0 0 0 0.04883,0.05078 h 0.101563 a 0.05,0.05 0 0 0 0.04883,-0.05078 0.05,0.05 0 0 0 -0.04883,-0.04883 z m 0.701172,0 a 0.05,0.05 0 0 0 -0.05078,0.04883 0.05,0.05 0 0 0 0.05078,0.05078 h 0.09961 a 0.05,0.05 0 0 0 0.05078,-0.05078 0.05,0.05 0 0 0 -0.05078,-0.04883 z m 0.699219,0 a 0.05,0.05 0 0 0 -0.04883,0.04883 0.05,0.05 0 0 0 0.04883,0.05078 h 0.09961 a 0.05,0.05 0 0 0 0.05078,-0.05078 0.05,0.05 0 0 0 -0.05078,-0.04883 z m 0.701172,0 a 0.05,0.05 0 0 0 -0.05078,0.04883 0.05,0.05 0 0 0 0.05078,0.05078 h 0.09961 a 0.05,0.05 0 0 0 0.04883,-0.05078 0.05,0.05 0 0 0 -0.04883,-0.04883 z m 0.699218,0 a 0.05,0.05 0 0 0 -0.05078,0.04883 0.05,0.05 0 0 0 0.05078,0.05078 h 0.09961 a 0.05,0.05 0 0 0 0.05078,-0.05078 0.05,0.05 0 0 0 -0.05078,-0.04883 z m 0.699219,0 a 0.05,0.05 0 0 0 -0.04883,0.04883 0.05,0.05 0 0 0 0.04883,0.05078 h 0.101563 a 0.05,0.05 0 0 0 0.04883,-0.05078 0.05,0.05 0 0 0 -0.04883,-0.04883 z m 0.701172,0 a 0.05,0.05 0 0 0 -0.05078,0.04883 0.05,0.05 0 0 0 0.05078,0.05078 h 0.09961 a 0.05,0.05 0 0 0 0.05078,-0.05078 0.05,0.05 0 0 0 -0.05078,-0.04883 z m 0.699219,0 a 0.05,0.05 0 0 0 -0.04883,0.04883 0.05,0.05 0 0 0 0.04883,0.05078 h 0.09961 a 0.05,0.05 0 0 0 0.05078,-0.05078 0.05,0.05 0 0 0 -0.05078,-0.04883 z m 0.701172,0 a 0.05,0.05 0 0 0 -0.05078,0.04883 0.05,0.05 0 0 0 0.05078,0.05078 h 0.09961 a 0.05,0.05 0 0 0 0.04883,-0.05078 0.05,0.05 0 0 0 -0.04883,-0.04883 z m 0.699218,0 a 0.05,0.05 0 0 0 -0.05078,0.04883 0.05,0.05 0 0 0 0.05078,0.05078 h 0.09961 a 0.05,0.05 0 0 0 0.05078,-0.05078 0.05,0.05 0 0 0 -0.05078,-0.04883 z m 0.699219,0 a 0.05,0.05 0 0 0 -0.04883,0.04883 0.05,0.05 0 0 0 0.04883,0.05078 h 0.101563 a 0.05,0.05 0 0 0 0.04883,-0.05078 0.05,0.05 0 0 0 -0.04883,-0.04883 z m 0.701172,0 a 0.05,0.05 0 0 0 -0.05078,0.04883 0.05,0.05 0 0 0 0.05078,0.05078 h 0.09961 a 0.05,0.05 0 0 0 0.05078,-0.05078 0.05,0.05 0 0 0 -0.05078,-0.04883 z m 0.699219,0 a 0.05,0.05 0 0 0 -0.04883,0.04883 0.05,0.05 0 0 0 0.04883,0.05078 h 0.09961 a 0.05,0.05 0 0 0 0.05078,-0.05078 0.05,0.05 0 0 0 -0.05078,-0.04883 z m 0.701172,0 a 0.05,0.05 0 0 0 -0.05078,0.04883 0.05,0.05 0 0 0 0.05078,0.05078 h 0.09961 a 0.05,0.05 0 0 0 0.04883,-0.05078 0.05,0.05 0 0 0 -0.04883,-0.04883 z m 0.699218,0 a 0.05,0.05 0 0 0 -0.05078,0.04883 0.05,0.05 0 0 0 0.05078,0.05078 h 0.09961 a 0.05,0.05 0 0 0 0.05078,-0.05078 0.05,0.05 0 0 0 -0.05078,-0.04883 z m 0.699219,0 a 0.05,0.05 0 0 0 -0.04883,0.04883 0.05,0.05 0 0 0 0.04883,0.05078 h 0.101563 a 0.05,0.05 0 0 0 0.04883,-0.05078 0.05,0.05 0 0 0 -0.04883,-0.04883 z m 0.701172,0 a 0.05,0.05 0 0 0 -0.05078,0.04883 0.05,0.05 0 0 0 0.05078,0.05078 h 0.09961 a 0.05,0.05 0 0 0 0.05078,-0.05078 0.05,0.05 0 0 0 -0.05078,-0.04883 z m 0.699219,0 a 0.05,0.05 0 0 0 -0.04883,0.04883 0.05,0.05 0 0 0 0.04883,0.05078 h 0.09961 a 0.05,0.05 0 0 0 0.05078,-0.05078 0.05,0.05 0 0 0 -0.05078,-0.04883 z m 0.701172,0 a 0.05,0.05 0 0 0 -0.05078,0.04883 0.05,0.05 0 0 0 0.05078,0.05078 h 0.09961 a 0.05,0.05 0 0 0 0.04883,-0.05078 0.05,0.05 0 0 0 -0.04883,-0.04883 z m 0.699218,0 a 0.05,0.05 0 0 0 -0.05078,0.04883 0.05,0.05 0 0 0 0.05078,0.05078 h 0.09961 a 0.05,0.05 0 0 0 0.05078,-0.05078 0.05,0.05 0 0 0 -0.05078,-0.04883 z m 0.699219,0 a 0.05,0.05 0 0 0 -0.04883,0.04883 0.05,0.05 0 0 0 0.04883,0.05078 h 0.101563 a 0.05,0.05 0 0 0 0.04883,-0.05078 0.05,0.05 0 0 0 -0.04883,-0.04883 z m 0.701172,0 a 0.05,0.05 0 0 0 -0.05078,0.04883 0.05,0.05 0 0 0 0.05078,0.05078 h 0.09961 a 0.05,0.05 0 0 0 0.05078,-0.05078 0.05,0.05 0 0 0 -0.05078,-0.04883 z m 0.699219,0 a 0.05,0.05 0 0 0 -0.04883,0.04883 0.05,0.05 0 0 0 0.04883,0.05078 h 0.09961 a 0.05,0.05 0 0 0 0.05078,-0.05078 0.05,0.05 0 0 0 -0.05078,-0.04883 z m 0.701172,0 a 0.05,0.05 0 0 0 -0.05078,0.04883 0.05,0.05 0 0 0 0.05078,0.05078 h 0.09961 a 0.05,0.05 0 0 0 0.04883,-0.05078 0.05,0.05 0 0 0 -0.04883,-0.04883 z m 0.699218,0 a 0.05,0.05 0 0 0 -0.05078,0.04883 0.05,0.05 0 0 0 0.05078,0.05078 h 0.09961 a 0.05,0.05 0 0 0 0.05078,-0.05078 0.05,0.05 0 0 0 -0.05078,-0.04883 z m 0.699219,0 a 0.05,0.05 0 0 0 -0.04883,0.04883 0.05,0.05 0 0 0 0.04883,0.05078 h 0.101563 a 0.05,0.05 0 0 0 0.04883,-0.05078 0.05,0.05 0 0 0 -0.04883,-0.04883 z m 0.701172,0 a 0.05,0.05 0 0 0 -0.05078,0.04883 0.05,0.05 0 0 0 0.05078,0.05078 h 0.09961 a 0.05,0.05 0 0 0 0.05078,-0.05078 0.05,0.05 0 0 0 -0.05078,-0.04883 z m 0.699219,0 a 0.05,0.05 0 0 0 -0.04883,0.04883 0.05,0.05 0 0 0 0.04883,0.05078 h 0.09961 a 0.05,0.05 0 0 0 0.05078,-0.05078 0.05,0.05 0 0 0 -0.05078,-0.04883 z m 0.701172,0 a 0.05,0.05 0 0 0 -0.05078,0.04883 0.05,0.05 0 0 0 0.05078,0.05078 h 0.09961 a 0.05,0.05 0 0 0 0.04883,-0.05078 0.05,0.05 0 0 0 -0.04883,-0.04883 z m 0.699218,0 a 0.05,0.05 0 0 0 -0.05078,0.04883 0.05,0.05 0 0 0 0.05078,0.05078 h 0.09961 a 0.05,0.05 0 0 0 0.05078,-0.05078 0.05,0.05 0 0 0 -0.05078,-0.04883 z m 0.699219,0 a 0.05,0.05 0 0 0 -0.04883,0.04883 0.05,0.05 0 0 0 0.04883,0.05078 h 0.101563 a 0.05,0.05 0 0 0 0.04883,-0.05078 0.05,0.05 0 0 0 -0.04883,-0.04883 z m 0.701172,0 a 0.05,0.05 0 0 0 -0.05078,0.04883 0.05,0.05 0 0 0 0.05078,0.05078 h 0.09961 a 0.05,0.05 0 0 0 0.05078,-0.05078 0.05,0.05 0 0 0 -0.05078,-0.04883 z m 0.699219,0 a 0.05,0.05 0 0 0 -0.04883,0.04883 0.05,0.05 0 0 0 0.04883,0.05078 h 0.09961 a 0.05,0.05 0 0 0 0.05078,-0.05078 0.05,0.05 0 0 0 -0.05078,-0.04883 z m 0.701172,0 a 0.05,0.05 0 0 0 -0.05078,0.04883 0.05,0.05 0 0 0 0.05078,0.05078 h 0.09961 a 0.05,0.05 0 0 0 0.04883,-0.05078 0.05,0.05 0 0 0 -0.04883,-0.04883 z m 0.699218,0 a 0.05,0.05 0 0 0 -0.05078,0.04883 0.05,0.05 0 0 0 0.05078,0.05078 h 0.09961 a 0.05,0.05 0 0 0 0.05078,-0.05078 0.05,0.05 0 0 0 -0.05078,-0.04883 z m 0.699219,0 a 0.05,0.05 0 0 0 -0.04883,0.04883 0.05,0.05 0 0 0 0.04883,0.05078 h 0.101563 a 0.05,0.05 0 0 0 0.04883,-0.05078 0.05,0.05 0 0 0 -0.04883,-0.04883 z m 0.701172,0 a 0.05,0.05 0 0 0 -0.05078,0.04883 0.05,0.05 0 0 0 0.05078,0.05078 h 0.09961 a 0.05,0.05 0 0 0 0.05078,-0.05078 0.05,0.05 0 0 0 -0.05078,-0.04883 z m 0.699219,0 a 0.05,0.05 0 0 0 -0.04883,0.04883 0.05,0.05 0 0 0 0.04883,0.05078 h 0.09961 a 0.05,0.05 0 0 0 0.05078,-0.05078 0.05,0.05 0 0 0 -0.05078,-0.04883 z m 0.701172,0 a 0.05,0.05 0 0 0 -0.05078,0.04883 0.05,0.05 0 0 0 0.05078,0.05078 h 0.09961 a 0.05,0.05 0 0 0 0.04883,-0.05078 0.05,0.05 0 0 0 -0.04883,-0.04883 z m 0.699218,0 a 0.05,0.05 0 0 0 -0.05078,0.04883 0.05,0.05 0 0 0 0.05078,0.05078 h 0.09961 a 0.05,0.05 0 0 0 0.05078,-0.05078 0.05,0.05 0 0 0 -0.05078,-0.04883 z m 0.699219,0 a 0.05,0.05 0 0 0 -0.04883,0.04883 0.05,0.05 0 0 0 0.04883,0.05078 h 0.101563 a 0.05,0.05 0 0 0 0.04883,-0.05078 0.05,0.05 0 0 0 -0.04883,-0.04883 z m 0.701172,0 a 0.05,0.05 0 0 0 -0.05078,0.04883 0.05,0.05 0 0 0 0.05078,0.05078 h 0.09961 a 0.05,0.05 0 0 0 0.05078,-0.05078 0.05,0.05 0 0 0 -0.05078,-0.04883 z m 0.699219,0 a 0.05,0.05 0 0 0 -0.04883,0.04883 0.05,0.05 0 0 0 0.04883,0.05078 h 0.09961 a 0.05,0.05 0 0 0 0.05078,-0.05078 0.05,0.05 0 0 0 -0.05078,-0.04883 z m 0.701172,0 a 0.05,0.05 0 0 0 -0.05078,0.04883 0.05,0.05 0 0 0 0.05078,0.05078 h 0.09961 a 0.05,0.05 0 0 0 0.04883,-0.05078 0.05,0.05 0 0 0 -0.04883,-0.04883 z m 0.699218,0 a 0.05,0.05 0 0 0 -0.05078,0.04883 0.05,0.05 0 0 0 0.05078,0.05078 h 0.09961 a 0.05,0.05 0 0 0 0.05078,-0.05078 0.05,0.05 0 0 0 -0.05078,-0.04883 z m 0.699219,0 a 0.05,0.05 0 0 0 -0.04883,0.04883 0.05,0.05 0 0 0 0.04883,0.05078 h 0.101563 a 0.05,0.05 0 0 0 0.04883,-0.05078 0.05,0.05 0 0 0 -0.04883,-0.04883 z m 0.701172,0 a 0.05,0.05 0 0 0 -0.05078,0.04883 0.05,0.05 0 0 0 0.05078,0.05078 h 0.09961 a 0.05,0.05 0 0 0 0.05078,-0.05078 0.05,0.05 0 0 0 -0.05078,-0.04883 z m 0.699219,0 a 0.05,0.05 0 0 0 -0.04883,0.04883 0.05,0.05 0 0 0 0.04883,0.05078 h 0.09961 a 0.05,0.05 0 0 0 0.05078,-0.05078 0.05,0.05 0 0 0 -0.05078,-0.04883 z m 0.701172,0 a 0.05,0.05 0 0 0 -0.05078,0.04883 0.05,0.05 0 0 0 0.05078,0.05078 h 0.09961 a 0.05,0.05 0 0 0 0.04883,-0.05078 0.05,0.05 0 0 0 -0.04883,-0.04883 z m 0.699218,0 a 0.05,0.05 0 0 0 -0.05078,0.04883 0.05,0.05 0 0 0 0.05078,0.05078 h 0.09961 a 0.05,0.05 0 0 0 0.05078,-0.05078 0.05,0.05 0 0 0 -0.05078,-0.04883 z m 0.699219,0 a 0.05,0.05 0 0 0 -0.04883,0.04883 0.05,0.05 0 0 0 0.04883,0.05078 h 0.101563 a 0.05,0.05 0 0 0 0.04883,-0.05078 0.05,0.05 0 0 0 -0.04883,-0.04883 z m 0.701172,0 a 0.05,0.05 0 0 0 -0.05078,0.04883 0.05,0.05 0 0 0 0.05078,0.05078 h 0.09961 a 0.05,0.05 0 0 0 0.05078,-0.05078 0.05,0.05 0 0 0 -0.05078,-0.04883 z m 0.699219,0 a 0.05,0.05 0 0 0 -0.04883,0.04883 0.05,0.05 0 0 0 0.04883,0.05078 h 0.09961 a 0.05,0.05 0 0 0 0.05078,-0.05078 0.05,0.05 0 0 0 -0.05078,-0.04883 z m 0.701172,0 a 0.05,0.05 0 0 0 -0.05078,0.04883 0.05,0.05 0 0 0 0.05078,0.05078 h 0.09961 a 0.05,0.05 0 0 0 0.04883,-0.05078 0.05,0.05 0 0 0 -0.04883,-0.04883 z m 0.699218,0 a 0.05,0.05 0 0 0 -0.05078,0.04883 0.05,0.05 0 0 0 0.05078,0.05078 h 0.09961 a 0.05,0.05 0 0 0 0.05078,-0.05078 0.05,0.05 0 0 0 -0.05078,-0.04883 z m 0.699219,0 a 0.05,0.05 0 0 0 -0.04883,0.04883 0.05,0.05 0 0 0 0.04883,0.05078 h 0.101563 a 0.05,0.05 0 0 0 0.04883,-0.05078 0.05,0.05 0 0 0 -0.04883,-0.04883 z m 0.701172,0 a 0.05,0.05 0 0 0 -0.05078,0.04883 0.05,0.05 0 0 0 0.05078,0.05078 h 0.09961 a 0.05,0.05 0 0 0 0.05078,-0.05078 0.05,0.05 0 0 0 -0.05078,-0.04883 z m 0.699219,0 a 0.05,0.05 0 0 0 -0.04883,0.04883 0.05,0.05 0 0 0 0.04883,0.05078 h 0.09961 a 0.05,0.05 0 0 0 0.05078,-0.05078 0.05,0.05 0 0 0 -0.05078,-0.04883 z m 0.701172,0 a 0.05,0.05 0 0 0 -0.05078,0.04883 0.05,0.05 0 0 0 0.05078,0.05078 h 0.09961 a 0.05,0.05 0 0 0 0.04883,-0.05078 0.05,0.05 0 0 0 -0.04883,-0.04883 z m 0.699218,0 a 0.05,0.05 0 0 0 -0.05078,0.04883 0.05,0.05 0 0 0 0.05078,0.05078 h 0.09961 a 0.05,0.05 0 0 0 0.05078,-0.05078 0.05,0.05 0 0 0 -0.05078,-0.04883 z m 0.699219,0 a 0.05,0.05 0 0 0 -0.04883,0.04883 0.05,0.05 0 0 0 0.04883,0.05078 h 0.101563 a 0.05,0.05 0 0 0 0.04883,-0.05078 0.05,0.05 0 0 0 -0.04883,-0.04883 z m 0.701172,0 a 0.05,0.05 0 0 0 -0.05078,0.04883 0.05,0.05 0 0 0 0.05078,0.05078 h 0.09961 a 0.05,0.05 0 0 0 0.05078,-0.05078 0.05,0.05 0 0 0 -0.05078,-0.04883 z m 0.699219,0 a 0.05,0.05 0 0 0 -0.04883,0.04883 0.05,0.05 0 0 0 0.04883,0.05078 h 0.09961 a 0.05,0.05 0 0 0 0.05078,-0.05078 0.05,0.05 0 0 0 -0.05078,-0.04883 z m 0.701172,0 a 0.05,0.05 0 0 0 -0.05078,0.04883 0.05,0.05 0 0 0 0.05078,0.05078 h 0.09961 a 0.05,0.05 0 0 0 0.04883,-0.05078 0.05,0.05 0 0 0 -0.04883,-0.04883 z m 0.699218,0 a 0.05,0.05 0 0 0 -0.05078,0.04883 0.05,0.05 0 0 0 0.05078,0.05078 h 0.09961 a 0.05,0.05 0 0 0 0.05078,-0.05078 0.05,0.05 0 0 0 -0.05078,-0.04883 z m 0.699219,0 a 0.05,0.05 0 0 0 -0.04883,0.04883 0.05,0.05 0 0 0 0.04883,0.05078 h 0.101563 a 0.05,0.05 0 0 0 0.04883,-0.05078 0.05,0.05 0 0 0 -0.04883,-0.04883 z m 0.701172,0 a 0.05,0.05 0 0 0 -0.05078,0.04883 0.05,0.05 0 0 0 0.05078,0.05078 h 0.09961 a 0.05,0.05 0 0 0 0.05078,-0.05078 0.05,0.05 0 0 0 -0.05078,-0.04883 z m 0.699219,0 a 0.05,0.05 0 0 0 -0.04883,0.04883 0.05,0.05 0 0 0 0.04883,0.05078 h 0.09961 a 0.05,0.05 0 0 0 0.05078,-0.05078 0.05,0.05 0 0 0 -0.05078,-0.04883 z m 0.701172,0 a 0.05,0.05 0 0 0 -0.05078,0.04883 0.05,0.05 0 0 0 0.05078,0.05078 h 0.09961 a 0.05,0.05 0 0 0 0.04883,-0.05078 0.05,0.05 0 0 0 -0.04883,-0.04883 z m 0.699218,0 a 0.05,0.05 0 0 0 -0.05078,0.04883 0.05,0.05 0 0 0 0.05078,0.05078 h 0.09961 a 0.05,0.05 0 0 0 0.05078,-0.05078 0.05,0.05 0 0 0 -0.05078,-0.04883 z m 0.699219,0 a 0.05,0.05 0 0 0 -0.04883,0.04883 0.05,0.05 0 0 0 0.04883,0.05078 h 0.101563 a 0.05,0.05 0 0 0 0.04883,-0.05078 0.05,0.05 0 0 0 -0.04883,-0.04883 z m 0.701172,0 a 0.05,0.05 0 0 0 -0.05078,0.04883 0.05,0.05 0 0 0 0.05078,0.05078 h 0.09961 a 0.05,0.05 0 0 0 0.05078,-0.05078 0.05,0.05 0 0 0 -0.05078,-0.04883 z m 0.699219,0 a 0.05,0.05 0 0 0 -0.04883,0.04883 0.05,0.05 0 0 0 0.04883,0.05078 h 0.09961 a 0.05,0.05 0 0 0 0.05078,-0.05078 0.05,0.05 0 0 0 -0.05078,-0.04883 z m 0.701172,0 a 0.05,0.05 0 0 0 -0.05078,0.04883 0.05,0.05 0 0 0 0.05078,0.05078 h 0.09961 a 0.05,0.05 0 0 0 0.04883,-0.05078 0.05,0.05 0 0 0 -0.04883,-0.04883 z m 0.699218,0 a 0.05,0.05 0 0 0 -0.05078,0.04883 0.05,0.05 0 0 0 0.05078,0.05078 h 0.09961 a 0.05,0.05 0 0 0 0.05078,-0.05078 0.05,0.05 0 0 0 -0.05078,-0.04883 z m 0.699219,0 a 0.05,0.05 0 0 0 -0.04883,0.04883 0.05,0.05 0 0 0 0.04883,0.05078 h 0.101563 a 0.05,0.05 0 0 0 0.04883,-0.05078 0.05,0.05 0 0 0 -0.04883,-0.04883 z m 0.701172,0 a 0.05,0.05 0 0 0 -0.05078,0.04883 0.05,0.05 0 0 0 0.05078,0.05078 h 0.09961 a 0.05,0.05 0 0 0 0.05078,-0.05078 0.05,0.05 0 0 0 -0.05078,-0.04883 z m 0.699219,0 a 0.05,0.05 0 0 0 -0.04883,0.04883 0.05,0.05 0 0 0 0.04883,0.05078 h 0.09961 a 0.05,0.05 0 0 0 0.05078,-0.05078 0.05,0.05 0 0 0 -0.05078,-0.04883 z m 0.701172,0 a 0.05,0.05 0 0 0 -0.05078,0.04883 0.05,0.05 0 0 0 0.05078,0.05078 h 0.09961 a 0.05,0.05 0 0 0 0.04883,-0.05078 0.05,0.05 0 0 0 -0.04883,-0.04883 z m 0.699218,0 a 0.05,0.05 0 0 0 -0.05078,0.04883 0.05,0.05 0 0 0 0.05078,0.05078 h 0.09961 a 0.05,0.05 0 0 0 0.05078,-0.05078 0.05,0.05 0 0 0 -0.05078,-0.04883 z m 0.699219,0 a 0.05,0.05 0 0 0 -0.04883,0.04883 0.05,0.05 0 0 0 0.04883,0.05078 h 0.101563 a 0.05,0.05 0 0 0 0.04883,-0.05078 0.05,0.05 0 0 0 -0.04883,-0.04883 z m 0.701172,0 a 0.05,0.05 0 0 0 -0.05078,0.04883 0.05,0.05 0 0 0 0.05078,0.05078 h 0.09961 a 0.05,0.05 0 0 0 0.05078,-0.05078 0.05,0.05 0 0 0 -0.05078,-0.04883 z m 0.699219,0 a 0.05,0.05 0 0 0 -0.04883,0.04883 0.05,0.05 0 0 0 0.04883,0.05078 h 0.09961 a 0.05,0.05 0 0 0 0.05078,-0.05078 0.05,0.05 0 0 0 -0.05078,-0.04883 z m 0.701172,0 a 0.05,0.05 0 0 0 -0.05078,0.04883 0.05,0.05 0 0 0 0.05078,0.05078 h 0.09961 a 0.05,0.05 0 0 0 0.04883,-0.05078 0.05,0.05 0 0 0 -0.04883,-0.04883 z m 0.699218,0 a 0.05,0.05 0 0 0 -0.05078,0.04883 0.05,0.05 0 0 0 0.05078,0.05078 h 0.09961 a 0.05,0.05 0 0 0 0.05078,-0.05078 0.05,0.05 0 0 0 -0.05078,-0.04883 z m 0.699219,0 a 0.05,0.05 0 0 0 -0.04883,0.04883 0.05,0.05 0 0 0 0.04883,0.05078 h 0.101563 a 0.05,0.05 0 0 0 0.04883,-0.05078 0.05,0.05 0 0 0 -0.04883,-0.04883 z m 0.701172,0 a 0.05,0.05 0 0 0 -0.05078,0.04883 0.05,0.05 0 0 0 0.05078,0.05078 h 0.09961 a 0.05,0.05 0 0 0 0.05078,-0.05078 0.05,0.05 0 0 0 -0.05078,-0.04883 z m 0.699219,0 a 0.05,0.05 0 0 0 -0.04883,0.04883 0.05,0.05 0 0 0 0.04883,0.05078 h 0.09961 a 0.05,0.05 0 0 0 0.05078,-0.05078 0.05,0.05 0 0 0 -0.05078,-0.04883 z m 0.701172,0 a 0.05,0.05 0 0 0 -0.05078,0.04883 0.05,0.05 0 0 0 0.05078,0.05078 h 0.09961 a 0.05,0.05 0 0 0 0.04883,-0.05078 0.05,0.05 0 0 0 -0.04883,-0.04883 z m 0.699218,0 a 0.05,0.05 0 0 0 -0.05078,0.04883 0.05,0.05 0 0 0 0.05078,0.05078 h 0.09961 a 0.05,0.05 0 0 0 0.05078,-0.05078 0.05,0.05 0 0 0 -0.05078,-0.04883 z m 0.699219,0 a 0.05,0.05 0 0 0 -0.04883,0.04883 0.05,0.05 0 0 0 0.04883,0.05078 h 0.101563 a 0.05,0.05 0 0 0 0.04883,-0.05078 0.05,0.05 0 0 0 -0.04883,-0.04883 z m 0.701172,0 a 0.05,0.05 0 0 0 -0.05078,0.04883 0.05,0.05 0 0 0 0.05078,0.05078 h 0.09961 a 0.05,0.05 0 0 0 0.05078,-0.05078 0.05,0.05 0 0 0 -0.05078,-0.04883 z m 0.699219,0 a 0.05,0.05 0 0 0 -0.04883,0.04883 0.05,0.05 0 0 0 0.04883,0.05078 h 0.09961 a 0.05,0.05 0 0 0 0.05078,-0.05078 0.05,0.05 0 0 0 -0.05078,-0.04883 z m 0.701172,0 a 0.05,0.05 0 0 0 -0.05078,0.04883 0.05,0.05 0 0 0 0.05078,0.05078 h 0.09961 a 0.05,0.05 0 0 0 0.04883,-0.05078 0.05,0.05 0 0 0 -0.04883,-0.04883 z m 0.699218,0 a 0.05,0.05 0 0 0 -0.05078,0.04883 0.05,0.05 0 0 0 0.05078,0.05078 h 0.09961 a 0.05,0.05 0 0 0 0.05078,-0.05078 0.05,0.05 0 0 0 -0.05078,-0.04883 z m 0.699219,0 a 0.05,0.05 0 0 0 -0.04883,0.04883 0.05,0.05 0 0 0 0.04883,0.05078 h 0.101563 a 0.05,0.05 0 0 0 0.04883,-0.05078 0.05,0.05 0 0 0 -0.04883,-0.04883 z m 0.701172,0 a 0.05,0.05 0 0 0 -0.05078,0.04883 0.05,0.05 0 0 0 0.05078,0.05078 h 0.09961 a 0.05,0.05 0 0 0 0.05078,-0.05078 0.05,0.05 0 0 0 -0.05078,-0.04883 z m 0.699219,0 a 0.05,0.05 0 0 0 -0.04883,0.04883 0.05,0.05 0 0 0 0.04883,0.05078 h 0.09961 a 0.05,0.05 0 0 0 0.05078,-0.05078 0.05,0.05 0 0 0 -0.05078,-0.04883 z m 0.701172,0 a 0.05,0.05 0 0 0 -0.05078,0.04883 0.05,0.05 0 0 0 0.05078,0.05078 h 0.09961 a 0.05,0.05 0 0 0 0.04883,-0.05078 0.05,0.05 0 0 0 -0.04883,-0.04883 z"
   id="path9" /><path
   d="m 14.109897,109.64893 h -0.691443 v -0.17286 h 0.242005 v -1.37794 h -0.242005 v -0.17287 h 0.691443 v 0.17287 h -0.242005 v 1.37794 h 0.242005 z m 1.424866,0 -0.629707,-1.05198 -0.207433,-0.38276 h -0.0074 v 0.38276 1.05198 h -0.202494 v -1.72367 h 0.239535 l 0.629707,1.05199 0.207433,0.38276 h 0.0074 v -0.38276 -1.05199 h 0.202494 v 1.72367 z"
   id="text10"
   style="font-size:2.46944px;line-height:0;font-family:'IBM Plex Sans';-inkscape-font-specification:'IBM Plex Sans, Normal';text-align:center;letter-spacing:0px;word-spacing:0.132292px;text-anchor:middle;opacity:0.769063;fill:#f2e4ca;fill-opacity:0.89019603;fill-rule:evenodd;stroke-width:0.1;stroke-linecap:round;stroke-linejoin:round;stroke-dasharray:0.1, 0.600001;stroke-opacity:0.890196;paint-order:fill markers stroke"
   aria-label="IN" /><path
   d="m 29.773803,109.64893 h -1.051982 v -1.72367 h 1.051982 v 0.18274 h -0.844549 v 0.57785 h 0.79516 v 0.18274 h -0.79516 v 0.5976 h 0.844549 z m 1.434745,0 -0.629707,-1.05198 -0.207433,-0.38276 h -0.0074 v 0.38276 1.05198 h -0.202494 v -1.72367 h 0.239536 l 0.629707,1.05199 0.207433,0.38276 h 0.0074 v -0.38276 -1.05199 h 0.202494 v 1.72367 z m 1.343377,0 h -0.251883 l -0.57291,-1.72367 h 0.22225 l 0.283985,0.86925 0.190147,0.64699 h 0.01235 l 0.195086,-0.64699 0.286455,-0.86925 h 0.214841 z"
   id="text11"
   style="font-size:2.46944px;line-height:0;font-family:'IBM Plex Sans';-inkscape-font-specification:'IBM Plex Sans, Normal';text-align:center;letter-spacing:0px;word-spacing:0.132292px;text-anchor:middle;opacity:0.769063;fill:#f2e4ca;fill-opacity:0.89019603;fill-rule:evenodd;stroke-width:0.1;stroke-linecap:round;stroke-linejoin:round;stroke-dasharray:0.1, 0.600001;stroke-opacity:0.890196;paint-order:fill markers stroke"
   aria-label="ENV" /><path
   d="m 39.287905,108.9081 v 0.74083 h -0.207433 v -1.72367 h 0.686504 q 0.150636,0 0.256822,0.0568 0.108655,0.0568 0.165453,0.16545 0.05927,0.10866 0.05927,0.2667 0,0.18768 -0.0889,0.31115 -0.0889,0.12347 -0.256821,0.16299 l 0.39511,0.76058 h -0.234597 l -0.372885,-0.74083 z m 0,-0.1778 h 0.479071 q 0.08149,0 0.138289,-0.0272 0.05927,-0.0296 0.0889,-0.084 0.0321,-0.0568 0.0321,-0.13582 v -0.12841 q 0,-0.079 -0.0321,-0.13335 -0.02963,-0.0568 -0.0889,-0.084 -0.0568,-0.0296 -0.138289,-0.0296 h -0.479071 z m 2.669463,0.91863 h -0.217311 l -0.17286,-0.5087 h -0.696383 l -0.17286,0.5087 h -0.209903 l 0.602544,-1.72367 h 0.26423 z m -0.44203,-0.69144 -0.21731,-0.62477 -0.07408,-0.21484 h -0.01235 l -0.07408,0.21484 -0.217311,0.62477 z m 1.696506,-0.84949 h -0.548215 v 1.54093 H 42.456196 V 108.108 H 41.90798 v -0.18274 h 1.303864 z m 1.335968,1.54093 h -1.051981 v -1.72367 h 1.051981 v 0.18274 h -0.844548 v 0.57785 h 0.79516 v 0.18274 h -0.79516 v 0.5976 h 0.844548 z"
   id="text12"
   style="font-size:2.46944px;line-height:0;font-family:'IBM Plex Sans';-inkscape-font-specification:'IBM Plex Sans, Normal';text-align:center;letter-spacing:0px;word-spacing:0.132292px;text-anchor:middle;opacity:0.769063;fill:#f2e4ca;fill-opacity:0.89019603;fill-rule:evenodd;stroke-width:0.1;stroke-linecap:round;stroke-linejoin:round;stroke-dasharray:0.1, 0.600001;stroke-opacity:0.890196;paint-order:fill markers stroke"
   aria-label="RATE" /><path
   d="m 51.666552,109.64893 h -0.940857 v -1.72367 h 0.207433 v 1.54093 h 0.733424 z m 0.503764,0 h -0.207433 v -1.72367 h 1.027287 v 0.18274 h -0.819854 v 0.57785 h 0.748241 v 0.18274 h -0.748241 z m 1.775527,0.0296 q -0.222249,0 -0.387702,-0.10125 -0.162983,-0.10372 -0.254352,-0.30127 -0.0889,-0.20003 -0.0889,-0.48895 0,-0.28893 0.0889,-0.48648 0.09137,-0.20003 0.254352,-0.30127 0.165453,-0.10372 0.387702,-0.10372 0.22225,0 0.385233,0.10372 0.165452,0.10124 0.254352,0.30127 0.09137,0.19755 0.09137,0.48648 0,0.28892 -0.09137,0.48895 -0.0889,0.19755 -0.254352,0.30127 -0.162983,0.10125 -0.385233,0.10125 z m 0,-0.18521 q 0.150636,0 0.26423,-0.0691 0.113594,-0.0716 0.1778,-0.19755 0.06668,-0.12594 0.06668,-0.29633 v -0.28646 q 0,-0.17039 -0.06668,-0.29633 -0.06421,-0.12841 -0.1778,-0.19756 -0.113594,-0.0691 -0.26423,-0.0691 -0.148166,0 -0.26423,0.0691 -0.113594,0.0692 -0.180269,0.19756 -0.06421,0.12594 -0.06421,0.29633 v 0.28646 q 0,0.17039 0.06421,0.29633 0.06667,0.12594 0.180269,0.19755 0.116064,0.0691 0.26423,0.0691 z"
   id="text13"
   style="font-size:2.46944px;line-height:0;font-family:'IBM Plex Sans';-inkscape-font-specification:'IBM Plex Sans, Normal';text-align:center;letter-spacing:0px;word-spacing:0.132292px;text-anchor:middle;opacity:0.769063;fill:#f2e4ca;fill-opacity:0.89019603;fill-rule:evenodd;stroke-width:0.1;stroke-linecap:round;stroke-linejoin:round;stroke-dasharray:0.1, 0.600001;stroke-opacity:0.890196;paint-order:fill markers stroke"
   aria-label="LFO" /><path
   d="m 61.479448,109.64893 v -1.72367 h 0.276577 l 0.325966,0.60996 0.167922,0.31855 h 0.01235 l 0.170392,-0.31855 0.325966,-0.60996 h 0.266699 v 1.72367 h -0.202494 v -1.1631 -0.28893 h -0.01235 l -0.145697,0.28893 -0.412397,0.75071 -0.412396,-0.75071 -0.145697,-0.28893 h -0.01235 v 0.28893 1.1631 z m 2.615137,0 h -0.691443 v -0.17286 h 0.242005 v -1.37794 h -0.242005 v -0.17287 h 0.691443 v 0.17287 H 63.85258 v 1.37794 h 0.242005 z m 0.207432,0 0.563033,-0.87665 -0.548216,-0.84702 h 0.249413 l 0.432152,0.68651 h 0.0049 l 0.44203,-0.68651 h 0.237066 l -0.553154,0.83961 0.567971,0.88406 h -0.249414 l -0.451907,-0.72354 h -0.0049 l -0.451907,0.72354 z"
   id="text14"
   style="font-size:2.46944px;line-height:0;font-family:'IBM Plex Sans';-inkscape-font-specification:'IBM Plex Sans, Normal';text-align:center;letter-spacing:0px;word-spacing:0.132292px;text-anchor:middle;opacity:0.769063;fill:#f2e4ca;fill-opacity:0.89019603;fill-rule:evenodd;stroke-width:0.1;stroke-linecap:round;stroke-linejoin:round;stroke-dasharray:0.1, 0.600001;stroke-opacity:0.890196;paint-order:fill markers stroke"
   aria-label="MIX" /><path
   d="m 78.331157,109.67857 q -0.222249,0 -0.387702,-0.10125 -0.162983,-0.10372 -0.254352,-0.30127 -0.0889,-0.20003 -0.0889,-0.48895 0,-0.28893 0.0889,-0.48648 0.09137,-0.20003 0.254352,-0.30127 0.165453,-0.10372 0.387702,-0.10372 0.22225,0 0.385233,0.10372 0.165452,0.10124 0.254352,0.30127 0.09137,0.19755 0.09137,0.48648 0,0.28892 -0.09137,0.48895 -0.0889,0.19755 -0.254352,0.30127 -0.162983,0.10125 -0.385233,0.10125 z m 0,-0.18521 q 0.150636,0 0.26423,-0.0691 0.113595,-0.0716 0.1778,-0.19755 0.06668,-0.12594 0.06668,-0.29633 v -0.28646 q 0,-0.17039 -0.06668,-0.29633 -0.0642,-0.12841 -0.1778,-0.19756 -0.113594,-0.0691 -0.26423,-0.0691 -0.148166,0 -0.26423,0.0691 -0.113594,0.0692 -0.180269,0.19756 -0.06421,0.12594 -0.06421,0.29633 v 0.28646 q 0,0.17039 0.06421,0.29633 0.06668,0.12594 0.180269,0.19755 0.116064,0.0691 0.26423,0.0691 z m 1.091493,-1.5681 h 0.207433 v 1.0668 q 0,0.16299 0.03951,0.27658 0.03951,0.11112 0.128411,0.16792 0.09137,0.0568 0.244475,0.0568 0.153105,0 0.242005,-0.0568 0.09137,-0.0568 0.13088,-0.16792 0.03951,-0.11359 0.03951,-0.27658 v -1.0668 h 0.207433 v 1.01741 q 0,0.24942 -0.06174,0.41487 -0.05927,0.16298 -0.197555,0.242 -0.138289,0.079 -0.367947,0.079 -0.229658,0 -0.363007,-0.079 -0.13335,-0.079 -0.192617,-0.242 -0.0568,-0.16545 -0.0568,-0.41487 z m 2.815161,0.18274 h -0.548216 v 1.54093 H 81.482162 V 108.108 h -0.548216 v -0.18274 h 1.303865 z"
   id="text15"
   style="font-size:2.46944px;line-height:0;font-family:'IBM Plex Sans';-inkscape-font-specification:'IBM Plex Sans, Normal';text-align:center;letter-spacing:0px;word-spacing:0.132292px;text-anchor:middle;opacity:0.769063;fill:#f2e4ca;fill-opacity:0.89019603;fill-rule:evenodd;stroke-width:0.1;stroke-linecap:round;stroke-linejoin:round;stroke-dasharray:0.1, 0.600001;stroke-opacity:0.890196;paint-order:fill markers stroke"
   aria-label="OUT" /><path
   d="m 11.401514,29.732628 v -1.723669 h 0.577849 q 0.214841,0 0.372885,0.09631 0.160514,0.09384 0.246944,0.286455 0.08643,0.190147 0.08643,0.479071 0,0.288925 -0.08643,0.481541 -0.08643,0.190147 -0.246944,0.286455 -0.158044,0.09384 -0.372885,0.09384 z m 0.207433,-0.182739 h 0.370416 q 0.143227,0 0.251883,-0.06421 0.108655,-0.0642 0.170391,-0.182739 0.06174,-0.121002 0.06174,-0.291393 V 28.73003 q 0,-0.170391 -0.06174,-0.291394 -0.06174,-0.121002 -0.170391,-0.182738 -0.108656,-0.06421 -0.251883,-0.06421 h -0.370416 z m 1.656993,-0.558093 v 0.740832 h -0.207433 v -1.723669 h 0.686504 q 0.150636,0 0.256822,0.0568 0.108655,0.0568 0.165452,0.165453 0.05927,0.108655 0.05927,0.266699 0,0.187677 -0.0889,0.311149 -0.0889,0.123472 -0.256822,0.162984 l 0.395111,0.760587 h -0.2346 l -0.372885,-0.740832 z m 0,-0.1778 h 0.479071 q 0.08149,0 0.138289,-0.02716 0.05927,-0.02963 0.0889,-0.08396 0.0321,-0.0568 0.0321,-0.13582 v -0.128411 q 0,-0.07902 -0.0321,-0.133349 -0.02963,-0.0568 -0.0889,-0.08396 -0.0568,-0.02963 -0.138289,-0.02963 H 13.26594 Z m 1.982959,0.918632 H 14.557455 V 29.559767 H 14.79946 V 28.18182 h -0.242005 v -0.172861 h 0.691444 v 0.172861 h -0.242006 v 1.377947 h 0.242006 z m 1.022347,0 h -0.251883 l -0.57291,-1.723669 h 0.22225 l 0.283985,0.869243 0.190147,0.646993 h 0.01235 l 0.195086,-0.646993 0.286455,-0.869243 h 0.214841 z m 1.911344,0 h -1.051981 v -1.723669 h 1.051981 v 0.182738 h -0.844548 v 0.577849 h 0.79516 v 0.182739 h -0.79516 v 0.597604 h 0.844548 z"
   id="text16"
   style="font-size:2.46944px;line-height:0;font-family:'IBM Plex Sans';-inkscape-font-specification:'IBM Plex Sans, Normal';text-align:center;letter-spacing:0px;word-spacing:0.132292px;text-anchor:middle;opacity:0.769063;fill:#f6ebd9;fill-opacity:0.89019597;fill-rule:evenodd;stroke-width:0.1;stroke-linecap:round;stroke-linejoin:round;stroke-dasharray:0.1, 0.600001;stroke-opacity:0.890196;paint-order:fill markers stroke"
   aria-label="DRIVE" /><path
   d="m 12.265814,48.713651 v 0.740832 h -0.207433 v -1.723669 h 0.686504 q 0.150636,0 0.256822,0.0568 0.108656,0.0568 0.165453,0.165453 0.05927,0.108655 0.05927,0.266699 0,0.187678 -0.0889,0.31115 -0.0889,0.123472 -0.256821,0.162983 l 0.39511,0.760587 h -0.234597 l -0.372885,-0.740832 z m 0,-0.177799 h 0.479071 q 0.08149,0 0.138289,-0.02716 0.05927,-0.02963 0.0889,-0.08396 0.0321,-0.0568 0.0321,-0.135819 v -0.128411 q 0,-0.07902 -0.0321,-0.13335 -0.02963,-0.0568 -0.0889,-0.08396 -0.0568,-0.02963 -0.138289,-0.02963 h -0.479071 z m 2.669463,0.918631 h -0.217311 l -0.17286,-0.508704 h -0.696382 l -0.172861,0.508704 H 13.46596 l 0.602544,-1.723669 h 0.26423 z m -0.44203,-0.691443 -0.21731,-0.624768 -0.07408,-0.214841 h -0.01235 l -0.07408,0.214841 -0.217311,0.624768 z m 1.696506,-0.849487 h -0.548215 v 1.54093 h -0.207433 v -1.54093 h -0.548216 v -0.182739 h 1.303864 z m 1.335969,1.54093 H 16.47374 v -1.723669 h 1.051982 v 0.182739 h -0.844549 v 0.577849 h 0.79516 v 0.182738 h -0.79516 v 0.597605 h 0.844549 z"
   id="text17"
   style="font-size:2.46944px;line-height:0;font-family:'IBM Plex Sans';-inkscape-font-specification:'IBM Plex Sans, Normal';text-align:center;letter-spacing:0px;word-spacing:0.132292px;text-anchor:middle;opacity:0.769063;fill:#f6ebd9;fill-opacity:0.89019597;fill-rule:evenodd;stroke-width:0.1;stroke-linecap:round;stroke-linejoin:round;stroke-dasharray:0.1, 0.600001;stroke-opacity:0.890196;paint-order:fill markers stroke"
   aria-label="RATE" /><path
   d="m 44.653108,29.732628 v -1.723669 h 0.276577 l 0.325966,0.609952 0.167922,0.318557 h 0.01235 l 0.170392,-0.318557 0.325966,-0.609952 h 0.266699 v 1.723669 h -0.202494 v -1.163106 -0.288925 h -0.01235 l -0.145697,0.288925 -0.412396,0.75071 -0.412397,-0.75071 -0.145697,-0.288925 h -0.01235 v 0.288925 1.163106 z m 2.615138,0 h -0.691444 v -0.172861 h 0.242005 V 28.18182 h -0.242005 v -0.172861 h 0.691444 V 28.18182 H 47.02624 v 1.377947 h 0.242006 z m 0.207432,0 0.563032,-0.876651 -0.548216,-0.847018 h 0.249414 l 0.432152,0.686504 h 0.0049 l 0.442029,-0.686504 h 0.237067 l -0.553155,0.83961 0.567971,0.884059 H 48.621498 L 48.16959,29.009082 h -0.0049 l -0.451907,0.723546 z"
   id="text18"
   style="font-size:2.46944px;line-height:0;font-family:'IBM Plex Sans';-inkscape-font-specification:'IBM Plex Sans, Normal';text-align:center;letter-spacing:0px;word-spacing:0.132292px;text-anchor:middle;opacity:0.769063;fill:#f6ebd9;fill-opacity:0.89019597;fill-rule:evenodd;stroke-width:0.1;stroke-linecap:round;stroke-linejoin:round;stroke-dasharray:0.1, 0.600001;stroke-opacity:0.890196;paint-order:fill markers stroke"
   aria-label="MIX" /><path
   d="m 41.971295,49.454483 h -0.207433 v -1.723669 h 0.686504 q 0.155575,0 0.261761,0.06174 0.108655,0.05927 0.162983,0.170392 0.0568,0.108655 0.0568,0.26176 0,0.150636 -0.0568,0.261761 -0.05433,0.111125 -0.162983,0.172861 -0.106186,0.05927 -0.261761,0.05927 h -0.479071 z m 0,-1.54093 v 0.622299 h 0.479071 q 0.08149,0 0.138289,-0.02716 0.05927,-0.02963 0.0889,-0.08396 0.0321,-0.0568 0.0321,-0.135819 v -0.128411 q 0,-0.07902 -0.0321,-0.13335 -0.02963,-0.0568 -0.0889,-0.08396 -0.0568,-0.02963 -0.138289,-0.02963 z m 2.474381,1.54093 h -0.217311 l -0.172861,-0.508704 h -0.696382 l -0.17286,0.508704 h -0.209903 l 0.602544,-1.723669 h 0.26423 z m -0.44203,-0.691443 -0.21731,-0.624768 -0.07408,-0.214841 h -0.01235 l -0.07408,0.214841 -0.217311,0.624768 z m 1.696506,-0.849487 h -0.548215 v 1.54093 h -0.207433 v -1.54093 h -0.548216 v -0.182739 h 1.303864 z m 1.46932,0 h -0.548216 v 1.54093 h -0.207433 v -1.54093 h -0.548215 v -0.182739 h 1.303864 z m 1.335968,1.54093 h -1.051981 v -1.723669 h 1.051981 v 0.182739 h -0.844548 v 0.577849 h 0.795159 v 0.182738 h -0.795159 v 0.597605 h 0.844548 z m 0.595136,-0.740832 v 0.740832 h -0.207433 v -1.723669 h 0.686504 q 0.150636,0 0.256822,0.0568 0.108655,0.0568 0.165452,0.165453 0.05927,0.108655 0.05927,0.266699 0,0.187678 -0.0889,0.31115 -0.0889,0.123472 -0.256822,0.162983 l 0.395111,0.760587 h -0.2346 l -0.372886,-0.740832 z m 0,-0.177799 h 0.479071 q 0.08149,0 0.138289,-0.02716 0.05927,-0.02963 0.0889,-0.08396 0.0321,-0.0568 0.0321,-0.135819 v -0.128411 q 0,-0.07902 -0.0321,-0.13335 -0.02963,-0.0568 -0.0889,-0.08396 -0.0568,-0.02963 -0.138289,-0.02963 h -0.479071 z m 2.420049,0.918631 -0.629707,-1.051981 -0.207433,-0.382763 h -0.0074 v 0.382763 1.051981 h -0.202502 v -1.723669 h 0.239535 l 0.629708,1.051982 0.207433,0.382763 h 0.0074 v -0.382763 -1.051982 h 0.202494 v 1.723669 z"
   id="text19"
   style="font-size:2.46944px;line-height:0;font-family:'IBM Plex Sans';-inkscape-font-specification:'IBM Plex Sans, Normal';text-align:center;letter-spacing:0px;word-spacing:0.132292px;text-anchor:middle;opacity:0.769063;fill:#f6ebd9;fill-opacity:0.89019597;fill-rule:evenodd;stroke-width:0.1;stroke-linecap:round;stroke-linejoin:round;stroke-dasharray:0.1, 0.600001;stroke-opacity:0.890196;paint-order:fill markers stroke"
   aria-label="PATTERN" /><path
   d="m 74.852481,29.762261 q -0.222249,0 -0.387702,-0.101247 -0.162983,-0.103716 -0.254352,-0.301271 -0.0889,-0.200025 -0.0889,-0.48895 0,-0.288924 0.0889,-0.486479 0.09137,-0.200025 0.254352,-0.301272 0.165453,-0.103716 0.387702,-0.103716 0.22225,0 0.385233,0.103716 0.165452,0.101247 0.254352,0.301272 0.09137,0.197555 0.09137,0.486479 0,0.288925 -0.09137,0.48895 -0.0889,0.197555 -0.254352,0.301271 -0.162983,0.101247 -0.385233,0.101247 z m 0,-0.185208 q 0.150636,0 0.26423,-0.06914 0.113595,-0.07161 0.1778,-0.197555 0.06668,-0.125942 0.06668,-0.296333 v -0.286459 q 0,-0.170391 -0.06668,-0.296333 -0.06421,-0.128411 -0.1778,-0.197555 -0.113594,-0.06914 -0.26423,-0.06914 -0.148166,0 -0.26423,0.06914 -0.113594,0.06914 -0.180269,0.197555 -0.06421,0.125942 -0.06421,0.296333 v 0.286455 q 0,0.170391 0.06421,0.296333 0.06667,0.125941 0.180269,0.197555 0.116064,0.06914 0.26423,0.06914 z m 1.091493,-1.568094 h 0.207433 v 1.066798 q 0,0.162983 0.03951,0.276577 0.03951,0.111125 0.128411,0.167922 0.09137,0.0568 0.244475,0.0568 0.153105,0 0.242005,-0.0568 0.09137,-0.0568 0.13088,-0.167922 0.03951,-0.113594 0.03951,-0.276577 v -1.066798 h 0.207433 v 1.017409 q 0,0.249414 -0.06174,0.414866 -0.05927,0.162983 -0.197555,0.242005 -0.138289,0.07902 -0.367947,0.07902 -0.229658,0 -0.363007,-0.07902 -0.13335,-0.07902 -0.192617,-0.242005 -0.0568,-0.165452 -0.0568,-0.414866 z m 2.815161,0.182738 h -0.548216 v 1.540931 H 78.003486 V 28.191697 H 77.45527 v -0.182738 h 1.303865 z m 0.491419,1.540931 h -0.207433 v -1.723669 h 0.686505 q 0.155575,0 0.26176,0.06174 0.108656,0.05927 0.162983,0.170391 0.0568,0.108656 0.0568,0.261761 0,0.150636 -0.0568,0.261761 -0.05433,0.111124 -0.162983,0.17286 -0.106185,0.05927 -0.26176,0.05927 h -0.479072 z m 0,-1.540931 v 0.622299 h 0.479072 q 0.08149,0 0.138288,-0.02716 0.05927,-0.02963 0.0889,-0.08396 0.0321,-0.0568 0.0321,-0.13582 v -0.128411 q 0,-0.07902 -0.0321,-0.133349 -0.02963,-0.0568 -0.0889,-0.08396 -0.0568,-0.02963 -0.138288,-0.02963 z m 1.276703,-0.182738 h 0.207433 v 1.066798 q 0,0.162983 0.03951,0.276577 0.03951,0.111125 0.128411,0.167922 0.09137,0.0568 0.244475,0.0568 0.153105,0 0.242005,-0.0568 0.09137,-0.0568 0.13088,-0.167922 0.03951,-0.113594 0.03951,-0.276577 v -1.066798 h 0.207433 v 1.017409 q 0,0.249414 -0.06174,0.414866 -0.05927,0.162983 -0.197555,0.242005 -0.138289,0.07902 -0.367947,0.07902 -0.229658,0 -0.363007,-0.07902 -0.13335,-0.07902 -0.192617,-0.242005 -0.0568,-0.165452 -0.0568,-0.414866 z m 2.815161,0.182738 h -0.548216 v 1.540931 h -0.207433 v -1.540931 h -0.548216 v -0.182738 h 1.303865 z"
   id="text20"
   style="font-size:2.46944px;line-height:0;font-family:'IBM Plex Sans';-inkscape-font-specification:'IBM Plex Sans, Normal';text-align:center;letter-spacing:0px;word-spacing:0.132292px;text-anchor:middle;opacity:0.769063;fill:#f6ebd9;fill-opacity:0.89019597;fill-rule:evenodd;stroke-width:0.1;stroke-linecap:round;stroke-linejoin:round;stroke-dasharray:0.1, 0.600001;stroke-opacity:0.890196;paint-order:fill markers stroke"
   aria-label="OUTPUT" /><path
   d="m 73.989414,49.454488 h -1.051982 v -1.723669 h 1.051982 v 0.182739 h -0.844549 v 0.577849 h 0.79516 v 0.182738 h -0.79516 v 0.597605 h 0.844549 z m 1.434745,0 -0.629707,-1.051981 -0.207433,-0.382763 h -0.0074 v 0.382763 1.051981 h -0.202503 v -1.723669 h 0.239536 l 0.629707,1.051982 0.207433,0.382763 h 0.0074 v -0.382763 -1.051982 h 0.202494 v 1.723669 z m 1.343377,0 h -0.251883 l -0.57291,-1.723669 h 0.22225 l 0.283985,0.869243 0.190147,0.646993 h 0.01235 l 0.195086,-0.646993 0.286455,-0.869243 h 0.214841 z m 1.911345,0 h -1.051982 v -1.723669 h 1.051982 v 0.182739 h -0.844549 v 0.577849 h 0.79516 v 0.182738 h -0.79516 v 0.597605 h 0.844549 z m 1.328559,0 h -0.940857 v -1.723669 h 0.207433 v 1.540931 h 0.733424 z m 0.86677,0.02963 q -0.222249,0 -0.387702,-0.101247 -0.162983,-0.103717 -0.254352,-0.301272 -0.0889,-0.200025 -0.0889,-0.488949 0,-0.288925 0.0889,-0.48648 0.09137,-0.200025 0.254352,-0.301272 0.165453,-0.103716 0.387702,-0.103716 0.22225,0 0.385233,0.103716 0.165452,0.101247 0.254352,0.301272 0.09137,0.197555 0.09137,0.48648 0,0.288924 -0.09137,0.488949 -0.0889,0.197555 -0.254352,0.301272 -0.162983,0.101247 -0.385233,0.101247 z m 0,-0.185208 q 0.150636,0 0.26423,-0.06914 0.113595,-0.07161 0.1778,-0.197555 0.06668,-0.125941 0.06668,-0.296333 v -0.286455 q 0,-0.170391 -0.06668,-0.296333 -0.0642,-0.12841 -0.1778,-0.197555 -0.113594,-0.06914 -0.26423,-0.06914 -0.148166,0 -0.26423,0.06914 -0.113594,0.06914 -0.180269,0.197555 -0.06421,0.125942 -0.06421,0.296333 v 0.286455 q 0,0.170392 0.06421,0.296333 0.06668,0.125942 0.180269,0.197555 0.116064,0.06914 0.26423,0.06914 z m 1.311273,0.155574 H 81.97805 v -1.723665 h 0.686505 q 0.155574,0 0.26176,0.06174 0.108656,0.05927 0.162983,0.170392 0.0568,0.108655 0.0568,0.26176 0,0.150636 -0.0568,0.261761 -0.05433,0.111125 -0.162983,0.172861 -0.106186,0.05927 -0.26176,0.05927 h -0.479072 z m 0,-1.54093 v 0.622299 h 0.479072 q 0.08149,0 0.138288,-0.02716 0.05927,-0.02963 0.0889,-0.08396 0.0321,-0.0568 0.0321,-0.135819 v -0.128411 q 0,-0.07902 -0.0321,-0.13335 -0.02963,-0.0568 -0.0889,-0.08396 -0.0568,-0.02963 -0.138288,-0.02963 z m 2.341032,1.54093 h -1.051982 v -1.723665 h 1.051982 v 0.182739 h -0.844549 v 0.577849 h 0.79516 v 0.182738 h -0.79516 v 0.597605 h 0.844549 z"
   id="text21"
   style="font-size:2.46944px;line-height:0;font-family:'IBM Plex Sans';-inkscape-font-specification:'IBM Plex Sans, Normal';text-align:center;letter-spacing:0px;word-spacing:0.132292px;text-anchor:middle;opacity:0.769063;fill:#f6ebd9;fill-opacity:0.89019597;fill-rule:evenodd;stroke-width:0.1;stroke-linecap:round;stroke-linejoin:round;stroke-dasharray:0.1, 0.600001;stroke-opacity:0.890196;paint-order:fill markers stroke"
   aria-label="ENVELOPE" /><path
   d="m 27.677886,17.45771 v -1.723669 h 0.708729 q 0.212372,0 0.335844,0.121002 0.123472,0.121003 0.123472,0.323497 0,0.128411 -0.04692,0.204964 -0.04445,0.07655 -0.111125,0.113594 -0.06421,0.03704 -0.121003,0.04692 v 0.01482 q 0.04692,0.0025 0.103717,0.02716 0.05927,0.02222 0.111125,0.06914 0.05433,0.04692 0.0889,0.121003 0.03457,0.07408 0.03457,0.182738 0,0.140758 -0.05927,0.254352 -0.0568,0.113595 -0.158044,0.18027 -0.09878,0.0642 -0.227189,0.0642 z m 0.207433,-0.800099 v 0.61736 h 0.511174 q 0.0889,0 0.153105,-0.02963 0.06421,-0.0321 0.09878,-0.09137 0.03457,-0.05927 0.03457,-0.145697 v -0.08396 q 0,-0.08643 -0.03457,-0.145697 -0.03457,-0.05927 -0.09878,-0.0889 -0.06421,-0.0321 -0.153105,-0.0321 z m 0,-0.740832 v 0.563033 h 0.476602 q 0.08149,0 0.138288,-0.02716 0.05927,-0.02963 0.09137,-0.08149 0.0321,-0.05433 0.0321,-0.13088 v -0.08396 q 0,-0.07655 -0.0321,-0.128411 -0.0321,-0.05433 -0.09137,-0.08149 -0.0568,-0.02963 -0.138288,-0.02963 z m 2.676872,1.540931 H 30.34488 l -0.172861,-0.508705 h -0.696382 l -0.17286,0.508705 h -0.209903 l 0.602543,-1.723669 h 0.264231 z m -0.44203,-0.691443 -0.217311,-0.624769 -0.07408,-0.214841 h -0.01235 l -0.07408,0.214841 -0.217311,0.624769 z M 31.89569,17.45771 31.265983,16.405729 31.05855,16.022965 h -0.0074 v 0.382764 1.051981 h -0.202494 v -1.723669 h 0.239536 l 0.629707,1.051981 0.207433,0.382764 h 0.0074 v -0.382764 -1.051981 h 0.202494 v 1.723669 z m 1.723671,0 -0.57291,-0.847018 -0.244474,0.271638 v 0.57538 h -0.207433 v -1.723669 h 0.207433 v 0.61736 0.298802 h 0.0074 l 0.246944,-0.298802 0.521052,-0.61736 h 0.254352 l -0.642054,0.738362 0.686504,0.985307 z"
   id="text23"
   style="font-size:2.46944px;line-height:0;font-family:'IBM Plex Sans';-inkscape-font-specification:'IBM Plex Sans, Normal';text-align:center;letter-spacing:0px;word-spacing:0.132292px;text-anchor:middle;opacity:0.75;fill:#f6ebd9;fill-opacity:0.89019597;fill-rule:evenodd;stroke-width:0.1;stroke-linecap:round;stroke-linejoin:round;stroke-dasharray:0.1, 0.600001;stroke-opacity:0.890196;paint-order:fill markers stroke"
   aria-label="BANK" /><path
   d="m 28.096454,32.170888 h -0.207433 v -1.723669 h 1.027287 v 0.182739 h -0.819854 v 0.577848 h 0.74824 v 0.182739 h -0.74824 z m 1.380417,-0.740832 v 0.740832 h -0.207433 v -1.723669 h 0.686504 q 0.150636,0 0.256822,0.0568 0.108655,0.0568 0.165452,0.165453 0.05927,0.108655 0.05927,0.266699 0,0.187678 -0.0889,0.31115 -0.0889,0.123472 -0.256822,0.162983 l 0.39511,0.760587 h -0.234599 l -0.372886,-0.740835 z m 0,-0.1778 h 0.479071 q 0.08149,0 0.138289,-0.02716 0.05927,-0.02963 0.0889,-0.08396 0.0321,-0.0568 0.0321,-0.13582 v -0.12841 q 0,-0.07902 -0.0321,-0.13335 -0.02963,-0.0568 -0.0889,-0.08396 -0.0568,-0.02963 -0.138289,-0.02963 h -0.479071 z m 2.424988,0.918632 h -1.051982 v -1.723669 h 1.051982 v 0.182739 H 31.05731 v 0.577848 h 0.79516 v 0.182739 h -0.79516 v 0.597605 h 0.844549 z m 1.41252,0.232127 v 0.172861 h -0.254352 q -0.101247,0 -0.155575,-0.05927 -0.05186,-0.0568 -0.05186,-0.143228 v -0.17533 q -0.200025,-0.01976 -0.345722,-0.125942 -0.145697,-0.108655 -0.224719,-0.301271 -0.07902,-0.192617 -0.07902,-0.461785 0,-0.288925 0.0889,-0.48648 0.09137,-0.200025 0.254352,-0.301272 0.165453,-0.103716 0.387702,-0.103716 0.22225,0 0.385233,0.103716 0.165452,0.101247 0.254352,0.301272 0.09137,0.197555 0.09137,0.48648 0,0.26176 -0.07655,0.451907 -0.07408,0.187677 -0.212372,0.296333 -0.135819,0.108655 -0.325966,0.135819 v 0.209902 z m -0.380294,-0.387702 q 0.150636,0 0.26423,-0.06914 0.113595,-0.07161 0.1778,-0.197555 0.06667,-0.125942 0.06667,-0.296332 v -0.286455 q 0,-0.170391 -0.06667,-0.296333 -0.06421,-0.128411 -0.1778,-0.197555 -0.113594,-0.06914 -0.26423,-0.06914 -0.148166,0 -0.26423,0.06914 -0.113594,0.06914 -0.180269,0.197555 -0.06421,0.125942 -0.06421,0.296333 v 0.286455 q 0,0.170391 0.06421,0.296332 0.06667,0.125941 0.180269,0.197555 0.116064,0.06914 0.26423,0.06914 z"
   id="text24"
   style="font-size:2.46944px;line-height:0;font-family:'IBM Plex Sans';-inkscape-font-specification:'IBM Plex Sans, Normal';text-align:center;letter-spacing:0px;word-spacing:0.132292px;text-anchor:middle;opacity:0.769063;fill:#f6ebd9;fill-opacity:0.89019597;fill-rule:evenodd;stroke-width:0.1;stroke-linecap:round;stroke-linejoin:round;stroke-dasharray:0.1, 0.600001;stroke-opacity:0.890196;paint-order:fill markers stroke"
   aria-label="FREQ" /><path
   d="m 62.083494,15.91678 h -0.548215 v 1.54093 H 61.327846 V 15.91678 H 60.77963 v -0.182739 h 1.303864 z m 1.419928,1.54093 h -0.21731 l -0.172861,-0.508705 h -0.696382 l -0.172861,0.508705 h -0.209902 l 0.602543,-1.72367 h 0.26423 z m -0.442029,-0.691444 -0.217311,-0.624768 -0.07408,-0.214841 h -0.01235 l -0.07408,0.214841 -0.21731,0.624768 z m 0.935919,0.691444 h -0.207433 v -1.72367 h 0.686505 q 0.155574,0 0.26176,0.06174 0.108656,0.05927 0.162983,0.170392 0.0568,0.108655 0.0568,0.26176 0,0.150636 -0.0568,0.261761 -0.05433,0.111125 -0.162983,0.172861 -0.106186,0.05927 -0.26176,0.05927 h -0.479072 z m 0,-1.540931 v 0.622299 h 0.479072 q 0.08149,0 0.138288,-0.02716 0.05927,-0.02963 0.0889,-0.08396 0.0321,-0.0568 0.0321,-0.135819 v -0.128411 q 0,-0.07902 -0.0321,-0.13335 -0.02963,-0.0568 -0.0889,-0.08396 -0.0568,-0.02963 -0.138288,-0.02963 z"
   id="text25"
   style="font-size:2.46944px;line-height:0;font-family:'IBM Plex Sans';-inkscape-font-specification:'IBM Plex Sans, Normal';text-align:center;letter-spacing:0px;word-spacing:0.132292px;text-anchor:middle;opacity:0.769063;fill:#f6ebd9;fill-opacity:0.89019597;fill-rule:evenodd;stroke-width:0.1;stroke-linecap:round;stroke-linejoin:round;stroke-dasharray:0.1, 0.600001;stroke-opacity:0.890196;paint-order:fill markers stroke"
   aria-label="TAP" /><path
   d="m 57.445176,32.358562 h -0.940857 v -1.723669 h 0.207433 v 1.540931 h 0.733424 z m 0.503764,0 h -0.207433 v -1.723669 h 1.027287 v 0.182739 H 57.94894 v 0.577849 h 0.748241 v 0.182738 H 57.94894 Z m 1.775527,0.02963 q -0.222249,0 -0.387702,-0.101247 -0.162983,-0.103717 -0.254352,-0.301272 -0.0889,-0.200025 -0.0889,-0.488949 0,-0.288925 0.0889,-0.48648 0.09137,-0.200024 0.254352,-0.301271 0.165453,-0.103717 0.387702,-0.103717 0.22225,0 0.385233,0.103717 0.165452,0.101247 0.254352,0.301271 0.09137,0.197555 0.09137,0.48648 0,0.288924 -0.09137,0.488949 -0.0889,0.197555 -0.254352,0.301272 -0.162983,0.101247 -0.385233,0.101247 z m 0,-0.185208 q 0.150636,0 0.26423,-0.06914 0.113594,-0.07161 0.1778,-0.197555 0.06668,-0.125941 0.06668,-0.296333 V 31.3535 q 0,-0.170391 -0.06668,-0.296332 -0.06421,-0.128411 -0.1778,-0.197556 -0.113594,-0.06914 -0.26423,-0.06914 -0.148166,0 -0.26423,0.06914 -0.113594,0.06915 -0.180269,0.197556 -0.0642,0.125941 -0.0642,0.296332 v 0.286455 q 0,0.170392 0.0642,0.296333 0.06668,0.125942 0.180269,0.197555 0.116064,0.06914 0.26423,0.06914 z m 2.302931,0.185208 q -0.207433,0 -0.358069,-0.07902 -0.148166,-0.08149 -0.251883,-0.22225 l 0.153105,-0.128411 q 0.09137,0.121003 0.202494,0.185208 0.111125,0.06174 0.261761,0.06174 0.185208,0 0.281516,-0.0889 0.09878,-0.0889 0.09878,-0.237066 0,-0.08149 -0.0321,-0.138289 -0.0321,-0.0568 -0.103716,-0.09384 -0.06914,-0.03951 -0.182739,-0.06421 l -0.140758,-0.0321 q -0.155575,-0.03704 -0.26423,-0.09631 -0.108655,-0.05927 -0.165453,-0.153105 -0.0568,-0.09384 -0.0568,-0.224719 0,-0.153105 0.07161,-0.256822 0.07161,-0.106186 0.200025,-0.160513 0.13088,-0.05433 0.298802,-0.05433 0.195086,0 0.333374,0.07161 0.140758,0.07161 0.237067,0.209902 l -0.155575,0.113594 q -0.06914,-0.09878 -0.172861,-0.155574 -0.101247,-0.0568 -0.251883,-0.0568 -0.165452,0 -0.26176,0.07161 -0.09384,0.07161 -0.09384,0.209903 0,0.08149 0.03457,0.135819 0.03704,0.05433 0.108655,0.09137 0.07161,0.03457 0.18027,0.05927 l 0.140758,0.0321 q 0.167922,0.03704 0.274107,0.101247 0.106186,0.06421 0.155575,0.158044 0.05186,0.09384 0.05186,0.222249 0,0.158045 -0.07161,0.274108 -0.07161,0.116064 -0.204964,0.180269 -0.13088,0.06421 -0.316088,0.06421 z m 1.427335,-0.02963 H 63.225075 L 62.80527,30.634893 h 0.219781 l 0.185208,0.829732 0.143227,0.644524 h 0.0049 l 0.160514,-0.644524 0.21731,-0.829732 h 0.237067 l 0.209902,0.829732 0.160514,0.642055 h 0.0074 l 0.148166,-0.642055 0.195086,-0.829732 h 0.212372 l -0.44203,1.723669 h -0.229658 l -0.224719,-0.859365 -0.158044,-0.632176 h -0.0049 l -0.162983,0.632176 z m 2.783061,0 h -1.051982 v -1.723669 h 1.051982 v 0.182739 h -0.844549 v 0.577849 h 0.79516 v 0.182738 h -0.79516 v 0.597605 h 0.844549 z m 1.439683,0 h -1.051981 v -1.723669 h 1.051981 v 0.182739 h -0.844548 v 0.577849 h 0.79516 v 0.182738 h -0.79516 v 0.597605 h 0.844548 z m 0.595136,0 H 68.06518 v -1.723669 h 0.686504 q 0.155575,0 0.261761,0.06174 0.108655,0.05927 0.162983,0.170392 0.0568,0.108655 0.0568,0.26176 0,0.150636 -0.0568,0.261761 -0.05433,0.111125 -0.162983,0.172861 -0.106186,0.05927 -0.261761,0.05927 h -0.479071 z m 0,-1.54093 v 0.622299 h 0.479071 q 0.08149,0 0.138289,-0.02716 0.05927,-0.02963 0.0889,-0.08396 0.0321,-0.0568 0.0321,-0.135819 v -0.128411 q 0,-0.07902 -0.0321,-0.13335 -0.02963,-0.0568 -0.0889,-0.08396 -0.0568,-0.02963 -0.138289,-0.02963 z"
   id="text26"
   style="font-size:2.46944px;line-height:0;font-family:'IBM Plex Sans';-inkscape-font-specification:'IBM Plex Sans, Normal';text-align:center;letter-spacing:0px;word-spacing:0.132292px;text-anchor:middle;opacity:0.769063;fill:#f6ebd9;fill-opacity:0.89019597;fill-rule:evenodd;stroke-width:0.1;stroke-linecap:round;stroke-linejoin:round;stroke-dasharray:0.1, 0.600001;stroke-opacity:0.890196;paint-order:fill markers stroke"
   aria-label="LFO SWEEP" /></svg>
