<?xml version="1.0" encoding="UTF-8" standalone="no"?>
<svg
   width="94.16mm"
   height="128.5mm"
   viewBox="0 0 94.16 128.5"
   version="1.1"
   id="svg28"
   xml:space="preserve"
   sodipodi:docname="Incantation.svg"
   inkscape:version="1.4.3 (0d15f75, 2025-12-25)"
   xmlns:inkscape="http://www.inkscape.org/namespaces/inkscape"
   xmlns:sodipodi="http://sodipodi.sourceforge.net/DTD/sodipodi-0.dtd"
   xmlns="http://www.w3.org/2000/svg"
   xmlns:svg="http://www.w3.org/2000/svg"><defs
   id="defs41">
    <linearGradient
   id="panelGradient"
   x1="0"
   y1="0"
   x2="0"
   y2="1">
      <stop
   offset="0%"
   stop-color="#2f2f36"
   id="stop1" />
      <stop
   offset="50%"
   stop-color="#313338"
   id="stop2" />
      <stop
   offset="100%"
   stop-color="#27272d"
   id="stop3" />
    </linearGradient>
  </defs><sodipodi:namedview
   id="namedview41"
   pagecolor="#505050"
   bordercolor="#eeeeee"
   borderopacity="1"
   inkscape:showpageshadow="0"
   inkscape:pageopacity="0"
   inkscape:pagecheckerboard="0"
   inkscape:deskcolor="#505050"
   inkscape:document-units="mm"
   inkscape:zoom="1.6711965"
   inkscape:cx="156.17553"
   inkscape:cy="185.79503"
   inkscape:window-width="1800"
   inkscape:window-height="1101"
   inkscape:window-x="0"
   inkscape:window-y="40"
   inkscape:window-maximized="1"
   inkscape:current-layer="svg28" />

  <!-- Dark panel background -->
  

  <!-- Module title -->
  

  <!-- Main module title -->
  

  <!-- Subtitle -->
  

  <!-- Top controls row -->
  

  <!-- Second controls row -->
  

  <!-- Preset buttons -->
  

  <!-- Control alignment markers -->
  

  <!-- Section divider -->
  

  <!-- 8-Band Filter Matrix -->
  

  <!-- Filter level sliders and CV inputs -->
  

  <!-- CV Bypass switch -->
  

  <!-- Section divider -->
  

  <!-- Mode switches -->
  

  <!-- Section divider -->
  

  <!-- I/O Section -->
  

  <!-- First I/O row -->
  

  <!-- Second I/O row -->
  

<rect
   style="display:none;fill:#d0d0d0;fill-rule:evenodd;stroke:#d0d0d0;stroke-width:0.1;stroke-linecap:round;stroke-linejoin:round;paint-order:fill markers stroke"
   id="rect1"
   width="94.160004"
   height="128.5"
   x="0"
   y="0"
   rx="0.16048445"
   ry="0.19768102" /><circle
   id="drive_knob"
   cx="13.208855"
   cy="19.975176"
   style="display:none;fill:#ff0000;fill-opacity:1;stroke:#ff0000;stroke-width:0.187218;stroke-linecap:round;stroke-opacity:1;paint-order:fill markers stroke"
   r="4.0563908"
   inkscape:label="drive_knob" /><circle
   id="mix_knob"
   cx="46.762012"
   cy="19.582415"
   style="display:none;fill:#ff0000;fill-opacity:1;stroke:#ff0000;stroke-width:0.187218;stroke-linecap:round;stroke-opacity:1;paint-order:fill markers stroke"
   r="4.0563908"
   inkscape:label="mix_knob" /><circle
   id="output_knob"
   cx="80.315178"
   cy="19.2085"
   style="display:none;fill:#ff0000;fill-opacity:1;stroke:#ff0000;stroke-width:0.187218;stroke-linecap:round;stroke-opacity:1;paint-order:fill markers stroke"
   r="4.0563908"
   inkscape:label="output_knob" /><circle
   id="pattern_knob"
   cx="48.417404"
   cy="54.276268"
   style="display:none;fill:#ff0000;fill-opacity:1;stroke:#ff0000;stroke-width:0.187218;stroke-linecap:round;stroke-opacity:1;paint-order:fill markers stroke"
   r="4.0563908"
   inkscape:label="pattern_knob" /><circle
   id="env_knob"
   cx="64.797302"
   cy="36.118465"
   style="display:none;fill:#ff0000;fill-opacity:1;stroke:#ff0000;stroke-width:0.187218;stroke-linecap:round;stroke-opacity:1;paint-order:fill markers stroke"
   r="4.0563908"
   inkscape:label="env_knob" /><circle
   id="rate_knob"
   cx="28.202541"
   cy="36.118465"
   style="display:none;fill:#ff0000;fill-opacity:1;stroke:#ff0000;stroke-width:0.187218;stroke-linecap:round;stroke-opacity:1;paint-order:fill markers stroke"
   r="4.0563908"
   inkscape:label="rate_knob" /><circle
   id="fader_1"
   cx="7.9228535"
   cy="81.385406"
   style="display:none;fill:#ffff00;fill-opacity:1;stroke:#ffff00;stroke-width:0.187218;stroke-linecap:round;stroke-opacity:1;paint-order:fill markers stroke"
   r="4.0563908"
   inkscape:label="fader_1" /><circle
   id="fader_2"
   cx="19.083992"
   cy="81.385406"
   style="display:none;fill:#ffff00;fill-opacity:1;stroke:#ffff00;stroke-width:0.187218;stroke-linecap:round;stroke-opacity:1;paint-order:fill markers stroke"
   r="4.0563908"
   inkscape:label="fader_2" /><circle
   id="fader_3"
   cx="30.245131"
   cy="81.385406"
   style="display:none;fill:#ffff00;fill-opacity:1;stroke:#ffff00;stroke-width:0.187218;stroke-linecap:round;stroke-opacity:1;paint-order:fill markers stroke"
   r="4.0563908"
   inkscape:label="fader_3" /><circle
   id="fader_4"
   cx="41.406269"
   cy="81.385406"
   style="display:none;fill:#ffff00;fill-opacity:1;stroke:#ffff00;stroke-width:0.187218;stroke-linecap:round;stroke-opacity:1;paint-order:fill markers stroke"
   r="4.0563908"
   inkscape:label="fader_4" /><circle
   id="fader_5"
   cx="52.567406"
   cy="81.385406"
   style="display:none;fill:#ffff00;fill-opacity:1;stroke:#ffff00;stroke-width:0.187218;stroke-linecap:round;stroke-opacity:1;paint-order:fill markers stroke"
   r="4.0563908"
   inkscape:label="fader_5" /><circle
   id="fader_6"
   cx="63.728542"
   cy="81.385406"
   style="display:none;fill:#ffff00;fill-opacity:1;stroke:#ffff00;stroke-width:0.187218;stroke-linecap:round;stroke-opacity:1;paint-order:fill markers stroke"
   r="4.0563908"
   inkscape:label="fader_6" /><circle
   id="fader_7"
   cx="74.889679"
   cy="81.385406"
   style="display:none;fill:#ffff00;fill-opacity:1;stroke:#ffff00;stroke-width:0.187218;stroke-linecap:round;stroke-opacity:1;paint-order:fill markers stroke"
   r="4.0563908"
   inkscape:label="fader_7" /><circle
   id="fader_8"
   cx="86.050819"
   cy="81.385406"
   style="display:none;fill:#ffff00;fill-opacity:1;stroke:#ffff00;stroke-width:0.187218;stroke-linecap:round;stroke-opacity:1;paint-order:fill markers stroke"
   r="4.0563908"
   inkscape:label="fader_8" /><path
   d="m 29.54515,0.71501287 c -0.176428,0 -0.315433,0.14435065 -0.315433,0.32077933 0,0.1764286 0.139005,0.315433 0.315433,0.315433 0.176429,0 0.315434,-0.1443507 0.315434,-0.315433 0,-0.17642868 -0.139005,-0.32077933 -0.315434,-0.32077933 z m 0.2192,3.98835603 v -3.090174 h -0.443744 v 3.090174 z m 2.498683,-3.1650225 c -0.400976,0 -0.753831,0.1817749 -0.98907,0.4758227 C 31.102881,2.2280219 31.0013,2.5060306 31.0013,2.8054246 v 1.8979443 h 0.465131 V 2.8054246 c 0,-0.4437447 0.358204,-0.796602 0.796602,-0.796602 0.438397,0 0.796602,0.3528573 0.796602,0.796602 V 4.7033689 H 33.53011 V 2.8054246 c 0,-0.7003681 -0.566709,-1.2670782 -1.267077,-1.2670782 z m 4.738789,2.5341565 C 36.809353,4.2222 36.552729,4.3184337 36.306799,4.3184337 c -0.0054,0 -0.0107,0 -0.02138,-0.00534 -0.727102,-0.010698 -1.160153,-0.582754 -1.160153,-1.1655031 v -0.069502 c 0.02672,-0.5239395 0.443744,-1.0425327 1.079958,-1.0906496 0.03208,-0.00534 0.05881,-0.00534 0.09088,-0.00534 0.272662,0 0.529287,0.1122727 0.705716,0.2459308 l 0.326127,-0.320782 C 37.028553,1.6506245 36.654309,1.5276591 36.285413,1.5276591 c -0.219199,0 -0.438398,0.048117 -0.641558,0.1336581 -0.481169,0.2085064 -0.839372,0.6522511 -0.946299,1.1601517 -0.02138,0.1069265 -0.03208,0.2191992 -0.03208,0.3261257 0,0.4811689 0.213852,0.946299 0.593441,1.2563856 0.294048,0.2405845 0.662945,0.3688961 1.031841,0.3688961 0.229892,0 0.454437,-0.048117 0.662943,-0.1443506 0.133658,-0.05881 0.256623,-0.1390043 0.374244,-0.2352381 -0.0054,0 -0.326126,-0.3207794 -0.326126,-0.3207794 z m 2.733916,-2.5395028 c -0.898182,0 -1.619936,0.7217533 -1.619936,1.6199354 0,0.8928357 0.721754,1.6199355 1.619936,1.6199355 0.743139,0 1.165498,-0.4918615 1.165498,-0.4918615 v 0.417013 h 0.454438 v -1.545087 c 0,-0.8928357 -0.727101,-1.6199354 -1.619936,-1.6199354 z m 1.176191,1.6199354 c 0,0.646905 -0.529286,1.1761909 -1.176191,1.1761909 -0.65225,0 -1.181537,-0.5292859 -1.181537,-1.1761909 0,-0.6522512 0.529287,-1.1815371 1.181537,-1.1815371 0.636212,0 1.176191,0.5239396 1.176191,1.1815371 z m 2.915689,-1.6145891 c -0.400975,0 -0.753831,0.1817749 -0.989071,0.4758227 -0.171081,0.2138528 -0.272662,0.4918615 -0.272662,0.7912555 v 1.8979443 h 0.465131 V 2.8054246 c 0,-0.4437447 0.358203,-0.796602 0.796602,-0.796602 0.438398,0 0.796603,0.3528573 0.796603,0.796602 v 1.8979443 h 0.470475 V 2.8054246 c 0,-0.7003681 -0.56671,-1.2670782 -1.267078,-1.2670782 z m 3.55725,2.7052388 c -0.326126,0 -0.593441,-0.2619698 -0.593441,-0.5934417 V 2.0729786 h 0.807294 V 1.6131949 H 46.791427 V 0.99836792 H 46.33699 V 3.6501435 c 0,0.5827491 0.465129,1.0532254 1.047878,1.0532254 h 0.491861 V 4.2435852 Z m 2.910339,-2.7105851 c -0.898183,0 -1.619936,0.7217533 -1.619936,1.6199354 0,0.8928357 0.721753,1.6199355 1.619936,1.6199355 0.743138,0 1.165498,-0.4918615 1.165498,-0.4918615 v 0.417013 h 0.454436 v -1.545087 c 0,-0.8928357 -0.727099,-1.6199354 -1.619934,-1.6199354 z m 1.17619,1.6199354 c 0,0.646905 -0.529285,1.1761909 -1.17619,1.1761909 -0.652253,0 -1.181538,-0.5292859 -1.181538,-1.1761909 0,-0.6522512 0.529285,-1.1815371 1.181538,-1.1815371 0.636212,0 1.17619,0.5239396 1.17619,1.1815371 z m 2.707182,1.0906497 c -0.326126,0 -0.593442,-0.2619698 -0.593442,-0.5934417 V 2.0729786 h 0.807294 V 1.6131949 H 53.585137 V 0.99836792 H 53.130701 V 3.6501435 c 0,0.5827491 0.465129,1.0532254 1.047878,1.0532254 h 0.491862 V 4.2435852 Z m 1.814345,-3.52857233 c -0.176429,0 -0.315433,0.14435065 -0.315433,0.32077933 0,0.1764286 0.139004,0.315433 0.315433,0.315433 0.176428,0 0.315433,-0.1443507 0.315433,-0.315433 0,-0.17642868 -0.139005,-0.32077933 -0.315433,-0.32077933 z m 0.219199,3.98835603 v -3.090174 h -0.443744 v 3.090174 z m 2.798073,-3.1703688 c -0.898181,0 -1.619935,0.7217533 -1.619935,1.6199354 0,0.8928357 0.721754,1.6199355 1.619935,1.6199355 0.892836,0 1.619937,-0.7270998 1.619937,-1.6199355 0,-0.8981821 -0.727101,-1.6199354 -1.619937,-1.6199354 z m 0,2.7854336 c -0.641558,0 -1.165498,-0.5239396 -1.165498,-1.1654982 0,-0.6415586 0.52394,-1.1654981 1.165498,-1.1654981 0.64156,0 1.165498,0.5239395 1.165498,1.1654981 0,0.6415586 -0.523938,1.1654982 -1.165498,1.1654982 z m 4.017033,-2.7800873 c -0.400975,0 -0.753831,0.1817749 -0.98907,0.4758227 -0.171082,0.2138528 -0.272663,0.4918615 -0.272663,0.7912555 v 1.8979443 h 0.465131 V 2.8054246 c 0,-0.4437447 0.358203,-0.796602 0.796602,-0.796602 0.438398,0 0.796602,0.3528573 0.796602,0.796602 v 1.8979443 h 0.470476 V 2.8054246 c 0,-0.7003681 -0.56671,-1.2670782 -1.267078,-1.2670782 z"
   id="text1"
   style="font-weight:600;font-size:7.7611px;line-height:0;font-family:Neokurat;-inkscape-font-specification:'Neokurat, Semi-Bold';text-align:center;letter-spacing:1.05833px;word-spacing:0.132292px;text-anchor:middle;opacity:0.900489;fill:#eedcbb;fill-opacity:0.890196;fill-rule:evenodd;stroke-width:0.0688862;stroke-linecap:round;stroke-linejoin:round;stroke-opacity:0.631373;paint-order:fill markers stroke"
   aria-label="incantation" /><path
   style="font-weight:600;font-size:2.82222px;line-height:0;font-family:Neokurat;-inkscape-font-specification:'Neokurat, Semi-Bold';text-align:center;letter-spacing:0.529167px;word-spacing:0.79375px;text-anchor:middle;opacity:0.948225;fill:#eedcbb;fill-opacity:0.890196;fill-rule:evenodd;stroke-width:0.04;stroke-linecap:round;stroke-linejoin:round;stroke-opacity:0.898039;paint-order:fill markers stroke"
   d="m 36.916501,125.30453 c -0.163689,-0.0705 -0.285044,-0.10724 -0.434622,-0.14111 -0.206022,-0.048 -0.400755,-0.127 -0.400755,-0.29351 0,-0.0169 0.0028,-0.0339 0.0056,-0.0508 0.03104,-0.15804 0.220134,-0.26811 0.437445,-0.27093 0.0028,0 0.0028,0 0.0056,0 0.180622,0 0.372533,0.0621 0.510822,0.2032 l 0.174977,-0.16369 c -0.121355,-0.13547 -0.386644,-0.27375 -0.680155,-0.27375 -0.0056,0 -0.01129,0.003 -0.01693,0.003 -0.454377,0.006 -0.660399,0.30197 -0.680155,0.48823 -0.0028,0.0169 -0.0056,0.0367 -0.0056,0.0536 0,0.2286 0.180622,0.42898 0.462844,0.50518 0.183444,0.0508 0.333022,0.079 0.530577,0.16087 0.09596,0.0423 0.194733,0.11571 0.194733,0.24553 0,0.0254 -0.0028,0.0536 -0.01129,0.0819 -0.05644,0.1778 -0.253999,0.254 -0.437444,0.26246 -0.01129,0.003 -0.0254,0.003 -0.03669,0.003 -0.259644,0 -0.533399,-0.11571 -0.62371,-0.22577 l -0.191911,0.15522 c 0.149577,0.19473 0.536222,0.30762 0.82691,0.30762 0.285045,0 0.612422,-0.13547 0.697089,-0.43744 0.01693,-0.0508 0.02258,-0.1016 0.02258,-0.14676 0,-0.2032 -0.124177,-0.37253 -0.349955,-0.46567 z m 2.473677,-0.94826 v 0.76764 h -1.114777 v -0.76764 h -0.239888 v 1.9558 h 0.239888 v -0.94827 h 1.114777 v 0.94827 h 0.239889 v -1.9558 z m 1.948742,-0.0395 -1.018822,1.9953 h 0.268111 l 0.333022,-0.65194 h 0.832555 l 0.333022,0.65194 h 0.270933 z m -0.299156,1.11476 0.299156,-0.58701 0.299155,0.58701 z m 3.385253,-0.9285 c -0.112888,-0.0903 -0.259644,-0.14675 -0.417688,-0.14675 h -0.959555 v 1.9558 h 0.239889 v -0.61807 h 0.719666 c 0.369711,0 0.668866,-0.29915 0.668866,-0.66886 0,-0.21167 -0.09878,-0.39794 -0.251178,-0.52212 z m 0.01129,0.52212 c 0,0.23706 -0.191911,0.42897 -0.428977,0.42897 h -0.719666 v -0.85514 h 0.719666 c 0.237066,0 0.428977,0.19192 0.428977,0.42617 z m 1.231901,1.04704 v -0.6604 h 1.03011 v -0.23989 h -1.03011 v -0.57292 h 1.219199 v -0.2427 h -1.459088 v 1.9558 h 1.498599 v -0.23989 z m 1.849967,-1.71591 v 0.2427 h 0.694267 v 1.71309 h 0.239888 v -1.71309 h 0.694266 v -0.2427 z m 2.865963,-0.0395 -1.018821,1.9953 h 0.268111 l 0.333022,-0.65193 h 0.832555 l 0.333022,0.65193 h 0.270933 z m -0.299155,1.11477 0.299155,-0.58702 0.299156,0.58702 z m 2.727676,-0.0931 0.97931,-0.98214 h -0.341488 l -0.809977,0.80998 -0.307622,-0.30762 v -0.50236 h -0.242711 v 1.95581 h 0.242711 v -1.11478 l 1.114777,1.11478 h 0.341488 z m 1.920522,0.73378 v -0.66041 h 1.03011 v -0.23989 h -1.03011 v -0.57291 h 1.219199 v -0.24276 h -1.459089 v 1.9558 h 1.498599 v -0.23989 z m 3.706988,0.23989 -0.451555,-0.44874 c 0.231422,-0.14393 0.383822,-0.39793 0.383822,-0.69144 0,-0.44873 -0.364067,-0.81562 -0.815622,-0.81562 h -0.812799 v 1.95862 h 0.239889 v -1.13453 l 1.13171,1.13453 z m -0.307622,-1.14018 c 0,0.20038 -0.110066,0.40922 -0.318911,0.51647 l -0.829732,-0.82974 v -0.25964 h 0.57291 c 0.316089,0 0.575733,0.25682 0.575733,0.57291 z"
   id="text6"
   aria-label="SHPETE" /></svg>
