<?xml version="1.0" encoding="UTF-8" standalone="no"?>
<svg
   width="270"
   height="380"
   viewBox="0 0 270 380"
   version="1.1"
   id="svg43"
   xmlns="http://www.w3.org/2000/svg"
   xmlns:svg="http://www.w3.org/2000/svg">
  <defs
     id="defs3">
    <linearGradient
       id="panelGradient"
       x1="0%"
       y1="0%"
       x2="100%"
       y2="100%">
      <stop
         offset="0%"
         style="stop-color:#2a2a2a;stop-opacity:1"
         id="stop1" />
      <stop
         offset="50%"
         style="stop-color:#1a1a1a;stop-opacity:1"
         id="stop2" />
      <stop
         offset="100%"
         style="stop-color:#0a0a0a;stop-opacity:1"
         id="stop3" />
    </linearGradient>
  </defs>
  <!-- Main panel background (18HP = 270px width) -->
  <rect
     width="270"
     height="380"
     fill="url(#panelGradient)"
     stroke="#333"
     stroke-width="1"
     id="rect3" />
  <!-- Brand and module title -->
  <path
     d="m 104.65576,12.903809 1.26563,-0.123047 q 0.11425,0.637207 0.46142,0.936035 0.35157,0.298828 0.94483,0.298828 0.62841,0 0.94482,-0.263672 0.3208,-0.268066 0.3208,-0.624023 0,-0.228516 -0.13623,-0.386719 -0.13183,-0.162598 -0.46582,-0.28125 -0.22851,-0.0791 -1.0415,-0.28125 -1.0459,-0.259277 -1.46778,-0.637207 -0.59326,-0.531738 -0.59326,-1.296387 0,-0.4921873 0.27686,-0.9184568 0.28125,-0.4306641 0.8042,-0.6547852 0.52734,-0.2241211 1.27002,-0.2241211 1.21289,0 1.82373,0.5317383 0.61523,0.5317383 0.64599,1.4194338 l -1.30078,0.05713 q -0.0835,-0.4965823 -0.36035,-0.7119144 -0.27246,-0.2197265 -0.82178,-0.2197265 -0.56689,0 -0.88769,0.2329101 -0.20655,0.1494141 -0.20655,0.3999028 0,0.228515 0.19336,0.391113 0.2461,0.206543 1.19532,0.430664 0.94921,0.224121 1.40185,0.46582 0.45703,0.237305 0.71192,0.654785 0.25927,0.413086 0.25927,1.023926 0,0.553711 -0.30761,1.03711 -0.30762,0.483398 -0.87012,0.720703 -0.5625,0.23291 -1.40186,0.23291 -1.22168,0 -1.87646,-0.5625 -0.65479,-0.566895 -0.78223,-1.647949 z M 110.99268,15 V 8.5576172 h 1.30078 v 2.5356448 h 2.54883 V 8.5576172 h 1.30078 V 15 h -1.30078 v -2.816895 h -2.54883 V 15 Z m 12.30468,0 h -1.41504 l -0.5625,-1.463379 h -2.57519 L 118.21289,15 h -1.37988 l 2.50928,-6.4423828 h 1.37548 z m -2.39502,-2.548828 -0.88769,-2.390625 -0.87012,2.390625 z M 123.9873,15 V 8.5576172 h 2.08741 q 1.18652,0 1.54687,0.09668 0.55371,0.1450195 0.92725,0.6328125 0.37353,0.4833984 0.37353,1.2524416 0,0.593262 -0.21533,0.997558 -0.21533,0.404297 -0.54932,0.637207 -0.32958,0.228516 -0.67236,0.303223 -0.46582,0.09229 -1.34912,0.09229 h -0.84814 V 15 Z m 1.30079,-5.3525391 V 11.475586 H 126 q 0.76904,0 1.02832,-0.101074 0.25928,-0.101074 0.4043,-0.316407 0.14941,-0.215332 0.14941,-0.500976 0,-0.351563 -0.20654,-0.5800782 -0.20654,-0.2285156 -0.52295,-0.2856445 -0.23291,-0.043945 -0.93604,-0.043945 z M 129.99023,15 V 8.5576172 h 4.77686 v 1.0898437 h -3.47607 v 1.4282231 h 3.23437 v 1.085449 h -3.23437 v 1.753418 h 3.59912 V 15 Z m 7.45313,0 V 9.6474609 h -1.91162 V 8.5576172 h 5.11963 v 1.0898437 h -1.90723 V 15 Z m 9.18896,0 h -1.41503 l -0.5625,-1.463379 h -2.5752 L 141.54785,15 h -1.37988 l 2.50928,-6.4423828 h 1.37548 z m -2.39502,-2.548828 -0.88769,-2.390625 -0.87012,2.390625 z M 147.33984,15 V 8.5576172 h 1.30078 v 2.8608398 l 2.62793,-2.8608398 h 1.74903 L 150.5918,11.066895 153.14941,15 h -1.6831 l -1.771,-3.023437 -1.05469,1.07666 V 15 Z m 6.48194,0 V 8.5576172 h 4.77685 v 1.0898437 h -3.47607 v 1.4282231 h 3.23437 v 1.085449 h -3.23437 v 1.753418 h 3.59912 V 15 Z m 6.00732,0 V 8.5576172 h 2.73779 q 1.03272,0 1.49854,0.1757812 0.47021,0.1713868 0.75146,0.6152344 0.28125,0.4438477 0.28125,1.0151372 0,0.725097 -0.42627,1.199707 -0.42626,0.470214 -1.27441,0.593261 0.42188,0.246094 0.69434,0.540528 0.27685,0.294433 0.74267,1.045898 L 165.62109,15 h -1.55566 L 163.125,13.598145 q -0.50098,-0.751465 -0.68555,-0.944825 -0.18457,-0.197754 -0.39111,-0.268066 -0.20654,-0.07471 -0.65479,-0.07471 h -0.26367 V 15 Z m 1.30078,-3.717773 h 0.96241 q 0.93603,0 1.16894,-0.0791 0.23291,-0.0791 0.36475,-0.272461 0.13183,-0.193359 0.13183,-0.483398 0,-0.325196 -0.17578,-0.5229496 -0.17139,-0.2021484 -0.48779,-0.2548828 -0.1582,-0.021973 -0.94922,-0.021973 h -1.01514 z"
     id="text3"
     style="font-weight:bold;font-size:9px;font-family:Arial, sans-serif;text-anchor:middle;fill:#888888"
     aria-label="SHAPETAKER" />
  <path
     d="M 92.791504,28 V 17.978516 h 2.023437 V 28 Z m 3.97168,0 V 17.978516 h 1.96875 l 4.101566,6.692382 v -6.692382 h 1.87988 V 28 h -2.03027 L 98.643066,21.464844 V 28 Z m 12.646486,0 -3.58203,-10.021484 h 2.19433 l 2.53614,7.416992 2.4541,-7.416992 h 2.14648 L 111.56982,28 Z m 6.37109,-4.949219 q 0,-1.53125 0.45801,-2.570312 0.3418,-0.765625 0.92969,-1.374024 0.59472,-0.608398 1.29883,-0.902343 0.93652,-0.396485 2.16015,-0.396485 2.21485,0 3.54102,1.374024 1.333,1.374023 1.333,3.821289 0,2.426757 -1.31933,3.800781 -1.31934,1.367187 -3.52734,1.367187 -2.23536,0 -3.55469,-1.360351 -1.31934,-1.367188 -1.31934,-3.759766 z m 2.08496,-0.06836 q 0,1.702148 0.78614,2.583984 0.78613,0.875 1.99609,0.875 1.20996,0 1.98242,-0.868164 0.7793,-0.875 0.7793,-2.618164 0,-1.722656 -0.75879,-2.570312 -0.75195,-0.847657 -2.00293,-0.847657 -1.25098,0 -2.0166,0.861328 -0.76563,0.854493 -0.76563,2.583985 z M 127.13525,28 v -9.939453 h 2.02344 v 8.250976 h 5.03125 V 28 Z m 8.4834,-10.021484 h 2.02344 v 5.427734 q 0,1.291992 0.0752,1.674805 0.12988,0.615234 0.61523,0.991211 0.49219,0.36914 1.33984,0.36914 0.86133,0 1.29883,-0.348633 0.4375,-0.355468 0.52637,-0.868164 0.0889,-0.512695 0.0889,-1.702148 v -5.543945 h 2.02343 v 5.263671 q 0,1.804688 -0.16406,2.549805 -0.16406,0.745117 -0.6084,1.257813 -0.4375,0.512695 -1.17578,0.820312 -0.73828,0.300781 -1.92773,0.300781 -1.43555,0 -2.18067,-0.328125 -0.73828,-0.334961 -1.16894,-0.861328 -0.43067,-0.533203 -0.56739,-1.114258 -0.19824,-0.861328 -0.19824,-2.542968 z M 147.99854,28 v -8.326172 h -2.97364 v -1.695312 h 7.96387 v 1.695312 h -2.9668 V 28 Z m 6.23437,0 V 17.978516 h 2.02344 V 28 Z m 3.54102,-4.949219 q 0,-1.53125 0.458,-2.570312 0.3418,-0.765625 0.92969,-1.374024 0.59473,-0.608398 1.29883,-0.902343 0.93652,-0.396485 2.16016,-0.396485 2.21484,0 3.54101,1.374024 1.33301,1.374023 1.33301,3.821289 0,2.426757 -1.31934,3.800781 -1.31933,1.367187 -3.52734,1.367187 -2.23535,0 -3.55469,-1.360351 -1.31933,-1.367188 -1.31933,-3.759766 z m 2.08496,-0.06836 q 0,1.702148 0.78613,2.583984 0.78613,0.875 1.99609,0.875 1.20996,0 1.98243,-0.868164 0.77929,-0.875 0.77929,-2.618164 0,-1.722656 -0.75879,-2.570312 -0.75195,-0.847657 -2.00293,-0.847657 -1.25097,0 -2.0166,0.861328 -0.76562,0.854493 -0.76562,2.583985 z M 169.09424,28 V 17.978516 h 1.96875 l 4.10156,6.692382 v -6.692382 h 1.87988 V 28 h -2.03027 l -4.04004,-6.535156 V 28 Z"
     id="text4"
     style="font-weight:bold;font-size:14px;font-family:Arial, sans-serif;text-anchor:middle;fill:#cccccc"
     aria-label="INVOLUTION" />
  <!-- Section dividers -->
  <path
     id="line4"
     style="stroke:#444444"
     d="M 15,35 H 255" />
  <path
     id="line5"
     style="stroke:#444444"
     d="M 15,175 H 255" />
  <path
     id="line6"
     style="stroke:#444444"
     d="M 15,240 H 255" />
  <path
     id="line7"
     style="stroke:#444444"
     d="M 15,305 H 255" />
  <path
     id="line8"
     style="stroke:#444444"
     d="M 15,350 H 255" />
  <!-- MAIN FILTERS SECTION -->
  <path
     d="m 20.566406,55 v -5.726563 h 1.730469 l 1.039062,3.90625 1.027344,-3.90625 h 1.734375 V 55 H 25.023437 V 50.492187 L 23.886719,55 H 22.773437 L 21.640625,50.492187 V 55 Z m 11.84375,0 h -1.257812 l -0.5,-1.300781 H 28.363281 L 27.890625,55 h -1.226563 l 2.230469,-5.726563 h 1.222656 z m -2.128906,-2.265625 -0.789063,-2.125 -0.773437,2.125 z M 32.988281,55 v -5.726563 h 1.15625 V 55 Z m 2.269531,0 v -5.726563 h 1.125 l 2.34375,3.824219 v -3.824219 h 1.074219 V 55 H 38.640625 L 36.332031,51.265625 V 55 Z m 7.996094,0 v -5.726563 h 3.925781 v 0.96875 h -2.769531 v 1.355469 h 2.390625 v 0.96875 H 44.410156 V 55 Z m 4.84375,0 v -5.726563 h 1.15625 V 55 Z m 2.289063,0 v -5.679688 h 1.15625 v 4.714844 h 2.875 V 55 Z m 5.550781,0 v -4.757813 h -1.699219 v -0.96875 h 4.550781 v 0.96875 H 57.09375 V 55 Z m 3.597656,0 v -5.726563 h 4.246094 v 0.96875 h -3.089844 v 1.269532 h 2.875 v 0.964843 h -2.875 v 1.558594 h 3.199219 V 55 Z M 64.875,55 v -5.726563 h 2.433594 q 0.917968,0 1.332031,0.15625 0.417969,0.152344 0.667969,0.546875 0.25,0.394532 0.25,0.902344 0,0.644531 -0.378907,1.066406 -0.378906,0.417969 -1.132812,0.527344 0.375,0.21875 0.617187,0.480469 0.246094,0.261719 0.660157,0.929687 L 70.023437,55 h -1.382812 l -0.835938,-1.246094 q -0.445312,-0.667969 -0.609375,-0.839844 -0.164062,-0.175781 -0.347656,-0.238281 -0.183594,-0.06641 -0.582031,-0.06641 H 66.03125 V 55 Z m 1.15625,-3.304688 h 0.855469 q 0.832031,0 1.039062,-0.07031 0.207031,-0.07031 0.324219,-0.242188 0.117187,-0.171875 0.117187,-0.429687 0,-0.289063 -0.15625,-0.464844 -0.152343,-0.179687 -0.433593,-0.226562 -0.140625,-0.01953 -0.84375,-0.01953 H 66.03125 Z m 4.324219,1.441407 1.125,-0.109375 q 0.101562,0.566406 0.410156,0.832031 0.3125,0.265625 0.839844,0.265625 0.558593,0 0.839843,-0.234375 0.285157,-0.238281 0.285157,-0.554688 0,-0.203125 -0.121094,-0.34375 -0.117188,-0.144531 -0.414063,-0.25 -0.203125,-0.07031 -0.925781,-0.25 -0.929687,-0.230468 -1.304687,-0.566406 -0.527344,-0.472656 -0.527344,-1.152344 0,-0.4375 0.246094,-0.816406 0.25,-0.382812 0.714843,-0.582031 0.46875,-0.199219 1.128907,-0.199219 1.078125,0 1.621093,0.472656 0.546875,0.472657 0.574219,1.261719 l -1.15625,0.05078 q -0.07422,-0.441406 -0.320312,-0.632812 -0.242188,-0.195313 -0.730469,-0.195313 -0.503906,0 -0.789063,0.207032 -0.183593,0.132812 -0.183593,0.355468 0,0.203125 0.171875,0.347657 0.21875,0.183593 1.0625,0.382812 0.84375,0.199219 1.246093,0.414063 0.40625,0.210937 0.632813,0.582031 0.230469,0.367187 0.230469,0.910156 0,0.492188 -0.273438,0.921875 -0.273437,0.429688 -0.773437,0.640625 -0.5,0.207031 -1.246094,0.207031 -1.085938,0 -1.667969,-0.5 -0.582031,-0.503906 -0.695312,-1.464843 z"
     id="text8"
     style="font-weight:bold;font-size:8px;font-family:Arial, sans-serif;fill:#cccccc"
     aria-label="MAIN FILTERS" />
  <!-- Filter A Controls - Y: 25mm (94.5px) -->
  <path
     id="circle8"
     style="fill:#ff0000;stroke:#ffffff"
     d="m 93.599998,94.5 a 18,18 0 0 1 -18,18 18,18 0 0 1 -18,-18 18,18 0 0 1 18,-18 18,18 0 0 1 18,18 z" />
  <path
     d="m 62.473289,73.243164 0.663086,0.167481 q -0.208496,0.816894 -0.751953,1.247558 -0.540039,0.427246 -1.322754,0.427246 -0.810058,0 -1.319336,-0.328125 -0.505859,-0.331543 -0.77246,-0.957031 -0.263184,-0.625488 -0.263184,-1.343262 0,-0.782715 0.297363,-1.363769 0.300781,-0.584473 0.851074,-0.885254 0.553711,-0.304199 1.216797,-0.304199 0.751953,0 1.264649,0.382812 0.512695,0.382813 0.714355,1.07666 l -0.652832,0.153809 q -0.174316,-0.546875 -0.505859,-0.796387 -0.331543,-0.249512 -0.833985,-0.249512 -0.577636,0 -0.967285,0.276856 -0.38623,0.276855 -0.543457,0.745117 -0.157226,0.464844 -0.157226,0.960449 0,0.63916 0.18457,1.117676 0.187988,0.475098 0.581055,0.710938 0.393066,0.235839 0.851074,0.235839 0.557129,0 0.943359,-0.321289 0.386231,-0.321289 0.522949,-0.953613 z m 4.768067,-3.253906 h 0.663086 v 2.895019 q 0,0.755371 -0.170899,1.199707 -0.170898,0.444336 -0.618652,0.72461 -0.444336,0.276855 -1.168945,0.276855 -0.704102,0 -1.151856,-0.242676 -0.447754,-0.242675 -0.63916,-0.700683 -0.191406,-0.461426 -0.191406,-1.257813 v -2.895019 h 0.663086 v 2.891601 q 0,0.652832 0.119629,0.963868 0.123047,0.307617 0.416992,0.475097 0.297363,0.167481 0.724609,0.167481 0.731446,0 1.042481,-0.331543 0.311035,-0.331543 0.311035,-1.274903 z M 70.283348,75 v -4.419434 h -1.650879 v -0.591308 h 3.97168 v 0.591308 H 70.946434 V 75 Z M 72.9562,72.55957 q 0,-1.247558 0.669922,-1.95166 0.669921,-0.707519 1.729492,-0.707519 0.693847,0 1.250976,0.331543 0.557129,0.331543 0.847657,0.926269 0.293945,0.591309 0.293945,1.343262 0,0.762207 -0.307617,1.363769 -0.307618,0.601563 -0.871582,0.912598 -0.563965,0.307617 -1.216797,0.307617 -0.70752,0 -1.264649,-0.341797 Q 73.530418,74.401855 73.243309,73.810547 72.9562,73.219238 72.9562,72.55957 Z m 0.683593,0.01025 q 0,0.905762 0.485352,1.428711 0.488769,0.519531 1.223633,0.519531 0.748535,0 1.230469,-0.526367 0.485351,-0.526367 0.485351,-1.493652 0,-0.611817 -0.208496,-1.066406 -0.205078,-0.458008 -0.60498,-0.70752 -0.396485,-0.25293 -0.89209,-0.25293 -0.704102,0 -1.213379,0.485352 -0.50586,0.481934 -0.50586,1.613281 z M 78.636864,75 v -5.010742 h 3.380371 v 0.591308 H 79.29995 v 1.551758 h 2.351562 v 0.591309 H 79.29995 V 75 Z m 4.275879,0 v -5.010742 h 3.380371 v 0.591308 h -2.717285 v 1.551758 h 2.351562 v 0.591309 H 83.575829 V 75 Z m 5.25,0 1.924316,-5.010742 h 0.714355 L 92.852196,75 H 92.096825 L 91.512352,73.482422 H 89.417137 L 88.866844,75 Z m 1.4458,-2.057617 h 1.698731 l -0.522949,-1.387696 q -0.239258,-0.632324 -0.355469,-1.039062 -0.0957,0.481934 -0.27002,0.957031 z"
     id="text9"
     style="font-size:7px;font-family:Arial, sans-serif;text-anchor:middle;fill:#bbbbbb"
     aria-label="CUTOFF A" />
  <path
     id="circle9"
     style="fill:#ff0000;stroke:#ffffff"
     d="m 165.2,94.5 a 14,14 0 0 1 -14,14 14,14 0 0 1 -14,-14 14,14 0 0 1 14,-14 14,14 0 0 1 14,14 z" />
  <path
     d="m 141.43999,75 v -5.010742 h 2.22168 q 0.66992,0 1.01855,0.136719 0.34863,0.1333 0.55713,0.475097 0.2085,0.341797 0.2085,0.755371 0,0.533203 -0.34522,0.898926 -0.34521,0.365723 -1.0664,0.464844 0.26318,0.126465 0.3999,0.249512 0.29053,0.266601 0.55029,0.666503 L 145.856,75 h -0.83398 l -0.66309,-1.04248 q -0.29052,-0.451172 -0.47851,-0.69043 -0.18799,-0.239258 -0.33838,-0.334961 -0.14697,-0.0957 -0.30078,-0.133301 -0.1128,-0.02393 -0.36914,-0.02393 h -0.76905 V 75 Z m 0.66308,-2.799316 h 1.4253 q 0.45459,0 0.71093,-0.09229 0.25635,-0.0957 0.38965,-0.300781 0.1333,-0.208496 0.1333,-0.451172 0,-0.355468 -0.25976,-0.584472 -0.25635,-0.229004 -0.81348,-0.229004 h -1.58594 z M 146.49858,75 v -5.010742 h 3.62305 v 0.591308 h -2.95996 v 1.534668 h 2.77197 v 0.587891 h -2.77197 v 1.705566 h 3.07617 V 75 Z m 4.42969,-1.609863 0.62549,-0.05469 q 0.0444,0.375977 0.20507,0.618653 0.16407,0.239257 0.50586,0.389648 0.3418,0.146973 0.76905,0.146973 0.37939,0 0.66992,-0.112793 0.29053,-0.112793 0.43066,-0.307618 0.14356,-0.198242 0.14356,-0.430664 0,-0.235839 -0.13672,-0.410156 -0.13672,-0.177734 -0.45117,-0.297363 -0.20166,-0.07861 -0.89209,-0.242676 -0.69043,-0.16748 -0.96729,-0.314453 -0.35888,-0.187988 -0.53662,-0.464844 -0.17432,-0.280273 -0.17432,-0.625488 0,-0.379395 0.21534,-0.70752 0.21533,-0.331543 0.6289,-0.502441 0.41358,-0.170898 0.91944,-0.170898 0.55713,0 0.98095,0.181152 0.42725,0.177734 0.65625,0.526367 0.22901,0.348633 0.2461,0.789551 l -0.63574,0.04785 q -0.0513,-0.475097 -0.34864,-0.717773 -0.29394,-0.242676 -0.87158,-0.242676 -0.60156,0 -0.87842,0.222168 -0.27344,0.21875 -0.27344,0.529785 0,0.27002 0.19483,0.444336 0.19141,0.174317 0.99805,0.358887 0.81005,0.181152 1.11084,0.317871 0.4375,0.20166 0.64599,0.512695 0.2085,0.307618 0.2085,0.710938 0,0.399902 -0.22901,0.755371 -0.229,0.352051 -0.65966,0.550293 -0.42725,0.194824 -0.96387,0.194824 -0.68018,0 -1.1416,-0.198242 -0.45801,-0.198242 -0.72119,-0.594727 -0.25977,-0.399902 -0.27344,-0.902343 z M 156.8311,75 l 1.92432,-5.010742 h 0.71435 L 161.52055,75 h -0.75537 l -0.58447,-1.517578 h -2.09522 L 157.5352,75 Z m 1.4458,-2.057617 h 1.69873 l -0.52295,-1.387696 q -0.23926,-0.632324 -0.35547,-1.039062 -0.0957,0.481934 -0.27002,0.957031 z"
     id="text10"
     style="font-size:7px;font-family:Arial, sans-serif;text-anchor:middle;fill:#bbbbbb"
     aria-label="RES A" />
  <!-- Filter B Controls - Y: 45mm (170.1px) -->
  <path
     id="circle10"
     style="fill:#ff0000;stroke:#ffffff"
     d="m 93.599998,170.10001 a 18,18 0 0 1 -18,18 18,18 0 0 1 -18,-18 18,18 0 0 1 18,-18 18,18 0 0 1 18,18 z" />
  <path
     d="m 62.280174,148.24316 0.663086,0.16748 q -0.208496,0.8169 -0.751953,1.24756 -0.540039,0.42725 -1.322754,0.42725 -0.810058,0 -1.319336,-0.32813 -0.505859,-0.33154 -0.772461,-0.95703 -0.263183,-0.62549 -0.263183,-1.34326 0,-0.78271 0.297363,-1.36377 0.300781,-0.58447 0.851074,-0.88525 0.553711,-0.3042 1.216797,-0.3042 0.751953,0 1.264649,0.38281 0.512695,0.38281 0.714355,1.07666 l -0.652832,0.15381 q -0.174316,-0.54688 -0.505859,-0.79639 -0.331543,-0.24951 -0.833985,-0.24951 -0.577637,0 -0.967285,0.27686 -0.38623,0.27685 -0.543457,0.74511 -0.157227,0.46485 -0.157227,0.96045 0,0.63916 0.184571,1.11768 0.187988,0.4751 0.581054,0.71094 0.393067,0.23584 0.851075,0.23584 0.557129,0 0.943359,-0.32129 0.386231,-0.32129 0.522949,-0.95362 z m 4.768067,-3.2539 h 0.663086 v 2.89502 q 0,0.75537 -0.170899,1.1997 -0.170898,0.44434 -0.618652,0.72461 -0.444336,0.27686 -1.168945,0.27686 -0.704102,0 -1.151856,-0.24268 -0.447754,-0.24267 -0.63916,-0.70068 -0.191406,-0.46143 -0.191406,-1.25781 v -2.89502 h 0.663086 v 2.8916 q 0,0.65283 0.119628,0.96387 0.123047,0.30761 0.416993,0.47509 0.297363,0.16748 0.724609,0.16748 0.731445,0 1.042481,-0.33154 0.311035,-0.33154 0.311035,-1.2749 z M 70.090233,150 v -4.41943 h -1.650879 v -0.59131 h 3.97168 v 0.59131 H 70.753319 V 150 Z m 2.672851,-2.44043 q 0,-1.24756 0.669922,-1.95166 0.669922,-0.70752 1.729492,-0.70752 0.693848,0 1.250977,0.33154 0.557129,0.33155 0.847656,0.92627 0.293946,0.59131 0.293946,1.34326 0,0.76221 -0.307618,1.36377 -0.307617,0.60157 -0.871582,0.9126 -0.563964,0.30762 -1.216796,0.30762 -0.70752,0 -1.264649,-0.3418 -0.557129,-0.34179 -0.844238,-0.9331 -0.28711,-0.59131 -0.28711,-1.25098 z m 0.683594,0.0102 q 0,0.90577 0.485352,1.42872 0.488769,0.51953 1.223633,0.51953 0.748535,0 1.230468,-0.52637 0.485352,-0.52637 0.485352,-1.49365 0,-0.61182 -0.208496,-1.06641 -0.205078,-0.45801 -0.604981,-0.70752 -0.396484,-0.25293 -0.89209,-0.25293 -0.704101,0 -1.213378,0.48535 -0.50586,0.48194 -0.50586,1.61328 z M 78.443748,150 v -5.01074 h 3.380372 v 0.59131 h -2.717286 v 1.55175 h 2.351563 v 0.59131 H 79.106834 V 150 Z m 4.275879,0 v -5.01074 h 3.380371 v 0.59131 h -2.717285 v 1.55175 h 2.351563 v 0.59131 H 83.382713 V 150 Z m 6.15918,0 v -5.01074 h 1.879883 q 0.574219,0 0.919433,0.15381 0.348633,0.15039 0.543458,0.46826 0.198242,0.31445 0.198242,0.65967 0,0.32129 -0.174317,0.60498 -0.174316,0.28369 -0.526367,0.458 0.45459,0.13331 0.697266,0.45459 0.246093,0.32129 0.246093,0.75879 0,0.35205 -0.15039,0.65625 -0.146973,0.30078 -0.365723,0.46485 -0.21875,0.16406 -0.550293,0.24951 Q 91.267967,150 90.789452,150 Z m 0.663086,-2.90527 h 1.083496 q 0.440918,0 0.632324,-0.0581 0.25293,-0.0752 0.379395,-0.24951 0.129883,-0.17432 0.129883,-0.4375 0,-0.24951 -0.119629,-0.4375 -0.119629,-0.19141 -0.341797,-0.25977 -0.222168,-0.0718 -0.762207,-0.0718 h -1.001465 z m 0,2.31396 h 1.247559 q 0.321289,0 0.451171,-0.0239 0.229004,-0.041 0.382813,-0.13672 0.153809,-0.0957 0.25293,-0.27686 0.09912,-0.18457 0.09912,-0.42383 0,-0.28027 -0.143555,-0.48535 -0.143555,-0.20849 -0.399902,-0.29053 -0.25293,-0.0854 -0.731446,-0.0854 h -1.158691 z"
     id="text11"
     style="font-size:7px;font-family:Arial, sans-serif;text-anchor:middle;fill:#bbbbbb"
     aria-label="CUTOFF B" />
  <path
     id="circle11"
     style="fill:#ff0000;stroke:#ffffff"
     d="m 165.2,170.10001 a 14,14 0 0 1 -14,14 14,14 0 0 1 -14,-14 14,14 0 0 1 14,-14 14,14 0 0 1 14,14 z" />
  <path
     d="m 141.24687,150 v -5.01074 h 2.22168 q 0.66992,0 1.01856,0.13672 0.34863,0.1333 0.55713,0.47509 0.20849,0.3418 0.20849,0.75538 0,0.5332 -0.34521,0.89892 -0.34522,0.36572 -1.06641,0.46484 0.26318,0.12647 0.3999,0.24952 0.29053,0.2666 0.5503,0.6665 L 145.66289,150 h -0.83399 l -0.66308,-1.04248 q -0.29053,-0.45117 -0.47852,-0.69043 -0.18799,-0.23926 -0.33838,-0.33496 -0.14697,-0.0957 -0.30078,-0.1333 -0.11279,-0.0239 -0.36914,-0.0239 h -0.76904 V 150 Z m 0.66309,-2.79932 h 1.42529 q 0.45459,0 0.71094,-0.0923 0.25635,-0.0957 0.38965,-0.30078 0.1333,-0.2085 0.1333,-0.45117 0,-0.35547 -0.25977,-0.58448 -0.25635,-0.229 -0.81347,-0.229 h -1.58594 z M 146.30547,150 v -5.01074 h 3.62304 v 0.59131 h -2.95996 v 1.53466 h 2.77197 v 0.58789 h -2.77197 v 1.70557 h 3.07617 V 150 Z m 4.42968,-1.60986 0.62549,-0.0547 q 0.0444,0.37598 0.20508,0.61865 0.16406,0.23926 0.50586,0.38965 0.3418,0.14697 0.76904,0.14697 0.3794,0 0.66992,-0.11279 0.29053,-0.11279 0.43067,-0.30762 0.14355,-0.19824 0.14355,-0.43066 0,-0.23584 -0.13672,-0.41016 -0.13671,-0.17773 -0.45117,-0.29736 -0.20166,-0.0786 -0.89209,-0.24268 -0.69043,-0.16748 -0.96728,-0.31445 -0.35889,-0.18799 -0.53662,-0.46484 -0.17432,-0.28028 -0.17432,-0.62549 0,-0.3794 0.21533,-0.70752 0.21533,-0.33154 0.62891,-0.50244 0.41357,-0.1709 0.91943,-0.1709 0.55713,0 0.98096,0.18115 0.42724,0.17774 0.65625,0.52637 0.229,0.34863 0.24609,0.78955 l -0.63574,0.0479 q -0.0513,-0.4751 -0.34863,-0.71777 -0.29395,-0.24268 -0.87158,-0.24268 -0.60157,0 -0.87842,0.22217 -0.27344,0.21875 -0.27344,0.52978 0,0.27002 0.19482,0.44434 0.19141,0.17432 0.99805,0.35889 0.81006,0.18115 1.11084,0.31787 0.4375,0.20166 0.646,0.51269 0.20849,0.30762 0.20849,0.71094 0,0.3999 -0.229,0.75537 -0.22901,0.35205 -0.65967,0.55029 -0.42725,0.19483 -0.96387,0.19483 -0.68017,0 -1.1416,-0.19824 -0.45801,-0.19825 -0.72119,-0.59473 -0.25976,-0.3999 -0.27344,-0.90234 z M 157.54716,150 v -5.01074 h 1.87989 q 0.57422,0 0.91943,0.15381 0.34863,0.15039 0.54346,0.46826 0.19824,0.31445 0.19824,0.65967 0,0.32129 -0.17432,0.60498 -0.17431,0.28369 -0.52636,0.458 0.45459,0.13331 0.69726,0.45459 0.2461,0.32129 0.2461,0.75879 0,0.35205 -0.15039,0.65625 -0.14698,0.30078 -0.36573,0.46485 -0.21875,0.16406 -0.55029,0.24951 -0.32812,0.082 -0.80664,0.082 z m 0.66309,-2.90527 h 1.0835 q 0.44091,0 0.63232,-0.0581 0.25293,-0.0752 0.3794,-0.24951 0.12988,-0.17432 0.12988,-0.4375 0,-0.24951 -0.11963,-0.4375 -0.11963,-0.19141 -0.3418,-0.25977 -0.22217,-0.0718 -0.7622,-0.0718 h -1.00147 z m 0,2.31396 h 1.24756 q 0.32129,0 0.45117,-0.0239 0.22901,-0.041 0.38281,-0.13672 0.15381,-0.0957 0.25293,-0.27686 0.0991,-0.18457 0.0991,-0.42383 0,-0.28027 -0.14355,-0.48535 -0.14355,-0.20849 -0.3999,-0.29053 -0.25293,-0.0854 -0.73145,-0.0854 h -1.15869 z"
     id="text12"
     style="font-size:7px;font-family:Arial, sans-serif;text-anchor:middle;fill:#bbbbbb"
     aria-label="RES B" />
  <!-- CHARACTER SECTION -->
  <path
     d="m 24.246094,192.89453 1.121093,0.35547 q -0.257812,0.9375 -0.859375,1.39453 -0.597656,0.45313 -1.519531,0.45313 -1.140625,0 -1.875,-0.77735 -0.734375,-0.78125 -0.734375,-2.13281 0,-1.42969 0.738281,-2.21875 0.738282,-0.79297 1.941407,-0.79297 1.050781,0 1.707031,0.62109 0.390625,0.36719 0.585937,1.05469 L 24.207031,191.125 Q 24.105469,190.67969 23.78125,190.42187 23.460937,190.16406 23,190.16406 q -0.636719,0 -1.035156,0.45703 -0.394532,0.45703 -0.394532,1.48047 0,1.08594 0.390625,1.54688 0.390625,0.46093 1.015625,0.46093 0.460938,0 0.792969,-0.29296 0.332031,-0.29297 0.476563,-0.92188 z M 26.363281,195 v -5.72656 h 1.15625 v 2.2539 h 2.265625 v -2.2539 h 1.15625 V 195 h -1.15625 v -2.50391 H 27.519531 V 195 Z m 10.9375,0 h -1.257812 l -0.5,-1.30078 H 33.253906 L 32.78125,195 h -1.226563 l 2.230469,-5.72656 h 1.222656 z m -2.128906,-2.26563 -0.789063,-2.125 -0.773437,2.125 z M 37.917969,195 v -5.72656 h 2.433593 q 0.917969,0 1.332032,0.15625 0.417968,0.15234 0.667968,0.54687 0.25,0.39453 0.25,0.90235 0,0.64453 -0.378906,1.0664 -0.378906,0.41797 -1.132812,0.52735 0.375,0.21875 0.617187,0.48046 0.246094,0.26172 0.660156,0.92969 L 43.066406,195 h -1.382812 l -0.835938,-1.24609 q -0.445312,-0.66797 -0.609375,-0.83985 -0.164062,-0.17578 -0.347656,-0.23828 -0.183594,-0.0664 -0.582031,-0.0664 H 39.074219 V 195 Z m 1.15625,-3.30469 h 0.855468 q 0.832032,0 1.039063,-0.0703 0.207031,-0.0703 0.324219,-0.24219 0.117187,-0.17187 0.117187,-0.42969 0,-0.28906 -0.15625,-0.46484 -0.152344,-0.17969 -0.433594,-0.22656 -0.140625,-0.0195 -0.84375,-0.0195 H 39.074219 Z M 48.855469,195 h -1.257813 l -0.5,-1.30078 H 44.808594 L 44.335937,195 h -1.226562 l 2.230469,-5.72656 H 46.5625 Z m -2.128907,-2.26563 -0.789062,-2.125 -0.773438,2.125 z m 6.40625,0.16016 1.121094,0.35547 q -0.257812,0.9375 -0.859375,1.39453 -0.597656,0.45313 -1.519531,0.45313 -1.140625,0 -1.875,-0.77735 -0.734375,-0.78125 -0.734375,-2.13281 0,-1.42969 0.738281,-2.21875 0.738281,-0.79297 1.941406,-0.79297 1.050782,0 1.707032,0.62109 0.390625,0.36719 0.585937,1.05469 L 53.09375,191.125 q -0.101563,-0.44531 -0.425781,-0.70313 -0.320313,-0.25781 -0.78125,-0.25781 -0.636719,0 -1.035157,0.45703 -0.394531,0.45703 -0.394531,1.48047 0,1.08594 0.390625,1.54688 0.390625,0.46093 1.015625,0.46093 0.460938,0 0.792969,-0.29296 0.332031,-0.29297 0.476562,-0.92188 z M 56.535156,195 v -4.75781 h -1.699219 v -0.96875 h 4.550782 v 0.96875 H 57.691406 V 195 Z m 3.597656,0 v -5.72656 h 4.246094 v 0.96875 h -3.089844 v 1.26953 h 2.875 v 0.96484 h -2.875 v 1.5586 h 3.199219 V 195 Z m 5.339844,0 v -5.72656 h 2.433594 q 0.917969,0 1.332031,0.15625 0.417969,0.15234 0.667969,0.54687 0.25,0.39453 0.25,0.90235 0,0.64453 -0.378906,1.0664 -0.378907,0.41797 -1.132813,0.52735 0.375,0.21875 0.617188,0.48046 0.246093,0.26172 0.660156,0.92969 L 70.621094,195 h -1.382813 l -0.835937,-1.24609 q -0.445313,-0.66797 -0.609375,-0.83985 -0.164063,-0.17578 -0.347657,-0.23828 -0.183593,-0.0664 -0.582031,-0.0664 H 66.628906 V 195 Z m 1.15625,-3.30469 h 0.855469 q 0.832031,0 1.039062,-0.0703 0.207032,-0.0703 0.324219,-0.24219 0.117188,-0.17187 0.117188,-0.42969 0,-0.28906 -0.15625,-0.46484 -0.152344,-0.17969 -0.433594,-0.22656 -0.140625,-0.0195 -0.84375,-0.0195 h -0.902344 z"
     id="text13"
     style="font-weight:bold;font-size:8px;font-family:Arial, sans-serif;fill:#aaaaaa"
     aria-label="CHARACTER" />
  <!-- Character Controls - Y: 65mm (245.7px) -->
  <path
     id="circle13"
     style="fill:#ff0000;stroke:#ffffff"
     d="m 68.700001,220 a 12,12 0 0 1 -12,12 12,12 0 0 1 -12,-12 12,12 0 0 1 12,-12 12,12 0 0 1 12,12 z" />
  <path
     d="m 41.89922,205 v -4.29492 h 0.568359 v 1.76367 h 2.232422 v -1.76367 H 45.26836 V 205 h -0.568359 v -2.02441 H 42.467579 V 205 Z m 4.412109,0 v -4.29492 h 0.568359 V 205 Z m 3.580078,-1.68457 v -0.50391 l 1.819336,-0.003 v 1.59375 q -0.418945,0.33399 -0.864258,0.50391 -0.445312,0.16699 -0.914062,0.16699 -0.632813,0 -1.151368,-0.26953 -0.515625,-0.27246 -0.779296,-0.78516 -0.263672,-0.51269 -0.263672,-1.1455 0,-0.62696 0.260742,-1.16895 0.263672,-0.54492 0.755859,-0.80859 0.492188,-0.26367 1.133789,-0.26367 0.465821,0 0.840821,0.15234 0.377929,0.14941 0.591797,0.41894 0.213867,0.26954 0.325195,0.70313 l -0.512695,0.14062 q -0.09668,-0.32812 -0.240235,-0.51562 -0.143555,-0.1875 -0.410156,-0.29883 -0.266602,-0.11426 -0.591797,-0.11426 -0.389648,0 -0.673828,0.12012 -0.28418,0.11719 -0.459961,0.31055 -0.172852,0.19336 -0.269531,0.4248 -0.164063,0.39844 -0.164063,0.86426 0,0.57422 0.196289,0.96094 0.199219,0.38672 0.577149,0.57422 0.377929,0.1875 0.802734,0.1875 0.369141,0 0.720703,-0.14063 0.351563,-0.14355 0.533203,-0.30469 v -0.7998 z M 52.566212,205 v -4.29492 h 0.568359 v 1.76367 h 2.232422 v -1.76367 h 0.568359 V 205 h -0.568359 v -2.02441 H 53.134571 V 205 Z m 4.315429,0 v -4.29492 h 1.620118 q 0.427734,0 0.65332,0.041 0.316406,0.0527 0.530273,0.20215 0.213868,0.14649 0.342774,0.41309 0.131836,0.2666 0.131836,0.58594 0,0.54785 -0.348633,0.92871 -0.348633,0.37793 -1.259766,0.37793 H 57.450001 V 205 Z m 0.56836,-2.25293 h 1.110351 q 0.550782,0 0.782227,-0.20508 0.231445,-0.20508 0.231445,-0.57715 0,-0.26953 -0.137695,-0.45996 -0.134766,-0.19336 -0.357422,-0.25488 -0.143555,-0.0381 -0.530273,-0.0381 H 57.450001 Z M 59.966602,205 l 1.649414,-4.29492 h 0.612305 L 63.986134,205 h -0.647461 l -0.500977,-1.30078 H 61.041798 L 60.570118,205 Z m 1.239258,-1.76367 h 1.456055 l -0.448242,-1.18946 q -0.205078,-0.54199 -0.304688,-0.89062 -0.08203,0.41309 -0.231445,0.82031 z m 3.041016,0.38379 0.536133,-0.0469 q 0.03809,0.32227 0.175781,0.53028 0.140625,0.20507 0.433594,0.33398 0.292968,0.12598 0.659179,0.12598 0.325196,0 0.574219,-0.0967 0.249023,-0.0967 0.369141,-0.26368 0.123047,-0.16992 0.123047,-0.36914 0,-0.20214 -0.117188,-0.35156 -0.117187,-0.15234 -0.386719,-0.25488 -0.172851,-0.0674 -0.764648,-0.20801 -0.591797,-0.14355 -0.829102,-0.26953 -0.307617,-0.16113 -0.459961,-0.39844 -0.149414,-0.24023 -0.149414,-0.53613 0,-0.3252 0.184571,-0.60645 0.18457,-0.28418 0.539062,-0.43066 0.354492,-0.14648 0.788086,-0.14648 0.477539,0 0.84082,0.15527 0.366211,0.15234 0.5625,0.45117 0.196289,0.29883 0.210938,0.67676 l -0.544922,0.041 q -0.04394,-0.40722 -0.298828,-0.61523 -0.251953,-0.20801 -0.74707,-0.20801 -0.515625,0 -0.75293,0.19043 -0.234375,0.1875 -0.234375,0.4541 0,0.23145 0.166992,0.38086 0.164063,0.14942 0.855469,0.30762 0.694336,0.15527 0.952148,0.27246 0.375,0.17285 0.553711,0.43945 0.178711,0.26368 0.178711,0.60938 0,0.34277 -0.196289,0.64746 -0.196289,0.30176 -0.56543,0.47168 -0.366211,0.16699 -0.826172,0.16699 -0.583007,0 -0.978515,-0.16992 -0.392578,-0.16992 -0.618164,-0.50977 -0.222656,-0.34277 -0.234375,-0.77343 z m 4.001953,0 0.536133,-0.0469 q 0.03809,0.32227 0.175781,0.53028 0.140625,0.20507 0.433594,0.33398 0.292968,0.12598 0.659179,0.12598 0.325196,0 0.574219,-0.0967 0.249024,-0.0967 0.369141,-0.26368 0.123047,-0.16992 0.123047,-0.36914 0,-0.20214 -0.117188,-0.35156 -0.117187,-0.15234 -0.386719,-0.25488 -0.172851,-0.0674 -0.764648,-0.20801 -0.591797,-0.14355 -0.829102,-0.26953 -0.307617,-0.16113 -0.459961,-0.39844 -0.149414,-0.24023 -0.149414,-0.53613 0,-0.3252 0.184571,-0.60645 0.18457,-0.28418 0.539062,-0.43066 0.354492,-0.14648 0.788086,-0.14648 0.477539,0 0.84082,0.15527 0.366211,0.15234 0.5625,0.45117 0.19629,0.29883 0.210938,0.67676 l -0.544922,0.041 q -0.04394,-0.40722 -0.298828,-0.61523 -0.251953,-0.20801 -0.74707,-0.20801 -0.515625,0 -0.75293,0.19043 -0.234375,0.1875 -0.234375,0.4541 0,0.23145 0.166992,0.38086 0.164063,0.14942 0.855469,0.30762 0.694336,0.15527 0.952148,0.27246 0.375,0.17285 0.553711,0.43945 0.178711,0.26368 0.178711,0.60938 0,0.34277 -0.196289,0.64746 -0.196289,0.30176 -0.56543,0.47168 -0.36621,0.16699 -0.826171,0.16699 -0.583008,0 -0.978516,-0.16992 -0.392578,-0.16992 -0.618164,-0.50977 -0.222656,-0.34277 -0.234375,-0.77343 z"
     id="text14"
     style="font-size:6px;font-family:Arial, sans-serif;text-anchor:middle;fill:#bbbbbb"
     aria-label="HIGHPASS" />
  <path
     id="circle14"
     style="fill:#ff0000;stroke:#ffffff"
     d="m 144.3,220 a 12,12 0 0 1 -12,12 12,12 0 0 1 -12,-12 12,12 0 0 1 12,-12 12,12 0 0 1 12,12 z" />
  <path
     d="m 121.57881,205 v -4.29492 h 0.85547 l 1.0166,3.04101 q 0.14063,0.42481 0.20508,0.63575 0.0732,-0.23438 0.22852,-0.68848 l 1.02832,-2.98828 h 0.76464 V 205 h -0.54785 v -3.59473 L 123.88155,205 h -0.5127 l -1.24219,-3.65625 V 205 Z m 4.84278,-2.0918 q 0,-1.06933 0.57421,-1.67285 0.57422,-0.60644 1.48243,-0.60644 0.59472,0 1.07226,0.28418 0.47754,0.28418 0.72656,0.79394 0.25196,0.50684 0.25196,1.15137 0,0.65332 -0.26367,1.16894 -0.26368,0.51563 -0.74708,0.78223 -0.48339,0.26367 -1.04296,0.26367 -0.60645,0 -1.08399,-0.29297 -0.47754,-0.29297 -0.72363,-0.7998 -0.24609,-0.50684 -0.24609,-1.07227 z m 0.58593,0.009 q 0,0.77637 0.41602,1.22461 0.41894,0.44531 1.04883,0.44531 0.6416,0 1.05468,-0.45117 0.41602,-0.45117 0.41602,-1.28027 0,-0.52442 -0.17871,-0.91406 -0.17578,-0.39258 -0.51856,-0.60645 -0.33984,-0.2168 -0.76464,-0.2168 -0.60352,0 -1.04004,0.41602 -0.4336,0.41309 -0.4336,1.38281 z M 131.27022,205 v -4.29492 h 1.90429 q 0.57422,0 0.87305,0.11719 0.29883,0.11425 0.47754,0.40722 0.17871,0.29297 0.17871,0.64746 0,0.45703 -0.2959,0.77051 -0.2959,0.31348 -0.91406,0.39844 0.22559,0.1084 0.34277,0.21387 0.24903,0.22851 0.47168,0.57128 L 135.05537,205 h -0.71484 l -0.56836,-0.89355 q -0.24902,-0.38672 -0.41016,-0.5918 -0.16113,-0.20508 -0.29003,-0.28711 -0.12598,-0.082 -0.25782,-0.11426 -0.0967,-0.0205 -0.3164,-0.0205 h -0.65918 V 205 Z m 0.56836,-2.39941 h 1.22168 q 0.38965,0 0.60937,-0.0791 0.21973,-0.082 0.33399,-0.25781 0.11425,-0.17871 0.11425,-0.38672 0,-0.30468 -0.22265,-0.50097 -0.21973,-0.19629 -0.69727,-0.19629 h -1.35937 z M 135.59444,205 v -4.29492 h 1.62011 q 0.42774,0 0.65332,0.041 0.31641,0.0527 0.53028,0.20215 0.21386,0.14649 0.34277,0.41309 0.13184,0.2666 0.13184,0.58594 0,0.54785 -0.34864,0.92871 -0.34863,0.37793 -1.25976,0.37793 H 136.1628 V 205 Z m 0.56836,-2.25293 h 1.11035 q 0.55078,0 0.78222,-0.20508 0.23145,-0.20508 0.23145,-0.57715 0,-0.26953 -0.1377,-0.45996 -0.13476,-0.19336 -0.35742,-0.25488 -0.14355,-0.0381 -0.53027,-0.0381 H 136.1628 Z M 139.61397,205 v -4.29492 h 0.56836 v 1.76367 h 2.23242 v -1.76367 h 0.56836 V 205 h -0.56836 v -2.02441 h -2.23242 V 205 Z"
     id="text15"
     style="font-size:6px;font-family:Arial, sans-serif;text-anchor:middle;fill:#ff8844"
     aria-label="MORPH" />
  <path
     id="circle15"
     style="fill:#ff0000;stroke:#ffffff"
     d="m 219.89999,220 a 12,12 0 0 1 -12,12 12,12 0 0 1 -12,-12 12,12 0 0 1 12,-12 12,12 0 0 1 12,12 z" />
  <path
     d="m 199.19443,205 v -4.29492 h 1.47949 q 0.50098,0 0.76465,0.0615 0.36914,0.085 0.62988,0.30762 0.33984,0.28711 0.50684,0.73535 0.16992,0.44531 0.16992,1.01953 0,0.48926 -0.11426,0.86719 -0.11426,0.37793 -0.29297,0.62695 -0.17871,0.2461 -0.39258,0.38965 -0.21093,0.14063 -0.51269,0.21387 Q 201.13388,205 200.74423,205 Z m 0.56836,-0.50684 h 0.91699 q 0.4248,0 0.66504,-0.0791 0.24316,-0.0791 0.38672,-0.22265 0.20215,-0.20215 0.31347,-0.542 0.11426,-0.34277 0.11426,-0.8291 0,-0.67383 -0.22266,-1.03418 -0.21972,-0.36328 -0.53613,-0.48633 -0.22851,-0.0879 -0.73535,-0.0879 h -0.90234 z M 203.53622,205 v -4.29492 h 1.9043 q 0.57422,0 0.87305,0.11719 0.29883,0.11425 0.47754,0.40722 0.17871,0.29297 0.17871,0.64746 0,0.45703 -0.2959,0.77051 -0.2959,0.31348 -0.91406,0.39844 0.22558,0.1084 0.34277,0.21387 0.24902,0.22851 0.47168,0.57128 L 207.32138,205 h -0.71484 l -0.56836,-0.89355 q -0.24903,-0.38672 -0.41016,-0.5918 -0.16113,-0.20508 -0.29004,-0.28711 -0.12597,-0.082 -0.25781,-0.11426 -0.0967,-0.0205 -0.31641,-0.0205 h -0.65918 V 205 Z m 0.56836,-2.39941 h 1.22168 q 0.38965,0 0.60938,-0.0791 0.21972,-0.082 0.33398,-0.25781 0.11426,-0.17871 0.11426,-0.38672 0,-0.30468 -0.22266,-0.50097 -0.21972,-0.19629 -0.69726,-0.19629 h -1.35938 z M 207.95712,205 v -4.29492 h 0.56836 V 205 Z m 2.79785,0 -1.66406,-4.29492 h 0.61524 l 1.11621,3.12012 q 0.13476,0.375 0.22558,0.70312 0.0996,-0.35156 0.23145,-0.70312 l 1.16015,-3.12012 h 0.58008 L 211.33798,205 Z m 2.78614,0 v -4.29492 h 3.10547 v 0.50683 h -2.53711 v 1.31543 h 2.37597 v 0.50391 h -2.37597 v 1.46191 h 2.63672 V 205 Z"
     id="text16"
     style="font-size:6px;font-family:Arial, sans-serif;text-anchor:middle;fill:#ffaa44"
     aria-label="DRIVE" />
  <!-- MAGICAL EFFECTS SECTION -->
  <path
     d="m 20.566406,260 v -5.72656 h 1.730469 l 1.039062,3.90625 1.027344,-3.90625 h 1.734375 V 260 h -1.074219 v -4.50781 L 23.886719,260 h -1.113282 l -1.132812,-4.50781 V 260 Z m 11.84375,0 h -1.257812 l -0.5,-1.30078 H 28.363281 L 27.890625,260 h -1.226563 l 2.230469,-5.72656 h 1.222656 z m -2.128906,-2.26563 -0.789063,-2.125 -0.773437,2.125 z m 5.40625,0.16016 v -0.96484 h 2.492187 v 2.28125 q -0.363281,0.35156 -1.054687,0.62109 -0.6875,0.26563 -1.394531,0.26563 -0.898438,0 -1.566407,-0.375 -0.667968,-0.37891 -1.003906,-1.07813 -0.335937,-0.70312 -0.335937,-1.52734 0,-0.89453 0.375,-1.58985 0.375,-0.69531 1.097656,-1.0664 0.550781,-0.28516 1.371094,-0.28516 1.066406,0 1.664062,0.44922 0.601563,0.44531 0.773438,1.23437 l -1.148438,0.21485 Q 36.835937,255.65234 36.5,255.41016 q -0.332031,-0.2461 -0.832031,-0.2461 -0.757813,0 -1.207032,0.48047 -0.445312,0.48047 -0.445312,1.42578 0,1.01953 0.453125,1.53125 0.453125,0.50781 1.1875,0.50781 0.363281,0 0.726562,-0.14062 0.367188,-0.14453 0.628907,-0.34766 v -0.72656 z M 39.210937,260 v -5.72656 h 1.15625 V 260 Z m 5.921875,-2.10547 1.121094,0.35547 q -0.257812,0.9375 -0.859375,1.39453 -0.597656,0.45313 -1.519531,0.45313 -1.140625,0 -1.875,-0.77735 -0.734375,-0.78125 -0.734375,-2.13281 0,-1.42969 0.738281,-2.21875 0.738281,-0.79297 1.941406,-0.79297 1.050782,0 1.707032,0.62109 0.390625,0.36719 0.585937,1.05469 L 45.09375,256.125 q -0.101563,-0.44531 -0.425781,-0.70313 -0.320313,-0.25781 -0.78125,-0.25781 -0.636719,0 -1.035157,0.45703 -0.394531,0.45703 -0.394531,1.48047 0,1.08594 0.390625,1.54688 0.390625,0.46093 1.015625,0.46093 0.460938,0 0.792969,-0.29296 0.332031,-0.29297 0.476562,-0.92188 z"
     id="text17"
     style="font-weight:bold;font-size:8px;font-family:Arial, sans-serif;fill:#cccccc"
     aria-label="MAGIC" />
  <!-- Magical Effects - Y: 85mm (255px) -->
  <path
     id="circle17"
     style="fill:#ff0000;stroke:#ffffff"
     d="m 68.700001,275 a 12,12 0 0 1 -12,12 12,12 0 0 1 -12,-12 12,12 0 0 1 12,-12 12,12 0 0 1 12,12 z" />
  <path
     d="m 49.558887,258.49414 0.56836,0.14356 q -0.178711,0.70019 -0.644531,1.06933 -0.462891,0.36621 -1.133789,0.36621 -0.694336,0 -1.13086,-0.28125 -0.433594,-0.28418 -0.662109,-0.82031 -0.225586,-0.53613 -0.225586,-1.15137 0,-0.6709 0.254883,-1.16894 0.257812,-0.50098 0.729492,-0.75879 0.474609,-0.26074 1.042969,-0.26074 0.644531,0 1.083984,0.32812 0.439453,0.32813 0.612305,0.92285 l -0.559571,0.13184 q -0.149414,-0.46875 -0.433593,-0.68262 -0.28418,-0.21387 -0.714844,-0.21387 -0.495117,0 -0.829102,0.23731 -0.331054,0.2373 -0.46582,0.63867 -0.134766,0.39844 -0.134766,0.82324 0,0.54785 0.158203,0.95801 0.161133,0.40723 0.498047,0.60938 0.336914,0.20214 0.729493,0.20214 0.477539,0 0.808593,-0.27539 0.331055,-0.27539 0.448242,-0.81738 z M 50.836231,260 v -4.29492 h 1.904297 q 0.574219,0 0.873047,0.11719 0.298828,0.11425 0.477539,0.40722 0.178711,0.29297 0.178711,0.64746 0,0.45703 -0.295898,0.77051 -0.295899,0.31348 -0.914063,0.39844 0.225586,0.1084 0.342773,0.21387 0.249024,0.22851 0.47168,0.57128 L 54.621387,260 h -0.714843 l -0.56836,-0.89355 q -0.249023,-0.38672 -0.410156,-0.5918 -0.161133,-0.20508 -0.290039,-0.28711 -0.125977,-0.082 -0.257812,-0.11426 -0.09668,-0.0205 -0.316407,-0.0205 H 51.404591 V 260 Z m 0.56836,-2.39941 h 1.221679 q 0.389649,0 0.609375,-0.0791 0.219727,-0.082 0.333985,-0.25781 0.114257,-0.17871 0.114257,-0.38672 0,-0.30468 -0.222656,-0.50097 -0.219726,-0.19629 -0.697265,-0.19629 h -1.359375 z m 3.583007,0.30761 q 0,-1.06933 0.574219,-1.67285 0.574219,-0.60644 1.482422,-0.60644 0.594727,0 1.072266,0.28418 0.477539,0.28418 0.726562,0.79394 0.251953,0.50684 0.251953,1.15137 0,0.65332 -0.263672,1.16894 -0.263671,0.51563 -0.74707,0.78223 -0.483398,0.26367 -1.042969,0.26367 -0.606445,0 -1.083984,-0.29297 -0.477539,-0.29297 -0.723633,-0.7998 -0.246094,-0.50684 -0.246094,-1.07227 z m 0.585938,0.009 q 0,0.77637 0.416016,1.22461 0.418945,0.44531 1.048828,0.44531 0.641601,0 1.054687,-0.45117 0.416016,-0.45117 0.416016,-1.28027 0,-0.52442 -0.178711,-0.91406 -0.175781,-0.39258 -0.518555,-0.60645 -0.339844,-0.2168 -0.764648,-0.2168 -0.603516,0 -1.040039,0.41602 -0.433594,0.41309 -0.433594,1.38281 z m 4.060547,0.70313 0.536133,-0.0469 q 0.03809,0.32227 0.175781,0.53028 0.140625,0.20507 0.433594,0.33398 0.292968,0.12598 0.659179,0.12598 0.325196,0 0.574219,-0.0967 0.249023,-0.0967 0.369141,-0.26368 0.123047,-0.16992 0.123047,-0.36914 0,-0.20214 -0.117188,-0.35156 -0.117187,-0.15234 -0.386719,-0.25488 -0.172851,-0.0674 -0.764648,-0.20801 -0.591797,-0.14355 -0.829102,-0.26953 -0.307617,-0.16113 -0.459961,-0.39844 -0.149414,-0.24023 -0.149414,-0.53613 0,-0.3252 0.184571,-0.60645 0.18457,-0.28418 0.539062,-0.43066 0.354492,-0.14648 0.788086,-0.14648 0.477539,0 0.84082,0.15527 0.366211,0.15234 0.5625,0.45117 0.196289,0.29883 0.210938,0.67676 l -0.544922,0.041 q -0.04395,-0.40722 -0.298828,-0.61523 -0.251953,-0.20801 -0.74707,-0.20801 -0.515625,0 -0.75293,0.19043 -0.234375,0.1875 -0.234375,0.4541 0,0.23145 0.166992,0.38086 0.164063,0.14942 0.855469,0.30762 0.694336,0.15527 0.952148,0.27246 0.375,0.17285 0.553711,0.43945 0.178711,0.26368 0.178711,0.60938 0,0.34277 -0.196289,0.64746 -0.196289,0.30176 -0.56543,0.47168 -0.366211,0.16699 -0.826172,0.16699 -0.583007,0 -0.978515,-0.16992 -0.392578,-0.16992 -0.618164,-0.50977 -0.222656,-0.34277 -0.234375,-0.77343 z m 4.001953,0 0.536133,-0.0469 q 0.03809,0.32227 0.175781,0.53028 0.140625,0.20507 0.433594,0.33398 0.292968,0.12598 0.659179,0.12598 0.325196,0 0.574219,-0.0967 0.249024,-0.0967 0.369141,-0.26368 0.123047,-0.16992 0.123047,-0.36914 0,-0.20214 -0.117188,-0.35156 -0.117187,-0.15234 -0.386719,-0.25488 -0.172851,-0.0674 -0.764648,-0.20801 -0.591797,-0.14355 -0.829102,-0.26953 -0.307617,-0.16113 -0.459961,-0.39844 -0.149414,-0.24023 -0.149414,-0.53613 0,-0.3252 0.184571,-0.60645 0.18457,-0.28418 0.539062,-0.43066 0.354492,-0.14648 0.788086,-0.14648 0.477539,0 0.84082,0.15527 0.366211,0.15234 0.5625,0.45117 0.19629,0.29883 0.210938,0.67676 l -0.544922,0.041 q -0.04394,-0.40722 -0.298828,-0.61523 -0.251953,-0.20801 -0.74707,-0.20801 -0.515625,0 -0.75293,0.19043 -0.234375,0.1875 -0.234375,0.4541 0,0.23145 0.166992,0.38086 0.164063,0.14942 0.855469,0.30762 0.694336,0.15527 0.952148,0.27246 0.375,0.17285 0.553711,0.43945 0.178711,0.26368 0.178711,0.60938 0,0.34277 -0.196289,0.64746 -0.196289,0.30176 -0.56543,0.47168 -0.36621,0.16699 -0.826171,0.16699 -0.583008,0 -0.978516,-0.16992 -0.392578,-0.16992 -0.618164,-0.50977 -0.222656,-0.34277 -0.234375,-0.77343 z"
     id="text18"
     style="font-size:6px;font-family:Arial, sans-serif;text-anchor:middle;fill:#aa66ff"
     aria-label="CROSS" />
  <path
     id="circle18"
     style="fill:#ff0000;stroke:#ffffff"
     d="m 144.3,275 a 12,12 0 0 1 -12,12 12,12 0 0 1 -12,-12 12,12 0 0 1 12,-12 12,12 0 0 1 12,12 z" />
  <path
     d="m 116.60127,260 v -4.29492 h 3.10547 v 0.50683 h -2.53711 v 1.31543 h 2.37598 v 0.50391 h -2.37598 v 1.46191 h 2.63672 V 260 Z m 3.98438,0 v -4.29492 h 0.58301 l 2.25585,3.37207 v -3.37207 h 0.54493 V 260 h -0.58301 l -2.25586,-3.375 V 260 Z m 5.5664,0 -1.66406,-4.29492 h 0.61524 l 1.11621,3.12012 q 0.13476,0.375 0.22558,0.70312 0.0996,-0.35156 0.23145,-0.70312 l 1.16015,-3.12012 h 0.58008 L 126.73506,260 Z m 2.78614,0 v -4.29492 h 3.10547 v 0.50683 h -2.53711 v 1.31543 h 2.37597 v 0.50391 h -2.37597 v 1.46191 h 2.63671 V 260 Z m 3.96679,0 v -4.29492 h 0.56836 v 3.78808 h 2.11524 V 260 Z m 3.1875,-2.0918 q 0,-1.06933 0.57422,-1.67285 0.57422,-0.60644 1.48242,-0.60644 0.59473,0 1.07227,0.28418 0.47754,0.28418 0.72656,0.79394 0.25196,0.50684 0.25196,1.15137 0,0.65332 -0.26368,1.16894 -0.26367,0.51563 -0.74707,0.78223 -0.4834,0.26367 -1.04297,0.26367 -0.60644,0 -1.08398,-0.29297 -0.47754,-0.29297 -0.72363,-0.7998 -0.2461,-0.50684 -0.2461,-1.07227 z m 0.58594,0.009 q 0,0.77637 0.41602,1.22461 0.41894,0.44531 1.04882,0.44531 0.64161,0 1.05469,-0.45117 0.41602,-0.45117 0.41602,-1.28027 0,-0.52442 -0.17871,-0.91406 -0.17578,-0.39258 -0.51856,-0.60645 -0.33984,-0.2168 -0.76465,-0.2168 -0.60351,0 -1.04004,0.41602 -0.43359,0.41309 -0.43359,1.38281 z M 140.93233,260 v -4.29492 h 1.62011 q 0.42774,0 0.65332,0.041 0.31641,0.0527 0.53028,0.20215 0.21387,0.14649 0.34277,0.41309 0.13184,0.2666 0.13184,0.58594 0,0.54785 -0.34864,0.92871 -0.34863,0.37793 -1.25976,0.37793 h -1.10156 V 260 Z m 0.56836,-2.25293 h 1.11035 q 0.55078,0 0.78222,-0.20508 0.23145,-0.20508 0.23145,-0.57715 0,-0.26953 -0.1377,-0.45996 -0.13476,-0.19336 -0.35742,-0.25488 -0.14355,-0.0381 -0.53027,-0.0381 h -1.09863 z M 144.946,260 v -4.29492 h 3.10547 v 0.50683 h -2.53711 v 1.31543 h 2.37598 v 0.50391 h -2.37598 v 1.46191 h 2.63672 V 260 Z"
     id="text19"
     style="font-size:6px;font-family:Arial, sans-serif;text-anchor:middle;fill:#66aaff"
     aria-label="ENVELOPE" />
  <path
     id="circle19"
     style="fill:#ff0000;stroke:#ffffff"
     d="m 219.89999,275 a 12,12 0 0 1 -12,12 12,12 0 0 1 -12,-12 12,12 0 0 1 12,-12 12,12 0 0 1 12,12 z" />
  <path
     d="m 192.04745,260 v -4.29492 h 0.56836 v 1.76367 h 2.23243 v -1.76367 h 0.56836 V 260 h -0.56836 v -2.02441 h -2.23243 V 260 Z m 3.84375,0 1.64942,-4.29492 h 0.6123 L 199.91074,260 h -0.64746 l -0.50098,-1.30078 h -1.7959 L 196.49472,260 Z m 1.23926,-1.76367 h 1.45606 l -0.44824,-1.18946 q -0.20508,-0.54199 -0.30469,-0.89062 -0.082,0.41309 -0.23145,0.82031 z M 200.37363,260 v -4.29492 h 1.90429 q 0.57422,0 0.87305,0.11719 0.29883,0.11425 0.47754,0.40722 0.17871,0.29297 0.17871,0.64746 0,0.45703 -0.2959,0.77051 -0.2959,0.31348 -0.91406,0.39844 0.22559,0.1084 0.34277,0.21387 0.24903,0.22851 0.47168,0.57128 L 204.15878,260 h -0.71484 l -0.56836,-0.89355 q -0.24902,-0.38672 -0.41016,-0.5918 -0.16113,-0.20508 -0.29004,-0.28711 -0.12597,-0.082 -0.25781,-0.11426 -0.0967,-0.0205 -0.3164,-0.0205 h -0.65918 V 260 Z m 0.56836,-2.39941 h 1.22168 q 0.38964,0 0.60937,-0.0791 0.21973,-0.082 0.33399,-0.25781 0.11425,-0.17871 0.11425,-0.38672 0,-0.30468 -0.22265,-0.50097 -0.21973,-0.19629 -0.69727,-0.19629 h -1.35937 z M 204.68027,260 v -4.29492 h 0.85547 l 1.0166,3.04101 q 0.14062,0.42481 0.20508,0.63575 0.0732,-0.23438 0.22851,-0.68848 l 1.02832,-2.98828 h 0.76465 V 260 h -0.54785 v -3.59473 L 206.983,260 h -0.51269 l -1.24219,-3.65625 V 260 Z m 4.84277,-2.0918 q 0,-1.06933 0.57422,-1.67285 0.57422,-0.60644 1.48242,-0.60644 0.59473,0 1.07227,0.28418 0.47754,0.28418 0.72656,0.79394 0.25195,0.50684 0.25195,1.15137 0,0.65332 -0.26367,1.16894 -0.26367,0.51563 -0.74707,0.78223 -0.4834,0.26367 -1.04297,0.26367 -0.60644,0 -1.08398,-0.29297 -0.47754,-0.29297 -0.72364,-0.7998 -0.24609,-0.50684 -0.24609,-1.07227 z m 0.58594,0.009 q 0,0.77637 0.41601,1.22461 0.41895,0.44531 1.04883,0.44531 0.6416,0 1.05469,-0.45117 0.41602,-0.45117 0.41602,-1.28027 0,-0.52442 -0.17872,-0.91406 -0.17578,-0.39258 -0.51855,-0.60645 -0.33984,-0.2168 -0.76465,-0.2168 -0.60351,0 -1.04004,0.41602 -0.43359,0.41309 -0.43359,1.38281 z M 214.35703,260 v -4.29492 h 0.583 l 2.25586,3.37207 v -3.37207 h 0.54492 V 260 h -0.583 l -2.25586,-3.375 V 260 Z m 4.43554,0 v -4.29492 h 0.56836 V 260 Z m 4.63477,-1.50586 0.56836,0.14356 q -0.17871,0.70019 -0.64453,1.06933 -0.46289,0.36621 -1.13379,0.36621 -0.69434,0 -1.13086,-0.28125 -0.4336,-0.28418 -0.66211,-0.82031 -0.22559,-0.53613 -0.22559,-1.15137 0,-0.6709 0.25488,-1.16894 0.25782,-0.50098 0.7295,-0.75879 0.47461,-0.26074 1.04297,-0.26074 0.64453,0 1.08398,0.32812 0.43945,0.32813 0.6123,0.92285 l -0.55957,0.13184 q -0.14941,-0.46875 -0.43359,-0.68262 -0.28418,-0.21387 -0.71484,-0.21387 -0.49512,0 -0.8291,0.23731 -0.33106,0.2373 -0.46582,0.63867 -0.13477,0.39844 -0.13477,0.82324 0,0.54785 0.1582,0.95801 0.16114,0.40723 0.49805,0.60938 0.33691,0.20214 0.72949,0.20214 0.47754,0 0.8086,-0.27539 0.33105,-0.27539 0.44824,-0.81738 z"
     id="text20"
     style="font-size:6px;font-family:Arial, sans-serif;text-anchor:middle;fill:#ffdd44"
     aria-label="HARMONIC" />
  <!-- STEREO & PHASE SECTION -->
  <path
     d="m 20.289062,323.13672 1.125,-0.10938 q 0.101563,0.56641 0.410157,0.83203 0.3125,0.26563 0.839843,0.26563 0.558594,0 0.839844,-0.23438 0.285156,-0.23828 0.285156,-0.55468 0,-0.20313 -0.121093,-0.34375 -0.117188,-0.14453 -0.414063,-0.25 -0.203125,-0.0703 -0.925781,-0.25 -0.929688,-0.23047 -1.304688,-0.56641 -0.527343,-0.47266 -0.527343,-1.15234 0,-0.4375 0.246093,-0.81641 0.25,-0.38281 0.714844,-0.58203 0.46875,-0.19922 1.128906,-0.19922 1.078125,0 1.621094,0.47266 0.546875,0.47265 0.574219,1.26172 l -1.15625,0.0508 q -0.07422,-0.44141 -0.320313,-0.63282 -0.242187,-0.19531 -0.730468,-0.19531 -0.503907,0 -0.789063,0.20703 -0.183594,0.13282 -0.183594,0.35547 0,0.20313 0.171875,0.34766 0.21875,0.18359 1.0625,0.38281 0.84375,0.19922 1.246094,0.41406 0.40625,0.21094 0.632813,0.58203 0.230468,0.36719 0.230468,0.91016 0,0.49219 -0.273437,0.92188 -0.273438,0.42968 -0.773438,0.64062 -0.5,0.20703 -1.246093,0.20703 -1.085938,0 -1.667969,-0.5 -0.582031,-0.5039 -0.695313,-1.46484 z M 27.207031,325 v -4.75781 h -1.699219 v -0.96875 h 4.550782 v 0.96875 H 28.363281 V 325 Z m 3.597656,0 v -5.72656 h 4.246094 v 0.96875 h -3.089844 v 1.26953 h 2.875 v 0.96484 h -2.875 v 1.5586 h 3.199219 V 325 Z m 5.339844,0 v -5.72656 h 2.433594 q 0.917969,0 1.332031,0.15625 0.417969,0.15234 0.667969,0.54687 0.25,0.39453 0.25,0.90235 0,0.64453 -0.378906,1.0664 -0.378907,0.41797 -1.132813,0.52735 0.375,0.21875 0.617188,0.48046 0.246093,0.26172 0.660156,0.92969 L 41.292969,325 h -1.382813 l -0.835937,-1.24609 q -0.445313,-0.66797 -0.609375,-0.83985 -0.164063,-0.17578 -0.347657,-0.23828 -0.183593,-0.0664 -0.582031,-0.0664 H 37.300781 V 325 Z m 1.15625,-3.30469 h 0.855469 q 0.832031,0 1.039062,-0.0703 0.207032,-0.0703 0.324219,-0.24219 0.117188,-0.17187 0.117188,-0.42969 0,-0.28906 -0.15625,-0.46484 -0.152344,-0.17969 -0.433594,-0.22656 -0.140625,-0.0195 -0.84375,-0.0195 H 37.300781 Z M 41.917969,325 v -5.72656 h 4.246093 v 0.96875 h -3.089843 v 1.26953 h 2.875 v 0.96484 h -2.875 v 1.5586 h 3.199218 V 325 Z m 5.101562,-2.82813 q 0,-0.875 0.261719,-1.46875 0.195312,-0.4375 0.53125,-0.78515 0.339844,-0.34766 0.742187,-0.51563 0.535157,-0.22656 1.234375,-0.22656 1.265625,0 2.023438,0.78516 0.761719,0.78515 0.761719,2.18359 0,1.38672 -0.753907,2.17188 -0.753906,0.78125 -2.015625,0.78125 -1.277343,0 -2.03125,-0.77735 -0.753906,-0.78125 -0.753906,-2.14844 z m 1.191406,-0.0391 q 0,0.97266 0.449219,1.47656 0.449219,0.5 1.140625,0.5 0.691406,0 1.132813,-0.49609 0.445312,-0.5 0.445312,-1.49609 0,-0.98438 -0.433594,-1.46875 -0.429687,-0.48438 -1.144531,-0.48438 -0.714844,0 -1.152344,0.49219 -0.4375,0.48828 -0.4375,1.47656 z M 55.699219,325 v -5.72656 h 1.855468 q 1.054688,0 1.375,0.0859 0.492188,0.12891 0.824219,0.5625 0.332031,0.42969 0.332031,1.11329 0,0.52734 -0.191406,0.88671 -0.191406,0.35938 -0.488281,0.56641 -0.292969,0.20313 -0.597656,0.26953 -0.414063,0.082 -1.199219,0.082 H 56.855469 V 325 Z m 1.15625,-4.75781 v 1.625 h 0.632812 q 0.683594,0 0.914063,-0.0899 0.230468,-0.0898 0.359375,-0.28125 0.132812,-0.1914 0.132812,-0.44531 0,-0.3125 -0.183594,-0.51562 -0.183593,-0.20313 -0.464843,-0.25391 -0.207032,-0.0391 -0.832032,-0.0391 z M 61.039062,325 v -5.72656 h 1.15625 v 2.2539 h 2.265625 v -2.2539 h 1.15625 V 325 h -1.15625 v -2.50391 H 62.195312 V 325 Z m 10.9375,0 H 70.71875 l -0.5,-1.30078 H 67.929687 L 67.457031,325 h -1.226562 l 2.230468,-5.72656 h 1.222657 z m -2.128906,-2.26563 -0.789062,-2.125 -0.773438,2.125 z m 2.449219,0.40235 1.125,-0.10938 q 0.101562,0.56641 0.410156,0.83203 0.3125,0.26563 0.839844,0.26563 0.558594,0 0.839844,-0.23438 0.285156,-0.23828 0.285156,-0.55468 0,-0.20313 -0.121094,-0.34375 -0.117187,-0.14453 -0.414062,-0.25 -0.203125,-0.0703 -0.925782,-0.25 -0.929687,-0.23047 -1.304687,-0.56641 -0.527344,-0.47266 -0.527344,-1.15234 0,-0.4375 0.246094,-0.81641 0.25,-0.38281 0.714844,-0.58203 0.46875,-0.19922 1.128906,-0.19922 1.078125,0 1.621094,0.47266 0.546875,0.47265 0.574218,1.26172 l -1.15625,0.0508 q -0.07422,-0.44141 -0.320312,-0.63282 -0.242188,-0.19531 -0.730469,-0.19531 -0.503906,0 -0.789062,0.20703 -0.183594,0.13282 -0.183594,0.35547 0,0.20313 0.171875,0.34766 0.21875,0.18359 1.0625,0.38281 0.84375,0.19922 1.246094,0.41406 0.40625,0.21094 0.632812,0.58203 0.230469,0.36719 0.230469,0.91016 0,0.49219 -0.273438,0.92188 -0.273437,0.42968 -0.773437,0.64062 -0.5,0.20703 -1.246094,0.20703 -1.085937,0 -1.667969,-0.5 -0.582031,-0.5039 -0.695312,-1.46484 z M 77.925781,325 v -5.72656 h 4.246094 v 0.96875 h -3.089844 v 1.26953 h 2.875 v 0.96484 h -2.875 v 1.5586 H 82.28125 V 325 Z"
     id="text21"
     style="font-weight:bold;font-size:8px;font-family:Arial, sans-serif;fill:#aaaaaa"
     aria-label="STEREO PHASE" />
  <!-- Allpass Freq - Y: 105mm -->
  <path
     id="circle21"
     style="fill:#ff0000;stroke:#ffffff"
     d="m 68.700001,340 a 12,12 0 0 1 -12,12 12,12 0 0 1 -12,-12 12,12 0 0 1 12,-12 12,12 0 0 1 12,12 z" />
  <path
     d="m 43.572071,325 1.649414,-4.29492 H 45.83379 L 47.591602,325 h -0.647461 l -0.500976,-1.30078 H 44.647266 L 44.175587,325 Z m 1.239258,-1.76367 h 1.456055 l -0.448243,-1.18946 q -0.205078,-0.54199 -0.304687,-0.89062 -0.08203,0.41309 -0.231445,0.82031 z M 48.022266,325 v -4.29492 h 0.56836 v 3.78808 H 50.70586 V 325 Z m 3.336914,0 v -4.29492 h 0.56836 v 3.78808 h 2.115234 V 325 Z m 3.360352,0 v -4.29492 h 1.620117 q 0.427735,0 0.653321,0.041 0.316406,0.0527 0.530273,0.20215 0.213867,0.14649 0.342773,0.41309 0.131836,0.2666 0.131836,0.58594 0,0.54785 -0.348632,0.92871 -0.348633,0.37793 -1.259766,0.37793 H 55.287891 V 325 Z m 0.568359,-2.25293 h 1.110352 q 0.550781,0 0.782227,-0.20508 0.231445,-0.20508 0.231445,-0.57715 0,-0.26953 -0.137695,-0.45996 -0.134766,-0.19336 -0.357422,-0.25488 -0.143555,-0.0381 -0.530274,-0.0381 H 55.287891 Z M 57.804493,325 l 1.649414,-4.29492 h 0.612305 L 61.824024,325 h -0.647461 l -0.500976,-1.30078 H 58.879688 L 58.408009,325 Z m 1.239258,-1.76367 h 1.456054 l -0.448242,-1.18946 q -0.205078,-0.54199 -0.304687,-0.89062 -0.08203,0.41309 -0.231446,0.82031 z m 3.041015,0.38379 0.536133,-0.0469 q 0.03809,0.32227 0.175781,0.53028 0.140625,0.20507 0.433594,0.33398 0.292969,0.12598 0.65918,0.12598 0.325195,0 0.574219,-0.0967 0.249023,-0.0967 0.36914,-0.26368 0.123047,-0.16992 0.123047,-0.36914 0,-0.20214 -0.117187,-0.35156 -0.117188,-0.15234 -0.386719,-0.25488 -0.172852,-0.0674 -0.764649,-0.20801 -0.591796,-0.14355 -0.829101,-0.26953 -0.307617,-0.16113 -0.459961,-0.39844 -0.149414,-0.24023 -0.149414,-0.53613 0,-0.3252 0.18457,-0.60645 0.184571,-0.28418 0.539063,-0.43066 0.354492,-0.14648 0.788086,-0.14648 0.477539,0 0.84082,0.15527 0.366211,0.15234 0.5625,0.45117 0.196289,0.29883 0.210937,0.67676 l -0.544921,0.041 q -0.04395,-0.40722 -0.298829,-0.61523 -0.251953,-0.20801 -0.74707,-0.20801 -0.515625,0 -0.75293,0.19043 -0.234375,0.1875 -0.234375,0.4541 0,0.23145 0.166993,0.38086 0.164062,0.14942 0.855468,0.30762 0.694336,0.15527 0.952149,0.27246 0.375,0.17285 0.553711,0.43945 0.178711,0.26368 0.178711,0.60938 0,0.34277 -0.196289,0.64746 -0.196289,0.30176 -0.56543,0.47168 -0.366211,0.16699 -0.826172,0.16699 -0.583008,0 -0.978516,-0.16992 -0.392578,-0.16992 -0.618164,-0.50977 -0.222656,-0.34277 -0.234375,-0.77343 z m 4.001954,0 0.536132,-0.0469 q 0.03809,0.32227 0.175782,0.53028 0.140625,0.20507 0.433593,0.33398 0.292969,0.12598 0.65918,0.12598 0.325195,0 0.574219,-0.0967 0.249023,-0.0967 0.36914,-0.26368 0.123047,-0.16992 0.123047,-0.36914 0,-0.20214 -0.117187,-0.35156 -0.117188,-0.15234 -0.386719,-0.25488 -0.172852,-0.0674 -0.764648,-0.20801 -0.591797,-0.14355 -0.829102,-0.26953 -0.307617,-0.16113 -0.459961,-0.39844 -0.149414,-0.24023 -0.149414,-0.53613 0,-0.3252 0.18457,-0.60645 0.184571,-0.28418 0.539063,-0.43066 0.354492,-0.14648 0.788086,-0.14648 0.477539,0 0.84082,0.15527 0.366211,0.15234 0.5625,0.45117 0.196289,0.29883 0.210938,0.67676 l -0.544922,0.041 q -0.04395,-0.40722 -0.298828,-0.61523 -0.251954,-0.20801 -0.747071,-0.20801 -0.515625,0 -0.752929,0.19043 -0.234375,0.1875 -0.234375,0.4541 0,0.23145 0.166992,0.38086 0.164062,0.14942 0.855469,0.30762 0.694335,0.15527 0.952148,0.27246 0.375,0.17285 0.553711,0.43945 0.178711,0.26368 0.178711,0.60938 0,0.34277 -0.196289,0.64746 -0.196289,0.30176 -0.56543,0.47168 -0.366211,0.16699 -0.826172,0.16699 -0.583008,0 -0.978515,-0.16992 -0.392579,-0.16992 -0.618164,-0.50977 -0.222657,-0.34277 -0.234375,-0.77343 z"
     id="text22"
     style="font-size:6px;font-family:Arial, sans-serif;text-anchor:middle;fill:#66ffaa"
     aria-label="ALLPASS" />
  <!-- Mix & Width (small controls) -->
  <path
     id="circle22"
     style="fill:#ff0000;stroke:#ffffff"
     d="m 121.4,330 a 8,8 0 0 1 -8,8 8,8 0 0 1 -8,-8 8,8 0 0 1 8,-8 8,8 0 0 1 8,8 z" />
  <path
     d="m 109.32652,320 v -3.5791 h 0.71289 l 0.84716,2.53418 q 0.11719,0.354 0.1709,0.52978 0.061,-0.19531 0.19043,-0.57373 l 0.85694,-2.49023 h 0.6372 V 320 h -0.45654 v -2.99561 L 111.24546,320 h -0.42725 l -1.03515,-3.04688 V 320 Z m 4.26025,0 v -3.5791 h 0.47363 V 320 Z m 0.94482,0 1.38428,-1.86523 -1.2207,-1.71387 h 0.56396 l 0.64942,0.91797 q 0.20263,0.28564 0.28808,0.43945 0.11963,-0.19531 0.28321,-0.40771 l 0.72021,-0.94971 h 0.51514 l -1.25733,1.68701 1.35498,1.89209 h -0.58593 l -0.90088,-1.27686 q -0.0757,-0.10986 -0.15625,-0.23925 -0.11963,0.19531 -0.1709,0.26855 L 115.10044,320 Z"
     id="text23"
     style="font-size:5px;font-family:Arial, sans-serif;text-anchor:middle;fill:#88ffcc"
     aria-label="MIX" />
  <path
     id="circle23"
     style="fill:#ff0000;stroke:#ffffff"
     d="m 121.4,350 a 8,8 0 0 1 -8,8 8,8 0 0 1 -8,-8 8,8 0 0 1 8,-8 8,8 0 0 1 8,8 z" />
  <path
     d="m 106.21861,365 -0.94971,-3.5791 h 0.48584 l 0.54443,2.34619 q 0.0879,0.36865 0.15137,0.73242 0.13672,-0.57373 0.16113,-0.66162 l 0.68115,-2.41699 h 0.57129 l 0.5127,1.81152 q 0.19287,0.67383 0.27832,1.26709 0.0684,-0.33935 0.17822,-0.77881 l 0.56152,-2.2998 h 0.47608 L 108.8895,365 h -0.45654 l -0.75439,-2.72705 q -0.0952,-0.3418 -0.11231,-0.41992 -0.0562,0.24658 -0.10498,0.41992 L 106.702,365 Z m 4.1748,0 v -3.5791 h 0.47363 V 365 Z m 1.30859,0 v -3.5791 h 1.23291 q 0.41748,0 0.63721,0.0513 0.30762,0.0708 0.5249,0.25635 0.28321,0.23925 0.42237,0.61279 0.1416,0.37109 0.1416,0.84961 0,0.40771 -0.0952,0.72265 -0.0952,0.31495 -0.24414,0.52247 -0.14892,0.20507 -0.32715,0.3247 -0.17578,0.11719 -0.42724,0.17822 -0.24903,0.061 -0.57373,0.061 z m 0.47364,-0.42236 h 0.76416 q 0.354,0 0.5542,-0.0659 0.20263,-0.0659 0.32226,-0.18555 0.16846,-0.16846 0.26123,-0.45166 0.0952,-0.28564 0.0952,-0.69092 0,-0.56152 -0.18555,-0.86181 -0.18311,-0.30274 -0.44678,-0.40528 -0.19043,-0.0732 -0.61279,-0.0732 h -0.75195 z M 116.22349,365 v -3.15674 h -1.1792 v -0.42236 h 2.83691 v 0.42236 h -1.18408 V 365 Z m 2.1582,0 v -3.5791 h 0.47363 v 1.46972 h 1.86036 v -1.46972 h 0.47363 V 365 h -0.47363 v -1.68701 h -1.86036 V 365 Z"
     id="text24"
     style="font-size:5px;font-family:Arial, sans-serif;text-anchor:middle;fill:#ccff88"
     aria-label="WIDTH" />
  <!-- Phase Mod -->
  <path
     id="circle24"
     style="fill:#ff0000;stroke:#ffffff"
     d="m 182.10001,340 a 12,12 0 0 1 -12,12 12,12 0 0 1 -12,-12 12,12 0 0 1 12,-12 12,12 0 0 1 12,12 z" />
  <path
     d="m 160.39249,325 v -4.29492 h 1.62011 q 0.42774,0 0.65332,0.041 0.31641,0.0527 0.53028,0.20215 0.21386,0.14649 0.34277,0.41309 0.13184,0.2666 0.13184,0.58594 0,0.54785 -0.34864,0.92871 -0.34863,0.37793 -1.25976,0.37793 h -1.10156 V 325 Z m 0.56836,-2.25293 h 1.11035 q 0.55078,0 0.78222,-0.20508 0.23145,-0.20508 0.23145,-0.57715 0,-0.26953 -0.1377,-0.45996 -0.13476,-0.19336 -0.35742,-0.25488 -0.14355,-0.0381 -0.53027,-0.0381 h -1.09863 z M 164.41202,325 v -4.29492 h 0.56836 v 1.76367 h 2.23242 v -1.76367 h 0.56836 V 325 h -0.56836 v -2.02441 h -2.23242 V 325 Z m 3.84375,0 1.64941,-4.29492 h 0.61231 L 172.2753,325 h -0.64746 l -0.50098,-1.30078 h -1.7959 L 168.85928,325 Z m 1.23926,-1.76367 h 1.45605 l -0.44824,-1.18946 q -0.20508,-0.54199 -0.30469,-0.89062 -0.082,0.41309 -0.23144,0.82031 z m 3.04101,0.38379 0.53613,-0.0469 q 0.0381,0.32227 0.17579,0.53028 0.14062,0.20507 0.43359,0.33398 0.29297,0.12598 0.65918,0.12598 0.32519,0 0.57422,-0.0967 0.24902,-0.0967 0.36914,-0.26368 0.12305,-0.16992 0.12305,-0.36914 0,-0.20214 -0.11719,-0.35156 -0.11719,-0.15234 -0.38672,-0.25488 -0.17285,-0.0674 -0.76465,-0.20801 -0.5918,-0.14355 -0.8291,-0.26953 -0.30762,-0.16113 -0.45996,-0.39844 -0.14942,-0.24023 -0.14942,-0.53613 0,-0.3252 0.18457,-0.60645 0.18457,-0.28418 0.53907,-0.43066 0.35449,-0.14648 0.78808,-0.14648 0.47754,0 0.84082,0.15527 0.36621,0.15234 0.5625,0.45117 0.19629,0.29883 0.21094,0.67676 l -0.54492,0.041 q -0.0439,-0.40722 -0.29883,-0.61523 -0.25195,-0.20801 -0.74707,-0.20801 -0.51562,0 -0.75293,0.19043 -0.23437,0.1875 -0.23437,0.4541 0,0.23145 0.16699,0.38086 0.16406,0.14942 0.85547,0.30762 0.69433,0.15527 0.95214,0.27246 0.375,0.17285 0.55372,0.43945 0.17871,0.26368 0.17871,0.60938 0,0.34277 -0.19629,0.64746 -0.19629,0.30176 -0.56543,0.47168 -0.36621,0.16699 -0.82617,0.16699 -0.58301,0 -0.97852,-0.16992 -0.39258,-0.16992 -0.61816,-0.50977 -0.22266,-0.34277 -0.23438,-0.77343 z M 176.74307,325 v -4.29492 h 3.10547 v 0.50683 h -2.53711 v 1.31543 h 2.37598 v 0.50391 h -2.37598 v 1.46191 h 2.63672 V 325 Z"
     id="text25"
     style="font-size:6px;font-family:Arial, sans-serif;text-anchor:middle;fill:#ff66aa"
     aria-label="PHASE" />
  <!-- LFO Rate -->
  <path
     id="circle25"
     style="fill:#ff0000;stroke:#ffffff"
     d="m 234.8,340 a 8,8 0 0 1 -8,8 8,8 0 0 1 -8,-8 8,8 0 0 1 8,-8 8,8 0 0 1 8,8 z" />
  <path
     d="m 222.30415,325 v -3.5791 h 0.47364 v 3.15674 h 1.76269 V 325 Z m 2.82471,0 v -3.5791 h 2.41455 v 0.42236 h -1.94092 v 1.1084 h 1.67969 v 0.42236 h -1.67969 V 325 Z m 2.88574,-1.74316 q 0,-0.89112 0.47852,-1.39405 0.47851,-0.50537 1.23535,-0.50537 0.49561,0 0.89355,0.23682 0.39795,0.23681 0.60547,0.66162 0.20996,0.42236 0.20996,0.95947 0,0.54444 -0.21972,0.97412 -0.21973,0.42969 -0.62256,0.65186 -0.40283,0.21973 -0.86914,0.21973 -0.50537,0 -0.90332,-0.24415 -0.39795,-0.24414 -0.60303,-0.6665 -0.20508,-0.42236 -0.20508,-0.89355 z m 0.48828,0.007 q 0,0.64697 0.34668,1.02051 0.34912,0.37109 0.87403,0.37109 0.53467,0 0.8789,-0.37597 0.34668,-0.37598 0.34668,-1.0669 0,-0.43701 -0.14892,-0.76172 -0.14649,-0.32715 -0.43213,-0.50537 -0.2832,-0.18066 -0.63721,-0.18066 -0.50293,0 -0.8667,0.34668 -0.36133,0.34423 -0.36133,1.15234 z"
     id="text26"
     style="font-size:5px;font-family:Arial, sans-serif;text-anchor:middle;fill:#ffcc88"
     aria-label="LFO" />
  <!-- SPECIAL EFFECTS -->
  <!-- Chaos -->
  <path
     id="circle26"
     style="fill:#ff0000;stroke:#ffffff"
     d="m 87.599998,370 a 12,12 0 0 1 -12,12 12,12 0 0 1 -12,-12 12,12 0 0 1 12,-12 12,12 0 0 1 12,12 z" />
  <path
     id="circle27"
     style="fill:#ff00ff"
     d="m 73,365 a 3,3 0 0 1 -3,3 3,3 0 0 1 -3,-3 3,3 0 0 1 3,-3 3,3 0 0 1 3,3 z" />
  <path
     d="m 68.458885,353.49414 0.56836,0.14356 q -0.178711,0.70019 -0.644532,1.06933 -0.46289,0.36621 -1.133789,0.36621 -0.694336,0 -1.130859,-0.28125 -0.433594,-0.28418 -0.662109,-0.82031 -0.225586,-0.53613 -0.225586,-1.15137 0,-0.6709 0.254882,-1.16894 0.257813,-0.50098 0.729493,-0.75879 0.474609,-0.26074 1.042968,-0.26074 0.644532,0 1.083985,0.32812 0.439453,0.32813 0.612304,0.92285 l -0.55957,0.13184 q -0.149414,-0.46875 -0.433594,-0.68262 -0.284179,-0.21387 -0.714843,-0.21387 -0.495118,0 -0.829102,0.23731 -0.331055,0.2373 -0.46582,0.63867 -0.134766,0.39844 -0.134766,0.82324 0,0.54785 0.158203,0.95801 0.161133,0.40723 0.498047,0.60938 0.336914,0.20214 0.729492,0.20214 0.477539,0 0.808594,-0.27539 0.331055,-0.27539 0.448242,-0.81738 z M 69.745018,355 v -4.29492 h 0.568359 v 1.76367 h 2.232422 v -1.76367 h 0.56836 V 355 h -0.56836 v -2.02441 H 70.313377 V 355 Z m 3.84375,0 1.649414,-4.29492 h 0.612305 L 77.608299,355 h -0.647461 l -0.500976,-1.30078 H 74.663963 L 74.192284,355 Z m 1.239258,-1.76367 h 1.456055 l -0.448243,-1.18946 q -0.205078,-0.54199 -0.304687,-0.89062 -0.08203,0.41309 -0.231445,0.82031 z m 3.061523,-0.32813 q 0,-1.06933 0.574219,-1.67285 0.574219,-0.60644 1.482422,-0.60644 0.594726,0 1.072266,0.28418 0.477539,0.28418 0.726562,0.79394 0.251953,0.50684 0.251953,1.15137 0,0.65332 -0.263672,1.16894 -0.263672,0.51563 -0.74707,0.78223 -0.483398,0.26367 -1.042969,0.26367 -0.606445,0 -1.083984,-0.29297 -0.477539,-0.29297 -0.723633,-0.7998 -0.246094,-0.50684 -0.246094,-1.07227 z m 0.585938,0.009 q 0,0.77637 0.416015,1.22461 0.418946,0.44531 1.048829,0.44531 0.641601,0 1.054687,-0.45117 0.416016,-0.45117 0.416016,-1.28027 0,-0.52442 -0.178711,-0.91406 -0.175782,-0.39258 -0.518555,-0.60645 -0.339844,-0.2168 -0.764648,-0.2168 -0.603516,0 -1.040039,0.41602 -0.433594,0.41309 -0.433594,1.38281 z m 4.060547,0.70313 0.536132,-0.0469 q 0.03809,0.32227 0.175782,0.53028 0.140625,0.20507 0.433593,0.33398 0.292969,0.12598 0.65918,0.12598 0.325195,0 0.574219,-0.0967 0.249023,-0.0967 0.369141,-0.26368 0.123046,-0.16992 0.123046,-0.36914 0,-0.20214 -0.117187,-0.35156 -0.117188,-0.15234 -0.386719,-0.25488 -0.172851,-0.0674 -0.764648,-0.20801 -0.591797,-0.14355 -0.829102,-0.26953 -0.307617,-0.16113 -0.459961,-0.39844 -0.149414,-0.24023 -0.149414,-0.53613 0,-0.3252 0.18457,-0.60645 0.184571,-0.28418 0.539063,-0.43066 0.354492,-0.14648 0.788086,-0.14648 0.477539,0 0.84082,0.15527 0.366211,0.15234 0.5625,0.45117 0.196289,0.29883 0.210938,0.67676 l -0.544922,0.041 q -0.04394,-0.40722 -0.298828,-0.61523 -0.251953,-0.20801 -0.747071,-0.20801 -0.515625,0 -0.752929,0.19043 -0.234375,0.1875 -0.234375,0.4541 0,0.23145 0.166992,0.38086 0.164062,0.14942 0.855469,0.30762 0.694336,0.15527 0.952148,0.27246 0.375,0.17285 0.553711,0.43945 0.178711,0.26368 0.178711,0.60938 0,0.34277 -0.196289,0.64746 -0.196289,0.30176 -0.56543,0.47168 -0.366211,0.16699 -0.826172,0.16699 -0.583007,0 -0.978515,-0.16992 -0.392578,-0.16992 -0.618164,-0.50977 -0.222657,-0.34277 -0.234375,-0.77343 z"
     id="text27"
     style="font-size:6px;font-family:Arial, sans-serif;text-anchor:middle;fill:#ff6666"
     aria-label="CHAOS" />
  <!-- Shimmer -->
  <path
     id="circle28"
     style="fill:#ff0000;stroke:#ffffff"
     d="m 163.2,370 a 12,12 0 0 1 -12,12 12,12 0 0 1 -12,-12 12,12 0 0 1 12,-12 12,12 0 0 1 12,12 z" />
  <path
     id="circle29"
     style="fill:#ff00ff"
     d="m 148.60001,365 a 3,3 0 0 1 -3,3 3,3 0 0 1 -3,-3 3,3 0 0 1 3,-3 3,3 0 0 1 3,3 z" />
  <path
     d="m 137.30302,353.62012 0.53614,-0.0469 q 0.0381,0.32227 0.17578,0.53028 0.14062,0.20507 0.43359,0.33398 0.29297,0.12598 0.65918,0.12598 0.3252,0 0.57422,-0.0967 0.24902,-0.0967 0.36914,-0.26368 0.12305,-0.16992 0.12305,-0.36914 0,-0.20214 -0.11719,-0.35156 -0.11719,-0.15234 -0.38672,-0.25488 -0.17285,-0.0674 -0.76465,-0.20801 -0.59179,-0.14355 -0.8291,-0.26953 -0.30762,-0.16113 -0.45996,-0.39844 -0.14941,-0.24023 -0.14941,-0.53613 0,-0.3252 0.18457,-0.60645 0.18457,-0.28418 0.53906,-0.43066 0.35449,-0.14648 0.78809,-0.14648 0.47753,0 0.84082,0.15527 0.36621,0.15234 0.5625,0.45117 0.19628,0.29883 0.21093,0.67676 l -0.54492,0.041 q -0.0439,-0.40722 -0.29883,-0.61523 -0.25195,-0.20801 -0.74707,-0.20801 -0.51562,0 -0.75293,0.19043 -0.23437,0.1875 -0.23437,0.4541 0,0.23145 0.16699,0.38086 0.16406,0.14942 0.85547,0.30762 0.69434,0.15527 0.95215,0.27246 0.375,0.17285 0.55371,0.43945 0.17871,0.26368 0.17871,0.60938 0,0.34277 -0.19629,0.64746 -0.19629,0.30176 -0.56543,0.47168 -0.36621,0.16699 -0.82617,0.16699 -0.58301,0 -0.97852,-0.16992 -0.39257,-0.16992 -0.61816,-0.50977 -0.22266,-0.34277 -0.23438,-0.77343 z M 141.51591,355 v -4.29492 h 0.56836 v 1.76367 h 2.23243 v -1.76367 h 0.56836 V 355 h -0.56836 v -2.02441 h -2.23243 V 355 Z m 4.41211,0 v -4.29492 h 0.56836 V 355 Z m 1.55274,0 v -4.29492 h 0.85547 l 1.0166,3.04101 q 0.14062,0.42481 0.20508,0.63575 0.0732,-0.23438 0.22851,-0.68848 l 1.02832,-2.98828 h 0.76465 V 355 h -0.54785 v -3.59473 L 149.78349,355 h -0.51269 l -1.24219,-3.65625 V 355 Z m 4.99805,0 v -4.29492 h 0.85546 l 1.01661,3.04101 q 0.14062,0.42481 0.20507,0.63575 0.0733,-0.23438 0.22852,-0.68848 l 1.02832,-2.98828 h 0.76465 V 355 h -0.54785 v -3.59473 L 154.78154,355 h -0.5127 l -1.24218,-3.65625 V 355 Z m 5.02734,0 v -4.29492 h 3.10547 v 0.50683 h -2.53711 v 1.31543 h 2.37598 v 0.50391 h -2.37598 v 1.46191 h 2.63672 V 355 Z m 3.99902,0 v -4.29492 h 1.9043 q 0.57422,0 0.87305,0.11719 0.29882,0.11425 0.47754,0.40722 0.17871,0.29297 0.17871,0.64746 0,0.45703 -0.2959,0.77051 -0.2959,0.31348 -0.91406,0.39844 0.22558,0.1084 0.34277,0.21387 0.24902,0.22851 0.47168,0.57128 L 165.29033,355 h -0.71484 l -0.56836,-0.89355 q -0.24903,-0.38672 -0.41016,-0.5918 -0.16113,-0.20508 -0.29004,-0.28711 -0.12598,-0.082 -0.25781,-0.11426 -0.0967,-0.0205 -0.31641,-0.0205 h -0.65918 V 355 Z m 0.56836,-2.39941 h 1.22168 q 0.38965,0 0.60938,-0.0791 0.21972,-0.082 0.33398,-0.25781 0.11426,-0.17871 0.11426,-0.38672 0,-0.30468 -0.22266,-0.50097 -0.21972,-0.19629 -0.69726,-0.19629 h -1.35938 z"
     id="text29"
     style="font-size:6px;font-family:Arial, sans-serif;text-anchor:middle;fill:#6699ff"
     aria-label="SHIMMER" />
  <!-- Phase Invert -->
  <path
     id="circle30"
     style="fill:#ff0000;stroke:#ffffff"
     d="m 236.8,370 a 10,10 0 0 1 -10,10 10,10 0 0 1 -10,-10 10,10 0 0 1 10,-10 10,10 0 0 1 10,10 z" />
  <path
     id="circle31"
     style="fill:#ff00ff"
     d="m 224.8,365 a 3,3 0 0 1 -3,3 3,3 0 0 1 -3,-3 3,3 0 0 1 3,-3 3,3 0 0 1 3,3 z" />
  <path
     d="m 216.4128,355 v -4.29492 h 0.56836 V 355 Z m 1.56445,0 v -4.29492 h 0.58301 l 2.25586,3.37207 v -3.37207 h 0.54492 V 355 h -0.58301 l -2.25586,-3.375 V 355 Z m 5.56641,0 -1.66407,-4.29492 h 0.61524 l 1.11621,3.12012 q 0.13476,0.375 0.22558,0.70312 0.0996,-0.35156 0.23145,-0.70312 l 1.16016,-3.12012 h 0.58007 L 224.12666,355 Z m 2.78613,0 v -4.29492 h 3.10547 v 0.50683 h -2.53711 v 1.31543 h 2.37597 v 0.50391 h -2.37597 v 1.46191 h 2.63672 V 355 Z m 3.99902,0 v -4.29492 h 1.9043 q 0.57422,0 0.87305,0.11719 0.29882,0.11425 0.47753,0.40722 0.17872,0.29297 0.17872,0.64746 0,0.45703 -0.2959,0.77051 -0.2959,0.31348 -0.91407,0.39844 0.22559,0.1084 0.34278,0.21387 0.24902,0.22851 0.47168,0.57128 L 234.11397,355 h -0.71485 l -0.56836,-0.89355 q -0.24902,-0.38672 -0.41015,-0.5918 -0.16113,-0.20508 -0.29004,-0.28711 -0.12598,-0.082 -0.25781,-0.11426 -0.0967,-0.0205 -0.31641,-0.0205 h -0.65918 V 355 Z m 0.56836,-2.39941 h 1.22168 q 0.38965,0 0.60938,-0.0791 0.21972,-0.082 0.33398,-0.25781 0.11426,-0.17871 0.11426,-0.38672 0,-0.30468 -0.22266,-0.50097 -0.21972,-0.19629 -0.69726,-0.19629 h -1.35938 z M 235.63741,355 v -3.78809 h -1.41504 v -0.50683 h 3.40429 v 0.50683 h -1.4209 V 355 Z"
     id="text31"
     style="font-size:6px;font-family:Arial, sans-serif;text-anchor:middle;fill:#66ff66"
     aria-label="INVERT" />
  <!-- CV INPUTS - Right side (within panel width) -->
  <path
     d="m 203.71533,53.157715 0.98096,0.311035 q -0.22559,0.820312 -0.75195,1.220215 -0.52295,0.396484 -1.32959,0.396484 -0.99805,0 -1.64063,-0.680176 -0.64258,-0.683593 -0.64258,-1.866211 0,-1.250976 0.646,-1.941406 0.646,-0.693847 1.69873,-0.693847 0.91943,0 1.49365,0.543457 0.3418,0.321289 0.5127,0.922851 l -1.00147,0.239258 q -0.0889,-0.389648 -0.37256,-0.615234 -0.28027,-0.225586 -0.68359,-0.225586 -0.55713,0 -0.90576,0.399902 -0.34522,0.399902 -0.34522,1.29541 0,0.950195 0.3418,1.353516 0.3418,0.40332 0.88867,0.40332 0.40332,0 0.69385,-0.256348 0.29053,-0.256347 0.41699,-0.80664 z M 206.84277,55 205.05176,49.989258 h 1.09717 l 1.26806,3.708496 1.22705,-3.708496 h 1.07325 L 207.92285,55 Z"
     id="text32"
     style="font-weight:bold;font-size:7px;font-family:Arial, sans-serif;fill:#aaaaaa"
     aria-label="CV" />
  <path
     id="circle32"
     style="fill:#00ff00;stroke:#ffffff"
     d="m 251.7,75.599998 a 6,6 0 0 1 -6,6 6,6 0 0 1 -6,-6 6,6 0 0 1 6,-6 6,6 0 0 1 6,6 z" />
  <path
     d="m 222.93945,76.745117 0.47364,0.119629 q -0.14893,0.583496 -0.53711,0.891113 -0.38575,0.305176 -0.94483,0.305176 -0.57861,0 -0.94238,-0.234375 -0.36133,-0.236816 -0.55176,-0.683594 -0.18799,-0.446777 -0.18799,-0.959472 0,-0.559082 0.21241,-0.974121 0.21484,-0.417481 0.60791,-0.632325 0.3955,-0.217285 0.86914,-0.217285 0.53711,0 0.90332,0.273438 0.36621,0.273437 0.51025,0.769043 l -0.46631,0.109863 q -0.12451,-0.390625 -0.36133,-0.568848 -0.23681,-0.178222 -0.5957,-0.178222 -0.4126,0 -0.69092,0.197754 -0.27588,0.197754 -0.38818,0.532226 -0.11231,0.332031 -0.11231,0.686035 0,0.456543 0.13184,0.79834 0.13428,0.339356 0.41504,0.507813 0.28076,0.168457 0.60791,0.168457 0.39795,0 0.67383,-0.229492 0.27588,-0.229493 0.37353,-0.681153 z m 3.40576,-2.324219 h 0.47364 v 2.067872 q 0,0.53955 -0.12207,0.856933 -0.12207,0.317383 -0.4419,0.517578 -0.31738,0.197754 -0.83496,0.197754 -0.50293,0 -0.82275,-0.17334 -0.31983,-0.17334 -0.45655,-0.500488 -0.13671,-0.32959 -0.13671,-0.898437 v -2.067872 h 0.47363 v 2.06543 q 0,0.466309 0.0855,0.688477 0.0879,0.219726 0.29785,0.339355 0.2124,0.119629 0.51758,0.119629 0.52246,0 0.74463,-0.236816 0.22216,-0.236817 0.22216,-0.910645 z M 228.51807,78 v -3.156738 h -1.1792 v -0.422364 h 2.83691 v 0.422364 H 228.9917 V 78 Z m 2.77343,0 1.37452,-3.579102 h 0.51025 L 234.64111,78 h -0.53955 l -0.41748,-1.083984 H 232.1875 L 231.79443,78 Z m 1.03272,-1.469727 h 1.21338 l -0.37354,-0.991211 q -0.1709,-0.45166 -0.2539,-0.742187 -0.0684,0.344238 -0.19287,0.683594 z"
     id="text33"
     style="font-size:5px;font-family:Arial, sans-serif;fill:#888888"
     aria-label="CUT A" />
  <path
     id="circle33"
     style="fill:#00ff00;stroke:#ffffff"
     d="m 251.7,113.4 a 6,6 0 0 1 -6,6 6,6 0 0 1 -6,-6 6,6 0 0 1 6,-6 6,6 0 0 1 6,6 z" />
  <path
     d="m 220.39307,116 v -3.5791 h 1.58691 q 0.47852,0 0.72754,0.0977 0.24902,0.0952 0.39795,0.33936 0.14892,0.24414 0.14892,0.53955 0,0.38086 -0.24658,0.64209 -0.24658,0.26123 -0.76172,0.33203 0.18799,0.0903 0.28565,0.17822 0.20752,0.19043 0.39306,0.47608 L 223.54736,116 h -0.5957 l -0.47363,-0.74463 q -0.20752,-0.32226 -0.3418,-0.49316 -0.13428,-0.1709 -0.2417,-0.23926 -0.10498,-0.0684 -0.21484,-0.0952 -0.0806,-0.0171 -0.26367,-0.0171 H 220.8667 V 116 Z m 0.47363,-1.99951 h 1.01807 q 0.3247,0 0.50781,-0.0659 0.1831,-0.0684 0.27832,-0.21484 0.0952,-0.14893 0.0952,-0.32227 0,-0.25391 -0.18554,-0.41748 -0.18311,-0.16357 -0.58106,-0.16357 H 220.8667 Z M 224.00635,116 v -3.5791 h 2.58789 v 0.42236 h -2.11426 v 1.09619 h 1.97998 v 0.41993 h -1.97998 v 1.21826 h 2.19727 V 116 Z m 3.16406,-1.1499 0.44678,-0.0391 q 0.0317,0.26855 0.14648,0.44189 0.11719,0.1709 0.36133,0.27832 0.24414,0.10498 0.54932,0.10498 0.27099,0 0.47851,-0.0806 0.20752,-0.0806 0.30762,-0.21972 0.10254,-0.1416 0.10254,-0.30762 0,-0.16846 -0.0977,-0.29297 -0.0976,-0.12695 -0.32226,-0.2124 -0.14405,-0.0561 -0.63721,-0.17334 -0.49316,-0.11963 -0.69092,-0.22461 -0.25635,-0.13428 -0.3833,-0.33203 -0.12451,-0.2002 -0.12451,-0.44678 0,-0.27099 0.15381,-0.50537 0.15381,-0.23682 0.44922,-0.35889 0.29541,-0.12207 0.65673,-0.12207 0.39795,0 0.70069,0.1294 0.30517,0.12695 0.46875,0.37597 0.16357,0.24903 0.17578,0.56397 l -0.4541,0.0342 q -0.0366,-0.33936 -0.24903,-0.5127 -0.20996,-0.17334 -0.62255,-0.17334 -0.42969,0 -0.62745,0.1587 -0.19531,0.15625 -0.19531,0.37841 0,0.19287 0.13916,0.31739 0.13672,0.12451 0.71289,0.25634 0.57862,0.1294 0.79346,0.22705 0.3125,0.14405 0.46143,0.36622 0.14892,0.21972 0.14892,0.50781 0,0.28564 -0.16357,0.53955 -0.16358,0.25146 -0.47119,0.39307 -0.30518,0.13916 -0.68848,0.13916 -0.48584,0 -0.81543,-0.14161 -0.32715,-0.1416 -0.51514,-0.4248 -0.18554,-0.28565 -0.19531,-0.64453 z m 4.21631,1.1499 1.37451,-3.5791 h 0.51025 L 234.73633,116 h -0.53955 l -0.41748,-1.08398 h -1.49659 L 231.88965,116 Z m 1.03271,-1.46973 h 1.21338 l -0.37353,-0.99121 q -0.1709,-0.45166 -0.25391,-0.74218 -0.0684,0.34423 -0.19287,0.68359 z"
     id="text34"
     style="font-size:5px;font-family:Arial, sans-serif;fill:#888888"
     aria-label="RES A" />
  <path
     id="circle34"
     style="fill:#00ff00;stroke:#ffffff"
     d="m 251.7,151.2 a 6,6 0 0 1 -6,6 6,6 0 0 1 -6,-6 6,6 0 0 1 6,-6 6,6 0 0 1 6,6 z" />
  <path
     d="m 222.93945,152.74512 0.47364,0.11963 q -0.14893,0.58349 -0.53711,0.89111 -0.38575,0.30518 -0.94483,0.30518 -0.57861,0 -0.94238,-0.23438 -0.36133,-0.23682 -0.55176,-0.68359 -0.18799,-0.44678 -0.18799,-0.95948 0,-0.55908 0.21241,-0.97412 0.21484,-0.41748 0.60791,-0.63232 0.3955,-0.21729 0.86914,-0.21729 0.53711,0 0.90332,0.27344 0.36621,0.27344 0.51025,0.76904 l -0.46631,0.10987 q -0.12451,-0.39063 -0.36133,-0.56885 -0.23681,-0.17822 -0.5957,-0.17822 -0.4126,0 -0.69092,0.19775 -0.27588,0.19775 -0.38818,0.53223 -0.11231,0.33203 -0.11231,0.68603 0,0.45655 0.13184,0.79834 0.13428,0.33936 0.41504,0.50781 0.28076,0.16846 0.60791,0.16846 0.39795,0 0.67383,-0.22949 0.27588,-0.22949 0.37353,-0.68115 z m 3.40576,-2.32422 h 0.47364 v 2.06787 q 0,0.53955 -0.12207,0.85693 -0.12207,0.31739 -0.4419,0.51758 -0.31738,0.19776 -0.83496,0.19776 -0.50293,0 -0.82275,-0.17334 -0.31983,-0.17334 -0.45655,-0.50049 -0.13671,-0.32959 -0.13671,-0.89844 v -2.06787 h 0.47363 v 2.06543 q 0,0.46631 0.0855,0.68847 0.0879,0.21973 0.29785,0.33936 0.2124,0.11963 0.51758,0.11963 0.52246,0 0.74463,-0.23682 0.22216,-0.23681 0.22216,-0.91064 z M 228.51807,154 v -3.15674 h -1.1792 v -0.42236 h 2.83691 v 0.42236 H 228.9917 V 154 Z m 3.42285,0 v -3.5791 h 1.34277 q 0.41016,0 0.65674,0.10986 0.24902,0.10742 0.38818,0.33447 0.1416,0.22461 0.1416,0.4712 0,0.22949 -0.12451,0.43212 -0.12451,0.20264 -0.37597,0.32715 0.3247,0.0952 0.49804,0.32471 0.17578,0.22949 0.17578,0.54199 0,0.25147 -0.10742,0.46875 -0.10498,0.21485 -0.26123,0.33203 -0.15625,0.11719 -0.39306,0.17823 Q 233.64746,154 233.30566,154 Z m 0.47363,-2.0752 h 0.77393 q 0.31494,0 0.45166,-0.0415 0.18066,-0.0537 0.27099,-0.17822 0.0928,-0.12451 0.0928,-0.3125 0,-0.17822 -0.0854,-0.3125 -0.0855,-0.13672 -0.24414,-0.18555 -0.1587,-0.0513 -0.54444,-0.0513 h -0.71533 z m 0,1.65284 h 0.89111 q 0.2295,0 0.32227,-0.0171 0.16357,-0.0293 0.27344,-0.0977 0.10986,-0.0684 0.18066,-0.19775 0.0708,-0.13184 0.0708,-0.30274 0,-0.20019 -0.10254,-0.34668 -0.10254,-0.14892 -0.28564,-0.20752 -0.18067,-0.061 -0.52246,-0.061 h -0.82764 z"
     id="text35"
     style="font-size:5px;font-family:Arial, sans-serif;fill:#888888"
     aria-label="CUT B" />
  <path
     id="circle35"
     style="fill:#00ff00;stroke:#ffffff"
     d="m 251.7,189 a 6,6 0 0 1 -6,6 6,6 0 0 1 -6,-6 6,6 0 0 1 6,-6 6,6 0 0 1 6,6 z" />
  <path
     d="m 220.39307,192 v -3.5791 h 1.58691 q 0.47852,0 0.72754,0.0977 0.24902,0.0952 0.39795,0.33936 0.14892,0.24414 0.14892,0.53955 0,0.38086 -0.24658,0.64209 -0.24658,0.26123 -0.76172,0.33203 0.18799,0.0903 0.28565,0.17822 0.20752,0.19043 0.39306,0.47608 L 223.54736,192 h -0.5957 l -0.47363,-0.74463 q -0.20752,-0.32226 -0.3418,-0.49316 -0.13428,-0.1709 -0.2417,-0.23926 -0.10498,-0.0684 -0.21484,-0.0952 -0.0806,-0.0171 -0.26367,-0.0171 H 220.8667 V 192 Z m 0.47363,-1.99951 h 1.01807 q 0.3247,0 0.50781,-0.0659 0.1831,-0.0684 0.27832,-0.21484 0.0952,-0.14893 0.0952,-0.32227 0,-0.25391 -0.18554,-0.41748 -0.18311,-0.16357 -0.58106,-0.16357 H 220.8667 Z M 224.00635,192 v -3.5791 h 2.58789 v 0.42236 h -2.11426 v 1.09619 h 1.97998 v 0.41992 h -1.97998 v 1.21827 h 2.19727 V 192 Z m 3.16406,-1.1499 0.44678,-0.0391 q 0.0317,0.26855 0.14648,0.44189 0.11719,0.1709 0.36133,0.27832 0.24414,0.10498 0.54932,0.10498 0.27099,0 0.47851,-0.0806 0.20752,-0.0806 0.30762,-0.21972 0.10254,-0.1416 0.10254,-0.30762 0,-0.16846 -0.0977,-0.29297 -0.0976,-0.12695 -0.32226,-0.2124 -0.14405,-0.0562 -0.63721,-0.17334 -0.49316,-0.11963 -0.69092,-0.22461 -0.25635,-0.13428 -0.3833,-0.33203 -0.12451,-0.2002 -0.12451,-0.44678 0,-0.27099 0.15381,-0.50537 0.15381,-0.23682 0.44922,-0.35889 0.29541,-0.12207 0.65673,-0.12207 0.39795,0 0.70069,0.1294 0.30517,0.12695 0.46875,0.37597 0.16357,0.24903 0.17578,0.56397 l -0.4541,0.0342 q -0.0366,-0.33936 -0.24903,-0.5127 -0.20996,-0.17334 -0.62255,-0.17334 -0.42969,0 -0.62745,0.1587 -0.19531,0.15625 -0.19531,0.37841 0,0.19287 0.13916,0.31739 0.13672,0.12451 0.71289,0.25634 0.57862,0.1294 0.79346,0.22705 0.3125,0.14405 0.46143,0.36622 0.14892,0.21972 0.14892,0.50781 0,0.28564 -0.16357,0.53955 -0.16358,0.25146 -0.47119,0.39306 -0.30518,0.13917 -0.68848,0.13917 -0.48584,0 -0.81543,-0.14161 -0.32715,-0.1416 -0.51514,-0.4248 -0.18554,-0.28565 -0.19531,-0.64453 z M 232.03613,192 v -3.5791 h 1.34278 q 0.41015,0 0.65673,0.10986 0.24903,0.10742 0.38819,0.33447 0.1416,0.22461 0.1416,0.4712 0,0.22949 -0.12451,0.43212 -0.12451,0.20264 -0.37598,0.32715 0.32471,0.0952 0.49805,0.32471 0.17578,0.22949 0.17578,0.54199 0,0.25147 -0.10742,0.46875 -0.10498,0.21485 -0.26123,0.33203 -0.15625,0.11719 -0.39307,0.17823 Q 233.74268,192 233.40088,192 Z m 0.47364,-2.0752 h 0.77392 q 0.31494,0 0.45166,-0.0415 0.18067,-0.0537 0.271,-0.17822 0.0928,-0.12451 0.0928,-0.3125 0,-0.17822 -0.0855,-0.3125 -0.0854,-0.13672 -0.24414,-0.18555 -0.15869,-0.0513 -0.54443,-0.0513 h -0.71533 z m 0,1.65284 h 0.89111 q 0.22949,0 0.32226,-0.0171 0.16358,-0.0293 0.27344,-0.0977 0.10987,-0.0684 0.18067,-0.19775 0.0708,-0.13184 0.0708,-0.30274 0,-0.20019 -0.10254,-0.34668 -0.10254,-0.14892 -0.28565,-0.20752 -0.18066,-0.061 -0.52246,-0.061 h -0.82763 z"
     id="text36"
     style="font-size:5px;font-family:Arial, sans-serif;fill:#888888"
     aria-label="RES B" />
  <path
     id="circle36"
     style="fill:#00ff00;stroke:#ffffff"
     d="m 251.7,264.60001 a 6,6 0 0 1 -6,6 6,6 0 0 1 -6,-6 6,6 0 0 1 6,-6 6,6 0 0 1 6,6 z" />
  <path
     d="m 210.38574,267 v -3.5791 h 1.3501 q 0.35645,0 0.54443,0.0342 0.26368,0.0439 0.4419,0.16846 0.17822,0.12207 0.28564,0.34423 0.10987,0.22217 0.10987,0.48828 0,0.45655 -0.29053,0.77393 -0.29053,0.31494 -1.04981,0.31494 h -0.91797 V 267 Z m 0.47363,-1.87744 h 0.9253 q 0.45898,0 0.65185,-0.1709 0.19287,-0.1709 0.19287,-0.48096 0,-0.22461 -0.11474,-0.3833 -0.11231,-0.16113 -0.29785,-0.2124 -0.11963,-0.0317 -0.4419,-0.0317 h -0.91553 z M 213.73535,267 v -3.5791 h 0.47363 v 1.46972 h 1.86036 v -1.46972 h 0.47363 V 267 h -0.47363 v -1.68701 h -1.86036 V 267 Z m 3.20313,0 1.37451,-3.5791 h 0.51025 L 220.28809,267 h -0.53955 l -0.41749,-1.08398 h -1.49658 L 217.44141,267 Z m 1.03271,-1.46973 h 1.21338 l -0.37353,-0.99121 q -0.1709,-0.45166 -0.25391,-0.74219 -0.0684,0.34424 -0.19287,0.6836 z m 2.53418,0.31983 0.44678,-0.0391 q 0.0317,0.26855 0.14648,0.44189 0.11719,0.1709 0.36133,0.27832 0.24414,0.10498 0.54932,0.10498 0.27099,0 0.47851,-0.0806 0.20752,-0.0806 0.30762,-0.21972 0.10254,-0.1416 0.10254,-0.30762 0,-0.16846 -0.0977,-0.29297 -0.0976,-0.12695 -0.32226,-0.2124 -0.14405,-0.0562 -0.63721,-0.17334 -0.49316,-0.11963 -0.69092,-0.22461 -0.25635,-0.13428 -0.3833,-0.33203 -0.12451,-0.2002 -0.12451,-0.44678 0,-0.27099 0.15381,-0.50537 0.15381,-0.23682 0.44922,-0.35889 0.29541,-0.12207 0.65674,-0.12207 0.39794,0 0.70068,0.1294 0.30517,0.12695 0.46875,0.37597 0.16357,0.24903 0.17578,0.56397 l -0.4541,0.0342 q -0.0366,-0.33936 -0.24902,-0.5127 -0.20997,-0.17334 -0.62256,-0.17334 -0.42969,0 -0.62744,0.1587 -0.19532,0.15625 -0.19532,0.37841 0,0.19287 0.13916,0.31739 0.13672,0.12451 0.71289,0.25634 0.57862,0.1294 0.79346,0.22705 0.3125,0.14405 0.46143,0.36622 0.14892,0.21972 0.14892,0.50781 0,0.28564 -0.16357,0.53955 -0.16358,0.25146 -0.47119,0.39306 -0.30518,0.13917 -0.68848,0.13917 -0.48584,0 -0.81543,-0.14161 -0.32715,-0.1416 -0.51514,-0.4248 -0.18554,-0.28565 -0.19531,-0.64453 z M 224.01123,267 v -3.5791 h 2.58789 v 0.42236 h -2.11426 v 1.09619 h 1.97998 v 0.41992 h -1.97998 v 1.21827 h 2.19727 V 267 Z"
     id="text37"
     style="font-size:5px;font-family:Arial, sans-serif;fill:#ff88cc"
     aria-label="PHASE" />
  <path
     id="circle37"
     style="fill:#00ff00;stroke:#ffffff"
     d="m 251.7,340.20001 a 6,6 0 0 1 -6,6 6,6 0 0 1 -6,-6 6,6 0 0 1 6,-6 6,6 0 0 1 6,6 z" />
  <path
     d="m 222.93945,341.74512 0.47364,0.11963 q -0.14893,0.58349 -0.53711,0.89111 -0.38575,0.30518 -0.94483,0.30518 -0.57861,0 -0.94238,-0.23438 -0.36133,-0.23682 -0.55176,-0.68359 -0.18799,-0.44678 -0.18799,-0.95948 0,-0.55908 0.21241,-0.97412 0.21484,-0.41748 0.60791,-0.63232 0.3955,-0.21729 0.86914,-0.21729 0.53711,0 0.90332,0.27344 0.36621,0.27344 0.51025,0.76904 l -0.46631,0.10987 q -0.12451,-0.39063 -0.36133,-0.56885 -0.23681,-0.17822 -0.5957,-0.17822 -0.4126,0 -0.69092,0.19775 -0.27588,0.19775 -0.38818,0.53223 -0.11231,0.33203 -0.11231,0.68603 0,0.45655 0.13184,0.79834 0.13428,0.33936 0.41504,0.50781 0.28076,0.16846 0.60791,0.16846 0.39795,0 0.67383,-0.22949 0.27588,-0.22949 0.37353,-0.68115 z M 224.01123,343 v -3.5791 h 0.47363 v 1.46972 h 1.86035 v -1.46972 h 0.47364 V 343 h -0.47364 v -1.68701 h -1.86035 V 343 Z m 3.20313,0 1.37451,-3.5791 h 0.51025 L 230.56396,343 h -0.53955 l -0.41748,-1.08398 h -1.49658 L 227.71729,343 Z m 1.03271,-1.46973 h 1.21338 l -0.37354,-0.99121 q -0.17089,-0.45166 -0.2539,-0.74219 -0.0684,0.34424 -0.19287,0.6836 z m 2.55127,-0.27343 q 0,-0.89112 0.47852,-1.39405 0.47851,-0.50537 1.23535,-0.50537 0.4956,0 0.89355,0.23682 0.39795,0.23681 0.60547,0.66162 0.20996,0.42236 0.20996,0.95947 0,0.54444 -0.21973,0.97412 -0.21972,0.42969 -0.62255,0.65186 -0.40284,0.21973 -0.86914,0.21973 -0.50538,0 -0.90332,-0.24415 -0.39795,-0.24414 -0.60303,-0.6665 -0.20508,-0.42236 -0.20508,-0.89355 z m 0.48828,0.007 q 0,0.64697 0.34668,1.02051 0.34912,0.37109 0.87402,0.37109 0.53467,0 0.87891,-0.37597 0.34668,-0.37598 0.34668,-1.0669 0,-0.43701 -0.14893,-0.76172 -0.14648,-0.32715 -0.43212,-0.50537 -0.28321,-0.18066 -0.63721,-0.18066 -0.50293,0 -0.8667,0.34668 -0.36133,0.34423 -0.36133,1.15234 z m 3.38379,0.58594 0.44678,-0.0391 q 0.0317,0.26855 0.14648,0.44189 0.11719,0.1709 0.36133,0.27832 0.24414,0.10498 0.54932,0.10498 0.27099,0 0.47851,-0.0806 0.20752,-0.0806 0.30762,-0.21972 0.10254,-0.1416 0.10254,-0.30762 0,-0.16846 -0.0977,-0.29297 -0.0976,-0.12695 -0.32226,-0.2124 -0.14405,-0.0562 -0.63721,-0.17334 -0.49316,-0.11963 -0.69092,-0.22461 -0.25635,-0.13428 -0.3833,-0.33203 -0.12451,-0.2002 -0.12451,-0.44678 0,-0.27099 0.15381,-0.50537 0.15381,-0.23682 0.44922,-0.35889 0.29541,-0.12207 0.65673,-0.12207 0.39795,0 0.70069,0.1294 0.30517,0.12695 0.46875,0.37597 0.16357,0.24903 0.17578,0.56397 l -0.4541,0.0342 q -0.0366,-0.33936 -0.24903,-0.5127 -0.20996,-0.17334 -0.62255,-0.17334 -0.42969,0 -0.62745,0.1587 -0.19531,0.15625 -0.19531,0.37841 0,0.19287 0.13916,0.31739 0.13672,0.12451 0.71289,0.25634 0.57862,0.1294 0.79346,0.22705 0.3125,0.14405 0.46143,0.36622 0.14892,0.21972 0.14892,0.50781 0,0.28564 -0.16357,0.53955 -0.16358,0.25146 -0.47119,0.39306 -0.30518,0.13917 -0.68848,0.13917 -0.48584,0 -0.81543,-0.14161 -0.32715,-0.1416 -0.51514,-0.4248 -0.18554,-0.28565 -0.19531,-0.64453 z"
     id="text38"
     style="font-size:5px;font-family:Arial, sans-serif;fill:#ff6666"
     aria-label="CHAOS" />
  <!-- AUDIO I/O - Left side to avoid overlap with other controls -->
  <path
     id="circle38"
     style="fill:#00ff00;stroke:#ffffff;stroke-width:2"
     d="m 26.9,298.62 a 8,8 0 0 1 -8,8 8,8 0 0 1 -8,-8 8,8 0 0 1 8,-8 8,8 0 0 1 8,8 z" />
  <path
     d="m 13.790625,288 v -4.29492 h 0.568359 V 288 Z m 1.564453,0 v -4.29492 h 0.583008 l 2.255859,3.37207 v -3.37207 h 0.544922 V 288 H 18.155859 L 15.9,284.625 V 288 Z m 5.203125,0 1.649414,-4.29492 h 0.612304 L 24.577734,288 h -0.647461 l -0.500977,-1.30078 H 21.633398 L 21.161718,288 Z m 1.239258,-1.76367 h 1.456054 l -0.448242,-1.18946 q -0.205078,-0.54199 -0.304687,-0.89062 -0.08203,0.41309 -0.231446,0.82031 z"
     id="text39"
     style="font-size:6px;font-family:Arial, sans-serif;text-anchor:middle;fill:#66cc66"
     aria-label="IN A" />
  <path
     id="circle39"
     style="fill:#00ff00;stroke:#ffffff;stroke-width:2"
     d="m 57.139999,298.62 a 8,8 0 0 1 -8,8 8,8 0 0 1 -8,-8 8,8 0 0 1 8,-8 8,8 0 0 1 8,8 z" />
  <path
     d="m 43.865097,288 v -4.29492 h 0.568359 V 288 Z m 1.564453,0 v -4.29492 h 0.583008 l 2.255859,3.37207 v -3.37207 h 0.544922 V 288 h -0.583008 l -2.255859,-3.375 V 288 Z m 5.982422,0 v -4.29492 H 53.0233 q 0.492188,0 0.788086,0.13183 0.298828,0.12891 0.46582,0.40137 0.169922,0.26953 0.169922,0.56543 0,0.27539 -0.149414,0.51856 -0.149414,0.24316 -0.451172,0.39257 0.389649,0.11426 0.597657,0.38965 0.210937,0.27539 0.210937,0.65039 0,0.30176 -0.128906,0.5625 -0.125977,0.25782 -0.313477,0.39844 -0.1875,0.14063 -0.471679,0.21387 Q 53.459824,288 53.049667,288 Z m 0.568359,-2.49023 h 0.928711 q 0.37793,0 0.541993,-0.0498 0.216796,-0.0645 0.325195,-0.21387 0.111328,-0.14941 0.111328,-0.375 0,-0.21386 -0.102539,-0.375 -0.102539,-0.16406 -0.292969,-0.22265 -0.19043,-0.0615 -0.65332,-0.0615 h -0.858399 z m 0,1.98339 h 1.069336 q 0.275391,0 0.386719,-0.0205 0.196289,-0.0352 0.328125,-0.11719 0.131836,-0.082 0.216797,-0.23731 0.08496,-0.1582 0.08496,-0.36328 0,-0.24023 -0.123047,-0.41601 -0.123047,-0.17871 -0.342773,-0.24903 -0.216797,-0.0732 -0.626954,-0.0732 h -0.993164 z"
     id="text40"
     style="font-size:6px;font-family:Arial, sans-serif;text-anchor:middle;fill:#66cc66"
     aria-label="IN B" />
  <path
     id="circle40"
     style="fill:#0000ff;stroke:#ffffff;stroke-width:2"
     d="m 87.379997,298.62 a 8,8 0 0 1 -8,8 8,8 0 0 1 -8,-8 8,8 0 0 1 8,-8 8,8 0 0 1 8,8 z" />
  <path
     d="m 70.722771,285.9082 q 0,-1.06933 0.574218,-1.67285 0.574219,-0.60644 1.482422,-0.60644 0.594727,0 1.072266,0.28418 0.477539,0.28418 0.726562,0.79394 0.251954,0.50684 0.251954,1.15137 0,0.65332 -0.263672,1.16894 -0.263672,0.51563 -0.747071,0.78223 -0.483398,0.26367 -1.042968,0.26367 -0.606446,0 -1.083985,-0.29297 -0.477539,-0.29297 -0.723633,-0.7998 -0.246093,-0.50684 -0.246093,-1.07227 z m 0.585937,0.009 q 0,0.77637 0.416016,1.22461 0.418945,0.44531 1.048828,0.44531 0.641602,0 1.054687,-0.45117 0.416016,-0.45117 0.416016,-1.28027 0,-0.52442 -0.178711,-0.91406 -0.175781,-0.39258 -0.518555,-0.60645 -0.339843,-0.2168 -0.764648,-0.2168 -0.603516,0 -1.040039,0.41602 -0.433594,0.41309 -0.433594,1.38281 z m 7.072266,-2.21191 h 0.568359 v 2.48144 q 0,0.64746 -0.146484,1.02832 -0.146485,0.38086 -0.530274,0.6211 -0.380859,0.2373 -1.001953,0.2373 -0.603515,0 -0.987304,-0.20801 -0.383789,-0.208 -0.547852,-0.60058 -0.164062,-0.39551 -0.164062,-1.07813 v -2.48144 h 0.568359 v 2.47851 q 0,0.55957 0.102539,0.82618 0.105469,0.26367 0.357422,0.40722 0.254883,0.14356 0.621094,0.14356 0.626953,0 0.893554,-0.28418 0.266602,-0.28418 0.266602,-1.09278 z M 80.988396,288 v -3.78809 h -1.415039 v -0.50683 h 3.404297 v 0.50683 H 81.556755 V 288 Z m 3.328125,0 1.649414,-4.29492 h 0.612304 L 88.336052,288 h -0.647461 l -0.500977,-1.30078 H 85.391716 L 84.920036,288 Z m 1.239258,-1.76367 h 1.456054 l -0.448242,-1.18946 q -0.205078,-0.54199 -0.304687,-0.89062 -0.08203,0.41309 -0.231446,0.82031 z"
     id="text41"
     style="font-size:6px;font-family:Arial, sans-serif;text-anchor:middle;fill:#6666cc"
     aria-label="OUT A" />
  <path
     id="circle41"
     style="fill:#0000ff;stroke:#ffffff;stroke-width:2"
     d="m 117.62,298.62 a 8,8 0 0 1 -8,8 8,8 0 0 1 -8,-8 8,8 0 0 1 8,-8 8,8 0 0 1 8,8 z" />
  <path
     d="m 100.79725,285.9082 q 0,-1.06933 0.57422,-1.67285 0.57422,-0.60644 1.48242,-0.60644 0.59473,0 1.07227,0.28418 0.47753,0.28418 0.72656,0.79394 0.25195,0.50684 0.25195,1.15137 0,0.65332 -0.26367,1.16894 -0.26367,0.51563 -0.74707,0.78223 -0.4834,0.26367 -1.04297,0.26367 -0.60645,0 -1.08398,-0.29297 -0.47754,-0.29297 -0.72364,-0.7998 -0.24609,-0.50684 -0.24609,-1.07227 z m 0.58594,0.009 q 0,0.77637 0.41601,1.22461 0.41895,0.44531 1.04883,0.44531 0.6416,0 1.05469,-0.45117 0.41601,-0.45117 0.41601,-1.28027 0,-0.52442 -0.17871,-0.91406 -0.17578,-0.39258 -0.51855,-0.60645 -0.33985,-0.2168 -0.76465,-0.2168 -0.60352,0 -1.04004,0.41602 -0.43359,0.41309 -0.43359,1.38281 z m 7.07226,-2.21191 h 0.56836 v 2.48144 q 0,0.64746 -0.14648,1.02832 -0.14649,0.38086 -0.53028,0.6211 -0.38086,0.2373 -1.00195,0.2373 -0.60352,0 -0.9873,-0.20801 -0.38379,-0.208 -0.54786,-0.60058 -0.16406,-0.39551 -0.16406,-1.07813 v -2.48144 h 0.56836 v 2.47851 q 0,0.55957 0.10254,0.82618 0.10547,0.26367 0.35742,0.40722 0.25488,0.14356 0.6211,0.14356 0.62695,0 0.89355,-0.28418 0.2666,-0.28418 0.2666,-1.09278 z M 111.06287,288 v -3.78809 h -1.41504 v -0.50683 h 3.4043 v 0.50683 h -1.4209 V 288 Z m 4.10743,0 v -4.29492 h 1.61132 q 0.49219,0 0.78809,0.13183 0.29883,0.12891 0.46582,0.40137 0.16992,0.26953 0.16992,0.56543 0,0.27539 -0.14941,0.51856 -0.14942,0.24316 -0.45117,0.39257 0.38964,0.11426 0.59765,0.38965 0.21094,0.27539 0.21094,0.65039 0,0.30176 -0.12891,0.5625 -0.12597,0.25782 -0.31347,0.39844 -0.1875,0.14063 -0.47168,0.21387 Q 117.21815,288 116.80799,288 Z m 0.56836,-2.49023 h 0.92871 q 0.37793,0 0.54199,-0.0498 0.2168,-0.0645 0.32519,-0.21387 0.11133,-0.14941 0.11133,-0.375 0,-0.21386 -0.10254,-0.375 -0.10254,-0.16406 -0.29297,-0.22265 -0.19043,-0.0615 -0.65332,-0.0615 h -0.85839 z m 0,1.98339 h 1.06933 q 0.27539,0 0.38672,-0.0205 0.19629,-0.0352 0.32812,-0.11719 0.13184,-0.082 0.2168,-0.23731 0.085,-0.1582 0.085,-0.36328 0,-0.24023 -0.12304,-0.41601 -0.12305,-0.17871 -0.34278,-0.24903 -0.21679,-0.0732 -0.62695,-0.0732 h -0.99316 z"
     id="text42"
     style="font-size:6px;font-family:Arial, sans-serif;text-anchor:middle;fill:#6666cc"
     aria-label="OUT B" />
  <!-- Module HP marking -->
  <path
     d="m 256.73096,190 h -0.52735 v -3.36035 q -0.19043,0.18164 -0.50097,0.36328 -0.30762,0.18164 -0.55371,0.27246 v -0.50977 q 0.44238,-0.208 0.77343,-0.5039 0.33106,-0.2959 0.46875,-0.57422 h 0.33985 z m 2.16211,-2.3291 q -0.32813,-0.12012 -0.48633,-0.34278 -0.1582,-0.22265 -0.1582,-0.5332 0,-0.46875 0.33691,-0.78808 0.33691,-0.31934 0.89648,-0.31934 0.5625,0 0.90528,0.32812 0.34277,0.3252 0.34277,0.79395 0,0.29883 -0.1582,0.52148 -0.15528,0.21973 -0.47461,0.33985 0.39551,0.1289 0.60058,0.41601 0.20801,0.28711 0.20801,0.68555 0,0.55078 -0.38965,0.92578 -0.38965,0.375 -1.02539,0.375 -0.63574,0 -1.02539,-0.375 -0.38965,-0.37793 -0.38965,-0.94043 0,-0.41894 0.21094,-0.70019 0.21387,-0.28418 0.60645,-0.38672 z m -0.10547,-0.89356 q 0,0.30469 0.19629,0.49805 0.19629,0.19336 0.50976,0.19336 0.30469,0 0.49805,-0.19043 0.19629,-0.19336 0.19629,-0.47168 0,-0.29004 -0.20215,-0.48633 -0.19922,-0.19922 -0.49805,-0.19922 -0.30175,0 -0.50097,0.19336 -0.19922,0.19336 -0.19922,0.46289 z m -0.16992,1.9834 q 0,0.22559 0.10546,0.43653 0.1084,0.21093 0.31934,0.32812 0.21094,0.11426 0.4541,0.11426 0.37793,0 0.62403,-0.24317 0.24609,-0.24316 0.24609,-0.61816 0,-0.38086 -0.25488,-0.62988 -0.25196,-0.24903 -0.63282,-0.24903 -0.37207,0 -0.61816,0.2461 -0.24316,0.24609 -0.24316,0.61523 z M 261.6499,190 v -4.29492 h 0.56836 v 1.76367 h 2.23242 v -1.76367 h 0.56836 V 190 h -0.56836 v -2.02441 h -2.23242 V 190 Z m 4.31543,0 v -4.29492 h 1.62012 q 0.42773,0 0.65332,0.041 0.31641,0.0527 0.53027,0.20215 0.21387,0.14649 0.34278,0.41309 0.13183,0.2666 0.13183,0.58594 0,0.54785 -0.34863,0.92871 -0.34863,0.37793 -1.25977,0.37793 h -1.10156 V 190 Z m 0.56836,-2.25293 h 1.11035 q 0.55078,0 0.78223,-0.20508 0.23144,-0.20508 0.23144,-0.57715 0,-0.26953 -0.13769,-0.45996 -0.13477,-0.19336 -0.35742,-0.25488 -0.14356,-0.0381 -0.53028,-0.0381 h -1.09863 z"
     id="text43"
     style="font-size:6px;font-family:Arial, sans-serif;text-anchor:middle;fill:#555555"
     transform="rotate(90 262 190)"
     aria-label="18HP" />
</svg>
