<?xml version="1.0" encoding="UTF-8" standalone="no"?>
<svg
   width="91.44mm"
   height="128.5mm"
   viewBox="0 0 91.44 128.5"
   version="1.1"
   id="svg43"
   xml:space="preserve"
   sodipodi:docname="Involution.svg"
   inkscape:version="1.4.2 (ebf0e940, 2025-05-08)"
   xmlns:inkscape="http://www.inkscape.org/namespaces/inkscape"
   xmlns:sodipodi="http://sodipodi.sourceforge.net/DTD/sodipodi-0.dtd"
   xmlns="http://www.w3.org/2000/svg"
   xmlns:svg="http://www.w3.org/2000/svg"><sodipodi:namedview
     id="namedview1"
     pagecolor="#505050"
     bordercolor="#eeeeee"
     borderopacity="1"
     inkscape:showpageshadow="0"
     inkscape:pageopacity="0"
     inkscape:pagecheckerboard="0"
     inkscape:deskcolor="#505050"
     inkscape:zoom="1.6276656"
     inkscape:cx="99.221855"
     inkscape:cy="180.31959"
     inkscape:window-width="1800"
     inkscape:window-height="1097"
     inkscape:window-x="0"
     inkscape:window-y="44"
     inkscape:window-maximized="1"
     inkscape:current-layer="svg43"
     inkscape:document-units="mm" /><defs
     id="defs3" /><!-- Dark panel background --><circle
     style="display:none;fill:#ffff00;fill-opacity:1;stroke:#ffffff;stroke-width:0"
     id="oscope_screen"
     cx="45.72"
     cy="52.1"
     r="8" /><!-- SHAPETAKER brand --><!-- INVOLUTION module title --><!-- Control position circles for reference (normally hidden) --><!-- Main Filter Section --><circle
     style="display:none;fill:#ff0000;fill-opacity:1;stroke:#ffffff;stroke-width:0"
     id="cutoff_a"
     cx="22.0"
     cy="30.1"
     r="18" /><circle
     style="display:none;fill:#ff0000;fill-opacity:1;stroke:#ffffff;stroke-width:0"
     id="resonance_a"
     cx="11.0"
     cy="49.6"
     r="14" /><circle
     style="display:none;fill:#ff0000;fill-opacity:1;stroke:#ffffff;stroke-width:0"
     id="cutoff_b"
     cx="69.44"
     cy="30.1"
     r="18" /><circle
     style="display:none;fill:#ff0000;fill-opacity:1;stroke:#ffffff;stroke-width:0"
     id="resonance_b"
     cx="80.44"
     cy="49.6"
     r="14" /><!-- Link Switches --><circle
     style="display:none;fill:#ffff00;fill-opacity:1;stroke:#ffffff;stroke-width:0"
     id="link_cutoff"
     cx="22.0"
     cy="63.2"
     r="4" /><circle
     style="display:none;fill:#ffff00;fill-opacity:1;stroke:#ffffff;stroke-width:0"
     id="link_resonance"
     cx="69.44"
     cy="63.2"
     r="4" /><!-- Character Controls --><circle
     style="display:none;fill:#ff0000;fill-opacity:1;stroke:#ffffff;stroke-width:0"
     id="highpass_cutoff"
     cx="11.0"
     cy="74.9"
     r="12" /><circle
     style="display:none;fill:#ff0000;fill-opacity:1;stroke:#ffffff;stroke-width:0"
     id="filter_morph"
     cx="45.72"
     cy="88.7"
     r="12" /><!-- Magical Effects --><circle
     style="display:none;fill:#ff0000;fill-opacity:1;stroke:#ffffff;stroke-width:0"
     id="cross_feedback"
     cx="80.44"
     cy="74.9"
     r="12" /><!-- Stereo & Phase Section --><!-- Special Effects with Lights --><circle
     style="display:none;fill:#ff0000;fill-opacity:1;stroke:#ffffff;stroke-width:0"
     id="chaos_amount"
     cx="19.0"
     cy="93.8"
     r="12" /><circle
     style="display:none;fill:#ff0000;fill-opacity:1;stroke:#ffffff;stroke-width:0"
     id="chaos_rate"
     cx="28.0"
     cy="82.2"
     r="8" /><circle
     style="display:none;fill:#ff00ff;fill-opacity:1;stroke:#ffffff;stroke-width:0"
     id="chaos_light"
     cx="23.0"
     cy="102.3"
     r="3" /><circle
     style="display:none;fill:#ff0000;fill-opacity:1;stroke:#ffffff;stroke-width:0"
     id="shimmer_amount"
     cx="72.44"
     cy="93.8"
     r="12" /><circle
     style="display:none;fill:#ff0000;fill-opacity:1;stroke:#ffffff;stroke-width:0"
     id="shimmer_rate"
     cx="63.44"
     cy="82.2"
     r="8" /><circle
     style="display:none;fill:#ff00ff;fill-opacity:1;stroke:#ffffff;stroke-width:0"
     id="shimmer_light"
     cx="68.44"
     cy="102.3"
     r="3" /><!-- CV Inputs --><circle
     style="display:none;fill:#00ff00;fill-opacity:1;stroke:#ffffff;stroke-width:0"
     id="cutoff_a_cv"
     cx="22.0"
     cy="42.4"
     r="6" /><circle
     style="display:none;fill:#00ff00;fill-opacity:1;stroke:#ffffff;stroke-width:0"
     id="resonance_a_cv"
     cx="11.0"
     cy="63.2"
     r="6" /><circle
     style="display:none;fill:#00ff00;fill-opacity:1;stroke:#ffffff;stroke-width:0"
     id="cutoff_b_cv"
     cx="69.44"
     cy="42.4"
     r="6" /><circle
     style="display:none;fill:#00ff00;fill-opacity:1;stroke:#ffffff;stroke-width:0"
     id="resonance_b_cv"
     cx="80.44"
     cy="63.2"
     r="6" /><circle
     style="display:none;fill:#00ff00;fill-opacity:1;stroke:#ffffff;stroke-width:0"
     id="chaos_cv"
     cx="8.0"
     cy="93.8"
     r="6" /><circle
     style="display:none;fill:#00ff00;fill-opacity:1;stroke:#ffffff;stroke-width:0"
     id="shimmer_cv"
     cx="83.44"
     cy="93.8"
     r="6" /><!-- Audio I/O --><circle
     style="display:none;fill:#00ff00;fill-opacity:1;stroke:#ffffff;stroke-width:0"
     id="audio_a_input"
     cx="23.0"
     cy="115.4"
     r="6" /><circle
     style="display:none;fill:#00ff00;fill-opacity:1;stroke:#ffffff;stroke-width:0"
     id="audio_b_input"
     cx="11.0"
     cy="115.4"
     r="6" /><circle
     style="display:none;fill:#ff0000;fill-opacity:1;stroke:#ffffff;stroke-width:0"
     id="audio_a_output"
     cx="80.44"
     cy="115.4"
     r="6" /><circle
     style="display:none;fill:#ff0000;fill-opacity:1;stroke:#ffffff;stroke-width:0"
     id="audio_b_output"
     cx="68.44"
     cy="115.4"
     r="6" /><path
     d="m 20.9,4.0 v 4.8 h -0.72 v -4.8 z m 1.15,4.8 V 3.5 L 25.6,8.2 V 4.0 h 0.72 V 10.4 L 22.8,5.8 v 3.4 z m 5.6,-4.8 1.3,3.3 1.34,-3.3 h 0.79 L 29.0,10.5 26.9,4.0 Z m 3.6,2.4 q 0,-1.0 0.74,-1.7 0.74,-0.7 1.77,-0.7 1.02,0 1.75,0.73 0.73,0.73 0.73,1.75 0,1.03 -0.74,1.75 -0.74,0.72 -1.78,0.72 -0.92,0 -1.66,-0.64 -0.81,-0.71 -0.81,-1.86 z m 0.73,0.01 q 0,0.8 0.53,1.3 0.53,0.51 1.22,0.51 0.75,0 1.27,-0.52 0.52,-0.53 0.52,-1.28 0,-0.76 -0.51,-1.28 -0.51,-0.52 -1.26,-0.52 -0.74,0 -1.26,0.52 -0.51,0.51 -0.51,1.27 z m 5.9,-2.4 v 4.1 h 1.4 v 0.68 h -2.12 v -4.8 z m 2.66,0 v 2.9 q 0,0.62 0.2,0.9 0.3,0.41 0.84,0.41 0.55,0 0.85,-0.41 0.2,-0.28 0.2,-0.9 V 4.0 h 0.72 v 3.1 q 0,0.76 -0.47,1.24 -0.53,0.55 -1.30,0.55 -0.77,0 -1.29,-0.55 -0.47,-0.49 -0.47,-1.24 V 4.0 Z m 5.3,0.68 V 10.0 h -0.72 V 4.68 h -1.1 v -0.68 h 2.92 v 0.68 z m 2.46,-0.68 v 4.8 h -0.72 V 4.0 Z m 0.91,2.4 q 0,-1.0 0.74,-1.7 0.74,-0.7 1.77,-0.7 1.02,0 1.75,0.73 0.73,0.73 0.73,1.75 0,1.03 -0.74,1.75 -0.74,0.72 -1.78,0.72 -0.92,0 -1.66,-0.64 -0.81,-0.71 -0.81,-1.86 z m 0.73,0.01 q 0,0.8 0.53,1.3 0.53,0.51 1.22,0.51 0.75,0 1.27,-0.52 0.52,-0.53 0.52,-1.28 0,-0.76 -0.51,-1.28 -0.51,-0.52 -1.26,-0.52 -0.74,0 -1.26,0.52 -0.51,0.51 -0.51,1.27 z m 5.2,2.4 V 3.5 l 3.48,3.65 V 4.0 h 0.72 V 10.4 L 61.8,5.8 v 3.4 z"
     id="text1"
     style="font-weight:500;font-size:6.3px;font-family:Futura;-inkscape-font-specification:'Futura, Medium';fill:#ffffff;fill-rule:evenodd;stroke:#0f0f0f;stroke-width:0"
     aria-label="INVOLUTION" /><path
     id="rect2"
     style="fill:#ffffff;fill-rule:evenodd;stroke:#0f0f0f;stroke-width:0"
     d="m 6.0,13.0 h 79.44 v 0.19 H 6.0 Z" /></svg>
