<?xml version="1.0" encoding="UTF-8" standalone="no"?>
<svg
   width="270"
   height="380"
   viewBox="0 0 270 380"
   version="1.1"
   id="svg43"
   xmlns="http://www.w3.org/2000/svg"
   xmlns:svg="http://www.w3.org/2000/svg">
  <defs
     id="defs3" />
  <!-- Dark panel background -->
  <rect
     width="270"
     height="380"
     fill="#1a1a1a"
     stroke="#0a0a0a"
     stroke-width="1"
     id="rect1"
     x="0"
     y="0"
     style="display:inline" />
  <!-- SHAPETAKER brand -->
  <path
     d="m 38.513218,30.687462 v 0.792969 q -0.371094,-0.265625 -0.667969,-0.265625 -0.320312,0 -0.523437,0.226562 -0.203125,0.214844 -0.203125,0.574219 0,0.316406 0.144531,0.542969 0.07422,0.121093 0.242187,0.3125 0.171875,0.191406 0.441407,0.460937 0.496093,0.503906 0.675781,0.871094 0.179687,0.355469 0.179687,0.871094 0,0.699218 -0.394531,1.152343 -0.394531,0.441407 -1.011719,0.441407 -0.519531,0 -0.886718,-0.285157 v -0.804687 q 0.433593,0.316406 0.789062,0.316406 0.332031,0 0.519531,-0.21875 0.1875,-0.222656 0.1875,-0.601562 0,-0.328125 -0.144531,-0.589844 -0.07422,-0.125 -0.207031,-0.285156 -0.132813,-0.164063 -0.332031,-0.363282 -0.308594,-0.304687 -0.511719,-0.539062 -0.203125,-0.234375 -0.300781,-0.410156 -0.1875,-0.34375 -0.1875,-0.867188 0,-0.707031 0.367187,-1.121094 0.371094,-0.417968 0.996094,-0.417968 0.433594,0 0.828125,0.207031 z m 0.972656,-0.125 h 0.8125 v 2.359375 h 1.191406 v -2.359375 h 0.8125 v 6.03125 h -0.8125 v -2.984375 h -1.191406 v 2.984375 h -0.8125 z m 4.605469,0 h 0.632812 l 1.292969,6.03125 h -0.804687 l -0.226563,-1.175781 h -1.195312 l -0.230469,1.175781 h -0.78125 z m 0.777344,4.226562 -0.179688,-0.960937 q -0.179687,-0.980469 -0.292969,-2.09375 -0.05469,0.542969 -0.140625,1.101562 -0.08594,0.554688 -0.203125,1.179688 l -0.148437,0.773437 z m 1.625,-4.226562 h 1.070312 q 0.773438,0 1.125,0.390625 0.351563,0.394531 0.351563,1.25 0,1.203125 -0.707032,1.554687 -0.355468,0.160157 -1.027343,0.160157 v 2.675781 h -0.8125 z m 0.8125,2.660156 q 0.503906,0 0.695312,-0.203125 0.195313,-0.207031 0.195313,-0.734375 0,-0.539062 -0.1875,-0.789062 -0.1875,-0.25 -0.589844,-0.25 h -0.113281 z m 2.359375,-2.660156 h 2.160156 v 0.6875 h -1.347656 v 1.910156 h 1.195312 v 0.6875 h -1.195312 v 2.058594 h 1.347656 v 0.6875 h -2.160156 z m 2.425781,0 h 2.644531 v 0.710937 h -0.910156 v 5.320313 h -0.796875 v -5.320313 h -0.9375 z m 3.839844,0 h 0.632812 l 1.292969,6.03125 H 57.05228 l -0.226562,-1.175781 h -1.195313 l -0.230468,1.175781 h -0.78125 z m 0.777343,4.226562 -0.179687,-0.960937 q -0.179688,-0.980469 -0.292969,-2.09375 -0.05469,0.542969 -0.140625,1.101562 -0.08594,0.554688 -0.203125,1.179688 l -0.148437,0.773437 z m 1.625,-4.226562 h 0.8125 v 2.921875 l 1.132813,-2.921875 h 0.820312 l -1.1875,2.921875 1.28125,3.109375 H 60.278843 L 59.14603,33.484337 v 3.109375 h -0.8125 z m 3.367188,0 h 2.160156 v 0.6875 h -1.347656 v 1.910156 h 1.195312 v 0.6875 h -1.195312 v 2.058594 h 1.347656 v 0.6875 h -2.160156 z m 2.90625,0 h 1.070312 q 0.664063,0 0.988282,0.316406 0.410156,0.410156 0.410156,1.253906 0,0.648438 -0.21875,1.042969 -0.214844,0.390625 -0.617188,0.484375 l 1.109375,2.933594 h -0.824218 l -1.105469,-2.953125 v 2.953125 h -0.8125 z m 0.8125,2.671875 q 0.472656,0 0.667969,-0.21875 0.195312,-0.21875 0.195312,-0.738281 0,-0.28125 -0.04297,-0.480469 -0.03906,-0.199219 -0.128906,-0.324219 -0.08594,-0.125 -0.226562,-0.183594 -0.136719,-0.05859 -0.328125,-0.05859 h -0.136719 z"
     id="text1"
     style="font-weight:500;font-stretch:condensed;font-size:8px;font-family:Futura;-inkscape-font-specification:'Futura, Medium Condensed';opacity:0.85;fill-opacity:0.996516;fill-rule:evenodd;stroke:#505050;stroke-width:0.103363;fill:#ffffff"
     transform="scale(0.98388204,1.016382)"
     aria-label="SHAPETAKER" />
  <!-- INVOLUTION module title -->
  <path
     d="m 129.83398,25.734375 v -5.9375 h 0.86133 v 5.9375 z m 2.83008,0 v -5.9375 h 0.80274 l 3.0957,4.019531 v -4.019531 h 0.78515 v 5.9375 h -0.85156 l -3.10547,-4.09375 v 4.09375 z m 8.02734,0 -1.90234,-5.9375 h 0.9668 l 1.4375,4.570312 1.375,-4.570312 h 0.9375 l -1.64844,5.9375 z m 3.79492,-2.734375 q 0,-1.5 0.70703,-2.417969 0.54688,-1.089843 1.57617,-1.351562 0.65234,-0.167969 1.38672,-0.167969 1.47656,0 2.32031,0.878906 0.85156,0.878907 0.85156,2.41211 0,1.52539 -0.83203,2.40234 -0.83203,0.88672 -2.3418,0.88672 -1.48828,0 -2.32812,-0.85938 -0.83985,-0.86718 -0.83985,-2.58203 z m 0.85156,0.05859 q 0,1.125 0.48828,1.71484 0.48828,0.58985 1.22852,0.58985 0.76172,0 1.24609,-0.60156 0.48438,-0.60937 0.48438,-1.69922 0,-1.12109 -0.47461,-1.69531 -0.47461,-0.58203 -1.25586,-0.58203 -0.77344,0 -1.23437,0.60547 -0.46094,0.60547 -0.46094,1.66796 z m 6.49218,2.675782 v -5.9375 h 0.85938 v 4.921875 h 2.64844 v 1.015625 z m 4.44336,-5.9375 h 0.85938 v 3.175781 q 0,0.753906 0.043,0.976562 0.084,0.359375 0.35742,0.578125 0.28516,0.214844 0.77734,0.214844 0.50391,0 0.75586,-0.207031 0.25781,-0.207031 0.30469,-0.503906 0.0527,-0.300781 0.0527,-0.996094 v -3.238281 h 0.85937 v 3.074219 q 0,1.050781 -0.0957,1.488281 -0.0957,0.4375 -0.35351,0.734375 -0.25781,0.296875 -0.68555,0.480469 -0.42773,0.175781 -1.12109,0.175781 -0.83594,0 -1.24805,-0.1875 -0.41015,-0.1875 -0.66796,-0.492187 -0.25782,-0.304688 -0.33204,-0.640625 -0.1132,-0.503907 -0.1132,-1.457032 z m 6.83399,5.9375 v -4.921875 h -1.72266 v -1.015625 h 4.30469 v 1.015625 h -1.72266 v 4.921875 z m 3.40625,0 v -5.9375 h 0.85938 v 5.9375 z m 2.69727,-2.734375 q 0,-1.5 0.70703,-2.417969 0.54687,-1.089843 1.57617,-1.351562 0.65234,-0.167969 1.38672,-0.167969 1.47656,0 2.32031,0.878906 0.85156,0.878907 0.85156,2.41211 0,1.52539 -0.83203,2.40234 -0.83203,0.88672 -2.3418,0.88672 -1.48828,0 -2.32812,-0.85938 -0.83985,-0.86718 -0.83985,-2.58203 z m 0.85156,0.05859 q 0,1.125 0.48828,1.71484 0.48828,0.58985 1.22852,0.58985 0.76172,0 1.24609,-0.60156 0.48438,-0.60937 0.48438,-1.69922 0,-1.12109 -0.47461,-1.69531 -0.47461,-0.58203 -1.25586,-0.58203 -0.77344,0 -1.23437,0.60547 -0.46094,0.60547 -0.46094,1.66796 z m 6.49219,2.675782 v -5.9375 h 0.79688 l 3.09374,4.019531 v -4.019531 h 0.78516 v 5.9375 h -0.85156 l -3.10547,-4.09375 v 4.09375 z"
     id="text4"
     style="font-weight:500;font-size:14px;font-family:Futura, 'Futura PT', 'Century Gothic', 'Avant Garde', sans-serif;letter-spacing:1.5px;text-anchor:middle;fill:#e8e8e8"
     aria-label="INVOLUTION" />
  
  <!-- Control position circles for reference (normally hidden) -->
  <!-- Main Filter Section -->
  <circle style="display:none;fill:#ff0000;fill-opacity:1;stroke:#ffffff;stroke-width:0" id="cutoff_a" cx="75.599998" cy="94.5" r="18" />
  <circle style="display:none;fill:#ff0000;fill-opacity:1;stroke:#ffffff;stroke-width:0" id="resonance_a" cx="151.2" cy="94.5" r="14" />
  <circle style="display:none;fill:#ff0000;fill-opacity:1;stroke:#ffffff;stroke-width:0" id="cutoff_b" cx="75.599998" cy="170.10001" r="18" />
  <circle style="display:none;fill:#ff0000;fill-opacity:1;stroke:#ffffff;stroke-width:0" id="resonance_b" cx="151.2" cy="170.10001" r="14" />
  
  <!-- Character Controls -->
  <circle style="display:none;fill:#ff0000;fill-opacity:1;stroke:#ffffff;stroke-width:0" id="highpass_cutoff" cx="56.7" cy="220" r="12" />
  <circle style="display:none;fill:#ff0000;fill-opacity:1;stroke:#ffffff;stroke-width:0" id="filter_morph" cx="132.3" cy="220" r="12" />
  <circle style="display:none;fill:#ff0000;fill-opacity:1;stroke:#ffffff;stroke-width:0" id="resonance_drive" cx="207.9" cy="220" r="12" />
  
  <!-- Magical Effects -->
  <circle style="display:none;fill:#ff0000;fill-opacity:1;stroke:#ffffff;stroke-width:0" id="cross_feedback" cx="56.7" cy="275" r="12" />
  <circle style="display:none;fill:#ff0000;fill-opacity:1;stroke:#ffffff;stroke-width:0" id="envelope_follow" cx="132.3" cy="275" r="12" />
  <circle style="display:none;fill:#ff0000;fill-opacity:1;stroke:#ffffff;stroke-width:0" id="harmonic_exciter" cx="207.9" cy="275" r="12" />
  
  <!-- Stereo & Phase Section -->
  <circle style="display:none;fill:#ff0000;fill-opacity:1;stroke:#ffffff;stroke-width:0" id="allpass_freq" cx="56.7" cy="340" r="12" />
  <circle style="display:none;fill:#ff0000;fill-opacity:1;stroke:#ffffff;stroke-width:0" id="allpass_mix" cx="113.4" cy="325" r="8" />
  <circle style="display:none;fill:#ff0000;fill-opacity:1;stroke:#ffffff;stroke-width:0" id="stereo_width" cx="113.4" cy="355" r="8" />
  <circle style="display:none;fill:#ff0000;fill-opacity:1;stroke:#ffffff;stroke-width:0" id="phase_mod_depth" cx="170.1" cy="340" r="12" />
  <circle style="display:none;fill:#ff0000;fill-opacity:1;stroke:#ffffff;stroke-width:0" id="internal_lfo_rate" cx="226.8" cy="340" r="8" />
  
  <!-- Special Effects with Lights -->
  <circle style="display:none;fill:#ff0000;fill-opacity:1;stroke:#ffffff;stroke-width:0" id="chaos_amount" cx="75.6" cy="370" r="12" />
  <circle style="display:none;fill:#ff00ff;fill-opacity:1;stroke:#ffffff;stroke-width:0" id="chaos_light" cx="70" cy="365" r="3" />
  <circle style="display:none;fill:#ff0000;fill-opacity:1;stroke:#ffffff;stroke-width:0" id="shimmer_amount" cx="151.2" cy="370" r="12" />
  <circle style="display:none;fill:#ff00ff;fill-opacity:1;stroke:#ffffff;stroke-width:0" id="shimmer_light" cx="145.6" cy="365" r="3" />
  <circle style="display:none;fill:#ff0000;fill-opacity:1;stroke:#ffffff;stroke-width:0" id="phase_invert" cx="226.8" cy="370" r="12" />
  <circle style="display:none;fill:#00ff00;fill-opacity:1;stroke:#ffffff;stroke-width:0" id="phase_invert_light" cx="221.2" cy="365" r="3" />

  <!-- CV Inputs -->
  <circle style="display:none;fill:#00ff00;fill-opacity:1;stroke:#ffffff;stroke-width:0" id="cutoff_a_cv" cx="245.4" cy="75.6" r="6" />
  <circle style="display:none;fill:#00ff00;fill-opacity:1;stroke:#ffffff;stroke-width:0" id="resonance_a_cv" cx="245.4" cy="113.4" r="6" />
  <circle style="display:none;fill:#00ff00;fill-opacity:1;stroke:#ffffff;stroke-width:0" id="cutoff_b_cv" cx="245.4" cy="151.2" r="6" />
  <circle style="display:none;fill:#00ff00;fill-opacity:1;stroke:#ffffff;stroke-width:0" id="resonance_b_cv" cx="245.4" cy="189" r="6" />
  <circle style="display:none;fill:#00ff00;fill-opacity:1;stroke:#ffffff;stroke-width:0" id="phase_mod_cv" cx="245.4" cy="264.6" r="6" />
  <circle style="display:none;fill:#00ff00;fill-opacity:1;stroke:#ffffff;stroke-width:0" id="chaos_cv" cx="245.4" cy="340.2" r="6" />

  <!-- Audio I/O -->
  <circle style="display:none;fill:#00ff00;fill-opacity:1;stroke:#ffffff;stroke-width:0" id="audio_a_input" cx="18.9" cy="299.34" r="6" />
  <circle style="display:none;fill:#00ff00;fill-opacity:1;stroke:#ffffff;stroke-width:0" id="audio_b_input" cx="49.14" cy="299.34" r="6" />
  <circle style="display:none;fill:#ff0000;fill-opacity:1;stroke:#ffffff;stroke-width:0" id="audio_a_output" cx="79.38" cy="299.34" r="6" />
  <circle style="display:none;fill:#ff0000;fill-opacity:1;stroke:#ffffff;stroke-width:0" id="audio_b_output" cx="109.62" cy="299.34" r="6" />
</svg>