<?xml version="1.0" encoding="UTF-8" standalone="no"?>
<svg
   width="270"
   height="380"
   viewBox="0 0 270 380"
   version="1.1"
   id="svg43"
   xml:space="preserve"
   xmlns="http://www.w3.org/2000/svg"
   xmlns:svg="http://www.w3.org/2000/svg"><defs
     id="defs3" /><!-- Dark panel background --><rect
     width="270"
     height="380"
     fill="#1a1a1a"
     stroke="#0a0a0a"
     stroke-width="1"
     id="rect1"
     x="0.5"
     y="-0.5"
     style="display:inline" /><circle
     style="display:inline;fill:#ffff00;fill-opacity:1;stroke:#ffffff;stroke-width:0"
     id="oscope_screen"
     cx="143.7392"
     cy="206.57312"
     r="4" /><!-- SHAPETAKER brand --><!-- INVOLUTION module title --><!-- Control position circles for reference (normally hidden) --><!-- Main Filter Section --><circle
     style="display:inline;fill:#ff0000;fill-opacity:1;stroke:#ffffff;stroke-width:0"
     id="cutoff_a"
     cx="55.066338"
     cy="76.52359"
     r="18" /><circle
     style="display:inline;fill:#ff0000;fill-opacity:1;stroke:#ffffff;stroke-width:0"
     id="resonance_a"
     cx="143.7392"
     cy="76.52359"
     r="14" /><circle
     style="display:inline;fill:#ff0000;fill-opacity:1;stroke:#ffffff;stroke-width:0"
     id="cutoff_b"
     cx="55.066338"
     cy="148.54836"
     r="18" /><circle
     style="display:inline;fill:#ff0000;fill-opacity:1;stroke:#ffffff;stroke-width:0"
     id="resonance_b"
     cx="143.7392"
     cy="148.54836"
     r="14" /><!-- Link Switches --><circle
     style="display:inline;fill:#ffff00;fill-opacity:1;stroke:#ffffff;stroke-width:0"
     id="link_cutoff"
     cx="206.13919"
     cy="76.14698"
     r="4" /><circle
     style="display:inline;fill:#ffff00;fill-opacity:1;stroke:#ffffff;stroke-width:0"
     id="link_resonance"
     cx="206.13919"
     cy="148.54836"
     r="4" /><!-- Character Controls --><circle
     style="display:inline;fill:#ff0000;fill-opacity:1;stroke:#ffffff;stroke-width:0"
     id="highpass_cutoff"
     cx="55.066338"
     cy="206.57312"
     r="12" /><circle
     style="display:inline;fill:#ff0000;fill-opacity:1;stroke:#ffffff;stroke-width:0"
     id="filter_morph"
     cx="228.13919"
     cy="111.54836"
     r="12" /><!-- Magical Effects --><circle
     style="display:inline;fill:#ff0000;fill-opacity:1;stroke:#ffffff;stroke-width:0"
     id="cross_feedback"
     cx="222.13919"
     cy="206.57312"
     r="12" /><!-- Stereo & Phase Section --><!-- Special Effects with Lights --><circle
     style="display:inline;fill:#ff0000;fill-opacity:1;stroke:#ffffff;stroke-width:0"
     id="chaos_amount"
     cx="97.052765"
     cy="261.71121"
     r="12" /><circle
     style="display:inline;fill:#ff0000;fill-opacity:1;stroke:#ffffff;stroke-width:0"
     id="chaos_rate"
     cx="97.052765"
     cy="225.55661"
     r="8" /><circle
     style="display:inline;fill:#ff00ff;fill-opacity:1;stroke:#ffffff;stroke-width:0"
     id="chaos_light"
     cx="97.052765"
     cy="289.63123"
     r="3" /><circle
     style="display:inline;fill:#ff0000;fill-opacity:1;stroke:#ffffff;stroke-width:0"
     id="shimmer_amount"
     cx="191.69171"
     cy="261.71121"
     r="12" /><circle
     style="display:inline;fill:#ff0000;fill-opacity:1;stroke:#ffffff;stroke-width:0"
     id="shimmer_rate"
     cx="188.69171"
     cy="225.55661"
     r="8" /><circle
     style="display:inline;fill:#ff00ff;fill-opacity:1;stroke:#ffffff;stroke-width:0"
     id="shimmer_light"
     cx="191.69171"
     cy="286.63123"
     r="3" /><!-- CV Inputs --><circle
     style="display:inline;fill:#00ff00;fill-opacity:1;stroke:#ffffff;stroke-width:0"
     id="cutoff_a_cv"
     cx="101.40276"
     cy="76.52359"
     r="6" /><circle
     style="display:inline;fill:#00ff00;fill-opacity:1;stroke:#ffffff;stroke-width:0"
     id="resonance_a_cv"
     cx="186.07562"
     cy="76.52359"
     r="6" /><circle
     style="display:inline;fill:#00ff00;fill-opacity:1;stroke:#ffffff;stroke-width:0"
     id="cutoff_b_cv"
     cx="101.40276"
     cy="148.54836"
     r="6" /><circle
     style="display:inline;fill:#00ff00;fill-opacity:1;stroke:#ffffff;stroke-width:0"
     id="resonance_b_cv"
     cx="186.07562"
     cy="148.54836"
     r="6" /><circle
     style="display:inline;fill:#00ff00;fill-opacity:1;stroke:#ffffff;stroke-width:0"
     id="chaos_cv"
     cx="55.066338"
     cy="261.71121"
     r="6" /><circle
     style="display:inline;fill:#00ff00;fill-opacity:1;stroke:#ffffff;stroke-width:0"
     id="shimmer_cv"
     cx="222.13919"
     cy="261.71121"
     r="6" /><!-- Audio I/O --><circle
     style="display:inline;fill:#00ff00;fill-opacity:1;stroke:#ffffff;stroke-width:0"
     id="audio_a_input"
     cx="89.259193"
     cy="328.47842"
     r="6" /><circle
     style="display:inline;fill:#00ff00;fill-opacity:1;stroke:#ffffff;stroke-width:0"
     id="audio_b_input"
     cx="47.189194"
     cy="328.47842"
     r="6" /><circle
     style="display:inline;fill:#ff0000;fill-opacity:1;stroke:#ffffff;stroke-width:0"
     id="audio_a_output"
     cx="222.04919"
     cy="328.47842"
     r="6" /><circle
     style="display:inline;fill:#ff0000;fill-opacity:1;stroke:#ffffff;stroke-width:0"
     id="audio_b_output"
     cx="179.97919"
     cy="328.47842"
     r="6" /><text
     xml:space="preserve"
     style="font-style:normal;font-variant:normal;font-weight:500;font-stretch:normal;font-size:24px;font-family:Futura;-inkscape-font-specification:'Futura, Medium';font-variant-ligatures:normal;font-variant-caps:normal;font-variant-numeric:normal;font-variant-east-asian:normal;text-align:start;writing-mode:lr-tb;direction:ltr;text-anchor:start;fill:#ffffff;fill-rule:evenodd;stroke:#0f0f0f;stroke-width:0;fill-opacity:1"
     x="66.798828"
     y="29.759926"
     id="text1"><tspan
       id="tspan1"
       x="66.798828"
       y="29.759926">INVOLUTION</tspan></text><rect
     style="fill:#ffffff;fill-opacity:1;fill-rule:evenodd;stroke:#0f0f0f;stroke-width:0"
     id="rect2"
     width="211.86732"
     height="0.70710677"
     x="37.066338"
     y="38.183765" /><g
     transform="matrix(0.64384384,0,0,0.64397075,55.120928,76.52393)"
     id="g23"><!-- Major tick marks with numbers --><g
       stroke="#20b2aa"
       stroke-width="1.2"
       stroke-linecap="round"
       id="g8"><path
         id="line1"
         d="m 0,-35 v -7" /><path
         id="line2"
         transform="rotate(45)"
         d="m 0,-35 v -7" /><path
         id="line3"
         transform="rotate(90)"
         d="m 0,-35 v -7" /><path
         id="line4"
         transform="rotate(135)"
         d="m 0,-35 v -7" /><path
         id="line5"
         transform="scale(-1)"
         d="m 0,-35 v -7" /><path
         id="line6"
         transform="rotate(-135)"
         d="m 0,-35 v -7" /><path
         id="line7"
         transform="rotate(-90)"
         d="m 0,-35 v -7" /><path
         id="line8"
         transform="rotate(-45)"
         d="m 0,-35 v -7" /></g><!-- Numbers --><g
       fill="#20b2aa"
       font-family="Arial, sans-serif"
       font-size="7px"
       text-anchor="middle"
       id="g15"><path
         d="m -1.6560059,-49.471191 q 0,-0.888672 0.1811524,-1.428711 0.1845703,-0.543457 0.54345702,-0.837403 0.36230468,-0.293945 0.90917968,-0.293945 0.40332032,0 0.70751953,0.164063 0.30419922,0.160644 0.50244137,0.468261 0.1982422,0.304199 0.3110352,0.745117 0.112793,0.4375 0.112793,1.182618 0,0.881836 -0.1811524,1.425293 -0.1811523,0.540039 -0.54345701,0.837402 -0.35888672,0.293945 -0.90917969,0.293945 -0.72460937,0 -1.1381836,-0.519531 -0.4956055,-0.625488 -0.4956055,-2.037109 z m 0.6323243,0 q 0,1.233886 0.28710933,1.644043 0.29052735,0.406738 0.71435547,0.406738 0.42382813,0 0.7109375,-0.410156 0.29052735,-0.410157 0.29052735,-1.640625 0,-1.237305 -0.29052735,-1.644043 -0.28710937,-0.406739 -0.71777343,-0.406739 -0.42382813,0 -0.67675782,0.358887 -0.31787105,0.458008 -0.31787105,1.691895 z"
         id="text8"
         aria-label="0" /><path
         d="M 0.66137695,-47 H 0.04614258 v -3.92041 q -0.22216797,0.211914 -0.58447266,0.423828 -0.35888672,0.211914 -0.64599612,0.317871 v -0.594726 q 0.51611331,-0.242676 0.90234378,-0.587891 0.38623047,-0.345215 0.546875,-0.669922 h 0.39648437 z"
         id="text9"
         transform="rotate(45)"
         aria-label="1" /><path
         d="M 1.5773926,-47.591309 V -47 h -3.3120117 q -0.00684,-0.222168 0.071777,-0.427246 0.1264648,-0.338379 0.4033203,-0.666504 0.28027345,-0.328125 0.80664064,-0.758789 0.81689453,-0.669922 1.10400391,-1.05957 0.28710937,-0.393067 0.28710937,-0.7417 0,-0.365722 -0.26318359,-0.615234 -0.25976563,-0.25293 -0.68017578,-0.25293 -0.44433594,0 -0.7109375,0.266602 -0.26660157,0.266601 -0.27001953,0.738281 l -0.63232422,-0.06494 q 0.064941,-0.70752 0.4887695,-1.07666 0.42382815,-0.372559 1.13818362,-0.372559 0.72119141,0 1.14160158,0.399902 0.4204101,0.399903 0.4204101,0.991211 0,0.300782 -0.1230468,0.591309 -0.1230469,0.290527 -0.4101563,0.611816 -0.28369139,0.321289 -0.94677733,0.881836 -0.55371094,0.464844 -0.7109375,0.632324 -0.15722656,0.164063 -0.25976562,0.331543 z"
         id="text10"
         transform="rotate(90)"
         aria-label="2" /><path
         d="m -1.6525879,-48.322754 0.6152344,-0.08203 q 0.10595702,0.522949 0.3588867,0.755371 0.25634766,0.229004 0.62207032,0.229004 0.43408203,0 0.73144531,-0.300781 0.30078125,-0.300782 0.30078125,-0.745118 0,-0.423828 -0.27685547,-0.697265 -0.27685547,-0.276856 -0.70410156,-0.276856 -0.17431641,0 -0.43408203,0.06836 l 0.0683594,-0.540039 q 0.0615234,0.0068 0.0991211,0.0068 0.39306641,0 0.70751954,-0.205079 0.31445312,-0.205078 0.31445312,-0.632324 0,-0.338379 -0.22900391,-0.560547 -0.2290039,-0.222168 -0.59130859,-0.222168 -0.35888672,0 -0.59814453,0.225586 -0.23925781,0.225586 -0.30761719,0.676758 l -0.61523442,-0.109375 q 0.112793,-0.618652 0.5126954,-0.957031 0.3999023,-0.341797 0.99462887,-0.341797 0.41015625,0 0.75537109,0.177734 0.34521484,0.174317 0.52636714,0.478516 0.1845704,0.304199 0.1845704,0.645996 0,0.324707 -0.1743164,0.591309 -0.1743165,0.266601 -0.51611333,0.423828 0.44433593,0.102539 0.69042973,0.427246 0.2460937,0.321289 0.2460937,0.806641 0,0.65625 -0.4785156,1.114257 -0.47851564,0.45459 -1.20996095,0.45459 -0.65966797,0 -1.09716795,-0.393066 -0.4340821,-0.393067 -0.4956055,-1.018555 z"
         id="text11"
         transform="rotate(135)"
         aria-label="3" /><path
         d="m 0.31616211,-47 v -1.199707 H -1.857666 v -0.563965 l 2.28662108,-3.24707 h 0.5024414 v 3.24707 H 1.6081543 v 0.563965 H 0.93139648 V -47 Z m 0,-1.763672 v -2.259277 l -1.56884761,2.259277 z"
         id="text12"
         transform="scale(-1)"
         aria-label="4" /><path
         d="m -1.6560059,-48.3125 0.6459961,-0.05469 q 0.0717774,0.471679 0.331543,0.710937 0.2631836,0.23584 0.63232422,0.23584 0.44433594,0 0.75195313,-0.334961 0.30761715,-0.334961 0.30761715,-0.888672 0,-0.526367 -0.29736325,-0.830566 -0.29394531,-0.3042 -0.77246093,-0.3042 -0.29736329,0 -0.5366211,0.136719 -0.23925781,0.133301 -0.37597656,0.348633 l -0.57763676,-0.0752 0.4853516,-2.573731 h 2.4916992 v 0.587891 h -1.9995117 l -0.27001953,1.34668 q 0.45117188,-0.314454 0.94677735,-0.314454 0.65625,0 1.10742188,0.45459 0.4511719,0.45459 0.4511719,1.168946 0,0.680175 -0.3964844,1.175781 -0.4819336,0.608398 -1.31591798,0.608398 -0.68359375,0 -1.11767582,-0.382812 -0.430664,-0.382813 -0.4921875,-1.015137 z"
         id="text13"
         transform="rotate(-135)"
         aria-label="5" /><path
         d="m 1.536377,-50.783691 -0.61181645,0.04785 q -0.0820313,-0.362305 -0.23242188,-0.526367 -0.24951172,-0.263184 -0.61523437,-0.263184 -0.29394532,0 -0.51611328,0.164063 -0.29052735,0.211914 -0.45800782,0.618652 -0.1674805,0.406739 -0.1743164,1.158692 0.22216797,-0.338379 0.54345703,-0.502442 0.32128906,-0.164062 0.67333984,-0.164062 0.61523438,0 1.04589843,0.45459 0.434082,0.451171 0.434082,1.168945 0,0.47168 -0.2050781,0.878418 -0.2016601,0.40332 -0.55712889,0.618652 -0.35546875,0.215332 -0.80664063,0.215332 -0.76904296,0 -1.25439448,-0.563965 -0.4853516,-0.567382 -0.4853516,-1.866211 0,-1.452636 0.5366211,-2.112304 0.4682617,-0.574219 1.26123045,-0.574219 0.5913086,0 0.96728515,0.331543 0.3793945,0.331543 0.4545899,0.916016 z m -2.51220708,2.160156 q 0,0.317871 0.13330078,0.608398 0.13671875,0.290528 0.37939453,0.444336 0.24267579,0.150391 0.50927735,0.150391 0.38964844,0 0.66992187,-0.314453 0.28027344,-0.314453 0.28027344,-0.854492 0,-0.519532 -0.27685547,-0.816895 -0.27685547,-0.300781 -0.69726562,-0.300781 -0.41699219,0 -0.70751953,0.300781 -0.29052735,0.297363 -0.29052735,0.782715 z"
         id="text14"
         transform="rotate(-90)"
         aria-label="6" /><path
         d="m -1.6149902,-51.354492 v -0.591309 h 3.2436523 v 0.478516 q -0.4785156,0.509277 -0.9501953,1.353515 -0.46826172,0.844239 -0.72460938,1.736329 Q -0.23071289,-47.748535 -0.28198242,-47 h -0.63232422 q 0.0102539,-0.591309 0.23242187,-1.428711 0.22216797,-0.837402 0.63574219,-1.613281 0.41699219,-0.779297 0.88525391,-1.3125 z"
         id="text15"
         transform="rotate(-45)"
         aria-label="7" /></g><!-- Minor tick marks --><g
       stroke="#9370db"
       stroke-width="0.7"
       stroke-linecap="round"
       id="g22"><path
         id="line15"
         transform="rotate(22.5)"
         d="m 0,-35 v -4" /><path
         id="line16"
         transform="rotate(67.5)"
         d="m 0,-35 v -4" /><path
         id="line17"
         transform="rotate(112.5)"
         d="m 0,-35 v -4" /><path
         id="line18"
         transform="rotate(157.5)"
         d="m 0,-35 v -4" /><path
         id="line19"
         transform="rotate(-157.5)"
         d="m 0,-35 v -4" /><path
         id="line20"
         transform="rotate(-112.5)"
         d="m 0,-35 v -4" /><path
         id="line21"
         transform="rotate(-67.5)"
         d="m 0,-35 v -4" /><path
         id="line22"
         transform="rotate(-22.5)"
         d="m 0,-35 v -4" /></g></g></svg>
