<?xml version="1.0" encoding="UTF-8" standalone="no"?>
<svg
   width="101.6mm"
   height="128.5mm"
   viewBox="0 0 101.6 128.5"
   version="1.1"
   id="svg27"
   sodipodi:docname="Patina.svg"
   inkscape:version="1.4.3 (0d15f75, 2025-12-25)"
   xmlns:inkscape="http://www.inkscape.org/namespaces/inkscape"
   xmlns:sodipodi="http://sodipodi.sourceforge.net/DTD/sodipodi-0.dtd"
   xmlns="http://www.w3.org/2000/svg"
   xmlns:svg="http://www.w3.org/2000/svg">
  <sodipodi:namedview
     id="namedview27"
     pagecolor="#505050"
     bordercolor="#eeeeee"
     borderopacity="1"
     inkscape:showpageshadow="0"
     inkscape:pageopacity="0"
     inkscape:pagecheckerboard="0"
     inkscape:deskcolor="#505050"
     inkscape:document-units="mm"
     inkscape:zoom="4.2515909"
     inkscape:cx="165.11466"
     inkscape:cy="403.73122"
     inkscape:window-width="1800"
     inkscape:window-height="1101"
     inkscape:window-x="0"
     inkscape:window-y="40"
     inkscape:window-maximized="0"
     inkscape:current-layer="svg27" />
  <defs
     id="defs2">
    <linearGradient
       id="panelGradient"
       x1="0"
       y1="0"
       x2="0"
       y2="114.2611"
       gradientTransform="matrix(0.88919147,0,0,1.1246172,44.06442,50.941526)"
       gradientUnits="userSpaceOnUse">
      <stop
         offset="0%"
         stop-color="#1e1f26"
         id="stop1" />
      <stop
         offset="100%"
         stop-color="#0f1014"
         id="stop2" />
    </linearGradient>
  </defs>
  <!-- Background -->
  <!-- Hidden control markers for precise hardware alignment -->
  <circle
     id="patina-env-sensitivity"
     cx="12.764301"
     cy="17.799091"
     r="6.5"
     style="display:none;fill:#ff0000;fill-opacity:1;fill-rule:evenodd;stroke:#ff0000;stroke-width:0.3;stroke-linecap:round;stroke-opacity:1;paint-order:fill markers stroke" />
  <circle
     id="patina-master-rate"
     cx="50.800003"
     cy="17.799091"
     r="6.5"
     style="display:none;fill:#ff0000;fill-opacity:1;fill-rule:evenodd;stroke:#ff0000;stroke-width:0.3;stroke-linecap:round;stroke-opacity:1;paint-order:fill markers stroke" />
  <circle
     id="patina-env-depth"
     cx="88.835709"
     cy="17.799091"
     r="6.5"
     style="display:none;fill:#ff0000;fill-opacity:1;fill-rule:evenodd;stroke:#ff0000;stroke-width:0.3;stroke-linecap:round;stroke-opacity:1;paint-order:fill markers stroke" />
  <circle
     id="patina-audio-input"
     cx="31.782152"
     cy="97.7761"
     r="3.5"
     style="display:none;fill:#ff0000;fill-opacity:1;fill-rule:evenodd;stroke:#ff0000;stroke-width:0.3;stroke-linecap:round;stroke-opacity:1;paint-order:fill markers stroke" />
  <circle
     id="patina-env-output"
     cx="69.817856"
     cy="81.641068"
     r="3.5"
     style="display:none;fill:#ff0000;fill-opacity:1;fill-rule:evenodd;stroke:#ff0000;stroke-width:0.3;stroke-linecap:round;stroke-opacity:1;paint-order:fill markers stroke" />
  <circle
     id="patina-reset-input"
     cx="51.299999"
     cy="79.607994"
     r="3.5"
     style="display:none;fill:#ff0000;fill-opacity:1;fill-rule:evenodd;stroke:#ff0000;stroke-width:0.3;stroke-linecap:round;stroke-opacity:1;paint-order:fill markers stroke" />
  <circle
     id="patina-env-mode"
     cx="26.381199"
     cy="31.329651"
     r="4"
     style="display:none;fill:#ff0000;fill-opacity:1;fill-rule:evenodd;stroke:#ff0000;stroke-width:0.3;stroke-linecap:round;stroke-opacity:1;paint-order:fill markers stroke" />
  <circle
     id="bi-polar-mode"
     cx="37.183102"
     cy="31.329651"
     style="display:none;fill:#ff0000;fill-opacity:1;fill-rule:evenodd;stroke:#ff0000;stroke-width:0.3;stroke-linecap:round;stroke-opacity:1;paint-order:fill markers stroke"
     r="4"
     inkscape:label="bi-polar-mode" />
  <circle
     id="patina-rate1"
     cx="12.764301"
     cy="42.12965"
     r="6.5"
     style="display:none;fill:#ff0000;fill-opacity:1;fill-rule:evenodd;stroke:#ff0000;stroke-width:0.3;stroke-linecap:round;stroke-opacity:1;paint-order:fill markers stroke" />
  <circle
     id="patina-rate1-cv"
     cx="31.782152"
     cy="64.25"
     r="3.5"
     style="display:none;fill:#ff0000;fill-opacity:1;fill-rule:evenodd;stroke:#ff0000;stroke-width:0.3;stroke-linecap:round;stroke-opacity:1;paint-order:fill markers stroke" />
  <circle
     id="patina-shape1"
     cx="12.764301"
     cy="85.754417"
     r="4"
     style="display:none;fill:#ff0000;fill-opacity:1;fill-rule:evenodd;stroke:#ff0000;stroke-width:0.3;stroke-linecap:round;stroke-opacity:1;paint-order:fill markers stroke" />
  <circle
     id="patina-drift1"
     cx="12.764301"
     cy="65.192032"
     r="4"
     style="display:none;fill:#ff0000;fill-opacity:1;fill-rule:evenodd;stroke:#ff0000;stroke-width:0.3;stroke-linecap:round;stroke-opacity:1;paint-order:fill markers stroke" />
  <circle
     id="patina-jitter1"
     cx="12.264301"
     cy="106.3168"
     r="4"
     style="display:none;fill:#ff0000;fill-opacity:1;fill-rule:evenodd;stroke:#ff0000;stroke-width:0.3;stroke-linecap:round;stroke-opacity:1;paint-order:fill markers stroke" />
  <circle
     id="patina-output1"
     cx="31.782152"
     cy="81.013046"
     r="3.5"
     style="display:none;fill:#ff0000;fill-opacity:1;fill-rule:evenodd;stroke:#ff0000;stroke-width:0.3;stroke-linecap:round;stroke-opacity:1;paint-order:fill markers stroke" />
  <circle
     id="patina-light1"
     cx="42.942074"
     cy="54.910843"
     r="2"
     style="display:none;fill:#ff0000;fill-opacity:1;fill-rule:evenodd;stroke:#ff0000;stroke-width:0.3;stroke-linecap:round;stroke-opacity:1;paint-order:fill markers stroke" />
  <circle
     id="patina-rate2"
     cx="50.799999"
     cy="42.12965"
     r="6.5"
     style="display:none;fill:#ff0000;fill-opacity:1;fill-rule:evenodd;stroke:#ff0000;stroke-width:0.3;stroke-linecap:round;stroke-opacity:1;paint-order:fill markers stroke" />
  <circle
     id="patina-rate2-cv"
     cx="31.782152"
     cy="114.53915"
     r="3.5"
     style="display:none;fill:#ff0000;fill-opacity:1;fill-rule:evenodd;stroke:#ff0000;stroke-width:0.3;stroke-linecap:round;stroke-opacity:1;paint-order:fill markers stroke" />
  <circle
     id="patina-shape2"
     cx="50.799999"
     cy="94.023956"
     r="4"
     style="display:none;fill:#ff0000;fill-opacity:1;fill-rule:evenodd;stroke:#ff0000;stroke-width:0.3;stroke-linecap:round;stroke-opacity:1;paint-order:fill markers stroke" />
  <circle
     id="patina-drift2"
     cx="50.799999"
     cy="65.192032"
     r="4"
     style="display:none;fill:#ff0000;fill-opacity:1;fill-rule:evenodd;stroke:#ff0000;stroke-width:0.3;stroke-linecap:round;stroke-opacity:1;paint-order:fill markers stroke" />
  <circle
     id="patina-jitter2"
     cx="50.799999"
     cy="113.22711"
     r="4"
     style="display:none;fill:#ff0000;fill-opacity:1;fill-rule:evenodd;stroke:#ff0000;stroke-width:0.3;stroke-linecap:round;stroke-opacity:1;paint-order:fill markers stroke" />
  <circle
     id="patina-output2"
     cx="69.817841"
     cy="98.090111"
     r="3.5"
     style="display:none;fill:#ff0000;fill-opacity:1;fill-rule:evenodd;stroke:#ff0000;stroke-width:0.3;stroke-linecap:round;stroke-opacity:1;paint-order:fill markers stroke" />
  <circle
     id="patina-light2"
     cx="50.799999"
     cy="54.910843"
     r="2"
     style="display:none;fill:#ff0000;fill-opacity:1;fill-rule:evenodd;stroke:#ff0000;stroke-width:0.3;stroke-linecap:round;stroke-opacity:1;paint-order:fill markers stroke" />
  <circle
     id="patina-rate3"
     cx="88.835709"
     cy="42.12965"
     r="6.5"
     style="display:none;fill:#ff0000;fill-opacity:1;fill-rule:evenodd;stroke:#ff0000;stroke-width:0.3;stroke-linecap:round;stroke-opacity:1;paint-order:fill markers stroke" />
  <circle
     id="patina-rate3-cv"
     cx="69.817856"
     cy="114.53915"
     r="3.5"
     style="display:none;fill:#ff0000;fill-opacity:1;fill-rule:evenodd;stroke:#ff0000;stroke-width:0.3;stroke-linecap:round;stroke-opacity:1;paint-order:fill markers stroke" />
  <circle
     id="patina-shape3"
     cx="88.835709"
     cy="85.754417"
     r="4"
     style="display:none;fill:#ff0000;fill-opacity:1;fill-rule:evenodd;stroke:#ff0000;stroke-width:0.3;stroke-linecap:round;stroke-opacity:1;paint-order:fill markers stroke" />
  <circle
     id="patina-drift3"
     cx="88.835709"
     cy="65.192032"
     r="4"
     style="display:none;fill:#ff0000;fill-opacity:1;fill-rule:evenodd;stroke:#ff0000;stroke-width:0.3;stroke-linecap:round;stroke-opacity:1;paint-order:fill markers stroke" />
  <circle
     id="patina-jitter3"
     cx="88.835709"
     cy="106.3168"
     r="4"
     style="display:none;fill:#ff0000;fill-opacity:1;fill-rule:evenodd;stroke:#ff0000;stroke-width:0.3;stroke-linecap:round;stroke-opacity:1;paint-order:fill markers stroke" />
  <circle
     id="patina-output3"
     cx="69.817856"
     cy="65.192032"
     r="3.5"
     style="display:none;fill:#ff0000;fill-opacity:1;fill-rule:evenodd;stroke:#ff0000;stroke-width:0.3;stroke-linecap:round;stroke-opacity:1;paint-order:fill markers stroke" />
  <circle
     id="patina-light3"
     cx="58.657925"
     cy="54.910843"
     r="2"
     style="display:none;fill:#ff0000;fill-opacity:1;fill-rule:evenodd;stroke:#ff0000;stroke-width:0.3;stroke-linecap:round;stroke-opacity:1;paint-order:fill markers stroke" />
  <circle
     id="patina-slew"
     cx="69.817856"
     cy="32.745735"
     r="4"
     style="display:none;fill:#ff0000;fill-opacity:1;fill-rule:evenodd;stroke:#ff0000;stroke-width:0.3;stroke-linecap:round;stroke-opacity:1;paint-order:fill markers stroke" />
  <circle
     id="patina-complexity"
     cx="69.817856"
     cy="16.748482"
     r="4"
     style="display:none;fill:#ff0000;fill-opacity:1;fill-rule:evenodd;stroke:#ff0000;stroke-width:0.3;stroke-linecap:round;stroke-opacity:1;paint-order:fill markers stroke" />
  <circle
     id="patina-alt-interval"
     cx="31.782154"
     cy="48.742992"
     r="4"
     style="display:none;fill:#ff0000;fill-opacity:1;fill-rule:evenodd;stroke:#ff0000;stroke-width:0.3;stroke-linecap:round;stroke-opacity:1;paint-order:fill markers stroke" />
  <circle
     id="patina-xmod"
     cx="69.817841"
     cy="48.742992"
     r="4"
     style="display:none;fill:#ff0000;fill-opacity:1;fill-rule:evenodd;stroke:#ff0000;stroke-width:0.3;stroke-linecap:round;stroke-opacity:1;paint-order:fill markers stroke" />
  <circle
     id="patina-vintage-button"
     cx="31.782152"
     cy="17.799091"
     r="3.2"
     style="display:none;fill:#ff0000;fill-opacity:1;fill-rule:evenodd;stroke:#ff0000;stroke-width:0.3;stroke-linecap:round;stroke-opacity:1;paint-order:fill markers stroke" />
  <!-- Title -->
  <!-- Section labels -->
  <!-- Control labels - Top Section -->
  <!-- Envelope mode knob label -->
  <!-- LFO Core labels -->
  <!-- Character labels -->
  <!-- Smaller control labels for LFO parameters -->
  <!-- Vintage mode label -->
  <path
     style="font-weight:600;font-size:7.05556px;line-height:0;font-family:Neokurat;-inkscape-font-specification:'Neokurat, Semi-Bold';text-align:center;letter-spacing:1.05833px;word-spacing:0.132292px;text-anchor:middle;opacity:0.900489;fill:#eedcbb;fill-opacity:0.890196;fill-rule:evenodd;stroke-width:0.0856882;stroke-linecap:round;stroke-linejoin:round;stroke-opacity:0.631373;paint-order:fill markers stroke"
     d="m 40.77146,1.9207325 c -0.519937,0 -0.985463,0.2116023 -1.317981,0.5562119 v -0.471571 h -0.513891 v 4.1897269 h 0.513891 V 5.0282644 c 0.332518,0.3446095 0.798044,0.5562119 1.317981,0.5562119 1.009645,0 1.831871,-0.8222264 1.831871,-1.8318719 0,-1.0096457 -0.822226,-1.8318719 -1.831871,-1.8318719 z m 0,3.1619439 c -0.737586,0 -1.336118,-0.5985324 -1.336118,-1.330072 0,-0.7375855 0.598532,-1.3361178 1.336118,-1.3361178 0.731539,0 1.330072,0.5985323 1.330072,1.3361178 0,0.7315396 -0.598533,1.330072 -1.330072,1.330072 z m 4.91522,-3.1619439 c -1.015691,0 -1.831872,0.8161805 -1.831872,1.8318719 0,1.0096455 0.816181,1.8318719 1.831872,1.8318719 0.840364,0 1.31798,-0.5562119 1.31798,-0.5562119 v 0.471571 h 0.513891 v -1.747231 c 0,-1.0096457 -0.822226,-1.8318719 -1.831871,-1.8318719 z m 1.330072,1.8318719 c 0,0.7315396 -0.598533,1.330072 -1.330072,1.330072 -0.737586,0 -1.336118,-0.5985324 -1.336118,-1.330072 0,-0.7375855 0.598532,-1.3361178 1.336118,-1.3361178 0.719448,0 1.330072,0.5924866 1.330072,1.3361178 z m 3.143804,1.2333394 c -0.368794,0 -0.671083,-0.2962433 -0.671083,-0.6710817 V 2.5313564 h 0.912914 V 2.0114192 H 49.489473 V 1.3161543 h -0.513891 v 2.9987078 c 0,0.6589902 0.525983,1.191019 1.184974,1.191019 h 0.556211 V 4.9859438 Z m 2.134157,-3.99021601 c -0.199512,0 -0.356701,0.16323611 -0.356701,0.36274701 0,0.1995108 0.157189,0.356701 0.356701,0.356701 0.19951,0 0.356701,-0.163236 0.356701,-0.356701 0,-0.1995109 -0.157191,-0.36274701 -0.356701,-0.36274701 z M 52.54259,5.5058811 V 2.0114192 h -0.501801 v 3.4944619 z m 2.908026,-3.5791029 c -0.453434,0 -0.852456,0.2055566 -1.11847,0.5380746 -0.193465,0.2418313 -0.308335,0.5562119 -0.308335,0.8947758 v 2.1462525 h 0.525983 V 3.3596286 c 0,-0.5018 0.405067,-0.9008216 0.900822,-0.9008216 0.495754,0 0.900822,0.3990216 0.900822,0.9008216 v 2.1462525 h 0.532028 V 3.3596286 c 0,-0.7919975 -0.640852,-1.4328504 -1.43285,-1.4328504 z m 4.631069,-0.00605 c -1.015691,0 -1.831871,0.8161806 -1.831871,1.8318719 0,1.0096455 0.81618,1.8318719 1.831871,1.8318719 0.840364,0 1.317981,-0.5562119 1.317981,-0.5562119 v 0.471571 h 0.513891 V 3.7526044 c 0,-1.0096457 -0.822226,-1.8318719 -1.831872,-1.8318719 z m 1.330073,1.8318719 c 0,0.7315396 -0.598533,1.330072 -1.330073,1.330072 -0.737585,0 -1.336117,-0.5985324 -1.336117,-1.330072 0,-0.7375854 0.598532,-1.3361178 1.336117,-1.3361178 0.719449,0 1.330073,0.5924866 1.330073,1.3361178 z"
     id="text2"
     aria-label="patina" />
  <path
     style="font-weight:600;font-size:2.82222px;line-height:0;font-family:Neokurat;-inkscape-font-specification:'Neokurat, Semi-Bold';text-align:center;letter-spacing:0.529167px;word-spacing:0.79375px;text-anchor:middle;opacity:0.948225;fill:#eedcbb;fill-opacity:0.890196;fill-rule:evenodd;stroke-width:0.04;stroke-linecap:round;stroke-linejoin:round;stroke-opacity:0.898039;paint-order:fill markers stroke"
     d="m 40.26307,125.07962 c -0.163689,-0.0705 -0.285044,-0.10724 -0.434622,-0.14111 -0.206021,-0.048 -0.400754,-0.127 -0.400754,-0.29351 0,-0.0169 0.0028,-0.0339 0.0056,-0.0508 0.03104,-0.15804 0.220134,-0.26811 0.437445,-0.27093 0.0028,0 0.0028,0 0.0056,0 0.180622,0 0.372532,0.0621 0.510821,0.2032 l 0.174977,-0.16369 c -0.121355,-0.13547 -0.386643,-0.27375 -0.680155,-0.27375 -0.0056,0 -0.01129,0.003 -0.01693,0.003 -0.454377,0.006 -0.660399,0.30197 -0.680155,0.48823 -0.0028,0.0169 -0.0056,0.0367 -0.0056,0.0536 0,0.2286 0.180622,0.42898 0.462844,0.50518 0.183444,0.0508 0.333022,0.079 0.530577,0.16087 0.09596,0.0423 0.194733,0.11571 0.194733,0.24553 0,0.0254 -0.0028,0.0536 -0.01129,0.0819 -0.05644,0.1778 -0.253999,0.254 -0.437444,0.26246 -0.01129,0.003 -0.0254,0.003 -0.03669,0.003 -0.259644,0 -0.533399,-0.11571 -0.62371,-0.22577 l -0.191911,0.15522 c 0.149577,0.19473 0.536222,0.30762 0.82691,0.30762 0.285045,0 0.612422,-0.13547 0.697089,-0.43744 0.01693,-0.0508 0.02258,-0.1016 0.02258,-0.14676 0,-0.2032 -0.124177,-0.37253 -0.349955,-0.46567 z m 2.473677,-0.94826 v 0.76764 h -1.114776 v -0.76764 h -0.239888 v 1.9558 h 0.239888 v -0.94827 h 1.114776 v 0.94827 h 0.239889 v -1.9558 z m 1.948743,-0.0395 -1.018822,1.9953 h 0.26811 l 0.333022,-0.65194 h 0.832555 l 0.333022,0.65194 h 0.270933 z m -0.299157,1.11476 0.299156,-0.58701 0.299155,0.58701 z m 3.385253,-0.9285 c -0.112888,-0.0903 -0.259644,-0.14675 -0.417688,-0.14675 h -0.959555 v 1.9558 h 0.239889 v -0.61807 h 0.719666 c 0.369711,0 0.668866,-0.29915 0.668866,-0.66886 0,-0.21167 -0.09878,-0.39794 -0.251178,-0.52212 z m 0.01129,0.52212 c 0,0.23706 -0.19191,0.42897 -0.428977,0.42897 h -0.719666 v -0.85514 h 0.719666 c 0.237066,0 0.428977,0.19192 0.428977,0.42617 z m 1.231901,1.04704 v -0.6604 h 1.030111 v -0.23989 h -1.030111 v -0.57292 h 1.2192 v -0.2427 h -1.459088 v 1.9558 h 1.498599 v -0.23989 z m 1.849967,-1.71591 v 0.2427 h 0.694268 v 1.71309 H 51.7989 v -1.71309 h 0.694266 v -0.2427 z m 2.865963,-0.0395 -1.018821,1.9953 h 0.268111 l 0.333022,-0.65193 h 0.832555 l 0.333022,0.65193 h 0.270933 z m -0.299154,1.11477 0.299154,-0.58702 0.299156,0.58702 z m 2.727676,-0.0931 0.97931,-0.98214 h -0.341488 l -0.809978,0.80998 -0.307622,-0.30762 V 124.1314 H 55.43674 v 1.95581 h 0.242711 v -1.11478 l 1.114777,1.11478 h 0.341488 z m 1.920522,0.73378 v -0.66041 h 1.03011 v -0.23989 h -1.03011 v -0.57291 h 1.219199 v -0.24276 h -1.459089 v 1.9558 h 1.498599 v -0.23989 z m 3.706988,0.23989 -0.451555,-0.44874 c 0.231422,-0.14393 0.383822,-0.39793 0.383822,-0.69144 0,-0.44873 -0.364067,-0.81562 -0.815622,-0.81562 h -0.8128 v 1.95862 h 0.239889 v -1.13453 l 1.13171,1.13453 z m -0.307622,-1.14018 c 0,0.20038 -0.110067,0.40922 -0.318911,0.51647 l -0.829732,-0.82974 v -0.25964 h 0.57291 c 0.316089,0 0.575733,0.25682 0.575733,0.57291 z"
     id="text6"
     aria-label="SHPETE" />
</svg>
