<?xml version="1.0" encoding="UTF-8" standalone="no"?>
<svg
   width="91.44mm"
   height="128.5mm"
   viewBox="0 0 91.44 128.5"
   version="1.1"
   id="svg10"
   sodipodi:docname="Reverie.svg"
   inkscape:version="1.4.3 (0d15f75, 2025-12-25)"
   xmlns:inkscape="http://www.inkscape.org/namespaces/inkscape"
   xmlns:sodipodi="http://sodipodi.sourceforge.net/DTD/sodipodi-0.dtd"
   xmlns="http://www.w3.org/2000/svg"
   xmlns:svg="http://www.w3.org/2000/svg">
  <defs
     id="defs10" />
  <sodipodi:namedview
     id="namedview10"
     pagecolor="#505050"
     bordercolor="#eeeeee"
     borderopacity="1"
     inkscape:showpageshadow="0"
     inkscape:pageopacity="0"
     inkscape:pagecheckerboard="0"
     inkscape:deskcolor="#505050"
     inkscape:document-units="mm"
     inkscape:zoom="1.7873116"
     inkscape:cx="161.13587"
     inkscape:cy="243.66205"
     inkscape:window-width="1800"
     inkscape:window-height="1101"
     inkscape:window-x="0"
     inkscape:window-y="40"
     inkscape:window-maximized="1"
     inkscape:current-layer="svg10" />
  <!-- 18HP = 91.44mm panel -->
  <!-- Background -->
  <!-- Module name -->
  <!-- Positioning elements (circles for centers, used by PanelSVGParser) -->
  <!-- Mode selector -->
  <circle
     id="mode-select"
     cx="45.720001"
     cy="59.922184"
     r="3"
     fill="none"
     stroke="none"
     style="display:none;fill:#ff0000;fill-opacity:1" />
  <circle
     id="effect-blend"
     cx="45.720001"
     cy="77.45414"
     r="3"
     fill="none"
     stroke="none"
     style="display:none;fill:#ff0000;fill-opacity:1"
     inkscape:label="effect-blend" />
  <circle
     id="mode-led"
     cx="45.720001"
     cy="15.627828"
     r="2"
     fill="none"
     stroke="none"
     style="display:none;fill:#ff0000;fill-opacity:1" />
  <!-- Main knobs row -->
  <circle
     id="decay-knob"
     cx="19"
     cy="20.97398"
     r="6"
     fill="none"
     stroke="none"
     style="display:none;fill:#ff0000;fill-opacity:1" />
  <circle
     id="mix-knob"
     cx="72.440002"
     cy="20.97398"
     r="6"
     fill="none"
     stroke="none"
     style="display:none;fill:#ff0000;fill-opacity:1" />
  <!-- Tone knob -->
  <circle
     id="tone-knob"
     cx="45.720001"
     cy="37.503376"
     r="4"
     fill="none"
     stroke="none"
     style="display:none;fill:#ff0000;fill-opacity:1" />
  <!-- Param knobs -->
  <circle
     id="param1-knob"
     cx="19"
     cy="52.627857"
     r="4"
     fill="none"
     stroke="none"
     style="display:none;fill:#ff0000;fill-opacity:1" />
  <circle
     id="param2-knob"
     cx="72.440002"
     cy="52.627857"
     r="4"
     fill="none"
     stroke="none"
     style="display:none;fill:#ff0000;fill-opacity:1" />
  <!-- Attenuverters -->
  <circle
     id="decay-atten"
     cx="28.028763"
     cy="86.807076"
     r="2"
     fill="none"
     stroke="none"
     style="display:none;fill:#ff0000;fill-opacity:1" />
  <circle
     id="mix-atten"
     cx="63.41124"
     cy="86.807076"
     r="2"
     fill="none"
     stroke="none"
     style="display:none;fill:#ff0000;fill-opacity:1" />
  <circle
     id="param1-atten"
     cx="11.337524"
     cy="73.594574"
     r="2"
     fill="none"
     stroke="none"
     style="display:none;fill:#ff0000;fill-opacity:1" />
  <circle
     id="param2-atten"
     cx="80.102478"
     cy="73.594574"
     r="2"
     fill="none"
     stroke="none"
     style="display:none;fill:#ff0000;fill-opacity:1" />
  <!-- CV inputs -->
  <circle
     id="decay-cv"
     cx="28.028763"
     cy="99.376198"
     r="2"
     fill="none"
     stroke="none"
     style="display:none;fill:#ff0000;fill-opacity:1" />
  <circle
     id="param1-cv"
     cx="11.337524"
     cy="86.807076"
     r="2"
     fill="none"
     stroke="none"
     style="display:none;fill:#ff0000;fill-opacity:1" />
  <circle
     id="param2-cv"
     cx="80.102478"
     cy="86.807076"
     r="2"
     fill="none"
     stroke="none"
     style="display:none;fill:#ff0000;fill-opacity:1" />
  <!-- Audio I/O -->
  <circle
     id="audio-in-l"
     cx="13"
     cy="114"
     r="3"
     fill="none"
     stroke="none"
     style="display:none;fill:#ff0000;fill-opacity:1" />
  <circle
     id="audio-in-r"
     cx="30"
     cy="114"
     r="3"
     fill="none"
     stroke="none"
     style="display:none;fill:#ff0000;fill-opacity:1" />
  <circle
     id="audio-out-r"
     cx="78"
     cy="114"
     r="3"
     fill="none"
     stroke="none"
     style="display:none;fill:#0000ff;fill-opacity:1" />
  <circle
     id="mix-cv"
     cx="63.41124"
     cy="99.376198"
     r="2"
     fill="none"
     stroke="none"
     style="display:none;fill:#ff0000;fill-opacity:1"
     inkscape:label="mix-cv" />
  <!-- Labels -->
  <path
     id="audio-out-l"
     style="display:none;fill:#0000ff"
     d="m 64,114 a 3,3 0 0 1 -3,3 3,3 0 0 1 -3,-3 3,3 0 0 1 3,-3 3,3 0 0 1 3,3 z" />
  <path
     d="m 16.765088,12.646827 q 0,0.218067 -0.0956,0.395313 -0.09453,0.177246 -0.252442,0.275 -0.10957,0.06768 -0.244922,0.09775 -0.134282,0.03008 -0.354497,0.03008 h -0.403906 v -1.599512 h 0.399609 q 0.23418,0 0.37168,0.03438 0.138574,0.0333 0.23418,0.09238 0.163281,0.102051 0.254589,0.271777 0.09131,0.169727 0.09131,0.402832 z m -0.222363,-0.0032 q 0,-0.187988 -0.06553,-0.316895 -0.06553,-0.128906 -0.195507,-0.203027 -0.09453,-0.05371 -0.200879,-0.07412 -0.106348,-0.02149 -0.25459,-0.02149 h -0.199805 v 1.234278 h 0.199805 q 0.153613,0 0.26748,-0.02256 0.114942,-0.02256 0.210547,-0.08379 0.119238,-0.07627 0.178321,-0.200879 0.06016,-0.124609 0.06016,-0.311523 z m 1.619922,0.801345 H 17.108838 V 11.84546 h 1.053809 v 0.189063 h -0.841114 v 0.438281 h 0.841114 v 0.189064 h -0.841114 v 0.594042 h 0.841114 z m 1.572656,-0.116016 q -0.05908,0.02578 -0.107422,0.04834 -0.04727,0.02256 -0.124609,0.04727 -0.06553,0.02041 -0.142871,0.03437 -0.07627,0.01504 -0.168653,0.01504 -0.174023,0 -0.316894,-0.04834 -0.141797,-0.04941 -0.247071,-0.153613 -0.103125,-0.102051 -0.161132,-0.258887 -0.05801,-0.15791 -0.05801,-0.366309 0,-0.197656 0.05586,-0.353418 0.05586,-0.155761 0.161133,-0.263182 0.102051,-0.104199 0.245996,-0.158985 0.14502,-0.05479 0.321191,-0.05479 0.128907,0 0.256739,0.03115 0.128906,0.03115 0.285742,0.109569 v 0.252441 h -0.01611 q -0.132129,-0.110644 -0.26211,-0.161132 -0.12998,-0.05049 -0.278222,-0.05049 -0.121387,0 -0.219141,0.03975 -0.09668,0.03867 -0.172949,0.121387 -0.07412,0.08057 -0.116016,0.204102 -0.04082,0.122461 -0.04082,0.283593 0,0.168654 0.04512,0.29004 0.04619,0.121386 0.118164,0.197656 0.0752,0.07949 0.175098,0.118164 0.100976,0.0376 0.212695,0.0376 0.153613,0 0.287891,-0.05264 0.134277,-0.05264 0.251367,-0.15791 h 0.01504 z m 1.561914,0.116016 h -0.22666 l -0.156836,-0.445801 h -0.691797 l -0.156836,0.445801 H 19.84917 L 20.431396,11.84546 H 20.71499 Z M 20.848193,12.816554 20.567822,12.0313 20.286377,12.816554 Z m 1.738086,-0.971094 -0.56289,0.898047 v 0.701465 h -0.212696 v -0.678906 l -0.565039,-0.920605 h 0.235254 l 0.437207,0.715429 0.441504,-0.715429 z"
     id="text2"
     style="font-size:2.2px;text-anchor:middle;fill:#888888"
     aria-label="DECAY" />
  <path
     d="m 71.864221,13.44497 h -0.212695 v -1.378223 l -0.444727,0.937794 h -0.126757 l -0.441504,-0.937794 v 1.378223 h -0.198731 v -1.599512 h 0.290039 l 0.426465,0.890528 0.4125,-0.890528 h 0.29541 z m 0.993653,0 h -0.631641 v -0.163281 h 0.209473 V 12.00874 h -0.209473 v -0.163282 h 0.631641 v 0.163282 h -0.209473 v 1.272949 h 0.209473 z m 1.582324,-1.599512 -0.552149,0.790626 0.551075,0.808886 H 74.193128 L 73.756995,12.786475 73.31012,13.44497 h -0.232032 l 0.55752,-0.799219 -0.544629,-0.800293 h 0.244922 l 0.430762,0.649903 0.440429,-0.649903 z"
     id="text3"
     style="font-size:2.2px;text-anchor:middle;fill:#888888"
     aria-label="MIX" />
  <path
     d="m 44.10169,28.787824 h -0.571484 v 1.410449 H 43.31751 v -1.410449 h -0.571484 v -0.189063 h 1.355664 z m 1.353516,-0.0054 q 0.09775,0.107422 0.149316,0.263183 0.05264,0.155762 0.05264,0.353418 0,0.197656 -0.05371,0.354492 -0.05264,0.155762 -0.148242,0.259961 -0.09883,0.108496 -0.23418,0.163282 -0.134277,0.05479 -0.307226,0.05479 -0.168653,0 -0.307227,-0.05586 -0.1375,-0.05586 -0.23418,-0.162207 -0.09668,-0.106347 -0.149316,-0.261035 -0.05156,-0.154687 -0.05156,-0.353418 0,-0.195508 0.05156,-0.350195 0.05156,-0.155762 0.150391,-0.266406 0.09453,-0.105274 0.234179,-0.161133 0.140723,-0.05586 0.306153,-0.05586 0.171875,0 0.3083,0.05693 0.1375,0.05586 0.233106,0.160059 z m -0.01934,0.616601 q 0,-0.311523 -0.139649,-0.480176 -0.139648,-0.169726 -0.381347,-0.169726 -0.243848,0 -0.383496,0.169726 -0.138575,0.168653 -0.138575,0.480176 0,0.314746 0.141797,0.482324 0.141797,0.166504 0.380274,0.166504 0.238476,0 0.379199,-0.166504 0.141797,-0.167578 0.141797,-0.482324 z m 1.77891,0.799248 h -0.263182 l -0.758398,-1.430859 v 1.430859 h -0.19873 v -1.599512 h 0.329785 l 0.691797,1.30625 v -1.30625 h 0.19873 z m 1.479199,0 h -1.053807 v -1.599512 h 1.053808 v 0.189063 h -0.841113 v 0.438281 h 0.841113 v 0.189063 h -0.841113 v 0.594042 h 0.841113 z"
     id="text4"
     style="font-size:2.2px;text-anchor:middle;fill:#888888"
     aria-label="TONE" />
  <path
     d="m 15.35249,45.04197 q 0,0.106347 -0.0376,0.197656 -0.03652,0.09023 -0.103125,0.156836 -0.08272,0.08272 -0.195508,0.124609 -0.112793,0.04082 -0.284668,0.04082 h -0.212693 v 0.596192 h -0.212695 v -1.599512 h 0.433984 q 0.143946,0 0.243848,0.02471 0.0999,0.02363 0.177246,0.0752 0.09131,0.06123 0.140723,0.152539 0.05049,0.09131 0.05049,0.230957 z m -0.221289,0.0054 q 0,-0.08272 -0.029,-0.143946 -0.029,-0.06123 -0.08809,-0.0999 -0.05156,-0.0333 -0.118164,-0.04726 -0.06553,-0.01504 -0.166504,-0.01504 h -0.210547 v 0.639161 h 0.179395 q 0.128906,0 0.209473,-0.02256 0.08057,-0.02363 0.131054,-0.07412 0.05049,-0.05156 0.0709,-0.108496 0.02148,-0.05693 0.02148,-0.127832 z m 1.709082,1.110713 h -0.22666 L 16.456787,45.712282 H 15.76499 l -0.156836,0.445801 h -0.215918 l 0.582227,-1.599512 h 0.283594 z m -0.449023,-0.628418 -0.280371,-0.785254 -0.281446,0.785254 z m 2.015234,0.628418 H 18.13042 l -0.534961,-0.635938 h -0.299707 v 0.635938 h -0.212695 v -1.599512 h 0.447949 q 0.145019,0 0.241699,0.01934 0.09668,0.01826 0.174023,0.0666 0.08701,0.05478 0.135352,0.138574 0.04941,0.08272 0.04941,0.210547 0,0.172949 -0.08701,0.290039 -0.08701,0.116016 -0.23955,0.175098 z m -0.497363,-1.149414 q 0,-0.06875 -0.02471,-0.121387 -0.02363,-0.05371 -0.07949,-0.09023 -0.04619,-0.03115 -0.109571,-0.04297 -0.06338,-0.01289 -0.149316,-0.01289 h -0.250293 v 0.603711 h 0.214844 q 0.100976,0 0.176172,-0.01719 0.0752,-0.01826 0.127832,-0.0666 0.04834,-0.04512 0.0709,-0.103125 0.02363,-0.05908 0.02363,-0.149316 z m 1.964746,1.149414 h -0.22666 l -0.156836,-0.445801 h -0.691797 l -0.156836,0.445801 H 18.42583 l 0.582226,-1.599512 h 0.283594 z m -0.449024,-0.628418 -0.280371,-0.785254 -0.281445,0.785254 z m 2.116211,0.628418 H 21.328369 V 44.77986 l -0.444727,0.937793 H 20.756885 L 20.315381,44.77986 v 1.378223 H 20.11665 v -1.599512 h 0.290039 l 0.426465,0.890528 0.4125,-0.890528 h 0.29541 z m 2.152735,0 h -0.865821 v -0.163281 h 0.333008 v -1.072071 h -0.333008 v -0.146093 q 0.06768,0 0.14502,-0.01074 0.07734,-0.01182 0.11709,-0.0333 0.04941,-0.02686 0.07734,-0.06768 0.029,-0.04189 0.0333,-0.111719 h 0.166504 v 1.441602 h 0.326563 z"
     id="text5"
     style="font-size:2.2px;text-anchor:middle;fill:#888888"
     aria-label="PARAM 1" />
  <path
     d="m 68.746838,45.055933 q 0,0.106347 -0.0376,0.197656 -0.03652,0.09023 -0.103125,0.156836 -0.08272,0.08272 -0.195508,0.124609 -0.112793,0.04082 -0.284668,0.04082 h -0.212693 v 0.596192 h -0.212695 v -1.599512 h 0.433984 q 0.143946,0 0.243848,0.02471 0.0999,0.02363 0.177246,0.0752 0.09131,0.06123 0.140723,0.152539 0.05049,0.09131 0.05049,0.230957 z m -0.221289,0.0054 q 0,-0.08272 -0.029,-0.143946 -0.029,-0.06123 -0.08809,-0.0999 -0.05156,-0.0333 -0.118164,-0.04726 -0.06553,-0.01504 -0.166504,-0.01504 h -0.210547 v 0.639161 h 0.179395 q 0.128906,0 0.209473,-0.02256 0.08057,-0.02363 0.131054,-0.07412 0.05049,-0.05156 0.0709,-0.108496 0.02148,-0.05693 0.02148,-0.127832 z m 1.709082,1.110713 h -0.22666 l -0.156836,-0.445801 h -0.691797 l -0.156836,0.445801 h -0.215918 l 0.582227,-1.599512 h 0.283594 z m -0.449023,-0.628418 -0.280371,-0.785254 -0.281446,0.785254 z m 2.015234,0.628418 H 71.524768 L 70.989807,45.536108 H 70.6901 v 0.635938 h -0.212695 v -1.599512 h 0.447949 q 0.145019,0 0.241699,0.01934 0.09668,0.01826 0.174023,0.0666 0.08701,0.05478 0.135352,0.138574 0.04941,0.08272 0.04941,0.210547 0,0.172949 -0.08701,0.290039 -0.08701,0.116016 -0.23955,0.175098 z m -0.497363,-1.149414 q 0,-0.06875 -0.02471,-0.121387 -0.02363,-0.05371 -0.07949,-0.09023 -0.04619,-0.03115 -0.109571,-0.04297 -0.06338,-0.01289 -0.149316,-0.01289 h -0.250293 v 0.603711 h 0.214844 q 0.100976,0 0.176172,-0.01719 0.0752,-0.01826 0.127832,-0.0666 0.04834,-0.04512 0.0709,-0.103125 0.02363,-0.05908 0.02363,-0.149316 z m 1.964746,1.149414 h -0.22666 l -0.156836,-0.445801 h -0.691797 l -0.156836,0.445801 h -0.215918 l 0.582226,-1.599512 h 0.283594 z m -0.449024,-0.628418 -0.280371,-0.785254 -0.281445,0.785254 z m 2.116211,0.628418 h -0.212695 v -1.378223 l -0.444727,0.937793 h -0.126757 l -0.441504,-0.937793 v 1.378223 h -0.198731 v -1.599512 h 0.290039 l 0.426465,0.890528 0.4125,-0.890528 h 0.29541 z m 2.244043,0 h -1.082812 v -0.224512 q 0.112793,-0.09668 0.225586,-0.193359 0.113867,-0.09668 0.211621,-0.192285 0.20625,-0.199805 0.282519,-0.316895 0.07627,-0.118164 0.07627,-0.25459 0,-0.124609 -0.08272,-0.194433 -0.08164,-0.0709 -0.228808,-0.0709 -0.09775,0 -0.211622,0.03437 -0.113867,0.03438 -0.222363,0.105274 h -0.01074 v -0.22558 q 0.07627,-0.0376 0.203027,-0.06875 0.127832,-0.03115 0.247071,-0.03115 0.245996,0 0.385644,0.119239 0.139649,0.118164 0.139649,0.321191 0,0.09131 -0.02363,0.170801 -0.02256,0.07842 -0.06768,0.149316 -0.04189,0.0666 -0.09883,0.131055 -0.05586,0.06445 -0.136426,0.142871 -0.114941,0.112793 -0.237402,0.219141 -0.122461,0.105273 -0.228809,0.195508 h 0.860449 z"
     id="text6"
     style="font-size:2.2px;text-anchor:middle;fill:#888888"
     aria-label="PARAM 2" />
  <path
     d="m 11.767773,120 h -0.516796 v -0.13359 h 0.171386 v -1.04151 h -0.171386 v -0.13359 h 0.516796 v 0.13359 h -0.171386 v 1.04151 h 0.171386 z m 1.294629,0 H 12.84707 l -0.620507,-1.1707 V 120 h -0.162598 v -1.30869 h 0.269824 l 0.566016,1.06875 v -1.06875 h 0.162597 z m 1.808789,0 h -0.827929 v -1.30869 h 0.174023 v 1.154 h 0.653906 z"
     id="text7"
     style="font-size:1.8px;text-anchor:middle;fill:#666666"
     aria-label="IN L" />
  <path
     d="m 28.642969,120 h -0.516797 v -0.13359 h 0.171387 v -1.04151 h -0.171387 v -0.13359 h 0.516797 v 0.13359 h -0.171387 v 1.04151 h 0.171387 z m 1.294629,0 h -0.215332 l -0.620508,-1.1707 V 120 H 28.93916 v -1.30869 h 0.269824 l 0.566016,1.06875 v -1.06875 h 0.162598 z m 2.063671,0 h -0.225878 l -0.437696,-0.52031 H 31.09248 V 120 h -0.174023 v -1.30869 h 0.366504 q 0.118652,0 0.197754,0.0158 0.0791,0.0149 0.142383,0.0545 0.07119,0.0448 0.110742,0.11338 0.04043,0.0677 0.04043,0.17227 0,0.1415 -0.07119,0.2373 -0.07119,0.0949 -0.195996,0.14326 z m -0.406933,-0.94043 q 0,-0.0562 -0.02021,-0.0993 -0.01934,-0.0439 -0.06504,-0.0738 -0.03779,-0.0255 -0.08965,-0.0352 -0.05185,-0.0105 -0.122167,-0.0105 H 31.09248 v 0.49395 h 0.175782 q 0.08262,0 0.14414,-0.0141 0.06152,-0.0149 0.10459,-0.0545 0.03955,-0.0369 0.05801,-0.0844 0.01934,-0.0483 0.01934,-0.12217 z"
     id="text8"
     style="font-size:1.8px;text-anchor:middle;fill:#666666"
     aria-label="IN R" />
  <path
     d="m 59.412256,118.8416 q 0.07998,0.0879 0.122168,0.21533 0.04307,0.12745 0.04307,0.28916 0,0.16172 -0.04395,0.29004 -0.04307,0.12744 -0.121289,0.2127 -0.08086,0.0888 -0.191602,0.13359 -0.109863,0.0448 -0.251367,0.0448 -0.137988,0 -0.251367,-0.0457 -0.1125,-0.0457 -0.191602,-0.13271 -0.0791,-0.087 -0.122168,-0.21358 -0.04219,-0.12656 -0.04219,-0.28916 0,-0.15996 0.04219,-0.28652 0.04219,-0.12744 0.123047,-0.21797 0.07734,-0.0861 0.191602,-0.13183 0.115137,-0.0457 0.250488,-0.0457 0.140625,0 0.252246,0.0466 0.1125,0.0457 0.190723,0.13096 z m -0.01582,0.50449 q 0,-0.25488 -0.114258,-0.39287 -0.114258,-0.13886 -0.312012,-0.13886 -0.199512,0 -0.313769,0.13886 -0.113379,0.13799 -0.113379,0.39287 0,0.25752 0.116015,0.39463 0.116016,0.13623 0.311133,0.13623 0.195117,0 0.310254,-0.13623 0.116016,-0.13711 0.116016,-0.39463 z m 1.442285,0.12832 q 0,0.14239 -0.03164,0.24873 -0.03076,0.10547 -0.101953,0.17579 -0.06768,0.0668 -0.158203,0.0976 -0.09053,0.0308 -0.210938,0.0308 -0.123047,0 -0.214453,-0.0325 -0.09141,-0.0325 -0.153808,-0.0958 -0.07119,-0.0721 -0.102832,-0.17403 -0.03076,-0.10195 -0.03076,-0.25049 v -0.7831 h 0.174023 v 0.79189 q 0,0.10635 0.01406,0.16787 0.01494,0.0615 0.04922,0.11163 0.03867,0.0571 0.104589,0.0861 0.0668,0.029 0.159961,0.029 0.09404,0 0.159961,-0.0281 0.06592,-0.029 0.105469,-0.087 0.03428,-0.0501 0.04834,-0.11426 0.01494,-0.065 0.01494,-0.16084 v -0.79629 h 0.174024 z M 62.104346,118.846 H 61.636768 V 120 h -0.174024 v -1.154 h -0.467578 v -0.15469 h 1.10918 z M 63.740869,120 h -0.82793 v -1.30869 h 0.174024 v 1.154 h 0.653906 z"
     id="text9"
     style="font-size:1.8px;text-anchor:middle;fill:#666666"
     aria-label="OUT L" />
  <path
     d="m 76.287451,118.8416 q 0.07998,0.0879 0.122168,0.21533 0.04307,0.12745 0.04307,0.28916 0,0.16172 -0.04395,0.29004 -0.04307,0.12744 -0.121289,0.2127 -0.08086,0.0888 -0.191601,0.13359 -0.109864,0.0448 -0.251368,0.0448 -0.137988,0 -0.251367,-0.0457 -0.1125,-0.0457 -0.191601,-0.13271 -0.0791,-0.087 -0.122168,-0.21358 -0.04219,-0.12656 -0.04219,-0.28916 0,-0.15996 0.04219,-0.28652 0.04219,-0.12744 0.123047,-0.21797 0.07734,-0.0861 0.191601,-0.13183 0.115137,-0.0457 0.250488,-0.0457 0.140625,0 0.252247,0.0466 0.1125,0.0457 0.190722,0.13096 z m -0.01582,0.50449 q 0,-0.25488 -0.114258,-0.39287 -0.114258,-0.13886 -0.312012,-0.13886 -0.199511,0 -0.313769,0.13886 -0.113379,0.13799 -0.113379,0.39287 0,0.25752 0.116016,0.39463 0.116015,0.13623 0.311132,0.13623 0.195118,0 0.310254,-0.13623 0.116016,-0.13711 0.116016,-0.39463 z m 1.442285,0.12832 q 0,0.14239 -0.03164,0.24873 -0.03076,0.10547 -0.101953,0.17579 -0.06768,0.0668 -0.158203,0.0976 -0.09053,0.0308 -0.210937,0.0308 -0.123047,0 -0.214453,-0.0325 -0.09141,-0.0325 -0.153809,-0.0958 -0.07119,-0.0721 -0.102832,-0.17403 -0.03076,-0.10195 -0.03076,-0.25049 v -0.7831 h 0.174024 v 0.79189 q 0,0.10635 0.01406,0.16787 0.01494,0.0615 0.04922,0.11163 0.03867,0.0571 0.10459,0.0861 0.0668,0.029 0.159961,0.029 0.09404,0 0.159961,-0.0281 0.06592,-0.029 0.105468,-0.087 0.03428,-0.0501 0.04834,-0.11426 0.01494,-0.065 0.01494,-0.16084 v -0.79629 h 0.174023 z M 78.979541,118.846 H 78.511963 V 120 h -0.174024 v -1.154 h -0.467578 v -0.15469 h 1.10918 z M 80.870947,120 h -0.225879 l -0.437695,-0.52031 H 79.962158 V 120 h -0.174023 v -1.30869 h 0.366503 q 0.118653,0 0.197754,0.0158 0.0791,0.0149 0.142383,0.0545 0.07119,0.0448 0.110742,0.11338 0.04043,0.0677 0.04043,0.17227 0,0.1415 -0.07119,0.2373 -0.07119,0.0949 -0.195996,0.14326 z m -0.406934,-0.94043 q 0,-0.0562 -0.02021,-0.0993 -0.01934,-0.0439 -0.06504,-0.0738 -0.03779,-0.0255 -0.08965,-0.0352 -0.05186,-0.0105 -0.122168,-0.0105 h -0.204785 v 0.49395 h 0.175781 q 0.08262,0 0.144141,-0.0141 0.06152,-0.0149 0.10459,-0.0545 0.03955,-0.0369 0.05801,-0.0844 0.01933,-0.0483 0.01933,-0.12217 z"
     id="text10"
     style="font-size:1.8px;text-anchor:middle;fill:#666666"
     aria-label="OUT R" />
  <path
     d="m 32.120399,2.4450622 c -0.769056,0 -1.382889,0.6208893 -1.382889,1.3899454 V 6.523176 h 0.599722 V 3.8350076 c 0,-0.4374447 0.352778,-0.7902227 0.783167,-0.7902227 h 0.649112 V 2.4450622 Z m 6.046607,2.0320014 c 0,-1.1782786 -0.959556,-2.1378348 -2.137834,-2.1378348 -1.185334,0 -2.137835,0.9595562 -2.137835,2.1378348 0,1.1853341 0.952501,2.1378347 2.137835,2.1378347 0.522111,0 0.994834,-0.1834446 1.368778,-0.4938892 L 36.967561,5.6906199 c -0.261056,0.2046112 -0.585611,0.3245558 -0.938389,0.3245558 -0.783168,0 -1.432279,-0.5926671 -1.524001,-1.347612 h 3.65478 c 0,-0.0635 0.0071,-0.1270001 0.0071,-0.1905001 z M 34.547504,4.0607855 c 0.183445,-0.642056 0.776112,-1.121834 1.481668,-1.121834 0.6985,0 1.298223,0.479778 1.474612,1.121834 z M 43.162329,2.4450622 41.497217,5.6765088 39.832104,2.4450622 h -0.656167 l 2.074335,4.0710582 h 0.486834 l 2.08139,-4.0710582 z m 5.961956,2.0320014 c 0,-1.1782786 -0.959556,-2.1378348 -2.137835,-2.1378348 -1.185334,0 -2.137834,0.9595562 -2.137834,2.1378348 0,1.1853341 0.9525,2.1378347 2.137834,2.1378347 0.522112,0 0.994834,-0.1834446 1.368779,-0.4938892 L 47.92484,5.6906199 c -0.261056,0.2046112 -0.585612,0.3245558 -0.93839,0.3245558 -0.783167,0 -1.432278,-0.5926671 -1.524001,-1.347612 h 3.654781 c 0,-0.0635 0.0071,-0.1270001 0.0071,-0.1905001 z M 45.504783,4.0607855 c 0.183444,-0.642056 0.776111,-1.121834 1.481667,-1.121834 0.698501,0 1.298223,0.479778 1.474612,1.121834 z m 6.540495,-1.6157233 c -0.769056,0 -1.382889,0.6208893 -1.382889,1.3899454 V 6.523176 h 0.599722 V 3.8350076 c 0,-0.4374447 0.352778,-0.7902227 0.783167,-0.7902227 H 52.69439 V 2.4450622 Z m 2.441219,-1.185334 c -0.232834,0 -0.416278,0.1905001 -0.416278,0.4233336 0,0.2328334 0.183444,0.416278 0.416278,0.416278 0.232833,0 0.416278,-0.1905001 0.416278,-0.416278 0,-0.2328335 -0.183445,-0.4233336 -0.416278,-0.4233336 z M 54.775775,6.523176 V 2.4450622 H 54.190163 V 6.523176 Z m 5.926672,-2.0461124 c 0,-1.1782786 -0.959556,-2.1378348 -2.137834,-2.1378348 -1.185335,0 -2.137835,0.9595562 -2.137835,2.1378348 0,1.1853341 0.9525,2.1378347 2.137835,2.1378347 0.522111,0 0.994834,-0.1834446 1.368778,-0.4938892 L 59.503002,5.6906199 c -0.261056,0.2046112 -0.585611,0.3245558 -0.938389,0.3245558 -0.783168,0 -1.432279,-0.5926671 -1.524001,-1.347612 h 3.65478 c 0,-0.0635 0.0071,-0.1270001 0.0071,-0.1905001 z M 57.082945,4.0607855 c 0.183445,-0.642056 0.776112,-1.121834 1.481668,-1.121834 0.6985,0 1.298223,0.479778 1.474612,1.121834 z"
     id="text11"
     style="font-weight:600;font-size:7.05556px;line-height:0;font-family:Neokurat;-inkscape-font-specification:'Neokurat, Semi-Bold';text-align:center;letter-spacing:1.05833px;word-spacing:0.132292px;text-anchor:middle;opacity:0.900489;fill:#eedcbb;fill-opacity:0.890196;fill-rule:evenodd;stroke-width:0.1;stroke-linecap:round;stroke-linejoin:round;stroke-opacity:0.631373;paint-order:fill markers stroke"
     aria-label="reverie" />
  <path
     style="font-weight:600;font-size:2.82222px;line-height:0;font-family:Neokurat;-inkscape-font-specification:'Neokurat, Semi-Bold';text-align:center;letter-spacing:0.529167px;word-spacing:0.79375px;text-anchor:middle;opacity:0.948225;fill:#fefcf9;fill-opacity:0.89019603;fill-rule:evenodd;stroke-width:0.04;stroke-linecap:round;stroke-linejoin:round;stroke-opacity:0.898039;paint-order:fill markers stroke"
     d="m 35.556499,126.2001 c -0.163689,-0.0705 -0.285044,-0.10724 -0.434622,-0.14111 -0.206022,-0.048 -0.400755,-0.127 -0.400755,-0.29351 0,-0.0169 0.0028,-0.0339 0.0056,-0.0508 0.03104,-0.15804 0.220134,-0.26811 0.437445,-0.27093 0.0028,0 0.0028,0 0.0056,0 0.180622,0 0.372533,0.0621 0.510822,0.2032 l 0.174977,-0.16369 c -0.121355,-0.13547 -0.386644,-0.27375 -0.680155,-0.27375 -0.0056,0 -0.01129,0.003 -0.01693,0.003 -0.454377,0.006 -0.660399,0.30197 -0.680155,0.48823 -0.0028,0.0169 -0.0056,0.0367 -0.0056,0.0536 0,0.2286 0.180622,0.42898 0.462844,0.50518 0.183444,0.0508 0.333022,0.079 0.530577,0.16087 0.09596,0.0423 0.194733,0.11571 0.194733,0.24553 0,0.0254 -0.0028,0.0536 -0.01129,0.0819 -0.05644,0.1778 -0.253999,0.254 -0.437444,0.26246 -0.01129,0.003 -0.0254,0.003 -0.03669,0.003 -0.259644,0 -0.533399,-0.11571 -0.62371,-0.22577 l -0.191911,0.15522 c 0.149577,0.19473 0.536222,0.30762 0.82691,0.30762 0.285045,0 0.612422,-0.13547 0.697089,-0.43744 0.01693,-0.0508 0.02258,-0.1016 0.02258,-0.14676 0,-0.2032 -0.124177,-0.37253 -0.349955,-0.46567 z m 2.473677,-0.94826 v 0.76764 h -1.114777 v -0.76764 h -0.239888 v 1.9558 h 0.239888 v -0.94827 h 1.114777 v 0.94827 h 0.239889 v -1.9558 z m 1.948742,-0.0395 -1.018822,1.9953 h 0.268111 l 0.333022,-0.65194 h 0.832555 l 0.333022,0.65194 h 0.270933 z m -0.299156,1.11476 0.299156,-0.58701 0.299155,0.58701 z m 3.385253,-0.9285 c -0.112888,-0.0903 -0.259644,-0.14675 -0.417688,-0.14675 h -0.959555 v 1.9558 h 0.239889 v -0.61807 h 0.719666 c 0.369711,0 0.668866,-0.29915 0.668866,-0.66886 0,-0.21167 -0.09878,-0.39794 -0.251178,-0.52212 z m 0.01129,0.52212 c 0,0.23706 -0.191911,0.42897 -0.428977,0.42897 h -0.719666 v -0.85513 h 0.719666 c 0.237066,0 0.428977,0.19191 0.428977,0.42616 z m 1.231901,1.04704 v -0.6604 h 1.03011 v -0.23989 h -1.03011 v -0.57291 h 1.219199 v -0.24271 h -1.459088 v 1.9558 h 1.498599 v -0.23989 z m 1.849967,-1.71591 v 0.24271 h 0.694267 v 1.71308 h 0.239888 v -1.71308 h 0.694266 v -0.24271 z m 2.865963,-0.0395 -1.018821,1.9953 h 0.268111 l 0.333022,-0.65193 h 0.832555 l 0.333022,0.65193 h 0.270933 z m -0.299155,1.11477 0.299155,-0.58702 0.299156,0.58702 z m 2.727676,-0.0931 0.97931,-0.98214 h -0.341488 l -0.809977,0.80998 -0.307622,-0.30762 v -0.50236 h -0.242711 v 1.95581 h 0.242711 v -1.11478 l 1.114777,1.11478 h 0.341488 z m 1.920522,0.73378 v -0.66041 h 1.03011 v -0.23989 h -1.03011 v -0.57291 h 1.219199 v -0.24276 h -1.459089 v 1.9558 h 1.498599 v -0.23989 z m 3.706988,0.23989 -0.451555,-0.44874 c 0.231422,-0.14393 0.383822,-0.39793 0.383822,-0.69144 0,-0.44873 -0.364067,-0.81562 -0.815622,-0.81562 h -0.812799 v 1.95862 h 0.239889 v -1.13453 l 1.13171,1.13453 z m -0.307622,-1.14018 c 0,0.20038 -0.110066,0.40922 -0.318911,0.51647 l -0.829732,-0.82974 v -0.25964 h 0.57291 c 0.316089,0 0.575733,0.25682 0.575733,0.57291 z"
     id="text6-7"
     aria-label="SHPETE" />
  <path
     style="baseline-shift:baseline;display:inline;overflow:visible;vector-effect:none;fill:#eedcbb;fill-opacity:0.890196;fill-rule:evenodd;stroke-linecap:round;stroke-linejoin:round;stroke-dasharray:0.0875131, 1.05016;paint-order:fill markers stroke;enable-background:accumulate;stop-color:#000000;stop-opacity:1;opacity:0.743883"
     d="m 15,52.572266 a 0.04375655,0.04375655 0 0 0 -0.04297,0.04297 v 0.08789 A 0.04375655,0.04375655 0 0 0 15,52.748047 a 0.04375655,0.04375655 0 0 0 0.04297,-0.04492 v -0.08789 A 0.04375655,0.04375655 0 0 0 15,52.572266 Z m 0,1.138671 a 0.04375655,0.04375655 0 0 0 -0.04297,0.04297 v 0.08789 A 0.04375655,0.04375655 0 0 0 15,53.884766 a 0.04375655,0.04375655 0 0 0 0.04297,-0.04297 v -0.08789 A 0.04375655,0.04375655 0 0 0 15,53.710937 Z m 0,1.136719 a 0.04375655,0.04375655 0 0 0 -0.04297,0.04297 v 0.08789 A 0.04375655,0.04375655 0 0 0 15,55.023437 a 0.04375655,0.04375655 0 0 0 0.04297,-0.04492 v -0.08789 A 0.04375655,0.04375655 0 0 0 15,54.847656 Z m 0,1.138672 a 0.04375655,0.04375655 0 0 0 -0.04297,0.04297 v 0.08789 A 0.04375655,0.04375655 0 0 0 15,56.160156 a 0.04375655,0.04375655 0 0 0 0.04297,-0.04297 v -0.08789 A 0.04375655,0.04375655 0 0 0 15,55.986328 Z m 0,1.136719 a 0.04375655,0.04375655 0 0 0 -0.04297,0.04297 v 0.08789 A 0.04375655,0.04375655 0 0 0 15,57.298828 a 0.04375655,0.04375655 0 0 0 0.04297,-0.04492 v -0.08789 A 0.04375655,0.04375655 0 0 0 15,57.123047 Z m 0,1.138672 a 0.04375655,0.04375655 0 0 0 -0.04297,0.04297 v 0.08789 A 0.04375655,0.04375655 0 0 0 15,58.435547 a 0.04375655,0.04375655 0 0 0 0.04297,-0.04297 v -0.08789 A 0.04375655,0.04375655 0 0 0 15,58.261719 Z m 0,1.136718 a 0.04375655,0.04375655 0 0 0 -0.04297,0.04297 v 0.08789 A 0.04375655,0.04375655 0 0 0 15,59.574219 a 0.04375655,0.04375655 0 0 0 0.04297,-0.04492 v -0.08789 A 0.04375655,0.04375655 0 0 0 15,59.398437 Z m 0,1.136719 a 0.04375655,0.04375655 0 0 0 -0.04297,0.04492 v 0.08789 A 0.04375655,0.04375655 0 0 0 15,60.710937 a 0.04375655,0.04375655 0 0 0 0.04297,-0.04297 v -0.08789 A 0.04375655,0.04375655 0 0 0 15,60.535156 Z m 0,1.138672 a 0.04375655,0.04375655 0 0 0 -0.04297,0.04297 v 0.08789 A 0.04375655,0.04375655 0 0 0 15,61.849609 a 0.04375655,0.04375655 0 0 0 0.04297,-0.04492 v -0.08789 A 0.04375655,0.04375655 0 0 0 15,61.673828 Z m 0,1.136719 a 0.04375655,0.04375655 0 0 0 -0.04297,0.04492 v 0.08789 A 0.04375655,0.04375655 0 0 0 15,62.986328 a 0.04375655,0.04375655 0 0 0 0.04297,-0.04297 v -0.08789 A 0.04375655,0.04375655 0 0 0 15,62.810547 Z m 0,1.138672 a 0.04375655,0.04375655 0 0 0 -0.04297,0.04297 v 0.08789 A 0.04375655,0.04375655 0 0 0 15,64.125 a 0.04375655,0.04375655 0 0 0 0.04297,-0.04492 v -0.08789 A 0.04375655,0.04375655 0 0 0 15,63.949219 Z m 0,1.136718 a 0.04375655,0.04375655 0 0 0 -0.04297,0.04492 v 0.08789 A 0.04375655,0.04375655 0 0 0 15,65.261719 a 0.04375655,0.04375655 0 0 0 0.04297,-0.04297 v -0.08789 A 0.04375655,0.04375655 0 0 0 15,65.085937 Z m 0,1.138672 a 0.04375655,0.04375655 0 0 0 -0.04297,0.04297 v 0.08789 A 0.04375655,0.04375655 0 0 0 15,66.400391 a 0.04375655,0.04375655 0 0 0 0.04297,-0.04492 v -0.08789 A 0.04375655,0.04375655 0 0 0 15,66.224609 Z m 0,1.136719 a 0.04375655,0.04375655 0 0 0 -0.04297,0.04492 v 0.08789 A 0.04375655,0.04375655 0 0 0 15,67.537109 a 0.04375655,0.04375655 0 0 0 0.04297,-0.04297 V 67.40625 A 0.04375655,0.04375655 0 0 0 15,67.361328 Z M 15,68.5 a 0.04375655,0.04375655 0 0 0 -0.04297,0.04297 v 0.08789 A 0.04375655,0.04375655 0 0 0 15,68.675781 a 0.04375655,0.04375655 0 0 0 0.04297,-0.04492 v -0.08789 A 0.04375655,0.04375655 0 0 0 15,68.5 Z m 0,1.136719 a 0.04375655,0.04375655 0 0 0 -0.04297,0.04492 v 0.08789 A 0.04375655,0.04375655 0 0 0 15,69.8125 a 0.04375655,0.04375655 0 0 0 0.04297,-0.04297 v -0.08789 A 0.04375655,0.04375655 0 0 0 15,69.636719 Z m 0,1.138672 a 0.04375655,0.04375655 0 0 0 -0.04297,0.04297 v 0.08789 A 0.04375655,0.04375655 0 0 0 15,70.949219 a 0.04375655,0.04375655 0 0 0 0.04297,-0.04297 v -0.08789 A 0.04375655,0.04375655 0 0 0 15,70.775391 Z m 0,1.136718 a 0.04375655,0.04375655 0 0 0 -0.04297,0.04492 v 0.08789 A 0.04375655,0.04375655 0 0 0 15,72.087891 a 0.04375655,0.04375655 0 0 0 0.04297,-0.04297 v -0.08789 A 0.04375655,0.04375655 0 0 0 15,71.912109 Z m 0,1.138672 a 0.04375655,0.04375655 0 0 0 -0.04297,0.04297 v 0.08789 A 0.04375655,0.04375655 0 0 0 15,73.224609 a 0.04375655,0.04375655 0 0 0 0.04297,-0.04297 V 73.09375 A 0.04375655,0.04375655 0 0 0 15,73.050781 Z"
     id="path12" />
  <path
     style="baseline-shift:baseline;display:inline;overflow:visible;vector-effect:none;fill:#eedcbb;fill-opacity:0.890196;fill-rule:evenodd;stroke-linecap:round;stroke-linejoin:round;stroke-dasharray:0.0887474, 1.06497;paint-order:fill markers stroke;enable-background:accumulate;stop-color:#000000;stop-opacity:1;opacity:0.743883"
     d="m 75.744141,52.435547 a 0.0443737,0.0443737 0 0 0 -0.04297,0.04492 v 0.08789 a 0.0443737,0.0443737 0 0 0 0.04297,0.04492 0.0443737,0.0443737 0 0 0 0.04492,-0.04492 v -0.08789 a 0.0443737,0.0443737 0 0 0 -0.04492,-0.04492 z m 0,1.154297 a 0.0443737,0.0443737 0 0 0 -0.04297,0.04297 v 0.08984 a 0.0443737,0.0443737 0 0 0 0.04297,0.04492 0.0443737,0.0443737 0 0 0 0.04492,-0.04492 v -0.08984 a 0.0443737,0.0443737 0 0 0 -0.04492,-0.04297 z m 0,1.152343 a 0.0443737,0.0443737 0 0 0 -0.04297,0.04492 v 0.08984 a 0.0443737,0.0443737 0 0 0 0.04297,0.04297 0.0443737,0.0443737 0 0 0 0.04492,-0.04297 v -0.08984 a 0.0443737,0.0443737 0 0 0 -0.04492,-0.04492 z m 0,1.154297 a 0.0443737,0.0443737 0 0 0 -0.04297,0.04492 v 0.08789 a 0.0443737,0.0443737 0 0 0 0.04297,0.04492 0.0443737,0.0443737 0 0 0 0.04492,-0.04492 v -0.08789 a 0.0443737,0.0443737 0 0 0 -0.04492,-0.04492 z m 0,1.154297 a 0.0443737,0.0443737 0 0 0 -0.04297,0.04297 v 0.08984 a 0.0443737,0.0443737 0 0 0 0.04297,0.04492 0.0443737,0.0443737 0 0 0 0.04492,-0.04492 v -0.08984 a 0.0443737,0.0443737 0 0 0 -0.04492,-0.04297 z m 0,1.152344 a 0.0443737,0.0443737 0 0 0 -0.04297,0.04492 v 0.08984 a 0.0443737,0.0443737 0 0 0 0.04297,0.04297 0.0443737,0.0443737 0 0 0 0.04492,-0.04297 v -0.08984 a 0.0443737,0.0443737 0 0 0 -0.04492,-0.04492 z m 0,1.154297 a 0.0443737,0.0443737 0 0 0 -0.04297,0.04492 v 0.08789 a 0.0443737,0.0443737 0 0 0 0.04297,0.04492 0.0443737,0.0443737 0 0 0 0.04492,-0.04492 v -0.08789 a 0.0443737,0.0443737 0 0 0 -0.04492,-0.04492 z m 0,1.154297 a 0.0443737,0.0443737 0 0 0 -0.04297,0.04492 v 0.08789 a 0.0443737,0.0443737 0 0 0 0.04297,0.04492 0.0443737,0.0443737 0 0 0 0.04492,-0.04492 v -0.08789 a 0.0443737,0.0443737 0 0 0 -0.04492,-0.04492 z m 0,1.154297 a 0.0443737,0.0443737 0 0 0 -0.04297,0.04297 v 0.08984 a 0.0443737,0.0443737 0 0 0 0.04297,0.04297 0.0443737,0.0443737 0 0 0 0.04492,-0.04297 v -0.08984 a 0.0443737,0.0443737 0 0 0 -0.04492,-0.04297 z m 0,1.152343 a 0.0443737,0.0443737 0 0 0 -0.04297,0.04492 v 0.08789 a 0.0443737,0.0443737 0 0 0 0.04297,0.04492 0.0443737,0.0443737 0 0 0 0.04492,-0.04492 v -0.08789 a 0.0443737,0.0443737 0 0 0 -0.04492,-0.04492 z m 0,1.154297 a 0.0443737,0.0443737 0 0 0 -0.04297,0.04492 v 0.08789 a 0.0443737,0.0443737 0 0 0 0.04297,0.04492 0.0443737,0.0443737 0 0 0 0.04492,-0.04492 v -0.08789 a 0.0443737,0.0443737 0 0 0 -0.04492,-0.04492 z m 0,1.154297 a 0.0443737,0.0443737 0 0 0 -0.04297,0.04297 v 0.08984 a 0.0443737,0.0443737 0 0 0 0.04297,0.04492 0.0443737,0.0443737 0 0 0 0.04492,-0.04492 v -0.08984 a 0.0443737,0.0443737 0 0 0 -0.04492,-0.04297 z m 0,1.152344 a 0.0443737,0.0443737 0 0 0 -0.04297,0.04492 v 0.08984 a 0.0443737,0.0443737 0 0 0 0.04297,0.04297 0.0443737,0.0443737 0 0 0 0.04492,-0.04297 v -0.08984 a 0.0443737,0.0443737 0 0 0 -0.04492,-0.04492 z m 0,1.154297 a 0.0443737,0.0443737 0 0 0 -0.04297,0.04492 v 0.08789 a 0.0443737,0.0443737 0 0 0 0.04297,0.04492 0.0443737,0.0443737 0 0 0 0.04492,-0.04492 v -0.08789 a 0.0443737,0.0443737 0 0 0 -0.04492,-0.04492 z m 0,1.154297 a 0.0443737,0.0443737 0 0 0 -0.04297,0.04492 v 0.08789 a 0.0443737,0.0443737 0 0 0 0.04297,0.04492 0.0443737,0.0443737 0 0 0 0.04492,-0.04492 v -0.08789 a 0.0443737,0.0443737 0 0 0 -0.04492,-0.04492 z m 0,1.154296 a 0.0443737,0.0443737 0 0 0 -0.04297,0.04297 V 69.875 a 0.0443737,0.0443737 0 0 0 0.04297,0.04297 0.0443737,0.0443737 0 0 0 0.04492,-0.04297 v -0.08984 a 0.0443737,0.0443737 0 0 0 -0.04492,-0.04297 z m 0,1.152344 a 0.0443737,0.0443737 0 0 0 -0.04297,0.04492 v 0.08789 a 0.0443737,0.0443737 0 0 0 0.04297,0.04492 0.0443737,0.0443737 0 0 0 0.04492,-0.04492 v -0.08789 a 0.0443737,0.0443737 0 0 0 -0.04492,-0.04492 z m 0,1.154297 a 0.0443737,0.0443737 0 0 0 -0.04297,0.04492 v 0.08789 a 0.0443737,0.0443737 0 0 0 0.04297,0.04492 0.0443737,0.0443737 0 0 0 0.04492,-0.04492 v -0.08789 a 0.0443737,0.0443737 0 0 0 -0.04492,-0.04492 z"
     id="path13" />
  <path
     style="baseline-shift:baseline;display:inline;overflow:visible;vector-effect:none;fill:#eedcbb;fill-opacity:0.890196;fill-rule:evenodd;stroke-linecap:round;stroke-linejoin:round;stroke-dasharray:0.1, 0.799999;paint-order:fill markers stroke;enable-background:accumulate;stop-color:#000000;stop-opacity:1;opacity:0.743883"
     d="m 11.337891,75.544922 a 0.05,0.05 0 0 0 -0.05078,0.04883 v 0.101562 a 0.05,0.05 0 0 0 0.05078,0.04883 0.05,0.05 0 0 0 0.04883,-0.04883 V 75.59375 a 0.05,0.05 0 0 0 -0.04883,-0.04883 z m 0,0.90039 a 0.05,0.05 0 0 0 -0.05078,0.04883 v 0.09961 a 0.05,0.05 0 0 0 0.05078,0.05078 0.05,0.05 0 0 0 0.04883,-0.05078 v -0.09961 a 0.05,0.05 0 0 0 -0.04883,-0.04883 z m 0,0.898438 a 0.05,0.05 0 0 0 -0.05078,0.05078 v 0.09961 a 0.05,0.05 0 0 0 0.05078,0.05078 0.05,0.05 0 0 0 0.04883,-0.05078 v -0.09961 a 0.05,0.05 0 0 0 -0.04883,-0.05078 z m 0,0.900391 a 0.05,0.05 0 0 0 -0.05078,0.05078 v 0.09961 a 0.05,0.05 0 0 0 0.05078,0.05078 0.05,0.05 0 0 0 0.04883,-0.05078 v -0.09961 a 0.05,0.05 0 0 0 -0.04883,-0.05078 z m 0,0.90039 a 0.05,0.05 0 0 0 -0.05078,0.05078 v 0.09961 a 0.05,0.05 0 0 0 0.05078,0.04883 0.05,0.05 0 0 0 0.04883,-0.04883 v -0.09961 a 0.05,0.05 0 0 0 -0.04883,-0.05078 z m 0,0.900391 a 0.05,0.05 0 0 0 -0.05078,0.04883 v 0.101562 a 0.05,0.05 0 0 0 0.05078,0.04883 0.05,0.05 0 0 0 0.04883,-0.04883 V 80.09375 a 0.05,0.05 0 0 0 -0.04883,-0.04883 z m 0,0.90039 a 0.05,0.05 0 0 0 -0.05078,0.04883 v 0.09961 a 0.05,0.05 0 0 0 0.05078,0.05078 0.05,0.05 0 0 0 0.04883,-0.05078 v -0.09961 a 0.05,0.05 0 0 0 -0.04883,-0.04883 z m 0,0.898438 a 0.05,0.05 0 0 0 -0.05078,0.05078 v 0.09961 a 0.05,0.05 0 0 0 0.05078,0.05078 0.05,0.05 0 0 0 0.04883,-0.05078 v -0.09961 a 0.05,0.05 0 0 0 -0.04883,-0.05078 z m 0,0.900391 a 0.05,0.05 0 0 0 -0.05078,0.05078 v 0.09961 a 0.05,0.05 0 0 0 0.05078,0.05078 0.05,0.05 0 0 0 0.04883,-0.05078 v -0.09961 a 0.05,0.05 0 0 0 -0.04883,-0.05078 z m 0,0.90039 a 0.05,0.05 0 0 0 -0.05078,0.05078 v 0.09961 a 0.05,0.05 0 0 0 0.05078,0.04883 0.05,0.05 0 0 0 0.04883,-0.04883 v -0.09961 a 0.05,0.05 0 0 0 -0.04883,-0.05078 z m 0,0.900391 a 0.05,0.05 0 0 0 -0.05078,0.04883 v 0.101562 a 0.05,0.05 0 0 0 0.05078,0.04883 0.05,0.05 0 0 0 0.04883,-0.04883 V 84.59375 a 0.05,0.05 0 0 0 -0.04883,-0.04883 z"
     id="path16" />
  <path
     style="baseline-shift:baseline;display:inline;overflow:visible;vector-effect:none;fill:#eedcbb;fill-opacity:0.890196;fill-rule:evenodd;stroke-linecap:round;stroke-linejoin:round;stroke-dasharray:0.1, 0.799999;paint-order:fill markers stroke;enable-background:accumulate;stop-color:#000000;stop-opacity:1;opacity:0.743883"
     d="m 28.029297,88.757812 a 0.05,0.05 0 0 0 -0.05078,0.04883 v 0.09961 a 0.05,0.05 0 0 0 0.05078,0.05078 0.05,0.05 0 0 0 0.04883,-0.05078 v -0.09961 a 0.05,0.05 0 0 0 -0.04883,-0.04883 z m 0,0.898438 a 0.05,0.05 0 0 0 -0.05078,0.05078 v 0.09961 a 0.05,0.05 0 0 0 0.05078,0.05078 0.05,0.05 0 0 0 0.04883,-0.05078 v -0.09961 a 0.05,0.05 0 0 0 -0.04883,-0.05078 z m 0,0.900391 a 0.05,0.05 0 0 0 -0.05078,0.05078 v 0.09961 a 0.05,0.05 0 0 0 0.05078,0.05078 0.05,0.05 0 0 0 0.04883,-0.05078 v -0.09961 a 0.05,0.05 0 0 0 -0.04883,-0.05078 z m 0,0.90039 a 0.05,0.05 0 0 0 -0.05078,0.05078 v 0.09961 a 0.05,0.05 0 0 0 0.05078,0.04883 0.05,0.05 0 0 0 0.04883,-0.04883 v -0.09961 a 0.05,0.05 0 0 0 -0.04883,-0.05078 z m 0,0.900391 a 0.05,0.05 0 0 0 -0.05078,0.04883 v 0.101562 a 0.05,0.05 0 0 0 0.05078,0.04883 0.05,0.05 0 0 0 0.04883,-0.04883 V 92.40625 a 0.05,0.05 0 0 0 -0.04883,-0.04883 z m 0,0.90039 a 0.05,0.05 0 0 0 -0.05078,0.04883 v 0.09961 a 0.05,0.05 0 0 0 0.05078,0.05078 0.05,0.05 0 0 0 0.04883,-0.05078 v -0.09961 a 0.05,0.05 0 0 0 -0.04883,-0.04883 z m 0,0.898438 a 0.05,0.05 0 0 0 -0.05078,0.05078 v 0.09961 a 0.05,0.05 0 0 0 0.05078,0.05078 0.05,0.05 0 0 0 0.04883,-0.05078 v -0.09961 a 0.05,0.05 0 0 0 -0.04883,-0.05078 z m 0,0.900391 a 0.05,0.05 0 0 0 -0.05078,0.05078 v 0.09961 a 0.05,0.05 0 0 0 0.05078,0.05078 0.05,0.05 0 0 0 0.04883,-0.05078 v -0.09961 a 0.05,0.05 0 0 0 -0.04883,-0.05078 z m 0,0.90039 a 0.05,0.05 0 0 0 -0.05078,0.05078 v 0.09961 a 0.05,0.05 0 0 0 0.05078,0.04883 0.05,0.05 0 0 0 0.04883,-0.04883 v -0.09961 a 0.05,0.05 0 0 0 -0.04883,-0.05078 z m 0,0.900391 a 0.05,0.05 0 0 0 -0.05078,0.04883 v 0.101562 a 0.05,0.05 0 0 0 0.05078,0.04883 0.05,0.05 0 0 0 0.04883,-0.04883 V 96.90625 a 0.05,0.05 0 0 0 -0.04883,-0.04883 z"
     id="path17" />
  <path
     style="baseline-shift:baseline;display:inline;overflow:visible;vector-effect:none;fill:#eedcbb;fill-opacity:0.890196;fill-rule:evenodd;stroke-linecap:round;stroke-linejoin:round;stroke-dasharray:0.1, 0.799999;paint-order:fill markers stroke;enable-background:accumulate;stop-color:#000000;stop-opacity:1;opacity:0.743883"
     d="m 63.412109,88.757812 a 0.05,0.05 0 0 0 -0.05078,0.04883 v 0.09961 a 0.05,0.05 0 0 0 0.05078,0.05078 0.05,0.05 0 0 0 0.04883,-0.05078 v -0.09961 a 0.05,0.05 0 0 0 -0.04883,-0.04883 z m 0,0.898438 a 0.05,0.05 0 0 0 -0.05078,0.05078 v 0.09961 a 0.05,0.05 0 0 0 0.05078,0.05078 0.05,0.05 0 0 0 0.04883,-0.05078 v -0.09961 a 0.05,0.05 0 0 0 -0.04883,-0.05078 z m 0,0.900391 a 0.05,0.05 0 0 0 -0.05078,0.05078 v 0.09961 a 0.05,0.05 0 0 0 0.05078,0.05078 0.05,0.05 0 0 0 0.04883,-0.05078 v -0.09961 a 0.05,0.05 0 0 0 -0.04883,-0.05078 z m 0,0.90039 a 0.05,0.05 0 0 0 -0.05078,0.05078 v 0.09961 a 0.05,0.05 0 0 0 0.05078,0.04883 0.05,0.05 0 0 0 0.04883,-0.04883 v -0.09961 a 0.05,0.05 0 0 0 -0.04883,-0.05078 z m 0,0.900391 a 0.05,0.05 0 0 0 -0.05078,0.04883 v 0.101562 a 0.05,0.05 0 0 0 0.05078,0.04883 0.05,0.05 0 0 0 0.04883,-0.04883 V 92.40625 a 0.05,0.05 0 0 0 -0.04883,-0.04883 z m 0,0.90039 a 0.05,0.05 0 0 0 -0.05078,0.04883 v 0.09961 a 0.05,0.05 0 0 0 0.05078,0.05078 0.05,0.05 0 0 0 0.04883,-0.05078 v -0.09961 a 0.05,0.05 0 0 0 -0.04883,-0.04883 z m 0,0.898438 a 0.05,0.05 0 0 0 -0.05078,0.05078 v 0.09961 a 0.05,0.05 0 0 0 0.05078,0.05078 0.05,0.05 0 0 0 0.04883,-0.05078 v -0.09961 a 0.05,0.05 0 0 0 -0.04883,-0.05078 z m 0,0.900391 a 0.05,0.05 0 0 0 -0.05078,0.05078 v 0.09961 a 0.05,0.05 0 0 0 0.05078,0.05078 0.05,0.05 0 0 0 0.04883,-0.05078 v -0.09961 a 0.05,0.05 0 0 0 -0.04883,-0.05078 z m 0,0.90039 a 0.05,0.05 0 0 0 -0.05078,0.05078 v 0.09961 a 0.05,0.05 0 0 0 0.05078,0.04883 0.05,0.05 0 0 0 0.04883,-0.04883 v -0.09961 a 0.05,0.05 0 0 0 -0.04883,-0.05078 z m 0,0.900391 a 0.05,0.05 0 0 0 -0.05078,0.04883 v 0.101562 a 0.05,0.05 0 0 0 0.05078,0.04883 0.05,0.05 0 0 0 0.04883,-0.04883 V 96.90625 a 0.05,0.05 0 0 0 -0.04883,-0.04883 z"
     id="path18" />
  <path
     style="baseline-shift:baseline;display:inline;overflow:visible;vector-effect:none;fill:#eedcbb;fill-opacity:0.890196;fill-rule:evenodd;stroke-linecap:round;stroke-linejoin:round;stroke-dasharray:0.1, 0.799999;paint-order:fill markers stroke;enable-background:accumulate;stop-color:#000000;stop-opacity:1;opacity:0.743883"
     d="m 80.101562,75.544922 a 0.05,0.05 0 0 0 -0.04883,0.04883 v 0.101562 a 0.05,0.05 0 0 0 0.04883,0.04883 0.05,0.05 0 0 0 0.05078,-0.04883 V 75.59375 a 0.05,0.05 0 0 0 -0.05078,-0.04883 z m 0,0.90039 a 0.05,0.05 0 0 0 -0.04883,0.04883 v 0.09961 a 0.05,0.05 0 0 0 0.04883,0.05078 0.05,0.05 0 0 0 0.05078,-0.05078 v -0.09961 a 0.05,0.05 0 0 0 -0.05078,-0.04883 z m 0,0.898438 a 0.05,0.05 0 0 0 -0.04883,0.05078 v 0.09961 a 0.05,0.05 0 0 0 0.04883,0.05078 0.05,0.05 0 0 0 0.05078,-0.05078 v -0.09961 a 0.05,0.05 0 0 0 -0.05078,-0.05078 z m 0,0.900391 a 0.05,0.05 0 0 0 -0.04883,0.05078 v 0.09961 a 0.05,0.05 0 0 0 0.04883,0.05078 0.05,0.05 0 0 0 0.05078,-0.05078 v -0.09961 a 0.05,0.05 0 0 0 -0.05078,-0.05078 z m 0,0.90039 a 0.05,0.05 0 0 0 -0.04883,0.05078 v 0.09961 a 0.05,0.05 0 0 0 0.04883,0.04883 0.05,0.05 0 0 0 0.05078,-0.04883 v -0.09961 a 0.05,0.05 0 0 0 -0.05078,-0.05078 z m 0,0.900391 a 0.05,0.05 0 0 0 -0.04883,0.04883 v 0.101562 a 0.05,0.05 0 0 0 0.04883,0.04883 0.05,0.05 0 0 0 0.05078,-0.04883 V 80.09375 a 0.05,0.05 0 0 0 -0.05078,-0.04883 z m 0,0.90039 a 0.05,0.05 0 0 0 -0.04883,0.04883 v 0.09961 a 0.05,0.05 0 0 0 0.04883,0.05078 0.05,0.05 0 0 0 0.05078,-0.05078 v -0.09961 a 0.05,0.05 0 0 0 -0.05078,-0.04883 z m 0,0.898438 a 0.05,0.05 0 0 0 -0.04883,0.05078 v 0.09961 a 0.05,0.05 0 0 0 0.04883,0.05078 0.05,0.05 0 0 0 0.05078,-0.05078 v -0.09961 a 0.05,0.05 0 0 0 -0.05078,-0.05078 z m 0,0.900391 a 0.05,0.05 0 0 0 -0.04883,0.05078 v 0.09961 a 0.05,0.05 0 0 0 0.04883,0.05078 0.05,0.05 0 0 0 0.05078,-0.05078 v -0.09961 a 0.05,0.05 0 0 0 -0.05078,-0.05078 z m 0,0.90039 a 0.05,0.05 0 0 0 -0.04883,0.05078 v 0.09961 a 0.05,0.05 0 0 0 0.04883,0.04883 0.05,0.05 0 0 0 0.05078,-0.04883 v -0.09961 a 0.05,0.05 0 0 0 -0.05078,-0.05078 z m 0,0.900391 a 0.05,0.05 0 0 0 -0.04883,0.04883 v 0.101562 a 0.05,0.05 0 0 0 0.04883,0.04883 0.05,0.05 0 0 0 0.05078,-0.04883 V 84.59375 a 0.05,0.05 0 0 0 -0.05078,-0.04883 z"
     id="path19" />
</svg>
