<?xml version="1.0" encoding="UTF-8" standalone="no"?>
<svg
   width="50.8mm"
   height="128.5mm"
   viewBox="0 0 50.8 128.5"
   version="1.1"
   id="svg1"
   sodipodi:docname="Specula.svg"
   inkscape:version="1.4.3 (0d15f75, 2025-12-25)"
   xmlns:inkscape="http://www.inkscape.org/namespaces/inkscape"
   xmlns:sodipodi="http://sodipodi.sourceforge.net/DTD/sodipodi-0.dtd"
   xmlns="http://www.w3.org/2000/svg"
   xmlns:svg="http://www.w3.org/2000/svg">
  <sodipodi:namedview
     id="namedview1"
     pagecolor="#505050"
     bordercolor="#eeeeee"
     borderopacity="1"
     inkscape:showpageshadow="0"
     inkscape:pageopacity="0"
     inkscape:pagecheckerboard="0"
     inkscape:deskcolor="#505050"
     inkscape:document-units="mm"
     inkscape:zoom="1.6300321"
     inkscape:cx="25.152879"
     inkscape:cy="272.08053"
     inkscape:window-width="1800"
     inkscape:window-height="1101"
     inkscape:window-x="0"
     inkscape:window-y="40"
     inkscape:window-maximized="1"
     inkscape:current-layer="svg1" />
  <defs
     id="defs1" />
  <rect
     style="display:none;fill:#ffff00;fill-opacity:1;fill-rule:evenodd;stroke:#ffff00;stroke-width:0.235405;stroke-linecap:round;stroke-dasharray:none;stroke-opacity:1"
     id="left_vu_meter"
     width="38.064594"
     height="39.764595"
     x="6.367703"
     y="14.433204" />
  <rect
     style="display:none;fill:#ffff00;fill-opacity:1;fill-rule:evenodd;stroke:#ffff00;stroke-width:0.235406;stroke-linecap:round;stroke-dasharray:none;stroke-opacity:1"
     id="right_vu_meter"
     width="38.064594"
     height="39.764595"
     x="6.367703"
     y="62.969048" />
  <ellipse
     style="display:none;fill:#00ff00;fill-opacity:1;fill-rule:evenodd;stroke:#00ff00;stroke-width:0.329666;stroke-opacity:1"
     id="left_input"
     cx="9.3099117"
     cy="114.73895"
     rx="2.3399999"
     ry="2.3396325"
     inkscape:label="left_input" />
  <ellipse
     style="display:none;fill:#00ff00;fill-opacity:1;fill-rule:evenodd;stroke:#00ff00;stroke-width:0.329666;stroke-opacity:1"
     id="right_input"
     cx="20.391472"
     cy="114.73895"
     rx="2.3399999"
     ry="2.3396325"
     inkscape:label="right_input" />
  <ellipse
     style="display:none;fill:#0000ff;fill-opacity:1;fill-rule:evenodd;stroke:#0000ff;stroke-width:0.329666;stroke-opacity:1"
     id="left_output"
     cx="31.473032"
     cy="114.73895"
     rx="2.3399999"
     ry="2.3396325"
     inkscape:label="left_output" />
  <ellipse
     style="display:none;fill:#0000ff;fill-opacity:1;fill-rule:evenodd;stroke:#0000ff;stroke-width:0.329666;stroke-opacity:1"
     id="right_output"
     cx="42.554592"
     cy="114.73895"
     rx="2.3399999"
     ry="2.3396325"
     inkscape:label="right_output" />
  <path
     d="m 11.753862,5.5444646 c -0.45085,-0.09525 -0.78105,-0.23495 -0.78105,-0.5207 0,-0.01905 0,-0.0381 0,-0.05715 0.0508,-0.3302 0.40005,-0.4826 0.7747,-0.4826 0.3429,0 0.70485,0.12065 0.90805,0.3556 l 0.40005,-0.3683 c -0.23495,-0.254 -0.7366,-0.51435 -1.28905,-0.51435 -0.0127,0 -0.0254,0 -0.0381,0 -0.8636,0.0381 -1.30175,0.5461 -1.30175,1.04775 0,0.4064 0.28575,0.8128 0.88265,0.9779 0.33655,0.09525 0.6096,0.14605 0.9652,0.29845 0.2286,0.09525 0.34925,0.23495 0.34925,0.41275 0,0.04445 -0.0063,0.08255 -0.01905,0.127 -0.1016,0.3175 -0.45085,0.4699 -0.81915,0.47625 -0.0127,0 -0.0254,0 -0.0381,0 -0.4572,0 -0.94615,-0.2032 -1.1049,-0.4064 l -0.4191,0.33655 c 0.28575,0.36195 1.00965,0.57785 1.5621,0.57785 0.55245,0 1.20015,-0.2794 1.3335,-0.8382 0.01905,-0.1016 0.03175,-0.19685 0.03175,-0.2921 0,-0.6477 -0.60325,-0.9525 -1.397,-1.1303 z m 4.912776,-1.5875 c -0.5461,0 -1.03505,0.22225 -1.3843,0.5842 v -0.4953 h -0.53975 v 4.40055 h 0.53975 v -1.22555 c 0.34925,0.36195 0.8382,0.5842 1.3843,0.5842 1.06045,0 1.92405,-0.8636 1.92405,-1.92405 0,-1.06045 -0.8636,-1.92405 -1.92405,-1.92405 z m 0,3.32105 c -0.7747,0 -1.40335,-0.62865 -1.40335,-1.397 0,-0.7747 0.62865,-1.40335 1.40335,-1.40335 0.76835,0 1.397,0.62865 1.397,1.40335 0,0.76835 -0.62865,1.397 -1.397,1.397 z m 7.192432,-1.397 c 0,-1.06045 -0.8636,-1.92405 -1.92405,-1.92405 -1.066799,0 -1.924049,0.8636 -1.924049,1.92405 0,1.0668 0.85725,1.92405 1.924049,1.92405 0.4699,0 0.89535,-0.1651 1.2319,-0.4445 l -0.387351,-0.38735 c -0.23495,0.18415 -0.527049,0.2921 -0.84455,0.2921 -0.704849,0 -1.289049,-0.5334 -1.371599,-1.21285 h 3.289299 c 0,-0.05715 0.0063,-0.1143 0.0063,-0.17145 z m -3.257549,-0.37465 c 0.1651,-0.57785 0.6985,-1.00965 1.333499,-1.00965 0.62865,0 1.168399,0.4318 1.32715,1.00965 z m 7.395625,1.46685 c -0.2286,0.1778 -0.5334,0.2921 -0.825501,0.2921 -0.0063,0 -0.0127,0 -0.0254,-0.00635 -0.8636,-0.0127 -1.37795,-0.69215 -1.37795,-1.3843 v -0.08255 c 0.03175,-0.6223 0.52705,-1.23825 1.2827,-1.2954 0.0381,-0.00635 0.06985,-0.00635 0.10795,-0.00635 0.32385,0 0.62865,0.13335 0.8382,0.2921 l 0.38735,-0.381 c -0.3556,-0.3048 -0.8001,-0.45085 -1.23825,-0.45085 -0.26035,0 -0.5207,0.05715 -0.762,0.15875 -0.5715,0.24765 -0.99695,0.7747 -1.12395,1.37795 -0.0254,0.127 -0.0381,0.26035 -0.0381,0.38735 0,0.5715 0.254,1.12395 0.70485,1.49225 0.34925,0.28575 0.7874,0.43815 1.22555,0.43815 0.27305,0 0.53975,-0.05715 0.7874,-0.17145 0.15875,-0.06985 0.3048,-0.1651 0.4445,-0.2794 -0.0064,0 -0.38735,-0.381 -0.387349,-0.381 z m 4.296833,-2.92735 v 2.25425 c 0,0.5334 -0.431801,0.9652 -0.9652,0.9652 -0.52705,0 -0.958851,-0.4318 -0.958851,-0.9652 v -2.25425 h -0.53975 v 2.25425 c 0,0.83185 0.6731,1.50495 1.4986,1.50495 0.3683,0 0.70485,-0.13335 0.965201,-0.34925 v 0.26035 h 0.539749 v -3.6703 z m 2.842685,3.67665 V 3.3219647 h -0.53975 v 4.4005499 z m 3.515775,-3.76555 c -1.0668,0 -1.924051,0.85725 -1.924051,1.92405 0,1.06045 0.857251,1.92405 1.924051,1.92405 0.882649,0 1.3843,-0.5842 1.3843,-0.5842 v 0.4953 h 0.53975 v -1.83515 c 0,-1.06045 -0.8636,-1.92405 -1.92405,-1.92405 z m 1.396999,1.92405 c 0,0.76835 -0.62865,1.397 -1.396999,1.397 -0.774701,0 -1.403351,-0.62865 -1.403351,-1.397 0,-0.7747 0.62865,-1.40335 1.403351,-1.40335 0.75565,0 1.396999,0.6223 1.396999,1.40335 z"
     id="text2"
     style="font-weight:600;font-size:6.35px;line-height:0;font-family:Neokurat;-inkscape-font-specification:'Neokurat, Semi-Bold';text-align:center;letter-spacing:1.05833px;word-spacing:0.132292px;text-anchor:middle;display:inline;opacity:0.916201;fill:#eedcbb;fill-opacity:0.890196;fill-rule:evenodd;stroke-width:0.1;stroke-linecap:round;stroke-linejoin:round;stroke-opacity:0.631373;paint-order:fill markers stroke"
     aria-label="specula" />
  <path
     style="font-weight:600;font-size:2.82222px;line-height:0;font-family:Neokurat;-inkscape-font-specification:'Neokurat, Semi-Bold';text-align:center;letter-spacing:0.529167px;word-spacing:0.79375px;text-anchor:middle;display:inline;opacity:0.948225;fill:#eedcbb;fill-opacity:0.890196;fill-rule:evenodd;stroke-width:0.04;stroke-linecap:round;stroke-linejoin:round;stroke-opacity:0.898039;paint-order:fill markers stroke"
     d="m 15.236498,125.21283 c -0.163689,-0.0705 -0.285044,-0.10724 -0.434622,-0.14111 -0.206022,-0.048 -0.400755,-0.127 -0.400755,-0.29351 0,-0.0169 0.0028,-0.0339 0.0056,-0.0508 0.03104,-0.15804 0.220134,-0.26811 0.437445,-0.27093 0.0028,0 0.0028,0 0.0056,0 0.180622,0 0.372533,0.0621 0.510822,0.2032 l 0.174977,-0.16369 c -0.121355,-0.13547 -0.386644,-0.27375 -0.680155,-0.27375 -0.0056,0 -0.01129,0.003 -0.01693,0.003 -0.454377,0.006 -0.660399,0.30197 -0.680155,0.48823 -0.0028,0.0169 -0.0056,0.0367 -0.0056,0.0536 0,0.2286 0.180622,0.42898 0.462844,0.50518 0.183444,0.0508 0.333022,0.079 0.530577,0.16087 0.09596,0.0423 0.194733,0.11571 0.194733,0.24553 0,0.0254 -0.0028,0.0536 -0.01129,0.0819 -0.05644,0.1778 -0.253999,0.254 -0.437444,0.26246 -0.01129,0.003 -0.0254,0.003 -0.03669,0.003 -0.259644,0 -0.533399,-0.11571 -0.62371,-0.22577 l -0.191911,0.15522 c 0.149577,0.19473 0.536222,0.30762 0.82691,0.30762 0.285045,0 0.612422,-0.13547 0.697089,-0.43744 0.01693,-0.0508 0.02258,-0.1016 0.02258,-0.14676 0,-0.2032 -0.124177,-0.37253 -0.349955,-0.46567 z m 2.473677,-0.94826 v 0.76764 h -1.114777 v -0.76764 H 16.35551 v 1.9558 h 0.239888 v -0.94827 h 1.114777 v 0.94827 h 0.239889 v -1.9558 z m 1.948742,-0.0395 -1.018822,1.9953 h 0.268111 l 0.333022,-0.65194 h 0.832555 l 0.333022,0.65194 h 0.270933 z m -0.299156,1.11476 0.299156,-0.58701 0.299155,0.58701 z m 3.385253,-0.9285 c -0.112888,-0.0903 -0.259644,-0.14675 -0.417688,-0.14675 h -0.959555 v 1.9558 h 0.239889 v -0.61807 h 0.719666 c 0.369711,0 0.668866,-0.29915 0.668866,-0.66886 0,-0.21167 -0.09878,-0.39794 -0.251178,-0.52212 z m 0.01129,0.52212 c 0,0.23706 -0.191911,0.42897 -0.428977,0.42897 h -0.719666 v -0.85514 h 0.719666 c 0.237066,0 0.428977,0.19192 0.428977,0.42617 z m 1.231901,1.04704 v -0.6604 h 1.03011 v -0.23989 h -1.03011 v -0.57292 h 1.219199 v -0.2427 h -1.459088 v 1.9558 h 1.498599 v -0.23989 z m 1.849967,-1.71591 v 0.2427 h 0.694267 v 1.71309 h 0.239888 v -1.71309 h 0.694266 v -0.2427 z m 2.865963,-0.0395 -1.018821,1.9953 h 0.268111 l 0.333022,-0.65193 h 0.832555 l 0.333022,0.65193 h 0.270933 z m -0.299155,1.11477 0.299155,-0.58702 0.299156,0.58702 z m 2.727676,-0.0931 0.97931,-0.98214 h -0.341488 l -0.809977,0.80998 -0.307622,-0.30762 v -0.50236 h -0.242711 v 1.95581 h 0.242711 v -1.11478 l 1.114777,1.11478 h 0.341488 z m 1.920522,0.73378 v -0.66041 h 1.03011 v -0.23989 h -1.03011 v -0.57291 h 1.219199 v -0.24276 h -1.459089 v 1.95579 h 1.498599 v -0.23989 z m 3.706988,0.23989 -0.451555,-0.44874 c 0.231422,-0.14393 0.383822,-0.39793 0.383822,-0.69144 0,-0.44873 -0.364067,-0.81562 -0.815622,-0.81562 h -0.812799 v 1.95862 h 0.239889 v -1.13453 l 1.13171,1.13453 z m -0.307622,-1.14018 c 0,0.20037 -0.110066,0.40922 -0.318911,0.51647 l -0.829732,-0.82974 v -0.25965 h 0.57291 c 0.316089,0 0.575733,0.25683 0.575733,0.57292 z"
     id="text6"
     aria-label="SHPETE" />
  <path
     d="m 14.379029,109.75563 h -0.74577 v -0.22719 h 0.232127 v -1.26929 h -0.232127 v -0.22719 h 0.74577 v 0.22719 h -0.234596 v 1.26929 h 0.234596 z m 1.377947,0 -0.563032,-0.95073 -0.190147,-0.36795 h -0.0074 v 0.37535 0.94333 h -0.266699 v -1.72367 h 0.313619 l 0.560563,0.95074 0.190147,0.36794 h 0.0074 v -0.37535 -0.94333 h 0.266699 v 1.72367 z"
     id="text3"
     style="font-weight:500;font-size:2.46944px;line-height:0;font-family:'IBM Plex Sans';-inkscape-font-specification:'IBM Plex Sans, Medium';text-align:center;letter-spacing:0px;word-spacing:0.132292px;text-anchor:middle;display:inline;opacity:0.916201;fill:#eedcbb;fill-opacity:0.890196;fill-rule:evenodd;stroke-width:0.1;stroke-linecap:round;stroke-linejoin:round;stroke-opacity:0.631373;paint-order:fill markers stroke"
     aria-label="IN" />
  <path
     d="m 35.416086,109.78526 q -0.22472,0 -0.392641,-0.10124 -0.165453,-0.10372 -0.256822,-0.30127 -0.09137,-0.20003 -0.09137,-0.48895 0,-0.2914 0.09137,-0.48895 0.09137,-0.19756 0.256822,-0.29881 0.167921,-0.10371 0.392641,-0.10371 0.227188,0 0.39264,0.10371 0.167922,0.10125 0.259292,0.29881 0.09137,0.19755 0.09137,0.48895 0,0.28892 -0.09137,0.48895 -0.09137,0.19755 -0.259292,0.30127 -0.165452,0.10124 -0.39264,0.10124 z m 0,-0.24941 q 0.135819,0 0.234596,-0.0617 0.09878,-0.0617 0.155575,-0.17533 0.0568,-0.11359 0.0568,-0.26916 v -0.27164 q 0,-0.15805 -0.0568,-0.27164 -0.0568,-0.1136 -0.155575,-0.17286 -0.09878,-0.0617 -0.234596,-0.0617 -0.130881,0 -0.232128,0.0617 -0.101247,0.0593 -0.158044,0.17286 -0.05433,0.11359 -0.05433,0.27164 v 0.27164 q 0,0.15557 0.05433,0.26916 0.0568,0.1136 0.158044,0.17533 0.101247,0.0617 0.232128,0.0617 z m 1.081615,-1.50389 h 0.274108 v 1.06186 q 0,0.1457 0.03457,0.24448 0.03704,0.0988 0.118533,0.14816 0.08149,0.0494 0.214842,0.0494 0.135819,0 0.214841,-0.0494 0.08149,-0.0494 0.118533,-0.14816 0.03704,-0.0988 0.03704,-0.24448 v -1.06186 h 0.274108 v 1.01741 q 0,0.25188 -0.06421,0.41487 -0.06174,0.16298 -0.204963,0.242 -0.140758,0.079 -0.377825,0.079 -0.237066,0 -0.377824,-0.079 -0.138289,-0.079 -0.200025,-0.242 -0.06174,-0.16299 -0.06174,-0.41487 z m 2.854672,0.24695 h -0.513644 v 1.47672 h -0.279046 v -1.47672 h -0.513644 v -0.24695 h 1.306334 z"
     id="text4"
     style="font-weight:500;font-size:2.46944px;line-height:0;font-family:'IBM Plex Sans';-inkscape-font-specification:'IBM Plex Sans, Medium';text-align:center;letter-spacing:0px;word-spacing:0.132292px;text-anchor:middle;display:inline;opacity:0.916201;fill:#eedcbb;fill-opacity:0.890196;fill-rule:evenodd;stroke-width:0.1;stroke-linecap:round;stroke-linejoin:round;stroke-opacity:0.631373;paint-order:fill markers stroke"
     aria-label="OUT" />
</svg>
