<?xml version="1.0" encoding="UTF-8" standalone="no"?>
<svg
   width="50.8mm"
   height="128.5mm"
   viewBox="0 0 50.8 128.5"
   version="1.1"
   id="svg1"
   sodipodi:docname="Specula.svg"
   inkscape:version="1.4.2 (ebf0e940, 2025-05-08)"
   xmlns:inkscape="http://www.inkscape.org/namespaces/inkscape"
   xmlns:sodipodi="http://sodipodi.sourceforge.net/DTD/sodipodi-0.dtd"
   xmlns="http://www.w3.org/2000/svg"
   xmlns:svg="http://www.w3.org/2000/svg">
  <sodipodi:namedview
     id="namedview1"
     pagecolor="#505050"
     bordercolor="#eeeeee"
     borderopacity="1"
     inkscape:showpageshadow="0"
     inkscape:pageopacity="0"
     inkscape:pagecheckerboard="0"
     inkscape:deskcolor="#505050"
     inkscape:document-units="mm"
     inkscape:zoom="4.6534026"
     inkscape:cx="82.520262"
     inkscape:cy="435.70269"
     inkscape:window-width="1800"
     inkscape:window-height="1097"
     inkscape:window-x="0"
     inkscape:window-y="44"
     inkscape:window-maximized="1"
     inkscape:current-layer="svg1" />
  <defs
     id="defs1" />
  <rect
     style="display:none;fill:#ffff00;fill-opacity:1;fill-rule:evenodd;stroke:#ffff00;stroke-width:0.235405;stroke-linecap:round;stroke-dasharray:none;stroke-opacity:1"
     id="left_vu_meter"
     width="38.064594"
     height="39.764595"
     x="6.371222"
     y="15.790632" />
  <rect
     style="display:none;fill:#ffff00;fill-opacity:1;fill-rule:evenodd;stroke:#ffff00;stroke-width:0.235406;stroke-linecap:round;stroke-dasharray:none;stroke-opacity:1"
     id="right_vu_meter"
     width="38.064594"
     height="39.764595"
     x="6.3677025"
     y="64.25" />
  <ellipse
     style="display:none;fill:#00ff00;fill-opacity:1;fill-rule:evenodd;stroke:#00ff00;stroke-width:0.329666;stroke-opacity:1"
     id="left_input"
     cx="9.3099117"
     cy="116.58773"
     rx="2.3399999"
     ry="2.3396325"
     inkscape:label="left_input" />
  <ellipse
     style="display:none;fill:#00ff00;fill-opacity:1;fill-rule:evenodd;stroke:#00ff00;stroke-width:0.329666;stroke-opacity:1"
     id="right_input"
     cx="20.391472"
     cy="116.58773"
     rx="2.3399999"
     ry="2.3396325"
     inkscape:label="right_input" />
  <ellipse
     style="display:none;fill:#0000ff;fill-opacity:1;fill-rule:evenodd;stroke:#0000ff;stroke-width:0.329666;stroke-opacity:1"
     id="left_output"
     cx="31.473032"
     cy="116.58773"
     rx="2.3399999"
     ry="2.3396325"
     inkscape:label="left_output" />
  <ellipse
     style="display:none;fill:#0000ff;fill-opacity:1;fill-rule:evenodd;stroke:#0000ff;stroke-width:0.329666;stroke-opacity:1"
     id="right_output"
     cx="42.554592"
     cy="116.58773"
     rx="2.3399999"
     ry="2.3396325"
     inkscape:label="right_output" />
  <path
     d="m 11.924855,8.5903467 q -0.599722,0 -1.072445,-0.2187224 -0.472722,-0.2257779 -0.769056,-0.5715004 l 0.430389,-0.3598335 q 0.275167,0.2751668 0.635001,0.4303891 0.359833,0.1552224 0.783167,0.1552224 0.522111,0 0.804334,-0.2116669 0.289278,-0.2187223 0.289278,-0.5573892 0,-0.2963335 -0.1905,-0.5080003 -0.190501,-0.2187224 -0.592668,-0.3810003 l -1.023056,-0.416278 q -0.613833,-0.2540002 -0.889,-0.5997226 -0.275167,-0.352778 -0.275167,-0.8325561 0,-0.2963335 0.119944,-0.5432782 0.127,-0.2469446 0.352778,-0.4233336 0.225778,-0.1834445 0.536223,-0.2822224 0.3175,-0.098778 0.705556,-0.098778 0.423334,0 0.747889,0.1340556 0.331612,0.1340557 0.55739,0.352778 0.225777,0.2116668 0.338666,0.4938893 0.119945,0.2751668 0.119945,0.5644448 h -0.5715 q 0,-0.1552224 -0.07056,-0.3245558 -0.07056,-0.176389 -0.218722,-0.3245558 -0.141112,-0.1481667 -0.366889,-0.2469446 -0.225778,-0.098778 -0.536223,-0.098778 -0.508,0 -0.811389,0.2257779 -0.296334,0.2187224 -0.296334,0.5715004 0,0.2963335 0.169333,0.5009447 0.176389,0.1975557 0.571501,0.3598336 l 1.044223,0.4374447 q 0.620889,0.2681113 0.903111,0.6208893 0.282223,0.3457225 0.282223,0.818445 0,0.3316113 -0.141111,0.5856115 -0.134056,0.2469446 -0.36689,0.416278 -0.232833,0.1622779 -0.543278,0.2469446 -0.310444,0.084667 -0.656167,0.084667 z M 15.189822,6.8123455 V 8.4774577 H 14.60421 V 3.291621 h 1.756835 q 0.373945,0 0.6985,0.1411112 0.324556,0.1340557 0.55739,0.3739447 0.239889,0.239889 0.373944,0.5644448 0.141111,0.3175002 0.141111,0.6843893 0,0.3668892 -0.141111,0.6914449 -0.134055,0.3175002 -0.373944,0.5573893 -0.232834,0.2328335 -0.55739,0.3739447 -0.324555,0.1340556 -0.6985,0.1340556 z m 1.135945,-0.5080003 q 0.261056,0 0.486834,-0.091722 0.232833,-0.098778 0.402167,-0.2610557 0.169333,-0.1693335 0.261055,-0.3951114 0.09878,-0.2328335 0.09878,-0.5009448 0,-0.2681112 -0.09878,-0.4938892 Q 17.384101,4.3287884 17.214768,4.1665105 17.045434,3.997177 16.812601,3.9054547 16.586823,3.8066769 16.325767,3.8066769 H 15.189822 V 6.3043452 Z M 18.983953,3.291621 h 3.076225 v 0.5150559 h -2.469446 v 1.7991678 h 2.257779 v 0.5009448 h -2.257779 v 1.8626679 h 2.469446 v 0.5080003 h -3.076225 z m 4.415017,2.5964461 q 0,0.4515559 0.162278,0.8396117 0.169334,0.3810002 0.451556,0.6632226 0.289278,0.2822224 0.670278,0.4445003 0.381,0.1622779 0.818445,0.1622779 0.4445,0 0.81139,-0.1693334 0.373944,-0.1693335 0.670278,-0.4515559 l 0.381,0.4021669 q -0.352778,0.3598336 -0.832556,0.5715004 -0.479778,0.2046113 -1.051279,0.2046113 -0.564444,0 -1.051278,-0.2046113 Q 23.942248,8.1387908 23.582415,7.7789572 23.222581,7.4191237 23.01797,6.93229 22.813359,6.4454564 22.813359,5.8880671 q 0,-0.5573892 0.204611,-1.0442229 0.204611,-0.4938892 0.557389,-0.8537227 0.359834,-0.3598336 0.846667,-0.5644448 0.486834,-0.2116668 1.058334,-0.2116668 0.571501,0 1.044223,0.2116668 0.479778,0.2046112 0.839612,0.5644448 l -0.381,0.4021669 Q 26.693917,4.110066 26.312917,3.9477881 25.931916,3.7784547 25.501527,3.7784547 q -0.4445,0 -0.832556,0.1622778 -0.381,0.1622779 -0.663223,0.4445003 -0.282222,0.2822224 -0.4445,0.6702782 -0.162278,0.3880559 -0.162278,0.8325561 z m 5.261678,0.4092225 q 0,0.3668892 0.127,0.6773338 0.127,0.3104446 0.345722,0.5362226 0.225778,0.2257779 0.529167,0.352778 0.310445,0.1270001 0.663223,0.1270001 0.359833,0 0.663222,-0.1270001 0.30339,-0.1270001 0.522112,-0.352778 0.225778,-0.225778 0.352778,-0.5362226 0.127,-0.3104446 0.127,-0.6773338 V 3.291621 h 0.592667 v 3.0056686 q 0,0.465667 -0.176389,0.881945 -0.169333,0.4092225 -0.472722,0.7196672 -0.30339,0.3033891 -0.719668,0.4797781 -0.409222,0.176389 -0.889,0.176389 -0.479778,0 -0.896056,-0.176389 Q 29.020481,8.2022909 28.717092,7.8989018 28.413703,7.5884571 28.237314,7.1792346 28.067981,6.7629566 28.067981,6.2972896 V 3.291621 h 0.592667 z m 7.582958,2.1801681 h -2.52589 V 3.291621 h 0.585611 v 4.6778364 h 1.940279 z m 4.478512,0 -0.4445,-1.1006674 H 37.660005 L 37.208449,8.4774577 H 36.594616 L 38.661895,3.291621 h 0.606778 l 2.074335,5.1858367 z M 38.965284,4.0324548 37.850505,6.86879 h 2.236613 z"
     id="text1"
     style="font-size:7.05556px;line-height:0;font-family:'Liber Grotesque Family';-inkscape-font-specification:'Liber Grotesque Family, Normal';text-align:center;letter-spacing:0.0899583px;word-spacing:0.264583px;text-anchor:middle;fill:#c8c8b6;fill-rule:evenodd;stroke:#c8c8b6;stroke-width:0;stroke-linecap:round"
     aria-label="SPECULA" />
  <path
     style="fill:#c8c8b6;fill-opacity:1;fill-rule:evenodd;stroke:#c8c8b6;stroke-width:0.2;stroke-linecap:round;stroke-dasharray:none;stroke-opacity:1"
     d="M 5.3057813,9.9188389 H 46.092359"
     id="path1" />
  <path
     d="m 13.405128,124.66696 q 0,0.13124 0.1016,0.2413 0.105833,0.11007 0.359833,0.19474 l 0.529166,0.16933 q 0.325967,0.10583 0.4572,0.24976 0.135466,0.1397 0.135466,0.3302 0,0.11007 -0.0508,0.20744 -0.04657,0.0931 -0.148167,0.1651 -0.09737,0.0677 -0.249766,0.11006 -0.1524,0.0423 -0.3556,0.0423 -0.275167,0 -0.5334,-0.1016 -0.254,-0.1016 -0.402166,-0.254 l 0.09313,-0.0847 q 0.06773,0.072 0.1651,0.13123 0.1016,0.0593 0.2159,0.1016 0.1143,0.0423 0.232833,0.0677 0.118533,0.0212 0.2286,0.0212 0.3556,0 0.516466,-0.11853 0.160867,-0.12277 0.160867,-0.28787 0,-0.14816 -0.110067,-0.25823 -0.105833,-0.1143 -0.385233,-0.2032 l -0.529166,-0.16933 q -0.2667,-0.0847 -0.414867,-0.22437 -0.143933,-0.1397 -0.143933,-0.3302 0,-0.11006 0.04657,-0.21166 0.0508,-0.10584 0.148166,-0.18627 0.1016,-0.0804 0.254,-0.127 0.156633,-0.0508 0.3683,-0.0508 0.232833,0 0.3937,0.072 0.165099,0.072 0.266699,0.1778 0.1016,0.10583 0.148167,0.22436 0.04657,0.1143 0.04657,0.2032 h -0.1143 q -0.02963,-0.24976 -0.232834,-0.40216 -0.203199,-0.15664 -0.507999,-0.15664 -0.182033,0 -0.313266,0.0381 -0.127,0.0381 -0.211667,0.1016 -0.08467,0.0635 -0.127,0.14817 -0.0381,0.0804 -0.0381,0.16933 z m 4.495264,1.65947 h -0.127 v -1.12607 q 0,-0.19473 -0.07197,-0.36406 -0.07197,-0.16934 -0.198967,-0.29634 -0.127,-0.127 -0.296333,-0.19896 -0.169333,-0.072 -0.364066,-0.072 -0.1905,0 -0.359833,0.0889 -0.169333,0.0847 -0.296333,0.23283 -0.127,0.14394 -0.2032,0.33867 -0.0762,0.19473 -0.0762,0.41063 v 0.98637 h -0.127 v -3.2512 h 0.127 v 1.8161 q 0.0508,-0.16087 0.143933,-0.29633 0.09737,-0.1397 0.224367,-0.23707 0.126999,-0.0974 0.279399,-0.14817 0.156634,-0.055 0.3302,-0.0508 0.207433,0 0.389466,0.0847 0.186267,0.0804 0.325967,0.2286 0.1397,0.14393 0.220133,0.3429 0.08043,0.19897 0.08043,0.42757 z m 2.484438,-0.61384 q -0.0381,0.13124 -0.122767,0.24977 -0.08043,0.11853 -0.198967,0.20743 -0.118533,0.0889 -0.270933,0.1397 -0.152399,0.0508 -0.325966,0.0508 -0.1778,0 -0.3175,-0.0466 -0.1397,-0.0466 -0.237066,-0.127 -0.09737,-0.0847 -0.148167,-0.19474 -0.0508,-0.1143 -0.0508,-0.24976 0,-0.10584 0.04233,-0.2032 0.04657,-0.0974 0.139699,-0.16934 0.09737,-0.0762 0.237067,-0.11853 0.143933,-0.0466 0.3429,-0.0466 h 0.901699 v -0.127 q 0,-0.14394 -0.04233,-0.28787 -0.04233,-0.14393 -0.135467,-0.25823 -0.09313,-0.11854 -0.237066,-0.1905 -0.1397,-0.072 -0.334433,-0.072 -0.1778,0 -0.325967,0.0593 -0.148166,0.0593 -0.270933,0.1651 l -0.07197,-0.0847 q 0.296333,-0.24977 0.668867,-0.24977 0.220133,0 0.385233,0.0804 0.165099,0.0804 0.270933,0.21166 0.110066,0.127 0.165099,0.2921 0.05503,0.16087 0.05503,0.3302 v 1.25307 h -0.118533 z m -1.549399,0.0296 q 0,0.22436 0.173566,0.36406 0.173567,0.1397 0.4572,0.1397 0.169333,0 0.334433,-0.0593 0.1651,-0.0593 0.2921,-0.17357 0.127,-0.11853 0.2032,-0.2921 0.08043,-0.1778 0.08043,-0.41063 h -0.901699 q -0.3302,0 -0.486833,0.127 -0.1524,0.127 -0.1524,0.3048 z m 4.808535,-0.49953 q 0,0.22436 -0.08467,0.42333 -0.08467,0.19896 -0.237067,0.34713 -0.148166,0.14393 -0.351366,0.2286 -0.2032,0.0847 -0.436033,0.0847 -0.1524,0 -0.296333,-0.0466 -0.1397,-0.0466 -0.258233,-0.12277 -0.1143,-0.0762 -0.198967,-0.17356 -0.08467,-0.0974 -0.127,-0.19897 v 1.6256 h -0.126999 v -3.2512 h 0.126999 v 0.55034 q 0.04233,-0.1016 0.122767,-0.19897 0.08467,-0.0974 0.194733,-0.17357 0.1143,-0.0804 0.254,-0.127 0.143933,-0.0508 0.309033,-0.0508 0.232833,0 0.436033,0.0847 0.2032,0.0847 0.351366,0.23283 0.1524,0.14394 0.237067,0.3429 0.08467,0.19897 0.08467,0.42334 z m -2.036231,0 q 0,0.20743 0.07197,0.38523 0.07197,0.1778 0.194734,0.30903 0.122766,0.13123 0.292099,0.20743 0.169334,0.072 0.3683,0.072 0.2032,0 0.381,-0.072 0.182033,-0.0762 0.313266,-0.20743 0.135467,-0.13123 0.211667,-0.30903 0.0762,-0.1778 0.0762,-0.38523 0,-0.20744 -0.0762,-0.381 -0.0762,-0.1778 -0.211667,-0.30904 -0.131233,-0.13123 -0.313266,-0.2032 -0.1778,-0.0762 -0.381,-0.0762 -0.198966,0 -0.3683,0.0762 -0.169333,0.072 -0.292099,0.2032 -0.122767,0.13124 -0.194734,0.30904 -0.07197,0.17356 -0.07197,0.381 z m 4.850863,0 v 0.0677 H 24.4774 q 0,0.22013 0.08467,0.3937 0.08467,0.17356 0.2159,0.29633 0.135467,0.12277 0.3048,0.1905 0.169333,0.0635 0.338666,0.0635 0.2159,0 0.376767,-0.0593 0.165099,-0.0635 0.296333,-0.16086 l 0.06773,0.0889 q -0.1524,0.11853 -0.334433,0.18203 -0.182033,0.0635 -0.410633,0.0635 -0.198967,0 -0.389466,-0.072 -0.1905,-0.0762 -0.3429,-0.22013 -0.148167,-0.14393 -0.2413,-0.35137 -0.09313,-0.21166 -0.09313,-0.48259 0,-0.23284 0.0762,-0.43604 0.0762,-0.2032 0.211666,-0.3556 0.1397,-0.1524 0.334433,-0.2413 0.194733,-0.0889 0.4318,-0.0889 0.249766,0 0.4445,0.0974 0.194733,0.0931 0.330199,0.24977 0.135467,0.15663 0.207433,0.35983 0.07197,0.2032 0.07197,0.41487 z m -1.054099,-1.0075 q -0.2032,0 -0.372533,0.072 -0.169333,0.072 -0.2921,0.2032 -0.122766,0.13123 -0.194733,0.30903 -0.06773,0.1778 -0.06773,0.38524 h 1.858431 q 0,-0.19897 -0.06773,-0.37254 -0.06773,-0.1778 -0.1905,-0.30903 -0.122766,-0.13547 -0.296333,-0.21167 -0.169333,-0.0762 -0.376766,-0.0762 z m 2.090734,2.09127 v -2.0574 H 26.9957 v -0.11007 h 0.499533 v -0.54186 h 0.127 v 0.54186 h 0.499533 v 0.11007 h -0.499533 v 2.0574 z m 2.878134,-0.61384 q -0.0381,0.13124 -0.122767,0.24977 -0.08043,0.11853 -0.198966,0.20743 -0.118533,0.0889 -0.270933,0.1397 -0.1524,0.0508 -0.325967,0.0508 -0.1778,0 -0.317499,-0.0466 -0.1397,-0.0466 -0.237067,-0.127 -0.09737,-0.0847 -0.148166,-0.19474 -0.0508,-0.1143 -0.0508,-0.24976 0,-0.10584 0.04233,-0.2032 0.04657,-0.0974 0.1397,-0.16934 0.09737,-0.0762 0.237066,-0.11853 0.143933,-0.0466 0.3429,-0.0466 h 0.901699 v -0.127 q 0,-0.14394 -0.04233,-0.28787 -0.04233,-0.14393 -0.135467,-0.25823 -0.09313,-0.11854 -0.237066,-0.1905 -0.1397,-0.072 -0.334433,-0.072 -0.1778,0 -0.325967,0.0593 -0.148166,0.0593 -0.270933,0.1651 l -0.07197,-0.0847 q 0.296333,-0.24977 0.668866,-0.24977 0.220133,0 0.385233,0.0804 0.1651,0.0804 0.270933,0.21166 0.110067,0.127 0.1651,0.2921 0.05503,0.16087 0.05503,0.3302 v 1.25307 H 30.37336 Z m -1.549399,0.0296 q 0,0.22436 0.173567,0.36406 0.173566,0.1397 0.457199,0.1397 0.169333,0 0.334433,-0.0593 0.1651,-0.0593 0.2921,-0.17357 0.127,-0.11853 0.2032,-0.2921 0.08043,-0.1778 0.08043,-0.41063 h -0.901699 q -0.3302,0 -0.486833,0.127 -0.1524,0.127 -0.1524,0.3048 z m 2.81887,-2.667 v 2.11243 h 0.728133 l 0.626533,-1.0287 h 0.127 l -0.651933,1.08374 0.651933,1.08373 h -0.127 l -0.626533,-1.0287 h -0.728133 v 1.0287 h -0.127 v -3.2512 z m 4.1693,2.16747 v 0.0677 h -1.981199 q 0,0.22013 0.08467,0.3937 0.08467,0.17356 0.2159,0.29633 0.135466,0.12277 0.304799,0.1905 0.169334,0.0635 0.338667,0.0635 0.2159,0 0.376766,-0.0593 0.1651,-0.0635 0.296333,-0.16086 l 0.06773,0.0889 q -0.152399,0.11853 -0.334433,0.18203 -0.182033,0.0635 -0.410633,0.0635 -0.198966,0 -0.389466,-0.072 -0.1905,-0.0762 -0.3429,-0.22013 -0.148166,-0.14393 -0.241299,-0.35137 -0.09313,-0.21166 -0.09313,-0.48259 0,-0.23284 0.0762,-0.43604 0.0762,-0.2032 0.211667,-0.3556 0.1397,-0.1524 0.334433,-0.2413 0.194733,-0.0889 0.431799,-0.0889 0.249767,0 0.4445,0.0974 0.194733,0.0931 0.3302,0.24977 0.135466,0.15663 0.207433,0.35983 0.07197,0.2032 0.07197,0.41487 z m -1.0541,-1.00754 q -0.203199,0 -0.372533,0.072 -0.169333,0.072 -0.292099,0.2032 -0.122767,0.13123 -0.194734,0.30903 -0.06773,0.1778 -0.06773,0.38524 h 1.858432 q 0,-0.19897 -0.06773,-0.37254 -0.06773,-0.1778 -0.1905,-0.30903 -0.122767,-0.13547 -0.296333,-0.21167 -0.169333,-0.0762 -0.376767,-0.0762 z m 1.972199,2.09127 h -0.127 v -2.16747 h 0.110066 v 0.48684 q 0.09313,-0.2413 0.296334,-0.36407 0.203199,-0.12277 0.457199,-0.12277 h 0.08467 v 0.11007 h -0.08467 q -0.156633,0 -0.2921,0.055 -0.131233,0.0508 -0.232833,0.14817 -0.09737,0.0974 -0.156633,0.23283 -0.05503,0.13124 -0.05503,0.2921 z"
     id="text4"
     style="font-weight:100;font-size:4.23333px;line-height:0;font-family:'Liber Grotesque Family';-inkscape-font-specification:'Liber Grotesque Family, Thin';letter-spacing:0.304271px;word-spacing:0px;direction:rtl;display:inline;fill:#c8c8b6;fill-rule:evenodd;stroke:#c8c8b6;stroke-width:0"
     aria-label="shapetaker" />
</svg>
