<?xml version="1.0" encoding="UTF-8"?>
<svg xmlns="http://www.w3.org/2000/svg" width="132.08mm" height="128.5mm" viewBox="0 0 132.08 128.5" version="1.1">
  <defs>
    <linearGradient id="panelGradient" x1="0" y1="0" x2="0" y2="1">
      <stop offset="0%" stop-color="#1e1f26"/>
      <stop offset="100%" stop-color="#0f1014"/>
    </linearGradient>
  </defs>
  <rect x="0" y="0" width="132.08" height="128.5" fill="url(#panelGradient)"/>
  <!-- Hidden panel markers for control alignment -->
  <g id="tessellation-control-markers" style="display:none;fill:#ff0000;fill-opacity:1;stroke:#ff0000;stroke-width:0.3;stroke-linecap:round;stroke-opacity:1;paint-order:fill markers stroke">
    <!-- Row 1 -->
    <circle id="tess-time1" cx="20" cy="18" r="6.5"/>
    <circle id="tess-tap" cx="38" cy="18" r="3"/>
    <circle id="tess-tempo-light" cx="38" cy="18" r="2"/>
    <!-- Row 2 -->
    <circle id="tess-subdiv2" cx="16" cy="36" r="4"/>
    <circle id="tess-time2" cx="44" cy="36" r="4"/>
    <circle id="tess-subdiv3" cx="72" cy="36" r="4"/>
    <circle id="tess-time3" cx="100" cy="36" r="4"/>
    <!-- Row 3 -->
    <circle id="tess-mix1" cx="14" cy="54" r="4"/>
    <circle id="tess-repeats1" cx="32" cy="54" r="4"/>
    <circle id="tess-mix1-light" cx="15" cy="51" r="1.8"/>
    <circle id="tess-delay1-vu-light" cx="31" cy="51" r="1.8"/>
    <circle id="tess-mix2" cx="52" cy="54" r="4"/>
    <circle id="tess-repeats2" cx="70" cy="54" r="4"/>
    <circle id="tess-mix2-light" cx="53" cy="51" r="1.8"/>
    <circle id="tess-delay2-vu-light" cx="69" cy="51" r="1.8"/>
    <circle id="tess-mix3" cx="90" cy="54" r="4"/>
    <circle id="tess-repeats3" cx="108" cy="54" r="4"/>
    <circle id="tess-mix3-light" cx="91" cy="51" r="1.8"/>
    <circle id="tess-delay3-vu-light" cx="107" cy="51" r="1.8"/>
    <!-- Row 4 -->
    <circle id="tess-tone1" cx="23" cy="70" r="4"/>
    <circle id="tess-tone2" cx="61" cy="70" r="4"/>
    <circle id="tess-tone3" cx="99" cy="70" r="4"/>
    <!-- Row 5 -->
    <circle id="tess-voice1" cx="23" cy="84" r="3.5"/>
    <circle id="tess-voice2" cx="61" cy="84" r="3.5"/>
    <circle id="tess-voice3" cx="99" cy="84" r="3.5"/>
    <!-- Row 6 -->
    <circle id="tess-mod-depth" cx="28" cy="96" r="4"/>
    <circle id="tess-mod-rate" cx="66" cy="96" r="4"/>
    <circle id="tess-xfeed" cx="104" cy="96" r="4"/>
    <!-- Row 7 -->
    <circle id="tess-pingpong" cx="23" cy="108" r="3.5"/>
    <circle id="tess-in-l" cx="92" cy="108" r="3.5"/>
    <circle id="tess-in-r" cx="110" cy="108" r="3.5"/>
    <!-- Row 8 inputs -->
    <circle id="tess-time1-cv" cx="12" cy="120" r="3.5"/>
    <circle id="tess-time2-cv" cx="21" cy="120" r="3.5"/>
    <circle id="tess-time3-cv" cx="30" cy="120" r="3.5"/>
    <circle id="tess-repeats-cv" cx="39" cy="120" r="3.5"/>
    <circle id="tess-mod-cv" cx="48" cy="120" r="3.5"/>
    <!-- Row 8 outputs -->
    <circle id="tess-out-l" cx="61" cy="120" r="3.5"/>
    <circle id="tess-out-r" cx="70" cy="120" r="3.5"/>
    <circle id="tess-delay1-out" cx="79" cy="120" r="3.5"/>
    <circle id="tess-delay2-out" cx="88" cy="120" r="3.5"/>
    <circle id="tess-delay3-out" cx="97" cy="120" r="3.5"/>
  </g>
  <text x="66.04" y="10" text-anchor="middle" font-family="Rajdhani, sans-serif" font-size="6" fill="#e9dfc8" letter-spacing="1.5">TESSELLATION</text>
</svg>
