<?xml version="1.0" encoding="UTF-8" standalone="no"?>
<svg
   width="131.318mm"
   height="128.5mm"
   viewBox="0 0 131.318 128.5"
   version="1.1"
   id="svg44"
   sodipodi:docname="Transmutation.svg"
   inkscape:version="1.4.2 (ebf0e940, 2025-05-08)"
   xml:space="preserve"
   xmlns:inkscape="http://www.inkscape.org/namespaces/inkscape"
   xmlns:sodipodi="http://sodipodi.sourceforge.net/DTD/sodipodi-0.dtd"
   xmlns:xlink="http://www.w3.org/1999/xlink"
   xmlns="http://www.w3.org/2000/svg"
   xmlns:svg="http://www.w3.org/2000/svg"><sodipodi:namedview
   id="namedview1"
   pagecolor="#505050"
   bordercolor="#eeeeee"
   borderopacity="1"
   inkscape:showpageshadow="0"
   inkscape:pageopacity="0"
   inkscape:pagecheckerboard="0"
   inkscape:deskcolor="#505050"
   inkscape:document-units="mm"
   inkscape:zoom="1.2701983"
   inkscape:cx="199.18149"
   inkscape:cy="229.09808"
   inkscape:window-width="1800"
   inkscape:window-height="1097"
   inkscape:window-x="0"
   inkscape:window-y="44"
   inkscape:window-maximized="1"
   inkscape:current-layer="svg44" /><defs
   id="defs44">
     
     <!-- Matte texture filter using SVG turbulence -->
     <filter
   id="matteTexture"
   x="0"
   y="0"
   width="100%"
   height="100%">
       <feTurbulence
   baseFrequency="0.9"
   numOctaves="4"
   result="turbulence"
   id="feTurbulence1" />
       <feColorMatrix
   in="turbulence"
   type="saturate"
   values="0"
   id="feColorMatrix1" />
       <feComposite
   in="SourceGraphic"
   in2="turbulence"
   operator="multiply"
   id="feComposite1" />
     </filter>
     
     <linearGradient
   id="linearGradient7"><stop
     style="stop-color:#00ffb4;stop-opacity:1;"
     offset="0"
     id="stop7" /><stop
     style="stop-color:#00ffb4;stop-opacity:0;"
     offset="1"
     id="stop8" /></linearGradient><linearGradient
   xlink:href="#linearGradient7"
   id="linearGradient8"
   x1="13.999519"
   y1="22.443604"
   x2="17.901654"
   y2="22.443604"
   gradientUnits="userSpaceOnUse" /></defs>
     
     <!-- Matte black background -->
     <ellipse
   cx="102.28805"
   cy="28.086258"
   fill="none"
   stroke="#444444"
   stroke-width="0.180723"
   opacity="0"
   id="seq_b_led"
   style="display:none;opacity:1"
   rx="2.4096384"
   ry="2.4096386" /><ellipse
   cx="29.029953"
   cy="28.086258"
   fill="none"
   stroke="#444444"
   stroke-width="0.180723"
   opacity="0"
   id="seq_a_led"
   style="display:none;opacity:1"
   rx="2.4096384"
   ry="2.4096386" /><!-- Panel background --><!-- Module title --><!-- Chord Pack Button Area --><!-- Edit Mode Section --><!-- Edit A/B button placeholders --><circle
   cx="55.973103"
   cy="14.391238"
   r="3"
   fill="none"
   stroke="#444444"
   stroke-width="0.3"
   opacity="0"
   id="edit_a_btn"
   style="display:none;opacity:1" /><circle
   cx="74.402115"
   cy="14.263938"
   r="3"
   fill="none"
   stroke="#444444"
   stroke-width="0.3"
   opacity="0"
   id="edit_b_btn"
   style="display:none;opacity:1" /><!-- Top symbol row placeholders (6 symbols) - above matrix with proper spacing --><rect
   x="36.031109"
   y="25.086258"
   width="6"
   height="6"
   fill="none"
   stroke="#444444"
   stroke-width="0.3"
   id="alchem_1"
   style="display:none" /><rect
   x="46.682266"
   y="25.086258"
   width="6"
   height="6"
   fill="none"
   stroke="#444444"
   stroke-width="0.3"
   id="alchem_2"
   style="display:none" /><rect
   x="57.333424"
   y="25.086258"
   width="6"
   height="6"
   fill="none"
   stroke="#444444"
   stroke-width="0.3"
   id="alchem_3"
   style="display:none" /><rect
   x="67.984581"
   y="25.086258"
   width="6"
   height="6"
   fill="none"
   stroke="#444444"
   stroke-width="0.3"
   id="alchem_4"
   style="display:none" /><rect
   x="78.635735"
   y="25.086258"
   width="6"
   height="6"
   fill="none"
   stroke="#444444"
   stroke-width="0.3"
   id="alchem_5"
   style="display:none" /><rect
   x="89.286888"
   y="25.086258"
   width="6"
   height="6"
   fill="none"
   stroke="#444444"
   stroke-width="0.3"
   id="alchem_6"
   style="display:none" /><!-- 8x8 Matrix Area - centered with proper spacing from symbols --><rect
   x="27.15761"
   y="34.0"
   width="77.002777"
   height="80.285408"
   fill="none"
   stroke="#555555"
   stroke-width="1.25531"
   id="main_screen"
   style="display:none" /><!-- Bottom symbol row placeholders (6 symbols) - below matrix with proper spacing --><rect
   x="36.031109"
   y="117.56416"
   width="6"
   height="6"
   fill="none"
   stroke="#444444"
   stroke-width="0.3"
   id="alchem_7"
   style="display:none" /><rect
   x="46.682266"
   y="117.56416"
   width="6"
   height="6"
   fill="none"
   stroke="#444444"
   stroke-width="0.3"
   id="alchem_8"
   style="display:none" /><rect
   x="57.33342"
   y="117.56416"
   width="6"
   height="6"
   fill="none"
   stroke="#444444"
   stroke-width="0.3"
   id="alchem_9"
   style="display:none" /><rect
   x="67.984573"
   y="117.56416"
   width="6"
   height="6"
   fill="none"
   stroke="#444444"
   stroke-width="0.3"
   id="alchem_10"
   style="display:none" /><rect
   x="78.635735"
   y="117.56416"
   width="6"
   height="6"
   fill="none"
   stroke="#444444"
   stroke-width="0.3"
   id="alchem_11"
   style="display:none" /><rect
   x="89.286888"
   y="117.56416"
   width="6"
   height="6"
   fill="none"
   stroke="#444444"
   stroke-width="0.3"
   id="alchem_12"
   style="display:none" /><!-- Left Side - Sequence A --><!-- Length A knob --><circle
   cx="15.950587"
   cy="37.849998"
   r="4"
   fill="none"
   stroke="#444444"
   stroke-width="0.3"
   opacity="0"
   id="seq_a_length"
   style="display:none;opacity:1" /><!-- Rest button --><circle
   cx="15.950587"
   cy="53.27956"
   r="2.5"
   fill="none"
   stroke="#444444"
   stroke-width="0.3"
   opacity="0"
   id="rest_btn"
   style="display:none;opacity:1" /><!-- Control buttons A --><circle
   cx="22.586929"
   cy="67.512939"
   r="2"
   fill="none"
   stroke="#444444"
   stroke-width="0.3"
   opacity="0"
   id="a_play_btn"
   style="display:none;opacity:1" /><circle
   cx="22.784245"
   cy="75.573959"
   r="2"
   fill="none"
   stroke="#444444"
   stroke-width="0.3"
   opacity="0"
   id="a_stop_btn"
   style="display:none;opacity:1" /><circle
   cx="22.784245"
   cy="83.509323"
   r="2"
   fill="none"
   stroke="#444444"
   stroke-width="0.3"
   opacity="0"
   id="a_reset_btn"
   style="display:none;opacity:1" /><!-- I/O A --><circle
   cx="15.950586"
   cy="95.834518"
   r="2.5"
   fill="none"
   stroke="#444444"
   stroke-width="0.3"
   opacity="0"
   id="a_clk_cv"
   style="display:none;opacity:1" /><circle
   cx="7.5470452"
   cy="67.512939"
   r="2.5"
   fill="none"
   stroke="#444444"
   stroke-width="0.3"
   opacity="0"
   id="a_play_cv"
   style="display:none;opacity:1" /><circle
   cx="7.5470452"
   cy="75.511131"
   r="2.5"
   fill="none"
   stroke="#444444"
   stroke-width="0.3"
   opacity="0"
   id="a_stop_cv"
   style="display:none;opacity:1" /><circle
   cx="123.6797"
   cy="75.511131"
   r="2.5"
   fill="none"
   stroke="#444444"
   stroke-width="0.3"
   opacity="0"
   id="b_stop_cv"
   style="display:none;opacity:1" /><circle
   cx="15.950586"
   cy="105.7832"
   r="2.5"
   fill="none"
   stroke="#444444"
   stroke-width="0.3"
   opacity="0"
   id="a_cv_out"
   style="display:none;opacity:1" /><circle
   cx="15.950586"
   cy="115.73187"
   r="2.5"
   fill="none"
   stroke="#444444"
   stroke-width="0.3"
   opacity="0"
   id="a_gate_out"
   style="display:none;opacity:1" /><!-- Right Side - Sequence B --><!-- Length B knob --><circle
   cx="115.02555"
   cy="37.849998"
   r="4"
   fill="none"
   stroke="#444444"
   stroke-width="0.3"
   opacity="0"
   id="seq_b_length"
   style="display:none;opacity:1" /><!-- Tie button --><circle
   cx="115.02555"
   cy="53.27956"
   r="2.5"
   fill="none"
   stroke="#444444"
   stroke-width="0.3"
   opacity="0"
   id="tie_btn"
   style="display:none;opacity:1" /><!-- Control buttons B --><circle
   cx="109.32002"
   cy="67.512939"
   r="2"
   fill="none"
   stroke="#444444"
   stroke-width="0.3"
   opacity="0"
   id="b_play_btn"
   style="display:none;opacity:1" /><circle
   cx="109.32002"
   cy="75.511131"
   r="2"
   fill="none"
   stroke="#444444"
   stroke-width="0.3"
   opacity="0"
   id="b_stop_btn"
   style="display:none;opacity:1" /><circle
   cx="109.32003"
   cy="83.509323"
   r="2"
   fill="none"
   stroke="#444444"
   stroke-width="0.3"
   opacity="0"
   id="b_reset_btn"
   style="display:none;opacity:1" /><!-- Mode switch B --><rect
   x="114.31855"
   y="9.5793562"
   width="4"
   height="8"
   fill="none"
   stroke="#444444"
   stroke-width="0.3"
   opacity="0"
   id="mode_switch"
   style="display:none;opacity:1" /><!-- I/O B --><circle
   cx="115.02555"
   cy="95.834518"
   r="2.5"
   fill="none"
   stroke="#444444"
   stroke-width="0.3"
   opacity="0"
   id="b_clk_cv"
   style="display:none;opacity:1" /><circle
   cx="115.02555"
   cy="105.7832"
   r="2.5"
   fill="none"
   stroke="#444444"
   stroke-width="0.3"
   opacity="0"
   id="b_cv_out"
   style="display:none;opacity:1" /><circle
   cx="115.02555"
   cy="115.73187"
   r="2.5"
   fill="none"
   stroke="#444444"
   stroke-width="0.3"
   opacity="0"
   id="b_gate_out"
   style="display:none;opacity:1" /><!-- Clock control (center bottom) --><circle
   cx="15.950588"
   cy="18.322521"
   r="4"
   fill="none"
   stroke="#444444"
   stroke-width="0.3"
   opacity="0"
   id="main_bpm"
   style="display:none;opacity:1" /><path
   style="font-style:oblique;font-weight:800;font-size:4.93889px;font-family:'Liber Grotesque Family';-inkscape-font-specification:'Liber Grotesque Family, Ultra-Bold Oblique';letter-spacing:0.79375px;word-spacing:0.529167px;direction:rtl;display:inline;fill:#00ffb4;fill-rule:evenodd;stroke:#fdfdfd;stroke-opacity:0"
   d="M 16.704823,29.901299 H 15.746678 L 15.0256,26.271215 h 0.651934 l 0.6223,3.106561 1.491544,-3.106561 h 0.656873 z"
   id="text7"
   aria-label="V" /><path
   d="m 62.353717,20.639813 h -0.3937 l 0.123825,-0.892175 q 0.0127,-0.07938 0,-0.149225 -0.0095,-0.07303 -0.04445,-0.127 -0.03493,-0.05398 -0.09525,-0.08573 -0.06032,-0.03175 -0.14605,-0.03175 -0.15875,0 -0.269875,0.1143 -0.10795,0.1143 -0.13335,0.2794 l -0.123825,0.892175 h -0.3937 l 0.123825,-0.892175 q 0.0127,-0.07938 -0.0032,-0.149225 -0.01588,-0.07303 -0.05398,-0.127 -0.0381,-0.05398 -0.09842,-0.08573 -0.06032,-0.03175 -0.142875,-0.03175 -0.08255,0 -0.155575,0.03175 -0.06985,0.03175 -0.127,0.08573 -0.05397,0.05397 -0.0889,0.127 -0.03493,0.07303 -0.04763,0.15875 l -0.123825,0.88265 h -0.37465 l 0.2286,-1.6256 h 0.37465 l -0.02858,0.206375 q 0.0381,-0.04763 0.09208,-0.0889 0.05398,-0.04445 0.117475,-0.0762 0.06668,-0.03492 0.1397,-0.05397 0.0762,-0.02223 0.1524,-0.02223 0.149225,0 0.26035,0.07303 0.1143,0.06985 0.1778,0.180975 0.123825,-0.117475 0.269875,-0.18415 0.149225,-0.06985 0.31115,-0.06985 0.155575,0 0.276225,0.06033 0.123825,0.06032 0.200025,0.1651 0.07937,0.1016 0.111125,0.2413 0.03493,0.1397 0.0095,0.301625 z m 0.67945,-1.6256 h 0.377825 l -0.117475,0.841375 q -0.01588,0.09525 0,0.18415 0.01588,0.08573 0.05715,0.149225 0.04445,0.0635 0.12065,0.1016 0.0762,0.0381 0.187325,0.0381 0.180975,0 0.320675,-0.127 0.142875,-0.127 0.180975,-0.352425 l 0.117475,-0.835025 h 0.37465 l -0.2286,1.6256 h -0.37465 l 0.02858,-0.20955 q -0.04445,0.04763 -0.10795,0.09208 -0.06032,0.04127 -0.136525,0.0762 -0.07303,0.03175 -0.1524,0.0508 -0.07937,0.02223 -0.161925,0.02223 -0.155575,0 -0.2794,-0.05715 -0.123825,-0.05715 -0.206375,-0.1651 -0.07937,-0.10795 -0.111125,-0.26035 -0.03175,-0.155575 -0.0064,-0.346075 z m 2.117727,1.6256 0.180975,-1.292225 h -0.37465 l 0.04763,-0.333375 h 0.37465 l 0.05715,-0.4064 h 0.381 l -0.05715,0.4064 h 0.37465 l -0.04762,0.333375 h -0.37465 l -0.180975,1.292225 z m 2.127252,-0.2286 q -0.0889,0.1143 -0.23495,0.1905 -0.14605,0.07303 -0.320675,0.07303 -0.1397,0 -0.2413,-0.04127 -0.1016,-0.04128 -0.1651,-0.111125 -0.0635,-0.06985 -0.0889,-0.161925 -0.0254,-0.09525 -0.0127,-0.200025 0.01587,-0.09842 0.0635,-0.187325 0.0508,-0.0889 0.1397,-0.155575 0.09207,-0.06668 0.22225,-0.104775 0.13335,-0.0381 0.3048,-0.0381 h 0.43815 l 0.0032,-0.02222 q 0.01905,-0.136525 -0.0508,-0.225425 -0.06668,-0.09208 -0.23495,-0.09208 -0.104775,0 -0.2032,0.04445 -0.09525,0.04127 -0.174625,0.12065 l -0.22225,-0.219075 q 0.117475,-0.12065 0.28575,-0.206375 0.17145,-0.08573 0.36195,-0.0889 0.17145,0 0.295275,0.05398 0.123825,0.05397 0.19685,0.14605 0.0762,0.0889 0.104775,0.20955 0.03175,0.12065 0.0127,0.257175 l -0.1397,0.987425 h -0.371475 z m -0.67945,-0.250825 q -0.0127,0.08573 0.05715,0.142875 0.07303,0.05398 0.193675,0.05398 0.0762,0 0.15875,-0.0254 0.08255,-0.02858 0.149225,-0.07937 0.06985,-0.0508 0.12065,-0.12065 0.0508,-0.06985 0.06032,-0.155575 h -0.43815 q -0.14605,0 -0.219075,0.0508 -0.06985,0.0508 -0.08255,0.13335 z m 1.714502,0.479425 0.180975,-1.292225 h -0.37465 l 0.04762,-0.333375 h 0.37465 l 0.05715,-0.4064 h 0.381 l -0.05715,0.4064 h 0.37465 l -0.04762,0.333375 h -0.37465 l -0.180975,1.292225 z m 2.711451,-0.796925 q -0.0032,0.03175 -0.01587,0.07302 -0.0095,0.0381 -0.01905,0.0635 h -1.241425 q -0.0095,0.06668 0.01587,0.130175 0.02858,0.06032 0.08255,0.10795 0.05715,0.04763 0.13335,0.0762 0.0762,0.02858 0.17145,0.02858 0.12065,0 0.2286,-0.04763 0.111125,-0.04763 0.19685,-0.123825 l 0.244475,0.219075 q -0.1397,0.142875 -0.327025,0.22225 -0.18415,0.07938 -0.3937,0.07938 -0.1524,0 -0.29845,-0.0508 -0.142875,-0.05397 -0.24765,-0.15875 -0.1016,-0.104775 -0.155575,-0.263525 -0.0508,-0.15875 -0.02223,-0.371475 0.0254,-0.174625 0.104775,-0.327025 0.07937,-0.155575 0.2032,-0.269875 0.123825,-0.1143 0.282575,-0.180975 0.161925,-0.06668 0.346075,-0.06668 0.18415,0 0.3302,0.06668 0.14605,0.0635 0.238125,0.180975 0.09207,0.1143 0.130175,0.27305 0.0381,0.155575 0.0127,0.339725 z m -0.75565,-0.523875 q -0.1016,0 -0.187325,0.03492 -0.08255,0.03175 -0.14605,0.08255 -0.06033,0.0508 -0.09843,0.1143 -0.0381,0.0635 -0.04445,0.123825 h 0.8636 q 0.0063,-0.05715 -0.01588,-0.117475 -0.01905,-0.0635 -0.06985,-0.1143 -0.0508,-0.05398 -0.127,-0.0889 -0.0762,-0.03492 -0.174625,-0.03492 z"
   id="text7-1"
   style="font-style:oblique;font-weight:800;font-size:3.175px;font-family:'Liber Grotesque Family';-inkscape-font-specification:'Liber Grotesque Family, Ultra-Bold Oblique';letter-spacing:0.0635px;word-spacing:0.529167px;direction:rtl;display:inline;fill:#e8e0c8;fill-opacity:1;fill-rule:evenodd;stroke:#fdfdfd;stroke-opacity:0"
   aria-label="mutate" /><path
   d="m 59.094545,18.015678 h 0.8128 l -0.05398,0.37465 H 59.41839 l -0.34925,2.5019 h 0.434975 l -0.05398,0.37465 h -0.8128 z"
   id="text7-1-7"
   style="font-style:oblique;font-weight:800;font-size:3.175px;font-family:'Liber Grotesque Family';-inkscape-font-specification:'Liber Grotesque Family, Ultra-Bold Oblique';letter-spacing:0.0635px;word-spacing:0.529167px;direction:rtl;display:inline;fill:#00ffb4;fill-rule:evenodd;stroke:#fdfdfd;stroke-opacity:0"
   aria-label="]" /><path
   d="m 71.664352,21.266878 h -0.8128 l 0.05398,-0.37465 h 0.43815 l 0.34925,-2.5019 h -0.43815 l 0.05397,-0.37465 h 0.8128 z"
   id="text7-1-9"
   style="font-style:oblique;font-weight:800;font-size:3.175px;font-family:'Liber Grotesque Family';-inkscape-font-specification:'Liber Grotesque Family, Ultra-Bold Oblique';letter-spacing:0.0635px;word-spacing:0.529167px;direction:rtl;display:inline;fill:#b400ff;fill-rule:evenodd;stroke:#fdfdfd;stroke-opacity:0"
   aria-label="[" /><path
   d="m 48.962794,15.687697 h -0.624417 l -0.536222,-2.592919 h 0.426861 l 0.465667,2.254252 1.100667,-2.254252 h 0.426862 z"
   id="text7-5"
   style="font-style:oblique;font-weight:bold;font-size:3.52778px;font-family:'Liber Grotesque Family';-inkscape-font-specification:'Liber Grotesque Family, Bold Oblique';letter-spacing:0.79375px;word-spacing:0.529167px;direction:rtl;display:inline;fill:#00ffb4;fill-rule:evenodd;stroke:#fdfdfd;stroke-opacity:0"
   aria-label="V" /><path
   style="font-style:oblique;font-weight:800;font-size:4.93889px;font-family:'Liber Grotesque Family';-inkscape-font-specification:'Liber Grotesque Family, Ultra-Bold Oblique';letter-spacing:0.79375px;word-spacing:0.529167px;direction:rtl;display:inline;fill:#b400ff;fill-rule:evenodd;stroke:#fdfdfd;stroke-opacity:0"
   d="m 114.62655,28.330732 0.0741,-0.528462 h 0.99271 l 0.71614,-0.992716 h -1.67922 l 0.0741,-0.538339 h 2.48426 l 0.0642,0.128411 -0.99272,1.402644 h 0.65194 l -0.0741,0.528462 h -0.9532 l -0.74084,1.032228 h 1.65453 l -0.0741,0.538339 h -2.48426 l -0.0593,-0.128412 1.03717,-1.442155 z"
   id="text8"
   aria-label="Z" /><path
   d="m 82.325182,14.567803 0.05433,-0.384176 h 0.783873 l 0.62089,-0.830439 h -1.381482 l 0.05433,-0.388056 h 1.955802 l 0.04657,0.100894 -0.814917,1.117601 h 0.539398 l -0.05433,0.384176 h -0.752833 l -0.636412,0.861484 h 1.362077 l -0.05433,0.388056 h -1.955802 l -0.04269,-0.100894 0.842081,-1.148646 z"
   id="text8-5"
   style="font-style:oblique;font-weight:bold;font-size:3.88056px;font-family:'Liber Grotesque Family';-inkscape-font-specification:'Liber Grotesque Family, Bold Oblique';letter-spacing:0.79375px;word-spacing:0.529167px;direction:rtl;display:inline;fill:#b400ff;fill-rule:evenodd;stroke:#fdfdfd;stroke-opacity:0"
   aria-label="Z" /><path
   d="m 12.073689,46.734421 v -2.004904 h 0.263665 v 2.004904 z m 2.103787,-0.657859 q 0,0.02088 -0.0026,0.0496 -0.0026,0.02872 -0.0078,0.04699 h -1.065105 q 0,0.07048 0.03394,0.135749 0.03394,0.06265 0.09137,0.112254 0.05743,0.04699 0.133138,0.07571 0.07571,0.0261 0.159244,0.0261 0.109643,0 0.195791,-0.03916 0.08876,-0.03916 0.151412,-0.101812 l 0.18796,0.151412 q -0.0992,0.109643 -0.23756,0.169686 -0.135749,0.05743 -0.300214,0.05743 -0.125306,0 -0.248002,-0.04177 -0.120085,-0.04438 -0.219286,-0.130527 -0.09659,-0.08876 -0.156634,-0.219287 -0.06004,-0.130527 -0.06004,-0.302824 0,-0.14358 0.04699,-0.268886 0.0496,-0.127917 0.135748,-0.221897 0.08876,-0.09398 0.211455,-0.148802 0.122696,-0.05482 0.274108,-0.05482 0.151412,0 0.276719,0.05482 0.125306,0.05482 0.214065,0.151412 0.08876,0.09398 0.135749,0.221897 0.0496,0.127917 0.0496,0.276719 z m -0.673522,-0.47251 q -0.09398,0 -0.169686,0.03133 -0.0731,0.03133 -0.125307,0.08354 -0.05221,0.0496 -0.08093,0.114864 -0.0261,0.06265 -0.0261,0.130528 h 0.80666 q 0,-0.06265 -0.02872,-0.127917 -0.02872,-0.06526 -0.08354,-0.114864 -0.05221,-0.05221 -0.127918,-0.08354 -0.0731,-0.03394 -0.164464,-0.03394 z m 2.435326,1.130369 h -0.255835 v -0.702239 q 0,-0.08615 -0.02611,-0.164465 -0.02611,-0.07832 -0.07832,-0.135748 -0.0496,-0.05743 -0.125306,-0.09137 -0.0731,-0.03394 -0.169686,-0.03394 -0.08354,0 -0.156633,0.03133 -0.0731,0.03133 -0.127917,0.08876 -0.05221,0.05743 -0.08615,0.140969 -0.03133,0.08093 -0.03394,0.180129 v 0.686575 h -0.255834 v -1.336603 h 0.255834 v 0.221897 q 0.02872,-0.04438 0.0731,-0.08876 0.04699,-0.04438 0.107033,-0.07832 0.06265,-0.03655 0.133138,-0.05743 0.0731,-0.02349 0.151412,-0.02349 0.127917,0 0.23756,0.0496 0.109643,0.04699 0.18796,0.135749 0.08093,0.08615 0.125306,0.211455 0.04438,0.125306 0.04438,0.276718 z m 0.534847,-0.869314 q 0,-0.109643 0.04177,-0.206234 0.04177,-0.0992 0.112253,-0.172296 0.0731,-0.0731 0.169686,-0.114864 0.0992,-0.04177 0.211455,-0.04177 0.109643,0 0.203623,0.04177 0.09398,0.03916 0.164465,0.112253 0.07571,-0.04438 0.154022,-0.06526 0.08093,-0.02088 0.174907,-0.02088 h 0.02088 v 0.229729 h -0.261055 q 0.03655,0.04438 0.05743,0.109643 0.02088,0.06265 0.02088,0.127917 0,0.112254 -0.04177,0.211455 -0.04177,0.09659 -0.114864,0.169686 -0.0731,0.07048 -0.172296,0.112253 -0.09659,0.04177 -0.206234,0.04177 -0.07571,0 -0.148802,-0.02611 -0.07309,-0.02611 -0.130527,-0.06526 -0.07048,0.01305 -0.117475,0.05221 -0.04438,0.03916 -0.04438,0.107032 0,0.07048 0.0496,0.107033 0.0496,0.03655 0.133138,0.03655 h 0.420299 q 0.23756,0 0.365477,0.107032 0.130528,0.107033 0.130528,0.294993 0,0.195791 -0.146191,0.305434 -0.146191,0.109644 -0.399414,0.109644 -0.13836,0 -0.255834,-0.03916 -0.117475,-0.03655 -0.203624,-0.101811 -0.08615,-0.06265 -0.133138,-0.151412 -0.04699,-0.08876 -0.04438,-0.190571 l 0.109643,-0.09137 q -0.125306,-0.02611 -0.198402,-0.114864 -0.0731,-0.08876 -0.06787,-0.214065 0.0026,-0.117475 0.07571,-0.206234 0.07571,-0.09137 0.185349,-0.125307 -0.05221,-0.06787 -0.08354,-0.151412 -0.03133,-0.08354 -0.03133,-0.177517 z m 0.242781,0 q 0,0.06004 0.0235,0.114864 0.0235,0.05221 0.06265,0.09137 0.03916,0.03916 0.09137,0.06265 0.05482,0.02349 0.114864,0.02349 0.06004,0 0.112254,-0.02349 0.05221,-0.0235 0.09137,-0.06265 0.03916,-0.03916 0.06265,-0.09137 0.02349,-0.05482 0.02349,-0.114864 0,-0.06004 -0.02349,-0.112254 -0.0235,-0.05221 -0.06265,-0.09137 -0.03916,-0.03916 -0.09137,-0.06265 -0.05221,-0.02349 -0.112254,-0.02349 -0.06004,0 -0.114864,0.02349 -0.05221,0.0235 -0.09137,0.06265 -0.03916,0.03916 -0.06265,0.09137 -0.0235,0.05221 -0.0235,0.112254 z m 0.404636,1.32355 q 0.135748,0 0.208844,-0.04177 0.0731,-0.04177 0.0731,-0.133138 0,-0.07049 -0.05743,-0.114864 -0.05743,-0.04438 -0.174907,-0.04438 h -0.47251 q -0.0026,0.07048 0.02872,0.130528 0.03394,0.06004 0.08876,0.104422 0.05743,0.04699 0.135749,0.0731 0.07832,0.02611 0.169686,0.02611 z m 1.140495,-0.454236 v -1.106874 h -0.308045 v -0.229729 h 0.308045 v -0.334151 h 0.261055 v 0.334151 h 0.308045 v 0.229729 h -0.308045 v 1.106874 z m 2.323072,0 h -0.258445 v -0.694407 q 0,-0.08354 -0.03133,-0.156633 -0.03133,-0.07571 -0.08615,-0.130528 -0.05482,-0.05482 -0.130528,-0.08615 -0.07309,-0.03394 -0.156633,-0.03394 -0.08354,0 -0.156633,0.03394 -0.07309,0.03394 -0.130527,0.09137 -0.05482,0.05743 -0.08876,0.135749 -0.03133,0.07571 -0.03133,0.161854 V 46.73442 H 19.25372 v -2.004904 h 0.261055 v 0.89803 q 0.07571,-0.112254 0.193181,-0.180128 0.117475,-0.07048 0.258445,-0.06787 0.127917,0 0.240171,0.05221 0.112253,0.05221 0.195791,0.143581 0.08354,0.08876 0.133138,0.211454 0.0496,0.120086 0.0496,0.261056 z"
   id="text10"
   style="font-weight:600;font-size:2.61055px;font-family:'Liber Grotesque Family';-inkscape-font-specification:'Liber Grotesque Family, Semi-Bold';letter-spacing:0.171979px;word-spacing:0px;direction:rtl;display:inline;fill:#e8e0c8;fill-rule:evenodd;stroke:#fdfdfd;stroke-opacity:0;fill-opacity:1"
   aria-label="length" /><path
   d="m 110.94183,46.734421 v -2.004903 h 0.26366 v 2.004903 z m 2.10378,-0.657859 q 0,0.02088 -0.003,0.0496 -0.003,0.02872 -0.008,0.04699 h -1.0651 q 0,0.07048 0.0339,0.135748 0.0339,0.06265 0.0914,0.112254 0.0574,0.04699 0.13314,0.07571 0.0757,0.0261 0.15925,0.0261 0.10964,0 0.19579,-0.03916 0.0888,-0.03916 0.15141,-0.101811 l 0.18796,0.151411 q -0.0992,0.109644 -0.23756,0.169686 -0.13575,0.05743 -0.30021,0.05743 -0.12531,0 -0.24801,-0.04177 -0.12008,-0.04438 -0.21928,-0.130527 -0.0966,-0.08876 -0.15664,-0.219286 -0.06,-0.130528 -0.06,-0.302824 0,-0.14358 0.047,-0.268887 0.0496,-0.127917 0.13575,-0.221896 0.0888,-0.09398 0.21145,-0.148802 0.1227,-0.05482 0.27411,-0.05482 0.15141,0 0.27672,0.05482 0.12531,0.05482 0.21407,0.151412 0.0888,0.09398 0.13574,0.221897 0.0496,0.127917 0.0496,0.276718 z m -0.67352,-0.472509 q -0.094,0 -0.16968,0.03133 -0.0731,0.03133 -0.12531,0.08354 -0.0522,0.0496 -0.0809,0.114864 -0.0261,0.06265 -0.0261,0.130528 h 0.80666 q 0,-0.06265 -0.0287,-0.127917 -0.0287,-0.06526 -0.0835,-0.114865 -0.0522,-0.05221 -0.12791,-0.08354 -0.0731,-0.03394 -0.16447,-0.03394 z m 2.43533,1.130368 h -0.25584 v -0.702238 q 0,-0.08615 -0.0261,-0.164465 -0.0261,-0.07832 -0.0783,-0.135748 -0.0496,-0.05743 -0.12531,-0.09137 -0.0731,-0.03394 -0.16968,-0.03394 -0.0835,0 -0.15663,0.03133 -0.0731,0.03133 -0.12792,0.08876 -0.0522,0.05743 -0.0862,0.140969 -0.0313,0.08093 -0.0339,0.180128 v 0.686575 h -0.25583 V 45.39782 h 0.25583 v 0.221897 q 0.0287,-0.04438 0.0731,-0.08876 0.047,-0.04438 0.10703,-0.07832 0.0626,-0.03655 0.13314,-0.05743 0.0731,-0.0235 0.15141,-0.0235 0.12792,0 0.23756,0.0496 0.10964,0.04699 0.18796,0.135749 0.0809,0.08615 0.12531,0.211454 0.0444,0.125307 0.0444,0.276719 z m 0.53484,-0.869313 q 0,-0.109643 0.0418,-0.206234 0.0418,-0.0992 0.11226,-0.172296 0.0731,-0.0731 0.16968,-0.114864 0.0992,-0.04177 0.21146,-0.04177 0.10964,0 0.20362,0.04177 0.094,0.03916 0.16446,0.112253 0.0757,-0.04438 0.15403,-0.06526 0.0809,-0.02088 0.1749,-0.02088 h 0.0209 v 0.229729 h -0.26106 q 0.0365,0.04438 0.0574,0.109643 0.0209,0.06265 0.0209,0.127917 0,0.112253 -0.0418,0.211454 -0.0418,0.09659 -0.11486,0.169686 -0.0731,0.07048 -0.1723,0.112254 -0.0966,0.04177 -0.20623,0.04177 -0.0757,0 -0.14881,-0.02611 -0.0731,-0.02611 -0.13052,-0.06526 -0.0705,0.01305 -0.11748,0.05221 -0.0444,0.03916 -0.0444,0.107033 0,0.07048 0.0496,0.107032 0.0496,0.03655 0.13314,0.03655 h 0.4203 q 0.23756,0 0.36548,0.107032 0.13052,0.107033 0.13052,0.294993 0,0.195791 -0.14619,0.305434 -0.14619,0.109643 -0.39941,0.109643 -0.13836,0 -0.25583,-0.03916 -0.11748,-0.03655 -0.20363,-0.101812 -0.0862,-0.06265 -0.13314,-0.151412 -0.047,-0.08876 -0.0444,-0.19057 l 0.10964,-0.09137 q -0.12531,-0.02611 -0.1984,-0.114864 -0.0731,-0.08876 -0.0679,-0.214065 0.003,-0.117475 0.0757,-0.206234 0.0757,-0.09137 0.18535,-0.125306 -0.0522,-0.06787 -0.0835,-0.151412 -0.0313,-0.08354 -0.0313,-0.177517 z m 0.24278,0 q 0,0.06004 0.0235,0.114864 0.0235,0.05221 0.0626,0.09137 0.0392,0.03916 0.0914,0.06265 0.0548,0.02349 0.11487,0.02349 0.06,0 0.11225,-0.02349 0.0522,-0.0235 0.0914,-0.06265 0.0392,-0.03916 0.0626,-0.09137 0.0235,-0.05482 0.0235,-0.114864 0,-0.06004 -0.0235,-0.112254 -0.0235,-0.05221 -0.0626,-0.09137 -0.0392,-0.03916 -0.0914,-0.06265 -0.0522,-0.0235 -0.11225,-0.0235 -0.0601,0 -0.11487,0.0235 -0.0522,0.02349 -0.0914,0.06265 -0.0392,0.03916 -0.0626,0.09137 -0.0235,0.05221 -0.0235,0.112254 z m 0.40464,1.323548 q 0.13575,0 0.20884,-0.04177 0.0731,-0.04177 0.0731,-0.133138 0,-0.07049 -0.0574,-0.114865 -0.0574,-0.04438 -0.17491,-0.04438 h -0.47251 q -0.003,0.07048 0.0287,0.130528 0.0339,0.06004 0.0888,0.104422 0.0574,0.04699 0.13574,0.0731 0.0783,0.02611 0.16969,0.02611 z m 1.14049,-0.454235 v -1.106873 h -0.30804 v -0.229729 h 0.30804 v -0.33415 h 0.26106 v 0.33415 h 0.30804 v 0.229729 h -0.30804 v 1.106873 z m 2.32307,0 h -0.25844 v -0.694407 q 0,-0.08354 -0.0313,-0.156632 -0.0313,-0.07571 -0.0861,-0.130528 -0.0548,-0.05482 -0.13053,-0.08615 -0.0731,-0.03394 -0.15664,-0.03394 -0.0835,0 -0.15663,0.03394 -0.0731,0.03394 -0.13053,0.09137 -0.0548,0.05743 -0.0888,0.135749 -0.0313,0.07571 -0.0313,0.161854 v 0.678743 h -0.26106 v -2.004903 h 0.26106 v 0.89803 q 0.0757,-0.112254 0.19318,-0.180128 0.11747,-0.07048 0.25844,-0.06788 0.12792,0 0.24017,0.05221 0.11226,0.05221 0.1958,0.143581 0.0835,0.08876 0.13313,0.211454 0.0496,0.120085 0.0496,0.261055 z"
   id="text10-6"
   style="font-weight:600;font-size:2.61055px;font-family:'Liber Grotesque Family';-inkscape-font-specification:'Liber Grotesque Family, Semi-Bold';letter-spacing:0.171979px;word-spacing:0px;direction:rtl;display:inline;fill:#e8e0c8;fill-rule:evenodd;stroke:#fdfdfd;stroke-opacity:0;fill-opacity:1"
   aria-label="length" /><path
   d="m 14.466101,11.429628 q -0.01975,0.149578 -0.09596,0.282222 -0.07338,0.132645 -0.183445,0.231422 -0.107244,0.09596 -0.248355,0.1524 -0.138289,0.05645 -0.290689,0.05645 -0.166511,0 -0.285044,-0.0762 -0.115711,-0.07902 -0.166511,-0.183444 l -0.03669,0.259644 h -0.222955 l 0.3048,-2.1674653 h 0.222955 l -0.138289,0.9821323 q 0.04233,-0.0508 0.09596,-0.09878 0.05644,-0.04798 0.124178,-0.08185 0.07055,-0.03669 0.146755,-0.05644 0.07902,-0.02258 0.158044,-0.02258 0.1524,0 0.273756,0.05644 0.124177,0.05645 0.206022,0.155223 0.08467,0.09596 0.118533,0.228599 0.03669,0.132645 0.01693,0.282222 z m -1.250243,0 q -0.01693,0.110067 0.0085,0.206022 0.02822,0.09313 0.08467,0.163689 0.05927,0.07056 0.143933,0.110067 0.08749,0.03951 0.194733,0.03951 0.110067,0 0.208845,-0.03951 0.1016,-0.03951 0.180622,-0.110067 0.08184,-0.07056 0.135466,-0.163689 0.05362,-0.09596 0.07056,-0.206022 0.01411,-0.110066 -0.01411,-0.203199 -0.0254,-0.09596 -0.08749,-0.163689 -0.05927,-0.07056 -0.149578,-0.110067 -0.08749,-0.04233 -0.197555,-0.04233 -0.107244,0 -0.206022,0.04233 -0.09596,0.03951 -0.174978,0.110067 -0.0762,0.06773 -0.129822,0.163689 -0.05362,0.09313 -0.06773,0.203199 z m 3.236909,0 q -0.01976,0.149578 -0.09596,0.282222 -0.07338,0.132645 -0.183444,0.231422 -0.107244,0.09596 -0.248355,0.1524 -0.138289,0.05645 -0.290689,0.05645 -0.07902,0 -0.1524,-0.01976 -0.07056,-0.02258 -0.129822,-0.05644 -0.05644,-0.03669 -0.1016,-0.08185 -0.04233,-0.04798 -0.06773,-0.09878 l -0.138289,0.97931 h -0.222955 l 0.304799,-2.167465 h 0.222956 l -0.03669,0.262467 q 0.07902,-0.104423 0.217311,-0.183445 0.141111,-0.07902 0.307622,-0.07902 0.1524,0 0.273755,0.05644 0.124178,0.05645 0.206022,0.155223 0.08467,0.09596 0.118533,0.228599 0.03669,0.132645 0.01693,0.282222 z m -1.236133,0 q -0.01411,0.107245 0.0085,0.2032 0.0254,0.09313 0.08184,0.163689 0.05927,0.06773 0.143934,0.107244 0.08467,0.03951 0.189088,0.03951 0.107245,0 0.206022,-0.03951 0.1016,-0.03951 0.180623,-0.107244 0.07902,-0.07055 0.132644,-0.163689 0.05644,-0.09596 0.07056,-0.2032 0.01411,-0.107244 -0.01411,-0.200377 -0.0254,-0.09313 -0.08749,-0.160867 -0.05927,-0.07056 -0.149577,-0.110066 -0.08749,-0.03951 -0.194733,-0.03951 -0.104423,0 -0.200378,0.03951 -0.09596,0.03951 -0.172155,0.110066 -0.0762,0.06773 -0.129823,0.160867 -0.0508,0.09313 -0.06491,0.200377 z m 3.956579,0.722489 h -0.231422 l 0.115711,-0.829733 q 0.01411,-0.08749 0,-0.166511 -0.01411,-0.07902 -0.05927,-0.138289 -0.04233,-0.05927 -0.110067,-0.09313 -0.06491,-0.03387 -0.158044,-0.03387 -0.08467,0 -0.163689,0.03669 -0.07902,0.03387 -0.141111,0.09313 -0.05927,0.05927 -0.09878,0.138288 -0.03951,0.0762 -0.05362,0.163689 l -0.115711,0.829733 h -0.231422 l 0.115711,-0.829733 q 0.01129,-0.07902 -0.0056,-0.155222 -0.01411,-0.07902 -0.05644,-0.138289 -0.04233,-0.06209 -0.110067,-0.09878 -0.06773,-0.03951 -0.160867,-0.03951 -0.09313,0 -0.174977,0.03951 -0.07902,0.03669 -0.141111,0.1016 -0.05927,0.06491 -0.1016,0.1524 -0.04233,0.08467 -0.05645,0.180622 l -0.110066,0.7874 h -0.220133 l 0.2032,-1.444977 h 0.220133 l -0.03669,0.259644 q 0.03387,-0.05362 0.08184,-0.107244 0.0508,-0.05362 0.115711,-0.09596 0.06491,-0.04233 0.141111,-0.06773 0.07902,-0.0254 0.160867,-0.0254 0.163689,0 0.273755,0.08749 0.112889,0.08749 0.158045,0.222955 0.09596,-0.135466 0.24271,-0.222955 0.149578,-0.08749 0.313267,-0.08749 0.132644,0 0.237066,0.0508 0.104422,0.04798 0.172156,0.135467 0.06773,0.08749 0.09313,0.208844 0.02822,0.118533 0.0085,0.256822 z"
   id="text10-2"
   style="font-style:oblique;font-size:2.82222px;font-family:'Liber Grotesque Family';-inkscape-font-specification:'Liber Grotesque Family, Oblique';letter-spacing:0.171979px;word-spacing:0px;direction:rtl;display:inline;fill:#e8e0c8;fill-rule:evenodd;stroke:#fafafa;stroke-opacity:0;fill-opacity:1"
   aria-label="bpm" /><path
   d="M 13.885946,61.418552 H 13.624891 V 60.08195 h 0.224508 v 0.211454 q 0.07571,-0.101811 0.185349,-0.156633 0.109643,-0.05482 0.240171,-0.05482 h 0.07048 v 0.229728 h -0.07048 q -0.08615,0 -0.156633,0.02872 -0.07048,0.02872 -0.122696,0.08093 -0.05221,0.05221 -0.08093,0.122695 -0.02872,0.07049 -0.02872,0.156634 z m 2.109007,-0.657859 q 0,0.02088 -0.0026,0.0496 -0.0026,0.02872 -0.0078,0.04699 h -1.065105 q 0,0.07048 0.03394,0.135748 0.03394,0.06265 0.09137,0.112254 0.05743,0.04699 0.133138,0.07571 0.07571,0.02611 0.159244,0.02611 0.109643,0 0.195791,-0.03916 0.08876,-0.03916 0.151412,-0.101811 l 0.18796,0.151412 q -0.0992,0.109643 -0.23756,0.169686 -0.135749,0.05743 -0.300214,0.05743 -0.125306,0 -0.248002,-0.04177 -0.120085,-0.04438 -0.219286,-0.130528 -0.09659,-0.08876 -0.156634,-0.219286 -0.06004,-0.130527 -0.06004,-0.302824 0,-0.14358 0.04699,-0.268887 0.0496,-0.127917 0.135748,-0.221897 0.08876,-0.09398 0.211455,-0.148801 0.122696,-0.05482 0.274108,-0.05482 0.151412,0 0.276719,0.05482 0.125306,0.05482 0.214065,0.151412 0.08876,0.09398 0.135749,0.221897 0.0496,0.127917 0.0496,0.276718 z m -0.673522,-0.47251 q -0.09398,0 -0.169686,0.03133 -0.0731,0.03133 -0.125307,0.08354 -0.05221,0.0496 -0.08093,0.114864 -0.0261,0.06265 -0.0261,0.130528 h 0.80666 q 0,-0.06265 -0.02872,-0.127918 -0.02872,-0.06526 -0.08354,-0.114864 -0.05221,-0.05221 -0.127917,-0.08354 -0.07309,-0.03394 -0.164464,-0.03394 z m 1.302346,0.151412 q 0,0.109644 0.164465,0.156633 l 0.313266,0.08354 q 0.203623,0.05221 0.294992,0.154023 0.09137,0.101811 0.09137,0.245392 0,0.08093 -0.03394,0.151412 -0.03133,0.06787 -0.09659,0.120085 -0.06526,0.0496 -0.167075,0.07832 -0.0992,0.03133 -0.232339,0.03133 -0.101812,0 -0.195792,-0.02088 -0.09137,-0.02088 -0.169686,-0.05743 -0.07832,-0.03655 -0.138359,-0.08354 -0.06004,-0.04699 -0.09659,-0.101812 l 0.195791,-0.138359 q 0.06526,0.08093 0.177518,0.127917 0.114864,0.04438 0.227118,0.04438 0.130527,0 0.198402,-0.04438 0.06787,-0.04438 0.06787,-0.107032 0,-0.05221 -0.03916,-0.09398 -0.03655,-0.04177 -0.135749,-0.07049 l -0.289771,-0.07832 q -0.203623,-0.05482 -0.300214,-0.154022 -0.09398,-0.101812 -0.09398,-0.242782 0,-0.07832 0.03394,-0.148801 0.03394,-0.0731 0.101812,-0.127917 0.06787,-0.05482 0.167075,-0.08615 0.101812,-0.03394 0.232339,-0.03394 0.120086,0 0.221897,0.03655 0.101812,0.03655 0.174907,0.09659 0.07571,0.06004 0.117475,0.14358 0.04177,0.08093 0.04177,0.169686 H 17.20332 q -0.0026,-0.04438 -0.02611,-0.08354 -0.0235,-0.04177 -0.06526,-0.0731 -0.03916,-0.03133 -0.09398,-0.0496 -0.05221,-0.02088 -0.117475,-0.02088 -0.14619,0 -0.211454,0.05743 -0.06526,0.05482 -0.06526,0.120085 z m 1.487695,0.978957 V 60.311678 H 17.803427 V 60.08195 h 0.308045 v -0.334151 h 0.261056 v 0.334151 h 0.308045 v 0.229728 h -0.308045 v 1.106874 z"
   id="text10-9"
   style="font-weight:600;font-size:2.61055px;font-family:'Liber Grotesque Family';-inkscape-font-specification:'Liber Grotesque Family, Semi-Bold';letter-spacing:0.171979px;word-spacing:0px;direction:rtl;display:inline;fill:#e8e0c8;fill-rule:evenodd;stroke:#fdfdfd;stroke-opacity:0;fill-opacity:1"
   aria-label="rest" /><path
   d="m 113.77902,61.418552 v -1.106873 h -0.30804 v -0.229728 h 0.30804 V 59.7478 h 0.26106 v 0.334151 h 0.30804 v 0.229728 h -0.30804 v 1.106873 z m 1.27885,-1.336601 v 1.336601 h -0.26105 v -1.336601 z m -0.31326,-0.511668 q 0,-0.07571 0.0522,-0.127917 0.0548,-0.05482 0.13052,-0.05482 0.0757,0 0.12792,0.05482 0.0548,0.05221 0.0548,0.127917 0,0.07571 -0.0548,0.130528 -0.0522,0.05221 -0.12792,0.05221 -0.0757,0 -0.13052,-0.05221 -0.0522,-0.05482 -0.0522,-0.130528 z m 2.17948,1.190411 q 0,0.02088 -0.003,0.0496 -0.003,0.02872 -0.008,0.04699 h -1.0651 q 0,0.07048 0.0339,0.135749 0.0339,0.06265 0.0914,0.112253 0.0574,0.04699 0.13314,0.07571 0.0757,0.02611 0.15925,0.02611 0.10964,0 0.19579,-0.03916 0.0888,-0.03916 0.15141,-0.101812 l 0.18796,0.151412 q -0.0992,0.109643 -0.23756,0.169686 -0.13575,0.05743 -0.30021,0.05743 -0.12531,0 -0.24801,-0.04177 -0.12008,-0.04438 -0.21928,-0.130527 -0.0966,-0.08876 -0.15664,-0.219287 -0.06,-0.130527 -0.06,-0.302823 0,-0.143581 0.047,-0.268887 0.0496,-0.127917 0.13575,-0.221897 0.0888,-0.09398 0.21145,-0.148801 0.1227,-0.05482 0.27411,-0.05482 0.15141,0 0.27672,0.05482 0.12531,0.05482 0.21407,0.151412 0.0888,0.09398 0.13574,0.221897 0.0496,0.127916 0.0496,0.276718 z m -0.67352,-0.47251 q -0.094,0 -0.16968,0.03133 -0.0731,0.03133 -0.12531,0.08354 -0.0522,0.0496 -0.0809,0.114865 -0.0261,0.06265 -0.0261,0.130527 h 0.80666 q 0,-0.06265 -0.0287,-0.127917 -0.0287,-0.06526 -0.0835,-0.114864 -0.0522,-0.05221 -0.12791,-0.08354 -0.0731,-0.03394 -0.16447,-0.03394 z"
   id="text10-9-8"
   style="font-weight:600;font-size:2.61055px;font-family:'Liber Grotesque Family';-inkscape-font-specification:'Liber Grotesque Family, Semi-Bold';letter-spacing:0.171979px;word-spacing:0px;direction:rtl;display:inline;fill:#e8e0c8;fill-rule:evenodd;stroke:#fdfdfd;stroke-opacity:0;fill-opacity:1"
   aria-label="tie" /><path
   d="m 9.2732635,96.649011 q -0.09398,0.09398 -0.216676,0.148802 -0.120086,0.05221 -0.271498,0.05221 -0.14358,0 -0.271497,-0.05482 -0.125307,-0.05482 -0.219286,-0.148801 -0.09398,-0.09398 -0.148802,-0.219287 -0.05482,-0.127917 -0.05482,-0.271497 0,-0.143581 0.05482,-0.268887 0.05482,-0.127917 0.148802,-0.221897 0.09398,-0.09398 0.219286,-0.148801 0.127917,-0.05482 0.271497,-0.05482 0.156633,0 0.28194,0.06004 0.127917,0.05743 0.219286,0.154022 l -0.177517,0.174907 q -0.06004,-0.06004 -0.146191,-0.09659 -0.08354,-0.03655 -0.177518,-0.03655 -0.09137,0 -0.172296,0.03655 -0.07832,0.03394 -0.138359,0.09398 -0.06004,0.05743 -0.09398,0.138359 -0.03394,0.08093 -0.03394,0.169686 0,0.09137 0.03394,0.172296 0.03394,0.07832 0.09398,0.13836 0.06004,0.06004 0.138359,0.09398 0.08093,0.03394 0.172296,0.03394 0.09398,0 0.174907,-0.03394 0.08093,-0.03394 0.14097,-0.09137 z m 0.469582,0.174907 v -2.004904 h 0.2636655 v 2.004904 z M 10.870287,94.819014 V 96.0277 h 0.28455 l 0.33154,-0.540385 h 0.28455 l -0.402025,0.668302 0.402025,0.668301 h -0.28455 l -0.33154,-0.540384 h -0.28455 v 0.540384 h -0.258445 v -2.004904 z"
   id="text10-9-1"
   style="font-weight:600;font-size:2.61055px;font-family:'Liber Grotesque Family';-inkscape-font-specification:'Liber Grotesque Family, Semi-Bold';letter-spacing:0.171979px;word-spacing:0px;direction:rtl;display:inline;fill:#e8e0c8;fill-rule:evenodd;stroke:#fffbfb;stroke-opacity:0;fill-opacity:1"
   aria-label="clk" /><path
   d="m 120.82052,96.799535 q -0.094,0.09398 -0.21668,0.148801 -0.12008,0.05221 -0.2715,0.05221 -0.14358,0 -0.27149,-0.05482 -0.12531,-0.05482 -0.21929,-0.148801 -0.094,-0.09398 -0.1488,-0.219286 -0.0548,-0.127917 -0.0548,-0.271498 0,-0.14358 0.0548,-0.268887 0.0548,-0.127917 0.1488,-0.221897 0.094,-0.09398 0.21929,-0.148801 0.12791,-0.05482 0.27149,-0.05482 0.15664,0 0.28194,0.06004 0.12792,0.05743 0.21929,0.154023 l -0.17752,0.174907 q -0.06,-0.06004 -0.14619,-0.09659 -0.0835,-0.03655 -0.17752,-0.03655 -0.0914,0 -0.17229,0.03655 -0.0783,0.03394 -0.13836,0.09398 -0.06,0.05743 -0.094,0.138359 -0.0339,0.08093 -0.0339,0.169686 0,0.09137 0.0339,0.172297 0.0339,0.07832 0.094,0.138359 0.06,0.06004 0.13836,0.09398 0.0809,0.03394 0.17229,0.03394 0.094,0 0.17491,-0.03394 0.0809,-0.03394 0.14097,-0.09137 z m 0.46958,0.174907 v -2.004904 h 0.26367 v 2.004904 z m 1.12744,-2.004904 v 1.208685 h 0.28455 l 0.33154,-0.540384 h 0.28455 l -0.40202,0.668301 0.40202,0.668302 h -0.28455 l -0.33154,-0.540385 h -0.28455 v 0.540385 h -0.25844 v -2.004904 z"
   id="text10-9-1-9"
   style="font-weight:600;font-size:2.61055px;font-family:'Liber Grotesque Family';-inkscape-font-specification:'Liber Grotesque Family, Semi-Bold';letter-spacing:0.171979px;word-spacing:0px;direction:rtl;display:inline;fill:#e8e0c8;fill-rule:evenodd;stroke:#fffbfb;stroke-opacity:0;fill-opacity:1"
   aria-label="clk" /><path
   d="m 10.273711,106.24048 q -0.09398,0.094 -0.216676,0.1488 -0.1200848,0.0522 -0.2714968,0.0522 -0.143581,0 -0.271498,-0.0548 -0.125306,-0.0548 -0.219286,-0.14881 -0.09398,-0.094 -0.148802,-0.21928 -0.05482,-0.12792 -0.05482,-0.2715 0,-0.14358 0.05482,-0.26889 0.05482,-0.12791 0.148802,-0.22189 0.09398,-0.094 0.219286,-0.1488 0.127917,-0.0548 0.271498,-0.0548 0.156633,0 0.2819388,0.06 0.127917,0.0574 0.219287,0.15402 l -0.177518,0.17491 q -0.06004,-0.06 -0.1461908,-0.0966 -0.08354,-0.0366 -0.177517,-0.0366 -0.09137,0 -0.172297,0.0366 -0.07832,0.0339 -0.138359,0.094 -0.06004,0.0574 -0.09398,0.13836 -0.03394,0.0809 -0.03394,0.16968 0,0.0914 0.03394,0.1723 0.03394,0.0783 0.09398,0.13836 0.06004,0.06 0.138359,0.094 0.08093,0.0339 0.172297,0.0339 0.09398,0 0.174906,-0.0339 0.08093,-0.0339 0.1409698,-0.0914 z m 0.986472,-0.0627 0.383751,-1.09904 h 0.289771 l -0.501226,1.3366 h -0.362866 l -0.498616,-1.3366 h 0.289771 l 0.383752,1.09904 z"
   id="text10-9-1-0-4"
   style="font-weight:600;font-size:2.61055px;font-family:'Liber Grotesque Family';-inkscape-font-specification:'Liber Grotesque Family, Semi-Bold';letter-spacing:0.171979px;word-spacing:0px;direction:rtl;display:inline;fill:#e8e0c8;fill-rule:evenodd;stroke:#fffbfb;stroke-opacity:0;fill-opacity:1"
   aria-label="cv" /><path
   d="m 120.90223,106.42149 q -0.094,0.094 -0.21668,0.1488 -0.12009,0.0522 -0.2715,0.0522 -0.14358,0 -0.27149,-0.0548 -0.12531,-0.0548 -0.21929,-0.1488 -0.094,-0.094 -0.1488,-0.21929 -0.0548,-0.12791 -0.0548,-0.27149 0,-0.14358 0.0548,-0.26889 0.0548,-0.12792 0.1488,-0.2219 0.094,-0.094 0.21929,-0.1488 0.12791,-0.0548 0.27149,-0.0548 0.15664,0 0.28194,0.06 0.12792,0.0574 0.21929,0.15402 l -0.17752,0.17491 q -0.06,-0.06 -0.14619,-0.0966 -0.0835,-0.0366 -0.17752,-0.0366 -0.0914,0 -0.17229,0.0366 -0.0783,0.0339 -0.13836,0.094 -0.0601,0.0574 -0.094,0.13836 -0.0339,0.0809 -0.0339,0.16969 0,0.0914 0.0339,0.17229 0.0339,0.0783 0.094,0.13836 0.06,0.06 0.13836,0.094 0.0809,0.0339 0.17229,0.0339 0.094,0 0.17491,-0.0339 0.0809,-0.0339 0.14097,-0.0914 z m 0.98647,-0.0627 0.38375,-1.09905 h 0.28977 l -0.50123,1.33661 h -0.36286 l -0.49862,-1.33661 h 0.28977 l 0.38375,1.09905 z"
   id="text10-9-1-0-4-3"
   style="font-weight:600;font-size:2.61055px;font-family:'Liber Grotesque Family';-inkscape-font-specification:'Liber Grotesque Family, Semi-Bold';letter-spacing:0.171979px;word-spacing:0px;direction:rtl;display:inline;fill:#e8e0c8;fill-rule:evenodd;stroke:#fffbfb;stroke-opacity:0;fill-opacity:1"
   aria-label="cv" /><path
   d="m 6.2051643,115.32434 q 0,-0.10964 0.041769,-0.20623 0.041769,-0.0992 0.1122538,-0.1723 0.073095,-0.0731 0.1696858,-0.11486 0.099201,-0.0418 0.2114548,-0.0418 0.1096431,0 0.203623,0.0418 0.09398,0.0392 0.1644648,0.11225 0.075706,-0.0444 0.1540226,-0.0653 0.080927,-0.0209 0.174907,-0.0209 h 0.020884 v 0.22973 h -0.261055 q 0.036548,0.0444 0.057432,0.10965 0.020884,0.0626 0.020884,0.12791 0,0.11226 -0.041769,0.21146 -0.041769,0.0966 -0.1148643,0.16968 -0.073095,0.0705 -0.1722964,0.11226 -0.096591,0.0418 -0.2062336,0.0418 -0.075706,0 -0.1488015,-0.0261 -0.073096,-0.0261 -0.1305276,-0.0653 -0.070485,0.013 -0.1174749,0.0522 -0.044379,0.0392 -0.044379,0.10703 0,0.0705 0.0496,0.10703 0.049601,0.0366 0.1331382,0.0366 h 0.4202989 q 0.2375602,0 0.3654773,0.10703 0.1305276,0.10704 0.1305276,0.295 0,0.19579 -0.1461909,0.30543 -0.146191,0.10964 -0.3994145,0.10964 -0.1383593,0 -0.2558341,-0.0391 -0.1174748,-0.0366 -0.2036231,-0.10182 -0.086148,-0.0627 -0.1331381,-0.15141 -0.04699,-0.0888 -0.044379,-0.19057 l 0.1096432,-0.0914 q -0.1253065,-0.0261 -0.198402,-0.11486 -0.073095,-0.0888 -0.067874,-0.21407 0.00261,-0.11747 0.075706,-0.20623 0.075706,-0.0914 0.1853492,-0.12531 -0.052211,-0.0679 -0.083538,-0.15141 -0.031327,-0.0835 -0.031327,-0.17752 z m 0.2427813,0 q 0,0.06 0.023495,0.11487 0.023495,0.0522 0.062653,0.0914 0.039158,0.0392 0.091369,0.0627 0.054822,0.0235 0.1148643,0.0235 0.060043,0 0.1122537,-0.0235 0.052211,-0.0235 0.091369,-0.0627 0.039158,-0.0392 0.062653,-0.0914 0.023495,-0.0548 0.023495,-0.11487 0,-0.06 -0.023495,-0.11225 -0.023495,-0.0522 -0.062653,-0.0914 -0.039158,-0.0392 -0.091369,-0.0627 -0.052211,-0.0235 -0.1122537,-0.0235 -0.060043,0 -0.1148643,0.0235 -0.052211,0.0235 -0.091369,0.0627 -0.039158,0.0392 -0.062653,0.0914 -0.023495,0.0522 -0.023495,0.11225 z m 0.4046356,1.32355 q 0.1357487,0 0.2088442,-0.0418 0.073095,-0.0418 0.073095,-0.13313 0,-0.0705 -0.057432,-0.11487 -0.057432,-0.0444 -0.174907,-0.0444 H 6.4296718 q -0.00261,0.0705 0.028716,0.13053 0.033937,0.06 0.088759,0.10442 0.057432,0.047 0.1357487,0.0731 0.078317,0.0261 0.1696859,0.0261 z m 1.8557866,-0.68396 q -0.05743,0.10964 -0.177518,0.18274 -0.120085,0.0731 -0.279329,0.0731 -0.112254,0 -0.201012,-0.0313 -0.08876,-0.0339 -0.148802,-0.0888 -0.06004,-0.0574 -0.09398,-0.13053 -0.031326,-0.0757 -0.031326,-0.16185 0,-0.0783 0.031326,-0.1462 0.03133,-0.0705 0.09398,-0.12269 0.06526,-0.0548 0.164465,-0.0835 0.0992,-0.0313 0.23756,-0.0313 h 0.404636 v -0.0339 q 0,-0.0627 -0.02088,-0.11748 -0.01827,-0.0574 -0.05743,-0.0992 -0.03916,-0.0444 -0.0992,-0.0705 -0.05743,-0.0261 -0.138359,-0.0261 -0.09137,0 -0.169686,0.0365 -0.07832,0.0339 -0.138359,0.0992 l -0.172297,-0.1488 q 0.08615,-0.094 0.208845,-0.15664 0.122696,-0.0653 0.271497,-0.0679 0.14097,0 0.245392,0.0444 0.107033,0.0444 0.177517,0.1227 0.0731,0.0757 0.109644,0.1749 0.03655,0.0992 0.03655,0.20885 v 0.80405 h -0.253223 z m -0.670912,-0.15663 q 0,0.0861 0.0731,0.14097 0.0731,0.0522 0.190571,0.0522 0.0731,0 0.146191,-0.0261 0.07309,-0.0261 0.130527,-0.0731 0.05743,-0.047 0.09398,-0.11487 0.03655,-0.0705 0.03655,-0.15663 h -0.404636 q -0.138359,0 -0.203623,0.0522 -0.06265,0.0496 -0.06265,0.12531 z m 1.620837,0.38636 v -1.10688 h -0.308046 v -0.22973 h 0.308046 v -0.33415 h 0.261055 v 0.33415 h 0.3080452 v 0.22973 H 9.9193478 v 1.10688 z m 2.2003752,-0.65786 q 0,0.0209 -0.0026,0.0496 -0.0026,0.0287 -0.0078,0.047 h -1.065105 q 0,0.0705 0.03394,0.13575 0.03394,0.0626 0.09137,0.11225 0.05743,0.047 0.133138,0.0757 0.07571,0.0261 0.159244,0.0261 0.109643,0 0.195791,-0.0392 0.08876,-0.0391 0.151412,-0.10181 l 0.18796,0.15141 q -0.0992,0.10965 -0.237561,0.16969 -0.135748,0.0574 -0.300213,0.0574 -0.125307,0 -0.248002,-0.0418 -0.120086,-0.0444 -0.219287,-0.13052 -0.09659,-0.0888 -0.156633,-0.21929 -0.06004,-0.13053 -0.06004,-0.30282 0,-0.14358 0.04699,-0.26889 0.0496,-0.12792 0.135749,-0.2219 0.08876,-0.094 0.211455,-0.1488 0.122696,-0.0548 0.274108,-0.0548 0.151412,0 0.276718,0.0548 0.125307,0.0548 0.214065,0.15141 0.08876,0.094 0.135749,0.2219 0.0496,0.12792 0.0496,0.27672 z m -0.673523,-0.47251 q -0.09398,0 -0.169686,0.0313 -0.0731,0.0313 -0.125306,0.0835 -0.05221,0.0496 -0.08093,0.11487 -0.02611,0.0627 -0.02611,0.13052 h 0.806661 q 0,-0.0627 -0.02872,-0.12791 -0.02872,-0.0653 -0.08354,-0.11487 -0.05221,-0.0522 -0.127917,-0.0835 -0.0731,-0.0339 -0.164465,-0.0339 z"
   id="text10-9-1-0-4-2"
   style="font-weight:600;font-size:2.61055px;font-family:'Liber Grotesque Family';-inkscape-font-specification:'Liber Grotesque Family, Semi-Bold';letter-spacing:0.171979px;word-spacing:0px;direction:rtl;display:inline;fill:#e8e0c8;fill-rule:evenodd;stroke:#fffbfb;stroke-opacity:0;fill-opacity:1"
   aria-label="gate" /><path
   d="m 119.73094,115.64044 q 0,-0.10965 0.0418,-0.20624 0.0418,-0.0992 0.11226,-0.17229 0.0731,-0.0731 0.16968,-0.11487 0.0992,-0.0418 0.21146,-0.0418 0.10964,0 0.20362,0.0418 0.094,0.0392 0.16447,0.11226 0.0757,-0.0444 0.15402,-0.0653 0.0809,-0.0209 0.17491,-0.0209 h 0.0209 v 0.22973 H 120.723 q 0.0366,0.0444 0.0574,0.10964 0.0209,0.0627 0.0209,0.12792 0,0.11225 -0.0418,0.21145 -0.0418,0.0966 -0.11486,0.16969 -0.0731,0.0705 -0.1723,0.11225 -0.0966,0.0418 -0.20623,0.0418 -0.0757,0 -0.1488,-0.0261 -0.0731,-0.0261 -0.13053,-0.0653 -0.0705,0.013 -0.11748,0.0522 -0.0444,0.0392 -0.0444,0.10703 0,0.0705 0.0496,0.10704 0.0496,0.0365 0.13313,0.0365 h 0.4203 q 0.23756,0 0.36548,0.10704 0.13053,0.10703 0.13053,0.29499 0,0.19579 -0.14619,0.30543 -0.14619,0.10965 -0.39942,0.10965 -0.13836,0 -0.25583,-0.0392 -0.11748,-0.0366 -0.20363,-0.10181 -0.0861,-0.0627 -0.13313,-0.15141 -0.047,-0.0888 -0.0444,-0.19057 l 0.10964,-0.0914 q -0.12531,-0.0261 -0.1984,-0.11487 -0.0731,-0.0888 -0.0679,-0.21406 0.003,-0.11748 0.0757,-0.20624 0.0757,-0.0914 0.18535,-0.1253 -0.0522,-0.0679 -0.0835,-0.15142 -0.0313,-0.0835 -0.0313,-0.17751 z m 0.24278,0 q 0,0.06 0.0235,0.11486 0.0235,0.0522 0.0626,0.0914 0.0392,0.0392 0.0914,0.0626 0.0548,0.0235 0.11487,0.0235 0.06,0 0.11225,-0.0235 0.0522,-0.0235 0.0914,-0.0626 0.0392,-0.0392 0.0626,-0.0914 0.0235,-0.0548 0.0235,-0.11486 0,-0.0601 -0.0235,-0.11226 -0.0235,-0.0522 -0.0626,-0.0914 -0.0392,-0.0391 -0.0914,-0.0626 -0.0522,-0.0235 -0.11225,-0.0235 -0.06,0 -0.11487,0.0235 -0.0522,0.0235 -0.0914,0.0626 -0.0391,0.0392 -0.0626,0.0914 -0.0235,0.0522 -0.0235,0.11226 z m 0.40463,1.32355 q 0.13575,0 0.20885,-0.0418 0.0731,-0.0418 0.0731,-0.13314 0,-0.0705 -0.0574,-0.11486 -0.0574,-0.0444 -0.17491,-0.0444 h -0.47251 q -0.003,0.0705 0.0287,0.13052 0.0339,0.06 0.0888,0.10443 0.0574,0.047 0.13575,0.0731 0.0783,0.0261 0.16968,0.0261 z m 1.85579,-0.68397 q -0.0574,0.10964 -0.17752,0.18274 -0.12008,0.0731 -0.27933,0.0731 -0.11225,0 -0.20101,-0.0313 -0.0888,-0.0339 -0.1488,-0.0888 -0.06,-0.0574 -0.094,-0.13053 -0.0313,-0.0757 -0.0313,-0.16185 0,-0.0783 0.0313,-0.14619 0.0313,-0.0705 0.094,-0.1227 0.0653,-0.0548 0.16446,-0.0835 0.0992,-0.0313 0.23756,-0.0313 h 0.40464 v -0.0339 q 0,-0.0626 -0.0209,-0.11747 -0.0183,-0.0574 -0.0574,-0.0992 -0.0392,-0.0444 -0.0992,-0.0705 -0.0574,-0.0261 -0.13836,-0.0261 -0.0914,0 -0.16968,0.0365 -0.0783,0.0339 -0.13836,0.0992 l -0.1723,-0.1488 q 0.0862,-0.094 0.20884,-0.15663 0.1227,-0.0653 0.2715,-0.0679 0.14097,0 0.24539,0.0444 0.10704,0.0444 0.17752,0.1227 0.0731,0.0757 0.10964,0.17491 0.0366,0.0992 0.0366,0.20884 v 0.80405 h -0.25322 z m -0.67091,-0.15663 q 0,0.0862 0.0731,0.14097 0.0731,0.0522 0.19057,0.0522 0.0731,0 0.14619,-0.0261 0.0731,-0.0261 0.13053,-0.0731 0.0574,-0.047 0.094,-0.11487 0.0366,-0.0705 0.0366,-0.15663 h -0.40464 q -0.13836,0 -0.20362,0.0522 -0.0627,0.0496 -0.0627,0.12531 z m 1.62083,0.38636 v -1.10687 h -0.30804 v -0.22973 h 0.30804 V 114.839 h 0.26106 v 0.33415 h 0.30804 v 0.22973 h -0.30804 v 1.10687 z m 2.20038,-0.65786 q 0,0.0209 -0.003,0.0496 -0.003,0.0287 -0.008,0.047 h -1.06511 q 0,0.0705 0.0339,0.13575 0.0339,0.0626 0.0914,0.11225 0.0574,0.047 0.13314,0.0757 0.0757,0.0261 0.15924,0.0261 0.10964,0 0.19579,-0.0392 0.0888,-0.0392 0.15141,-0.10181 l 0.18796,0.15141 q -0.0992,0.10964 -0.23756,0.16968 -0.13575,0.0574 -0.30021,0.0574 -0.12531,0 -0.248,-0.0418 -0.12009,-0.0444 -0.21929,-0.13053 -0.0966,-0.0888 -0.15663,-0.21929 -0.0601,-0.13052 -0.0601,-0.30282 0,-0.14358 0.047,-0.26889 0.0496,-0.12791 0.13575,-0.22189 0.0888,-0.094 0.21146,-0.14881 0.12269,-0.0548 0.27411,-0.0548 0.15141,0 0.27671,0.0548 0.12531,0.0548 0.21407,0.15142 0.0888,0.094 0.13575,0.22189 0.0496,0.12792 0.0496,0.27672 z m -0.67352,-0.47251 q -0.094,0 -0.16969,0.0313 -0.0731,0.0313 -0.12531,0.0835 -0.0522,0.0496 -0.0809,0.11486 -0.0261,0.0627 -0.0261,0.13053 h 0.80666 q 0,-0.0627 -0.0287,-0.12792 -0.0287,-0.0653 -0.0835,-0.11486 -0.0522,-0.0522 -0.12792,-0.0835 -0.0731,-0.0339 -0.16446,-0.0339 z"
   id="text10-9-1-0-4-2-3"
   style="font-weight:600;font-size:2.61055px;font-family:'Liber Grotesque Family';-inkscape-font-specification:'Liber Grotesque Family, Semi-Bold';letter-spacing:0.171979px;word-spacing:0px;direction:rtl;display:inline;fill:#e8e0c8;fill-rule:evenodd;stroke:#fffbfb;stroke-opacity:0;fill-opacity:1"
   aria-label="gate" /><text
   xml:space="preserve"
   style="font-style:normal;font-variant:normal;font-weight:450;font-stretch:normal;font-size:3.175px;font-family:'Liber Grotesque Family';-inkscape-font-specification:'Liber Grotesque Family,  weight=450';font-variant-ligatures:normal;font-variant-caps:normal;font-variant-numeric:normal;font-variant-east-asian:normal;text-align:start;letter-spacing:0.171979px;word-spacing:0px;writing-mode:lr-tb;direction:rtl;text-anchor:start;display:inline;opacity:1;fill:#fefcff;fill-opacity:1;fill-rule:evenodd;stroke:#fdfdfd;stroke-width:1;stroke-dasharray:none;stroke-opacity:0"
   x="12.256828"
   y="59.150948"
   id="text11"><tspan
     id="tspan11"
     style="font-style:normal;font-variant:normal;font-weight:450;font-stretch:normal;font-size:3.175px;font-family:'Liber Grotesque Family';-inkscape-font-specification:'Liber Grotesque Family,  weight=450';font-variant-ligatures:normal;font-variant-caps:normal;font-variant-numeric:normal;font-variant-east-asian:normal;stroke-width:1"
     x="12.256828"
     y="59.150948" /></text><g
   id="g2"
   transform="translate(-1.4795299)"
   inkscape:label="panel_name"
   style="fill:#e8e0c8;fill-opacity:1"><path
     d="m 38.345008,3.1124603 v 0.4572 h -1.3208 v 4.2036999 h -0.52705 V 3.5696603 h -1.3208 v -0.4572 z m 1.911348,4.6608999 h -0.52705 V 3.1061103 h 1.94945 q 0.3048,0 0.5715,0.1143 0.2667,0.1143 0.46355,0.3175 0.2032,0.19685 0.3175,0.46355 0.1143,0.2667 0.1143,0.5715 0,0.47625 -0.26035,0.8382 -0.254,0.3556 -0.6731,0.5207 l 0.88265,1.8414999 h -0.5588 l -0.8382,-1.7398999 h -1.44145 z m 1.3716,-2.1907499 q 0.2159,0 0.40005,-0.0762 0.18415,-0.08255 0.3175,-0.22225 0.13335,-0.1397 0.20955,-0.3175 0.0762,-0.18415 0.0762,-0.3937 0,-0.20955 -0.08255,-0.3937 -0.0762,-0.18415 -0.20955,-0.3175 -0.13335,-0.13335 -0.3175,-0.20955 -0.18415,-0.08255 -0.3937,-0.08255 h -1.3716 v 2.01295 z m 6.438897,2.1907499 -0.40005,-0.9905999 h -2.35585 l -0.4064,0.9905999 h -0.55245 l 1.86055,-4.6672499 h 0.5461 l 1.8669,4.6672499 z m -1.58115,-4.0004999 -1.0033,2.5527 h 2.01295 z m 6.915151,-0.66675 h 0.52705 v 4.6354999 l -0.0762,0.0381 -3.38455,-3.5305999 v 3.5242499 h -0.52705 V 3.1378603 l 0.06985,-0.03175 3.3909,3.5306 z m 3.873503,4.7688499 q -0.53975,0 -0.9652,-0.19685 -0.42545,-0.2031999 -0.69215,-0.5143499 l 0.38735,-0.32385 q 0.24765,0.24765 0.5715,0.38735 0.32385,0.1397 0.70485,0.1397 0.4699,0 0.7239,-0.1905 0.26035,-0.19685 0.26035,-0.50165 0,-0.2667 -0.17145,-0.4572 -0.17145,-0.19685 -0.5334,-0.3429 l -0.92075,-0.37465 q -0.55245,-0.2286 -0.8001,-0.53975 -0.24765,-0.3175 -0.24765,-0.7493 0,-0.2667 0.10795,-0.48895 0.1143,-0.22225 0.3175,-0.381 0.2032,-0.1651 0.4826,-0.254 0.28575,-0.0889 0.635,-0.0889 0.381,0 0.6731,0.12065 0.29845,0.12065 0.50165,0.3175 0.2032,0.1905 0.3048,0.4445 0.10795,0.24765 0.10795,0.508 h -0.51435 q 0,-0.1397 -0.0635,-0.2921 -0.0635,-0.15875 -0.19685,-0.2921 -0.127,-0.13335 -0.3302,-0.22225 -0.2032,-0.0889 -0.4826,-0.0889 -0.4572,0 -0.73025,0.2032 -0.2667,0.19685 -0.2667,0.51435 0,0.2667 0.1524,0.45085 0.15875,0.1778 0.51435,0.32385 l 0.9398,0.3937 q 0.5588,0.2413 0.8128,0.5588 0.254,0.31115 0.254,0.7366 0,0.29845 -0.127,0.52705 -0.12065,0.22225 -0.3302,0.37465 -0.20955,0.1460499 -0.48895,0.2222499 -0.2794,0.0762 -0.59055,0.0762 z m 7.016756,-0.1016 V 4.2427603 l -1.68275,1.6637 -1.6891,-1.6637 v 3.5305999 h -0.5207 V 3.1061103 l 0.0635,-0.0254 2.1463,2.11455 2.13995,-2.11455 0.06985,0.0254 v 4.6672499 z m 2.787645,-1.9621499 q 0,0.3302 0.1143,0.6096 0.1143,0.2794 0.31115,0.4826 0.2032,0.2032 0.47625,0.3175 0.2794,0.1143 0.5969,0.1143 0.32385,0 0.5969,-0.1143 0.27305,-0.1143 0.4699,-0.3175 0.2032,-0.2032 0.3175,-0.4826 0.1143,-0.2794 0.1143,-0.6096 v -2.7051 h 0.5334 v 2.7051 q 0,0.4191 -0.15875,0.79375 -0.1524,0.3683 -0.42545,0.6477 -0.27305,0.27305 -0.6477,0.4317999 -0.3683,0.15875 -0.8001,0.15875 -0.4318,0 -0.80645,-0.15875 -0.3683,-0.1587499 -0.64135,-0.4317999 -0.27305,-0.2794 -0.4318,-0.6477 -0.1524,-0.37465 -0.1524,-0.79375 v -2.7051 h 0.5334 z m 8.007347,-2.69875 v 0.4572 h -1.3208 v 4.2036999 h -0.52705 V 3.5696603 h -1.3208 v -0.4572 z m 4.222748,4.6608999 -0.40005,-0.9905999 h -2.35585 l -0.4064,0.9905999 h -0.55245 l 1.86055,-4.6672499 h 0.5461 l 1.8669,4.6672499 z m -1.58115,-4.0004999 -1.0033,2.5527 h 2.01295 z m 5.816604,-0.6604 v 0.4572 h -1.3208 v 4.2036999 h -0.52705 V 3.5696603 h -1.3208 v -0.4572 z m 1.193802,0.4572 v -0.46355 h 2.2606 v 0.46355 h -0.85725 v 3.7465 h 0.85725 v 0.4571999 h -2.2606 V 7.3161603 h 0.85725 v -3.7465 z m 3.467087,1.8669 q 0,-0.4953 0.1905,-0.93345 0.1905,-0.4445 0.51435,-0.76835 0.3302,-0.3302 0.76835,-0.5207 0.43815,-0.1905 0.93345,-0.1905 0.50165,0 0.9398,0.1905 0.43815,0.1905 0.762,0.5207 0.3302,0.32385 0.5207,0.76835 0.1905,0.43815 0.1905,0.93345 0,0.4953 -0.1905,0.9398 -0.1905,0.43815 -0.5207,0.76835 -0.32385,0.32385 -0.762,0.5143499 -0.43815,0.1905 -0.9398,0.1905 -0.4953,0 -0.93345,-0.1905 -0.43815,-0.1904999 -0.76835,-0.5143499 -0.32385,-0.3302 -0.51435,-0.76835 -0.1905,-0.4445 -0.1905,-0.9398 z m 0.5334,0 q 0,0.38735 0.14605,0.73025 0.1524,0.33655 0.4064,0.59055 0.254,0.254 0.59055,0.4064 0.3429,0.14605 0.73025,0.14605 0.38735,0 0.73025,-0.14605 0.3429,-0.1524 0.5969,-0.4064 0.254,-0.254 0.40005,-0.59055 0.14605,-0.3429 0.14605,-0.73025 0,-0.38735 -0.14605,-0.7239 -0.14605,-0.3429 -0.40005,-0.5969 -0.254,-0.254 -0.5969,-0.40005 -0.3429,-0.1524 -0.73025,-0.1524 -0.38735,0 -0.73025,0.1524 -0.33655,0.14605 -0.59055,0.40005 -0.254,0.254 -0.4064,0.5969 -0.14605,0.33655 -0.14605,0.7239 z m 9.270995,-2.33045 h 0.52705 v 4.6354999 l -0.0762,0.0381 -3.38455,-3.5305999 v 3.5242499 h -0.52705 V 3.1378603 l 0.06985,-0.03175 3.3909,3.5306 z"
     id="text9"
     style="font-size:6.35px;font-family:'Liber Grotesque Family';-inkscape-font-specification:'Liber Grotesque Family, Normal';letter-spacing:0.79375px;word-spacing:0.529167px;direction:rtl;display:inline;fill:#e8e0c8;fill-rule:evenodd;stroke:#fdfdfd;stroke-opacity:0;fill-opacity:1"
     aria-label="TRANSMUTATION" /><path
     style="display:inline;opacity:1;fill:#e8e0c8;fill-opacity:1;fill-rule:evenodd;stroke:#e8e0c8;stroke-width:0.304698;stroke-dasharray:none;stroke-opacity:1"
     d="M 36.497158,5.6715103 H 13.750142 v 0 0"
     id="path13" /><path
     style="display:inline;fill:#e8e0c8;fill-opacity:1;fill-rule:evenodd;stroke:#e8e0c8;stroke-width:0.273456;stroke-dasharray:none;stroke-opacity:1"
     d="M 116.37446,4.4344933 H 98.05298 v 0 0"
     id="path13-7" /><path
     style="display:inline;fill:#e8e0c8;fill-opacity:1;fill-rule:evenodd;stroke:#e8e0c8;stroke-width:0.254495;stroke-dasharray:none;stroke-opacity:1"
     d="M 113.86912,3.2324036 H 98.000322 v 0 0"
     id="path13-7-8" /><path
     style="display:inline;fill:#e8e0c8;fill-opacity:1;fill-rule:evenodd;stroke:#e8e0c8;stroke-width:0.302863;stroke-dasharray:none;stroke-opacity:1"
     d="M 120.52692,5.6407939 H 98.05298 v 0 0"
     id="path13-4" /></g><path
   d="m 14.575906,66.141104 2.749362,1.371839 -2.749362,1.371838 z"
   id="text16"
   style="font-style:oblique;font-weight:bold;font-size:3.88056px;font-family:'Liber Grotesque Family';-inkscape-font-specification:'Liber Grotesque Family, Bold Oblique';letter-spacing:0.171979px;word-spacing:0px;direction:rtl;display:inline;fill:#e8e0c8;fill-rule:evenodd;stroke:#e8e0c8;stroke-width:0.3;fill-opacity:1;stroke-opacity:1"
   aria-label="" /><path
   d="m 114.53362,66.141101 2.74936,1.371839 -2.74936,1.371838 z"
   id="text16-8"
   style="font-style:oblique;font-weight:bold;font-size:3.88056px;font-family:'Liber Grotesque Family';-inkscape-font-specification:'Liber Grotesque Family, Bold Oblique';letter-spacing:0.171979px;word-spacing:0px;direction:rtl;display:inline;fill:#e8e0c8;fill-rule:evenodd;stroke:#e8e0c8;stroke-width:0.3;fill-opacity:1;stroke-opacity:1"
   aria-label="" /><path
   d="m 14.756122,76.454113 h 1.885952 v -1.885952 h -1.885952 z"
   id="text17"
   style="font-style:oblique;font-weight:bold;font-size:3.88056px;font-family:'Liber Grotesque Family';-inkscape-font-specification:'Liber Grotesque Family, Bold Oblique';letter-spacing:0.171979px;word-spacing:0px;direction:rtl;display:inline;fill:#e8e0c8;fill-rule:evenodd;stroke:#e8e0c8;stroke-width:0.3;fill-opacity:1;stroke-opacity:1"
   aria-label="" /><path
   d="m 114.71384,76.454107 h 1.88595 v -1.885952 h -1.88595 z"
   id="text17-6"
   style="font-style:oblique;font-weight:bold;font-size:3.88056px;font-family:'Liber Grotesque Family';-inkscape-font-specification:'Liber Grotesque Family, Bold Oblique';letter-spacing:0.171979px;word-spacing:0px;direction:rtl;display:inline;fill:#e8e0c8;fill-rule:evenodd;stroke:#e8e0c8;stroke-width:0.3;fill-opacity:1;stroke-opacity:1"
   aria-label="" /><path
   d="m 16.895921,82.5664 q 0.258038,0 0.436494,0.180868 0.180867,0.178456 0.180867,0.436493 0,0.258038 -0.178456,0.438906 -0.178456,0.178456 -0.438905,0.178456 H 15.10895 q 0.272507,0.306269 0.390674,0.651123 h -0.173633 q -0.33762,-0.49196 -0.9381,-0.711413 v -0.118166 q 0.60048,-0.219453 0.9381,-0.711413 h 0.173633 q -0.118167,0.347266 -0.390674,0.653535 h 1.786971 q 0.15434,0 0.267684,-0.113344 0.113344,-0.113343 0.113344,-0.267684 0,-0.15434 -0.113344,-0.267684 -0.113344,-0.113343 -0.267684,-0.113343 z"
   id="text20"
   style="font-weight:100;font-size:4.93889px;font-family:'Liber Grotesque Family';-inkscape-font-specification:'Liber Grotesque Family, Thin';letter-spacing:0.171979px;word-spacing:0px;direction:rtl;display:inline;fill:#e8e0c8;fill-rule:evenodd;stroke:#e8e0c8;stroke-width:0.3;fill-opacity:1;stroke-opacity:1"
   aria-label="" /><path
   d="m 116.85364,82.5664 q 0.25804,0 0.4365,0.180868 0.18086,0.178456 0.18086,0.436493 0,0.258038 -0.17845,0.438906 -0.17846,0.178456 -0.43891,0.178456 h -1.78697 q 0.27251,0.306269 0.39068,0.651123 h -0.17364 q -0.33762,-0.49196 -0.9381,-0.711413 v -0.118166 q 0.60048,-0.219453 0.9381,-0.711413 h 0.17364 q -0.11817,0.347266 -0.39068,0.653535 h 1.78697 q 0.15434,0 0.26769,-0.113344 0.11334,-0.113343 0.11334,-0.267684 0,-0.15434 -0.11334,-0.267684 -0.11335,-0.113343 -0.26769,-0.113343 z"
   id="text20-3"
   style="font-weight:100;font-size:4.93889px;font-family:'Liber Grotesque Family';-inkscape-font-specification:'Liber Grotesque Family, Thin';letter-spacing:0.171979px;word-spacing:0px;direction:rtl;display:inline;fill:#e8e0c8;fill-rule:evenodd;stroke:#e8e0c8;stroke-width:0.3;fill-opacity:1;stroke-opacity:1"
   aria-label="" /><circle
   cx="7.5470452"
   cy="83.509323"
   r="2.5"
   fill="none"
   stroke="#444444"
   stroke-width="0.3"
   opacity="0"
   id="a_reset_cv"
   style="display:none;opacity:1" /><circle
   cx="123.6797"
   cy="67.512939"
   r="2.5"
   fill="none"
   stroke="#444444"
   stroke-width="0.3"
   opacity="0"
   id="b_play_cv"
   style="display:none;opacity:1;stroke:#848484;stroke-opacity:1" /><circle
   cx="123.6797"
   cy="83.509323"
   r="2.5"
   fill="none"
   stroke="#444444"
   stroke-width="0.3"
   opacity="0"
   id="b_reset_cv"
   style="display:none;opacity:1" /><ellipse
   cx="34.340317"
   cy="18.322521"
   fill="none"
   stroke="#444444"
   stroke-width="0.180723"
   opacity="0"
   id="clk_mult_select"
   style="display:none;opacity:1;stroke:#ffffff;stroke-opacity:1"
   rx="2.4100001"
   ry="2.4096386" /><path
   style="display:inline;opacity:1;fill:#e8e0c8;fill-opacity:1;fill-rule:evenodd;stroke:#e8e0c8;stroke-width:0.3;stroke-opacity:1"
   d="m 19.950588,18.322521 h 11.979728 v 0"
   id="path26" /><path
   d="m 100.21331,17.357683 h -0.231419 v -0.829735 q 0,-0.08749 -0.0254,-0.166512 -0.0254,-0.07902 -0.0762,-0.138289 -0.0508,-0.05927 -0.124178,-0.09313 -0.07056,-0.03387 -0.16369,-0.03387 -0.08467,0 -0.158045,0.03669 -0.07338,0.03387 -0.127,0.09313 -0.0508,0.05927 -0.08185,0.138289 -0.02822,0.0762 -0.02822,0.16369 v 0.829735 h -0.231423 v -0.829735 q 0,-0.07902 -0.02822,-0.155223 -0.0254,-0.07902 -0.0762,-0.138289 -0.0508,-0.06209 -0.124178,-0.09878 -0.07338,-0.03951 -0.166512,-0.03951 -0.09313,0 -0.169334,0.03951 -0.07338,0.03669 -0.127,0.1016 -0.0508,0.06491 -0.08184,0.1524 -0.02822,0.08467 -0.02822,0.180623 v 0.787402 h -0.220134 v -1.444982 h 0.220134 v 0.259646 q 0.0254,-0.05362 0.06773,-0.107245 0.04233,-0.05362 0.101601,-0.09596 0.05927,-0.04233 0.132644,-0.06773 0.07338,-0.0254 0.155223,-0.0254 0.163689,0 0.287868,0.08749 0.124178,0.08749 0.189089,0.222956 0.0762,-0.135467 0.211667,-0.222956 0.135467,-0.08749 0.299157,-0.08749 0.132644,0 0.242711,0.0508 0.11289,0.04798 0.191912,0.135467 0.0818,0.08749 0.12418,0.208845 0.0452,0.118533 0.0452,0.256823 z m 0.39653,-0.722491 q 0,-0.155222 0.0564,-0.290689 0.0593,-0.135467 0.15805,-0.234246 0.1016,-0.1016 0.23707,-0.158044 0.13546,-0.05927 0.29069,-0.05927 0.15522,0 0.29069,0.05927 0.13546,0.05644 0.23706,0.158044 0.1016,0.09878 0.15805,0.234246 0.0593,0.135467 0.0593,0.290689 0,0.155223 -0.0593,0.29069 -0.0564,0.135467 -0.15805,0.237067 -0.1016,0.101601 -0.23706,0.160867 -0.13547,0.05645 -0.29069,0.05645 -0.15523,0 -0.29069,-0.05645 -0.13547,-0.05927 -0.23707,-0.160867 -0.0988,-0.1016 -0.15805,-0.237067 -0.0564,-0.135467 -0.0564,-0.29069 z m 0.22013,0 q 0,0.110067 0.0395,0.206023 0.0423,0.09596 0.11289,0.166512 0.0706,0.07056 0.16651,0.112889 0.096,0.03951 0.20321,0.03951 0.11006,0 0.2032,-0.03951 0.096,-0.04233 0.16651,-0.112889 0.0734,-0.07056 0.11289,-0.166512 0.0423,-0.09596 0.0423,-0.206023 0,-0.110067 -0.0423,-0.2032 -0.0395,-0.09596 -0.11289,-0.166512 -0.0706,-0.07338 -0.16651,-0.112889 -0.0931,-0.04233 -0.2032,-0.04233 -0.10725,0 -0.20321,0.04233 -0.096,0.03951 -0.16651,0.112889 -0.0705,0.07056 -0.11289,0.166512 -0.0395,0.09313 -0.0395,0.2032 z m 1.59033,0 q 0,-0.149578 0.0536,-0.282223 0.0564,-0.132645 0.1524,-0.2286 0.096,-0.09878 0.22578,-0.155223 0.13265,-0.05645 0.28505,-0.05645 0.079,0 0.1524,0.02258 0.0734,0.01976 0.13547,0.05645 0.0649,0.03387 0.11571,0.08184 0.0508,0.04798 0.0847,0.09878 V 15.19021 h 0.22296 v 2.167473 h -0.22296 v -0.259645 q -0.0649,0.104423 -0.19473,0.183445 -0.127,0.0762 -0.29351,0.0762 -0.1524,0 -0.28505,-0.05644 -0.12982,-0.05645 -0.22578,-0.152401 -0.096,-0.09878 -0.1524,-0.231423 -0.0536,-0.132645 -0.0536,-0.282223 z m 1.25025,0 q 0,-0.110067 -0.0395,-0.2032 -0.0395,-0.09596 -0.10725,-0.16369 -0.0677,-0.07055 -0.16086,-0.110067 -0.0903,-0.04233 -0.19756,-0.04233 -0.11007,0 -0.20602,0.04233 -0.0931,0.03951 -0.16369,0.110067 -0.0706,0.06773 -0.11289,0.16369 -0.0395,0.09313 -0.0395,0.2032 0,0.110067 0.0395,0.206023 0.0423,0.09313 0.11289,0.163689 0.0705,0.07056 0.16369,0.110067 0.096,0.03951 0.20602,0.03951 0.10724,0 0.19756,-0.03951 0.0931,-0.03951 0.16086,-0.110067 0.0677,-0.07055 0.10725,-0.163689 0.0395,-0.09596 0.0395,-0.206023 z m 2.03906,0.0085 q 0,0.01976 -0.003,0.04516 0,0.0254 -0.006,0.04233 h -1.19945 q 0,0.09878 0.0423,0.180623 0.0423,0.08184 0.11289,0.141111 0.0705,0.05927 0.16086,0.09313 0.0903,0.03387 0.18627,0.03387 0.127,0 0.22578,-0.03951 0.0988,-0.04233 0.17216,-0.110067 l 0.15522,0.135468 q -0.10442,0.104422 -0.24554,0.163689 -0.13829,0.05644 -0.31044,0.05644 -0.13265,0 -0.26529,-0.04798 -0.12982,-0.04798 -0.23425,-0.141112 -0.10442,-0.09596 -0.16933,-0.234245 -0.0621,-0.141112 -0.0621,-0.327379 0,-0.155222 0.0508,-0.290689 0.0508,-0.13829 0.14393,-0.23989 0.096,-0.1016 0.22861,-0.158045 0.13264,-0.05927 0.29351,-0.05927 0.16369,0 0.29633,0.06209 0.13547,0.05927 0.2286,0.16369 0.096,0.1016 0.14676,0.239889 0.0508,0.135467 0.0508,0.29069 z m -0.71967,-0.555979 q -0.11007,0 -0.20038,0.03951 -0.0903,0.03669 -0.15522,0.1016 -0.0621,0.06209 -0.0988,0.146756 -0.0339,0.08184 -0.0339,0.174978 h 0.9765 q 0,-0.08749 -0.0367,-0.169333 -0.0339,-0.08467 -0.0988,-0.149579 -0.0621,-0.06491 -0.1524,-0.104422 -0.0903,-0.03951 -0.20038,-0.03951 z"
   id="text1"
   style="font-size:2.82223px;font-family:'Liber Grotesque Family';-inkscape-font-specification:'Liber Grotesque Family, Normal';letter-spacing:0.0635px;word-spacing:0px;direction:rtl;fill:#e8e0c8;fill-rule:evenodd;stroke:#fafafa;stroke-width:0.3;stroke-opacity:0;fill-opacity:1"
   aria-label="mode" /><path
   d="m 34.880774,24.356581 h -0.259645 l -0.310445,-0.527757 -0.454379,0.527757 h -0.259646 l 0.612424,-0.719669 -0.409223,-0.725313 h 0.259645 l 0.304801,0.536224 0.460023,-0.536224 h 0.259646 l -0.615247,0.725313 z"
   id="text2"
   style="font-style:oblique;font-size:2.82223px;font-family:'Liber Grotesque Family';-inkscape-font-specification:'Liber Grotesque Family, Oblique';letter-spacing:0.0635px;word-spacing:0px;direction:rtl;fill:#e8e0c8;fill-rule:evenodd;stroke:#fafafa;stroke-width:0.3;stroke-opacity:0;fill-opacity:1"
   aria-label="x" /></svg>
