<?xml version="1.0" encoding="UTF-8" standalone="no"?>
<svg
   width="131.318mm"
   height="128.5mm"
   viewBox="0 0 131.318 128.5"
   version="1.1"
   id="svg44"
   sodipodi:docname="Transmutation.svg"
   inkscape:version="1.4.2 (ebf0e940, 2025-05-08)"
   xml:space="preserve"
   xmlns:inkscape="http://www.inkscape.org/namespaces/inkscape"
   xmlns:sodipodi="http://sodipodi.sourceforge.net/DTD/sodipodi-0.dtd"
   xmlns:xlink="http://www.w3.org/1999/xlink"
   xmlns="http://www.w3.org/2000/svg"
   xmlns:svg="http://www.w3.org/2000/svg"><sodipodi:namedview
   id="namedview1"
   pagecolor="#505050"
   bordercolor="#eeeeee"
   borderopacity="1"
   inkscape:showpageshadow="0"
   inkscape:pageopacity="0"
   inkscape:pagecheckerboard="0"
   inkscape:deskcolor="#505050"
   inkscape:document-units="mm"
   inkscape:zoom="1.7627383"
   inkscape:cx="253.29908"
   inkscape:cy="242.23675"
   inkscape:window-width="1800"
   inkscape:window-height="1097"
   inkscape:window-x="0"
   inkscape:window-y="44"
   inkscape:window-maximized="1"
   inkscape:current-layer="svg44" /><defs
   id="defs44">
     
     <!-- Matte texture filter using SVG turbulence -->
     <filter
   id="matteTexture"
   x="0"
   y="0"
   width="100%"
   height="100%">
       <feTurbulence
   baseFrequency="0.9"
   numOctaves="4"
   result="turbulence"
   id="feTurbulence1" />
       <feColorMatrix
   in="turbulence"
   type="saturate"
   values="0"
   id="feColorMatrix1" />
       <feComposite
   in="SourceGraphic"
   in2="turbulence"
   operator="multiply"
   id="feComposite1" />
     </filter>
     
     <linearGradient
   id="linearGradient7"><stop
     style="stop-color:#00ffb4;stop-opacity:1;"
     offset="0"
     id="stop7" /><stop
     style="stop-color:#00ffb4;stop-opacity:0;"
     offset="1"
     id="stop8" /></linearGradient><linearGradient
   xlink:href="#linearGradient7"
   id="linearGradient8"
   x1="13.999519"
   y1="22.443604"
   x2="17.901654"
   y2="22.443604"
   gradientUnits="userSpaceOnUse" /></defs>
     
     <!-- Matte black background -->
     <ellipse
   cx="119.35008"
   cy="27.749601"
   fill="none"
   stroke="#444444"
   stroke-width="0.180723"
   opacity="0"
   id="seq_b_led"
   style="display:none;opacity:1"
   rx="2.4096384"
   ry="2.4096386" /><ellipse
   cx="12.314247"
   cy="27.749601"
   fill="none"
   stroke="#444444"
   stroke-width="0.180723"
   opacity="0"
   id="seq_a_led"
   style="display:none;opacity:1"
   rx="2.4096384"
   ry="2.4096386" /><!-- Panel background --><!-- Module title --><!-- Chord Pack Button Area --><!-- Edit Mode Section --><!-- Edit A/B button placeholders --><circle
   cx="55.973103"
   cy="14.391238"
   r="3"
   fill="none"
   stroke="#444444"
   stroke-width="0.3"
   opacity="0"
   id="edit_a_btn"
   style="display:none;opacity:1" /><circle
   cx="74.402115"
   cy="14.263938"
   r="3"
   fill="none"
   stroke="#444444"
   stroke-width="0.3"
   opacity="0"
   id="edit_b_btn"
   style="display:none;opacity:1" /><!-- Top symbol row placeholders (6 symbols) - above matrix with proper spacing --><rect
   x="36.185841"
   y="107.2711"
   width="6"
   height="6"
   fill="none"
   stroke="#444444"
   stroke-width="0.3"
   id="alchem_1"
   style="display:none" /><rect
   x="46.836998"
   y="107.2711"
   width="6"
   height="6"
   fill="none"
   stroke="#444444"
   stroke-width="0.3"
   id="alchem_2"
   style="display:none" /><rect
   x="57.488155"
   y="107.2711"
   width="6"
   height="6"
   fill="none"
   stroke="#444444"
   stroke-width="0.3"
   id="alchem_3"
   style="display:none" /><rect
   x="68.139313"
   y="107.2711"
   width="6"
   height="6"
   fill="none"
   stroke="#444444"
   stroke-width="0.3"
   id="alchem_4"
   style="display:none" /><rect
   x="78.790466"
   y="107.2711"
   width="6"
   height="6"
   fill="none"
   stroke="#444444"
   stroke-width="0.3"
   id="alchem_5"
   style="display:none" /><rect
   x="89.44162"
   y="107.2711"
   width="6"
   height="6"
   fill="none"
   stroke="#444444"
   stroke-width="0.3"
   id="alchem_6"
   style="display:none" /><!-- 8x8 Matrix Area - centered with proper spacing from symbols --><rect
   x="27.312344"
   y="24.616455"
   width="77.002777"
   height="80.285408"
   fill="none"
   stroke="#555555"
   stroke-width="1.25531"
   id="main_screen"
   style="display:none" /><!-- Bottom symbol row placeholders (6 symbols) - below matrix with proper spacing --><rect
   x="36.185841"
   y="116.21882"
   width="6"
   height="6"
   fill="none"
   stroke="#444444"
   stroke-width="0.3"
   id="alchem_7"
   style="display:none" /><rect
   x="46.836998"
   y="116.21882"
   width="6"
   height="6"
   fill="none"
   stroke="#444444"
   stroke-width="0.3"
   id="alchem_8"
   style="display:none" /><rect
   x="57.488152"
   y="116.21882"
   width="6"
   height="6"
   fill="none"
   stroke="#444444"
   stroke-width="0.3"
   id="alchem_9"
   style="display:none" /><rect
   x="68.139305"
   y="116.21882"
   width="6"
   height="6"
   fill="none"
   stroke="#444444"
   stroke-width="0.3"
   id="alchem_10"
   style="display:none" /><rect
   x="78.790466"
   y="116.21882"
   width="6"
   height="6"
   fill="none"
   stroke="#444444"
   stroke-width="0.3"
   id="alchem_11"
   style="display:none" /><rect
   x="89.44162"
   y="116.21882"
   width="6"
   height="6"
   fill="none"
   stroke="#444444"
   stroke-width="0.3"
   id="alchem_12"
   style="display:none" /><!-- Left Side - Sequence A --><!-- Length A knob --><circle
   cx="15.950587"
   cy="37.849998"
   r="4"
   fill="none"
   stroke="#444444"
   stroke-width="0.3"
   opacity="0"
   id="seq_a_length"
   style="display:none;opacity:1" /><!-- Rest button --><circle
   cx="15.950587"
   cy="53.27956"
   r="2.5"
   fill="none"
   stroke="#444444"
   stroke-width="0.3"
   opacity="0"
   id="rest_btn"
   style="display:none;opacity:1" /><!-- Control buttons A --><circle
   cx="22.586929"
   cy="67.512939"
   r="2"
   fill="none"
   stroke="#444444"
   stroke-width="0.3"
   opacity="0"
   id="a_play_btn"
   style="display:none;opacity:1" /><circle
   cx="22.784245"
   cy="75.573959"
   r="2"
   fill="none"
   stroke="#444444"
   stroke-width="0.3"
   opacity="0"
   id="a_stop_btn"
   style="display:none;opacity:1" /><circle
   cx="22.784245"
   cy="83.509323"
   r="2"
   fill="none"
   stroke="#444444"
   stroke-width="0.3"
   opacity="0"
   id="a_reset_btn"
   style="display:none;opacity:1" /><!-- I/O A --><circle
   cx="15.950586"
   cy="95.834518"
   r="2.5"
   fill="none"
   stroke="#444444"
   stroke-width="0.3"
   opacity="0"
   id="a_clk_cv"
   style="display:none;opacity:1" /><circle
   cx="7.5470452"
   cy="67.512939"
   r="2.5"
   fill="none"
   stroke="#444444"
   stroke-width="0.3"
   opacity="0"
   id="a_play_cv"
   style="display:none;opacity:1" /><circle
   cx="7.5470452"
   cy="75.511131"
   r="2.5"
   fill="none"
   stroke="#444444"
   stroke-width="0.3"
   opacity="0"
   id="a_stop_cv"
   style="display:none;opacity:1" /><circle
   cx="123.6797"
   cy="75.511131"
   r="2.5"
   fill="none"
   stroke="#444444"
   stroke-width="0.3"
   opacity="0"
   id="b_stop_cv"
   style="display:none;opacity:1" /><circle
   cx="15.950586"
   cy="105.7832"
   r="2.5"
   fill="none"
   stroke="#444444"
   stroke-width="0.3"
   opacity="0"
   id="a_cv_out"
   style="display:none;opacity:1" /><circle
   cx="15.950586"
   cy="115.73187"
   r="2.5"
   fill="none"
   stroke="#444444"
   stroke-width="0.3"
   opacity="0"
   id="a_gate_out"
   style="display:none;opacity:1" /><!-- Right Side - Sequence B --><!-- Length B knob --><circle
   cx="115.02555"
   cy="37.849998"
   r="4"
   fill="none"
   stroke="#444444"
   stroke-width="0.3"
   opacity="0"
   id="seq_b_length"
   style="display:none;opacity:1" /><!-- Tie button --><circle
   cx="115.02555"
   cy="53.27956"
   r="2.5"
   fill="none"
   stroke="#444444"
   stroke-width="0.3"
   opacity="0"
   id="tie_btn"
   style="display:none;opacity:1" /><!-- Control buttons B --><circle
   cx="108.7552"
   cy="67.512939"
   r="2"
   fill="none"
   stroke="#444444"
   stroke-width="0.3"
   opacity="0"
   id="b_play_btn"
   style="display:none;opacity:1" /><circle
   cx="108.7552"
   cy="75.511131"
   r="2"
   fill="none"
   stroke="#444444"
   stroke-width="0.3"
   opacity="0"
   id="b_stop_btn"
   style="display:none;opacity:1" /><circle
   cx="108.75521"
   cy="83.509323"
   r="2"
   fill="none"
   stroke="#444444"
   stroke-width="0.3"
   opacity="0"
   id="b_reset_btn"
   style="display:none;opacity:1" /><!-- Mode switch B --><rect
   x="112.89493"
   y="11.78172"
   width="4"
   height="8"
   fill="none"
   stroke="#444444"
   stroke-width="0.3"
   opacity="0"
   id="mode_switch"
   style="display:none;opacity:1" /><!-- I/O B --><circle
   cx="115.02555"
   cy="95.834518"
   r="2.5"
   fill="none"
   stroke="#444444"
   stroke-width="0.3"
   opacity="0"
   id="b_clk_cv"
   style="display:none;opacity:1" /><circle
   cx="115.02555"
   cy="105.7832"
   r="2.5"
   fill="none"
   stroke="#444444"
   stroke-width="0.3"
   opacity="0"
   id="b_cv_out"
   style="display:none;opacity:1" /><circle
   cx="115.02555"
   cy="115.73187"
   r="2.5"
   fill="none"
   stroke="#444444"
   stroke-width="0.3"
   opacity="0"
   id="b_gate_out"
   style="display:none;opacity:1" /><!-- Clock control (center bottom) --><circle
   cx="15.915051"
   cy="17.124439"
   r="4"
   fill="none"
   stroke="#444444"
   stroke-width="0.3"
   opacity="0"
   id="main_bpm"
   style="display:none;opacity:1" /><path
   style="font-style:oblique;font-weight:800;font-size:4.93889px;font-family:'Liber Grotesque Family';-inkscape-font-specification:'Liber Grotesque Family, Ultra-Bold Oblique';letter-spacing:0.79375px;word-spacing:0.529167px;direction:rtl;display:inline;fill:#00ffb4;fill-rule:evenodd;stroke:#fdfdfd;stroke-opacity:0"
   d="m 19.461964,29.294139 h -0.958145 l -0.721078,-3.630084 h 0.651934 l 0.6223,3.106561 1.491544,-3.106561 h 0.656873 z"
   id="text7"
   aria-label="V" /><path
   d="m 59.094545,19.268787 h 0.8128 l -0.05398,0.37465 H 59.41839 l -0.34925,2.5019 h 0.434975 l -0.05398,0.37465 h -0.8128 z"
   id="text7-1-7"
   style="font-style:oblique;font-weight:800;font-size:3.175px;font-family:'Liber Grotesque Family';-inkscape-font-specification:'Liber Grotesque Family, Ultra-Bold Oblique';letter-spacing:0.0635px;word-spacing:0.529167px;direction:rtl;display:inline;fill:#00ffb4;fill-rule:evenodd;stroke:#fdfdfd;stroke-opacity:0"
   aria-label="]" /><path
   d="m 71.664352,22.519987 h -0.8128 l 0.05398,-0.37465 h 0.43815 l 0.34925,-2.5019 h -0.43815 l 0.05397,-0.37465 h 0.8128 z"
   id="text7-1-9"
   style="font-style:oblique;font-weight:800;font-size:3.175px;font-family:'Liber Grotesque Family';-inkscape-font-specification:'Liber Grotesque Family, Ultra-Bold Oblique';letter-spacing:0.0635px;word-spacing:0.529167px;direction:rtl;display:inline;fill:#b400ff;fill-rule:evenodd;stroke:#fdfdfd;stroke-opacity:0"
   aria-label="[" /><path
   d="m 48.962794,15.687697 h -0.624417 l -0.536222,-2.592919 h 0.426861 l 0.465667,2.254252 1.100667,-2.254252 h 0.426862 z"
   id="text7-5"
   style="font-style:oblique;font-weight:bold;font-size:3.52778px;font-family:'Liber Grotesque Family';-inkscape-font-specification:'Liber Grotesque Family, Bold Oblique';letter-spacing:0.79375px;word-spacing:0.529167px;direction:rtl;display:inline;fill:#00ffb4;fill-rule:evenodd;stroke:#fdfdfd;stroke-opacity:0"
   aria-label="V" /><path
   style="font-style:oblique;font-weight:800;font-size:4.93889px;font-family:'Liber Grotesque Family';-inkscape-font-specification:'Liber Grotesque Family, Ultra-Bold Oblique';letter-spacing:0.79375px;word-spacing:0.529167px;direction:rtl;display:inline;fill:#b400ff;fill-rule:evenodd;stroke:#fdfdfd;stroke-opacity:0"
   d="m 111.19684,27.994076 0.0741,-0.528462 h 0.99271 l 0.71614,-0.992716 h -1.67922 l 0.0741,-0.538339 h 2.48426 l 0.0642,0.128411 -0.99272,1.402644 h 0.65194 l -0.0741,0.528462 h -0.9532 l -0.74084,1.032228 h 1.65453 l -0.0741,0.538339 h -2.48426 l -0.0593,-0.128412 1.03717,-1.442155 z"
   id="text8"
   aria-label="Z" /><path
   d="m 80.058961,14.440503 0.05433,-0.384176 h 0.783873 l 0.62089,-0.830439 h -1.381482 l 0.05433,-0.388056 h 1.955802 l 0.04657,0.100894 -0.814917,1.117601 h 0.539398 l -0.05433,0.384176 h -0.752833 l -0.636412,0.861484 h 1.362077 l -0.05433,0.388056 h -1.955802 l -0.04269,-0.100894 0.842081,-1.148646 z"
   id="text8-5"
   style="font-style:oblique;font-weight:bold;font-size:3.88056px;font-family:'Liber Grotesque Family';-inkscape-font-specification:'Liber Grotesque Family, Bold Oblique';letter-spacing:0.79375px;word-spacing:0.529167px;direction:rtl;display:inline;fill:#b400ff;fill-rule:evenodd;stroke:#fdfdfd;stroke-opacity:0"
   aria-label="Z" /><text
   xml:space="preserve"
   style="font-style:normal;font-variant:normal;font-weight:450;font-stretch:normal;font-size:3.175px;font-family:'Liber Grotesque Family';-inkscape-font-specification:'Liber Grotesque Family,  weight=450';font-variant-ligatures:normal;font-variant-caps:normal;font-variant-numeric:normal;font-variant-east-asian:normal;text-align:start;letter-spacing:0.171979px;word-spacing:0px;writing-mode:lr-tb;direction:rtl;text-anchor:start;display:inline;opacity:1;fill:#fefcff;fill-opacity:1;fill-rule:evenodd;stroke:#fdfdfd;stroke-width:1;stroke-dasharray:none;stroke-opacity:0"
   x="12.256828"
   y="59.150948"
   id="text11"><tspan
     id="tspan11"
     style="font-style:normal;font-variant:normal;font-weight:450;font-stretch:normal;font-size:3.175px;font-family:'Liber Grotesque Family';-inkscape-font-specification:'Liber Grotesque Family,  weight=450';font-variant-ligatures:normal;font-variant-caps:normal;font-variant-numeric:normal;font-variant-east-asian:normal;stroke-width:1"
     x="12.256828"
     y="59.150948" /></text><path
   d="m 14.575906,66.141104 2.749362,1.371839 -2.749362,1.371838 z"
   id="text16"
   style="font-style:oblique;font-weight:bold;font-size:3.88056px;font-family:'Liber Grotesque Family';-inkscape-font-specification:'Liber Grotesque Family, Bold Oblique';letter-spacing:0.171979px;word-spacing:0px;direction:rtl;display:inline;fill:#e8e0c8;fill-opacity:1;fill-rule:evenodd;stroke:#e8e0c8;stroke-width:0.3;stroke-opacity:1"
   aria-label="►" /><path
   d="m 114.53362,66.141101 2.74936,1.371839 -2.74936,1.371838 z"
   id="text16-8"
   style="font-style:oblique;font-weight:bold;font-size:3.88056px;font-family:'Liber Grotesque Family';-inkscape-font-specification:'Liber Grotesque Family, Bold Oblique';letter-spacing:0.171979px;word-spacing:0px;direction:rtl;display:inline;fill:#e8e0c8;fill-opacity:1;fill-rule:evenodd;stroke:#e8e0c8;stroke-width:0.3;stroke-opacity:1"
   aria-label="►" /><path
   d="m 14.756122,76.454113 h 1.885952 v -1.885952 h -1.885952 z"
   id="text17"
   style="font-style:oblique;font-weight:bold;font-size:3.88056px;font-family:'Liber Grotesque Family';-inkscape-font-specification:'Liber Grotesque Family, Bold Oblique';letter-spacing:0.171979px;word-spacing:0px;direction:rtl;display:inline;fill:#e8e0c8;fill-opacity:1;fill-rule:evenodd;stroke:#e8e0c8;stroke-width:0.3;stroke-opacity:1"
   aria-label="⏹" /><path
   d="m 114.71384,76.454107 h 1.88595 v -1.885952 h -1.88595 z"
   id="text17-6"
   style="font-style:oblique;font-weight:bold;font-size:3.88056px;font-family:'Liber Grotesque Family';-inkscape-font-specification:'Liber Grotesque Family, Bold Oblique';letter-spacing:0.171979px;word-spacing:0px;direction:rtl;display:inline;fill:#e8e0c8;fill-opacity:1;fill-rule:evenodd;stroke:#e8e0c8;stroke-width:0.3;stroke-opacity:1"
   aria-label="⏹" /><path
   d="m 16.895921,82.5664 q 0.258038,0 0.436494,0.180868 0.180867,0.178456 0.180867,0.436493 0,0.258038 -0.178456,0.438906 -0.178456,0.178456 -0.438905,0.178456 H 15.10895 q 0.272507,0.306269 0.390674,0.651123 h -0.173633 q -0.33762,-0.49196 -0.9381,-0.711413 v -0.118166 q 0.60048,-0.219453 0.9381,-0.711413 h 0.173633 q -0.118167,0.347266 -0.390674,0.653535 h 1.786971 q 0.15434,0 0.267684,-0.113344 0.113344,-0.113343 0.113344,-0.267684 0,-0.15434 -0.113344,-0.267684 -0.113344,-0.113343 -0.267684,-0.113343 z"
   id="text20"
   style="font-weight:100;font-size:4.93889px;font-family:'Liber Grotesque Family';-inkscape-font-specification:'Liber Grotesque Family, Thin';letter-spacing:0.171979px;word-spacing:0px;direction:rtl;display:inline;fill:#e8e0c8;fill-opacity:1;fill-rule:evenodd;stroke:#e8e0c8;stroke-width:0.3;stroke-opacity:1"
   aria-label="↩" /><path
   d="m 116.85364,82.5664 q 0.25804,0 0.4365,0.180868 0.18086,0.178456 0.18086,0.436493 0,0.258038 -0.17845,0.438906 -0.17846,0.178456 -0.43891,0.178456 h -1.78697 q 0.27251,0.306269 0.39068,0.651123 h -0.17364 q -0.33762,-0.49196 -0.9381,-0.711413 v -0.118166 q 0.60048,-0.219453 0.9381,-0.711413 h 0.17364 q -0.11817,0.347266 -0.39068,0.653535 h 1.78697 q 0.15434,0 0.26769,-0.113344 0.11334,-0.113343 0.11334,-0.267684 0,-0.15434 -0.11334,-0.267684 -0.11335,-0.113343 -0.26769,-0.113343 z"
   id="text20-3"
   style="font-weight:100;font-size:4.93889px;font-family:'Liber Grotesque Family';-inkscape-font-specification:'Liber Grotesque Family, Thin';letter-spacing:0.171979px;word-spacing:0px;direction:rtl;display:inline;fill:#e8e0c8;fill-opacity:1;fill-rule:evenodd;stroke:#e8e0c8;stroke-width:0.3;stroke-opacity:1"
   aria-label="↩" /><circle
   cx="7.5470452"
   cy="83.509323"
   r="2.5"
   fill="none"
   stroke="#444444"
   stroke-width="0.3"
   opacity="0"
   id="a_reset_cv"
   style="display:none;opacity:1" /><circle
   cx="123.6797"
   cy="67.512939"
   r="2.5"
   fill="none"
   stroke="#444444"
   stroke-width="0.3"
   opacity="0"
   id="b_play_cv"
   style="display:none;opacity:1;stroke:#848484;stroke-opacity:1" /><circle
   cx="123.6797"
   cy="83.509323"
   r="2.5"
   fill="none"
   stroke="#444444"
   stroke-width="0.3"
   opacity="0"
   id="b_reset_cv"
   style="display:none;opacity:1" /><ellipse
   cx="31.764662"
   cy="17.239693"
   fill="none"
   stroke="#444444"
   stroke-width="0.180723"
   opacity="0"
   id="clk_mult_select"
   style="display:none;opacity:1;stroke:#ffffff;stroke-opacity:1"
   rx="2.4100001"
   ry="2.4096386" /><path
   style="display:inline;opacity:1;fill:#e8e0c8;fill-opacity:1;fill-rule:evenodd;stroke:#e8e0c8;stroke-width:0.265025;stroke-opacity:1"
   d="M 19.915051,17.124439 H 29.2643 v 0"
   id="path26" /><path
   d="m 32.305456,22.489369 h -0.259645 l -0.310445,-0.527757 -0.454379,0.527757 H 31.021341 L 31.633765,21.7697 31.224542,21.044387 h 0.259645 l 0.304801,0.536224 0.460023,-0.536224 h 0.259646 L 31.89341,21.7697 Z"
   id="text2"
   style="font-style:oblique;font-size:2.82223px;font-family:'Liber Grotesque Family';-inkscape-font-specification:'Liber Grotesque Family, Oblique';letter-spacing:0.0635px;word-spacing:0px;direction:rtl;fill:#e8e0c8;fill-opacity:1;fill-rule:evenodd;stroke:#fafafa;stroke-width:0.3;stroke-opacity:0"
   aria-label="x" /><path
   d="m 103.51893,15.199862 h -0.0741 v -0.767997 q 0,-0.09631 -0.0321,-0.180269 -0.0296,-0.08643 -0.0864,-0.148167 -0.0568,-0.06421 -0.13582,-0.101247 -0.079,-0.03704 -0.1778,-0.03704 -0.0938,0 -0.17533,0.03951 -0.079,0.03951 -0.13829,0.103717 -0.0593,0.0642 -0.0938,0.150636 -0.0346,0.08396 -0.0346,0.172861 v 0.767997 h -0.0741 v -0.767997 q 0,-0.07655 -0.0296,-0.158044 -0.0272,-0.08396 -0.0815,-0.153106 -0.0543,-0.06914 -0.13582,-0.111125 -0.079,-0.04445 -0.18521,-0.04445 -0.10125,0 -0.18521,0.04445 -0.0815,0.04445 -0.14076,0.121003 -0.0568,0.07408 -0.0889,0.172861 -0.0321,0.09631 -0.0321,0.202494 v 0.693914 h -0.0716 v -1.264355 h 0.0716 v 0.30868 q 0.0148,-0.06174 0.0543,-0.123472 0.0395,-0.06421 0.0963,-0.113594 0.0593,-0.04939 0.13335,-0.07902 0.0765,-0.0321 0.16298,-0.0321 0.0889,0 0.16545,0.02963 0.0766,0.02716 0.13582,0.07655 0.0617,0.04939 0.10372,0.116064 0.0444,0.06668 0.0667,0.143227 0.0247,-0.07655 0.0716,-0.143227 0.0469,-0.06668 0.10865,-0.116064 0.0642,-0.04939 0.14076,-0.07655 0.0766,-0.02963 0.16052,-0.02963 0.11112,0 0.20249,0.04198 0.0914,0.03951 0.15805,0.111125 0.0667,0.07161 0.10371,0.170392 0.037,0.09631 0.037,0.212372 z m 0.37219,-0.632178 q 0,-0.13335 0.0494,-0.251883 0.0519,-0.118533 0.13828,-0.204964 0.0864,-0.08643 0.20497,-0.135819 0.11853,-0.05186 0.25188,-0.05186 0.13335,0 0.25188,0.05186 0.11854,0.04939 0.20497,0.135819 0.0864,0.08643 0.13582,0.204964 0.0519,0.118533 0.0519,0.251883 0,0.13335 -0.0519,0.251884 -0.0494,0.118533 -0.13582,0.204964 -0.0864,0.08643 -0.20497,0.138289 -0.11853,0.04939 -0.25188,0.04939 -0.13335,0 -0.25188,-0.04939 -0.11854,-0.05186 -0.20497,-0.138289 -0.0864,-0.08643 -0.13828,-0.204964 -0.0494,-0.118534 -0.0494,-0.251884 z m 0.0741,0 q 0,0.116064 0.0444,0.219781 0.0469,0.103717 0.12347,0.182739 0.079,0.07655 0.18274,0.123472 0.10372,0.04445 0.21978,0.04445 0.11607,0 0.21978,-0.04445 0.10372,-0.04692 0.18027,-0.123472 0.079,-0.07902 0.12347,-0.182739 0.0469,-0.103717 0.0469,-0.219781 0,-0.116063 -0.0469,-0.21978 -0.0445,-0.103717 -0.12347,-0.18027 -0.0765,-0.07902 -0.18027,-0.123472 -0.10371,-0.04692 -0.21978,-0.04692 -0.11606,0 -0.21978,0.04692 -0.10372,0.04445 -0.18274,0.123472 -0.0766,0.07655 -0.12347,0.18027 -0.0444,0.103717 -0.0444,0.21978 z m 1.51306,0 q 0,-0.13088 0.0494,-0.246944 0.0494,-0.116064 0.13582,-0.200025 0.0889,-0.08643 0.20496,-0.135819 0.11854,-0.04939 0.25683,-0.04939 0.0889,0 0.17039,0.02716 0.084,0.02716 0.15063,0.07161 0.0691,0.04445 0.11854,0.101248 0.0494,0.0568 0.0741,0.116064 v -0.948267 h 0.0741 v 1.896533 h -0.0741 v -0.321028 q -0.0247,0.05927 -0.0741,0.116064 -0.0469,0.0568 -0.1136,0.103717 -0.0642,0.04445 -0.14816,0.07408 -0.0815,0.02716 -0.1778,0.02716 -0.13829,0 -0.25683,-0.04939 -0.11606,-0.04939 -0.20496,-0.13335 -0.0864,-0.08643 -0.13582,-0.202494 -0.0494,-0.116064 -0.0494,-0.246945 z m 1.18781,0 q 0,-0.121002 -0.042,-0.224719 -0.042,-0.103717 -0.11359,-0.180269 -0.0716,-0.07655 -0.17286,-0.118534 -0.0988,-0.04445 -0.21237,-0.04445 -0.11854,0 -0.22472,0.04445 -0.10372,0.04198 -0.18274,0.118534 -0.0765,0.07655 -0.121,0.180269 -0.0444,0.103717 -0.0444,0.224719 0,0.121003 0.0444,0.22472 0.0444,0.103717 0.121,0.180269 0.079,0.07408 0.18274,0.118534 0.10618,0.04198 0.22472,0.04198 0.11359,0 0.21237,-0.04198 0.10125,-0.04445 0.17286,-0.118534 0.0716,-0.07655 0.11359,-0.180269 0.042,-0.103717 0.042,-0.22472 z m 1.67357,0 v 0.03951 h -1.1557 q 0,0.128411 0.0494,0.229658 0.0494,0.101247 0.12594,0.172861 0.079,0.07161 0.1778,0.111125 0.0988,0.03704 0.19756,0.03704 0.12594,0 0.21978,-0.03457 0.0963,-0.03704 0.17286,-0.09384 l 0.0395,0.05186 q -0.0889,0.06914 -0.19508,0.106186 -0.10619,0.03704 -0.23954,0.03704 -0.11606,0 -0.22719,-0.04198 -0.11112,-0.04445 -0.20002,-0.128411 -0.0864,-0.08396 -0.14076,-0.204964 -0.0543,-0.123472 -0.0543,-0.281517 0,-0.135819 0.0444,-0.254352 0.0444,-0.118534 0.12347,-0.207434 0.0815,-0.0889 0.19509,-0.140758 0.11359,-0.05186 0.25188,-0.05186 0.1457,0 0.25929,0.0568 0.1136,0.05433 0.19262,0.145697 0.079,0.09137 0.121,0.209903 0.042,0.118533 0.042,0.242006 z m -0.61489,-0.587727 q -0.11853,0 -0.21731,0.04198 -0.0988,0.04198 -0.17039,0.118534 -0.0716,0.07655 -0.1136,0.180269 -0.0395,0.103717 -0.0395,0.224719 h 1.08409 q 0,-0.116063 -0.0395,-0.217311 -0.0395,-0.103716 -0.11113,-0.180269 -0.0716,-0.07902 -0.17286,-0.123472 -0.0988,-0.04445 -0.21978,-0.04445 z"
   id="text3"
   style="font-weight:100;font-size:2.46944px;line-height:0;font-family:'Liber Grotesque Family';-inkscape-font-specification:'Liber Grotesque Family, Thin';letter-spacing:0.0635px;word-spacing:0px;direction:rtl;fill:#e8e0c8;fill-rule:evenodd;stroke:#e8e0c8;stroke-width:0.1"
   aria-label="mode" /><path
   d="m 63.001015,21.78339 h -0.08467 v -0.877714 q 0,-0.110066 -0.03669,-0.206022 -0.03387,-0.09878 -0.09878,-0.169334 -0.06491,-0.07338 -0.155223,-0.115712 -0.09031,-0.04233 -0.2032,-0.04233 -0.107245,0 -0.200378,0.04516 -0.09031,0.04516 -0.158045,0.118533 -0.06773,0.07338 -0.107245,0.172156 -0.03951,0.09596 -0.03951,0.197556 v 0.877714 h -0.08467 v -0.877714 q 0,-0.08749 -0.03387,-0.180622 -0.03104,-0.09596 -0.09313,-0.174979 -0.06209,-0.07902 -0.155222,-0.127 -0.09031,-0.0508 -0.211667,-0.0508 -0.115712,0 -0.211668,0.0508 -0.09313,0.0508 -0.160867,0.138289 -0.06491,0.08467 -0.1016,0.197557 -0.03669,0.110066 -0.03669,0.231422 v 0.793047 h -0.08184 v -1.444982 h 0.08184 v 0.352779 q 0.01693,-0.07056 0.06209,-0.141112 0.04516,-0.07338 0.110067,-0.129822 0.06773,-0.05645 0.1524,-0.09031 0.08749,-0.03669 0.186268,-0.03669 0.1016,0 0.189089,0.03387 0.08749,0.03104 0.155223,0.08749 0.07055,0.05645 0.118533,0.132645 0.0508,0.0762 0.0762,0.16369 0.02822,-0.08749 0.08185,-0.16369 0.05362,-0.0762 0.124178,-0.132645 0.07338,-0.05644 0.160867,-0.08749 0.08749,-0.03387 0.183445,-0.03387 0.127001,0 0.231423,0.04798 0.104423,0.04516 0.180623,0.127001 0.0762,0.08184 0.118534,0.194734 0.04233,0.110067 0.04233,0.242711 z m 0.486837,-1.444982 h 0.08467 v 0.795869 q 0,0.127 0.04516,0.237067 0.04516,0.107245 0.124178,0.18909 0.07902,0.08184 0.186267,0.129822 0.110067,0.04516 0.237068,0.04516 0.124178,0 0.234245,-0.0508 0.112889,-0.0508 0.194734,-0.138289 0.08467,-0.08749 0.132645,-0.206023 0.0508,-0.118534 0.05362,-0.256823 v -0.745069 h 0.08467 v 1.444982 h -0.08467 v -0.423334 q -0.01693,0.07338 -0.07056,0.1524 -0.0508,0.07902 -0.129822,0.146756 -0.07902,0.06491 -0.186268,0.110067 -0.104422,0.04233 -0.2286,0.04233 -0.146756,0 -0.270934,-0.05362 -0.124178,-0.05362 -0.21449,-0.146756 -0.09031,-0.09596 -0.141111,-0.225778 -0.0508,-0.129823 -0.0508,-0.279401 z m 2.055994,1.444982 v -1.371604 h -0.333023 v -0.07338 h 0.333023 v -0.361245 h 0.08467 v 0.361245 h 0.333023 v 0.07338 h -0.333023 v 1.371604 z m 1.779414,-0.409223 q -0.0254,0.08749 -0.08184,0.166511 -0.05362,0.07902 -0.132645,0.13829 -0.07902,0.05927 -0.180623,0.09313 -0.1016,0.03387 -0.217312,0.03387 -0.118533,0 -0.211667,-0.03104 -0.09313,-0.03104 -0.158045,-0.08467 -0.06491,-0.05644 -0.09878,-0.129822 -0.03387,-0.0762 -0.03387,-0.166512 0,-0.07055 0.02822,-0.135467 0.03104,-0.06491 0.09313,-0.112889 0.06491,-0.0508 0.158045,-0.07902 0.09596,-0.03104 0.228601,-0.03104 h 0.601135 v -0.08467 q 0,-0.09596 -0.02822,-0.191911 -0.02822,-0.09596 -0.09031,-0.172157 -0.06209,-0.07902 -0.158045,-0.127 -0.09313,-0.04798 -0.222956,-0.04798 -0.118534,0 -0.217312,0.03951 -0.09878,0.03951 -0.180622,0.110067 l -0.04798,-0.05644 q 0.197556,-0.166512 0.445912,-0.166512 0.146756,0 0.256823,0.05362 0.110067,0.05362 0.180623,0.141111 0.07338,0.08467 0.110067,0.194734 0.03669,0.107245 0.03669,0.220134 v 0.83538 h -0.07902 z m -1.032936,0.01975 q 0,0.149578 0.115711,0.242712 0.115712,0.09313 0.304801,0.09313 0.11289,0 0.222957,-0.03951 0.110066,-0.03951 0.194733,-0.115711 0.08467,-0.07902 0.135467,-0.194734 0.05362,-0.118534 0.05362,-0.273756 h -0.601135 q -0.220134,0 -0.324557,0.08467 -0.1016,0.08467 -0.1016,0.2032 z m 1.762484,0.389468 v -1.371604 h -0.333024 v -0.07338 h 0.333024 v -0.361245 h 0.08467 v 0.361245 h 0.333024 v 0.07338 h -0.333024 v 1.371604 z m 2.04188,-0.722491 v 0.04516 h -1.320803 q 0,0.146756 0.05644,0.262467 0.05644,0.115712 0.143934,0.197556 0.09031,0.08184 0.203201,0.127001 0.112889,0.04233 0.225778,0.04233 0.143934,0 0.251178,-0.03951 0.110067,-0.04233 0.197557,-0.107245 l 0.04515,0.05927 q -0.1016,0.07902 -0.222956,0.121356 -0.121356,0.04233 -0.273756,0.04233 -0.132645,0 -0.259645,-0.04798 -0.127001,-0.0508 -0.228601,-0.146756 -0.09878,-0.09596 -0.160867,-0.234245 -0.06209,-0.141111 -0.06209,-0.321734 0,-0.155223 0.0508,-0.29069 0.0508,-0.135467 0.141111,-0.237067 0.09313,-0.1016 0.222957,-0.160867 0.129822,-0.05927 0.287867,-0.05927 0.166512,0 0.296334,0.06491 0.129823,0.06209 0.220134,0.166512 0.09031,0.104423 0.138289,0.23989 0.04798,0.135467 0.04798,0.276578 z m -0.702735,-0.671691 q -0.135467,0 -0.248356,0.04798 -0.112889,0.04798 -0.194734,0.135467 -0.08185,0.08749 -0.129823,0.206023 -0.04515,0.118534 -0.04515,0.256823 h 1.238959 q 0,-0.132645 -0.04516,-0.248356 -0.04516,-0.118534 -0.127,-0.206023 -0.08185,-0.09031 -0.197556,-0.141111 -0.11289,-0.0508 -0.251179,-0.0508 z"
   id="text3-3"
   style="font-weight:100;font-size:2.82223px;line-height:0;font-family:'Liber Grotesque Family';-inkscape-font-specification:'Liber Grotesque Family, Thin';letter-spacing:0.0635px;word-spacing:0px;direction:rtl;fill:#e8e0c8;fill-rule:evenodd;stroke:#e8e0c8;stroke-width:0.1"
   aria-label="mutate" /><path
   d="m 15.035693,10.321862 q 0,0.13088 -0.04939,0.246944 -0.04939,0.116064 -0.138289,0.202495 -0.08643,0.08396 -0.204964,0.13335 -0.118533,0.04939 -0.254353,0.04939 -0.09631,0 -0.180269,-0.02716 -0.08149,-0.02963 -0.148167,-0.07408 -0.06421,-0.04692 -0.113594,-0.103716 -0.04692,-0.0568 -0.07161,-0.116064 V 10.95404 H 13.80097 V 9.0575062 h 0.07408 v 0.9482668 q 0.02469,-0.059267 0.07408,-0.116064 0.04939,-0.056797 0.116064,-0.1012472 0.06914,-0.04445 0.150636,-0.071614 0.08396,-0.027164 0.172861,-0.027164 0.13582,0 0.254353,0.049389 0.118533,0.049389 0.204964,0.1358194 0.0889,0.083961 0.138289,0.2000247 0.04939,0.116064 0.04939,0.246945 z m -1.187803,0 q 0,0.121003 0.04198,0.224719 0.04198,0.103717 0.113595,0.18027 0.07161,0.07408 0.170391,0.118533 0.09878,0.04198 0.214842,0.04198 0.118533,0 0.22225,-0.04198 0.106186,-0.04445 0.182739,-0.118533 0.07902,-0.07655 0.123472,-0.18027 0.04445,-0.103716 0.04445,-0.224719 0,-0.121003 -0.04445,-0.22472 -0.04445,-0.1037163 -0.123472,-0.1802691 -0.07655,-0.076553 -0.182739,-0.1185334 -0.103717,-0.04445 -0.22225,-0.04445 -0.116064,0 -0.214842,0.04445 -0.09878,0.041981 -0.170391,0.1185334 -0.07161,0.076553 -0.113595,0.1802691 -0.04198,0.103717 -0.04198,0.22472 z m 2.844096,0 q 0,0.13088 -0.04939,0.246944 -0.04939,0.116064 -0.138289,0.202495 -0.08643,0.08396 -0.204964,0.13335 -0.118533,0.04939 -0.254353,0.04939 -0.0889,0 -0.172861,-0.02716 -0.08149,-0.02716 -0.150636,-0.07161 -0.06668,-0.04445 -0.116064,-0.101247 -0.04939,-0.0568 -0.07408,-0.116064 v 0.948266 h -0.07408 V 9.689684 h 0.07408 v 0.321028 q 0.02469,-0.059267 0.07161,-0.1160641 0.04939,-0.056797 0.113595,-0.1012472 0.06668,-0.046919 0.148167,-0.074083 0.08396,-0.029633 0.180269,-0.029633 0.13582,0 0.254353,0.049389 0.118533,0.049389 0.204964,0.1358194 0.0889,0.083961 0.138289,0.2000247 0.04939,0.116064 0.04939,0.246945 z m -1.187803,0 q 0,0.121003 0.04198,0.224719 0.04198,0.103717 0.113595,0.18027 0.07161,0.07655 0.170391,0.121002 0.09878,0.04198 0.214842,0.04198 0.118533,0 0.22225,-0.04198 0.106186,-0.04445 0.182739,-0.121002 0.07902,-0.07655 0.123472,-0.18027 0.04445,-0.103716 0.04445,-0.224719 0,-0.121003 -0.04445,-0.22225 -0.04445,-0.1037169 -0.123472,-0.1802697 -0.07655,-0.076553 -0.182739,-0.1185333 -0.103717,-0.04445 -0.22225,-0.04445 -0.116064,0 -0.214842,0.04445 -0.09878,0.041981 -0.170391,0.1185333 -0.07161,0.076553 -0.113595,0.1802697 -0.04198,0.101247 -0.04198,0.22225 z m 3.570109,0.632178 h -0.07408 v -0.767998 q 0,-0.09631 -0.0321,-0.180269 -0.02963,-0.086431 -0.08643,-0.1481668 -0.0568,-0.064205 -0.13582,-0.1012472 -0.07902,-0.037042 -0.1778,-0.037042 -0.09384,0 -0.17533,0.039511 -0.07902,0.039511 -0.138289,0.1037167 -0.05927,0.064206 -0.09384,0.1506359 -0.03457,0.08396 -0.03457,0.172861 v 0.767998 h -0.07408 v -0.767998 q 0,-0.07655 -0.02963,-0.158044 -0.02716,-0.083961 -0.08149,-0.1531057 -0.05433,-0.069144 -0.135819,-0.111125 -0.07902,-0.04445 -0.185208,-0.04445 -0.101248,0 -0.185209,0.04445 -0.08149,0.04445 -0.140758,0.1210028 -0.0568,0.074083 -0.0889,0.1728609 -0.0321,0.09631 -0.0321,0.202495 v 0.693914 h -0.07161 V 9.689684 h 0.07161 v 0.3086805 q 0.01482,-0.061736 0.05433,-0.1234722 0.03951,-0.064206 0.09631,-0.1135944 0.05927,-0.049389 0.13335,-0.079022 0.07655,-0.032103 0.162984,-0.032103 0.0889,0 0.165452,0.029633 0.07655,0.027164 0.13582,0.076553 0.06174,0.049389 0.103717,0.1160639 0.04445,0.066675 0.06668,0.1432281 0.02469,-0.076553 0.07161,-0.1432281 0.04692,-0.066675 0.108656,-0.1160639 0.06421,-0.049389 0.140758,-0.076553 0.07655,-0.029633 0.160514,-0.029633 0.111125,0 0.202495,0.041981 0.09137,0.039511 0.158044,0.111125 0.06668,0.071614 0.103717,0.1703917 0.03704,0.096308 0.03704,0.2123719 z"
   id="text3-3-8"
   style="font-weight:100;font-size:2.46944px;line-height:0;font-family:'Liber Grotesque Family';-inkscape-font-specification:'Liber Grotesque Family, Thin';letter-spacing:0.0635px;word-spacing:0px;direction:rtl;fill:#e8e0c8;fill-rule:evenodd;stroke:#e8e0c8;stroke-width:0.1"
   aria-label="bpm" /><path
   d="M 12.364247,46.704224 V 44.80769 h 0.07161 v 1.896534 z m 1.698271,-0.632178 v 0.03951 h -1.1557 q 0,0.128411 0.04939,0.229658 0.04939,0.101248 0.125942,0.172861 0.07902,0.07161 0.1778,0.111125 0.09878,0.03704 0.197555,0.03704 0.125942,0 0.219781,-0.03457 0.09631,-0.03704 0.172861,-0.09384 l 0.03951,0.05186 q -0.0889,0.06914 -0.195086,0.106186 -0.106186,0.03704 -0.239536,0.03704 -0.116064,0 -0.227189,-0.04198 -0.111125,-0.04445 -0.200025,-0.128412 -0.08643,-0.08396 -0.140758,-0.204963 -0.05433,-0.123473 -0.05433,-0.281517 0,-0.13582 0.04445,-0.254353 0.04445,-0.118533 0.123472,-0.207433 0.08149,-0.0889 0.195086,-0.140759 0.113595,-0.05186 0.251884,-0.05186 0.145697,0 0.259291,0.0568 0.113595,0.05433 0.192617,0.145698 0.07902,0.09137 0.121003,0.209902 0.04198,0.118534 0.04198,0.242006 z m -0.614891,-0.587728 q -0.118534,0 -0.217312,0.04198 -0.09878,0.04198 -0.170391,0.118533 -0.07161,0.07655 -0.113595,0.180269 -0.03951,0.103717 -0.03951,0.22472 h 1.084086 q 0,-0.116064 -0.03951,-0.217311 -0.03951,-0.103717 -0.111125,-0.18027 -0.07161,-0.07902 -0.172861,-0.123472 -0.09878,-0.04445 -0.21978,-0.04445 z m 2.164995,1.219906 h -0.07408 V 46.00784 q 0,-0.111125 -0.03951,-0.204964 -0.03951,-0.09631 -0.108655,-0.167922 -0.06914,-0.07161 -0.165453,-0.111125 -0.09384,-0.04198 -0.204964,-0.04198 -0.108656,0 -0.207433,0.04445 -0.09631,0.04445 -0.170392,0.121002 -0.07161,0.07655 -0.116064,0.18027 -0.04198,0.103717 -0.04445,0.224719 v 0.651934 h -0.07161 v -1.264356 h 0.07161 v 0.370417 q 0.01482,-0.06174 0.05927,-0.130881 0.04692,-0.07161 0.116064,-0.128411 0.06914,-0.05927 0.160513,-0.09631 0.09384,-0.03951 0.202495,-0.03951 0.128411,0 0.237067,0.04692 0.108655,0.04692 0.187677,0.130881 0.07902,0.08149 0.123473,0.195086 0.04445,0.113594 0.04445,0.244475 z m 0.404284,-0.807509 q 0,-0.106186 0.03951,-0.200025 0.04198,-0.09631 0.111125,-0.167922 0.07161,-0.07161 0.165453,-0.111125 0.09384,-0.04198 0.202494,-0.04198 0.08643,0 0.165453,0.02716 0.07902,0.02716 0.143228,0.07655 0.07161,-0.02469 0.148167,-0.0321 0.07655,-0.0074 0.170391,-0.0074 h 0.01976 v 0.06421 h -0.308681 q 0.08396,0.07161 0.13335,0.172861 0.04939,0.101247 0.04939,0.21978 0,0.108656 -0.04198,0.202495 -0.03951,0.09384 -0.111125,0.165453 -0.07161,0.06914 -0.167923,0.111125 -0.09384,0.03951 -0.200025,0.03951 -0.09384,0 -0.190147,-0.03951 -0.09384,-0.03951 -0.155575,-0.103717 -0.209903,0.08149 -0.209903,0.256822 0,0.09384 0.0568,0.148167 0.0568,0.05186 0.167922,0.05186 h 0.548217 q 0.202494,0 0.298802,0.0889 0.09878,0.0889 0.09878,0.22225 0,0.07408 -0.0321,0.13335 -0.02963,0.06174 -0.08643,0.101247 -0.05433,0.04198 -0.130881,0.06421 -0.07408,0.02222 -0.165453,0.02222 -0.128411,0 -0.239536,-0.04198 -0.108655,-0.03951 -0.187678,-0.111125 -0.07902,-0.07161 -0.121002,-0.170391 -0.03951,-0.09878 -0.0321,-0.214842 l 0.04939,-0.02469 q -0.130881,0 -0.212372,-0.06667 -0.08149,-0.06668 -0.08149,-0.195087 0,-0.09384 0.06668,-0.17533 0.06668,-0.08149 0.172861,-0.123472 -0.06174,-0.06914 -0.09878,-0.153106 -0.03457,-0.08643 -0.03457,-0.187678 z m 0.06668,0 q 0,0.09384 0.03457,0.1778 0.03704,0.08149 0.09631,0.143228 0.06174,0.05927 0.143227,0.09631 0.08396,0.03457 0.1778,0.03457 0.09384,0 0.175331,-0.03457 0.08396,-0.03704 0.145697,-0.09631 0.06174,-0.06174 0.09631,-0.143228 0.03704,-0.08396 0.03704,-0.1778 0,-0.09384 -0.03704,-0.17533 -0.03457,-0.08396 -0.09631,-0.145697 -0.06174,-0.06174 -0.145697,-0.09631 -0.08149,-0.03704 -0.175331,-0.03704 -0.09384,0 -0.1778,0.03704 -0.08149,0.03457 -0.143227,0.09631 -0.05927,0.06174 -0.09631,0.145697 -0.03457,0.08149 -0.03457,0.17533 z m 0.651933,1.395236 q 0.150637,0 0.246945,-0.06421 0.09878,-0.06174 0.09878,-0.187678 0,-0.111125 -0.08396,-0.1778 -0.08149,-0.06421 -0.244475,-0.06421 H 16.21447 q -0.0074,0.108655 0.02716,0.197555 0.03704,0.09137 0.106187,0.155575 0.07161,0.06668 0.170391,0.103717 0.09878,0.03704 0.217311,0.03704 z m 0.863598,-0.587727 v -1.20015 h -0.291399 v -0.06421 h 0.291394 v -0.316089 h 0.07408 v 0.316089 h 0.291394 v 0.06421 h -0.291394 v 1.20015 z m 1.937808,0 h -0.07408 v -0.656873 q 0,-0.113594 -0.04198,-0.212372 -0.04198,-0.09878 -0.116064,-0.172861 -0.07408,-0.07408 -0.172861,-0.116064 -0.09878,-0.04198 -0.212372,-0.04198 -0.111125,0 -0.209903,0.05186 -0.09878,0.04939 -0.172861,0.135819 -0.07408,0.08396 -0.118534,0.197556 -0.04445,0.113594 -0.04445,0.239536 v 0.575381 h -0.07408 v -1.896534 h 0.07408 v 1.059392 q 0.02963,-0.09384 0.08396,-0.172861 0.0568,-0.08149 0.130881,-0.138289 0.07408,-0.0568 0.162983,-0.08643 0.09137,-0.0321 0.192617,-0.02963 0.121003,0 0.227189,0.04939 0.108655,0.04692 0.190147,0.13335 0.08149,0.08396 0.128411,0.200025 0.04692,0.116064 0.04692,0.249414 z"
   id="text3-3-88"
   style="font-weight:100;font-size:2.46944px;line-height:0;font-family:'Liber Grotesque Family';-inkscape-font-specification:'Liber Grotesque Family, Thin';letter-spacing:0.0635px;word-spacing:0px;direction:rtl;fill:#e8e0c8;fill-rule:evenodd;stroke:#e8e0c8;stroke-width:0.1"
   aria-label="length" /><path
   d="m 13.967449,59.244115 h -0.07408 v -1.264356 h 0.06421 v 0.283986 q 0.05433,-0.140758 0.172861,-0.212372 0.118533,-0.07161 0.2667,-0.07161 h 0.04939 v 0.06421 h -0.04939 q -0.09137,0 -0.170392,0.0321 -0.07655,0.02963 -0.135819,0.08643 -0.0568,0.0568 -0.09137,0.13582 -0.0321,0.07655 -0.0321,0.170391 z m 1.908173,-0.632178 v 0.03951 h -1.1557 q 0,0.128411 0.04939,0.229658 0.04939,0.101248 0.125942,0.172862 0.07902,0.07161 0.1778,0.111125 0.09878,0.03704 0.197556,0.03704 0.125941,0 0.21978,-0.03457 0.09631,-0.03704 0.172861,-0.09384 l 0.03951,0.05186 q -0.0889,0.06914 -0.195086,0.106187 -0.106186,0.03704 -0.239536,0.03704 -0.116064,0 -0.227189,-0.04198 -0.111125,-0.04445 -0.200025,-0.128411 -0.08643,-0.08396 -0.140758,-0.204964 -0.05433,-0.123473 -0.05433,-0.281517 0,-0.135819 0.04445,-0.254353 0.04445,-0.118533 0.123472,-0.207433 0.08149,-0.0889 0.195086,-0.140758 0.113595,-0.05186 0.251884,-0.05186 0.145697,0 0.259291,0.0568 0.113595,0.05433 0.192617,0.145698 0.07902,0.09137 0.121003,0.209902 0.04198,0.118534 0.04198,0.242006 z m -0.614891,-0.587728 q -0.118534,0 -0.217311,0.04198 -0.09878,0.04198 -0.170392,0.118533 -0.07161,0.07655 -0.113594,0.18027 -0.03951,0.103716 -0.03951,0.224719 h 1.084087 q 0,-0.116064 -0.03951,-0.217311 -0.03951,-0.103717 -0.111125,-0.18027 -0.07161,-0.07902 -0.172861,-0.123472 -0.09878,-0.04445 -0.21978,-0.04445 z m 0.967314,0.251884 q 0,0.07655 0.05927,0.140758 0.06174,0.06421 0.209903,0.113594 l 0.30868,0.09878 q 0.190148,0.06174 0.2667,0.145697 0.07902,0.08149 0.07902,0.192617 0,0.06421 -0.02963,0.121003 -0.02716,0.05433 -0.08643,0.09631 -0.0568,0.03951 -0.145698,0.06421 -0.0889,0.02469 -0.207433,0.02469 -0.160514,0 -0.31115,-0.05927 -0.148167,-0.05927 -0.234597,-0.148166 l 0.05433,-0.04939 q 0.03951,0.04198 0.09631,0.07655 0.05927,0.03457 0.125942,0.05927 0.06668,0.0247 0.135819,0.03951 0.06914,0.01235 0.13335,0.01235 0.207433,0 0.301272,-0.06914 0.09384,-0.07161 0.09384,-0.167922 0,-0.08643 -0.06421,-0.150636 -0.06174,-0.06667 -0.22472,-0.118533 l -0.30868,-0.09878 q -0.155575,-0.04939 -0.242006,-0.130881 -0.08396,-0.08149 -0.08396,-0.192616 0,-0.06421 0.02716,-0.123473 0.02963,-0.06174 0.08643,-0.108655 0.05927,-0.04692 0.148167,-0.07408 0.09137,-0.02963 0.214842,-0.02963 0.135819,0 0.229658,0.04198 0.09631,0.04198 0.155575,0.103716 0.05927,0.06174 0.08643,0.130881 0.02716,0.06667 0.02716,0.118533 h -0.06668 q -0.01729,-0.145697 -0.13582,-0.234597 -0.118533,-0.09137 -0.296333,-0.09137 -0.106186,0 -0.182739,0.02222 -0.07408,0.02222 -0.123472,0.05927 -0.04939,0.03704 -0.07408,0.08643 -0.02222,0.04692 -0.02222,0.09878 z m 1.414286,0.968022 v -1.20015 h -0.291395 v -0.06421 h 0.291395 v -0.316089 h 0.07408 v 0.316089 h 0.291394 v 0.06421 h -0.291394 v 1.20015 z"
   id="text3-3-88-6"
   style="font-weight:100;font-size:2.46944px;line-height:0;font-family:'Liber Grotesque Family';-inkscape-font-specification:'Liber Grotesque Family, Thin';letter-spacing:0.0635px;word-spacing:0px;direction:rtl;fill:#e8e0c8;fill-rule:evenodd;stroke:#e8e0c8;stroke-width:0.1"
   aria-label="rest" /><path
   d="m 8.3059407,96.604984 q -0.0889,0.09384 -0.207433,0.143228 -0.118534,0.04692 -0.254353,0.04692 -0.13582,0 -0.256822,-0.05186 -0.1185338,-0.05186 -0.2074338,-0.140758 -0.0889,-0.0889 -0.1407584,-0.207433 -0.051858,-0.121003 -0.051858,-0.256823 0,-0.135819 0.051858,-0.254352 0.051858,-0.121003 0.1407584,-0.209903 0.0889,-0.0889 0.2074338,-0.140758 0.121002,-0.05186 0.256822,-0.05186 0.140758,0 0.261761,0.05433 0.123472,0.05433 0.212372,0.148167 l -0.04939,0.04692 q -0.07902,-0.08396 -0.187678,-0.13088 -0.106186,-0.04692 -0.237066,-0.04692 -0.121003,0 -0.227189,0.04692 -0.1061863,0.04445 -0.1876779,0.125941 -0.079022,0.07902 -0.1259417,0.185209 -0.04445,0.106186 -0.04445,0.227188 0,0.121003 0.04445,0.227189 0.046919,0.106186 0.1259417,0.187678 0.081492,0.07902 0.1876779,0.125942 0.106186,0.04445 0.227189,0.04445 0.13335,0 0.234597,-0.04198 0.101247,-0.04445 0.180269,-0.123472 z m 0.372181,0.165453 v -1.896533 h 0.07161 v 1.896533 z m 0.653696,-1.896533 v 1.232253 h 0.424745 L 10.12204,95.506082 h 0.07408 L 9.8158247,96.138259 10.19612,96.770437 H 10.12204 L 9.7565627,96.170362 h -0.424745 v 0.600075 h -0.07408 v -1.896533 z"
   id="text3-3-88-6-1"
   style="font-weight:100;font-size:2.46944px;line-height:0;font-family:'Liber Grotesque Family';-inkscape-font-specification:'Liber Grotesque Family, Thin';letter-spacing:0.0635px;word-spacing:0px;direction:rtl;fill:#e8e0c8;fill-rule:evenodd;stroke:#e8e0c8;stroke-width:0.1"
   aria-label="clk" /><path
   d="m 8.8082947,106.25 q -0.0889,0.0938 -0.207433,0.14322 -0.118534,0.0469 -0.254353,0.0469 -0.13582,0 -0.256822,-0.0519 -0.118534,-0.0519 -0.207434,-0.14076 -0.0889,-0.0889 -0.140758,-0.20744 -0.05186,-0.121 -0.05186,-0.25682 0,-0.13582 0.05186,-0.25435 0.05186,-0.121 0.140758,-0.2099 0.0889,-0.0889 0.207434,-0.14076 0.121002,-0.0519 0.256822,-0.0519 0.140758,0 0.261761,0.0543 0.123472,0.0543 0.212372,0.14816 l -0.04939,0.0469 q -0.07902,-0.084 -0.187677,-0.13088 -0.106187,-0.0469 -0.237067,-0.0469 -0.121003,0 -0.227189,0.0469 -0.106186,0.0444 -0.187678,0.12594 -0.07902,0.079 -0.125941,0.18521 -0.04445,0.10619 -0.04445,0.22719 0,0.121 0.04445,0.22719 0.04692,0.10619 0.125941,0.18768 0.08149,0.079 0.187678,0.12594 0.106186,0.0444 0.227189,0.0444 0.13335,0 0.234597,-0.042 0.101247,-0.0444 0.18027,-0.12347 z m 0.794456,0.0988 0.5087053,-1.19768 h 0.07655 l -0.5358693,1.26436 h -0.116064 l -0.53587,-1.26436 h 0.07655 l 0.508706,1.19768 z"
   id="text3-3-88-6-1-2"
   style="font-weight:100;font-size:2.46944px;line-height:0;font-family:'Liber Grotesque Family';-inkscape-font-specification:'Liber Grotesque Family, Thin';letter-spacing:0.0635px;word-spacing:0px;direction:rtl;fill:#e8e0c8;fill-rule:evenodd;stroke:#e8e0c8;stroke-width:0.1"
   aria-label="cv" /><path
   d="m 5.4043451,115.38589 q 0,-0.10618 0.039511,-0.20002 0.041981,-0.0963 0.111125,-0.16793 0.071614,-0.0716 0.1654527,-0.11112 0.093839,-0.042 0.2024945,-0.042 0.086431,0 0.1654528,0.0272 0.079022,0.0272 0.1432278,0.0766 0.071614,-0.0247 0.1481666,-0.0321 0.076553,-0.007 0.1703917,-0.007 h 0.019756 v 0.0642 H 6.2612424 q 0.083961,0.0716 0.13335,0.17286 0.049389,0.10125 0.049389,0.21978 0,0.10866 -0.041981,0.2025 -0.039511,0.0938 -0.111125,0.16545 -0.071614,0.0691 -0.1679222,0.11112 -0.093839,0.0395 -0.200025,0.0395 -0.093839,0 -0.1901472,-0.0395 -0.093839,-0.0395 -0.155575,-0.10371 -0.2099028,0.0815 -0.2099028,0.25682 0,0.0938 0.056797,0.14817 0.056797,0.0519 0.1679222,0.0519 h 0.5482167 q 0.2024945,0 0.2988028,0.0889 0.098778,0.0889 0.098778,0.22225 0,0.0741 -0.032103,0.13335 -0.029633,0.0617 -0.086431,0.10125 -0.054328,0.042 -0.1308805,0.0642 -0.074083,0.0222 -0.1654528,0.0222 -0.1284111,0 -0.2395361,-0.042 -0.1086556,-0.0395 -0.1876778,-0.11112 -0.079022,-0.0716 -0.1210028,-0.17039 -0.039511,-0.0988 -0.032103,-0.21485 l 0.049389,-0.0247 q -0.1308805,0 -0.2123722,-0.0667 -0.081492,-0.0667 -0.081492,-0.19508 0,-0.0938 0.066675,-0.17533 0.066675,-0.0815 0.1728612,-0.12347 -0.061736,-0.0692 -0.098778,-0.15311 -0.034572,-0.0864 -0.034572,-0.18768 z m 0.066675,0 q 0,0.0938 0.034572,0.1778 0.037042,0.0815 0.096308,0.14323 0.061736,0.0593 0.1432278,0.0963 0.083961,0.0346 0.1778,0.0346 0.093839,0 0.1753306,-0.0346 0.083961,-0.037 0.1456972,-0.0963 0.061736,-0.0617 0.096308,-0.14323 0.037042,-0.084 0.037042,-0.1778 0,-0.0938 -0.037042,-0.17533 -0.034572,-0.084 -0.096308,-0.1457 -0.061736,-0.0617 -0.1456972,-0.0963 -0.081492,-0.037 -0.1753306,-0.037 -0.093839,0 -0.1778,0.037 -0.081492,0.0346 -0.1432278,0.0963 -0.059267,0.0617 -0.096308,0.1457 -0.034572,0.0815 -0.034572,0.17533 z m 0.6519333,1.39524 q 0.1506361,0 0.2469445,-0.0642 0.098778,-0.0617 0.098778,-0.18768 0,-0.11112 -0.083961,-0.1778 -0.081492,-0.0642 -0.244475,-0.0642 H 5.6019007 q -0.00741,0.10865 0.027164,0.19755 0.037042,0.0914 0.1061861,0.15558 0.071614,0.0667 0.1703917,0.10372 0.098778,0.037 0.2173111,0.037 z m 1.6340652,-0.9458 q -0.02222,0.0765 -0.07161,0.1457 -0.04692,0.0691 -0.1160641,0.121 -0.069145,0.0519 -0.1580445,0.0815 -0.0889,0.0296 -0.1901472,0.0296 -0.1037167,0 -0.1852084,-0.0272 -0.081492,-0.0272 -0.1382889,-0.0741 -0.056797,-0.0494 -0.08643,-0.1136 -0.029633,-0.0667 -0.029633,-0.14569 0,-0.0617 0.024694,-0.11854 0.027164,-0.0568 0.081492,-0.0988 0.056797,-0.0444 0.1382889,-0.0692 0.083961,-0.0272 0.200025,-0.0272 h 0.5259873 v -0.0741 q 0,-0.084 -0.02469,-0.16792 -0.02469,-0.084 -0.07902,-0.15063 -0.05433,-0.0692 -0.1382888,-0.11113 -0.081492,-0.042 -0.1950861,-0.042 -0.1037167,0 -0.1901473,0.0346 -0.08643,0.0346 -0.1580444,0.0963 l -0.041981,-0.0494 q 0.1728612,-0.1457 0.3901723,-0.1457 0.1284111,0 0.2247194,0.0469 0.096308,0.0469 0.1580445,0.12348 0.06421,0.0741 0.09631,0.17039 0.0321,0.0938 0.0321,0.19261 v 0.73096 h -0.06914 z m -0.9038171,0.0173 q 0,0.13088 0.1012473,0.21237 0.1012472,0.0815 0.2667,0.0815 0.098778,0 0.1950861,-0.0346 0.096308,-0.0346 0.1703917,-0.10125 0.07408,-0.0691 0.118533,-0.17039 0.04692,-0.10372 0.04692,-0.23954 H 7.2260878 q -0.1926167,0 -0.2839861,0.0741 -0.0889,0.0741 -0.0889,0.1778 z m 1.5501061,0.34078 v -1.20015 h -0.291394 v -0.0642 h 0.291394 v -0.31608 h 0.07408 v 0.31608 h 0.291394 v 0.0642 h -0.291394 v 1.20015 z m 1.7945794,-0.63218 v 0.0395 H 9.0421866 q 0,0.12841 0.04939,0.22966 0.04939,0.10125 0.125941,0.17286 0.07902,0.0716 0.1778,0.11113 0.09878,0.037 0.197556,0.037 0.125942,0 0.21978,-0.0346 0.09631,-0.037 0.172862,-0.0938 l 0.03951,0.0519 q -0.0889,0.0691 -0.1950872,0.10618 -0.106187,0.037 -0.239537,0.037 -0.116063,0 -0.227188,-0.042 -0.111125,-0.0444 -0.200025,-0.12841 -0.08643,-0.084 -0.140759,-0.20496 -0.05433,-0.12347 -0.05433,-0.28152 0,-0.13582 0.04445,-0.25435 0.04445,-0.11853 0.123473,-0.20743 0.08149,-0.0889 0.195086,-0.14076 0.113594,-0.0519 0.251883,-0.0519 0.145697,0 0.259292,0.0568 0.113594,0.0543 0.1926172,0.14569 0.07902,0.0914 0.121003,0.20991 0.04198,0.11853 0.04198,0.242 z M 9.5829946,114.9735 q -0.118533,0 -0.217311,0.042 -0.09878,0.042 -0.170392,0.11853 -0.07161,0.0765 -0.113594,0.18027 -0.03951,0.10371 -0.03951,0.22472 h 1.0840864 q 0,-0.11607 -0.03951,-0.21731 -0.03951,-0.10372 -0.1111254,-0.18027 -0.07161,-0.079 -0.172861,-0.12348 -0.09878,-0.0444 -0.219781,-0.0444 z"
   id="text3-3-88-6-1-2-5"
   style="font-weight:100;font-size:2.46944px;line-height:0;font-family:'Liber Grotesque Family';-inkscape-font-specification:'Liber Grotesque Family, Thin';letter-spacing:0.0635px;word-spacing:0px;direction:rtl;fill:#e8e0c8;fill-rule:evenodd;stroke:#e8e0c8;stroke-width:0.1"
   aria-label="gate" /><path
   d="m 112.12735,46.704223 v -1.896534 h 0.0716 v 1.896534 z m 1.69827,-0.632178 v 0.03951 h -1.1557 q 0,0.128411 0.0494,0.229658 0.0494,0.101247 0.12594,0.172861 0.079,0.07161 0.1778,0.111125 0.0988,0.03704 0.19755,0.03704 0.12595,0 0.21979,-0.03457 0.0963,-0.03704 0.17286,-0.09384 l 0.0395,0.05186 q -0.0889,0.06914 -0.19509,0.106186 -0.10618,0.03704 -0.23953,0.03704 -0.11607,0 -0.22719,-0.04198 -0.11113,-0.04445 -0.20003,-0.128411 -0.0864,-0.08396 -0.14076,-0.204964 -0.0543,-0.123472 -0.0543,-0.281516 0,-0.13582 0.0444,-0.254353 0.0445,-0.118533 0.12347,-0.207433 0.0815,-0.0889 0.19508,-0.140759 0.1136,-0.05186 0.25189,-0.05186 0.14569,0 0.25929,0.0568 0.11359,0.05433 0.19262,0.145697 0.079,0.09137 0.121,0.209903 0.042,0.118533 0.042,0.242006 z m -0.61489,-0.587728 q -0.11854,0 -0.21731,0.04198 -0.0988,0.04198 -0.1704,0.118534 -0.0716,0.07655 -0.11359,0.180269 -0.0395,0.103717 -0.0395,0.22472 h 1.08408 q 0,-0.116064 -0.0395,-0.217311 -0.0395,-0.103717 -0.11112,-0.18027 -0.0716,-0.07902 -0.17286,-0.123472 -0.0988,-0.04445 -0.21978,-0.04445 z m 2.16499,1.219906 h -0.0741 v -0.696384 q 0,-0.111125 -0.0395,-0.204964 -0.0395,-0.09631 -0.10866,-0.167921 -0.0691,-0.07161 -0.16545,-0.111126 -0.0938,-0.04198 -0.20496,-0.04198 -0.10866,0 -0.20744,0.04445 -0.0963,0.04445 -0.17039,0.121003 -0.0716,0.07655 -0.11606,0.18027 -0.042,0.103716 -0.0444,0.224719 v 0.651934 h -0.0716 v -1.264356 h 0.0716 v 0.370417 q 0.0148,-0.06174 0.0593,-0.130881 0.0469,-0.07161 0.11607,-0.128411 0.0691,-0.05927 0.16051,-0.09631 0.0938,-0.03951 0.2025,-0.03951 0.12841,0 0.23706,0.04692 0.10866,0.04692 0.18768,0.13088 0.079,0.08149 0.12347,0.195087 0.0444,0.113594 0.0444,0.244475 z m 0.40429,-0.807509 q 0,-0.106186 0.0395,-0.200025 0.042,-0.09631 0.11112,-0.167922 0.0716,-0.07161 0.16546,-0.111125 0.0938,-0.04198 0.20249,-0.04198 0.0864,0 0.16545,0.02716 0.079,0.02716 0.14323,0.07655 0.0716,-0.02469 0.14817,-0.0321 0.0766,-0.0074 0.17039,-0.0074 h 0.0198 v 0.06421 h -0.30868 q 0.084,0.07161 0.13335,0.172862 0.0494,0.101247 0.0494,0.21978 0,0.108656 -0.042,0.202495 -0.0395,0.09384 -0.11112,0.165452 -0.0716,0.06915 -0.16793,0.111125 -0.0938,0.03951 -0.20002,0.03951 -0.0938,0 -0.19015,-0.03951 -0.0938,-0.03951 -0.15557,-0.103716 -0.20991,0.08149 -0.20991,0.256822 0,0.09384 0.0568,0.148167 0.0568,0.05186 0.16792,0.05186 h 0.54822 q 0.2025,0 0.2988,0.0889 0.0988,0.0889 0.0988,0.22225 0,0.07408 -0.0321,0.13335 -0.0296,0.06174 -0.0864,0.101247 -0.0543,0.04198 -0.13088,0.06421 -0.0741,0.02222 -0.16546,0.02222 -0.12841,0 -0.23953,-0.04198 -0.10866,-0.03951 -0.18768,-0.111125 -0.079,-0.07161 -0.121,-0.170391 -0.0395,-0.09878 -0.0321,-0.214842 l 0.0494,-0.0247 q -0.13088,0 -0.21237,-0.06667 -0.0815,-0.06668 -0.0815,-0.195087 0,-0.09384 0.0667,-0.17533 0.0667,-0.08149 0.17286,-0.123472 -0.0617,-0.06914 -0.0988,-0.153105 -0.0346,-0.08643 -0.0346,-0.187678 z m 0.0667,0 q 0,0.09384 0.0346,0.1778 0.0371,0.08149 0.0963,0.143228 0.0617,0.05927 0.14323,0.09631 0.084,0.03457 0.1778,0.03457 0.0938,0 0.17533,-0.03457 0.084,-0.03704 0.1457,-0.09631 0.0617,-0.06174 0.0963,-0.143228 0.037,-0.08396 0.037,-0.1778 0,-0.09384 -0.037,-0.17533 -0.0346,-0.08396 -0.0963,-0.145698 -0.0617,-0.06174 -0.1457,-0.09631 -0.0815,-0.03704 -0.17533,-0.03704 -0.0938,0 -0.1778,0.03704 -0.0815,0.03457 -0.14323,0.09631 -0.0593,0.06174 -0.0963,0.145698 -0.0346,0.08149 -0.0346,0.17533 z m 0.65193,1.395236 q 0.15064,0 0.24695,-0.06421 0.0988,-0.06174 0.0988,-0.187678 0,-0.111125 -0.084,-0.1778 -0.0815,-0.06421 -0.24448,-0.06421 h -0.53834 q -0.007,0.108656 0.0272,0.197556 0.037,0.09137 0.10618,0.155575 0.0716,0.06667 0.17039,0.103717 0.0988,0.03704 0.21731,0.03704 z m 0.8636,-0.587727 v -1.200151 h -0.29139 v -0.06421 h 0.29139 v -0.316089 h 0.0741 v 0.316089 h 0.29139 v 0.06421 h -0.29139 v 1.200151 z m 1.93781,0 h -0.0741 V 46.04735 q 0,-0.113594 -0.042,-0.212372 -0.042,-0.09878 -0.11607,-0.172861 -0.0741,-0.07408 -0.17286,-0.116064 -0.0988,-0.04198 -0.21237,-0.04198 -0.11113,0 -0.2099,0.05186 -0.0988,0.04939 -0.17286,0.135819 -0.0741,0.08396 -0.11854,0.197556 -0.0444,0.113594 -0.0444,0.239536 v 0.575381 h -0.0741 v -1.896534 h 0.0741 v 1.059392 q 0.0296,-0.09384 0.084,-0.172861 0.0568,-0.08149 0.13088,-0.138289 0.0741,-0.0568 0.16299,-0.08643 0.0914,-0.0321 0.19261,-0.02963 0.12101,0 0.22719,0.04939 0.10866,0.04692 0.19015,0.13335 0.0815,0.08396 0.12841,0.200025 0.0469,0.116064 0.0469,0.249414 z"
   id="text3-3-88-1"
   style="font-weight:100;font-size:2.46944px;line-height:0;font-family:'Liber Grotesque Family';-inkscape-font-specification:'Liber Grotesque Family, Thin';letter-spacing:0.0635px;word-spacing:0px;direction:rtl;fill:#e8e0c8;fill-rule:evenodd;stroke:#e8e0c8;stroke-width:0.1"
   aria-label="length" /><path
   d="m 113.95822,59.383642 v -1.20015 h -0.29139 v -0.06421 h 0.29139 v -0.316089 h 0.0741 v 0.316089 h 0.2914 v 0.06421 h -0.2914 v 1.20015 z m 0.78705,-1.264356 v 1.264356 h -0.0741 v -1.264356 z m -0.11113,-0.516114 q 0,-0.0321 0.0198,-0.05186 0.0222,-0.02223 0.0543,-0.02223 0.0321,0 0.0519,0.02223 0.0222,0.01976 0.0222,0.05186 0,0.0321 -0.0222,0.05433 -0.0198,0.01976 -0.0519,0.01976 -0.0321,0 -0.0543,-0.01976 -0.0198,-0.02222 -0.0198,-0.05433 z m 1.75013,1.148292 v 0.03951 h -1.1557 q 0,0.128411 0.0494,0.229659 0.0494,0.101247 0.12594,0.172861 0.079,0.07161 0.1778,0.111125 0.0988,0.03704 0.19756,0.03704 0.12594,0 0.21978,-0.03457 0.0963,-0.03704 0.17286,-0.09384 l 0.0395,0.05186 q -0.0889,0.06914 -0.19509,0.106186 -0.10618,0.03704 -0.23953,0.03704 -0.11607,0 -0.22719,-0.04198 -0.11113,-0.04445 -0.20003,-0.128411 -0.0864,-0.08396 -0.14076,-0.204964 -0.0543,-0.123472 -0.0543,-0.281517 0,-0.135819 0.0444,-0.254353 0.0444,-0.118533 0.12347,-0.207433 0.0815,-0.0889 0.19508,-0.140758 0.1136,-0.05186 0.25189,-0.05186 0.14569,0 0.25929,0.0568 0.11359,0.05433 0.19262,0.145697 0.079,0.09137 0.121,0.209903 0.042,0.118533 0.042,0.242005 z m -0.61489,-0.587728 q -0.11854,0 -0.21731,0.04198 -0.0988,0.04198 -0.1704,0.118533 -0.0716,0.07655 -0.11359,0.18027 -0.0395,0.103716 -0.0395,0.224719 h 1.08409 q 0,-0.116064 -0.0395,-0.217311 -0.0395,-0.103717 -0.11112,-0.180269 -0.0716,-0.07902 -0.17286,-0.123473 -0.0988,-0.04445 -0.21978,-0.04445 z"
   id="text3-3-88-60"
   style="font-weight:100;font-size:2.46944px;line-height:0;font-family:'Liber Grotesque Family';-inkscape-font-specification:'Liber Grotesque Family, Thin';letter-spacing:0.0635px;word-spacing:0px;direction:rtl;fill:#e8e0c8;fill-rule:evenodd;stroke:#e8e0c8;stroke-width:0.1"
   aria-label="tie" /><path
   d="m 121.18263,96.604984 q -0.0889,0.09384 -0.20743,0.143228 -0.11854,0.04692 -0.25435,0.04692 -0.13582,0 -0.25683,-0.05186 -0.11853,-0.05186 -0.20743,-0.140758 -0.0889,-0.0889 -0.14076,-0.207433 -0.0519,-0.121003 -0.0519,-0.256823 0,-0.135819 0.0519,-0.254352 0.0519,-0.121003 0.14076,-0.209903 0.0889,-0.0889 0.20743,-0.140758 0.12101,-0.05186 0.25683,-0.05186 0.14075,0 0.26176,0.05433 0.12347,0.05433 0.21237,0.148167 l -0.0494,0.04692 q -0.079,-0.08396 -0.18768,-0.13088 -0.10618,-0.04692 -0.23706,-0.04692 -0.12101,0 -0.22719,0.04692 -0.10619,0.04445 -0.18768,0.125941 -0.079,0.07902 -0.12594,0.185209 -0.0445,0.106186 -0.0445,0.227188 0,0.121003 0.0445,0.227189 0.0469,0.106186 0.12594,0.187678 0.0815,0.07902 0.18768,0.125942 0.10618,0.04445 0.22719,0.04445 0.13335,0 0.23459,-0.04198 0.10125,-0.04445 0.18027,-0.123472 z m 0.37218,0.165453 v -1.896533 h 0.0716 v 1.896533 z m 0.6537,-1.896533 v 1.232253 h 0.42474 l 0.36548,-0.600075 h 0.0741 l -0.38029,0.632177 0.38029,0.632178 h -0.0741 l -0.36548,-0.600075 h -0.42474 v 0.600075 h -0.0741 v -1.896533 z"
   id="text3-3-88-6-1-5"
   style="font-weight:100;font-size:2.46944px;line-height:0;font-family:'Liber Grotesque Family';-inkscape-font-specification:'Liber Grotesque Family, Thin';letter-spacing:0.0635px;word-spacing:0px;direction:rtl;fill:#e8e0c8;fill-rule:evenodd;stroke:#e8e0c8;stroke-width:0.1"
   aria-label="clk" /><path
   d="m 121.11066,106.24999 q -0.0889,0.0938 -0.20743,0.14323 -0.11853,0.0469 -0.25435,0.0469 -0.13582,0 -0.25683,-0.0519 -0.11853,-0.0519 -0.20743,-0.14076 -0.0889,-0.0889 -0.14076,-0.20743 -0.0519,-0.121 -0.0519,-0.25682 0,-0.13582 0.0519,-0.25435 0.0519,-0.12101 0.14076,-0.20991 0.0889,-0.0889 0.20743,-0.14076 0.12101,-0.0519 0.25683,-0.0519 0.14076,0 0.26176,0.0543 0.12347,0.0543 0.21237,0.14817 l -0.0494,0.0469 q -0.079,-0.084 -0.18768,-0.13088 -0.10618,-0.0469 -0.23706,-0.0469 -0.12101,0 -0.22719,0.0469 -0.10619,0.0444 -0.18768,0.12594 -0.079,0.079 -0.12594,0.18521 -0.0444,0.10619 -0.0444,0.22719 0,0.121 0.0444,0.22719 0.0469,0.10618 0.12594,0.18768 0.0815,0.079 0.18768,0.12594 0.10618,0.0444 0.22719,0.0444 0.13335,0 0.23459,-0.042 0.10125,-0.0444 0.18027,-0.12348 z m 0.79446,0.0988 0.5087,-1.19768 h 0.0766 l -0.53587,1.26436 h -0.11607 l -0.53587,-1.26436 h 0.0766 l 0.5087,1.19768 z"
   id="text3-3-88-6-1-5-7"
   style="font-weight:100;font-size:2.46944px;line-height:0;font-family:'Liber Grotesque Family';-inkscape-font-specification:'Liber Grotesque Family, Thin';letter-spacing:0.0635px;word-spacing:0px;direction:rtl;fill:#e8e0c8;fill-rule:evenodd;stroke:#e8e0c8;stroke-width:0.1"
   aria-label="cv" /><path
   d="m 120.43298,115.72279 q 0,-0.10619 0.0395,-0.20003 0.042,-0.0963 0.11113,-0.16792 0.0716,-0.0716 0.16545,-0.11112 0.0938,-0.042 0.20249,-0.042 0.0864,0 0.16546,0.0272 0.079,0.0272 0.14323,0.0765 0.0716,-0.0247 0.14816,-0.0321 0.0765,-0.007 0.17039,-0.007 h 0.0198 v 0.0642 h -0.30868 q 0.084,0.0716 0.13335,0.17286 0.0494,0.10124 0.0494,0.21978 0,0.10865 -0.042,0.20249 -0.0395,0.0938 -0.11113,0.16546 -0.0716,0.0691 -0.16792,0.11112 -0.0938,0.0395 -0.20003,0.0395 -0.0938,0 -0.19014,-0.0395 -0.0938,-0.0395 -0.15558,-0.10372 -0.2099,0.0815 -0.2099,0.25683 0,0.0938 0.0568,0.14816 0.0568,0.0519 0.16792,0.0519 h 0.54822 q 0.20249,0 0.2988,0.0889 0.0988,0.0889 0.0988,0.22225 0,0.0741 -0.0321,0.13335 -0.0296,0.0617 -0.0864,0.10125 -0.0543,0.042 -0.13088,0.0642 -0.0741,0.0222 -0.16545,0.0222 -0.12841,0 -0.23954,-0.042 -0.10865,-0.0395 -0.18767,-0.11113 -0.079,-0.0716 -0.12101,-0.17039 -0.0395,-0.0988 -0.0321,-0.21484 l 0.0494,-0.0247 q -0.13088,0 -0.21237,-0.0667 -0.0815,-0.0667 -0.0815,-0.19509 0,-0.0938 0.0667,-0.17533 0.0667,-0.0815 0.17286,-0.12347 -0.0617,-0.0691 -0.0988,-0.1531 -0.0346,-0.0864 -0.0346,-0.18768 z m 0.0667,0 q 0,0.0938 0.0346,0.1778 0.037,0.0815 0.0963,0.14323 0.0617,0.0593 0.14322,0.0963 0.084,0.0346 0.1778,0.0346 0.0938,0 0.17534,-0.0346 0.084,-0.037 0.14569,-0.0963 0.0617,-0.0617 0.0963,-0.14323 0.037,-0.084 0.037,-0.1778 0,-0.0938 -0.037,-0.17533 -0.0346,-0.084 -0.0963,-0.1457 -0.0617,-0.0617 -0.14569,-0.0963 -0.0815,-0.037 -0.17534,-0.037 -0.0938,0 -0.1778,0.037 -0.0815,0.0346 -0.14322,0.0963 -0.0593,0.0617 -0.0963,0.1457 -0.0346,0.0815 -0.0346,0.17533 z m 0.65193,1.39523 q 0.15064,0 0.24694,-0.0642 0.0988,-0.0617 0.0988,-0.18768 0,-0.11112 -0.084,-0.1778 -0.0815,-0.0642 -0.24447,-0.0642 h -0.53834 q -0.007,0.10865 0.0272,0.19755 0.037,0.0914 0.10619,0.15558 0.0716,0.0667 0.17039,0.10371 0.0988,0.037 0.21731,0.037 z m 1.63406,-0.94579 q -0.0222,0.0765 -0.0716,0.14569 -0.0469,0.0691 -0.11606,0.12101 -0.0692,0.0519 -0.15805,0.0815 -0.0889,0.0296 -0.19014,0.0296 -0.10372,0 -0.18521,-0.0272 -0.0815,-0.0272 -0.13829,-0.0741 -0.0568,-0.0494 -0.0864,-0.11359 -0.0296,-0.0667 -0.0296,-0.1457 0,-0.0617 0.0247,-0.11853 0.0272,-0.0568 0.0815,-0.0988 0.0568,-0.0444 0.13829,-0.0691 0.084,-0.0272 0.20002,-0.0272 h 0.526 v -0.0741 q 0,-0.084 -0.0247,-0.16792 -0.0247,-0.084 -0.079,-0.15064 -0.0543,-0.0691 -0.13829,-0.11112 -0.0815,-0.042 -0.19509,-0.042 -0.10371,0 -0.19014,0.0346 -0.0864,0.0346 -0.15805,0.0963 l -0.042,-0.0494 q 0.17286,-0.1457 0.39017,-0.1457 0.12842,0 0.22472,0.0469 0.0963,0.0469 0.15805,0.12347 0.0642,0.0741 0.0963,0.17039 0.0321,0.0938 0.0321,0.19262 v 0.73096 h -0.0691 z m -0.90381,0.0173 q 0,0.13088 0.10125,0.21238 0.10124,0.0815 0.2667,0.0815 0.0988,0 0.19508,-0.0346 0.0963,-0.0346 0.17039,-0.10124 0.0741,-0.0692 0.11854,-0.17039 0.0469,-0.10372 0.0469,-0.23954 h -0.526 q -0.19261,0 -0.28398,0.0741 -0.0889,0.0741 -0.0889,0.1778 z m 1.5501,0.34079 v -1.20015 h -0.29139 v -0.0642 h 0.29139 v -0.31609 h 0.0741 v 0.31609 h 0.29139 v 0.0642 h -0.29139 v 1.20015 z m 1.79458,-0.63218 v 0.0395 h -1.1557 q 0,0.12841 0.0494,0.22966 0.0494,0.10125 0.12594,0.17286 0.079,0.0716 0.1778,0.11112 0.0988,0.0371 0.19756,0.0371 0.12594,0 0.21978,-0.0346 0.0963,-0.037 0.17286,-0.0938 l 0.0395,0.0519 q -0.0889,0.0691 -0.19508,0.10619 -0.10619,0.037 -0.23954,0.037 -0.11606,0 -0.22719,-0.042 -0.11112,-0.0444 -0.20002,-0.12841 -0.0864,-0.084 -0.14076,-0.20496 -0.0543,-0.12348 -0.0543,-0.28152 0,-0.13582 0.0444,-0.25435 0.0444,-0.11854 0.12347,-0.20744 0.0815,-0.0889 0.19509,-0.14076 0.11359,-0.0519 0.25188,-0.0519 0.1457,0 0.25929,0.0568 0.1136,0.0543 0.19262,0.1457 0.079,0.0914 0.121,0.2099 0.042,0.11854 0.042,0.24201 z m -0.61489,-0.58773 q -0.11853,0 -0.21731,0.042 -0.0988,0.042 -0.17039,0.11853 -0.0716,0.0766 -0.1136,0.18027 -0.0395,0.10372 -0.0395,0.22472 h 1.08409 q 0,-0.11606 -0.0395,-0.21731 -0.0395,-0.10371 -0.11113,-0.18027 -0.0716,-0.079 -0.17286,-0.12347 -0.0988,-0.0444 -0.21978,-0.0444 z"
   id="text3-3-88-6-1-5-7-4"
   style="font-weight:100;font-size:2.46944px;line-height:0;font-family:'Liber Grotesque Family';-inkscape-font-specification:'Liber Grotesque Family, Thin';letter-spacing:0.0635px;word-spacing:0px;direction:rtl;fill:#e8e0c8;fill-rule:evenodd;stroke:#e8e0c8;stroke-width:0.1"
   aria-label="gate" /><g
   id="g2"
   style="display:inline;fill:#e8e0c8;fill-opacity:1"><path
     d="m 38.345008,3.1124603 v 0.4572 h -1.3208 v 4.2036999 h -0.52705 V 3.5696603 h -1.3208 v -0.4572 z m 1.911348,4.6608999 h -0.52705 V 3.1061103 h 1.94945 q 0.3048,0 0.5715,0.1143 0.2667,0.1143 0.46355,0.3175 0.2032,0.19685 0.3175,0.46355 0.1143,0.2667 0.1143,0.5715 0,0.47625 -0.26035,0.8382 -0.254,0.3556 -0.6731,0.5207 l 0.88265,1.8414999 h -0.5588 l -0.8382,-1.7398999 h -1.44145 z m 1.3716,-2.1907499 q 0.2159,0 0.40005,-0.0762 0.18415,-0.08255 0.3175,-0.22225 0.13335,-0.1397 0.20955,-0.3175 0.0762,-0.18415 0.0762,-0.3937 0,-0.20955 -0.08255,-0.3937 -0.0762,-0.18415 -0.20955,-0.3175 -0.13335,-0.13335 -0.3175,-0.20955 -0.18415,-0.08255 -0.3937,-0.08255 h -1.3716 v 2.01295 z m 6.438897,2.1907499 -0.40005,-0.9905999 h -2.35585 l -0.4064,0.9905999 h -0.55245 l 1.86055,-4.6672499 h 0.5461 l 1.8669,4.6672499 z m -1.58115,-4.0004999 -1.0033,2.5527 h 2.01295 z m 6.915151,-0.66675 h 0.52705 v 4.6354999 l -0.0762,0.0381 -3.38455,-3.5305999 v 3.5242499 h -0.52705 V 3.1378603 l 0.06985,-0.03175 3.3909,3.5306 z m 3.873503,4.7688499 q -0.53975,0 -0.9652,-0.19685 -0.42545,-0.2031999 -0.69215,-0.5143499 l 0.38735,-0.32385 q 0.24765,0.24765 0.5715,0.38735 0.32385,0.1397 0.70485,0.1397 0.4699,0 0.7239,-0.1905 0.26035,-0.19685 0.26035,-0.50165 0,-0.2667 -0.17145,-0.4572 -0.17145,-0.19685 -0.5334,-0.3429 l -0.92075,-0.37465 q -0.55245,-0.2286 -0.8001,-0.53975 -0.24765,-0.3175 -0.24765,-0.7493 0,-0.2667 0.10795,-0.48895 0.1143,-0.22225 0.3175,-0.381 0.2032,-0.1651 0.4826,-0.254 0.28575,-0.0889 0.635,-0.0889 0.381,0 0.6731,0.12065 0.29845,0.12065 0.50165,0.3175 0.2032,0.1905 0.3048,0.4445 0.10795,0.24765 0.10795,0.508 h -0.51435 q 0,-0.1397 -0.0635,-0.2921 -0.0635,-0.15875 -0.19685,-0.2921 -0.127,-0.13335 -0.3302,-0.22225 -0.2032,-0.0889 -0.4826,-0.0889 -0.4572,0 -0.73025,0.2032 -0.2667,0.19685 -0.2667,0.51435 0,0.2667 0.1524,0.45085 0.15875,0.1778 0.51435,0.32385 l 0.9398,0.3937 q 0.5588,0.2413 0.8128,0.5588 0.254,0.31115 0.254,0.7366 0,0.29845 -0.127,0.52705 -0.12065,0.22225 -0.3302,0.37465 -0.20955,0.1460499 -0.48895,0.2222499 -0.2794,0.0762 -0.59055,0.0762 z m 7.016756,-0.1016 V 4.2427603 l -1.68275,1.6637 -1.6891,-1.6637 v 3.5305999 h -0.5207 V 3.1061103 l 0.0635,-0.0254 2.1463,2.11455 2.13995,-2.11455 0.06985,0.0254 v 4.6672499 z m 2.787645,-1.9621499 q 0,0.3302 0.1143,0.6096 0.1143,0.2794 0.31115,0.4826 0.2032,0.2032 0.47625,0.3175 0.2794,0.1143 0.5969,0.1143 0.32385,0 0.5969,-0.1143 0.27305,-0.1143 0.4699,-0.3175 0.2032,-0.2032 0.3175,-0.4826 0.1143,-0.2794 0.1143,-0.6096 v -2.7051 h 0.5334 v 2.7051 q 0,0.4191 -0.15875,0.79375 -0.1524,0.3683 -0.42545,0.6477 -0.27305,0.27305 -0.6477,0.4317999 -0.3683,0.15875 -0.8001,0.15875 -0.4318,0 -0.80645,-0.15875 -0.3683,-0.1587499 -0.64135,-0.4317999 -0.27305,-0.2794 -0.4318,-0.6477 -0.1524,-0.37465 -0.1524,-0.79375 v -2.7051 h 0.5334 z m 8.007347,-2.69875 v 0.4572 h -1.3208 v 4.2036999 h -0.52705 V 3.5696603 h -1.3208 v -0.4572 z m 4.222748,4.6608999 -0.40005,-0.9905999 h -2.35585 l -0.4064,0.9905999 h -0.55245 l 1.86055,-4.6672499 h 0.5461 l 1.8669,4.6672499 z m -1.58115,-4.0004999 -1.0033,2.5527 h 2.01295 z m 5.816604,-0.6604 v 0.4572 h -1.3208 v 4.2036999 h -0.52705 V 3.5696603 h -1.3208 v -0.4572 z m 1.193802,0.4572 v -0.46355 h 2.2606 v 0.46355 h -0.85725 v 3.7465 h 0.85725 v 0.4571999 h -2.2606 V 7.3161603 h 0.85725 v -3.7465 z m 3.467087,1.8669 q 0,-0.4953 0.1905,-0.93345 0.1905,-0.4445 0.51435,-0.76835 0.3302,-0.3302 0.76835,-0.5207 0.43815,-0.1905 0.93345,-0.1905 0.50165,0 0.9398,0.1905 0.43815,0.1905 0.762,0.5207 0.3302,0.32385 0.5207,0.76835 0.1905,0.43815 0.1905,0.93345 0,0.4953 -0.1905,0.9398 -0.1905,0.43815 -0.5207,0.76835 -0.32385,0.32385 -0.762,0.5143499 -0.43815,0.1905 -0.9398,0.1905 -0.4953,0 -0.93345,-0.1905 -0.43815,-0.1904999 -0.76835,-0.5143499 -0.32385,-0.3302 -0.51435,-0.76835 -0.1905,-0.4445 -0.1905,-0.9398 z m 0.5334,0 q 0,0.38735 0.14605,0.73025 0.1524,0.33655 0.4064,0.59055 0.254,0.254 0.59055,0.4064 0.3429,0.14605 0.73025,0.14605 0.38735,0 0.73025,-0.14605 0.3429,-0.1524 0.5969,-0.4064 0.254,-0.254 0.40005,-0.59055 0.14605,-0.3429 0.14605,-0.73025 0,-0.38735 -0.14605,-0.7239 -0.14605,-0.3429 -0.40005,-0.5969 -0.254,-0.254 -0.5969,-0.40005 -0.3429,-0.1524 -0.73025,-0.1524 -0.38735,0 -0.73025,0.1524 -0.33655,0.14605 -0.59055,0.40005 -0.254,0.254 -0.4064,0.5969 -0.14605,0.33655 -0.14605,0.7239 z m 9.270995,-2.33045 h 0.52705 v 4.6354999 l -0.0762,0.0381 -3.38455,-3.5305999 v 3.5242499 h -0.52705 V 3.1378603 l 0.06985,-0.03175 3.3909,3.5306 z"
     id="text9"
     style="font-size:6.35px;font-family:'Liber Grotesque Family';-inkscape-font-specification:'Liber Grotesque Family, Normal';letter-spacing:0.79375px;word-spacing:0.529167px;direction:rtl;display:inline;fill:#e8e0c8;fill-opacity:1;fill-rule:evenodd;stroke:#fdfdfd;stroke-opacity:0"
     aria-label="TRANSMUTATION" /><path
     style="display:inline;opacity:1;fill:#e8e0c8;fill-opacity:1;fill-rule:evenodd;stroke:#e8e0c8;stroke-width:0.304698;stroke-dasharray:none;stroke-opacity:1"
     d="M 36.497158,5.6715103 H 13.750142 v 0 0"
     id="path13" /><path
     style="display:inline;fill:#e8e0c8;fill-opacity:1;fill-rule:evenodd;stroke:#e8e0c8;stroke-width:0.273456;stroke-dasharray:none;stroke-opacity:1"
     d="M 116.37446,4.4344933 H 98.05298 v 0 0"
     id="path13-7" /><path
     style="display:inline;fill:#e8e0c8;fill-opacity:1;fill-rule:evenodd;stroke:#e8e0c8;stroke-width:0.254495;stroke-dasharray:none;stroke-opacity:1"
     d="M 113.86912,3.2324036 H 98.000322 v 0 0"
     id="path13-7-8" /><path
     style="display:inline;fill:#e8e0c8;fill-opacity:1;fill-rule:evenodd;stroke:#e8e0c8;stroke-width:0.302863;stroke-dasharray:none;stroke-opacity:1"
     d="M 120.52692,5.6407939 H 98.05298 v 0 0"
     id="path13-4" /></g></svg>
