<?xml version="1.0" encoding="UTF-8" standalone="no"?>
<svg
   width="193.04mm"
   height="128.5mm"
   viewBox="0 0 193.04 128.5"
   version="1.1"
   id="svg44"
   sodipodi:docname="Transmutation.svg"
   inkscape:version="1.4.3 (0d15f75, 2025-12-25)"
   xml:space="preserve"
   xmlns:inkscape="http://www.inkscape.org/namespaces/inkscape"
   xmlns:sodipodi="http://sodipodi.sourceforge.net/DTD/sodipodi-0.dtd"
   xmlns:xlink="http://www.w3.org/1999/xlink"
   xmlns="http://www.w3.org/2000/svg"
   xmlns:svg="http://www.w3.org/2000/svg"><sodipodi:namedview
   id="namedview1"
   pagecolor="#505050"
   bordercolor="#eeeeee"
   borderopacity="1"
   inkscape:showpageshadow="0"
   inkscape:pageopacity="0"
   inkscape:pagecheckerboard="0"
   inkscape:deskcolor="#505050"
   inkscape:document-units="mm"
   inkscape:zoom="1.0790564"
   inkscape:cx="339.18522"
   inkscape:cy="321.11388"
   inkscape:window-width="1800"
   inkscape:window-height="1101"
   inkscape:window-x="0"
   inkscape:window-y="40"
   inkscape:window-maximized="1"
   inkscape:current-layer="svg44" /><defs
   id="defs44"><inkscape:perspective
   sodipodi:type="inkscape:persp3d"
   inkscape:vp_x="192.204451: 80.816903 : 1"
   inkscape:vp_y="0 : 816.80014 : 0"
   inkscape:vp_z="-63.674698: 80.816903 : 1"
   inkscape:persp3d-origin="64.264872: 63.323766 : 1"
   id="perspective8" />
     
     <!-- Matte texture filter using SVG turbulence -->
     <filter
   id="matteTexture"
   x="0"
   y="0"
   width="100%"
   height="100%">
       <feTurbulence
   baseFrequency="0.9"
   numOctaves="4"
   result="turbulence"
   id="feTurbulence1" />
       <feColorMatrix
   in="turbulence"
   type="saturate"
   values="0"
   id="feColorMatrix1" />
       <feComposite
   in="SourceGraphic"
   in2="turbulence"
   operator="multiply"
   id="feComposite1" />
     </filter>
     
     <linearGradient
   id="linearGradient7"><stop
     style="stop-color:#00ffb4;stop-opacity:1;"
     offset="0"
     id="stop7" /><stop
     style="stop-color:#00ffb4;stop-opacity:0;"
     offset="1"
     id="stop8" /></linearGradient><linearGradient
   xlink:href="#linearGradient7"
   id="linearGradient8"
   x1="20.579564"
   y1="22.443604"
   x2="26.315778"
   y2="22.443604"
   gradientUnits="userSpaceOnUse" /></defs>
     
     <!-- Matte black background -->
     <ellipse
   cx="144.542103"
   cy="17.124439"
   fill="none"
   stroke="#444444"
   stroke-width="0.192771"
   opacity="0"
   id="seq_b_led"
   style="display:none;opacity:1"
   rx="2.4096384"
   ry="2.4096386" /><ellipse
   cx="49.070871"
   cy="17.124439"
   fill="none"
   stroke="#444444"
   stroke-width="0.192771"
   opacity="0"
   id="seq_a_led"
   style="display:none;opacity:1"
   rx="2.4096384"
   ry="2.4096386" /><!-- Panel background --><!-- Module title --><!-- Chord Pack Button Area --><!-- Edit Mode Section --><!-- Edit A/B button placeholders --><circle
   cx="73.033892"
   cy="17.124439"
   r="3"
   fill="none"
   stroke="#444444"
   stroke-width="0.320000"
   opacity="0"
   id="edit_a_btn"
   style="display:none;opacity:1" /><circle
   cx="120.006109"
   cy="17.124439"
   r="3"
   fill="none"
   stroke="#444444"
   stroke-width="0.320000"
   opacity="0"
   id="edit_b_btn"
   style="display:none;opacity:1" /><!-- Top symbol row placeholders (6 symbols) - above matrix with proper spacing --><rect
   x="55.025907"
   y="107.19955"
   width="6.400000"
   height="6"
   fill="none"
   stroke="#444444"
   stroke-width="0.320000"
   id="alchem_1"
   style="display:none" /><rect
   x="40.030257"
   y="111.96204"
   width="6.400000"
   height="6"
   fill="none"
   stroke="#444444"
   stroke-width="0.320000"
   id="rest_btn"
   style="display:none" /><rect
   x="70.021563"
   y="107.19955"
   width="6.400000"
   height="6"
   fill="none"
   stroke="#444444"
   stroke-width="0.320000"
   id="alchem_2"
   style="display:none" /><rect
   x="85.017216"
   y="107.19955"
   width="6.400000"
   height="6"
   fill="none"
   stroke="#444444"
   stroke-width="0.320000"
   id="alchem_3"
   style="display:none" /><rect
   x="100.012871"
   y="107.19955"
   width="6.400000"
   height="6"
   fill="none"
   stroke="#444444"
   stroke-width="0.320000"
   id="alchem_4"
   style="display:none" /><rect
   x="115.008522"
   y="107.19955"
   width="6.400000"
   height="6"
   fill="none"
   stroke="#444444"
   stroke-width="0.320000"
   id="alchem_5"
   style="display:none" /><rect
   x="130.004186"
   y="107.19955"
   width="6.400000"
   height="6"
   fill="none"
   stroke="#444444"
   stroke-width="0.320000"
   id="alchem_6"
   style="display:none" /><rect
   x="144.999835"
   y="111.96204"
   width="6.400000"
   height="6"
   fill="none"
   stroke="#444444"
   stroke-width="0.320000"
   id="tie_btn"
   style="display:none" /><!-- 8x8 Matrix Area - centered with proper spacing from symbols --><rect
   x="37.145"
   y="20.0"
   width="118.75"
   height="100.0"
   fill="none"
   stroke="#555555"
   stroke-width="1.338997"
   id="main_screen"
   style="display:none" /><!-- Bottom symbol row placeholders (6 symbols) - below matrix with proper spacing --><rect
   x="55.025907"
   y="116.21851"
   width="6.400000"
   height="6"
   fill="none"
   stroke="#444444"
   stroke-width="0.320000"
   id="alchem_7"
   style="display:none" /><rect
   x="70.021563"
   y="116.21851"
   width="6.400000"
   height="6"
   fill="none"
   stroke="#444444"
   stroke-width="0.320000"
   id="alchem_8"
   style="display:none" /><rect
   x="85.017223"
   y="116.21851"
   width="6.400000"
   height="6"
   fill="none"
   stroke="#444444"
   stroke-width="0.320000"
   id="alchem_9"
   style="display:none" /><rect
   x="100.012871"
   y="116.21851"
   width="6.400000"
   height="6"
   fill="none"
   stroke="#444444"
   stroke-width="0.320000"
   id="alchem_10"
   style="display:none" /><rect
   x="115.008535"
   y="116.21851"
   width="6.400000"
   height="6"
   fill="none"
   stroke="#444444"
   stroke-width="0.320000"
   id="alchem_11"
   style="display:none" /><rect
   x="130.004186"
   y="116.21851"
   width="6.400000"
   height="6"
   fill="none"
   stroke="#444444"
   stroke-width="0.320000"
   id="alchem_12"
   style="display:none" /><!-- Left Side - Sequence A --><!-- Length A knob --><circle
   cx="24.16724"
   cy="39.865067"
   r="4"
   fill="none"
   stroke="#444444"
   stroke-width="0.320000"
   opacity="0"
   id="seq_a_length"
   style="display:none;opacity:1" /><!-- Rest button --><!-- Control buttons A --><circle
   cx="23.447672"
   cy="67.512939"
   r="2"
   fill="none"
   stroke="#444444"
   stroke-width="0.320000"
   opacity="0"
   id="a_play_btn"
   style="display:none;opacity:1" /><circle
   cx="23.077977"
   cy="75.511139"
   r="2"
   fill="none"
   stroke="#444444"
   stroke-width="0.320000"
   opacity="0"
   id="a_stop_btn"
   style="display:none;opacity:1" /><circle
   cx="23.44767"
   cy="83.509323"
   r="2"
   fill="none"
   stroke="#444444"
   stroke-width="0.320000"
   opacity="0"
   id="a_reset_btn"
   style="display:none;opacity:1" /><!-- I/O A --><circle
   cx="23.44767"
   cy="95.834518"
   r="2.5"
   fill="none"
   stroke="#444444"
   stroke-width="0.320000"
   opacity="0"
   id="a_clk_cv"
   style="display:none;opacity:1" /><circle
   cx="11.094303"
   cy="67.512939"
   r="2.5"
   fill="none"
   stroke="#444444"
   stroke-width="0.320000"
   opacity="0"
   id="a_play_cv"
   style="display:none;opacity:1" /><circle
   cx="24.325092"
   cy="56.886303"
   r="2.5"
   fill="none"
   stroke="#444444"
   stroke-width="0.320000"
   opacity="0"
   id="seq_a_length_cv"
   style="display:none;opacity:1;stroke:#464646;stroke-opacity:1" /><circle
   cx="12.452289"
   cy="66.943748"
   r="2.5"
   fill="none"
   stroke="#444444"
   stroke-width="0.320000"
   opacity="0"
   id="a_play_cv-3"
   style="display:none" /><circle
   cx="11.094303"
   cy="75.511131"
   r="2.5"
   fill="none"
   stroke="#444444"
   stroke-width="0.320000"
   opacity="0"
   id="a_stop_cv"
   style="display:none;opacity:1" /><circle
   cx="181.811551"
   cy="75.511131"
   r="2.5"
   fill="none"
   stroke="#444444"
   stroke-width="0.320000"
   opacity="0"
   id="b_stop_cv"
   style="display:none;opacity:1" /><circle
   cx="23.44767"
   cy="105.7832"
   r="2.5"
   fill="none"
   stroke="#444444"
   stroke-width="0.320000"
   opacity="0"
   id="a_cv_out"
   style="display:none;opacity:1" /><circle
   cx="23.44767"
   cy="115.73187"
   r="2.5"
   fill="none"
   stroke="#444444"
   stroke-width="0.320000"
   opacity="0"
   id="a_gate_out"
   style="display:none;opacity:1" /><!-- Right Side - Sequence B --><!-- Length B knob --><circle
   cx="170.256611"
   cy="39.865067"
   r="4"
   fill="none"
   stroke="#444444"
   stroke-width="0.320000"
   opacity="0"
   id="seq_b_length"
   style="display:none;opacity:1" /><!-- Tie button --><!-- Control buttons B --><circle
   cx="170.119927"
   cy="67.512939"
   r="2"
   fill="none"
   stroke="#444444"
   stroke-width="0.320000"
   opacity="0"
   id="b_play_btn"
   style="display:none;opacity:1" /><circle
   cx="170.256626"
   cy="75.511131"
   r="2"
   fill="none"
   stroke="#444444"
   stroke-width="0.320000"
   opacity="0"
   id="b_stop_btn"
   style="display:none;opacity:1" /><circle
   cx="170.256611"
   cy="83.509323"
   r="2"
   fill="none"
   stroke="#444444"
   stroke-width="0.320000"
   opacity="0"
   id="b_reset_btn"
   style="display:none;opacity:1" /><!-- Mode switch B --><rect
   x="167.316572"
   y="12.721148"
   width="4.266667"
   height="8"
   fill="none"
   stroke="#444444"
   stroke-width="0.320000"
   opacity="0"
   id="mode_switch"
   style="display:none;opacity:1" /><!-- I/O B --><circle
   cx="170.256611"
   cy="95.834518"
   r="2.5"
   fill="none"
   stroke="#444444"
   stroke-width="0.320000"
   opacity="0"
   id="b_clk_cv"
   style="display:none;opacity:1" /><circle
   cx="170.256611"
   cy="105.7832"
   r="2.5"
   fill="none"
   stroke="#444444"
   stroke-width="0.320000"
   opacity="0"
   id="b_cv_out"
   style="display:none;opacity:1" /><circle
   cx="170.256611"
   cy="115.73187"
   r="2.5"
   fill="none"
   stroke="#444444"
   stroke-width="0.320000"
   opacity="0"
   id="b_gate_out"
   style="display:none;opacity:1" /><!-- Clock control (center bottom) --><circle
   cx="23.395434"
   cy="17.124439"
   r="4"
   fill="none"
   stroke="#444444"
   stroke-width="0.320000"
   opacity="0"
   id="main_bpm"
   style="display:none;opacity:1" /><path
   style="font-style:oblique;font-weight:800;font-size:4.93889px;font-family:'Liber Grotesque Family';-inkscape-font-specification:'Liber Grotesque Family, Ultra-Bold Oblique';letter-spacing:0.79375px;word-spacing:0.529167px;direction:rtl;display:inline;fill:#00ffb4;fill-rule:evenodd;stroke:#fdfdfd;stroke-opacity:0"
   d="M 48.784546 18.668977 H 47.646749 L 46.790469 15.038893 h 0.774172 l 0.738981 3.106561 1.771208 -3.106561 h 0.780037 z"
   id="text7"
   aria-label="V" /><path
   d="m 70.506747 15.498839 h 0.9652 l -0.064101 0.37465 h -0.516533 l -0.414734 2.5019 h 0.516533 l -0.064101 0.37465 h -0.9652 z"
   id="text7-1-7"
   style="font-style:oblique;font-weight:800;font-size:3.175px;font-family:'Liber Grotesque Family';-inkscape-font-specification:'Liber Grotesque Family, Ultra-Bold Oblique';letter-spacing:0.0635px;word-spacing:0.529167px;direction:rtl;display:inline;fill:#00ffb4;fill-rule:evenodd;stroke:#fdfdfd;stroke-opacity:0"
   aria-label="]" /><path
   d="m 85.433393 18.750039 h -0.9652 l 0.064101 -0.37465 h 0.520303 l 0.414734 -2.5019 h -0.520303 l 0.064089 -0.37465 h 0.9652 z"
   id="text7-1-9"
   style="font-style:oblique;font-weight:800;font-size:3.175px;font-family:'Liber Grotesque Family';-inkscape-font-specification:'Liber Grotesque Family, Ultra-Bold Oblique';letter-spacing:0.0635px;word-spacing:0.529167px;direction:rtl;display:inline;fill:#b400ff;fill-rule:evenodd;stroke:#fdfdfd;stroke-opacity:0"
   aria-label="[" /><path
   style="font-style:oblique;font-weight:800;font-size:4.93889px;font-family:'Liber Grotesque Family';-inkscape-font-specification:'Liber Grotesque Family, Ultra-Bold Oblique';letter-spacing:0.79375px;word-spacing:0.529167px;direction:rtl;display:inline;fill:#b400ff;fill-rule:evenodd;stroke:#fdfdfd;stroke-opacity:0"
   d="m 105.822225 17.368914 0.087994 -0.528462 h 1.178843 l 0.850416 -0.992716 h -1.994074 l 0.087994 -0.538339 h 2.950059 l 0.076237 0.128411 -1.178855 1.402644 h 0.774179 l -0.087994 0.528462 h -1.131925 l -0.879748 1.032228 h 1.964754 l -0.087994 0.538339 h -2.950059 l -0.070419 -0.128412 1.231639 -1.442155 z"
   id="text8"
   aria-label="Z" /><text
   xml:space="preserve"
   style="font-style:normal;font-variant:normal;font-weight:450;font-stretch:normal;font-size:3.175px;font-family:'Liber Grotesque Family';-inkscape-font-specification:'Liber Grotesque Family,  weight=450';font-variant-ligatures:normal;font-variant-caps:normal;font-variant-numeric:normal;font-variant-east-asian:normal;text-align:start;letter-spacing:0.171979px;word-spacing:0px;writing-mode:lr-tb;direction:rtl;text-anchor:start;display:inline;opacity:1;fill:#fefcff;fill-opacity:1;fill-rule:evenodd;stroke:#fdfdfd;stroke-width:1;stroke-dasharray:none;stroke-opacity:0"
   x="18.017775"
   y="59.150948"
   id="text11"><tspan
     id="tspan11"
     style="font-style:normal;font-variant:normal;font-weight:450;font-stretch:normal;font-size:3.175px;font-family:'Liber Grotesque Family';-inkscape-font-specification:'Liber Grotesque Family,  weight=450';font-variant-ligatures:normal;font-variant-caps:normal;font-variant-numeric:normal;font-variant-east-asian:normal;stroke-width:1"
     x="18.017775"
     y="59.150948" /></text><path
   d="m 24.788511 66.620074 1.978096 0.892866 -1.978096 0.892865 z"
   id="text16"
   style="font-style:oblique;font-weight:bold;font-size:3.88056px;font-family:'Liber Grotesque Family';-inkscape-font-specification:'Liber Grotesque Family, Bold Oblique';letter-spacing:0.171979px;word-spacing:0px;direction:rtl;display:inline;fill:#e8e0c8;fill-opacity:1;fill-rule:evenodd;stroke:#e8e0c8;stroke-width:0.188388;stroke-opacity:1"
   aria-label="►" /><path
   d="m 127.514368 66.141101 3.264865 1.371839 -3.264865 1.371838 z"
   id="text16-8"
   style="font-style:oblique;font-weight:bold;font-size:3.88056px;font-family:'Liber Grotesque Family';-inkscape-font-specification:'Liber Grotesque Family, Bold Oblique';letter-spacing:0.171979px;word-spacing:0px;direction:rtl;display:inline;fill:#e8e0c8;fill-opacity:1;fill-rule:evenodd;stroke:#e8e0c8;stroke-width:0.3;stroke-opacity:1"
   aria-label="►" /><path
   d="m 25.936507 76.516935 h 2.239568 v -1.885952 h -2.239568 z"
   id="text17"
   style="font-style:oblique;font-weight:bold;font-size:3.88056px;font-family:'Liber Grotesque Family';-inkscape-font-specification:'Liber Grotesque Family, Bold Oblique';letter-spacing:0.171979px;word-spacing:0px;direction:rtl;display:inline;fill:#e8e0c8;fill-opacity:1;fill-rule:evenodd;stroke:#e8e0c8;stroke-width:0.3;stroke-opacity:1"
   aria-label="⏹" /><path
   d="m 128.027023 76.454107 h 2.239566 v -1.885952 h -2.239566 z"
   id="text17-6"
   style="font-style:oblique;font-weight:bold;font-size:3.88056px;font-family:'Liber Grotesque Family';-inkscape-font-specification:'Liber Grotesque Family, Bold Oblique';letter-spacing:0.171979px;word-spacing:0px;direction:rtl;display:inline;fill:#e8e0c8;fill-opacity:1;fill-rule:evenodd;stroke:#e8e0c8;stroke-width:0.3;stroke-opacity:1"
   aria-label="⏹" /><path
   d="m 28.178875 82.5664 q 0.30642 0 0.518337 0.180868 0.21478 0.178456 0.21478 0.436493 0 0.258038 -0.211917 0.438906 -0.211917 0.178456 -0.5212 0.178456 h -2.122028 q 0.323602 0.306269 0.463925 0.651123 h -0.206189 q -0.400924 -0.49196 -1.113994 -0.711413 v -0.118166 q 0.71307 -0.219453 1.113994 -0.711413 h 0.206189 q -0.140323 0.347266 -0.463925 0.653535 h 2.122028 q 0.183279 0 0.317875 -0.113344 0.134596 -0.113343 0.134596 -0.267684 0 -0.15434 -0.134596 -0.267684 -0.134596 -0.113343 -0.317875 -0.113343 z"
   id="text20"
   style="font-weight:100;font-size:4.93889px;font-family:'Liber Grotesque Family';-inkscape-font-specification:'Liber Grotesque Family, Thin';letter-spacing:0.171979px;word-spacing:0px;direction:rtl;display:inline;fill:#e8e0c8;fill-opacity:1;fill-rule:evenodd;stroke:#e8e0c8;stroke-width:0.3;stroke-opacity:1"
   aria-label="↩" /><path
   d="m 130.269403 82.5664 q 0.306422 0 0.518344 0.180868 0.214771 0.178456 0.214771 0.436493 0 0.258038 -0.211909 0.438906 -0.211921 0.178456 -0.521218 0.178456 h -2.122015 q 0.323606 0.306269 0.463933 0.651123 h -0.206197 q -0.400936 -0.49196 -1.114006 -0.711413 v -0.118166 q 0.71307 -0.219453 1.114006 -0.711413 h 0.206197 q -0.140327 0.347266 -0.463933 0.653535 h 2.122015 q 0.183291 0 0.317894 -0.113344 0.134579 -0.113343 0.134579 -0.267684 0 -0.15434 -0.134579 -0.267684 -0.134603 -0.113343 -0.317894 -0.113343 z"
   id="text20-3"
   style="font-weight:100;font-size:4.93889px;font-family:'Liber Grotesque Family';-inkscape-font-specification:'Liber Grotesque Family, Thin';letter-spacing:0.171979px;word-spacing:0px;direction:rtl;display:inline;fill:#e8e0c8;fill-opacity:1;fill-rule:evenodd;stroke:#e8e0c8;stroke-width:0.3;stroke-opacity:1"
   aria-label="↩" /><circle
   cx="11.094303"
   cy="83.509323"
   r="2.5"
   fill="none"
   stroke="#444444"
   stroke-width="0.320000"
   opacity="0"
   id="a_reset_cv"
   style="display:none;opacity:1" /><circle
   cx="181.811551"
   cy="67.512939"
   r="2.5"
   fill="none"
   stroke="#444444"
   stroke-width="0.320000"
   opacity="0"
   id="b_play_cv"
   style="display:none;opacity:1;stroke:#848484;stroke-opacity:1" /><circle
   cx="181.811551"
   cy="83.509323"
   r="2.5"
   fill="none"
   stroke="#444444"
   stroke-width="0.320000"
   opacity="0"
   id="b_reset_cv"
   style="display:none;opacity:1" /><ellipse
   cx="23.395434"
   cy="28.471514"
   fill="none"
   stroke="#444444"
   stroke-width="0.192771"
   opacity="0"
   id="clk_mult_select"
   style="display:none;opacity:1;stroke:#ffffff;stroke-opacity:1"
   rx="2.4100001"
   ry="2.4096386" /><g
   id="path26"
   style="opacity:1"><circle
     cx="170.256611"
     cy="56.886303"
     r="2.5"
     fill="none"
     stroke="#444444"
     stroke-width="0.320000"
     opacity="0"
     id="seq_b_length_cv"
     style="display:none;opacity:1;stroke:#464646;stroke-opacity:1" /><path
     style="baseline-shift:baseline;display:inline;overflow:visible;vector-effect:none;fill:#e8e0c8;fill-rule:evenodd;stroke-dasharray:0.563553, 0.563553;enable-background:accumulate;stop-color:#000000;stop-opacity:1"
     d="m 18.899123 25.971514 v -4.697075 0"
     id="path3" /><path
     style="baseline-shift:baseline;display:inline;overflow:visible;vector-effect:none;fill:#e8e0c8;fill-rule:evenodd;stroke-dasharray:0.563553, 0.563553;enable-background:accumulate;stop-color:#000000;stop-opacity:1"
     d="m 18.786622 21.275391 v 0.1875 h 0.224975 v -0.1875 z m 0 0.751953 v 0.5625 h 0.224975 v -0.5625 z m 0 1.126953 v 0.5625 h 0.224975 v -0.5625 z m 0 1.126953 v 0.5625 h 0.224975 v -0.5625 z m 0 1.126953 v 0.5625 h 0.224975 v -0.5625 z"
     id="path4" /></g><g
   id="path26-9"
   style="opacity:1"><path
     style="baseline-shift:baseline;display:inline;overflow:visible;vector-effect:none;fill:#e8e0c8;fill-rule:evenodd;stroke-dasharray:0.644262, 0.644262;stroke-dashoffset:0.0859016;enable-background:accumulate;stop-color:#000000;stop-opacity:1"
     d="m 19.522604 55.269568 v -6.138783 0"
     id="path5" /><path
     style="baseline-shift:baseline;display:inline;overflow:visible;vector-effect:none;fill:#e8e0c8;fill-rule:evenodd;stroke-dasharray:0.644262, 0.644262;stroke-dashoffset:0.0859016;enable-background:accumulate;stop-color:#000000;stop-opacity:1"
     d="m 19.394287 49.556641 v 0.644531 h 0.255127 v -0.644531 z m 0 1.289062 v 0.644531 h 0.255127 v -0.644531 z m 0 1.289063 v 0.644531 h 0.255127 v -0.644531 z m 0 1.287109 v 0.644531 h 0.255127 v -0.644531 z m 0 1.289062 v 0.558594 h 0.255127 v -0.558594 z"
     id="path6" /></g><g
   id="path26-9-8"
   style="opacity:1"><path
     style="baseline-shift:baseline;display:inline;overflow:visible;vector-effect:none;fill:#e8e0c8;fill-rule:evenodd;stroke-dasharray:0.644262, 0.644262;enable-background:accumulate;stop-color:#000000;stop-opacity:1"
     d="m 137.535419 55.39944 v -6.138783 0"
     id="path7" /><path
     style="baseline-shift:baseline;display:inline;overflow:visible;vector-effect:none;fill:#e8e0c8;fill-rule:evenodd;stroke-dasharray:0.644262, 0.644262;enable-background:accumulate;stop-color:#000000;stop-opacity:1"
     d="m 137.409057 49.601562 v 0.644532 h 0.252807 v -0.644532 z m 0 1.28711 v 0.644531 h 0.252807 v -0.644531 z m 0 1.289062 v 0.644532 h 0.252807 v -0.644532 z m 0 1.289063 v 0.644531 h 0.252807 v -0.644531 z m 0 1.289062 v 0.644532 h 0.252807 v -0.644532 z"
     id="path8" /></g><path
   d="m 25.821889 29.194005 h -0.308328 l -0.368653 -0.527757 -0.539575 0.527757 h -0.30833 l 0.727253 -0.719669 -0.485952 -0.725313 h 0.308328 l 0.361951 0.536224 0.546277 -0.536224 h 0.30833 l -0.730606 0.725313 z"
   id="text2"
   style="font-style:oblique;font-size:2.82223px;font-family:'Liber Grotesque Family';-inkscape-font-specification:'Liber Grotesque Family, Oblique';letter-spacing:0.0635px;word-spacing:0px;direction:rtl;fill:#e8e0c8;fill-opacity:1;fill-rule:evenodd;stroke:#fafafa;stroke-width:0.3;stroke-opacity:0"
   aria-label="x" /><path
   d="m 135.844609 26.052438 h -0.087994 v -0.767996 q 0 -0.09631 -0.038119 -0.180269 -0.03515 -0.08643 -0.1026 -0.148167 -0.06745 -0.06421 -0.161286 -0.101247 -0.093813 -0.03704 -0.211138 -0.03704 -0.111388 0 -0.208204 0.03951 -0.093813 0.03951 -0.164219 0.103716 -0.070419 0.06421 -0.111388 0.150636 -0.041087 0.08396 -0.041087 0.172861 v 0.767996 h -0.087994 v -0.767996 q 0 -0.07655 -0.03515 -0.158044 -0.0323 -0.08396 -0.096781 -0.153105 -0.064481 -0.06914 -0.161286 -0.111125 -0.093813 -0.04445 -0.219937 -0.04445 -0.120234 0 -0.219937 0.04445 -0.096781 0.04445 -0.167141 0.121002 -0.06745 0.07408 -0.105569 0.172861 -0.038119 0.09631 -0.038119 0.202494 v 0.693913 h -0.085025 v -1.264353 h 0.085025 v 0.30868 q 0.017575 -0.06174 0.064481 -0.123472 0.046906 -0.06421 0.114356 -0.113595 0.070419 -0.04939 0.158353 -0.07902 0.090963 -0.0321 0.193539 -0.0321 0.105569 0 0.196472 0.02963 0.090963 0.02716 0.161286 0.07655 0.073269 0.04939 0.123168 0.116064 0.052725 0.06668 0.079206 0.143228 0.029331 -0.07655 0.085025 -0.143228 0.055694 -0.06668 0.129022 -0.116064 0.076237 -0.04939 0.167152 -0.07655 0.090844 -0.02963 0.190617 -0.02963 0.131955 0 0.240457 0.04198 0.108537 0.03951 0.187673 0.111125 0.079206 0.07161 0.123168 0.170391 0.043937 0.09631 0.043937 0.212372 z m 0.441964 -0.632177 q 0 -0.13335 0.058662 -0.251883 0.061631 -0.118533 0.164219 -0.204963 0.1026 -0.08643 0.24339 -0.135819 0.140766 -0.05186 0.299119 -0.05186 0.158353 0 0.299107 0.05186 0.140754 0.04939 0.24339 0.135819 0.1026 0.08643 0.161286 0.204963 0.061631 0.118533 0.061631 0.251883 0 0.13335 -0.061631 0.251883 -0.058662 0.118533 -0.161286 0.204964 -0.1026 0.08643 -0.24339 0.138288 -0.140754 0.04939 -0.299107 0.04939 -0.158353 0 -0.299119 -0.04939 -0.140754 -0.05186 -0.24339 -0.138288 -0.1026 -0.08643 -0.164219 -0.204964 -0.058662 -0.118533 -0.058662 -0.251883 z m 0.087994 0 q 0 0.116064 0.052844 0.21978 0.055694 0.103717 0.146621 0.182739 0.093813 0.07655 0.217004 0.123472 0.123156 0.04445 0.260989 0.04445 0.137821 0 0.260989 -0.04445 0.123156 -0.04692 0.214071 -0.123472 0.093813 -0.07902 0.146621 -0.182739 0.055694 -0.103716 0.055694 -0.21978 0 -0.116063 -0.055694 -0.21978 -0.052725 -0.103716 -0.146621 -0.180269 -0.090963 -0.07902 -0.214071 -0.123472 -0.123168 -0.04692 -0.260989 -0.04692 -0.137833 0 -0.260989 0.04692 -0.123168 0.04445 -0.217004 0.123472 -0.090844 0.07655 -0.146621 0.180269 -0.052844 0.103717 -0.052844 0.21978 z m 1.796759 0 q 0 -0.13088 0.058662 -0.246944 0.058662 -0.116063 0.161274 -0.200024 0.105569 -0.08643 0.243402 -0.13582 0.140754 -0.04939 0.304974 -0.04939 0.105569 0 0.202338 0.02716 0.09975 0.02716 0.178885 0.07161 0.082056 0.04445 0.140754 0.101247 0.058662 0.0568 0.087994 0.116064 v -0.948265 h 0.087994 v 1.89653 h -0.087994 v -0.321027 q -0.029331 0.05927 -0.087994 0.116063 -0.055694 0.0568 -0.134888 0.103717 -0.076237 0.04445 -0.175952 0.07408 -0.096781 0.02716 -0.211138 0.02716 -0.164219 0 -0.304974 -0.04939 -0.137833 -0.04939 -0.243402 -0.13335 -0.1026 -0.08643 -0.161274 -0.202494 -0.058662 -0.116063 -0.058662 -0.246944 z m 1.410513 0 q 0 -0.121002 -0.049875 -0.224719 -0.049875 -0.103716 -0.1349 -0.180269 -0.085025 -0.07655 -0.205271 -0.118533 -0.117325 -0.04445 -0.252189 -0.04445 -0.140754 0 -0.266855 0.04445 -0.123168 0.04198 -0.217004 0.118533 -0.090963 0.07655 -0.143687 0.180269 -0.052725 0.103717 -0.052725 0.224719 0 0.121003 0.052725 0.224719 0.052725 0.103717 0.143687 0.180269 0.093813 0.07408 0.217004 0.118533 0.126101 0.04198 0.266855 0.04198 0.134888 0 0.252189 -0.04198 0.120234 -0.04445 0.205271 -0.118533 0.085025 -0.07655 0.1349 -0.180269 0.049875 -0.103716 0.049875 -0.224719 z m 1.987364 0 v 0.03951 h -1.372394 q 0 0.128411 0.058662 0.229658 0.058662 0.101247 0.149554 0.172861 0.093813 0.07161 0.211138 0.111125 0.117325 0.03704 0.234603 0.03704 0.149554 0 0.260989 -0.03457 0.114356 -0.03704 0.205271 -0.09384 l 0.046906 0.05186 q -0.105569 0.06914 -0.231658 0.106186 -0.126101 0.03704 -0.284454 0.03704 -0.137821 0 -0.269788 -0.04198 -0.131955 -0.04445 -0.237524 -0.128411 -0.1026 -0.08396 -0.167152 -0.204964 -0.064481 -0.123472 -0.064481 -0.281516 0 -0.135819 0.052725 -0.254352 0.052725 -0.118533 0.146621 -0.207433 0.096781 -0.0889 0.231669 -0.140758 0.134888 -0.05186 0.299107 -0.05186 0.173019 0 0.307907 0.0568 0.1349 0.05433 0.228736 0.145697 0.093813 0.09137 0.143687 0.209902 0.049875 0.118533 0.049875 0.242005 z m -0.730182 -0.587727 q -0.140754 0 -0.258056 0.04198 -0.117325 0.04198 -0.202338 0.118533 -0.085025 0.07655 -0.134888 0.180269 -0.046906 0.103717 -0.046906 0.224719 h 1.287357 q 0 -0.116063 -0.046906 -0.21731 -0.046906 -0.103717 -0.131967 -0.18027 -0.085025 -0.07902 -0.205271 -0.123472 -0.117325 -0.04445 -0.260989 -0.04445 z"
   id="text3"
   style="font-weight:100;font-size:2.46944px;line-height:0;font-family:'Liber Grotesque Family';-inkscape-font-specification:'Liber Grotesque Family, Thin';letter-spacing:0.0635px;word-spacing:0px;direction:rtl;fill:#e8e0c8;fill-rule:evenodd;stroke:#e8e0c8;stroke-width:0.1"
   aria-label="mode" /><path
   d="m 75.145678 18.013445 h -0.100546 v -0.877714 q 0 -0.110066 -0.043569 -0.206022 -0.040221 -0.09878 -0.117301 -0.169334 -0.077081 -0.07338 -0.184326 -0.115712 -0.107243 -0.04233 -0.241301 -0.04233 -0.127353 0 -0.237949 0.04516 -0.107243 0.04515 -0.187678 0.118533 -0.080429 0.07338 -0.127353 0.172156 -0.046918 0.09596 -0.046918 0.197556 v 0.877714 h -0.100546 v -0.877714 q 0 -0.08749 -0.040221 -0.180622 -0.03686 -0.09596 -0.110592 -0.174979 -0.073732 -0.07902 -0.184327 -0.127 -0.107243 -0.0508 -0.251355 -0.0508 -0.137408 0 -0.251355 0.0508 -0.110592 0.0508 -0.191031 0.138289 -0.077081 0.08467 -0.12065 0.197557 -0.043569 0.110066 -0.043569 0.231422 v 0.793047 h -0.097185 V 16.56847 h 0.097185 v 0.352779 q 0.020104 -0.07056 0.073732 -0.141112 0.053628 -0.07338 0.130705 -0.129822 0.080429 -0.05645 0.180976 -0.09031 0.103894 -0.03669 0.221192 -0.03669 0.12065 0 0.224543 0.03387 0.103894 0.03104 0.184327 0.08749 0.08379 0.05645 0.140759 0.132645 0.060325 0.0762 0.090487 0.16369 0.033511 -0.08749 0.097185 -0.16369 0.063674 -0.0762 0.147463 -0.132645 0.087139 -0.05644 0.19103 -0.08749 0.103894 -0.03387 0.217841 -0.03387 0.150813 0 0.274814 0.04798 0.124002 0.04516 0.21449 0.127001 0.090487 0.08184 0.140759 0.194734 0.050267 0.110067 0.050267 0.242711 z m 0.578119 -1.444982 h 0.100546 v 0.795869 q 0 0.127 0.053628 0.237067 0.053628 0.107245 0.147463 0.18909 0.093836 0.08185 0.221192 0.129822 0.130705 0.04516 0.281517 0.04516 0.147461 0 0.278166 -0.0508 0.134056 -0.0508 0.231247 -0.138289 0.100546 -0.08749 0.157516 -0.206023 0.060325 -0.118534 0.063674 -0.256823 v -0.745069 h 0.100546 v 1.444982 h -0.100546 v -0.423334 q -0.020104 0.07338 -0.08379 0.1524 -0.060325 0.07902 -0.154164 0.146756 -0.093836 0.06491 -0.221192 0.110067 -0.124002 0.04233 -0.271464 0.04233 -0.174273 0 -0.321734 -0.05362 -0.147461 -0.05362 -0.254707 -0.146756 -0.107243 -0.09596 -0.167569 -0.225778 -0.060325 -0.129823 -0.060325 -0.279401 z m 2.441493 1.444982 v -1.371604 h -0.395465 v -0.07338 h 0.395465 v -0.361245 h 0.100546 v 0.361245 h 0.395465 v 0.07338 h -0.395465 v 1.371604 z m 2.113055 -0.409223 q -0.030162 0.08749 -0.097197 0.166511 -0.063674 0.07902 -0.157516 0.13829 -0.093836 0.05927 -0.21449 0.09313 -0.12065 0.03387 -0.258057 0.03387 -0.140759 0 -0.251356 -0.03105 -0.110592 -0.03104 -0.187678 -0.08467 -0.077081 -0.05644 -0.117301 -0.129822 -0.040221 -0.0762 -0.040221 -0.166512 0 -0.07056 0.033511 -0.135467 0.03686 -0.06491 0.110592 -0.112889 0.077081 -0.0508 0.187677 -0.07902 0.113952 -0.03105 0.271464 -0.03105 h 0.713848 v -0.08467 q 0 -0.09596 -0.033511 -0.191911 -0.033511 -0.09596 -0.107243 -0.172157 -0.073732 -0.07902 -0.187677 -0.127 -0.110592 -0.04798 -0.264761 -0.04798 -0.140758 0 -0.258057 0.03951 -0.117301 0.03951 -0.21449 0.110067 l -0.056976 -0.05644 q 0.234598 -0.166512 0.52952 -0.166512 0.174273 0 0.304977 0.05362 0.130705 0.05362 0.21449 0.141111 0.087139 0.08467 0.130705 0.194734 0.043569 0.107245 0.043569 0.220134 v 0.83538 h -0.093836 z m -1.226613 0.01975 q 0 0.149578 0.137408 0.242712 0.137407 0.09313 0.361951 0.09313 0.134056 0 0.26476 -0.03951 0.130705 -0.03951 0.231247 -0.115711 0.100546 -0.07902 0.160867 -0.194734 0.063674 -0.118534 0.063674 -0.273756 h -0.713848 q -0.261409 0 -0.38541 0.08467 -0.120651 0.08467 -0.120651 0.2032 z m 2.09295 0.389468 v -1.371604 h -0.395465 v -0.07338 h 0.395465 v -0.361245 h 0.100546 v 0.361245 h 0.395465 v 0.07338 h -0.395465 v 1.371604 z m 2.424734 -0.722491 v 0.04516 h -1.568455 q 0 0.146756 0.067022 0.262467 0.067022 0.115712 0.17092 0.197556 0.107243 0.08185 0.241301 0.127001 0.134056 0.04233 0.268111 0.04233 0.170922 0 0.298275 -0.03951 0.130705 -0.04233 0.234598 -0.107245 l 0.053628 0.05927 q -0.120651 0.07902 -0.264761 0.121356 -0.14411 0.04233 -0.325085 0.04233 -0.157516 0 -0.308328 -0.04798 -0.150814 -0.0508 -0.271464 -0.146756 -0.117301 -0.09596 -0.19103 -0.234245 -0.073732 -0.141111 -0.073732 -0.321734 0 -0.155223 0.060325 -0.29069 0.060325 -0.135467 0.16757 -0.237067 0.110592 -0.1016 0.26476 -0.160867 0.154164 -0.05927 0.341842 -0.05927 0.197733 0 0.351897 0.06491 0.154165 0.06209 0.261409 0.166512 0.107243 0.104423 0.164219 0.23989 0.056976 0.135467 0.056976 0.276578 z m -0.834499 -0.671691 q -0.160867 0 -0.294923 0.04798 -0.134056 0.04798 -0.231247 0.135467 -0.097185 0.08749 -0.154164 0.206023 -0.053628 0.118534 -0.053628 0.256823 H 83.472225 q 0 -0.132645 -0.053628 -0.248356 -0.053616 -0.118534 -0.150813 -0.206023 -0.097197 -0.09031 -0.234598 -0.141111 -0.134056 -0.0508 -0.298275 -0.0508 z"
   id="text3-3"
   style="font-weight:100;font-size:2.82223px;line-height:0;font-family:'Liber Grotesque Family';-inkscape-font-specification:'Liber Grotesque Family, Thin';letter-spacing:0.0635px;word-spacing:0px;direction:rtl;fill:#e8e0c8;fill-rule:evenodd;stroke:#e8e0c8;stroke-width:0.1"
   aria-label="mutate" /><path
   d="m 17.234331 10.321863 q 0 0.13088 -0.058651 0.246944 -0.058651 0.116064 -0.164218 0.202494 -0.102636 0.08396 -0.243394 0.13335 -0.140758 0.04939 -0.302043 0.04939 -0.114368 0 -0.214069 -0.02716 -0.096769 -0.02963 -0.175948 -0.07408 -0.076237 -0.04692 -0.134893 -0.103717 -0.055718 -0.0568 -0.085037 -0.116064 v 0.321028 h -0.08797 V 9.0575097 h 0.08797 v 0.9482653 q 0.029319 -0.059267 0.08797 -0.1160641 0.058651 -0.056797 0.137826 -0.101247 0.082104 -0.04445 0.17888 -0.071614 0.099703 -0.027164 0.205272 -0.027164 0.161285 0 0.302043 0.049389 0.140758 0.049389 0.243394 0.1358192 0.105569 0.083961 0.164218 0.2000247 0.058651 0.116064 0.058651 0.246944 z m -1.410514 0 q 0 0.121002 0.049851 0.224719 0.049851 0.103716 0.134893 0.180269 0.085037 0.07408 0.202339 0.118533 0.117301 0.04198 0.255125 0.04198 0.140758 0 0.263921 -0.04198 0.126096 -0.04445 0.217003 -0.118533 0.093836 -0.07655 0.146623 -0.180269 0.052784 -0.103717 0.052784 -0.224719 0 -0.121003 -0.052784 -0.224719 -0.052784 -0.1037166 -0.146623 -0.1802692 -0.090903 -0.076553 -0.217003 -0.1185331 -0.123163 -0.04445 -0.263921 -0.04445 -0.137826 0 -0.255125 0.04445 -0.117301 0.04198 -0.202339 0.1185331 -0.085037 0.076553 -0.134893 0.1802692 -0.049851 0.103716 -0.049851 0.224719 z m 3.377358 0 q 0 0.13088 -0.058651 0.246944 -0.058651 0.116064 -0.164218 0.202494 -0.102636 0.08396 -0.243394 0.13335 -0.140758 0.04939 -0.302043 0.04939 -0.105569 0 -0.205272 -0.02716 -0.096769 -0.02716 -0.17888 -0.07161 -0.079183 -0.04445 -0.137826 -0.101247 -0.058651 -0.0568 -0.08797 -0.116064 v 0.948265 h -0.08797 V 9.6896863 h 0.08797 v 0.3210277 q 0.029319 -0.059267 0.085037 -0.1160642 0.058651 -0.056797 0.134893 -0.101247 0.079183 -0.046919 0.175947 -0.074083 0.099703 -0.029633 0.214071 -0.029633 0.161285 0 0.302043 0.049389 0.140758 0.049389 0.243394 0.1358192 0.105569 0.083961 0.164218 0.2000247 0.058651 0.116064 0.058651 0.246944 z m -1.410514 0 q 0 0.121002 0.049851 0.224719 0.049851 0.103716 0.134893 0.180269 0.085037 0.07655 0.202339 0.121003 0.117301 0.04198 0.255125 0.04198 0.140758 0 0.263921 -0.04198 0.126096 -0.04445 0.217003 -0.121003 0.093836 -0.07655 0.146623 -0.180269 0.052784 -0.103717 0.052784 -0.224719 0 -0.121003 -0.052784 -0.22225 -0.052784 -0.1037161 -0.146623 -0.1802688 -0.090903 -0.076553 -0.217003 -0.1185331 -0.123163 -0.04445 -0.263921 -0.04445 -0.137826 0 -0.255125 0.04445 -0.117301 0.04198 -0.202339 0.1185331 -0.085037 0.076553 -0.134893 0.1802688 -0.049851 0.101247 -0.049851 0.22225 z m 4.239498 0.632177 h -0.08797 v -0.767996 q 0 -0.09631 -0.038119 -0.180269 -0.035186 -0.086431 -0.102636 -0.1481668 -0.06745 -0.064205 -0.161285 -0.101247 -0.093836 -0.037042 -0.211138 -0.037042 -0.111435 0 -0.208204 0.039511 -0.093836 0.039511 -0.164218 0.1037165 -0.070383 0.064205 -0.111435 0.1506359 -0.041052 0.08396 -0.041052 0.172861 v 0.767996 h -0.08797 v -0.767996 q 0 -0.07655 -0.035186 -0.158044 -0.032253 -0.083961 -0.096769 -0.1531057 -0.064517 -0.069144 -0.161286 -0.1111248 -0.093836 -0.04445 -0.219935 -0.04445 -0.120231 0 -0.219935 0.04445 -0.096769 0.04445 -0.16715 0.1210026 -0.06745 0.074083 -0.105569 0.1728609 -0.038119 0.09631 -0.038119 0.202494 v 0.693913 h -0.085037 V 9.6896863 h 0.085037 v 0.30868 q 0.017599 -0.061736 0.064517 -0.123472 0.046918 -0.064205 0.114368 -0.1135942 0.070383 -0.049389 0.158352 -0.079022 0.090903 -0.032103 0.193542 -0.032103 0.105569 0 0.196475 0.029633 0.090903 0.027164 0.161285 0.076553 0.073316 0.049389 0.123164 0.1160637 0.052784 0.066675 0.079171 0.1432271 0.029331 -0.076552 0.085037 -0.1432271 0.055718 -0.066675 0.129029 -0.1160637 0.076249 -0.049389 0.16715 -0.076553 0.090903 -0.029633 0.190609 -0.029633 0.131961 0 0.240462 0.04198 0.108502 0.039511 0.187677 0.1111248 0.079183 0.071614 0.123164 0.1703914 0.043985 0.096308 0.043985 0.2123721 z"
   id="text3-3-8"
   style="font-weight:100;font-size:2.46944px;line-height:0;font-family:'Liber Grotesque Family';-inkscape-font-specification:'Liber Grotesque Family, Thin';letter-spacing:0.0635px;word-spacing:0px;direction:rtl;fill:#e8e0c8;fill-rule:evenodd;stroke:#e8e0c8;stroke-width:0.1"
   aria-label="bpm" /><path
   d="m 15.263833 49.149284 v -1.89653 h 0.085037 v 1.89653 z m 2.016692 -0.632176 v 0.03951 h -1.372391 q 0 0.128411 0.058651 0.229658 0.058651 0.101247 0.149556 0.17286 0.093836 0.07161 0.211136 0.111125 0.117301 0.03704 0.234598 0.03704 0.149555 0 0.260989 -0.03457 0.114368 -0.03704 0.205272 -0.09384 l 0.046918 0.05186 q -0.105569 0.06914 -0.231665 0.106186 -0.126096 0.03704 -0.284449 0.03704 -0.137826 0 -0.269786 -0.04198 -0.131961 -0.04445 -0.23753 -0.128411 -0.102636 -0.08396 -0.16715 -0.204963 -0.064517 -0.123472 -0.064517 -0.281516 0 -0.135819 0.052784 -0.254353 0.052784 -0.118533 0.146623 -0.207433 0.096769 -0.0889 0.231665 -0.140758 0.134893 -0.05186 0.299111 -0.05186 0.173015 0 0.307908 0.0568 0.134893 0.05433 0.228732 0.145697 0.093836 0.09137 0.143691 0.209903 0.049851 0.118533 0.049851 0.242005 z m -0.730182 -0.587727 q -0.140758 0 -0.258057 0.04198 -0.117301 0.04198 -0.202339 0.118534 -0.085037 0.07655 -0.134893 0.180269 -0.046918 0.103716 -0.046918 0.224719 h 1.287351 q 0 -0.116064 -0.046918 -0.217311 -0.046918 -0.103716 -0.131961 -0.180269 -0.085037 -0.07902 -0.205272 -0.123472 -0.117301 -0.04445 -0.260989 -0.04445 z m 2.570927 1.219903 h -0.08797 v -0.696382 q 0 -0.111125 -0.046918 -0.204963 -0.046918 -0.09631 -0.129029 -0.167922 -0.082104 -0.07161 -0.196474 -0.111125 -0.111435 -0.04198 -0.243395 -0.04198 -0.129028 0 -0.246327 0.04445 -0.114368 0.04445 -0.202339 0.121003 -0.085037 0.07655 -0.137826 0.180269 -0.049851 0.103717 -0.052784 0.224719 v 0.651932 h -0.085037 v -1.264353 h 0.085037 v 0.370416 q 0.017599 -0.06174 0.070383 -0.13088 0.055718 -0.07161 0.137826 -0.128411 0.082104 -0.05927 0.190609 -0.09631 0.111435 -0.03951 0.240462 -0.03951 0.152488 0 0.281517 0.04692 0.129028 0.04692 0.222866 0.13088 0.093836 0.08149 0.146623 0.195086 0.052784 0.113594 0.052784 0.244475 z m 0.480087 -0.807507 q 0 -0.106185 0.046918 -0.200024 0.049851 -0.09631 0.131961 -0.167922 0.085037 -0.07161 0.196474 -0.111125 0.111435 -0.04198 0.240462 -0.04198 0.102636 0 0.196475 0.02716 0.093836 0.02716 0.170082 0.07655 0.085037 -0.02469 0.175948 -0.0321 0.090903 -0.0074 0.202339 -0.0074 h 0.023465 v 0.06421 h -0.366558 q 0.099703 0.07161 0.158352 0.17286 0.058651 0.101247 0.058651 0.21978 0 0.108656 -0.049851 0.202495 -0.046918 0.09384 -0.131961 0.165452 -0.085037 0.06914 -0.199407 0.111125 -0.111435 0.03951 -0.23753 0.03951 -0.111435 0 -0.2258 -0.03951 -0.111435 -0.03951 -0.184744 -0.103717 -0.24926 0.08149 -0.24926 0.256822 0 0.09384 0.06745 0.148167 0.06745 0.05186 0.199407 0.05186 h 0.651007 q 0.240462 0 0.354827 0.0889 0.117301 0.0889 0.117301 0.222249 0 0.07408 -0.038119 0.13335 -0.035186 0.06174 -0.102636 0.101247 -0.064517 0.04198 -0.155421 0.06421 -0.08797 0.02222 -0.196474 0.02222 -0.152488 0 -0.284449 -0.04198 -0.129028 -0.03951 -0.222866 -0.111125 -0.093836 -0.07161 -0.143691 -0.170391 -0.046918 -0.09878 -0.038119 -0.214842 l 0.058651 -0.02469 q -0.15542 0 -0.252191 -0.06667 -0.096769 -0.06668 -0.096769 -0.195086 0 -0.09384 0.079183 -0.17533 0.079183 -0.08149 0.205272 -0.123472 -0.073316 -0.06914 -0.117301 -0.153105 -0.041052 -0.08643 -0.041052 -0.187678 z m 0.079183 0 q 0 0.09384 0.041052 0.1778 0.043985 0.08149 0.114368 0.143228 0.073316 0.05927 0.170083 0.09631 0.099703 0.03457 0.211136 0.03457 0.111435 0 0.208206 -0.03457 0.099703 -0.03704 0.173015 -0.09631 0.073316 -0.06174 0.114368 -0.143228 0.043985 -0.08396 0.043985 -0.1778 0 -0.09384 -0.043985 -0.17533 -0.041052 -0.08396 -0.114368 -0.145697 -0.073316 -0.06174 -0.173015 -0.09631 -0.096769 -0.03704 -0.208206 -0.03704 -0.111435 0 -0.211136 0.03704 -0.096769 0.03457 -0.170083 0.09631 -0.070383 0.06174 -0.114368 0.145697 -0.041052 0.08149 -0.041052 0.17533 z m 0.774169 1.395234 q 0.17888 0 0.293246 -0.06421 0.117301 -0.06174 0.117301 -0.187678 0 -0.111125 -0.099703 -0.177799 -0.096769 -0.06421 -0.290314 -0.06421 h -0.639276 q -0.008788 0.108655 0.032253 0.197555 0.043985 0.09137 0.126096 0.155575 0.085037 0.06668 0.202339 0.103716 0.117301 0.03704 0.258057 0.03704 z m 1.02552 -0.587727 v -1.200147 h -0.34603 v -0.06421 h 0.34603 v -0.316088 h 0.08797 v 0.316088 h 0.34603 v 0.06421 h -0.34603 v 1.200147 z m 2.301142 0 h -0.08797 v -0.656871 q 0 -0.113594 -0.049851 -0.212372 -0.049851 -0.09878 -0.137825 -0.17286 -0.08797 -0.07408 -0.205272 -0.116064 -0.117301 -0.04198 -0.252192 -0.04198 -0.131961 0 -0.249259 0.05186 -0.117301 0.04939 -0.205272 0.135819 -0.08797 0.08396 -0.140758 0.197555 -0.052784 0.113594 -0.052784 0.239536 v 0.575379 h -0.08797 v -1.89653 h 0.08797 v 1.05939 q 0.035186 -0.09384 0.099703 -0.172861 0.06745 -0.08149 0.15542 -0.138288 0.08797 -0.0568 0.193542 -0.08643 0.108502 -0.0321 0.228733 -0.02963 0.14369 0 0.269786 0.04939 0.129028 0.04692 0.2258 0.13335 0.096769 0.08396 0.152488 0.200024 0.055718 0.116064 0.055718 0.249414 z"
   id="text3-3-88"
   style="font-weight:100;font-size:2.46944px;line-height:0;font-family:'Liber Grotesque Family';-inkscape-font-specification:'Liber Grotesque Family, Thin';letter-spacing:0.0635px;word-spacing:0px;direction:rtl;fill:#e8e0c8;fill-rule:evenodd;stroke:#e8e0c8;stroke-width:0.1"
   aria-label="length" /><path
   d="m 33.54446 109.70905 h -0.08797 v -1.26435 h 0.076249 v 0.28398 q 0.064517 -0.14076 0.205272 -0.21237 0.140758 -0.0716 0.316706 -0.0716 h 0.058651 v 0.0642 h -0.058651 q -0.108502 0 -0.20234 0.0321 -0.090903 0.0296 -0.161285 0.0864 -0.06745 0.0568 -0.108502 0.13582 -0.038119 0.0765 -0.038119 0.17039 z m 2.265955 -0.63218 v 0.0395 h -1.372394 q 0 0.12842 0.058651 0.22966 0.058651 0.10125 0.149556 0.17286 0.093836 0.0716 0.211138 0.11113 0.117301 0.037 0.234598 0.037 0.149555 0 0.260989 -0.0346 0.114368 -0.037 0.205272 -0.0938 l 0.046918 0.0519 q -0.105569 0.0691 -0.231665 0.10619 -0.126096 0.037 -0.284449 0.037 -0.137826 0 -0.269787 -0.042 -0.131961 -0.0445 -0.23753 -0.12841 -0.102636 -0.084 -0.16715 -0.20497 -0.064517 -0.12347 -0.064517 -0.28152 0 -0.13581 0.052784 -0.25435 0.052784 -0.11853 0.146623 -0.20743 0.096769 -0.0889 0.231665 -0.14076 0.134894 -0.0519 0.299112 -0.0519 0.173015 0 0.307908 0.0568 0.134894 0.0543 0.228733 0.1457 0.093836 0.0914 0.143691 0.2099 0.049851 0.11853 0.049851 0.24201 z m -0.730183 -0.58772 q -0.140759 0 -0.258057 0.042 -0.117301 0.042 -0.20234 0.11853 -0.085037 0.0765 -0.134893 0.18027 -0.046918 0.10372 -0.046918 0.22472 h 1.287353 q 0 -0.11607 -0.046918 -0.21731 -0.046918 -0.10372 -0.131961 -0.18027 -0.085037 -0.079 -0.205272 -0.12347 -0.117301 -0.0444 -0.260989 -0.0444 z m 1.148685 0.25188 q 0 0.0765 0.070383 0.14076 0.073316 0.0642 0.24926 0.11359 l 0.366558 0.0988 q 0.225801 0.0617 0.316706 0.1457 0.093836 0.0815 0.093836 0.19262 0 0.0642 -0.035186 0.121 -0.032253 0.0543 -0.102636 0.0963 -0.06745 0.0395 -0.173016 0.0642 -0.105569 0.0247 -0.246327 0.0247 -0.19061 0 -0.369491 -0.0593 -0.175948 -0.0593 -0.278584 -0.14817 l 0.064517 -0.0494 q 0.046918 0.042 0.114368 0.0765 0.070383 0.0346 0.149556 0.0593 0.079183 0.0247 0.161285 0.0395 0.082104 0.0123 0.158353 0.0123 0.246327 0 0.35776 -0.0691 0.111435 -0.0716 0.111435 -0.16792 0 -0.0864 -0.076249 -0.15063 -0.073316 -0.0667 -0.266855 -0.11854 l -0.366558 -0.0988 q -0.184745 -0.0494 -0.287382 -0.13088 -0.099703 -0.0815 -0.099703 -0.19261 0 -0.0642 0.032253 -0.12348 0.035186 -0.0617 0.102636 -0.10865 0.070383 -0.0469 0.175948 -0.0741 0.108502 -0.0296 0.255125 -0.0296 0.161285 0 0.272719 0.042 0.114368 0.042 0.184745 0.10371 0.070383 0.0617 0.102636 0.13088 0.032253 0.0667 0.032253 0.11854 h -0.079183 q -0.020532 -0.1457 -0.161286 -0.2346 -0.140758 -0.0914 -0.351895 -0.0914 -0.126096 0 -0.217003 0.0222 -0.08797 0.0222 -0.146623 0.0593 -0.058651 0.037 -0.08797 0.0864 -0.026386 0.0469 -0.026386 0.0988 z m 1.679465 0.96802 v -1.20015 h -0.346032 v -0.0642 h 0.346032 v -0.31609 h 0.08797 v 0.31609 h 0.34603 v 0.0642 h -0.34603 v 1.20015 z"
   id="text3-3-88-6"
   style="font-weight:100;font-size:2.46944px;line-height:0;font-family:'Liber Grotesque Family';-inkscape-font-specification:'Liber Grotesque Family, Thin';letter-spacing:0.0635px;word-spacing:0px;direction:rtl;fill:#e8e0c8;fill-rule:evenodd;stroke:#e8e0c8;stroke-width:0.1"
   aria-label="rest" /><path
   d="m 9.624642 96.740236 q -0.105569 0.09384 -0.246327 0.143227 -0.140758 0.04692 -0.302043 0.04692 -0.161285 0 -0.304976 -0.05186 -0.140758 -0.05186 -0.246327 -0.140759 -0.105569 -0.0889 -0.16715 -0.207432 -0.061581 -0.121003 -0.061581 -0.256822 0 -0.135819 0.061581 -0.254353 0.061581 -0.121002 0.16715 -0.209902 0.105569 -0.0889 0.246327 -0.140758 0.14369 -0.05186 0.304976 -0.05186 0.16715 0 0.310841 0.05433 0.146623 0.05433 0.252192 0.148167 l -0.058649 0.04692 q -0.093839 -0.08396 -0.222867 -0.13088 -0.126096 -0.04692 -0.281516 -0.04692 -0.14369 0 -0.269786 0.04692 -0.126096 0.04445 -0.222867 0.125941 -0.093839 0.07902 -0.149555 0.185208 -0.052784 0.106186 -0.052784 0.227189 0 0.121002 0.052784 0.227188 0.055716 0.106186 0.149555 0.187678 0.096772 0.07902 0.222867 0.125941 0.126096 0.04445 0.269786 0.04445 0.158353 0 0.278584 -0.04198 0.120231 -0.04445 0.21407 -0.123472 z m 0.441964 0.165452 v -1.89653 h 0.085042 v 1.89653 z m 0.776263 -1.89653 v 1.232251 h 0.504383 l 0.434004 -0.600074 h 0.08797 l -0.451599 0.632177 0.451599 0.632176 h -0.08797 L 11.347252 96.305614 H 10.842869 v 0.600074 h -0.087974 v -1.89653 z"
   id="text3-3-88-6-1"
   style="font-weight:100;font-size:2.46944px;line-height:0;font-family:'Liber Grotesque Family';-inkscape-font-specification:'Liber Grotesque Family, Thin';letter-spacing:0.0635px;word-spacing:0px;direction:rtl;fill:#e8e0c8;fill-rule:evenodd;stroke:#e8e0c8;stroke-width:0.1"
   aria-label="clk" /><path
   d="m 10.221186 106.3859 q -0.105569 0.0938 -0.246327 0.14323 -0.140758 0.0469 -0.302043 0.0469 -0.161285 0 -0.304976 -0.0519 -0.140758 -0.0519 -0.246327 -0.14076 -0.105569 -0.0889 -0.16715 -0.20743 -0.061581 -0.121 -0.061581 -0.25682 0 -0.13582 0.061581 -0.25436 0.061581 -0.121 0.16715 -0.2099 0.105569 -0.0889 0.246327 -0.14076 0.143691 -0.0519 0.304976 -0.0519 0.16715 0 0.310841 0.0543 0.146623 0.0543 0.252192 0.14817 l -0.058649 0.0469 q -0.093839 -0.084 -0.222867 -0.13088 -0.126096 -0.0469 -0.281516 -0.0469 -0.143691 0 -0.269786 0.0469 -0.126096 0.0444 -0.222867 0.12594 -0.093839 0.079 -0.149556 0.18521 -0.052784 0.10618 -0.052784 0.22719 0 0.121 0.052784 0.22719 0.055716 0.10618 0.149556 0.18767 0.096772 0.079 0.222867 0.12594 0.126096 0.0444 0.269786 0.0444 0.158353 0 0.278584 -0.042 0.120231 -0.0444 0.21407 -0.12347 z m 0.943415 0.0988 0.604087 -1.19768 h 0.090903 l -0.636344 1.26435 H 11.085425 L 10.449081 105.287 h 0.090907 l 0.604087 1.19768 z"
   id="text3-3-88-6-1-2"
   style="font-weight:100;font-size:2.46944px;line-height:0;font-family:'Liber Grotesque Family';-inkscape-font-specification:'Liber Grotesque Family, Thin';letter-spacing:0.0635px;word-spacing:0px;direction:rtl;fill:#e8e0c8;fill-rule:evenodd;stroke:#e8e0c8;stroke-width:0.1"
   aria-label="cv" /><path
   d="m 6.179004 115.72253 q 0 -0.10619 0.046919 -0.20002 0.049852 -0.0963 0.131961 -0.16793 0.085042 -0.0716 0.196475 -0.11112 0.111434 -0.042 0.240462 -0.042 0.102636 0 0.196475 0.0272 0.093839 0.0272 0.170083 0.0766 0.085042 -0.0247 0.175948 -0.0321 0.090907 -0.007 0.20234 -0.007 h 0.023459 v 0.0642 h -0.366558 q 0.099704 0.0716 0.158353 0.17286 0.058649 0.10125 0.058649 0.21978 0 0.10866 -0.049851 0.20249 -0.046919 0.0938 -0.131961 0.16546 -0.085042 0.0691 -0.199407 0.11112 -0.111434 0.0395 -0.237529 0.0395 -0.111434 0 -0.225799 -0.0395 -0.111434 -0.0395 -0.184745 -0.10372 -0.249259 0.0815 -0.249259 0.25683 0 0.0938 0.067446 0.14816 0.067446 0.0519 0.199407 0.0519 h 0.651006 q 0.240462 0 0.354828 0.0889 0.117299 0.0889 0.117299 0.22225 0 0.0741 -0.038122 0.13335 -0.035189 0.0617 -0.102636 0.10125 -0.064515 0.042 -0.15542 0.0642 -0.087974 0.0222 -0.196475 0.0222 -0.152488 0 -0.284449 -0.042 -0.129028 -0.0395 -0.222867 -0.11113 -0.093839 -0.0716 -0.14369 -0.17039 -0.046919 -0.0988 -0.038122 -0.21484 l 0.058649 -0.0247 q -0.15542 0 -0.252192 -0.0667 -0.096771 -0.0667 -0.096771 -0.19509 0 -0.0938 0.079177 -0.17533 0.079177 -0.0815 0.205272 -0.12347 -0.073312 -0.0691 -0.117299 -0.1531 -0.041054 -0.0864 -0.041054 -0.18768 z m 0.079177 0 q 0 0.0938 0.041054 0.1778 0.043987 0.0815 0.114366 0.14323 0.073312 0.0593 0.170083 0.0963 0.099704 0.0346 0.211137 0.0346 0.111434 0 0.208205 -0.0346 0.099704 -0.037 0.173015 -0.0963 0.073312 -0.0617 0.114366 -0.14323 0.043987 -0.084 0.043987 -0.1778 0 -0.0938 -0.043987 -0.17533 -0.041054 -0.084 -0.114366 -0.1457 -0.073312 -0.0617 -0.173015 -0.0963 -0.096772 -0.037 -0.208205 -0.037 -0.111434 0 -0.211137 0.037 -0.096772 0.0346 -0.170083 0.0963 -0.07038 0.0617 -0.114366 0.1457 -0.041054 0.0815 -0.041054 0.17533 z m 0.774169 1.39523 q 0.17888 0 0.293246 -0.0642 0.117299 -0.0617 0.117299 -0.18768 0 -0.11112 -0.099704 -0.1778 -0.096771 -0.0642 -0.290314 -0.0642 H 6.4136 q -0.008799 0.10865 0.032257 0.19755 0.043987 0.0914 0.126096 0.15558 0.085042 0.0667 0.20234 0.10371 0.117299 0.037 0.258056 0.037 z m 1.940449 -0.94579 q -0.026392 0.0765 -0.085042 0.1457 -0.055716 0.0691 -0.137826 0.121 -0.082109 0.0519 -0.187677 0.0815 -0.105569 0.0296 -0.225799 0.0296 -0.123163 0 -0.219935 -0.0272 -0.096772 -0.0272 -0.164218 -0.0741 -0.067446 -0.0494 -0.102636 -0.1136 -0.035189 -0.0667 -0.035189 -0.1457 0 -0.0617 0.029324 -0.11853 0.032257 -0.0568 0.096772 -0.0988 0.067446 -0.0444 0.164218 -0.0691 0.099704 -0.0272 0.237529 -0.0272 h 0.624614 v -0.0741 q 0 -0.084 -0.029324 -0.16792 -0.029324 -0.084 -0.093839 -0.15064 -0.064515 -0.0691 -0.164218 -0.11112 -0.096771 -0.042 -0.231664 -0.042 -0.123163 0 -0.225799 0.0346 -0.102636 0.0346 -0.187677 0.0963 l -0.049851 -0.0494 q 0.205272 -0.1457 0.463329 -0.1457 0.152488 0 0.266854 0.0469 0.114366 0.0469 0.187677 0.12347 0.076243 0.0741 0.114366 0.1704 0.038122 0.0938 0.038122 0.19261 v 0.73096 h -0.082109 z m -1.07328 0.0173 q 0 0.13088 0.120231 0.21238 0.120231 0.0815 0.316706 0.0815 0.117299 0 0.231664 -0.0346 0.114366 -0.0346 0.20234 -0.10125 0.087974 -0.0691 0.140758 -0.17039 0.055716 -0.10372 0.055716 -0.23954 H 8.342319 q -0.228732 0 -0.337233 0.0741 -0.105569 0.0741 -0.105569 0.1778 z m 1.840748 0.34079 v -1.20015 h -0.34603 v -0.0642 H 9.740266 v -0.31608 h 0.087974 v 0.31608 h 0.34603 v 0.0642 H 9.828239 v 1.20015 z m 2.131058 -0.63218 v 0.0395 H 10.498932 q 0 0.12841 0.058649 0.22966 0.058649 0.10125 0.149556 0.17286 0.093839 0.0716 0.211137 0.11112 0.117299 0.037 0.234597 0.037 0.149555 0 0.260989 -0.0346 0.114366 -0.037 0.205272 -0.0938 l 0.046919 0.0519 q -0.105569 0.0692 -0.231664 0.10619 -0.126096 0.037 -0.284449 0.037 -0.137826 0 -0.269786 -0.042 -0.131961 -0.0445 -0.237529 -0.12841 -0.102636 -0.084 -0.16715 -0.20496 -0.064515 -0.12348 -0.064515 -0.28152 0 -0.13582 0.052784 -0.25435 0.052784 -0.11854 0.146623 -0.20744 0.096772 -0.0889 0.231664 -0.14075 0.134893 -0.0519 0.299111 -0.0519 0.173015 0 0.307908 0.0568 0.134893 0.0543 0.228732 0.14569 0.093839 0.0914 0.143691 0.20991 0.049851 0.11853 0.049851 0.242 z m -0.730182 -0.58773 q -0.140758 0 -0.258056 0.042 -0.117299 0.042 -0.20234 0.11854 -0.085042 0.0765 -0.134893 0.18027 -0.046919 0.10371 -0.046919 0.22472 H 11.786282 q 0 -0.11607 -0.046919 -0.21732 -0.046919 -0.10371 -0.131961 -0.18026 -0.085042 -0.079 -0.205272 -0.12348 -0.117299 -0.0444 -0.260989 -0.0444 z"
   id="text3-3-88-6-1-2-5"
   style="font-weight:100;font-size:2.46944px;line-height:0;font-family:'Liber Grotesque Family';-inkscape-font-specification:'Liber Grotesque Family, Thin';letter-spacing:0.0635px;word-spacing:0px;direction:rtl;fill:#e8e0c8;fill-rule:evenodd;stroke:#e8e0c8;stroke-width:0.1"
   aria-label="gate" /><path
   d="m 133.276628 49.149284 v -1.89653 h 0.085025 v 1.89653 z m 2.016696 -0.632176 v 0.03951 h -1.372394 q 0 0.128411 0.058662 0.229658 0.058662 0.101247 0.149554 0.17286 0.093813 0.07161 0.211138 0.111125 0.117325 0.03704 0.234603 0.03704 0.149554 0 0.260989 -0.03457 0.114356 -0.03704 0.205271 -0.09384 l 0.046906 0.05186 q -0.105569 0.06914 -0.231669 0.106186 -0.126089 0.03704 -0.284442 0.03704 -0.137833 0 -0.269788 -0.04198 -0.131967 -0.04445 -0.237536 -0.128411 -0.1026 -0.08396 -0.167141 -0.204963 -0.064481 -0.123472 -0.064481 -0.281516 0 -0.135819 0.052725 -0.254353 0.052725 -0.118533 0.146621 -0.207433 0.096781 -0.0889 0.231669 -0.140758 0.134888 -0.05186 0.299107 -0.05186 0.173019 0 0.307907 0.0568 0.134888 0.05433 0.228736 0.145697 0.093813 0.09137 0.143687 0.209903 0.049875 0.118533 0.049875 0.242005 z m -0.730182 -0.587727 q -0.140766 0 -0.258056 0.04198 -0.117325 0.04198 -0.202338 0.118534 -0.085025 0.07655 -0.1349 0.180269 -0.046906 0.103716 -0.046906 0.224719 h 1.287345 q 0 -0.116064 -0.046906 -0.217311 -0.046906 -0.103716 -0.131955 -0.180269 -0.085025 -0.07902 -0.205271 -0.123472 -0.117325 -0.04445 -0.260989 -0.04445 z m 2.570926 1.219903 h -0.087994 v -0.696382 q 0 -0.111125 -0.046906 -0.204963 -0.046906 -0.09631 -0.129022 -0.167922 -0.082056 -0.07161 -0.196472 -0.111125 -0.111388 -0.04198 -0.243402 -0.04198 -0.129022 0 -0.246323 0.04445 -0.114356 0.04445 -0.202338 0.121003 -0.085025 0.07655 -0.137821 0.180269 -0.049875 0.103717 -0.052725 0.224719 v 0.651932 h -0.085025 v -1.264353 h 0.085025 v 0.370416 q 0.017575 -0.06174 0.070419 -0.13088 0.055694 -0.07161 0.137833 -0.128411 0.082056 -0.05927 0.190606 -0.09631 0.111388 -0.03951 0.240457 -0.03951 0.152487 0 0.281521 0.04692 0.129034 0.04692 0.22287 0.13088 0.093813 0.08149 0.146621 0.195086 0.052725 0.113594 0.052725 0.244475 z m 0.480082 -0.807507 q 0 -0.106185 0.046906 -0.200024 0.049875 -0.09631 0.131967 -0.167922 0.085025 -0.07161 0.196472 -0.111125 0.111388 -0.04198 0.240469 -0.04198 0.1026 0 0.196472 0.02716 0.093813 0.02716 0.170086 0.07655 0.085025 -0.02469 0.17594 -0.0321 0.090963 -0.0074 0.202338 -0.0074 h 0.023513 v 0.06421 h -0.366558 q 0.09975 0.07161 0.158353 0.17286 0.058662 0.101247 0.058662 0.21978 0 0.108656 -0.049875 0.202495 -0.046906 0.09384 -0.131967 0.165452 -0.085025 0.06914 -0.199405 0.111125 -0.111388 0.03951 -0.237524 0.03951 -0.111388 0 -0.225803 -0.03951 -0.111388 -0.03951 -0.184751 -0.103717 -0.249256 0.08149 -0.249256 0.256822 0 0.09384 0.06745 0.148167 0.06745 0.05186 0.199405 0.05186 h 0.651011 q 0.240457 0 0.354825 0.0889 0.117325 0.0889 0.117325 0.222249 0 0.07408 -0.038119 0.13335 -0.03515 0.06174 -0.1026 0.101247 -0.064481 0.04198 -0.15542 0.06421 -0.087994 0.02222 -0.196472 0.02222 -0.152487 0 -0.284454 -0.04198 -0.129022 -0.03951 -0.222858 -0.111125 -0.093813 -0.07161 -0.143699 -0.170391 -0.046906 -0.09878 -0.038119 -0.214842 l 0.058662 -0.02469 q -0.15542 0 -0.252189 -0.06667 -0.096781 -0.06668 -0.096781 -0.195086 0 -0.09384 0.079206 -0.17533 0.079206 -0.08149 0.205271 -0.123472 -0.073269 -0.06914 -0.117325 -0.153105 -0.041087 -0.08643 -0.041087 -0.187678 z m 0.079206 0 q 0 0.09384 0.041087 0.1778 0.043937 0.08149 0.114356 0.143228 0.073269 0.05927 0.170086 0.09631 0.09975 0.03457 0.211138 0.03457 0.111388 0 0.208204 -0.03457 0.09975 -0.03704 0.173007 -0.09631 0.073269 -0.06174 0.114356 -0.143228 0.043937 -0.08396 0.043937 -0.1778 0 -0.09384 -0.043937 -0.17533 -0.041087 -0.08396 -0.114356 -0.145697 -0.073269 -0.06174 -0.173007 -0.09631 -0.096781 -0.03704 -0.208204 -0.03704 -0.111388 0 -0.211138 0.03704 -0.096781 0.03457 -0.170086 0.09631 -0.070419 0.06174 -0.114356 0.145697 -0.041087 0.08149 -0.041087 0.17533 z m 0.774167 1.395234 q 0.178885 0 0.293241 -0.06421 0.117325 -0.06174 0.117325 -0.187678 0 -0.111125 -0.09975 -0.177799 -0.096781 -0.06421 -0.290308 -0.06421 h -0.639279 q -0.008313 0.108655 0.0323 0.197555 0.043937 0.09137 0.126101 0.155575 0.085025 0.06668 0.202338 0.103716 0.117325 0.03704 0.258056 0.03704 z m 1.025525 -0.587727 v -1.200147 h -0.346037 v -0.06421 h 0.346037 v -0.316088 h 0.087994 v 0.316088 h 0.346026 v 0.06421 h -0.346026 v 1.200147 z m 2.301137 0 h -0.087994 v -0.656871 q 0 -0.113594 -0.049875 -0.212372 -0.049875 -0.09878 -0.137833 -0.17286 -0.087994 -0.07408 -0.205271 -0.116064 -0.117325 -0.04198 -0.252189 -0.04198 -0.131955 0 -0.249256 0.05186 -0.117325 0.04939 -0.205271 0.135819 -0.087994 0.08396 -0.140766 0.197555 -0.052725 0.113594 -0.052725 0.239536 v 0.575379 h -0.087994 v -1.89653 h 0.087994 v 1.05939 q 0.03515 -0.09384 0.09975 -0.172861 0.06745 -0.08149 0.15542 -0.138288 0.087994 -0.0568 0.193539 -0.08643 0.108537 -0.0321 0.228724 -0.02963 0.143699 0 0.269788 0.04939 0.129034 0.04692 0.225803 0.13335 0.096781 0.08396 0.152487 0.200024 0.055694 0.116064 0.055694 0.249414 z"
   id="text3-3-88-1"
   style="font-weight:100;font-size:2.46944px;line-height:0;font-family:'Liber Grotesque Family';-inkscape-font-specification:'Liber Grotesque Family, Thin';letter-spacing:0.0635px;word-spacing:0px;direction:rtl;fill:#e8e0c8;fill-rule:evenodd;stroke:#e8e0c8;stroke-width:0.1"
   aria-label="length" /><path
   d="m 145.552944 96.678679 q -0.105569 0.09384 -0.246323 0.143227 -0.140766 0.04692 -0.302052 0.04692 -0.161286 0 -0.304974 -0.05186 -0.140754 -0.05186 -0.246323 -0.140758 -0.105569 -0.0889 -0.167152 -0.207433 -0.061631 -0.121002 -0.061631 -0.256821 0 -0.13582 0.061631 -0.254353 0.061631 -0.121002 0.167152 -0.209902 0.105569 -0.0889 0.246323 -0.140758 0.143687 -0.05186 0.304974 -0.05186 0.167152 0 0.31084 0.05433 0.146632 0.05433 0.252201 0.148167 l -0.058662 0.04692 q -0.093813 -0.08396 -0.22287 -0.13088 -0.126101 -0.04692 -0.281521 -0.04692 -0.143687 0 -0.269788 0.04692 -0.126089 0.04445 -0.222858 0.125941 -0.093813 0.07902 -0.149554 0.185208 -0.052725 0.106186 -0.052725 0.227189 0 0.121002 0.052725 0.227188 0.055694 0.106186 0.149554 0.187677 0.096781 0.07902 0.222858 0.125942 0.126101 0.04445 0.269788 0.04445 0.158353 0 0.278587 -0.04198 0.120234 -0.04445 0.214071 -0.123472 z m 0.441964 0.165452 v -1.89653 h 0.085025 v 1.89653 z m 0.776257 -1.89653 v 1.232251 h 0.504391 l 0.434008 -0.600074 h 0.087994 l -0.451606 0.632177 0.451606 0.632176 h -0.087994 l -0.434008 -0.600074 h -0.504391 v 0.600074 h -0.087994 v -1.89653 z"
   id="text3-3-88-6-1-5"
   style="font-weight:100;font-size:2.46944px;line-height:0;font-family:'Liber Grotesque Family';-inkscape-font-specification:'Liber Grotesque Family, Thin';letter-spacing:0.0635px;word-spacing:0px;direction:rtl;fill:#e8e0c8;fill-rule:evenodd;stroke:#e8e0c8;stroke-width:0.1"
   aria-label="clk" /><path
   d="m 145.467491 106.24999 q -0.105569 0.0938 -0.246335 0.14323 -0.140754 0.0469 -0.302041 0.0469 -0.161286 0 -0.304974 -0.0519 -0.140754 -0.0519 -0.246323 -0.14076 -0.105569 -0.0889 -0.167152 -0.20743 -0.061631 -0.121 -0.061631 -0.25682 0 -0.13582 0.061631 -0.25436 0.061631 -0.121 0.167152 -0.2099 0.105569 -0.0889 0.246323 -0.14076 0.143687 -0.0519 0.304974 -0.0519 0.167152 0 0.31084 0.0543 0.146621 0.0543 0.252189 0.14817 l -0.058662 0.0469 q -0.093813 -0.084 -0.22287 -0.13088 -0.126101 -0.0469 -0.281521 -0.0469 -0.143687 0 -0.269788 0.0469 -0.126089 0.0445 -0.222858 0.12594 -0.093813 0.079 -0.149566 0.18521 -0.052725 0.10618 -0.052725 0.22719 0 0.121 0.052725 0.22719 0.055694 0.10618 0.149566 0.18767 0.096781 0.079 0.222858 0.12594 0.126101 0.0444 0.269788 0.0444 0.158353 0 0.278587 -0.042 0.120234 -0.0445 0.214071 -0.12347 z m 0.943409 0.0988 0.604093 -1.19768 h 0.090844 l -0.636346 1.26435 h -0.137821 l -0.636346 -1.26435 h 0.090844 l 0.604093 1.19768 z"
   id="text3-3-88-6-1-5-7"
   style="font-weight:100;font-size:2.46944px;line-height:0;font-family:'Liber Grotesque Family';-inkscape-font-specification:'Liber Grotesque Family, Thin';letter-spacing:0.0635px;word-spacing:0px;direction:rtl;fill:#e8e0c8;fill-rule:evenodd;stroke:#e8e0c8;stroke-width:0.1"
   aria-label="cv" /><path
   d="m 144.662746 115.51226 q 0 -0.10619 0.046906 -0.20003 0.049875 -0.0963 0.131967 -0.16792 0.085025 -0.0716 0.196472 -0.11112 0.111388 -0.042 0.240457 -0.042 0.1026 0 0.196484 0.0272 0.093813 0.0272 0.170074 0.0765 0.085025 -0.0247 0.175952 -0.0321 0.090844 -0.007 0.202338 -0.007 h 0.023513 v 0.0642 h -0.366558 q 0.09975 0.0716 0.158353 0.17286 0.058662 0.10124 0.058662 0.21978 0 0.10865 -0.049875 0.20249 -0.046906 0.0938 -0.131967 0.16545 -0.085025 0.0691 -0.199405 0.11113 -0.111388 0.0395 -0.237536 0.0395 -0.111388 0 -0.225791 -0.0395 -0.111388 -0.0395 -0.184751 -0.10372 -0.249256 0.0815 -0.249256 0.25682 0 0.0938 0.06745 0.14817 0.06745 0.0519 0.199405 0.0519 h 0.650999 q 0.240469 0 0.354837 0.0889 0.117325 0.0889 0.117325 0.22225 0 0.0741 -0.038119 0.13335 -0.03515 0.0617 -0.1026 0.10124 -0.064481 0.042 -0.15542 0.0642 -0.087994 0.0222 -0.196472 0.0222 -0.152487 0 -0.284454 -0.042 -0.129022 -0.0395 -0.222858 -0.11112 -0.093813 -0.0716 -0.143699 -0.17039 -0.046906 -0.0988 -0.038119 -0.21484 l 0.058662 -0.0247 q -0.15542 0 -0.252189 -0.0667 -0.096781 -0.0667 -0.096781 -0.19509 0 -0.0938 0.079206 -0.17533 0.079206 -0.0815 0.205271 -0.12347 -0.073269 -0.0692 -0.117325 -0.15311 -0.041087 -0.0864 -0.041087 -0.18767 z m 0.079206 0 q 0 0.0938 0.041087 0.1778 0.043937 0.0815 0.114356 0.14322 0.073269 0.0593 0.170074 0.0963 0.09975 0.0346 0.211138 0.0346 0.111388 0 0.208204 -0.0346 0.09975 -0.037 0.173019 -0.0963 0.073269 -0.0617 0.114356 -0.14322 0.043937 -0.084 0.043937 -0.1778 0 -0.0938 -0.043937 -0.17533 -0.041087 -0.084 -0.114356 -0.1457 -0.073269 -0.0617 -0.173019 -0.0963 -0.096781 -0.037 -0.208204 -0.037 -0.111388 0 -0.211138 0.037 -0.096781 0.0346 -0.170074 0.0963 -0.070419 0.0617 -0.114356 0.1457 -0.041087 0.0815 -0.041087 0.17533 z m 0.774167 1.39523 q 0.178873 0 0.293241 -0.0642 0.117325 -0.0617 0.117325 -0.18767 0 -0.11113 -0.09975 -0.1778 -0.096781 -0.0642 -0.29032 -0.0642 h -0.639267 q -0.008313 0.10866 0.0323 0.19756 0.043937 0.0914 0.126101 0.15557 0.085025 0.0667 0.202338 0.10372 0.117325 0.037 0.258056 0.037 z m 1.940446 -0.9458 q -0.026363 0.0766 -0.085025 0.1457 -0.055694 0.0691 -0.137833 0.121 -0.082056 0.0519 -0.187673 0.0815 -0.105569 0.0296 -0.225803 0.0296 -0.123156 0 -0.219937 -0.0272 -0.096781 -0.0272 -0.164207 -0.0741 -0.06745 -0.0494 -0.1026 -0.11359 -0.03515 -0.0667 -0.03515 -0.1457 0 -0.0617 0.029331 -0.11853 0.0323 -0.0568 0.096781 -0.0988 0.06745 -0.0445 0.164219 -0.0691 0.09975 -0.0272 0.237524 -0.0272 h 0.624613 v -0.0741 q 0 -0.084 -0.029331 -0.16792 -0.029331 -0.084 -0.093813 -0.15064 -0.064481 -0.0691 -0.164207 -0.11112 -0.096781 -0.042 -0.231669 -0.042 -0.123168 0 -0.225803 0.0346 -0.1026 0.0346 -0.187673 0.0963 l -0.049875 -0.0494 q 0.205271 -0.1457 0.463327 -0.1457 0.152487 0 0.266855 0.0469 0.114356 0.0469 0.187673 0.12347 0.076237 0.0741 0.114356 0.17039 0.038119 0.0938 0.038119 0.19262 v 0.73095 h -0.082056 z m -1.073274 0.0173 q 0 0.13088 0.120222 0.21237 0.120234 0.0815 0.316706 0.0815 0.117325 0 0.231669 -0.0346 0.114356 -0.0346 0.202338 -0.10125 0.087994 -0.0691 0.140754 -0.17039 0.055694 -0.10371 0.055694 -0.23953 H 146.826063 q -0.228736 0 -0.337226 0.0741 -0.105569 0.0741 -0.105569 0.1778 z m 1.840744 0.34078 v -1.20014 h -0.346037 v -0.0642 h 0.346037 v -0.31609 h 0.087994 v 0.31609 h 0.346037 v 0.0642 h -0.346037 v 1.20014 z m 2.131052 -0.63217 v 0.0395 h -1.372382 q 0 0.12841 0.058662 0.22966 0.058662 0.10124 0.149566 0.17286 0.093813 0.0716 0.211138 0.11112 0.117325 0.037 0.234591 0.037 0.149554 0 0.260989 -0.0346 0.114356 -0.037 0.205271 -0.0938 l 0.046906 0.0519 q -0.105569 0.0691 -0.231658 0.10619 -0.126101 0.037 -0.284454 0.037 -0.137821 0 -0.269788 -0.042 -0.131955 -0.0444 -0.237524 -0.12841 -0.1026 -0.084 -0.167152 -0.20497 -0.064481 -0.12347 -0.064481 -0.28151 0 -0.13582 0.052725 -0.25436 0.052725 -0.11853 0.146621 -0.20743 0.096781 -0.0889 0.231669 -0.14076 0.134888 -0.0519 0.299107 -0.0519 0.173019 0 0.307907 0.0568 0.1349 0.0543 0.228736 0.1457 0.093813 0.0914 0.143687 0.2099 0.049875 0.11853 0.049875 0.24201 z m -0.730182 -0.58773 q -0.140754 0 -0.258056 0.042 -0.117325 0.042 -0.202338 0.11853 -0.085025 0.0766 -0.134888 0.18027 -0.046906 0.10372 -0.046906 0.22472 h 1.287345 q 0 -0.11606 -0.046906 -0.21731 -0.046906 -0.10372 -0.131967 -0.18027 -0.085025 -0.079 -0.205271 -0.12347 -0.117325 -0.0444 -0.260989 -0.0444 z"
   id="text3-3-88-6-1-5-7-4"
   style="font-weight:100;font-size:2.46944px;line-height:0;font-family:'Liber Grotesque Family';-inkscape-font-specification:'Liber Grotesque Family, Thin';letter-spacing:0.0635px;word-spacing:0px;direction:rtl;fill:#e8e0c8;fill-rule:evenodd;stroke:#e8e0c8;stroke-width:0.1"
   aria-label="gate" /><path
   style="fill:#00ffb4;fill-opacity:1;fill-rule:evenodd;stroke:#00ffb4;stroke-width:0.1;stroke-opacity:1"
   d="m 62.560191 17.124439 h 7.675087"
   id="path1" /><path
   style="fill:#9e91d2;fill-rule:evenodd;stroke:#b400ff;stroke-width:0.1;stroke-opacity:1"
   d="m 85.704854 17.124439 h 7.675081"
   id="path2" /><path
   d="m 72.900848,4.7641572 c -0.34431,0 -0.626532,-0.2765776 -0.626532,-0.6265328 V 2.4725145 h 0.85231 V 1.9870927 h -0.85231 V 1.337982 h -0.479778 v 2.7996424 c 0,0.6152439 0.491066,1.1119547 1.10631,1.1119547 h 0.519289 V 4.7641572 Z m 3.039528,-2.7770645 c -0.615244,0 -1.10631,0.4967107 -1.10631,1.1119547 v 2.1505317 h 0.479777 V 3.0990474 c 0,-0.3499553 0.282222,-0.6321773 0.626533,-0.6321773 h 0.519289 V 1.9870927 Z m 3.338681,-0.084667 c -0.948266,0 -1.710266,0.7619995 -1.710266,1.7102654 0,0.9426215 0.762,1.7102654 1.710266,1.7102654 0.784577,0 1.230488,-0.5192885 1.230488,-0.5192885 v 0.4402663 h 0.479777 V 3.6126914 c 0,-0.9426215 -0.767644,-1.7102654 -1.710265,-1.7102654 z m 1.241777,1.7102654 c 0,0.6829773 -0.5588,1.2417769 -1.241777,1.2417769 -0.688622,0 -1.247421,-0.5587996 -1.247421,-1.2417769 0,-0.6886217 0.558799,-1.2474213 1.247421,-1.2474213 0.671688,0 1.241777,0.5531552 1.241777,1.2474213 z M 83.88774,1.9080705 c -0.423334,0 -0.795867,0.191911 -1.044222,0.5023552 -0.180622,0.2257776 -0.287866,0.5192885 -0.287866,0.8353771 v 2.0037763 h 0.491066 V 3.2458028 c 0,-0.4684885 0.378177,-0.8410216 0.841022,-0.8410216 0.462844,0 0.841021,0.3725331 0.841021,0.8410216 v 2.0037763 h 0.496711 V 3.2458028 c 0,-0.7394217 -0.598311,-1.3377323 -1.337732,-1.3377323 z m 4.12891,1.4054656 C 87.615894,3.2288695 87.322383,3.1046918 87.322383,2.850692 c 0,-0.016933 0,-0.033867 0,-0.0508 0.04516,-0.2935109 0.3556,-0.4289774 0.688622,-0.4289774 0.3048,0 0.626533,0.1072443 0.807155,0.3160886 l 0.3556,-0.3273775 C 88.964916,2.1338481 88.519005,1.902426 88.027938,1.902426 c -0.01129,0 -0.02258,0 -0.03387,0 -0.767644,0.033867 -1.15711,0.4854219 -1.15711,0.9313327 0,0.3612441 0.253999,0.7224883 0.784577,0.8692438 0.299155,0.084667 0.541866,0.1298221 0.857955,0.2652887 0.2032,0.084667 0.310444,0.2088442 0.310444,0.3668886 0,0.039511 -0.0056,0.073378 -0.01693,0.1128888 -0.09031,0.282222 -0.400756,0.4176885 -0.728133,0.423333 -0.01129,0 -0.02258,0 -0.03387,0 -0.4064,0 -0.841021,-0.1806221 -0.982132,-0.3612442 L 86.65634,4.8093127 c 0.253999,0.3217331 0.897465,0.5136441 1.388532,0.5136441 0.491066,0 1.066799,-0.2483554 1.185332,-0.7450661 0.01693,-0.090311 0.02822,-0.1749777 0.02822,-0.2596443 0,-0.5757329 -0.536221,-0.846666 -1.241776,-1.0047103 z m 6.426189,-1.179688 c -0.191911,-0.141111 -0.428978,-0.2257776 -0.682978,-0.2257776 -0.253999,0 -0.491066,0.084667 -0.682977,0.2257776 -0.09031,0.067733 -0.169333,0.1467554 -0.237066,0.2370665 -0.06773,-0.090311 -0.1524,-0.1693332 -0.242711,-0.2370665 -0.191911,-0.141111 -0.423333,-0.2257776 -0.682978,-0.2257776 -0.253999,0 -0.491066,0.084667 -0.682977,0.2257776 -0.287866,0.2088443 -0.479777,0.5475107 -0.479777,0.9369771 v 2.1787539 h 0.496711 V 3.0482474 c 0.01129,-0.3612442 0.304799,-0.6491106 0.666043,-0.6491106 0.372534,0 0.677333,0.3047998 0.677333,0.6716884 v 2.1787539 h 0.491067 V 3.0538918 c 0.01129,-0.3612441 0.316088,-0.654755 0.677332,-0.654755 0.366889,0 0.671689,0.2991553 0.671689,0.6660439 v 2.1843984 h 0.491066 V 3.0651807 c 0,-0.3781775 -0.191911,-0.7224883 -0.479777,-0.9313326 z m 4.270016,-0.1523999 v 2.0037763 c 0,0.4741329 -0.383822,0.8579549 -0.857955,0.8579549 -0.468488,0 -0.85231,-0.383822 -0.85231,-0.8579549 V 1.9814482 h -0.479778 v 2.0037763 c 0,0.7394216 0.598311,1.3377323 1.332088,1.3377323 0.327378,0 0.626533,-0.1185332 0.857955,-0.3104442 v 0.231422 h 0.479777 V 1.9814482 Z m 3.231445,2.782709 c -0.34431,0 -0.62653,-0.2765776 -0.62653,-0.6265328 V 2.4725145 h 0.85231 V 1.9870927 h -0.85231 V 1.337982 h -0.47978 v 2.7996424 c 0,0.6152439 0.49107,1.1119547 1.10631,1.1119547 h 0.51929 V 4.7641572 Z m 3.36126,-2.8617312 c -0.94827,0 -1.71027,0.7619995 -1.71027,1.7102654 0,0.9426215 0.762,1.7102654 1.71027,1.7102654 0.78457,0 1.23048,-0.5192885 1.23048,-0.5192885 v 0.4402663 h 0.47978 V 3.6126914 c 0,-0.9426215 -0.76764,-1.7102654 -1.71026,-1.7102654 z m 1.24177,1.7102654 c 0,0.6829773 -0.5588,1.2417769 -1.24177,1.2417769 -0.68863,0 -1.24743,-0.5587996 -1.24743,-1.2417769 0,-0.6886217 0.5588,-1.2474213 1.24743,-1.2474213 0.67168,0 1.24177,0.5531552 1.24177,1.2474213 z m 3.14678,1.1514658 c -0.34431,0 -0.62654,-0.2765776 -0.62654,-0.6265328 V 2.4725145 h 0.85231 V 1.9870927 h -0.85231 V 1.337982 h -0.47977 v 2.7996424 c 0,0.6152439 0.49106,1.1119547 1.10631,1.1119547 h 0.51929 V 4.7641572 Z m 2.20415,-3.7253305 c -0.18627,0 -0.33302,0.1523999 -0.33302,0.3386664 0,0.1862665 0.14675,0.333022 0.33302,0.333022 0.18626,0 0.33302,-0.1523999 0.33302,-0.333022 0,-0.1862665 -0.14676,-0.3386664 -0.33302,-0.3386664 z m 0.23142,4.2107524 V 1.9870927 h -0.46849 v 3.2624864 z m 3.24273,-3.3471531 c -0.94827,0 -1.71027,0.7619995 -1.71027,1.7102654 0,0.9426215 0.762,1.7102654 1.71027,1.7102654 0.94262,0 1.71027,-0.7676439 1.71027,-1.7102654 0,-0.9482659 -0.76765,-1.7102654 -1.71027,-1.7102654 z m 0,2.9407534 c -0.67733,0 -1.23049,-0.5531552 -1.23049,-1.230488 0,-0.6773328 0.55316,-1.2304879 1.23049,-1.2304879 0.67733,0 1.23049,0.5531551 1.23049,1.2304879 0,0.6773328 -0.55316,1.230488 -1.23049,1.230488 z m 4.52966,-2.9351089 c -0.42333,0 -0.79586,0.191911 -1.04422,0.5023552 -0.18062,0.2257776 -0.28787,0.5192885 -0.28787,0.8353771 v 2.0037763 h 0.49107 V 3.2458028 c 0,-0.4684885 0.37818,-0.8410216 0.84102,-0.8410216 0.46285,0 0.84102,0.3725331 0.84102,0.8410216 v 2.0037763 h 0.49671 V 3.2458028 c 0,-0.7394217 -0.59831,-1.3377323 -1.33773,-1.3377323 z"
   id="text1"
   style="font-weight:600;font-size:5.64444px;line-height:0;font-family:Neokurat;-inkscape-font-specification:'Neokurat, Semi-Bold';text-align:center;letter-spacing:1.05833px;word-spacing:0.132292px;text-anchor:middle;fill:#eedcbb;fill-opacity:0.890196;fill-rule:evenodd;stroke-width:0.1;stroke-linecap:round;stroke-linejoin:round;paint-order:fill markers stroke"
   aria-label="transmutation" /><path
   style="font-weight:600;font-size:2.82222px;line-height:0;font-family:Neokurat;-inkscape-font-specification:'Neokurat, Semi-Bold';text-align:center;letter-spacing:0.529167px;word-spacing:0.79375px;text-anchor:middle;opacity:0.948225;fill:#eedcbb;fill-opacity:0.890196;fill-rule:evenodd;stroke-width:0.04;stroke-linecap:round;stroke-linejoin:round;stroke-opacity:0.898039;paint-order:fill markers stroke"
   d="m 86.356499,125.02863 c -0.163689,-0.0705 -0.285044,-0.10724 -0.434622,-0.14111 -0.206022,-0.048 -0.400755,-0.127 -0.400755,-0.29351 0,-0.0169 0.0028,-0.0339 0.0056,-0.0508 0.03104,-0.15804 0.220134,-0.26811 0.437445,-0.27093 0.0028,0 0.0028,0 0.0056,0 0.180622,0 0.372533,0.0621 0.510822,0.2032 l 0.174977,-0.16369 c -0.121355,-0.13547 -0.386644,-0.27375 -0.680155,-0.27375 -0.0056,0 -0.01129,0.003 -0.01693,0.003 -0.454377,0.006 -0.660399,0.30197 -0.680155,0.48823 -0.0028,0.0169 -0.0056,0.0367 -0.0056,0.0536 0,0.2286 0.180622,0.42898 0.462844,0.50518 0.183444,0.0508 0.333022,0.079 0.530577,0.16087 0.09596,0.0423 0.194733,0.11571 0.194733,0.24553 0,0.0254 -0.0028,0.0536 -0.01129,0.0819 -0.05644,0.1778 -0.253999,0.254 -0.437444,0.26246 -0.01129,0.003 -0.0254,0.003 -0.03669,0.003 -0.259644,0 -0.533399,-0.11571 -0.62371,-0.22577 l -0.191911,0.15522 c 0.149577,0.19473 0.536222,0.30762 0.82691,0.30762 0.285045,0 0.612422,-0.13547 0.697089,-0.43744 0.01693,-0.0508 0.02258,-0.1016 0.02258,-0.14676 0,-0.2032 -0.124177,-0.37253 -0.349955,-0.46567 z m 2.473677,-0.94826 v 0.76764 h -1.114777 v -0.76764 h -0.239888 v 1.9558 h 0.239888 v -0.94827 h 1.114777 v 0.94827 h 0.239889 v -1.9558 z m 1.948742,-0.0395 -1.018822,1.9953 h 0.268111 l 0.333022,-0.65194 h 0.832555 l 0.333022,0.65194 h 0.270933 z m -0.299156,1.11476 0.299156,-0.58701 0.299155,0.58701 z m 3.385253,-0.9285 c -0.112888,-0.0903 -0.259644,-0.14675 -0.417688,-0.14675 h -0.959555 v 1.9558 h 0.239889 v -0.61807 h 0.719666 c 0.369711,0 0.668866,-0.29915 0.668866,-0.66886 0,-0.21167 -0.09878,-0.39794 -0.251178,-0.52212 z m 0.01129,0.52212 c 0,0.23706 -0.191911,0.42897 -0.428977,0.42897 h -0.719666 v -0.85513 h 0.719666 c 0.237066,0 0.428977,0.19191 0.428977,0.42616 z m 1.231901,1.04704 v -0.6604 h 1.03011 V 124.896 h -1.03011 v -0.57291 h 1.219199 v -0.24271 h -1.459088 v 1.9558 h 1.498599 v -0.23989 z m 1.849967,-1.71591 v 0.24271 h 0.694267 v 1.71308 h 0.239888 v -1.71308 h 0.694266 v -0.24271 z m 2.865963,-0.0395 -1.018821,1.9953 h 0.268111 l 0.333022,-0.65193 H 100.239 l 0.33302,0.65193 h 0.27094 z m -0.299155,1.11477 0.299155,-0.58702 0.299154,0.58702 z m 2.727679,-0.0931 0.97931,-0.98214 h -0.34149 l -0.80998,0.80998 -0.30762,-0.30762 v -0.50236 h -0.24271 v 1.95581 h 0.24271 v -1.11478 l 1.11478,1.11478 h 0.34149 z m 1.92052,0.73378 v -0.66041 h 1.03011 v -0.23989 h -1.03011 v -0.57291 h 1.2192 v -0.24276 h -1.45909 v 1.9558 h 1.4986 v -0.23989 z m 3.70698,0.23989 -0.45155,-0.44874 c 0.23142,-0.14393 0.38382,-0.39793 0.38382,-0.69144 0,-0.44873 -0.36407,-0.81562 -0.81562,-0.81562 h -0.8128 v 1.95862 h 0.23989 v -1.13453 l 1.13171,1.13453 z m -0.30762,-1.14018 c 0,0.20038 -0.11006,0.40922 -0.31891,0.51647 l -0.82973,-0.82974 v -0.25964 h 0.57291 c 0.31609,0 0.57573,0.25682 0.57573,0.57291 z"
   id="text6"
   aria-label="SHPETE" /></svg>
