<?xml version="1.0" encoding="UTF-8" standalone="no"?>
<svg
   width="131.318mm"
   height="128.5mm"
   viewBox="0 0 131.318 128.5"
   version="1.1"
   id="svg44"
   xmlns:xlink="http://www.w3.org/1999/xlink"
   xmlns="http://www.w3.org/2000/svg"
   xmlns:svg="http://www.w3.org/2000/svg">
  <defs
     id="defs44">
    <linearGradient
       id="linearGradient7">
      <stop
         style="stop-color:#00ffb4;stop-opacity:1;"
         offset="0"
         id="stop7" />
      <stop
         style="stop-color:#00ffb4;stop-opacity:0;"
         offset="1"
         id="stop8" />
    </linearGradient>
    <linearGradient
       xlink:href="#linearGradient7"
       id="linearGradient8"
       x1="13.999519"
       y1="22.443604"
       x2="17.901654"
       y2="22.443604"
       gradientUnits="userSpaceOnUse" />
  </defs>
  <rect
     width="131.31799"
     height="128.5"
     x="-0.050000001"
     y="-0.050000001"
     fill="#1a1a1a"
     stroke="#333333"
     stroke-width="0.1"
     id="rect1" />
  <ellipse
     cx="98.721703"
     cy="26.886547"
     fill="none"
     stroke="#444444"
     stroke-width="0.180723"
     opacity="0"
     id="seq_a_length-9-3"
     style="display:inline;opacity:1"
     rx="2.4096384"
     ry="2.4096386" />
  <ellipse
     cx="32.739845"
     cy="28.08626"
     fill="none"
     stroke="#444444"
     stroke-width="0.180723"
     opacity="0"
     id="seq_a_length-9"
     style="display:inline;opacity:1"
     rx="2.4096384"
     ry="2.4096386" />
  <!-- Panel background -->
  <!-- Module title -->
  <!-- Chord Pack Button Area -->
  <rect
     x="48.659"
     y="12"
     width="34"
     height="8"
     fill="none"
     stroke="#444444"
     stroke-width="0.3"
     stroke-dasharray="1, 1"
     opacity="0.5"
     id="rect2"
     style="display:inline;opacity:1" />
  <path
     d="m 57.532776,16.74707 0.28418,0.07178 q -0.08936,0.350097 -0.322266,0.534668 -0.231445,0.183105 -0.566895,0.183105 -0.347168,0 -0.565429,-0.140625 -0.216797,-0.14209 -0.331055,-0.410156 -0.112793,-0.268067 -0.112793,-0.575684 0,-0.335449 0.127441,-0.584472 0.128907,-0.250489 0.364747,-0.379395 0.237304,-0.130371 0.521484,-0.130371 0.322266,0 0.541992,0.164062 0.219727,0.164063 0.306152,0.461426 l -0.279785,0.06592 q -0.07471,-0.234375 -0.216797,-0.341308 -0.142089,-0.106934 -0.357421,-0.106934 -0.247559,0 -0.414551,0.118652 -0.165528,0.118653 -0.23291,0.319336 -0.06738,0.199219 -0.06738,0.411621 0,0.273926 0.0791,0.479004 0.08057,0.203614 0.249024,0.304688 0.168457,0.101074 0.364746,0.101074 0.238769,0 0.404297,-0.137695 0.165527,-0.137696 0.224121,-0.408692 z M 58.175842,17.5 v -2.147461 h 0.28418 v 0.881836 h 1.116211 v -0.881836 h 0.28418 V 17.5 h -0.28418 V 16.487793 H 58.460022 V 17.5 Z m 2.071289,-1.045898 q 0,-0.534668 0.28711,-0.836426 0.287109,-0.303223 0.741211,-0.303223 0.297363,0 0.536132,0.14209 0.23877,0.14209 0.363282,0.396973 0.125976,0.253418 0.125976,0.575683 0,0.32666 -0.131836,0.584473 -0.131836,0.257812 -0.373535,0.391113 -0.241699,0.131836 -0.521484,0.131836 -0.303223,0 -0.541992,-0.146484 -0.23877,-0.146485 -0.361817,-0.399903 -0.123047,-0.253418 -0.123047,-0.536132 z m 0.292969,0.0044 q 0,0.388184 0.208008,0.612305 0.209473,0.222656 0.524414,0.222656 0.320801,0 0.527344,-0.225586 0.208008,-0.225586 0.208008,-0.640137 0,-0.262207 -0.08936,-0.457031 -0.08789,-0.196289 -0.259277,-0.303223 -0.169922,-0.108398 -0.382324,-0.108398 -0.301758,0 -0.52002,0.208008 -0.216793,0.206537 -0.216793,0.6914 z M 62.671448,17.5 v -2.147461 h 0.952148 q 0.28711,0 0.436524,0.05859 0.149414,0.05713 0.238769,0.203613 0.08936,0.146484 0.08936,0.323731 0,0.228515 -0.14795,0.385253 -0.147949,0.156739 -0.457031,0.199219 0.112793,0.0542 0.171387,0.106934 0.124512,0.114258 0.23584,0.285644 L 64.564026,17.5 h -0.357422 l -0.28418,-0.446777 q -0.124511,-0.19336 -0.205078,-0.295899 -0.08057,-0.102539 -0.145019,-0.143554 -0.06299,-0.04102 -0.128907,-0.05713 -0.04834,-0.01025 -0.158203,-0.01025 h -0.32959 V 17.5 Z m 0.284179,-1.199707 h 0.61084 q 0.194825,0 0.304688,-0.03955 0.109863,-0.04102 0.166992,-0.128906 0.05713,-0.08936 0.05713,-0.193359 0,-0.152344 -0.111328,-0.250489 -0.109864,-0.09814 -0.348633,-0.09814 H 62.955627 Z M 64.833557,17.5 v -2.147461 h 0.739746 q 0.250489,0 0.382324,0.03076 0.184571,0.04248 0.314942,0.153808 0.169922,0.143555 0.253418,0.367676 0.08496,0.222656 0.08496,0.509766 0,0.244629 -0.05713,0.433594 -0.05713,0.188964 -0.146485,0.313476 -0.08935,0.123047 -0.196289,0.194824 -0.105468,0.07031 -0.256347,0.106934 Q 65.803284,17.5 65.608459,17.5 Z m 0.28418,-0.253418 h 0.458496 q 0.212402,0 0.332519,-0.03955 0.121582,-0.03955 0.19336,-0.111328 0.101074,-0.101074 0.156738,-0.270996 0.05713,-0.171387 0.05713,-0.414551 0,-0.336914 -0.111328,-0.51709 -0.109863,-0.18164 -0.268067,-0.243164 -0.114257,-0.04395 -0.367675,-0.04395 H 65.117737 Z M 67.833557,17.5 v -2.147461 h 0.810059 q 0.213867,0 0.32666,0.02051 0.158203,0.02637 0.265137,0.101074 0.106933,0.07324 0.171386,0.206543 0.06592,0.133301 0.06592,0.292969 0,0.273926 -0.174316,0.464355 -0.174317,0.188965 -0.629883,0.188965 H 68.117737 V 17.5 Z m 0.28418,-1.126465 h 0.555176 q 0.27539,0 0.391113,-0.102539 0.115723,-0.102539 0.115723,-0.288574 0,-0.134766 -0.06885,-0.229981 -0.06738,-0.09668 -0.178711,-0.127441 -0.07178,-0.01904 -0.265137,-0.01904 H 68.117737 Z M 69.376038,17.5 70.200745,15.352539 h 0.306152 L 71.385803,17.5 h -0.32373 L 70.811584,16.849609 H 69.913635 L 69.677795,17.5 Z m 0.619629,-0.881836 h 0.728027 l -0.224121,-0.594727 q -0.102539,-0.270996 -0.152344,-0.445312 -0.04102,0.206543 -0.115723,0.410156 z m 3.149414,0.128906 0.284179,0.07178 q -0.08935,0.350097 -0.322265,0.534668 -0.231446,0.183105 -0.566895,0.183105 -0.347168,0 -0.56543,-0.140625 -0.216796,-0.14209 -0.331054,-0.410156 -0.112793,-0.268067 -0.112793,-0.575684 0,-0.335449 0.127441,-0.584472 0.128906,-0.250489 0.364746,-0.379395 0.237305,-0.130371 0.521485,-0.130371 0.322265,0 0.541992,0.164062 0.219726,0.164063 0.306152,0.461426 l -0.279785,0.06592 q -0.07471,-0.234375 -0.216797,-0.341308 -0.14209,-0.106934 -0.357422,-0.106934 -0.247558,0 -0.414551,0.118652 -0.165527,0.118653 -0.23291,0.319336 -0.06738,0.199219 -0.06738,0.411621 0,0.273926 0.0791,0.479004 0.08057,0.203614 0.249024,0.304688 0.168457,0.101074 0.364746,0.101074 0.238769,0 0.404296,-0.137695 0.165528,-0.137696 0.224122,-0.408692 z M 73.767639,17.5 v -2.147461 h 0.28418 v 1.064941 l 1.066406,-1.064941 h 0.385254 L 74.6026,16.222656 75.54303,17.5 h -0.375 l -0.764649,-1.086914 -0.351562,0.342773 V 17.5 Z"
     id="text2"
     style="font-size:3px;font-family:Arial, sans-serif;text-anchor:middle;display:inline;fill:#aaaaaa"
     aria-label="CHORD PACK" />
  <!-- Edit Mode Section -->
  <path
     d="m 57.623596,24.62915 v -2.147461 h 1.552735 v 0.253418 h -1.268555 v 0.657715 h 1.187988 v 0.251953 h -1.187988 v 0.730957 h 1.318359 v 0.253418 z m 1.995117,0 v -2.147461 h 0.739746 q 0.250489,0 0.382325,0.03076 0.18457,0.04248 0.314941,0.153809 0.169922,0.143554 0.253418,0.367676 0.08496,0.222656 0.08496,0.509765 0,0.244629 -0.05713,0.433594 -0.05713,0.188965 -0.146484,0.313476 -0.08936,0.123047 -0.196289,0.194825 -0.105469,0.07031 -0.256348,0.106933 -0.149414,0.03662 -0.344238,0.03662 z m 0.28418,-0.253418 h 0.458496 q 0.212403,0 0.33252,-0.03955 0.121582,-0.03955 0.193359,-0.111328 0.101074,-0.101075 0.156738,-0.270997 0.05713,-0.171386 0.05713,-0.41455 0,-0.336914 -0.111328,-0.51709 -0.109863,-0.181641 -0.268066,-0.243164 -0.114258,-0.04395 -0.367676,-0.04395 h -0.451172 z m 1.930664,0.253418 v -2.147461 h 0.28418 v 2.147461 z m 1.331543,0 v -1.894043 h -0.707519 v -0.253418 h 1.702148 v 0.253418 H 63.44928 v 1.894043 z m 2.056641,0 v -2.147461 h 0.427734 l 0.508301,1.520508 q 0.07031,0.212403 0.102539,0.317871 0.03662,-0.117187 0.114258,-0.344238 l 0.51416,-1.494141 h 0.382324 V 24.62915 H 66.997131 V 22.831787 L 66.373108,24.62915 H 66.11676 l -0.621093,-1.828125 v 1.828125 z m 2.421386,-1.045898 q 0,-0.534668 0.28711,-0.836426 0.287109,-0.303222 0.741211,-0.303222 0.297363,0 0.536133,0.142089 0.238769,0.14209 0.363281,0.396973 0.125976,0.253418 0.125976,0.575684 0,0.32666 -0.131836,0.584472 -0.131835,0.257813 -0.373535,0.391114 -0.241699,0.131835 -0.521484,0.131835 -0.303223,0 -0.541992,-0.146484 -0.23877,-0.146484 -0.361817,-0.399902 -0.123047,-0.253418 -0.123047,-0.536133 z m 0.292969,0.0044 q 0,0.388184 0.208008,0.612305 0.209473,0.222656 0.524414,0.222656 0.320801,0 0.527344,-0.225586 0.208008,-0.225585 0.208008,-0.640136 0,-0.262207 -0.08936,-0.457031 -0.08789,-0.19629 -0.259277,-0.303223 -0.169922,-0.108399 -0.382324,-0.108399 -0.301758,0 -0.52002,0.208008 -0.216797,0.206543 -0.216797,0.691406 z m 2.126953,1.041504 v -2.147461 h 0.739746 q 0.250489,0 0.382325,0.03076 0.18457,0.04248 0.314941,0.153809 0.169922,0.143554 0.253418,0.367676 0.08496,0.222656 0.08496,0.509765 0,0.244629 -0.05713,0.433594 -0.05713,0.188965 -0.146484,0.313476 -0.08936,0.123047 -0.196289,0.194825 -0.105469,0.07031 -0.256348,0.106933 -0.149414,0.03662 -0.344238,0.03662 z m 0.28418,-0.253418 h 0.458496 q 0.212402,0 0.33252,-0.03955 0.121582,-0.03955 0.193359,-0.111328 0.101074,-0.101075 0.156738,-0.270997 0.05713,-0.171386 0.05713,-0.41455 0,-0.336914 -0.111328,-0.51709 -0.109863,-0.181641 -0.268066,-0.243164 -0.114258,-0.04395 -0.367676,-0.04395 H 70.34723 Z m 1.888184,0.253418 v -2.147461 h 1.552734 v 0.253418 h -1.268555 v 0.657715 h 1.187989 v 0.251953 h -1.187989 v 0.730957 h 1.31836 v 0.253418 z"
     id="text3"
     style="font-size:3px;font-family:Arial, sans-serif;text-anchor:middle;display:inline;fill:#aaaaaa"
     aria-label="EDIT MODE" />
  <!-- Edit A/B button placeholders -->
  <circle
     cx="56.692692"
     cy="30.109375"
     r="3"
     fill="none"
     stroke="#444444"
     stroke-width="0.3"
     opacity="0"
     id="edit_a_btn"
     style="display:inline;opacity:1" />
  <circle
     cx="74.692688"
     cy="30.109375"
     r="3"
     fill="none"
     stroke="#444444"
     stroke-width="0.3"
     opacity="0"
     id="edit_b_btn"
     style="display:inline;opacity:1" />
  <!-- Top symbol row placeholders (6 symbols) - above matrix with proper spacing -->
  <rect
     x="36.510941"
     y="35.67366"
     width="6"
     height="6"
     fill="none"
     stroke="#444444"
     stroke-width="0.3"
     id="alchem_1"
     style="display:inline" />
  <rect
     x="46.963669"
     y="35.67366"
     width="6"
     height="6"
     fill="none"
     stroke="#444444"
     stroke-width="0.3"
     id="alchem_2"
     style="display:inline" />
  <rect
     x="57.416397"
     y="35.67366"
     width="6"
     height="6"
     fill="none"
     stroke="#444444"
     stroke-width="0.3"
     id="alchem_3"
     style="display:inline" />
  <rect
     x="67.869125"
     y="35.67366"
     width="6"
     height="6"
     fill="none"
     stroke="#444444"
     stroke-width="0.3"
     id="alchem_4"
     style="display:inline" />
  <rect
     x="78.321854"
     y="35.67366"
     width="6"
     height="6"
     fill="none"
     stroke="#444444"
     stroke-width="0.3"
     id="alchem_5"
     style="display:inline" />
  <rect
     x="88.774582"
     y="35.67366"
     width="6"
     height="6"
     fill="none"
     stroke="#444444"
     stroke-width="0.3"
     id="alchem_6"
     style="display:inline" />
  <!-- 8x8 Matrix Area - centered with proper spacing from symbols -->
  <rect
     x="29.89035"
     y="44.700367"
     width="71.680847"
     height="65.427391"
     fill="none"
     stroke="#555555"
     stroke-width="1.09336"
     id="main_screen"
     style="display:inline" />
  <!-- Bottom symbol row placeholders (6 symbols) - below matrix with proper spacing -->
  <rect
     x="36.510941"
     y="117.56416"
     width="6"
     height="6"
     fill="none"
     stroke="#444444"
     stroke-width="0.3"
     id="alchem_7"
     style="display:inline" />
  <rect
     x="46.963669"
     y="117.56416"
     width="6"
     height="6"
     fill="none"
     stroke="#444444"
     stroke-width="0.3"
     id="alchem_8"
     style="display:inline" />
  <rect
     x="57.416397"
     y="117.56416"
     width="6"
     height="6"
     fill="none"
     stroke="#444444"
     stroke-width="0.3"
     id="alchem_9"
     style="display:inline" />
  <rect
     x="67.869125"
     y="117.56416"
     width="6"
     height="6"
     fill="none"
     stroke="#444444"
     stroke-width="0.3"
     id="alchem_10"
     style="display:inline" />
  <rect
     x="78.321854"
     y="117.56416"
     width="6"
     height="6"
     fill="none"
     stroke="#444444"
     stroke-width="0.3"
     id="alchem_11"
     style="display:inline" />
  <rect
     x="88.774582"
     y="117.56416"
     width="6"
     height="6"
     fill="none"
     stroke="#444444"
     stroke-width="0.3"
     id="alchem_12"
     style="display:inline" />
  <!-- Left Side - Sequence A -->
  <!-- Length A knob -->
  <circle
     cx="15.950587"
     cy="37.849998"
     r="4"
     fill="none"
     stroke="#444444"
     stroke-width="0.3"
     opacity="0"
     id="seq_a_length"
     style="display:inline;opacity:1" />
  <!-- Rest button -->
  <circle
     cx="15.950587"
     cy="53.27956"
     r="2.5"
     fill="none"
     stroke="#444444"
     stroke-width="0.3"
     opacity="0"
     id="rest_btn"
     style="display:inline;opacity:1" />
  <!-- Control buttons A -->
  <circle
     cx="15.950587"
     cy="67.512939"
     r="2"
     fill="none"
     stroke="#444444"
     stroke-width="0.3"
     opacity="0"
     id="circle19"
     style="display:inline;opacity:1" />
  <circle
     cx="15.950587"
     cy="75.511131"
     r="2"
     fill="none"
     stroke="#444444"
     stroke-width="0.3"
     opacity="0"
     id="circle20"
     style="display:inline;opacity:1" />
  <circle
     cx="15.950587"
     cy="83.509323"
     r="2"
     fill="none"
     stroke="#444444"
     stroke-width="0.3"
     opacity="0"
     id="circle21"
     style="display:inline;opacity:1" />
  <!-- I/O A -->
  <circle
     cx="19.495214"
     cy="95.834518"
     r="2.5"
     fill="none"
     stroke="#444444"
     stroke-width="0.3"
     opacity="0"
     id="circle23"
     style="display:inline;opacity:1" />
  <circle
     cx="7.5470452"
     cy="67.512939"
     r="2.5"
     fill="none"
     stroke="#444444"
     stroke-width="0.3"
     opacity="0"
     id="circle24-2"
     style="display:inline;opacity:1" />
  <circle
     cx="7.5470452"
     cy="75.511131"
     r="2.5"
     fill="none"
     stroke="#444444"
     stroke-width="0.3"
     opacity="0"
     id="circle24-2-0"
     style="display:inline;opacity:1" />
  <circle
     cx="123.6797"
     cy="75.511131"
     r="2.5"
     fill="none"
     stroke="#444444"
     stroke-width="0.3"
     opacity="0"
     id="circle24-2-0-7"
     style="display:inline;opacity:1" />
  <circle
     cx="19.105484"
     cy="110.91472"
     r="2.5"
     fill="none"
     stroke="#444444"
     stroke-width="0.3"
     opacity="0"
     id="circle25"
     style="display:inline;opacity:1" />
  <circle
     cx="19.105484"
     cy="119.91291"
     r="2.5"
     fill="none"
     stroke="#444444"
     stroke-width="0.3"
     opacity="0"
     id="circle26"
     style="display:inline;opacity:1" />
  <!-- Right Side - Sequence B -->
  <!-- Length B knob -->
  <circle
     cx="115.02555"
     cy="37.849998"
     r="4"
     fill="none"
     stroke="#444444"
     stroke-width="0.3"
     opacity="0"
     id="seq_b_length"
     style="display:inline;opacity:1" />
  <!-- Tie button -->
  <circle
     cx="115.02555"
     cy="53.27956"
     r="2.5"
     fill="none"
     stroke="#444444"
     stroke-width="0.3"
     opacity="0"
     id="tie_btn"
     style="display:inline;opacity:1" />
  <!-- Control buttons B -->
  <circle
     cx="115.02555"
     cy="67.512939"
     r="2"
     fill="none"
     stroke="#444444"
     stroke-width="0.3"
     opacity="0"
     id="circle32"
     style="display:inline;opacity:1" />
  <circle
     cx="115.02555"
     cy="75.511131"
     r="2"
     fill="none"
     stroke="#444444"
     stroke-width="0.3"
     opacity="0"
     id="circle33"
     style="display:inline;opacity:1" />
  <circle
     cx="115.02555"
     cy="83.509323"
     r="2"
     fill="none"
     stroke="#444444"
     stroke-width="0.3"
     opacity="0"
     id="circle34"
     style="display:inline;opacity:1" />
  <!-- Mode switch B -->
  <rect
     x="112.66154"
     y="12.509369"
     width="4"
     height="8"
     fill="none"
     stroke="#444444"
     stroke-width="0.3"
     opacity="0"
     id="mode_switch"
     style="display:inline;opacity:1" />
  <!-- I/O B -->
  <circle
     cx="115.02555"
     cy="95.834518"
     r="2.5"
     fill="none"
     stroke="#444444"
     stroke-width="0.3"
     opacity="0"
     id="circle37"
     style="display:inline;opacity:1" />
  <circle
     cx="115.02555"
     cy="110.91472"
     r="2.5"
     fill="none"
     stroke="#444444"
     stroke-width="0.3"
     opacity="0"
     id="circle39"
     style="display:inline;opacity:1" />
  <circle
     cx="115.02555"
     cy="119.91291"
     r="2.5"
     fill="none"
     stroke="#444444"
     stroke-width="0.3"
     opacity="0"
     id="circle40"
     style="display:inline;opacity:1" />
  <!-- Clock control (center bottom) -->
  <circle
     cx="15.950588"
     cy="18.322521"
     r="4"
     fill="none"
     stroke="#444444"
     stroke-width="0.3"
     opacity="0"
     id="main_bpm"
     style="display:inline;opacity:1" />
  <path
     style="font-style:oblique;font-weight:800;font-size:4.93889px;font-family:'Liber Grotesque Family';-inkscape-font-specification:'Liber Grotesque Family, Ultra-Bold Oblique';letter-spacing:0.79375px;word-spacing:0.529167px;direction:rtl;fill:#00ffb4;fill-rule:evenodd;stroke:#fdfdfd;stroke-opacity:0"
     d="m 15.911072,29.901299 h -0.958145 l -0.721078,-3.630084 h 0.651934 l 0.6223,3.106561 1.491545,-3.106561 H 17.6545 Z"
     id="text7"
     aria-label="V" />
  <path
     d="m 48.459611,31.405832 h -0.624417 l -0.536223,-2.592918 h 0.426861 l 0.465667,2.254251 1.100668,-2.254251 h 0.426861 z"
     id="text7-5"
     style="font-style:oblique;font-weight:bold;font-size:3.52778px;font-family:'Liber Grotesque Family';-inkscape-font-specification:'Liber Grotesque Family, Bold Oblique';letter-spacing:0.79375px;word-spacing:0.529167px;direction:rtl;fill:#00ffb4;fill-rule:evenodd;stroke:#fdfdfd;stroke-opacity:0"
     aria-label="V" />
  <path
     style="font-style:oblique;font-weight:800;font-size:4.93889px;font-family:'Liber Grotesque Family';-inkscape-font-specification:'Liber Grotesque Family, Ultra-Bold Oblique';letter-spacing:0.79375px;word-spacing:0.529167px;direction:rtl;fill:#b400ff;fill-rule:evenodd;stroke:#fdfdfd;stroke-opacity:0"
     d="m 113.83281,28.330732 0.0741,-0.528462 h 0.99271 l 0.71614,-0.992716 h -1.67922 l 0.0741,-0.538339 h 2.48426 l 0.0642,0.128411 -0.99272,1.402644 h 0.65194 l -0.0741,0.528462 h -0.9532 l -0.74084,1.032228 h 1.65453 l -0.0741,0.538339 h -2.48426 l -0.0593,-0.128412 1.03717,-1.442155 z"
     id="text8"
     aria-label="Z" />
  <path
     style="font-style:oblique;font-weight:bold;font-size:3.88056px;font-family:'Liber Grotesque Family';-inkscape-font-specification:'Liber Grotesque Family, Bold Oblique';letter-spacing:0.79375px;word-spacing:0.529167px;direction:rtl;fill:#b400ff;fill-rule:evenodd;stroke:#fdfdfd;stroke-opacity:0"
     d="m 81.789476,30.156293 0.05433,-0.384175 h 0.783872 l 0.620889,-0.830439 h -1.381478 l 0.05433,-0.388055 h 1.9558 l 0.04657,0.100894 -0.814916,1.1176 h 0.539397 l -0.05433,0.384175 h -0.752828 l -0.636411,0.861484 h 1.362075 l -0.05433,0.388055 h -1.9558 l -0.04269,-0.100894 0.842081,-1.148645 z"
     id="text8-5"
     aria-label="Z" />
  <path
     d="m 36.525201,4.2632715 v 0.4572 h -1.3208 v 4.2036999 h -0.52705 V 4.7204715 h -1.3208 v -0.4572 z m 1.911348,4.6608999 h -0.52705 V 4.2569215 h 1.94945 q 0.3048,0 0.5715,0.1143 0.2667,0.1143 0.46355,0.3175 0.2032,0.19685 0.3175,0.46355 0.1143,0.2667 0.1143,0.5715 0,0.47625 -0.26035,0.8382 -0.254,0.3556 -0.6731,0.5207 l 0.88265,1.8414999 h -0.5588 l -0.8382,-1.7398999 h -1.44145 z m 1.3716,-2.1907499 q 0.2159,0 0.40005,-0.0762 0.18415,-0.08255 0.3175,-0.22225 0.13335,-0.1397 0.20955,-0.3175 0.0762,-0.18415 0.0762,-0.3937 0,-0.20955 -0.08255,-0.3937 -0.0762,-0.18415 -0.20955,-0.3175 -0.13335,-0.13335 -0.3175,-0.20955 -0.18415,-0.08255 -0.3937,-0.08255 h -1.3716 v 2.01295 z m 6.438897,2.1907499 -0.40005,-0.9905999 h -2.35585 l -0.4064,0.9905999 h -0.55245 l 1.86055,-4.6672499 h 0.5461 l 1.8669,4.6672499 z m -1.58115,-4.0004999 -1.0033,2.5527 h 2.01295 z m 6.915151,-0.66675 h 0.52705 v 4.6354999 l -0.0762,0.0381 -3.38455,-3.5305999 v 3.5242499 h -0.52705 V 4.2886715 l 0.06985,-0.03175 3.3909,3.5306 z m 3.873503,4.7688499 q -0.53975,0 -0.9652,-0.19685 Q 54.0639,8.6257215 53.7972,8.3145715 l 0.38735,-0.32385 q 0.24765,0.24765 0.5715,0.38735 0.32385,0.1397 0.70485,0.1397 0.4699,0 0.7239,-0.1905 0.26035,-0.19685 0.26035,-0.50165 0,-0.2667 -0.17145,-0.4572 -0.17145,-0.19685 -0.5334,-0.3429 l -0.92075,-0.37465 q -0.55245,-0.2286 -0.8001,-0.53975 -0.24765,-0.3175 -0.24765,-0.7493 0,-0.2667 0.10795,-0.48895 0.1143,-0.22225 0.3175,-0.381 0.2032,-0.1651 0.4826,-0.254 0.28575,-0.0889 0.635,-0.0889 0.381,0 0.6731,0.12065 0.29845,0.12065 0.50165,0.3175 0.2032,0.1905 0.3048,0.4445 0.10795,0.24765 0.10795,0.508 H 56.388 q 0,-0.1397 -0.0635,-0.2921 -0.0635,-0.15875 -0.19685,-0.2921 -0.127,-0.13335 -0.3302,-0.22225 -0.2032,-0.0889 -0.4826,-0.0889 -0.4572,0 -0.73025,0.2032 -0.2667,0.19685 -0.2667,0.51435 0,0.2667 0.1524,0.45085 0.15875,0.1778 0.51435,0.32385 l 0.9398,0.3937 q 0.5588,0.2413 0.8128,0.5588 0.254,0.31115 0.254,0.7366 0,0.29845 -0.127,0.52705 -0.12065,0.22225 -0.3302,0.37465 -0.20955,0.1460499 -0.48895,0.2222499 -0.2794,0.0762 -0.59055,0.0762 z m 7.016756,-0.1016 V 5.3935715 l -1.68275,1.6637 -1.6891,-1.6637 v 3.5305999 h -0.5207 V 4.2569215 l 0.0635,-0.0254 2.1463,2.11455 2.13995,-2.11455 0.06985,0.0254 v 4.6672499 z m 2.787645,-1.9621499 q 0,0.3302 0.1143,0.6096 0.1143,0.2794 0.31115,0.4826 0.2032,0.2032 0.47625,0.3175 0.2794,0.1143 0.5969,0.1143 0.32385,0 0.5969,-0.1143 0.27305,-0.1143 0.4699,-0.3175 0.2032,-0.2032 0.3175,-0.4826 0.1143,-0.2794 0.1143,-0.6096 v -2.7051 h 0.5334 v 2.7051 q 0,0.4191 -0.15875,0.79375 -0.1524,0.3683 -0.42545,0.6477 -0.27305,0.27305 -0.6477,0.4317999 -0.3683,0.15875 -0.8001,0.15875 -0.4318,0 -0.80645,-0.15875 -0.3683,-0.1587499 -0.64135,-0.4317999 -0.27305,-0.2794 -0.4318,-0.6477 -0.1524,-0.37465 -0.1524,-0.79375 v -2.7051 h 0.5334 z m 8.007347,-2.69875 v 0.4572 h -1.3208 v 4.2036999 h -0.52705 V 4.7204715 h -1.3208 v -0.4572 z m 4.222748,4.6608999 -0.40005,-0.9905999 h -2.35585 l -0.4064,0.9905999 h -0.55245 l 1.86055,-4.6672499 h 0.5461 l 1.8669,4.6672499 z m -1.58115,-4.0004999 -1.0033,2.5527 h 2.01295 z m 5.816604,-0.6604 v 0.4572 H 80.4037 V 8.9241714 H 79.87665 V 4.7204715 h -1.3208 v -0.4572 z m 1.193802,0.4572 v -0.46355 h 2.2606 v 0.46355 h -0.85725 v 3.7465 h 0.85725 v 0.4571999 h -2.2606 V 8.4669715 h 0.85725 v -3.7465 z m 3.467087,1.8669 q 0,-0.4953 0.1905,-0.93345 0.1905,-0.4445 0.51435,-0.76835 0.3302,-0.3302 0.76835,-0.5207 0.43815,-0.1905 0.93345,-0.1905 0.50165,0 0.9398,0.1905 0.43815,0.1905 0.762,0.5207 0.3302,0.32385 0.5207,0.76835 0.1905,0.43815 0.1905,0.93345 0,0.4953 -0.1905,0.9398 -0.1905,0.43815 -0.5207,0.76835 -0.32385,0.32385 -0.762,0.5143499 -0.43815,0.1905 -0.9398,0.1905 -0.4953,0 -0.93345,-0.1905 -0.43815,-0.1904999 -0.76835,-0.5143499 -0.32385,-0.3302 -0.51435,-0.76835 -0.1905,-0.4445 -0.1905,-0.9398 z m 0.5334,0 q 0,0.38735 0.14605,0.73025 0.1524,0.33655 0.4064,0.59055 0.254,0.254 0.59055,0.4064 0.3429,0.14605 0.73025,0.14605 0.38735,0 0.73025,-0.14605 0.3429,-0.1524 0.5969,-0.4064 0.254,-0.254 0.40005,-0.59055 0.14605,-0.3429 0.14605,-0.73025 0,-0.38735 -0.14605,-0.7239 -0.14605,-0.3429 -0.40005,-0.5969 -0.254,-0.254 -0.5969,-0.40005 -0.3429,-0.1524 -0.73025,-0.1524 -0.38735,0 -0.73025,0.1524 -0.33655,0.14605 -0.59055,0.40005 -0.254,0.254 -0.4064,0.5969 -0.14605,0.33655 -0.14605,0.7239 z m 9.270995,-2.33045 h 0.52705 v 4.6354999 l -0.0762,0.0381 -3.38455,-3.5305999 v 3.5242499 h -0.52705 V 4.2886715 l 0.06985,-0.03175 3.3909,3.5306 z"
     id="text9"
     style="font-size:6.35px;font-family:'Liber Grotesque Family';-inkscape-font-specification:'Liber Grotesque Family, Normal';letter-spacing:0.79375px;word-spacing:0.529167px;direction:rtl;fill:#fefcff;fill-rule:evenodd;stroke:#fdfdfd;stroke-opacity:0"
     aria-label="TRANSMUTATION" />
  <path
     d="m 21.4048,47.095665 h -0.722489 l 0.03105,-0.217311 h 0.499533 L 21.5572,44.425843 h -0.499533 l 0.03104,-0.220133 H 21.8112 Z m -10.472029,-0.361244 0.3048,-2.167467 h 0.225777 l -0.3048,2.167467 z m 2.297111,-0.714022 q -0.0028,0.01976 -0.0085,0.04516 -0.0056,0.0254 -0.01411,0.04233 H 12.00786 q -0.01411,0.09878 0.01693,0.180623 0.03104,0.08184 0.09313,0.141111 0.06209,0.05927 0.146755,0.09313 0.08749,0.03387 0.183445,0.03387 0.127,0 0.231422,-0.03951 0.104422,-0.04233 0.186266,-0.110067 l 0.138289,0.135467 q -0.121355,0.104422 -0.268111,0.163689 -0.146755,0.05644 -0.318911,0.05644 -0.132644,0 -0.259644,-0.04798 -0.124178,-0.04798 -0.214489,-0.141111 -0.09031,-0.09596 -0.135467,-0.234244 -0.04233,-0.141111 -0.01693,-0.327378 0.02258,-0.155222 0.09031,-0.290689 0.07056,-0.138289 0.1778,-0.239889 0.110067,-0.1016 0.251178,-0.158044 0.141111,-0.05927 0.301977,-0.05927 0.163689,0 0.287867,0.06209 0.127,0.05927 0.206022,0.163689 0.08185,0.1016 0.112889,0.239889 0.03104,0.135466 0.01129,0.290689 z m -0.643467,-0.555978 q -0.110066,0 -0.206022,0.03951 -0.09596,0.03669 -0.169333,0.1016 -0.07056,0.06209 -0.118533,0.146755 -0.04516,0.08184 -0.05927,0.174978 h 0.976489 q 0.01411,-0.08749 -0.01129,-0.169333 -0.02258,-0.08467 -0.07902,-0.149578 -0.05362,-0.06491 -0.138289,-0.104422 -0.08467,-0.03951 -0.194734,-0.03951 z m 2.426933,1.27 h -0.222956 l 0.107245,-0.767645 q 0.01411,-0.104422 -0.0056,-0.194733 -0.01693,-0.09313 -0.07056,-0.160867 -0.05362,-0.06773 -0.138289,-0.107244 -0.08184,-0.03951 -0.191911,-0.03951 -0.1016,0 -0.194734,0.03951 -0.09313,0.03951 -0.169333,0.110067 -0.07338,0.06773 -0.127,0.166511 -0.0508,0.09596 -0.07056,0.211666 l -0.104422,0.742245 h -0.220133 l 0.2032,-1.444978 h 0.220133 l -0.04233,0.293511 q 0.03669,-0.05362 0.09596,-0.110067 0.05927,-0.05927 0.132645,-0.104422 0.0762,-0.04798 0.163689,-0.0762 0.09031,-0.03104 0.186266,-0.03104 0.143934,0 0.256823,0.05362 0.112888,0.0508 0.186266,0.146756 0.07338,0.09596 0.1016,0.2286 0.03104,0.132644 0.0085,0.293511 z m 0.696913,-0.934156 q 0.01693,-0.121355 0.0762,-0.225778 0.05927,-0.107244 0.149578,-0.186266 0.09031,-0.07902 0.2032,-0.124178 0.112889,-0.04798 0.234245,-0.04798 0.110066,0 0.2032,0.04233 0.09596,0.03951 0.160866,0.110066 0.08749,-0.04233 0.174978,-0.05927 0.09031,-0.01976 0.191911,-0.01976 h 0.02258 l -0.02822,0.197556 h -0.301978 q 0.04798,0.05927 0.06773,0.141111 0.02258,0.08184 0.01129,0.172155 -0.01975,0.121356 -0.08184,0.2286 -0.05927,0.104422 -0.149578,0.183445 -0.09031,0.07902 -0.2032,0.124177 -0.110067,0.04516 -0.231422,0.04516 -0.09031,0 -0.172156,-0.03104 -0.08184,-0.03387 -0.141111,-0.08467 -0.09313,0.02258 -0.1524,0.07338 -0.05927,0.0508 -0.07056,0.132644 -0.01129,0.08467 0.03951,0.129822 0.0508,0.04516 0.149577,0.04516 h 0.505178 q 0.248356,0 0.364067,0.110067 0.115711,0.112888 0.09031,0.3048 -0.02822,0.197555 -0.194733,0.310444 -0.163689,0.112889 -0.420512,0.112889 -0.149577,0 -0.270933,-0.04233 -0.121355,-0.04233 -0.2032,-0.115712 -0.08184,-0.07338 -0.118533,-0.174977 -0.03387,-0.09878 -0.01129,-0.214489 l 0.110067,-0.07902 q -0.138289,-0.01976 -0.208845,-0.110067 -0.06773,-0.09031 -0.04515,-0.2286 0.01975,-0.121356 0.110066,-0.217311 0.09313,-0.09878 0.217311,-0.138289 -0.04798,-0.07338 -0.07055,-0.163689 -0.02258,-0.09313 -0.0056,-0.200378 z m 0.208845,0 q -0.01129,0.0762 0.0085,0.143934 0.01976,0.06773 0.06209,0.118533 0.04516,0.0508 0.107245,0.08184 0.06491,0.02822 0.141111,0.02822 0.0762,0 0.146755,-0.02822 0.07338,-0.03104 0.129823,-0.08184 0.05927,-0.0508 0.09878,-0.118533 0.03951,-0.06773 0.0508,-0.143934 0.0085,-0.0762 -0.01129,-0.143933 -0.01976,-0.06773 -0.06491,-0.118533 -0.04233,-0.0508 -0.107244,-0.07902 -0.06209,-0.03104 -0.138289,-0.03104 -0.0762,0 -0.149578,0.03104 -0.07056,0.02822 -0.129822,0.07902 -0.05644,0.0508 -0.09596,0.118533 -0.03951,0.06773 -0.04798,0.143933 z m 0.316089,1.478845 q 0.1524,0 0.248355,-0.05362 0.09596,-0.05362 0.112889,-0.163688 0.01129,-0.09031 -0.05362,-0.146756 -0.06209,-0.05644 -0.2032,-0.05644 H 15.79775 q -0.01975,0.09031 0.0056,0.166511 0.02822,0.0762 0.08749,0.132644 0.05927,0.05645 0.146755,0.08749 0.08749,0.03387 0.197556,0.03387 z m 1.258536,-0.544689 0.174978,-1.247422 h -0.333022 l 0.02822,-0.197556 h 0.333022 l 0.0508,-0.361244 h 0.225778 l -0.0508,0.361244 h 0.333022 l -0.02822,0.197556 h -0.333022 l -0.174978,1.247422 z m 2.443867,0 h -0.222955 l 0.104422,-0.750711 q 0.01411,-0.1016 -0.01129,-0.189089 -0.0254,-0.09031 -0.08184,-0.158045 -0.05645,-0.06773 -0.141112,-0.104422 -0.08467,-0.03951 -0.186266,-0.03951 -0.09878,0 -0.194734,0.04233 -0.09313,0.04233 -0.172155,0.115711 -0.07902,0.07056 -0.132645,0.166512 -0.0508,0.09595 -0.06773,0.206022 l -0.09878,0.7112 h -0.225777 l 0.3048,-2.167467 h 0.225777 l -0.146755,1.0414 q 0.09878,-0.149578 0.251178,-0.242711 0.155222,-0.09313 0.3302,-0.09031 0.138288,0 0.251177,0.05644 0.115711,0.05645 0.191911,0.155223 0.0762,0.09596 0.110067,0.2286 0.03669,0.129822 0.01693,0.282222 z M 10.148195,44.20571 h 0.722489 l -0.03105,0.220133 h -0.499533 l -0.3443112,2.452511 h 0.4995332 l -0.03104,0.217311 H 9.7417948 Z"
     id="text10"
     style="font-style:oblique;font-size:2.82222px;font-family:'Liber Grotesque Family';-inkscape-font-specification:'Liber Grotesque Family, Oblique';letter-spacing:0.171979px;word-spacing:0px;direction:rtl;fill:#20dfa5;fill-rule:evenodd;stroke:#fdfdfd;stroke-opacity:0"
     aria-label="[length]" />
  <path
     d="m 120.65385,47.095665 h -0.72249 l 0.031,-0.217311 h 0.49954 l 0.34431,-2.452509 h -0.49953 l 0.031,-0.220133 h 0.72249 z m -10.47202,-0.361244 0.3048,-2.167465 h 0.22577 l -0.3048,2.167465 z m 2.29711,-0.714022 q -0.003,0.01976 -0.008,0.04516 -0.006,0.0254 -0.0141,0.04233 h -1.19945 q -0.0141,0.09878 0.0169,0.180622 0.031,0.08184 0.0931,0.141111 0.0621,0.05927 0.14676,0.09313 0.0875,0.03387 0.18344,0.03387 0.127,0 0.23142,-0.03951 0.10443,-0.04233 0.18627,-0.110067 l 0.13829,0.135467 q -0.12136,0.104422 -0.26811,0.163689 -0.14676,0.05644 -0.31891,0.05644 -0.13265,0 -0.25965,-0.04798 -0.12418,-0.04798 -0.21449,-0.141111 -0.0903,-0.09596 -0.13546,-0.234244 -0.0423,-0.141111 -0.0169,-0.327378 0.0226,-0.155222 0.0903,-0.290688 0.0706,-0.138289 0.1778,-0.239889 0.11007,-0.1016 0.25118,-0.158044 0.14111,-0.05927 0.30198,-0.05927 0.16369,0 0.28787,0.06209 0.127,0.05927 0.20602,0.163689 0.0818,0.1016 0.11289,0.239888 0.031,0.135467 0.0113,0.290689 z m -0.64347,-0.555977 q -0.11007,0 -0.20602,0.03951 -0.096,0.03669 -0.16934,0.1016 -0.0705,0.06209 -0.11853,0.146755 -0.0451,0.08185 -0.0593,0.174978 h 0.97649 q 0.0141,-0.08749 -0.0113,-0.169333 -0.0226,-0.08467 -0.079,-0.149578 -0.0536,-0.06491 -0.13829,-0.104422 -0.0847,-0.03951 -0.19473,-0.03951 z m 2.42693,1.269999 h -0.22296 l 0.10725,-0.767644 q 0.0141,-0.104422 -0.006,-0.194733 -0.0169,-0.09313 -0.0705,-0.160867 -0.0536,-0.06773 -0.13829,-0.107244 -0.0818,-0.03951 -0.19191,-0.03951 -0.1016,0 -0.19473,0.03951 -0.0931,0.03951 -0.16934,0.110066 -0.0734,0.06773 -0.127,0.166511 -0.0508,0.09596 -0.0705,0.211667 l -0.10442,0.742244 h -0.22014 l 0.2032,-1.444977 h 0.22014 l -0.0423,0.293511 q 0.0367,-0.05362 0.096,-0.110067 0.0593,-0.05927 0.13264,-0.104422 0.0762,-0.04798 0.16369,-0.0762 0.0903,-0.03104 0.18627,-0.03104 0.14393,0 0.25682,0.05362 0.11289,0.0508 0.18627,0.146756 0.0734,0.09596 0.1016,0.228599 0.031,0.132645 0.008,0.293511 z m 0.69691,-0.934155 q 0.0169,-0.121356 0.0762,-0.225778 0.0593,-0.107244 0.14958,-0.186266 0.0903,-0.07902 0.2032,-0.124178 0.11289,-0.04798 0.23425,-0.04798 0.11006,0 0.20319,0.04233 0.096,0.03951 0.16087,0.110066 0.0875,-0.04233 0.17498,-0.05927 0.0903,-0.01976 0.19191,-0.01976 h 0.0226 l -0.0282,0.197555 h -0.30198 q 0.048,0.05927 0.0677,0.141112 0.0226,0.08184 0.0113,0.172155 -0.0198,0.121355 -0.0818,0.2286 -0.0593,0.104422 -0.14958,0.183444 -0.0903,0.07902 -0.2032,0.124178 -0.11007,0.04515 -0.23142,0.04515 -0.0903,0 -0.17216,-0.03104 -0.0818,-0.03387 -0.14111,-0.08467 -0.0931,0.02258 -0.1524,0.07338 -0.0593,0.0508 -0.0706,0.132644 -0.0113,0.08467 0.0395,0.129822 0.0508,0.04516 0.14957,0.04516 h 0.50518 q 0.24836,0 0.36407,0.110067 0.11571,0.112888 0.0903,0.304799 -0.0282,0.197556 -0.19474,0.310445 -0.16368,0.112888 -0.42051,0.112888 -0.14957,0 -0.27093,-0.04233 -0.12135,-0.04233 -0.2032,-0.115711 -0.0818,-0.07338 -0.11853,-0.174978 -0.0339,-0.09878 -0.0113,-0.214488 l 0.11007,-0.07902 q -0.13829,-0.01976 -0.20885,-0.110066 -0.0677,-0.09031 -0.0452,-0.2286 0.0198,-0.121355 0.11006,-0.217311 0.0931,-0.09878 0.21731,-0.138289 -0.048,-0.07338 -0.0705,-0.163688 -0.0226,-0.09313 -0.006,-0.200378 z m 0.20885,0 q -0.0113,0.0762 0.008,0.143933 0.0198,0.06773 0.0621,0.118533 0.0452,0.0508 0.10725,0.08185 0.0649,0.02822 0.14111,0.02822 0.0762,0 0.14675,-0.02822 0.0734,-0.03104 0.12983,-0.08185 0.0593,-0.0508 0.0988,-0.118533 0.0395,-0.06773 0.0508,-0.143933 0.008,-0.0762 -0.0113,-0.143933 -0.0197,-0.06773 -0.0649,-0.118534 -0.0423,-0.0508 -0.10724,-0.07902 -0.0621,-0.03104 -0.13829,-0.03104 -0.0762,0 -0.14958,0.03104 -0.0705,0.02822 -0.12982,0.07902 -0.0564,0.0508 -0.096,0.118534 -0.0395,0.06773 -0.048,0.143933 z m 0.31609,1.478843 q 0.1524,0 0.24835,-0.05362 0.096,-0.05362 0.11289,-0.163689 0.0113,-0.09031 -0.0536,-0.146755 -0.0621,-0.05644 -0.2032,-0.05644 h -0.54187 q -0.0198,0.09031 0.006,0.166511 0.0282,0.0762 0.0875,0.132645 0.0593,0.05644 0.14675,0.08749 0.0875,0.03387 0.19756,0.03387 z m 1.25853,-0.544688 0.17498,-1.247422 h -0.33302 l 0.0282,-0.197555 h 0.33302 l 0.0508,-0.361244 h 0.22578 l -0.0508,0.361244 h 0.33302 l -0.0282,0.197555 h -0.33302 l -0.17498,1.247422 z m 2.44387,0 h -0.22296 l 0.10442,-0.750711 q 0.0141,-0.1016 -0.0113,-0.189089 -0.0254,-0.09031 -0.0819,-0.158044 -0.0564,-0.06773 -0.14111,-0.104422 -0.0847,-0.03951 -0.18627,-0.03951 -0.0988,0 -0.19473,0.04233 -0.0931,0.04233 -0.17215,0.115711 -0.079,0.07056 -0.13265,0.166511 -0.0508,0.09596 -0.0677,0.206022 l -0.0988,0.7112 h -0.22578 l 0.3048,-2.167465 h 0.22578 l -0.14676,1.041399 q 0.0988,-0.149578 0.25118,-0.242711 0.15522,-0.09313 0.3302,-0.09031 0.13829,0 0.25118,0.05644 0.11571,0.05644 0.19191,0.155222 0.0762,0.09596 0.11007,0.2286 0.0367,0.129822 0.0169,0.282222 z m -9.7894,-2.528709 h 0.72249 l -0.031,0.220133 h -0.49953 l -0.34431,2.452509 h 0.49953 l -0.031,0.217311 h -0.72249 z"
     id="text10-6"
     style="font-style:oblique;font-size:2.82222px;font-family:'Liber Grotesque Family';-inkscape-font-specification:'Liber Grotesque Family, Oblique';letter-spacing:0.171979px;word-spacing:0px;direction:rtl;fill:#a300e7;fill-rule:evenodd;stroke:#fdfdfd;stroke-opacity:0"
     aria-label="[length]" />
  <path
     d="m 20.194853,12.513361 h -0.722488 l 0.03104,-0.217311 h 0.499533 L 20.347253,9.8435407 H 19.84772 l 0.03104,-0.2201331 h 0.722489 z m -6.174315,-1.083733 q -0.01976,0.149578 -0.09596,0.282222 -0.07338,0.132645 -0.183444,0.231422 -0.107245,0.09596 -0.248356,0.1524 -0.138288,0.05645 -0.290688,0.05645 -0.166511,0 -0.285044,-0.0762 -0.115711,-0.07902 -0.166511,-0.183444 l -0.03669,0.259644 h -0.222956 l 0.3048,-2.1674653 h 0.222955 l -0.138288,0.9821323 q 0.04233,-0.0508 0.09596,-0.09878 0.05645,-0.04798 0.124178,-0.08185 0.07056,-0.03669 0.146755,-0.05644 0.07902,-0.02258 0.158045,-0.02258 0.1524,0 0.273755,0.05644 0.124178,0.05645 0.206022,0.155223 0.08467,0.09596 0.118533,0.228599 0.03669,0.132645 0.01693,0.282222 z m -1.250244,0 q -0.01693,0.110067 0.0085,0.206022 0.02822,0.09313 0.08467,0.163689 0.05927,0.07056 0.143934,0.110067 0.08749,0.03951 0.194733,0.03951 0.110066,0 0.208844,-0.03951 0.1016,-0.03951 0.180622,-0.110067 0.08185,-0.07056 0.135467,-0.163689 0.05362,-0.09596 0.07056,-0.206022 0.01411,-0.110066 -0.01411,-0.203199 -0.0254,-0.09596 -0.08749,-0.163689 -0.05927,-0.07056 -0.149577,-0.110067 -0.08749,-0.04233 -0.197556,-0.04233 -0.107244,0 -0.206022,0.04233 -0.09596,0.03951 -0.174977,0.110067 -0.0762,0.06773 -0.129823,0.163689 -0.05362,0.09313 -0.06773,0.203199 z m 3.236909,0 q -0.01975,0.149578 -0.09596,0.282222 -0.07338,0.132645 -0.183445,0.231422 -0.107244,0.09596 -0.248355,0.1524 -0.138289,0.05645 -0.290689,0.05645 -0.07902,0 -0.1524,-0.01976 -0.07055,-0.02258 -0.129822,-0.05644 -0.05644,-0.03669 -0.1016,-0.08185 -0.04233,-0.04798 -0.06773,-0.09878 l -0.138289,0.97931 H 14.37596 l 0.3048,-2.167465 h 0.222955 l -0.03669,0.262467 q 0.07902,-0.104423 0.217311,-0.183445 0.141111,-0.07902 0.307622,-0.07902 0.1524,0 0.273755,0.05644 0.124178,0.05645 0.206023,0.155223 0.08467,0.09596 0.118533,0.228599 0.03669,0.132645 0.01693,0.282222 z m -1.236132,0 q -0.01411,0.107245 0.0085,0.2032 0.0254,0.09313 0.08185,0.163689 0.05927,0.06773 0.143933,0.107244 0.08467,0.03951 0.189089,0.03951 0.107244,0 0.206022,-0.03951 0.1016,-0.03951 0.180622,-0.107244 0.07902,-0.07055 0.132644,-0.163689 0.05645,-0.09596 0.07056,-0.2032 0.01411,-0.107244 -0.01411,-0.200377 -0.0254,-0.09313 -0.08749,-0.160867 -0.05927,-0.07056 -0.149578,-0.110066 -0.08749,-0.03951 -0.194733,-0.03951 -0.104422,0 -0.200378,0.03951 -0.09596,0.03951 -0.172155,0.110066 -0.0762,0.06773 -0.129822,0.160867 -0.0508,0.09313 -0.06491,0.200377 z m 3.956578,0.722489 h -0.231422 l 0.115711,-0.829733 q 0.01411,-0.08749 0,-0.166511 -0.01411,-0.07902 -0.05927,-0.138289 -0.04233,-0.05927 -0.110066,-0.09313 -0.06491,-0.03387 -0.158045,-0.03387 -0.08467,0 -0.163688,0.03669 -0.07902,0.03387 -0.141111,0.09313 -0.05927,0.05927 -0.09878,0.138288 -0.03951,0.0762 -0.05362,0.163689 l -0.115711,0.829733 h -0.231422 l 0.115711,-0.829733 q 0.01129,-0.07902 -0.0056,-0.155222 -0.01411,-0.07902 -0.05644,-0.138289 -0.04233,-0.06209 -0.110067,-0.09878 -0.06773,-0.03951 -0.160866,-0.03951 -0.09313,0 -0.174978,0.03951 -0.07902,0.03669 -0.141111,0.1016 -0.05927,0.06491 -0.1016,0.1524 -0.04233,0.08467 -0.05644,0.180622 l -0.110067,0.7874 h -0.220133 l 0.2032,-1.444977 h 0.220133 l -0.03669,0.259644 q 0.03387,-0.05362 0.08185,-0.107244 0.0508,-0.05362 0.115711,-0.09596 0.06491,-0.04233 0.141111,-0.06773 0.07902,-0.0254 0.160866,-0.0254 0.163689,0 0.273756,0.08749 0.112888,0.08749 0.158044,0.222955 0.09596,-0.135466 0.242711,-0.222955 0.149577,-0.08749 0.313266,-0.08749 0.132645,0 0.237067,0.0508 0.104422,0.04798 0.172155,0.135467 0.06773,0.08749 0.09313,0.208844 0.02822,0.118533 0.0085,0.256822 z m -7.02133,-2.5287094 h 0.722488 l -0.03104,0.2201331 H 11.89823 L 11.553919,12.29605 h 0.499533 l -0.03104,0.217311 h -0.722489 z"
     id="text10-2"
     style="font-style:oblique;font-size:2.82222px;font-family:'Liber Grotesque Family';-inkscape-font-specification:'Liber Grotesque Family, Oblique';letter-spacing:0.171979px;word-spacing:0px;direction:rtl;fill:#20dfa5;fill-rule:evenodd;stroke:#fdfdfd;stroke-opacity:0"
     aria-label="[bpm]" />
  <path
     d="m 109.98831,17.773724 h -0.63218 l 0.0272,-0.190147 h 0.43709 l 0.30127,-2.145943 h -0.43709 l 0.0272,-0.192616 h 0.63218 z m -6.42355,-0.316088 h -0.20249 l 0.10125,-0.726015 q 0.0123,-0.07655 0,-0.145697 -0.0123,-0.06914 -0.0519,-0.121003 -0.037,-0.05186 -0.0963,-0.08149 -0.0568,-0.02963 -0.13829,-0.02963 -0.0741,0 -0.14322,0.0321 -0.0691,0.02963 -0.12348,0.08149 -0.0519,0.05186 -0.0864,0.121003 -0.0346,0.06668 -0.0469,0.143228 l -0.10124,0.726015 h -0.2025 l 0.10125,-0.726015 q 0.01,-0.06914 -0.005,-0.13582 -0.0123,-0.06914 -0.0494,-0.121002 -0.037,-0.05433 -0.0963,-0.08643 -0.0593,-0.03457 -0.14075,-0.03457 -0.0815,0 -0.15311,0.03457 -0.0691,0.0321 -0.12347,0.0889 -0.0519,0.0568 -0.0889,0.13335 -0.037,0.07408 -0.0494,0.158044 l -0.0963,0.688974 h -0.19261 l 0.17779,-1.264353 h 0.19262 l -0.0321,0.227188 q 0.0296,-0.04692 0.0716,-0.09384 0.0444,-0.04692 0.10125,-0.08396 0.0568,-0.03704 0.12347,-0.05927 0.0691,-0.02222 0.14076,-0.02222 0.14323,0 0.23953,0.07655 0.0988,0.07655 0.13829,0.195085 0.084,-0.118533 0.21238,-0.195085 0.13088,-0.07655 0.2741,-0.07655 0.11607,0 0.20744,0.04445 0.0914,0.04198 0.15063,0.118533 0.0593,0.07655 0.0815,0.182738 0.0247,0.103717 0.007,0.22472 z m 0.55228,-0.632177 q 0.0198,-0.135819 0.0864,-0.254352 0.0667,-0.118533 0.16545,-0.204964 0.10125,-0.0889 0.22719,-0.138288 0.12594,-0.05186 0.26176,-0.05186 0.13582,0 0.24695,0.05186 0.11112,0.04939 0.18767,0.138288 0.0766,0.08643 0.11113,0.204964 0.0346,0.118533 0.0148,0.254352 -0.0198,0.135819 -0.0864,0.254353 -0.0667,0.118533 -0.16792,0.207433 -0.10125,0.0889 -0.22719,0.140758 -0.12594,0.04939 -0.26176,0.04939 -0.13582,0 -0.24694,-0.04939 -0.11113,-0.05186 -0.18768,-0.140758 -0.0741,-0.0889 -0.10865,-0.207433 -0.0346,-0.118534 -0.0148,-0.254353 z m 0.19262,0 q -0.0148,0.09631 0.01,0.180269 0.0247,0.08396 0.0766,0.145697 0.0543,0.06174 0.13335,0.09878 0.079,0.03457 0.17286,0.03457 0.0963,0 0.18274,-0.03457 0.0889,-0.03704 0.16051,-0.09878 0.0716,-0.06174 0.11853,-0.145697 0.0469,-0.08396 0.0617,-0.180269 0.0123,-0.09631 -0.0123,-0.177799 -0.0222,-0.08396 -0.0765,-0.145697 -0.0543,-0.06421 -0.13335,-0.09878 -0.0765,-0.03704 -0.17286,-0.03704 -0.0938,0 -0.18274,0.03704 -0.0889,0.03457 -0.16051,0.09878 -0.0691,0.06174 -0.11854,0.145697 -0.0469,0.08149 -0.0593,0.177799 z m 1.50794,0 q 0.0173,-0.13088 0.0815,-0.246944 0.0667,-0.116063 0.16052,-0.200024 0.0963,-0.08643 0.21731,-0.13582 0.12347,-0.04939 0.25682,-0.04939 0.0692,0 0.13088,0.01975 0.0617,0.01729 0.11113,0.04939 0.0519,0.02963 0.0914,0.07161 0.0395,0.04198 0.0617,0.08643 l 0.121,-0.859365 h 0.19509 l -0.2667,1.89653 h -0.19509 l 0.0321,-0.227189 q -0.0691,0.09137 -0.19262,0.160514 -0.121,0.06668 -0.2667,0.06668 -0.13335,0 -0.242,-0.04939 -0.10619,-0.04939 -0.18027,-0.13335 -0.0716,-0.08643 -0.10372,-0.202494 -0.0296,-0.116063 -0.0123,-0.246944 z m 1.09397,0 q 0.0123,-0.09631 -0.01,-0.177799 -0.0222,-0.08396 -0.0741,-0.143228 -0.0494,-0.06174 -0.12594,-0.09631 -0.0741,-0.03704 -0.16792,-0.03704 -0.0963,0 -0.18521,0.03704 -0.0864,0.03457 -0.15804,0.09631 -0.0691,0.05927 -0.11853,0.143228 -0.0469,0.08149 -0.0593,0.177799 -0.0148,0.09631 0.01,0.180269 0.0247,0.08149 0.0765,0.143228 0.0543,0.06174 0.13088,0.09631 0.079,0.03457 0.17533,0.03457 0.0938,0 0.1778,-0.03457 0.0864,-0.03457 0.15311,-0.09631 0.0691,-0.06174 0.11359,-0.143228 0.0469,-0.08396 0.0617,-0.180269 z m 1.90058,0.0074 q -0.002,0.01729 -0.007,0.03951 -0.005,0.02223 -0.0123,0.03704 h -1.04951 q -0.0123,0.08643 0.0148,0.158044 0.0272,0.07161 0.0815,0.123472 0.0543,0.05186 0.12841,0.08149 0.0765,0.02963 0.16052,0.02963 0.11112,0 0.20249,-0.03457 0.0914,-0.03704 0.16298,-0.09631 l 0.12101,0.118533 q -0.10619,0.09137 -0.2346,0.143227 -0.12841,0.04939 -0.27905,0.04939 -0.11606,0 -0.22719,-0.04198 -0.10865,-0.04198 -0.18767,-0.123472 -0.079,-0.08396 -0.11854,-0.204964 -0.037,-0.123472 -0.0148,-0.286455 0.0198,-0.135819 0.079,-0.254352 0.0617,-0.121003 0.15557,-0.209902 0.0963,-0.0889 0.21978,-0.138289 0.12347,-0.05186 0.26423,-0.05186 0.14323,0 0.25189,0.05433 0.11112,0.05186 0.18027,0.143228 0.0716,0.0889 0.0988,0.209902 0.0272,0.118533 0.01,0.254353 z m -0.56303,-0.48648 q -0.0963,0 -0.18027,0.03457 -0.084,0.0321 -0.14817,0.0889 -0.0617,0.05433 -0.10371,0.128411 -0.0395,0.07161 -0.0519,0.153105 h 0.85442 q 0.0123,-0.07655 -0.01,-0.148166 -0.0198,-0.07408 -0.0692,-0.130881 -0.0469,-0.0568 -0.121,-0.09137 -0.0741,-0.03457 -0.17039,-0.03457 z m -7.35629,-1.10137 h 0.63218 l -0.0272,0.192616 h -0.4371 l -0.30127,2.145943 h 0.43709 l -0.0272,0.190147 h -0.63218 z"
     id="text10-2-3"
     style="font-style:oblique;font-size:2.46944px;font-family:'Liber Grotesque Family';-inkscape-font-specification:'Liber Grotesque Family, Oblique';letter-spacing:0.171979px;word-spacing:0px;direction:rtl;fill:#a300e7;fill-rule:evenodd;stroke:#fdfdfd;stroke-opacity:0"
     aria-label="[mode]" />
  <path
     d="M 19.652898,61.779797 H 18.93041 l 0.03104,-0.217311 h 0.499533 l 0.344311,-2.45251 h -0.499533 l 0.03104,-0.220133 h 0.722488 z m -6.394267,-0.361245 h -0.225777 l 0.2032,-1.444976 h 0.194733 l -0.03669,0.256822 q 0.09031,-0.127 0.222955,-0.191911 0.135467,-0.06491 0.285045,-0.06491 h 0.07055 l -0.02822,0.197555 h -0.07056 q -0.09596,0 -0.180622,0.03387 -0.08467,0.03104 -0.1524,0.09031 -0.06773,0.05927 -0.112888,0.141111 -0.04233,0.07902 -0.05645,0.174977 z m 2.370491,-0.714021 q -0.0028,0.01975 -0.0085,0.04515 -0.0056,0.0254 -0.01411,0.04233 H 14.4071 q -0.01411,0.09878 0.01693,0.180622 0.03104,0.08184 0.09313,0.141111 0.06209,0.05927 0.146755,0.09313 0.08749,0.03387 0.183445,0.03387 0.127,0 0.231422,-0.03951 0.104422,-0.04233 0.186266,-0.110066 l 0.138289,0.135466 q -0.121355,0.104423 -0.268111,0.163689 -0.146755,0.05645 -0.318911,0.05645 -0.132644,0 -0.259644,-0.04798 -0.124178,-0.04798 -0.214489,-0.141111 -0.09031,-0.09596 -0.135466,-0.234244 -0.04233,-0.141111 -0.01693,-0.327378 0.02258,-0.155222 0.09031,-0.290689 0.07056,-0.138288 0.1778,-0.239888 0.110067,-0.1016 0.251178,-0.158045 0.141111,-0.05927 0.301977,-0.05927 0.163689,0 0.287867,0.06209 0.127,0.05927 0.206022,0.163688 0.08184,0.1016 0.112889,0.239889 0.03104,0.135467 0.01129,0.290689 z m -0.643467,-0.555978 q -0.110066,0 -0.206022,0.03951 -0.09596,0.03669 -0.169333,0.1016 -0.07056,0.06209 -0.118533,0.146756 -0.04516,0.08184 -0.05927,0.174977 h 0.976488 q 0.01411,-0.08749 -0.01129,-0.169333 -0.02258,-0.08467 -0.07902,-0.149577 -0.05362,-0.06491 -0.138288,-0.104423 -0.08467,-0.03951 -0.194734,-0.03951 z m 1.309332,0.197556 q -0.01976,0.141111 0.189089,0.206022 l 0.327377,0.09595 q 0.211667,0.06209 0.293511,0.166511 0.08184,0.104422 0.06209,0.251178 -0.01411,0.08184 -0.05927,0.155222 -0.04516,0.07056 -0.121355,0.124178 -0.0762,0.05362 -0.186267,0.08467 -0.110066,0.03104 -0.254,0.03104 -0.104422,0 -0.200377,-0.02258 -0.09313,-0.01976 -0.172156,-0.05644 -0.0762,-0.03669 -0.135466,-0.08467 -0.05927,-0.0508 -0.09596,-0.107244 l 0.189089,-0.124178 q 0.02822,0.04516 0.07902,0.08184 0.0508,0.03669 0.110067,0.06209 0.05927,0.0254 0.124177,0.03951 0.06491,0.01129 0.129823,0.01129 0.169333,0 0.259644,-0.05644 0.09031,-0.05645 0.104422,-0.138289 0.0085,-0.06773 -0.03669,-0.121356 -0.04233,-0.05362 -0.163689,-0.09313 l -0.310444,-0.09313 q -0.2032,-0.05644 -0.290689,-0.160867 -0.08467,-0.107244 -0.06491,-0.251177 0.01129,-0.08185 0.05645,-0.155222 0.04798,-0.0762 0.127,-0.132645 0.08184,-0.05927 0.191911,-0.09313 0.112888,-0.03387 0.253999,-0.03387 0.135467,0 0.239889,0.04233 0.104422,0.03951 0.172156,0.107244 0.06773,0.06773 0.09596,0.1524 0.03105,0.08467 0.01693,0.172155 h -0.220133 q 0.0085,-0.118533 -0.08184,-0.200377 -0.09031,-0.08185 -0.248356,-0.08185 -0.09031,0 -0.160866,0.01976 -0.06773,0.01975 -0.115711,0.0508 -0.04798,0.03104 -0.07338,0.07055 -0.02258,0.03951 -0.03104,0.08185 z m 1.481489,1.072443 0.174978,-1.247421 h -0.333022 l 0.02822,-0.197555 h 0.333022 l 0.0508,-0.361244 h 0.225778 l -0.0508,0.361244 h 0.333022 l -0.02822,0.197555 h -0.333022 l -0.174977,1.247421 z m -5.528197,-2.528709 h 0.722488 l -0.03105,0.220133 H 12.44019 l -0.344311,2.45251 h 0.499533 l -0.03104,0.217311 h -0.722488 z"
     id="text10-9"
     style="font-style:oblique;font-size:2.82222px;font-family:'Liber Grotesque Family';-inkscape-font-specification:'Liber Grotesque Family, Oblique';letter-spacing:0.171979px;word-spacing:0px;direction:rtl;fill:#20dfa5;fill-rule:evenodd;stroke:#fdfdfd;stroke-opacity:0"
     aria-label="[rest]" />
  <path
     d="m 118.72786,61.779797 h -0.72249 l 0.0311,-0.217311 h 0.49953 l 0.34431,-2.45251 h -0.49953 l 0.031,-0.220133 h 0.72249 z m -6.39427,-0.361245 h -0.22577 l 0.2032,-1.444976 h 0.19473 l -0.0367,0.256822 q 0.0903,-0.127 0.22296,-0.191911 0.13546,-0.06491 0.28504,-0.06491 h 0.0706 l -0.0282,0.197555 h -0.0705 q -0.096,0 -0.18062,0.03387 -0.0847,0.03104 -0.1524,0.09031 -0.0677,0.05927 -0.11289,0.141111 -0.0423,0.07902 -0.0565,0.174977 z m 2.37049,-0.714021 q -0.003,0.01975 -0.008,0.04515 -0.006,0.0254 -0.0141,0.04233 h -1.19945 q -0.0141,0.09878 0.0169,0.180622 0.031,0.08184 0.0931,0.141111 0.0621,0.05927 0.14675,0.09313 0.0875,0.03387 0.18345,0.03387 0.127,0 0.23142,-0.03951 0.10442,-0.04233 0.18627,-0.110066 l 0.13829,0.135466 q -0.12136,0.104423 -0.26811,0.163689 -0.14676,0.05645 -0.31892,0.05645 -0.13264,0 -0.25964,-0.04798 -0.12418,-0.04798 -0.21449,-0.141111 -0.0903,-0.09596 -0.13546,-0.234244 -0.0423,-0.141111 -0.0169,-0.327378 0.0226,-0.155222 0.0903,-0.290689 0.0706,-0.138288 0.1778,-0.239888 0.11007,-0.1016 0.25118,-0.158045 0.14111,-0.05927 0.30198,-0.05927 0.16369,0 0.28786,0.06209 0.127,0.05927 0.20603,0.163688 0.0818,0.1016 0.11289,0.239889 0.031,0.135467 0.0113,0.290689 z m -0.64346,-0.555978 q -0.11007,0 -0.20602,0.03951 -0.096,0.03669 -0.16934,0.1016 -0.0705,0.06209 -0.11853,0.146756 -0.0452,0.08184 -0.0593,0.174977 h 0.97649 q 0.0141,-0.08749 -0.0113,-0.169333 -0.0226,-0.08467 -0.079,-0.149577 -0.0536,-0.06491 -0.13829,-0.104423 -0.0847,-0.03951 -0.19473,-0.03951 z m 1.30933,0.197556 q -0.0198,0.141111 0.18909,0.206022 l 0.32738,0.09595 q 0.21166,0.06209 0.29351,0.166511 0.0818,0.104422 0.0621,0.251178 -0.0141,0.08184 -0.0593,0.155222 -0.0452,0.07056 -0.12136,0.124178 -0.0762,0.05362 -0.18626,0.08467 -0.11007,0.03104 -0.254,0.03104 -0.10443,0 -0.20038,-0.02258 -0.0931,-0.01976 -0.17216,-0.05644 -0.0762,-0.03669 -0.13546,-0.08467 -0.0593,-0.0508 -0.096,-0.107244 l 0.18909,-0.124178 q 0.0282,0.04516 0.079,0.08184 0.0508,0.03669 0.11007,0.06209 0.0593,0.0254 0.12418,0.03951 0.0649,0.01129 0.12982,0.01129 0.16933,0 0.25964,-0.05644 0.0903,-0.05645 0.10443,-0.138289 0.008,-0.06773 -0.0367,-0.121356 -0.0423,-0.05362 -0.16369,-0.09313 l -0.31045,-0.09313 q -0.2032,-0.05644 -0.29068,-0.160867 -0.0847,-0.107244 -0.0649,-0.251177 0.0113,-0.08185 0.0564,-0.155222 0.048,-0.0762 0.127,-0.132645 0.0818,-0.05927 0.19191,-0.09313 0.11289,-0.03387 0.254,-0.03387 0.13547,0 0.23989,0.04233 0.10442,0.03951 0.17215,0.107244 0.0677,0.06773 0.096,0.1524 0.031,0.08467 0.0169,0.172155 h -0.22013 q 0.008,-0.118533 -0.0818,-0.200377 -0.0903,-0.08185 -0.24835,-0.08185 -0.0903,0 -0.16087,0.01976 -0.0677,0.01975 -0.11571,0.0508 -0.048,0.03104 -0.0734,0.07055 -0.0226,0.03951 -0.031,0.08185 z m 1.48149,1.072443 0.17498,-1.247421 h -0.33303 l 0.0282,-0.197555 h 0.33302 l 0.0508,-0.361244 h 0.22578 l -0.0508,0.361244 h 0.33302 l -0.0282,0.197555 h -0.33303 l -0.17497,1.247421 z m -5.5282,-2.528709 h 0.72249 l -0.031,0.220133 h -0.49954 l -0.34431,2.45251 h 0.49953 l -0.031,0.217311 h -0.72249 z"
     id="text10-9-8"
     style="font-style:oblique;font-size:2.82222px;font-family:'Liber Grotesque Family';-inkscape-font-specification:'Liber Grotesque Family, Oblique';letter-spacing:0.171979px;word-spacing:0px;direction:rtl;fill:#a300e7;fill-rule:evenodd;stroke:#fdfdfd;stroke-opacity:0"
     aria-label="[rest]" />
  <path
     d="m 13.967598,97.098864 h -0.632177 l 0.02716,-0.190147 h 0.437091 l 0.301272,-2.145943 h -0.437091 l 0.02716,-0.192616 h 0.632176 z M 10.45711,96.617323 q -0.101247,0.09137 -0.224719,0.140758 -0.121003,0.04939 -0.2617607,0.04939 -0.1358192,0 -0.2494134,-0.05186 -0.1135943,-0.05186 -0.1901469,-0.140758 -0.074083,-0.0889 -0.1111248,-0.207433 -0.034572,-0.121003 -0.014817,-0.256822 0.019756,-0.135819 0.08643,-0.254352 0.069144,-0.121003 0.1703913,-0.209902 0.1012471,-0.0889 0.2271885,-0.140759 0.1284112,-0.05186 0.2642302,-0.05186 0.148166,0 0.259291,0.0568 0.113594,0.05433 0.187678,0.145697 l -0.155575,0.13335 q -0.05433,-0.06668 -0.135819,-0.103716 -0.08149,-0.03704 -0.182739,-0.03704 -0.09631,0 -0.1876774,0.03704 -0.0889,0.03457 -0.1605136,0.09878 -0.071614,0.06174 -0.1210026,0.145697 -0.046919,0.08396 -0.059266,0.180269 -0.014817,0.09631 0.00988,0.182739 0.024694,0.08396 0.079022,0.148166 0.054328,0.06174 0.1333498,0.09878 0.081492,0.03457 0.1777997,0.03457 0.1012468,0 0.1876778,-0.03457 0.0889,-0.03704 0.160513,-0.09878 z m 0.438678,0.165453 0.2667,-1.89653 h 0.197555 l -0.2667,1.89653 z m 1.251124,-1.89653 -0.165452,1.170515 h 0.313619 l 0.404988,-0.538338 h 0.212372 l -0.469194,0.632176 0.291394,0.632177 h -0.212372 l -0.254352,-0.535869 h -0.313619 l -0.07408,0.535869 h -0.195086 l 0.2667,-1.89653 z M 8.7161565,94.570158 h 0.6321767 l -0.027164,0.192616 H 8.8840785 l -0.3012717,2.145943 h 0.4370909 l -0.027164,0.190147 H 8.3605572 Z"
     id="text10-9-1"
     style="font-style:oblique;font-size:2.46944px;font-family:'Liber Grotesque Family';-inkscape-font-specification:'Liber Grotesque Family, Oblique';letter-spacing:0.171979px;word-spacing:0px;direction:rtl;fill:#20dfa5;fill-rule:evenodd;stroke:#fffbfb;stroke-opacity:0"
     aria-label="[clk]" />
  <path
     d="m 125.9404,97.098864 h -0.63218 l 0.0272,-0.190147 h 0.43709 l 0.30128,-2.145943 h -0.43709 l 0.0272,-0.192616 h 0.63218 z m -3.51049,-0.481541 q -0.10125,0.09137 -0.22472,0.140758 -0.121,0.04939 -0.26176,0.04939 -0.13582,0 -0.24941,-0.05186 -0.1136,-0.05186 -0.19015,-0.140758 -0.0741,-0.0889 -0.11113,-0.207433 -0.0346,-0.121003 -0.0148,-0.256822 0.0197,-0.135819 0.0864,-0.254352 0.0691,-0.121003 0.17039,-0.209902 0.10125,-0.0889 0.22719,-0.140759 0.12841,-0.05186 0.26423,-0.05186 0.14816,0 0.25929,0.0568 0.11359,0.05433 0.18768,0.145697 l -0.15558,0.13335 q -0.0543,-0.06668 -0.13582,-0.103716 -0.0815,-0.03704 -0.18274,-0.03704 -0.0963,0 -0.18767,0.03704 -0.0889,0.03457 -0.16052,0.09878 -0.0716,0.06174 -0.121,0.145697 -0.0469,0.08396 -0.0593,0.180269 -0.0148,0.09631 0.01,0.182739 0.0247,0.08396 0.079,0.148166 0.0543,0.06174 0.13335,0.09878 0.0815,0.03457 0.1778,0.03457 0.10125,0 0.18768,-0.03457 0.0889,-0.03704 0.16051,-0.09878 z m 0.43868,0.165453 0.2667,-1.89653 h 0.19755 l -0.2667,1.89653 z m 1.25112,-1.89653 -0.16545,1.170515 h 0.31362 l 0.40499,-0.538338 h 0.21237 l -0.4692,0.632176 0.2914,0.632177 h -0.21237 l -0.25436,-0.535869 h -0.31362 l -0.0741,0.535869 h -0.19508 l 0.2667,-1.89653 z m -3.43076,-0.316088 h 0.63218 l -0.0272,0.192616 h -0.43709 l -0.30127,2.145943 h 0.43709 l -0.0272,0.190147 h -0.63217 z"
     id="text10-9-1-9"
     style="font-style:oblique;font-size:2.46944px;font-family:'Liber Grotesque Family';-inkscape-font-specification:'Liber Grotesque Family, Oblique';letter-spacing:0.171979px;word-spacing:0px;direction:rtl;fill:#a300e7;fill-rule:evenodd;stroke:#fffbfb;stroke-opacity:0"
     aria-label="[clk]" />
  <path
     d="M 13.577866,112.17907 H 12.94569 l 0.02716,-0.19014 h 0.437091 l 0.301271,-2.14595 h -0.437091 l 0.02716,-0.19261 h 0.632177 z m -2.731025,-0.48154 q -0.101247,0.0914 -0.224719,0.14076 -0.121003,0.0494 -0.261761,0.0494 -0.135819,0 -0.249414,-0.0519 -0.1135938,-0.0519 -0.1901464,-0.14076 -0.074083,-0.0889 -0.1111248,-0.20743 -0.034572,-0.121 -0.014817,-0.25682 0.019756,-0.13582 0.08643,-0.25436 0.069144,-0.121 0.1703915,-0.2099 0.101247,-0.0889 0.227188,-0.14076 0.128411,-0.0519 0.26423,-0.0519 0.148167,0 0.259292,0.0568 0.113594,0.0543 0.187677,0.1457 l -0.155575,0.13335 q -0.05433,-0.0667 -0.135819,-0.10372 -0.08149,-0.037 -0.182738,-0.037 -0.09631,0 -0.187678,0.037 -0.0889,0.0346 -0.160513,0.0988 -0.07161,0.0617 -0.121003,0.1457 -0.046919,0.084 -0.059267,0.18027 -0.014817,0.0963 0.00988,0.18274 0.024695,0.084 0.079022,0.14816 0.05433,0.0617 0.13335,0.0988 0.08149,0.0346 0.1778,0.0346 0.101247,0 0.187677,-0.0346 0.0889,-0.037 0.160514,-0.0988 z m 0.932566,-0.0123 0.558093,-1.08655 h 0.217311 l -0.669218,1.26435 h -0.279047 l -0.31115,-1.26435 h 0.217311 l 0.251883,1.08655 z m -2.6735199,-2.03481 h 0.6321766 l -0.027164,0.19261 H 9.273809 l -0.3012717,2.14595 h 0.4370909 l -0.027164,0.19014 H 8.7502877 Z"
     id="text10-9-1-0-4"
     style="font-style:oblique;font-size:2.46944px;font-family:'Liber Grotesque Family';-inkscape-font-specification:'Liber Grotesque Family, Oblique';letter-spacing:0.171979px;word-spacing:0px;direction:rtl;fill:#20dfa5;fill-rule:evenodd;stroke:#fffbfb;stroke-opacity:0"
     aria-label="[cv]" />
  <path
     d="m 125.16094,112.17907 h -0.63218 l 0.0272,-0.19014 h 0.43709 l 0.30127,-2.14595 h -0.43709 l 0.0272,-0.19261 h 0.63218 z m -2.73103,-0.48154 q -0.10124,0.0914 -0.22472,0.14076 -0.121,0.0494 -0.26176,0.0494 -0.13582,0 -0.24941,-0.0519 -0.11359,-0.0519 -0.19015,-0.14076 -0.0741,-0.0889 -0.11112,-0.20743 -0.0346,-0.121 -0.0148,-0.25682 0.0198,-0.13582 0.0864,-0.25436 0.0692,-0.121 0.17039,-0.2099 0.10125,-0.0889 0.22719,-0.14076 0.12841,-0.0519 0.26423,-0.0519 0.14817,0 0.25929,0.0568 0.1136,0.0543 0.18768,0.1457 l -0.15557,0.13335 q -0.0543,-0.0667 -0.13582,-0.10372 -0.0815,-0.037 -0.18274,-0.037 -0.0963,0 -0.18768,0.037 -0.0889,0.0346 -0.16051,0.0988 -0.0716,0.0617 -0.12101,0.1457 -0.0469,0.084 -0.0593,0.18027 -0.0148,0.0963 0.01,0.18274 0.0247,0.084 0.079,0.14816 0.0543,0.0617 0.13335,0.0988 0.0815,0.0346 0.1778,0.0346 0.10124,0 0.18767,-0.0346 0.0889,-0.037 0.16052,-0.0988 z m 0.93257,-0.0123 0.55809,-1.08655 h 0.21731 l -0.66921,1.26435 h -0.27905 l -0.31115,-1.26435 h 0.21731 l 0.25188,1.08655 z m -2.67352,-2.03481 h 0.63218 l -0.0272,0.19261 h -0.43709 l -0.30127,2.14595 h 0.43709 l -0.0272,0.19014 h -0.63218 z"
     id="text10-9-1-0-4-3"
     style="font-style:oblique;font-size:2.46944px;font-family:'Liber Grotesque Family';-inkscape-font-specification:'Liber Grotesque Family, Oblique';letter-spacing:0.171979px;word-spacing:0px;direction:rtl;fill:#a300e7;fill-rule:evenodd;stroke:#fffbfb;stroke-opacity:0"
     aria-label="[cv]" />
  <path
     d="M 13.577867,121.17728 H 12.94569 l 0.02716,-0.19015 h 0.437091 l 0.301271,-2.14594 h -0.43709 l 0.02716,-0.19262 h 0.632177 z m -6.4507078,-1.13347 q 0.014817,-0.10619 0.066675,-0.19756 0.051858,-0.0938 0.1308803,-0.16298 0.079022,-0.0691 0.1777997,-0.10866 0.098778,-0.042 0.2049635,-0.042 0.096308,0 0.1777997,0.037 0.083961,0.0346 0.1407581,0.0963 0.076553,-0.037 0.1531053,-0.0519 0.079022,-0.0173 0.1679219,-0.0173 h 0.019756 l -0.024694,0.17286 H 8.0778935 q 0.04198,0.0519 0.059267,0.12347 0.019756,0.0716 0.00988,0.15064 -0.017286,0.10618 -0.071614,0.20002 -0.051858,0.0914 -0.1308803,0.16051 -0.079022,0.0691 -0.1777997,0.10866 -0.096308,0.0395 -0.2024941,0.0395 -0.079022,0 -0.1506358,-0.0272 -0.071614,-0.0296 -0.123472,-0.0741 -0.081492,0.0198 -0.1333498,0.0642 -0.051858,0.0445 -0.061736,0.11606 -0.00988,0.0741 0.034572,0.1136 0.04445,0.0395 0.1308803,0.0395 h 0.4420298 q 0.2173107,0 0.3185577,0.0963 0.1012471,0.0988 0.079022,0.2667 -0.024694,0.17286 -0.1703914,0.27163 -0.1432275,0.0988 -0.3679465,0.0988 -0.1308803,0 -0.2370663,-0.037 -0.1061859,-0.037 -0.1777996,-0.10125 -0.071614,-0.0642 -0.1037165,-0.1531 -0.029633,-0.0864 -0.00988,-0.18768 l 0.096308,-0.0691 q -0.1210026,-0.0173 -0.1827386,-0.0963 -0.059266,-0.079 -0.039511,-0.20003 0.017286,-0.10618 0.096308,-0.19014 0.081492,-0.0864 0.1901468,-0.12101 -0.04198,-0.0642 -0.061736,-0.14322 -0.019756,-0.0815 -0.00494,-0.17533 z m 0.1827385,0 q -0.00988,0.0667 0.00741,0.12594 0.017286,0.0593 0.054328,0.10371 0.039511,0.0444 0.093839,0.0716 0.056797,0.0247 0.123472,0.0247 0.066675,0 0.1284109,-0.0247 0.064205,-0.0272 0.1135942,-0.0716 0.051858,-0.0444 0.08643,-0.10371 0.034572,-0.0593 0.04445,-0.12594 0.00741,-0.0667 -0.00988,-0.12595 -0.017286,-0.0593 -0.056797,-0.10371 -0.037042,-0.0444 -0.093839,-0.0691 -0.054328,-0.0272 -0.1210026,-0.0272 -0.066675,0 -0.1308803,0.0272 -0.061736,0.0247 -0.1135943,0.0691 -0.049389,0.0444 -0.083961,0.10371 -0.034572,0.0593 -0.041981,0.12595 z m 0.2765773,1.29398 q 0.1333497,0 0.2173107,-0.0469 0.083961,-0.0469 0.098778,-0.14322 0.00988,-0.079 -0.046919,-0.12842 -0.054328,-0.0494 -0.1777996,-0.0494 H 7.2037118 q -0.017286,0.079 0.00494,0.14569 0.024694,0.0667 0.076553,0.11607 0.051858,0.0494 0.1284109,0.0765 0.076553,0.0296 0.1728608,0.0296 z m 1.8635474,-0.73342 q -0.037042,0.0593 -0.0889,0.11112 -0.051858,0.0494 -0.1160637,0.0889 -0.064205,0.0371 -0.140758,0.0593 -0.074083,0.0222 -0.1555748,0.0222 -0.1061859,0 -0.185208,-0.0296 -0.079022,-0.0296 -0.1308803,-0.0815 -0.049389,-0.0519 -0.069144,-0.121 -0.019756,-0.0716 -0.00988,-0.15064 0.00988,-0.0691 0.046919,-0.13335 0.039511,-0.0642 0.1037165,-0.11112 0.066675,-0.0469 0.1605136,-0.0741 0.093839,-0.0296 0.2197801,-0.0296 h 0.4247437 l 0.00741,-0.0444 q 0.00988,-0.0667 -0.00247,-0.12841 -0.00988,-0.0617 -0.046919,-0.10866 -0.034572,-0.0494 -0.096308,-0.079 -0.059267,-0.0296 -0.145697,-0.0296 -0.091369,0 -0.1728608,0.0346 -0.081492,0.0321 -0.1506358,0.0938 l -0.1111248,-0.11606 q 0.091369,-0.084 0.2099024,-0.13582 0.1210025,-0.0543 0.2518829,-0.0568 0.1308803,0 0.224719,0.0444 0.093839,0.042 0.1481664,0.11606 0.056797,0.0716 0.076553,0.16793 0.022225,0.0938 0.00741,0.19755 l -0.106186,0.75071 H 9.4129808 Z m -0.6988516,-0.10125 q -0.012347,0.0938 0.056797,0.15558 0.069144,0.0593 0.1950857,0.0593 0.079022,0 0.1580442,-0.0272 0.081492,-0.0272 0.1481664,-0.079 0.069144,-0.0519 0.1160637,-0.12841 0.049389,-0.0766 0.061736,-0.17286 H 9.0623203 q -0.1481664,0 -0.2247191,0.0568 -0.074083,0.0543 -0.08643,0.13582 z m 1.5252332,0.35807 0.153105,-1.09149 h -0.291394 l 0.02469,-0.17286 h 0.291394 l 0.04445,-0.31609 h 0.197555 l -0.04445,0.31609 h 0.291394 l -0.02469,0.17286 h -0.291394 l -0.153106,1.09149 z m 2.125304,-0.62477 q -0.0025,0.0173 -0.0074,0.0395 -0.0049,0.0222 -0.01235,0.037 h -1.049512 q -0.01235,0.0864 0.01482,0.15804 0.02716,0.0716 0.08149,0.12347 0.05433,0.0519 0.128411,0.0815 0.07655,0.0296 0.160513,0.0296 0.111125,0 0.202494,-0.0346 0.09137,-0.037 0.162983,-0.0963 l 0.121003,0.11853 q -0.106186,0.0914 -0.234597,0.14323 -0.128411,0.0494 -0.279046,0.0494 -0.116064,0 -0.227189,-0.042 -0.108655,-0.042 -0.187677,-0.12347 -0.07902,-0.084 -0.118534,-0.20496 -0.03704,-0.12347 -0.01482,-0.28646 0.01975,-0.13582 0.07902,-0.25435 0.06174,-0.121 0.155575,-0.2099 0.09631,-0.0889 0.21978,-0.13829 0.123472,-0.0519 0.26423,-0.0519 0.143227,0 0.251883,0.0543 0.111125,0.0519 0.180269,0.14323 0.07161,0.0889 0.09878,0.2099 0.02716,0.11853 0.0099,0.25435 z m -0.563032,-0.48648 q -0.09631,0 -0.180269,0.0346 -0.08396,0.0321 -0.148167,0.0889 -0.06174,0.0543 -0.103716,0.12842 -0.03951,0.0716 -0.05186,0.1531 h 0.854426 q 0.01235,-0.0765 -0.0099,-0.14817 -0.01975,-0.0741 -0.06914,-0.13088 -0.04692,-0.0568 -0.121003,-0.0914 -0.07408,-0.0346 -0.170391,-0.0346 z m -5.479511,-1.10137 h 0.6321767 l -0.027164,0.19262 H 6.527087 l -0.3012717,2.14594 h 0.4370909 l -0.027164,0.19015 H 6.0035657 Z"
     id="text10-9-1-0-4-2"
     style="font-style:oblique;font-size:2.46944px;font-family:'Liber Grotesque Family';-inkscape-font-specification:'Liber Grotesque Family, Oblique';letter-spacing:0.171979px;word-spacing:0px;direction:rtl;fill:#20dfa5;fill-rule:evenodd;stroke:#fffbfb;stroke-opacity:0"
     aria-label="[gate]" />
  <path
     d="m 127.90766,121.00688 h -0.63218 l 0.0272,-0.19015 h 0.43709 l 0.30127,-2.14594 h -0.43709 l 0.0272,-0.19262 h 0.63218 z m -6.45071,-1.13348 q 0.0148,-0.10618 0.0667,-0.19755 0.0519,-0.0938 0.13088,-0.16298 0.079,-0.0692 0.1778,-0.10866 0.0988,-0.042 0.20496,-0.042 0.0963,0 0.1778,0.037 0.084,0.0346 0.14076,0.0963 0.0765,-0.037 0.1531,-0.0519 0.079,-0.0173 0.16792,-0.0173 h 0.0198 l -0.0247,0.17287 h -0.26423 q 0.042,0.0519 0.0593,0.12347 0.0198,0.0716 0.01,0.15063 -0.0173,0.10619 -0.0716,0.20003 -0.0519,0.0914 -0.13088,0.16051 -0.079,0.0691 -0.1778,0.10866 -0.0963,0.0395 -0.2025,0.0395 -0.079,0 -0.15063,-0.0272 -0.0716,-0.0296 -0.12348,-0.0741 -0.0815,0.0198 -0.13335,0.0642 -0.0519,0.0444 -0.0617,0.11606 -0.01,0.0741 0.0346,0.11359 0.0445,0.0395 0.13088,0.0395 h 0.44203 q 0.21731,0 0.31856,0.0963 0.10125,0.0988 0.079,0.2667 -0.0247,0.17286 -0.17039,0.27164 -0.14323,0.0988 -0.36795,0.0988 -0.13088,0 -0.23706,-0.037 -0.10619,-0.037 -0.1778,-0.10125 -0.0716,-0.0642 -0.10372,-0.1531 -0.0296,-0.0864 -0.01,-0.18768 l 0.0963,-0.0691 q -0.121,-0.0173 -0.18274,-0.0963 -0.0593,-0.079 -0.0395,-0.20003 0.0173,-0.10619 0.0963,-0.19015 0.0815,-0.0864 0.19015,-0.121 -0.042,-0.0642 -0.0617,-0.14323 -0.0198,-0.0815 -0.005,-0.17533 z m 0.18274,0 q -0.01,0.0667 0.007,0.12595 0.0173,0.0593 0.0543,0.10371 0.0395,0.0444 0.0938,0.0716 0.0568,0.0247 0.12348,0.0247 0.0667,0 0.12841,-0.0247 0.0642,-0.0272 0.11359,-0.0716 0.0519,-0.0444 0.0864,-0.10371 0.0346,-0.0593 0.0444,-0.12595 0.007,-0.0667 -0.01,-0.12594 -0.0173,-0.0593 -0.0568,-0.10371 -0.037,-0.0444 -0.0938,-0.0691 -0.0543,-0.0272 -0.121,-0.0272 -0.0667,0 -0.13088,0.0272 -0.0617,0.0247 -0.1136,0.0691 -0.0494,0.0444 -0.084,0.10371 -0.0346,0.0593 -0.042,0.12594 z m 0.27658,1.29399 q 0.13335,0 0.21731,-0.0469 0.084,-0.0469 0.0988,-0.14323 0.01,-0.079 -0.0469,-0.12841 -0.0543,-0.0494 -0.1778,-0.0494 h -0.47414 q -0.0173,0.079 0.005,0.1457 0.0247,0.0667 0.0766,0.11606 0.0519,0.0494 0.12841,0.0766 0.0765,0.0296 0.17286,0.0296 z m 1.86354,-0.73342 q -0.037,0.0593 -0.0889,0.11112 -0.0519,0.0494 -0.11606,0.0889 -0.0642,0.037 -0.14076,0.0593 -0.0741,0.0222 -0.15557,0.0222 -0.10619,0 -0.18521,-0.0296 -0.079,-0.0296 -0.13088,-0.0815 -0.0494,-0.0519 -0.0691,-0.121 -0.0198,-0.0716 -0.01,-0.15064 0.01,-0.0691 0.0469,-0.13335 0.0395,-0.0642 0.10371,-0.11113 0.0667,-0.0469 0.16052,-0.0741 0.0938,-0.0296 0.21978,-0.0296 h 0.42474 l 0.007,-0.0445 q 0.01,-0.0667 -0.002,-0.12841 -0.01,-0.0617 -0.0469,-0.10866 -0.0346,-0.0494 -0.0963,-0.079 -0.0593,-0.0296 -0.14569,-0.0296 -0.0914,0 -0.17287,0.0346 -0.0815,0.0321 -0.15063,0.0938 l -0.11113,-0.11607 q 0.0914,-0.084 0.20991,-0.13582 0.121,-0.0543 0.25188,-0.0568 0.13088,0 0.22472,0.0444 0.0938,0.042 0.14816,0.11606 0.0568,0.0716 0.0766,0.16792 0.0222,0.0938 0.007,0.19756 l -0.10619,0.75071 h -0.19015 z m -0.69885,-0.10125 q -0.0123,0.0938 0.0568,0.15557 0.0691,0.0593 0.19509,0.0593 0.079,0 0.15804,-0.0272 0.0815,-0.0272 0.14817,-0.079 0.0691,-0.0519 0.11606,-0.12841 0.0494,-0.0765 0.0617,-0.17286 h -0.42475 q -0.14816,0 -0.22472,0.0568 -0.0741,0.0543 -0.0864,0.13582 z m 1.52524,0.35807 0.1531,-1.09149 h -0.29139 l 0.0247,-0.17287 h 0.2914 l 0.0444,-0.31608 h 0.19755 l -0.0444,0.31608 h 0.29139 l -0.0247,0.17287 h -0.29139 l -0.15311,1.09149 z m 2.1253,-0.62477 q -0.002,0.0173 -0.007,0.0395 -0.005,0.0222 -0.0123,0.037 h -1.04951 q -0.0123,0.0864 0.0148,0.15805 0.0272,0.0716 0.0815,0.12347 0.0543,0.0519 0.12841,0.0815 0.0765,0.0296 0.16052,0.0296 0.11112,0 0.20249,-0.0346 0.0914,-0.037 0.16298,-0.0963 l 0.12101,0.11854 q -0.10619,0.0914 -0.2346,0.14322 -0.12841,0.0494 -0.27905,0.0494 -0.11606,0 -0.22719,-0.042 -0.10865,-0.042 -0.18767,-0.12347 -0.079,-0.084 -0.11854,-0.20496 -0.037,-0.12348 -0.0148,-0.28646 0.0198,-0.13582 0.079,-0.25435 0.0617,-0.121 0.15557,-0.2099 0.0963,-0.0889 0.21978,-0.13829 0.12347,-0.0519 0.26423,-0.0519 0.14323,0 0.25189,0.0543 0.11112,0.0519 0.18026,0.14323 0.0716,0.0889 0.0988,0.2099 0.0272,0.11853 0.01,0.25435 z m -0.56303,-0.48648 q -0.0963,0 -0.18027,0.0346 -0.084,0.0321 -0.14817,0.0889 -0.0617,0.0543 -0.10371,0.12841 -0.0395,0.0716 -0.0519,0.15311 h 0.85442 q 0.0123,-0.0766 -0.01,-0.14817 -0.0198,-0.0741 -0.0691,-0.13088 -0.0469,-0.0568 -0.121,-0.0914 -0.0741,-0.0346 -0.17039,-0.0346 z m -5.47951,-1.10137 h 0.63217 l -0.0272,0.19262 h -0.43709 l -0.30127,2.14594 h 0.43709 l -0.0272,0.19015 h -0.63217 z"
     id="text10-9-1-0-4-2-3"
     style="font-style:oblique;font-size:2.46944px;font-family:'Liber Grotesque Family';-inkscape-font-specification:'Liber Grotesque Family, Oblique';letter-spacing:0.171979px;word-spacing:0px;direction:rtl;fill:#a300e7;fill-rule:evenodd;stroke:#fffbfb;stroke-opacity:0"
     aria-label="[gate]" />
  <text
     xml:space="preserve"
     style="font-style:normal;font-variant:normal;font-weight:450;font-stretch:normal;font-size:3.175px;font-family:'Liber Grotesque Family';-inkscape-font-specification:'Liber Grotesque Family,  weight=450';font-variant-ligatures:normal;font-variant-caps:normal;font-variant-numeric:normal;font-variant-east-asian:normal;text-align:start;letter-spacing:0.171979px;word-spacing:0px;writing-mode:lr-tb;direction:rtl;text-anchor:start;opacity:1;fill:#fefcff;fill-opacity:1;fill-rule:evenodd;stroke:#fdfdfd;stroke-width:1;stroke-dasharray:none;stroke-opacity:0"
     x="12.256828"
     y="59.150948"
     id="text11"><tspan
       id="tspan11"
       style="font-style:normal;font-variant:normal;font-weight:450;font-stretch:normal;font-size:3.175px;font-family:'Liber Grotesque Family';-inkscape-font-specification:'Liber Grotesque Family,  weight=450';font-variant-ligatures:normal;font-variant-caps:normal;font-variant-numeric:normal;font-variant-east-asian:normal;stroke-width:1"
       x="12.256828"
       y="59.150948" /></text>
  <path
     style="opacity:1;fill:#ffffff;fill-opacity:1;fill-rule:evenodd;stroke:#fefcfc;stroke-width:0.304698;stroke-dasharray:none;stroke-opacity:1"
     d="M 32.856549,6.7373713 H 10.109533 v 0 0"
     id="path13" />
  <path
     style="fill:#ffffff;fill-opacity:1;fill-rule:evenodd;stroke:#fefcfc;stroke-width:0.273456;stroke-dasharray:none;stroke-opacity:1"
     d="M 115.02309,5.5853045 H 96.701601 v 0 0"
     id="path13-7" />
  <path
     style="fill:#ffffff;fill-opacity:1;fill-rule:evenodd;stroke:#fefcfc;stroke-width:0.254495;stroke-dasharray:none;stroke-opacity:1"
     d="M 112.51154,4.4038854 H 96.642742 v 0 0"
     id="path13-7-8" />
  <path
     style="fill:#ffffff;fill-opacity:1;fill-rule:evenodd;stroke:#fefcfc;stroke-width:0.302863;stroke-dasharray:none;stroke-opacity:1"
     d="M 119.17555,6.7916051 H 96.701601 v 0 0"
     id="path13-4" />
  <path
     d="m 21.212249,66.141104 2.749362,1.371839 -2.749362,1.371838 z"
     id="text16"
     style="font-style:oblique;font-weight:bold;font-size:3.88056px;font-family:'Liber Grotesque Family';-inkscape-font-specification:'Liber Grotesque Family, Bold Oblique';letter-spacing:0.171979px;word-spacing:0px;direction:rtl;fill:#ffffff;fill-rule:evenodd;stroke:#fefcfc;stroke-width:0.3"
     aria-label="" />
  <path
     d="m 106.12203,66.141104 2.74937,1.371839 -2.74937,1.371838 z"
     id="text16-8"
     style="font-style:oblique;font-weight:bold;font-size:3.88056px;font-family:'Liber Grotesque Family';-inkscape-font-specification:'Liber Grotesque Family, Bold Oblique';letter-spacing:0.171979px;word-spacing:0px;direction:rtl;fill:#ffffff;fill-rule:evenodd;stroke:#fefcfc;stroke-width:0.3"
     aria-label="" />
  <path
     d="m 21.58978,76.516941 h 1.885952 V 74.630989 H 21.58978 Z"
     id="text17"
     style="font-style:oblique;font-weight:bold;font-size:3.88056px;font-family:'Liber Grotesque Family';-inkscape-font-specification:'Liber Grotesque Family, Bold Oblique';letter-spacing:0.171979px;word-spacing:0px;direction:rtl;fill:#ffffff;fill-rule:evenodd;stroke:#fefcfc;stroke-width:0.3"
     aria-label="" />
  <path
     d="m 106.30225,76.516941 h 1.88595 v -1.885952 h -1.88595 z"
     id="text17-6"
     style="font-style:oblique;font-weight:bold;font-size:3.88056px;font-family:'Liber Grotesque Family';-inkscape-font-specification:'Liber Grotesque Family, Bold Oblique';letter-spacing:0.171979px;word-spacing:0px;direction:rtl;fill:#ffffff;fill-rule:evenodd;stroke:#fefcfc;stroke-width:0.3"
     aria-label="" />
  <path
     d="m 23.729579,82.5664 q 0.258038,0 0.436494,0.180868 0.180868,0.178456 0.180868,0.436493 0,0.258038 -0.178456,0.438906 -0.178456,0.178456 -0.438906,0.178456 h -1.786971 q 0.272507,0.306269 0.390674,0.651123 h -0.173633 q -0.337619,-0.49196 -0.9381,-0.711413 v -0.118166 q 0.600481,-0.219453 0.9381,-0.711413 h 0.173633 q -0.118167,0.347266 -0.390674,0.653535 h 1.786971 q 0.154341,0 0.267684,-0.113344 0.113344,-0.113343 0.113344,-0.267684 0,-0.15434 -0.113344,-0.267684 -0.113343,-0.113343 -0.267684,-0.113343 z"
     id="text20"
     style="font-weight:100;font-size:4.93889px;font-family:'Liber Grotesque Family';-inkscape-font-specification:'Liber Grotesque Family, Thin';letter-spacing:0.171979px;word-spacing:0px;direction:rtl;fill:#ffffff;fill-rule:evenodd;stroke:#fefcfc;stroke-width:0.3"
     aria-label="" />
  <path
     d="m 108.44205,82.5664 q 0.25803,0 0.43649,0.180868 0.18087,0.178456 0.18087,0.436493 0,0.258038 -0.17846,0.438906 -0.17845,0.178456 -0.4389,0.178456 h -1.78697 q 0.2725,0.306269 0.39067,0.651123 h -0.17363 q -0.33762,-0.49196 -0.9381,-0.711413 v -0.118166 q 0.60048,-0.219453 0.9381,-0.711413 h 0.17363 q -0.11817,0.347266 -0.39067,0.653535 h 1.78697 q 0.15434,0 0.26768,-0.113344 0.11334,-0.113343 0.11334,-0.267684 0,-0.15434 -0.11334,-0.267684 -0.11334,-0.113343 -0.26768,-0.113343 z"
     id="text20-3"
     style="font-weight:100;font-size:4.93889px;font-family:'Liber Grotesque Family';-inkscape-font-specification:'Liber Grotesque Family, Thin';letter-spacing:0.171979px;word-spacing:0px;direction:rtl;fill:#ffffff;fill-rule:evenodd;stroke:#fefcfc;stroke-width:0.3"
     aria-label="" />
  <circle
     cx="7.5470452"
     cy="83.509323"
     r="2.5"
     fill="none"
     stroke="#444444"
     stroke-width="0.3"
     opacity="0"
     id="circle24-2-0-4"
     style="display:inline;opacity:1" />
  <circle
     cx="123.6797"
     cy="67.512939"
     r="2.5"
     fill="none"
     stroke="#444444"
     stroke-width="0.3"
     opacity="0"
     id="circle24-2-9"
     style="display:inline;opacity:1;stroke:#848484;stroke-opacity:1" />
  <circle
     cx="123.6797"
     cy="83.509323"
     r="2.5"
     fill="none"
     stroke="#444444"
     stroke-width="0.3"
     opacity="0"
     id="circle24-2-0-7-9"
     style="display:inline;opacity:1" />
</svg>
