<?xml version="1.0" encoding="UTF-8" standalone="no"?>
<svg
   width="131.318mm"
   height="128.5mm"
   viewBox="0 0 131.318 128.5"
   version="1.1"
   id="svg44"
   sodipodi:docname="Transmutation_og.svg"
   inkscape:version="1.4.2 (ebf0e940, 2025-05-08)"
   xml:space="preserve"
   xmlns:inkscape="http://www.inkscape.org/namespaces/inkscape"
   xmlns:sodipodi="http://sodipodi.sourceforge.net/DTD/sodipodi-0.dtd"
   xmlns:xlink="http://www.w3.org/1999/xlink"
   xmlns="http://www.w3.org/2000/svg"
   xmlns:svg="http://www.w3.org/2000/svg"><sodipodi:namedview
   id="namedview1"
   pagecolor="#505050"
   bordercolor="#eeeeee"
   borderopacity="1"
   inkscape:showpageshadow="0"
   inkscape:pageopacity="0"
   inkscape:pagecheckerboard="0"
   inkscape:deskcolor="#505050"
   inkscape:document-units="mm"
   inkscape:zoom="1.301729"
   inkscape:cx="301.90617"
   inkscape:cy="282.70094"
   inkscape:window-width="1800"
   inkscape:window-height="1097"
   inkscape:window-x="0"
   inkscape:window-y="44"
   inkscape:window-maximized="1"
   inkscape:current-layer="svg44" /><defs
   id="defs44">
     
     <!-- Matte texture filter using SVG turbulence -->
     <filter
   id="matteTexture"
   x="0"
   y="0"
   width="100%"
   height="100%">
       <feTurbulence
   baseFrequency="0.9"
   numOctaves="4"
   result="turbulence"
   id="feTurbulence1" />
       <feColorMatrix
   in="turbulence"
   type="saturate"
   values="0"
   id="feColorMatrix1" />
       <feComposite
   in="SourceGraphic"
   in2="turbulence"
   operator="multiply"
   id="feComposite1" />
     </filter>
     
     <linearGradient
   id="linearGradient7"><stop
     style="stop-color:#00ffb4;stop-opacity:1;"
     offset="0"
     id="stop7" /><stop
     style="stop-color:#00ffb4;stop-opacity:0;"
     offset="1"
     id="stop8" /></linearGradient><linearGradient
   xlink:href="#linearGradient7"
   id="linearGradient8"
   x1="13.999519"
   y1="22.443604"
   x2="17.901654"
   y2="22.443604"
   gradientUnits="userSpaceOnUse" /></defs>
     
     <!-- Matte black background -->
     <ellipse
   cx="98.326668"
   cy="17.44191"
   fill="none"
   stroke="#444444"
   stroke-width="0.180723"
   opacity="0"
   id="seq_b_led"
   style="display:inline;opacity:1"
   rx="2.4096384"
   ry="2.4096386" /><ellipse
   cx="33.381107"
   cy="17.612038"
   fill="none"
   stroke="#444444"
   stroke-width="0.180723"
   opacity="0"
   id="seq_a_led"
   style="display:inline;opacity:1"
   rx="2.4096384"
   ry="2.4096386" /><!-- Panel background --><!-- Module title --><!-- Chord Pack Button Area --><!-- Edit Mode Section --><!-- Edit A/B button placeholders --><circle
   cx="49.682266"
   cy="17.256952"
   r="3"
   fill="none"
   stroke="#444444"
   stroke-width="0.3"
   opacity="0"
   id="edit_a_btn"
   style="display:inline;opacity:1" /><circle
   cx="81.635735"
   cy="17.256952"
   r="3"
   fill="none"
   stroke="#444444"
   stroke-width="0.3"
   opacity="0"
   id="edit_b_btn"
   style="display:inline;opacity:1" /><!-- Top symbol row placeholders (6 symbols) - above matrix with proper spacing --><rect
   x="36.793957"
   y="107.54234"
   width="6"
   height="6"
   fill="none"
   stroke="#444444"
   stroke-width="0.3"
   id="alchem_1"
   style="display:inline" /><rect
   x="47.445114"
   y="107.54234"
   width="6"
   height="6"
   fill="none"
   stroke="#444444"
   stroke-width="0.3"
   id="alchem_2"
   style="display:inline" /><rect
   x="58.096272"
   y="107.54234"
   width="6"
   height="6"
   fill="none"
   stroke="#444444"
   stroke-width="0.3"
   id="alchem_3"
   style="display:inline" /><rect
   x="68.747429"
   y="107.54234"
   width="6"
   height="6"
   fill="none"
   stroke="#444444"
   stroke-width="0.3"
   id="alchem_4"
   style="display:inline" /><rect
   x="79.398582"
   y="107.54234"
   width="6"
   height="6"
   fill="none"
   stroke="#444444"
   stroke-width="0.3"
   id="alchem_5"
   style="display:inline" /><rect
   x="90.049736"
   y="107.54234"
   width="6"
   height="6"
   fill="none"
   stroke="#444444"
   stroke-width="0.3"
   id="alchem_6"
   style="display:inline" /><!-- 8x8 Matrix Area - centered with proper spacing from symbols --><rect
   x="27.157612"
   y="24.443594"
   width="77.002777"
   height="80.285408"
   fill="none"
   stroke="#555555"
   stroke-width="1.25531"
   id="main_screen"
   style="display:inline" /><!-- Bottom symbol row placeholders (6 symbols) - below matrix with proper spacing --><rect
   x="36.793964"
   y="116.21851"
   width="6"
   height="6"
   fill="none"
   stroke="#444444"
   stroke-width="0.3"
   id="alchem_7"
   style="display:inline" /><rect
   x="47.445122"
   y="116.21851"
   width="6"
   height="6"
   fill="none"
   stroke="#444444"
   stroke-width="0.3"
   id="alchem_8"
   style="display:inline" /><rect
   x="58.096275"
   y="116.21851"
   width="6"
   height="6"
   fill="none"
   stroke="#444444"
   stroke-width="0.3"
   id="alchem_9"
   style="display:inline" /><rect
   x="68.747429"
   y="116.21851"
   width="6"
   height="6"
   fill="none"
   stroke="#444444"
   stroke-width="0.3"
   id="alchem_10"
   style="display:inline" /><rect
   x="79.39859"
   y="116.21851"
   width="6"
   height="6"
   fill="none"
   stroke="#444444"
   stroke-width="0.3"
   id="alchem_11"
   style="display:inline" /><rect
   x="90.049744"
   y="116.21851"
   width="6"
   height="6"
   fill="none"
   stroke="#444444"
   stroke-width="0.3"
   id="alchem_12"
   style="display:inline" /><!-- Left Side - Sequence A --><!-- Length A knob --><circle
   cx="16.440083"
   cy="39.865067"
   r="4"
   fill="none"
   stroke="#444444"
   stroke-width="0.3"
   opacity="0"
   id="seq_a_length"
   style="display:inline;opacity:1" /><!-- Rest button --><circle
   cx="16.440077"
   cy="55.187756"
   r="2.5"
   fill="none"
   stroke="#444444"
   stroke-width="0.3"
   opacity="0"
   id="rest_btn"
   style="display:inline;opacity:1" /><!-- Control buttons A --><circle
   cx="22.586929"
   cy="67.512939"
   r="2"
   fill="none"
   stroke="#444444"
   stroke-width="0.3"
   opacity="0"
   id="a_play_btn"
   style="display:inline;opacity:1" /><circle
   cx="22.784245"
   cy="75.573959"
   r="2"
   fill="none"
   stroke="#444444"
   stroke-width="0.3"
   opacity="0"
   id="a_stop_btn"
   style="display:inline;opacity:1" /><circle
   cx="22.784245"
   cy="83.509323"
   r="2"
   fill="none"
   stroke="#444444"
   stroke-width="0.3"
   opacity="0"
   id="a_reset_btn"
   style="display:inline;opacity:1" /><!-- I/O A --><circle
   cx="15.950586"
   cy="95.834518"
   r="2.5"
   fill="none"
   stroke="#444444"
   stroke-width="0.3"
   opacity="0"
   id="a_clk_cv"
   style="display:inline;opacity:1" /><circle
   cx="7.5470452"
   cy="67.512939"
   r="2.5"
   fill="none"
   stroke="#444444"
   stroke-width="0.3"
   opacity="0"
   id="a_play_cv"
   style="display:inline;opacity:1" /><circle
   cx="7.5470452"
   cy="75.511131"
   r="2.5"
   fill="none"
   stroke="#444444"
   stroke-width="0.3"
   opacity="0"
   id="a_stop_cv"
   style="display:inline;opacity:1" /><circle
   cx="123.6797"
   cy="75.511131"
   r="2.5"
   fill="none"
   stroke="#444444"
   stroke-width="0.3"
   opacity="0"
   id="b_stop_cv"
   style="display:inline;opacity:1" /><circle
   cx="15.950586"
   cy="105.7832"
   r="2.5"
   fill="none"
   stroke="#444444"
   stroke-width="0.3"
   opacity="0"
   id="a_cv_out"
   style="display:inline;opacity:1" /><circle
   cx="15.950586"
   cy="115.73187"
   r="2.5"
   fill="none"
   stroke="#444444"
   stroke-width="0.3"
   opacity="0"
   id="a_gate_out"
   style="display:inline;opacity:1" /><!-- Right Side - Sequence B --><!-- Length B knob --><circle
   cx="115.02555"
   cy="39.865067"
   r="4"
   fill="none"
   stroke="#444444"
   stroke-width="0.3"
   opacity="0"
   id="seq_b_length"
   style="display:inline;opacity:1" /><!-- Tie button --><circle
   cx="115.02555"
   cy="55.187756"
   r="2.5"
   fill="none"
   stroke="#444444"
   stroke-width="0.3"
   opacity="0"
   id="tie_btn"
   style="display:inline;opacity:1" /><!-- Control buttons B --><circle
   cx="108.7552"
   cy="67.512939"
   r="2"
   fill="none"
   stroke="#444444"
   stroke-width="0.3"
   opacity="0"
   id="b_play_btn"
   style="display:inline;opacity:1" /><circle
   cx="108.7552"
   cy="75.511131"
   r="2"
   fill="none"
   stroke="#444444"
   stroke-width="0.3"
   opacity="0"
   id="b_stop_btn"
   style="display:inline;opacity:1" /><circle
   cx="108.75521"
   cy="83.509323"
   r="2"
   fill="none"
   stroke="#444444"
   stroke-width="0.3"
   opacity="0"
   id="b_reset_btn"
   style="display:inline;opacity:1" /><!-- Mode switch B --><rect
   x="113.8193"
   y="13.535936"
   width="4"
   height="8"
   fill="none"
   stroke="#444444"
   stroke-width="0.3"
   opacity="0"
   id="mode_switch"
   style="display:inline;opacity:1" /><!-- I/O B --><circle
   cx="115.02555"
   cy="95.834518"
   r="2.5"
   fill="none"
   stroke="#444444"
   stroke-width="0.3"
   opacity="0"
   id="b_clk_cv"
   style="display:inline;opacity:1" /><circle
   cx="115.02555"
   cy="105.7832"
   r="2.5"
   fill="none"
   stroke="#444444"
   stroke-width="0.3"
   opacity="0"
   id="b_cv_out"
   style="display:inline;opacity:1" /><circle
   cx="115.02555"
   cy="115.73187"
   r="2.5"
   fill="none"
   stroke="#444444"
   stroke-width="0.3"
   opacity="0"
   id="b_gate_out"
   style="display:inline;opacity:1" /><!-- Clock control (center bottom) --><circle
   cx="15.915051"
   cy="17.124439"
   r="4"
   fill="none"
   stroke="#444444"
   stroke-width="0.3"
   opacity="0"
   id="main_bpm"
   style="display:inline;opacity:1" /><path
   style="font-style:oblique;font-weight:800;font-size:4.93889px;font-family:'Liber Grotesque Family';-inkscape-font-specification:'Liber Grotesque Family, Ultra-Bold Oblique';letter-spacing:0.79375px;word-spacing:0.529167px;direction:rtl;display:inline;fill:#00ffb4;fill-rule:evenodd;stroke:#fdfdfd;stroke-opacity:0"
   d="M 41.081723,19.156575 H 40.123578 L 39.4025,15.526491 h 0.651934 l 0.6223,3.106561 1.491544,-3.106561 h 0.656873 z"
   id="text7"
   aria-label="V" /><path
   d="m 59.374103,15.631352 h 0.8128 l -0.05398,0.37465 h -0.434975 l -0.34925,2.5019 h 0.434975 l -0.05398,0.37465 h -0.8128 z"
   id="text7-1-7"
   style="font-style:oblique;font-weight:800;font-size:3.175px;font-family:'Liber Grotesque Family';-inkscape-font-specification:'Liber Grotesque Family, Ultra-Bold Oblique';letter-spacing:0.0635px;word-spacing:0.529167px;direction:rtl;display:inline;fill:#00ffb4;fill-rule:evenodd;stroke:#fdfdfd;stroke-opacity:0"
   aria-label="]" /><path
   d="m 71.94391,18.882552 h -0.8128 l 0.05398,-0.37465 h 0.43815 l 0.34925,-2.5019 h -0.43815 l 0.05397,-0.37465 h 0.8128 z"
   id="text7-1-9"
   style="font-style:oblique;font-weight:800;font-size:3.175px;font-family:'Liber Grotesque Family';-inkscape-font-specification:'Liber Grotesque Family, Ultra-Bold Oblique';letter-spacing:0.0635px;word-spacing:0.529167px;direction:rtl;display:inline;fill:#b400ff;fill-rule:evenodd;stroke:#fdfdfd;stroke-opacity:0"
   aria-label="[" /><path
   style="font-style:oblique;font-weight:800;font-size:4.93889px;font-family:'Liber Grotesque Family';-inkscape-font-specification:'Liber Grotesque Family, Ultra-Bold Oblique';letter-spacing:0.79375px;word-spacing:0.529167px;direction:rtl;display:inline;fill:#b400ff;fill-rule:evenodd;stroke:#fdfdfd;stroke-opacity:0"
   d="m 89.113453,17.501427 0.0741,-0.528462 h 0.99271 l 0.71614,-0.992716 h -1.67922 l 0.0741,-0.538339 h 2.48426 l 0.0642,0.128411 -0.99272,1.402644 h 0.65194 l -0.0741,0.528462 h -0.9532 l -0.74084,1.032228 h 1.65453 l -0.0741,0.538339 h -2.48426 l -0.0593,-0.128412 1.03717,-1.442155 z"
   id="text8"
   aria-label="Z" /><text
   xml:space="preserve"
   style="font-style:normal;font-variant:normal;font-weight:450;font-stretch:normal;font-size:3.175px;font-family:'Liber Grotesque Family';-inkscape-font-specification:'Liber Grotesque Family,  weight=450';font-variant-ligatures:normal;font-variant-caps:normal;font-variant-numeric:normal;font-variant-east-asian:normal;text-align:start;letter-spacing:0.171979px;word-spacing:0px;writing-mode:lr-tb;direction:rtl;text-anchor:start;display:inline;opacity:1;fill:#fefcff;fill-opacity:1;fill-rule:evenodd;stroke:#fdfdfd;stroke-width:1;stroke-dasharray:none;stroke-opacity:0"
   x="12.256828"
   y="59.150948"
   id="text11"><tspan
     id="tspan11"
     style="font-style:normal;font-variant:normal;font-weight:450;font-stretch:normal;font-size:3.175px;font-family:'Liber Grotesque Family';-inkscape-font-specification:'Liber Grotesque Family,  weight=450';font-variant-ligatures:normal;font-variant-caps:normal;font-variant-numeric:normal;font-variant-east-asian:normal;stroke-width:1"
     x="12.256828"
     y="59.150948" /></text><g
   id="g2"
   transform="translate(-1.4795299)"
   inkscape:label="panel_name"
   style="fill:#e8e0c8;fill-opacity:1"><path
     d="m 38.345008,3.1124603 v 0.4572 h -1.3208 v 4.2036999 h -0.52705 V 3.5696603 h -1.3208 v -0.4572 z m 1.911348,4.6608999 h -0.52705 V 3.1061103 h 1.94945 q 0.3048,0 0.5715,0.1143 0.2667,0.1143 0.46355,0.3175 0.2032,0.19685 0.3175,0.46355 0.1143,0.2667 0.1143,0.5715 0,0.47625 -0.26035,0.8382 -0.254,0.3556 -0.6731,0.5207 l 0.88265,1.8414999 h -0.5588 l -0.8382,-1.7398999 h -1.44145 z m 1.3716,-2.1907499 q 0.2159,0 0.40005,-0.0762 0.18415,-0.08255 0.3175,-0.22225 0.13335,-0.1397 0.20955,-0.3175 0.0762,-0.18415 0.0762,-0.3937 0,-0.20955 -0.08255,-0.3937 -0.0762,-0.18415 -0.20955,-0.3175 -0.13335,-0.13335 -0.3175,-0.20955 -0.18415,-0.08255 -0.3937,-0.08255 h -1.3716 v 2.01295 z m 6.438897,2.1907499 -0.40005,-0.9905999 h -2.35585 l -0.4064,0.9905999 h -0.55245 l 1.86055,-4.6672499 h 0.5461 l 1.8669,4.6672499 z m -1.58115,-4.0004999 -1.0033,2.5527 h 2.01295 z m 6.915151,-0.66675 h 0.52705 v 4.6354999 l -0.0762,0.0381 -3.38455,-3.5305999 v 3.5242499 h -0.52705 V 3.1378603 l 0.06985,-0.03175 3.3909,3.5306 z m 3.873503,4.7688499 q -0.53975,0 -0.9652,-0.19685 -0.42545,-0.2031999 -0.69215,-0.5143499 l 0.38735,-0.32385 q 0.24765,0.24765 0.5715,0.38735 0.32385,0.1397 0.70485,0.1397 0.4699,0 0.7239,-0.1905 0.26035,-0.19685 0.26035,-0.50165 0,-0.2667 -0.17145,-0.4572 -0.17145,-0.19685 -0.5334,-0.3429 l -0.92075,-0.37465 q -0.55245,-0.2286 -0.8001,-0.53975 -0.24765,-0.3175 -0.24765,-0.7493 0,-0.2667 0.10795,-0.48895 0.1143,-0.22225 0.3175,-0.381 0.2032,-0.1651 0.4826,-0.254 0.28575,-0.0889 0.635,-0.0889 0.381,0 0.6731,0.12065 0.29845,0.12065 0.50165,0.3175 0.2032,0.1905 0.3048,0.4445 0.10795,0.24765 0.10795,0.508 h -0.51435 q 0,-0.1397 -0.0635,-0.2921 -0.0635,-0.15875 -0.19685,-0.2921 -0.127,-0.13335 -0.3302,-0.22225 -0.2032,-0.0889 -0.4826,-0.0889 -0.4572,0 -0.73025,0.2032 -0.2667,0.19685 -0.2667,0.51435 0,0.2667 0.1524,0.45085 0.15875,0.1778 0.51435,0.32385 l 0.9398,0.3937 q 0.5588,0.2413 0.8128,0.5588 0.254,0.31115 0.254,0.7366 0,0.29845 -0.127,0.52705 -0.12065,0.22225 -0.3302,0.37465 -0.20955,0.1460499 -0.48895,0.2222499 -0.2794,0.0762 -0.59055,0.0762 z m 7.016756,-0.1016 V 4.2427603 l -1.68275,1.6637 -1.6891,-1.6637 v 3.5305999 h -0.5207 V 3.1061103 l 0.0635,-0.0254 2.1463,2.11455 2.13995,-2.11455 0.06985,0.0254 v 4.6672499 z m 2.787645,-1.9621499 q 0,0.3302 0.1143,0.6096 0.1143,0.2794 0.31115,0.4826 0.2032,0.2032 0.47625,0.3175 0.2794,0.1143 0.5969,0.1143 0.32385,0 0.5969,-0.1143 0.27305,-0.1143 0.4699,-0.3175 0.2032,-0.2032 0.3175,-0.4826 0.1143,-0.2794 0.1143,-0.6096 v -2.7051 h 0.5334 v 2.7051 q 0,0.4191 -0.15875,0.79375 -0.1524,0.3683 -0.42545,0.6477 -0.27305,0.27305 -0.6477,0.4317999 -0.3683,0.15875 -0.8001,0.15875 -0.4318,0 -0.80645,-0.15875 -0.3683,-0.1587499 -0.64135,-0.4317999 -0.27305,-0.2794 -0.4318,-0.6477 -0.1524,-0.37465 -0.1524,-0.79375 v -2.7051 h 0.5334 z m 8.007347,-2.69875 v 0.4572 h -1.3208 v 4.2036999 h -0.52705 V 3.5696603 h -1.3208 v -0.4572 z m 4.222748,4.6608999 -0.40005,-0.9905999 h -2.35585 l -0.4064,0.9905999 h -0.55245 l 1.86055,-4.6672499 h 0.5461 l 1.8669,4.6672499 z m -1.58115,-4.0004999 -1.0033,2.5527 h 2.01295 z m 5.816604,-0.6604 v 0.4572 h -1.3208 v 4.2036999 h -0.52705 V 3.5696603 h -1.3208 v -0.4572 z m 1.193802,0.4572 v -0.46355 h 2.2606 v 0.46355 h -0.85725 v 3.7465 h 0.85725 v 0.4571999 h -2.2606 V 7.3161603 h 0.85725 v -3.7465 z m 3.467087,1.8669 q 0,-0.4953 0.1905,-0.93345 0.1905,-0.4445 0.51435,-0.76835 0.3302,-0.3302 0.76835,-0.5207 0.43815,-0.1905 0.93345,-0.1905 0.50165,0 0.9398,0.1905 0.43815,0.1905 0.762,0.5207 0.3302,0.32385 0.5207,0.76835 0.1905,0.43815 0.1905,0.93345 0,0.4953 -0.1905,0.9398 -0.1905,0.43815 -0.5207,0.76835 -0.32385,0.32385 -0.762,0.5143499 -0.43815,0.1905 -0.9398,0.1905 -0.4953,0 -0.93345,-0.1905 -0.43815,-0.1904999 -0.76835,-0.5143499 -0.32385,-0.3302 -0.51435,-0.76835 -0.1905,-0.4445 -0.1905,-0.9398 z m 0.5334,0 q 0,0.38735 0.14605,0.73025 0.1524,0.33655 0.4064,0.59055 0.254,0.254 0.59055,0.4064 0.3429,0.14605 0.73025,0.14605 0.38735,0 0.73025,-0.14605 0.3429,-0.1524 0.5969,-0.4064 0.254,-0.254 0.40005,-0.59055 0.14605,-0.3429 0.14605,-0.73025 0,-0.38735 -0.14605,-0.7239 -0.14605,-0.3429 -0.40005,-0.5969 -0.254,-0.254 -0.5969,-0.40005 -0.3429,-0.1524 -0.73025,-0.1524 -0.38735,0 -0.73025,0.1524 -0.33655,0.14605 -0.59055,0.40005 -0.254,0.254 -0.4064,0.5969 -0.14605,0.33655 -0.14605,0.7239 z m 9.270995,-2.33045 h 0.52705 v 4.6354999 l -0.0762,0.0381 -3.38455,-3.5305999 v 3.5242499 h -0.52705 V 3.1378603 l 0.06985,-0.03175 3.3909,3.5306 z"
     id="text9"
     style="font-size:6.35px;font-family:'Liber Grotesque Family';-inkscape-font-specification:'Liber Grotesque Family, Normal';letter-spacing:0.79375px;word-spacing:0.529167px;direction:rtl;display:inline;fill:#e8e0c8;fill-rule:evenodd;stroke:#fdfdfd;stroke-opacity:0;fill-opacity:1"
     aria-label="TRANSMUTATION" /><path
     style="display:inline;opacity:1;fill:#e8e0c8;fill-opacity:1;fill-rule:evenodd;stroke:#e8e0c8;stroke-width:0.304698;stroke-dasharray:none;stroke-opacity:1"
     d="M 36.497158,5.6715103 H 13.750142 v 0 0"
     id="path13" /><path
     style="display:inline;fill:#e8e0c8;fill-opacity:1;fill-rule:evenodd;stroke:#e8e0c8;stroke-width:0.273456;stroke-dasharray:none;stroke-opacity:1"
     d="M 116.37446,4.4344933 H 98.05298 v 0 0"
     id="path13-7" /><path
     style="display:inline;fill:#e8e0c8;fill-opacity:1;fill-rule:evenodd;stroke:#e8e0c8;stroke-width:0.254495;stroke-dasharray:none;stroke-opacity:1"
     d="M 113.86912,3.2324036 H 98.000322 v 0 0"
     id="path13-7-8" /><path
     style="display:inline;fill:#e8e0c8;fill-opacity:1;fill-rule:evenodd;stroke:#e8e0c8;stroke-width:0.302863;stroke-dasharray:none;stroke-opacity:1"
     d="M 120.52692,5.6407939 H 98.05298 v 0 0"
     id="path13-4" /></g><path
   d="m 14.575906,66.141104 2.749362,1.371839 -2.749362,1.371838 z"
   id="text16"
   style="font-style:oblique;font-weight:bold;font-size:3.88056px;font-family:'Liber Grotesque Family';-inkscape-font-specification:'Liber Grotesque Family, Bold Oblique';letter-spacing:0.171979px;word-spacing:0px;direction:rtl;display:inline;fill:#e8e0c8;fill-rule:evenodd;stroke:#e8e0c8;stroke-width:0.3;fill-opacity:1;stroke-opacity:1"
   aria-label="►" /><path
   d="m 114.53362,66.141101 2.74936,1.371839 -2.74936,1.371838 z"
   id="text16-8"
   style="font-style:oblique;font-weight:bold;font-size:3.88056px;font-family:'Liber Grotesque Family';-inkscape-font-specification:'Liber Grotesque Family, Bold Oblique';letter-spacing:0.171979px;word-spacing:0px;direction:rtl;display:inline;fill:#e8e0c8;fill-rule:evenodd;stroke:#e8e0c8;stroke-width:0.3;fill-opacity:1;stroke-opacity:1"
   aria-label="►" /><path
   d="m 14.756122,76.454113 h 1.885952 v -1.885952 h -1.885952 z"
   id="text17"
   style="font-style:oblique;font-weight:bold;font-size:3.88056px;font-family:'Liber Grotesque Family';-inkscape-font-specification:'Liber Grotesque Family, Bold Oblique';letter-spacing:0.171979px;word-spacing:0px;direction:rtl;display:inline;fill:#e8e0c8;fill-rule:evenodd;stroke:#e8e0c8;stroke-width:0.3;fill-opacity:1;stroke-opacity:1"
   aria-label="⏹" /><path
   d="m 114.71384,76.454107 h 1.88595 v -1.885952 h -1.88595 z"
   id="text17-6"
   style="font-style:oblique;font-weight:bold;font-size:3.88056px;font-family:'Liber Grotesque Family';-inkscape-font-specification:'Liber Grotesque Family, Bold Oblique';letter-spacing:0.171979px;word-spacing:0px;direction:rtl;display:inline;fill:#e8e0c8;fill-rule:evenodd;stroke:#e8e0c8;stroke-width:0.3;fill-opacity:1;stroke-opacity:1"
   aria-label="⏹" /><path
   d="m 16.895921,82.5664 q 0.258038,0 0.436494,0.180868 0.180867,0.178456 0.180867,0.436493 0,0.258038 -0.178456,0.438906 -0.178456,0.178456 -0.438905,0.178456 H 15.10895 q 0.272507,0.306269 0.390674,0.651123 h -0.173633 q -0.33762,-0.49196 -0.9381,-0.711413 v -0.118166 q 0.60048,-0.219453 0.9381,-0.711413 h 0.173633 q -0.118167,0.347266 -0.390674,0.653535 h 1.786971 q 0.15434,0 0.267684,-0.113344 0.113344,-0.113343 0.113344,-0.267684 0,-0.15434 -0.113344,-0.267684 -0.113344,-0.113343 -0.267684,-0.113343 z"
   id="text20"
   style="font-weight:100;font-size:4.93889px;font-family:'Liber Grotesque Family';-inkscape-font-specification:'Liber Grotesque Family, Thin';letter-spacing:0.171979px;word-spacing:0px;direction:rtl;display:inline;fill:#e8e0c8;fill-rule:evenodd;stroke:#e8e0c8;stroke-width:0.3;fill-opacity:1;stroke-opacity:1"
   aria-label="↩" /><path
   d="m 116.85364,82.5664 q 0.25804,0 0.4365,0.180868 0.18086,0.178456 0.18086,0.436493 0,0.258038 -0.17845,0.438906 -0.17846,0.178456 -0.43891,0.178456 h -1.78697 q 0.27251,0.306269 0.39068,0.651123 h -0.17364 q -0.33762,-0.49196 -0.9381,-0.711413 v -0.118166 q 0.60048,-0.219453 0.9381,-0.711413 h 0.17364 q -0.11817,0.347266 -0.39068,0.653535 h 1.78697 q 0.15434,0 0.26769,-0.113344 0.11334,-0.113343 0.11334,-0.267684 0,-0.15434 -0.11334,-0.267684 -0.11335,-0.113343 -0.26769,-0.113343 z"
   id="text20-3"
   style="font-weight:100;font-size:4.93889px;font-family:'Liber Grotesque Family';-inkscape-font-specification:'Liber Grotesque Family, Thin';letter-spacing:0.171979px;word-spacing:0px;direction:rtl;display:inline;fill:#e8e0c8;fill-rule:evenodd;stroke:#e8e0c8;stroke-width:0.3;fill-opacity:1;stroke-opacity:1"
   aria-label="↩" /><circle
   cx="7.5470452"
   cy="83.509323"
   r="2.5"
   fill="none"
   stroke="#444444"
   stroke-width="0.3"
   opacity="0"
   id="a_reset_cv"
   style="display:inline;opacity:1" /><circle
   cx="123.6797"
   cy="67.512939"
   r="2.5"
   fill="none"
   stroke="#444444"
   stroke-width="0.3"
   opacity="0"
   id="b_play_cv"
   style="display:inline;opacity:1;stroke:#848484;stroke-opacity:1" /><circle
   cx="123.6797"
   cy="83.509323"
   r="2.5"
   fill="none"
   stroke="#444444"
   stroke-width="0.3"
   opacity="0"
   id="b_reset_cv"
   style="display:inline;opacity:1" /><ellipse
   cx="15.915051"
   cy="28.471514"
   fill="none"
   stroke="#444444"
   stroke-width="0.180723"
   opacity="0"
   id="clk_mult_select"
   style="display:inline;opacity:1;stroke:#ffffff;stroke-opacity:1"
   rx="2.4100001"
   ry="2.4096386" /><path
   style="display:inline;opacity:1;fill:#e8e0c8;fill-opacity:1;fill-rule:evenodd;stroke:#e8e0c8;stroke-width:0.187851;stroke-opacity:1"
   d="m 15.915051,25.971514 v -4.697075 0"
   id="path26" /><path
   d="m 21.744749,29.194005 h -0.259645 l -0.310445,-0.527757 -0.454379,0.527757 h -0.259646 l 0.612424,-0.719669 -0.409223,-0.725313 h 0.259645 l 0.304801,0.536224 0.460023,-0.536224 h 0.259646 l -0.615247,0.725313 z"
   id="text2"
   style="font-style:oblique;font-size:2.82223px;font-family:'Liber Grotesque Family';-inkscape-font-specification:'Liber Grotesque Family, Oblique';letter-spacing:0.0635px;word-spacing:0px;direction:rtl;fill:#e8e0c8;fill-opacity:1;fill-rule:evenodd;stroke:#fafafa;stroke-width:0.3;stroke-opacity:0"
   aria-label="x" /><text
   xml:space="preserve"
   style="font-style:normal;font-variant:normal;font-weight:100;font-stretch:normal;font-size:2.46944px;line-height:0;font-family:'Liber Grotesque Family';-inkscape-font-specification:'Liber Grotesque Family, Thin';font-variant-ligatures:normal;font-variant-caps:normal;font-variant-numeric:normal;font-variant-east-asian:normal;text-align:start;letter-spacing:0.0635px;word-spacing:0px;writing-mode:lr-tb;direction:rtl;text-anchor:start;display:inline;fill:#e8e0c8;fill-rule:evenodd;stroke:#e8e0c8;stroke-width:0.1;stroke-dasharray:none"
   x="119.32732"
   y="29.063965"
   id="text3"><tspan
     sodipodi:role="line"
     id="tspan3"
     style="font-style:normal;font-variant:normal;font-weight:100;font-stretch:normal;font-size:2.46944px;line-height:0;font-family:'Liber Grotesque Family';-inkscape-font-specification:'Liber Grotesque Family, Thin';font-variant-ligatures:normal;font-variant-caps:normal;font-variant-numeric:normal;font-variant-east-asian:normal;stroke-width:0.1;stroke-dasharray:none"
     x="119.39082"
     y="29.063965">mode</tspan></text><text
   xml:space="preserve"
   style="font-style:normal;font-variant:normal;font-weight:100;font-stretch:normal;font-size:2.82223px;line-height:0;font-family:'Liber Grotesque Family';-inkscape-font-specification:'Liber Grotesque Family, Thin';font-variant-ligatures:normal;font-variant-caps:normal;font-variant-numeric:normal;font-variant-east-asian:normal;text-align:start;letter-spacing:0.0635px;word-spacing:0px;writing-mode:lr-tb;direction:rtl;text-anchor:start;display:inline;fill:#e8e0c8;fill-rule:evenodd;stroke:#e8e0c8;stroke-width:0.1;stroke-dasharray:none"
   x="70.501244"
   y="18.145956"
   id="text3-3"><tspan
     sodipodi:role="line"
     id="tspan3-1"
     style="font-style:normal;font-variant:normal;font-weight:100;font-stretch:normal;font-size:2.82223px;line-height:0;font-family:'Liber Grotesque Family';-inkscape-font-specification:'Liber Grotesque Family, Thin';font-variant-ligatures:normal;font-variant-caps:normal;font-variant-numeric:normal;font-variant-east-asian:normal;stroke-width:0.1;stroke-dasharray:none"
     x="70.564743"
     y="18.145956">mutate</tspan></text><text
   xml:space="preserve"
   style="font-style:normal;font-variant:normal;font-weight:100;font-stretch:normal;font-size:2.46944px;line-height:0;font-family:'Liber Grotesque Family';-inkscape-font-specification:'Liber Grotesque Family, Thin';font-variant-ligatures:normal;font-variant-caps:normal;font-variant-numeric:normal;font-variant-east-asian:normal;text-align:start;letter-spacing:0.0635px;word-spacing:0px;writing-mode:lr-tb;direction:rtl;text-anchor:start;display:inline;fill:#e8e0c8;fill-rule:evenodd;stroke:#e8e0c8;stroke-width:0.1;stroke-dasharray:none"
   x="18.736923"
   y="10.95404"
   id="text3-3-8"><tspan
     sodipodi:role="line"
     id="tspan3-1-6"
     style="font-style:normal;font-variant:normal;font-weight:100;font-stretch:normal;font-size:2.46944px;line-height:0;font-family:'Liber Grotesque Family';-inkscape-font-specification:'Liber Grotesque Family, Thin';font-variant-ligatures:normal;font-variant-caps:normal;font-variant-numeric:normal;font-variant-east-asian:normal;stroke-width:0.1;stroke-dasharray:none"
     x="18.800423"
     y="10.95404">bpm</tspan></text><text
   xml:space="preserve"
   style="font-style:normal;font-variant:normal;font-weight:100;font-stretch:normal;font-size:2.46944px;line-height:0;font-family:'Liber Grotesque Family';-inkscape-font-specification:'Liber Grotesque Family, Thin';font-variant-ligatures:normal;font-variant-caps:normal;font-variant-numeric:normal;font-variant-east-asian:normal;text-align:start;letter-spacing:0.0635px;word-spacing:0px;writing-mode:lr-tb;direction:rtl;text-anchor:start;display:inline;fill:#e8e0c8;fill-rule:evenodd;stroke:#e8e0c8;stroke-width:0.1;stroke-dasharray:none"
   x="20.211622"
   y="49.149284"
   id="text3-3-88"><tspan
     sodipodi:role="line"
     id="tspan3-1-9"
     style="font-style:normal;font-variant:normal;font-weight:100;font-stretch:normal;font-size:2.46944px;line-height:0;font-family:'Liber Grotesque Family';-inkscape-font-specification:'Liber Grotesque Family, Thin';font-variant-ligatures:normal;font-variant-caps:normal;font-variant-numeric:normal;font-variant-east-asian:normal;stroke-width:0.1;stroke-dasharray:none"
     x="20.275122"
     y="49.149284">length</tspan></text><text
   xml:space="preserve"
   style="font-style:normal;font-variant:normal;font-weight:100;font-stretch:normal;font-size:2.46944444px;line-height:0;font-family:'Liber Grotesque Family';-inkscape-font-specification:'Liber Grotesque Family, Thin';font-variant-ligatures:normal;font-variant-caps:normal;font-variant-numeric:normal;font-variant-east-asian:normal;text-align:start;letter-spacing:0.0635px;word-spacing:0px;writing-mode:lr-tb;direction:rtl;text-anchor:start;display:inline;fill:#e8e0c8;fill-rule:evenodd;stroke:#e8e0c8;stroke-width:0.1;stroke-dasharray:none"
   x="18.546686"
   y="61.490246"
   id="text3-3-88-6"><tspan
     sodipodi:role="line"
     id="tspan3-1-9-2"
     style="font-style:normal;font-variant:normal;font-weight:100;font-stretch:normal;font-size:2.46944444px;line-height:0;font-family:'Liber Grotesque Family';-inkscape-font-specification:'Liber Grotesque Family, Thin';font-variant-ligatures:normal;font-variant-caps:normal;font-variant-numeric:normal;font-variant-east-asian:normal;stroke-width:0.1;stroke-dasharray:none"
     x="0"
     y="0">rest</tspan></text><text
   xml:space="preserve"
   style="font-style:normal;font-variant:normal;font-weight:100;font-stretch:normal;font-size:2.46944px;line-height:0;font-family:'Liber Grotesque Family';-inkscape-font-specification:'Liber Grotesque Family, Thin';font-variant-ligatures:normal;font-variant-caps:normal;font-variant-numeric:normal;font-variant-east-asian:normal;text-align:start;letter-spacing:0.0635px;word-spacing:0px;writing-mode:lr-tb;direction:rtl;text-anchor:start;display:inline;fill:#e8e0c8;fill-rule:evenodd;stroke:#e8e0c8;stroke-width:0.1;stroke-dasharray:none"
   x="10.202312"
   y="97.476585"
   id="text3-3-88-6-1"><tspan
     sodipodi:role="line"
     id="tspan3-1-9-2-4"
     style="font-style:normal;font-variant:normal;font-weight:100;font-stretch:normal;font-size:2.46944px;line-height:0;font-family:'Liber Grotesque Family';-inkscape-font-specification:'Liber Grotesque Family, Thin';font-variant-ligatures:normal;font-variant-caps:normal;font-variant-numeric:normal;font-variant-east-asian:normal;stroke-width:0.1;stroke-dasharray:none"
     x="10.265813"
     y="97.476585">clk</tspan></text><text
   xml:space="preserve"
   style="font-style:normal;font-variant:normal;font-weight:100;font-stretch:normal;font-size:2.46944px;line-height:0;font-family:'Liber Grotesque Family';-inkscape-font-specification:'Liber Grotesque Family, Thin';font-variant-ligatures:normal;font-variant-caps:normal;font-variant-numeric:normal;font-variant-east-asian:normal;text-align:start;letter-spacing:0.0635px;word-spacing:0px;writing-mode:lr-tb;direction:rtl;text-anchor:start;display:inline;fill:#e8e0c8;fill-rule:evenodd;stroke:#e8e0c8;stroke-width:0.1;stroke-dasharray:none"
   x="10.137399"
   y="107.12225"
   id="text3-3-88-6-1-2"><tspan
     sodipodi:role="line"
     id="tspan3-1-9-2-4-2"
     style="font-style:normal;font-variant:normal;font-weight:100;font-stretch:normal;font-size:2.46944px;line-height:0;font-family:'Liber Grotesque Family';-inkscape-font-specification:'Liber Grotesque Family, Thin';font-variant-ligatures:normal;font-variant-caps:normal;font-variant-numeric:normal;font-variant-east-asian:normal;stroke-width:0.1;stroke-dasharray:none"
     x="10.200899"
     y="107.12225">cv</tspan></text><text
   xml:space="preserve"
   style="font-style:normal;font-variant:normal;font-weight:100;font-stretch:normal;font-size:2.46944px;line-height:0;font-family:'Liber Grotesque Family';-inkscape-font-specification:'Liber Grotesque Family, Thin';font-variant-ligatures:normal;font-variant-caps:normal;font-variant-numeric:normal;font-variant-east-asian:normal;text-align:start;letter-spacing:0.0635px;word-spacing:0px;writing-mode:lr-tb;direction:rtl;text-anchor:start;display:inline;fill:#e8e0c8;fill-rule:evenodd;stroke:#e8e0c8;stroke-width:0.1;stroke-dasharray:none"
   x="10.216421"
   y="117.10094"
   id="text3-3-88-6-1-2-5"><tspan
     sodipodi:role="line"
     id="tspan3-1-9-2-4-2-9"
     style="font-style:normal;font-variant:normal;font-weight:100;font-stretch:normal;font-size:2.46944px;line-height:0;font-family:'Liber Grotesque Family';-inkscape-font-specification:'Liber Grotesque Family, Thin';font-variant-ligatures:normal;font-variant-caps:normal;font-variant-numeric:normal;font-variant-east-asian:normal;stroke-width:0.1;stroke-dasharray:none"
     x="10.279922"
     y="117.10094">gate</tspan></text><text
   xml:space="preserve"
   style="font-style:normal;font-variant:normal;font-weight:100;font-stretch:normal;font-size:2.46944px;line-height:0;font-family:'Liber Grotesque Family';-inkscape-font-specification:'Liber Grotesque Family, Thin';font-variant-ligatures:normal;font-variant-caps:normal;font-variant-numeric:normal;font-variant-east-asian:normal;text-align:start;letter-spacing:0.0635px;word-spacing:0px;writing-mode:lr-tb;direction:rtl;text-anchor:start;display:inline;fill:#e8e0c8;fill-rule:evenodd;stroke:#e8e0c8;stroke-width:0.1;stroke-dasharray:none"
   x="119.48523"
   y="49.149284"
   id="text3-3-88-1"><tspan
     sodipodi:role="line"
     id="tspan3-1-9-8"
     style="font-style:normal;font-variant:normal;font-weight:100;font-stretch:normal;font-size:2.46944px;line-height:0;font-family:'Liber Grotesque Family';-inkscape-font-specification:'Liber Grotesque Family, Thin';font-variant-ligatures:normal;font-variant-caps:normal;font-variant-numeric:normal;font-variant-east-asian:normal;stroke-width:0.1;stroke-dasharray:none"
     x="119.54873"
     y="49.149284">length</tspan></text><text
   xml:space="preserve"
   style="font-style:normal;font-variant:normal;font-weight:100;font-stretch:normal;font-size:2.46944444px;line-height:0;font-family:'Liber Grotesque Family';-inkscape-font-specification:'Liber Grotesque Family, Thin';font-variant-ligatures:normal;font-variant-caps:normal;font-variant-numeric:normal;font-variant-east-asian:normal;text-align:start;letter-spacing:0.0635px;word-spacing:0px;writing-mode:lr-tb;direction:rtl;text-anchor:start;display:inline;fill:#e8e0c8;fill-rule:evenodd;stroke:#e8e0c8;stroke-width:0.1;stroke-dasharray:none"
   x="117.32758"
   y="61.649704"
   id="text3-3-88-60"><tspan
     sodipodi:role="line"
     id="tspan3-1-9-89"
     style="font-style:normal;font-variant:normal;font-weight:100;font-stretch:normal;font-size:2.46944444px;line-height:0;font-family:'Liber Grotesque Family';-inkscape-font-specification:'Liber Grotesque Family, Thin';font-variant-ligatures:normal;font-variant-caps:normal;font-variant-numeric:normal;font-variant-east-asian:normal;stroke-width:0.1;stroke-dasharray:none"
     x="117.39108"
     y="61.649704">tie</tspan></text><text
   xml:space="preserve"
   style="font-style:normal;font-variant:normal;font-weight:100;font-stretch:normal;font-size:2.46944px;line-height:0;font-family:'Liber Grotesque Family';-inkscape-font-specification:'Liber Grotesque Family, Thin';font-variant-ligatures:normal;font-variant-caps:normal;font-variant-numeric:normal;font-variant-east-asian:normal;text-align:start;letter-spacing:0.0635px;word-spacing:0px;writing-mode:lr-tb;direction:rtl;text-anchor:start;display:inline;fill:#e8e0c8;fill-rule:evenodd;stroke:#e8e0c8;stroke-width:0.1;stroke-dasharray:none"
   x="122.6329"
   y="96.770439"
   id="text3-3-88-6-1-5"><tspan
     sodipodi:role="line"
     id="tspan3-1-9-2-4-8"
     style="font-style:normal;font-variant:normal;font-weight:100;font-stretch:normal;font-size:2.46944px;line-height:0;font-family:'Liber Grotesque Family';-inkscape-font-specification:'Liber Grotesque Family, Thin';font-variant-ligatures:normal;font-variant-caps:normal;font-variant-numeric:normal;font-variant-east-asian:normal;stroke-width:0.1;stroke-dasharray:none"
     x="122.6964"
     y="96.770439">clk</tspan></text><text
   xml:space="preserve"
   style="font-style:normal;font-variant:normal;font-weight:100;font-stretch:normal;font-size:2.46944px;line-height:0;font-family:'Liber Grotesque Family';-inkscape-font-specification:'Liber Grotesque Family, Thin';font-variant-ligatures:normal;font-variant-caps:normal;font-variant-numeric:normal;font-variant-east-asian:normal;text-align:start;letter-spacing:0.0635px;word-spacing:0px;writing-mode:lr-tb;direction:rtl;text-anchor:start;display:inline;fill:#e8e0c8;fill-rule:evenodd;stroke:#e8e0c8;stroke-width:0.1;stroke-dasharray:none"
   x="121.99367"
   y="106.34174"
   id="text3-3-88-6-1-5-7"><tspan
     sodipodi:role="line"
     id="tspan3-1-9-2-4-8-9"
     style="font-style:normal;font-variant:normal;font-weight:100;font-stretch:normal;font-size:2.46944px;line-height:0;font-family:'Liber Grotesque Family';-inkscape-font-specification:'Liber Grotesque Family, Thin';font-variant-ligatures:normal;font-variant-caps:normal;font-variant-numeric:normal;font-variant-east-asian:normal;stroke-width:0.1;stroke-dasharray:none"
     x="122.05717"
     y="106.34174">cv</tspan></text><text
   xml:space="preserve"
   style="font-style:normal;font-variant:normal;font-weight:100;font-stretch:normal;font-size:2.46944px;line-height:0;font-family:'Liber Grotesque Family';-inkscape-font-specification:'Liber Grotesque Family, Thin';font-variant-ligatures:normal;font-variant-caps:normal;font-variant-numeric:normal;font-variant-east-asian:normal;text-align:start;letter-spacing:0.0635px;word-spacing:0px;writing-mode:lr-tb;direction:rtl;text-anchor:start;display:inline;fill:#e8e0c8;fill-rule:evenodd;stroke:#e8e0c8;stroke-width:0.1;stroke-dasharray:none"
   x="124.79896"
   y="116.24606"
   id="text3-3-88-6-1-5-7-4"><tspan
     sodipodi:role="line"
     id="tspan3-1-9-2-4-8-9-2"
     style="font-style:normal;font-variant:normal;font-weight:100;font-stretch:normal;font-size:2.46944px;line-height:0;font-family:'Liber Grotesque Family';-inkscape-font-specification:'Liber Grotesque Family, Thin';font-variant-ligatures:normal;font-variant-caps:normal;font-variant-numeric:normal;font-variant-east-asian:normal;stroke-width:0.1;stroke-dasharray:none"
     x="124.86246"
     y="116.24606">gate</tspan></text></svg>
