<?xml version="1.0" encoding="UTF-8" standalone="no"?>
<svg
   width="16mm"
   height="16mm"
   viewBox="0 0 100 100"
   version="1.1"
   id="svg42"
   sodipodi:docname="clairaudient_fine_indicator_small.svg"
   inkscape:version="1.4.2 (ebf0e940, 2025-05-08)"
   xml:space="preserve"
   xmlns:inkscape="http://www.inkscape.org/namespaces/inkscape"
   xmlns:sodipodi="http://sodipodi.sourceforge.net/DTD/sodipodi-0.dtd"
   xmlns="http://www.w3.org/2000/svg"
   xmlns:svg="http://www.w3.org/2000/svg"><sodipodi:namedview
     id="namedview42"
     pagecolor="#505050"
     bordercolor="#eeeeee"
     borderopacity="1"
     inkscape:showpageshadow="0"
     inkscape:pageopacity="0"
     inkscape:pagecheckerboard="0"
     inkscape:deskcolor="#505050"
     inkscape:document-units="mm"
     inkscape:zoom="12.285751"
     inkscape:cx="32.639437"
     inkscape:cy="28.366194"
     inkscape:window-width="1800"
     inkscape:window-height="1097"
     inkscape:window-x="0"
     inkscape:window-y="44"
     inkscape:window-maximized="1"
     inkscape:current-layer="g42" /><defs
     id="defs1"><style
       id="style1">
      .tick-major { stroke:#e9e4d3; stroke-width:1.0; stroke-linecap:round; opacity:0.88; }
      .tick-minor { stroke:#e9e4d3; stroke-width:0.6; stroke-linecap:round; opacity:0.55; }
      .label-shadow { fill:#0a0a0a; font-family:&quot;Futura&quot;,&quot;Futura PT&quot;,&quot;Trebuchet MS&quot;,Arial,sans-serif; font-size:5.2px; font-weight:700; text-anchor:middle; dominant-baseline:middle; opacity:0.26; }
      .label-main { fill:#e9e4d3; font-family:&quot;Futura&quot;,&quot;Futura PT&quot;,&quot;Trebuchet MS&quot;,Arial,sans-serif; font-size:5.2px; font-weight:700; text-anchor:middle; dominant-baseline:middle; opacity:0.9; }
      .label-highlight { fill:#f5f2e6; font-family:&quot;Futura&quot;,&quot;Futura PT&quot;,&quot;Trebuchet MS&quot;,Arial,sans-serif; font-size:5.2px; font-weight:700; text-anchor:middle; dominant-baseline:middle; opacity:0.45; }
    </style><radialGradient
       id="shadow"
       cx="50"
       cy="52"
       r="45"
       gradientUnits="userSpaceOnUse"
       gradientTransform="translate(-0.39062638,-0.39062638)"><stop
         offset="0.6"
         stop-color="#000000"
         stop-opacity="0"
         id="stop1" /><stop
         offset="0.9"
         stop-color="#000000"
         stop-opacity="0.45"
         id="stop2" /><stop
         offset="1"
         stop-color="#000000"
         stop-opacity="0"
         id="stop3" /></radialGradient><linearGradient
       id="skirtBase"
       x1="50"
       y1="5"
       x2="50"
       y2="95"
       gradientUnits="userSpaceOnUse"
       gradientTransform="translate(-0.39062638,-0.39062638)"><stop
         offset="0%"
         stop-color="#4b4b4b"
         id="stop4" /><stop
         offset="38%"
         stop-color="#3a3a3a"
         id="stop5" /><stop
         offset="74%"
         stop-color="#262626"
         id="stop6" /><stop
         offset="100%"
         stop-color="#161616"
         id="stop7" /></linearGradient><radialGradient
       id="skirtHighlight"
       cx="50"
       cy="32"
       r="34"
       gradientUnits="userSpaceOnUse"
       gradientTransform="translate(-0.39062638,-0.39062638)"><stop
         offset="0%"
         stop-color="#f5f2e6"
         stop-opacity="0.18"
         id="stop8" /><stop
         offset="60%"
         stop-color="#f5f2e6"
         stop-opacity="0.05"
         id="stop9" /><stop
         offset="100%"
         stop-color="#f5f2e6"
         stop-opacity="0"
         id="stop10" /></radialGradient><radialGradient
       id="skirtShadow"
       cx="50"
       cy="72"
       r="34"
       gradientUnits="userSpaceOnUse"
       gradientTransform="translate(-0.39062638,-0.39062638)"><stop
         offset="0%"
         stop-color="#000000"
         stop-opacity="0.22"
         id="stop11" /><stop
         offset="70%"
         stop-color="#000000"
         stop-opacity="0.08"
         id="stop12" /><stop
         offset="100%"
         stop-color="#000000"
         stop-opacity="0"
         id="stop13" /></radialGradient><linearGradient
       id="knobBase"
       x1="50"
       y1="18"
       x2="50"
       y2="82"
       gradientUnits="userSpaceOnUse"
       gradientTransform="translate(-0.39062638,-0.39062638)"><stop
         offset="0%"
         stop-color="#222222"
         id="stop14" /><stop
         offset="40%"
         stop-color="#1d1d1d"
         id="stop15" /><stop
         offset="70%"
         stop-color="#1a1a1a"
         id="stop16" /><stop
         offset="100%"
         stop-color="#151515"
         id="stop17" /></linearGradient><radialGradient
       id="knobHighlight"
       cx="50"
       cy="36"
       r="22"
       gradientUnits="userSpaceOnUse"
       gradientTransform="translate(-0.39062638,-0.39062638)"><stop
         offset="0%"
         stop-color="#f5f2e6"
         stop-opacity="0.035"
         id="stop18" /><stop
         offset="65%"
         stop-color="#f5f2e6"
         stop-opacity="0.012"
         id="stop19" /><stop
         offset="100%"
         stop-color="#f5f2e6"
         stop-opacity="0"
         id="stop20" /></radialGradient><radialGradient
       id="knobShadow"
       cx="50"
       cy="70"
       r="22"
       gradientUnits="userSpaceOnUse"
       gradientTransform="translate(-0.39062638,-0.39062638)"><stop
         offset="0%"
         stop-color="#000000"
         stop-opacity="0.06"
         id="stop21" /><stop
         offset="70%"
         stop-color="#000000"
         stop-opacity="0.02"
         id="stop22" /><stop
         offset="100%"
         stop-color="#000000"
         stop-opacity="0"
         id="stop23" /></radialGradient><linearGradient
       id="rimHighlight"
       x1="50"
       y1="28"
       x2="50"
       y2="72"
       gradientUnits="userSpaceOnUse"
       gradientTransform="translate(-0.39062638,-0.39062638)"><stop
         offset="0%"
         stop-color="#fefcf4"
         stop-opacity="0.06"
         id="stop24" /><stop
         offset="45%"
         stop-color="#fefcf4"
         stop-opacity="0.015"
         id="stop25" /><stop
         offset="75%"
         stop-color="#fefcf4"
         stop-opacity="0"
         id="stop26" /><stop
         offset="100%"
         stop-color="#fefcf4"
         stop-opacity="0.03"
         id="stop27" /></linearGradient><radialGradient
       id="shadow-7"
       cx="50"
       cy="52"
       r="45"
       gradientUnits="userSpaceOnUse"><stop
         offset="0.6"
         stop-color="#000000"
         stop-opacity="0"
         id="stop1-9" /><stop
         offset="0.9"
         stop-color="#000000"
         stop-opacity="0.45"
         id="stop2-2" /><stop
         offset="1"
         stop-color="#000000"
         stop-opacity="0"
         id="stop3-4" /></radialGradient><linearGradient
       id="skirtBase-8"
       x1="50"
       y1="5"
       x2="50"
       y2="95"
       gradientUnits="userSpaceOnUse"><stop
         offset="0%"
         stop-color="#4b4b4b"
         id="stop4-3" /><stop
         offset="38%"
         stop-color="#3a3a3a"
         id="stop5-9" /><stop
         offset="74%"
         stop-color="#262626"
         id="stop6-6" /><stop
         offset="100%"
         stop-color="#161616"
         id="stop7-4" /></linearGradient><radialGradient
       id="skirtHighlight-7"
       cx="50"
       cy="32"
       r="34"
       gradientUnits="userSpaceOnUse"><stop
         offset="0%"
         stop-color="#f5f2e6"
         stop-opacity="0.18"
         id="stop8-7" /><stop
         offset="60%"
         stop-color="#f5f2e6"
         stop-opacity="0.05"
         id="stop9-3" /><stop
         offset="100%"
         stop-color="#f5f2e6"
         stop-opacity="0"
         id="stop10-1" /></radialGradient><radialGradient
       id="skirtShadow-7"
       cx="50"
       cy="72"
       r="34"
       gradientUnits="userSpaceOnUse"><stop
         offset="0%"
         stop-color="#000000"
         stop-opacity="0.22"
         id="stop11-4" /><stop
         offset="70%"
         stop-color="#000000"
         stop-opacity="0.08"
         id="stop12-9" /><stop
         offset="100%"
         stop-color="#000000"
         stop-opacity="0"
         id="stop13-6" /></radialGradient><linearGradient
       id="knobBase-9"
       x1="50"
       y1="18"
       x2="50"
       y2="82"
       gradientUnits="userSpaceOnUse"><stop
         offset="0%"
         stop-color="#222222"
         id="stop14-8" /><stop
         offset="40%"
         stop-color="#1d1d1d"
         id="stop15-0" /><stop
         offset="70%"
         stop-color="#1a1a1a"
         id="stop16-3" /><stop
         offset="100%"
         stop-color="#151515"
         id="stop17-6" /></linearGradient><radialGradient
       id="knobHighlight-6"
       cx="50"
       cy="36"
       r="22"
       gradientUnits="userSpaceOnUse"><stop
         offset="0%"
         stop-color="#f5f2e6"
         stop-opacity="0.035"
         id="stop18-5" /><stop
         offset="65%"
         stop-color="#f5f2e6"
         stop-opacity="0.012"
         id="stop19-4" /><stop
         offset="100%"
         stop-color="#f5f2e6"
         stop-opacity="0"
         id="stop20-2" /></radialGradient><radialGradient
       id="knobShadow-3"
       cx="50"
       cy="70"
       r="22"
       gradientUnits="userSpaceOnUse"><stop
         offset="0%"
         stop-color="#000000"
         stop-opacity="0.06"
         id="stop21-1" /><stop
         offset="70%"
         stop-color="#000000"
         stop-opacity="0.02"
         id="stop22-2" /><stop
         offset="100%"
         stop-color="#000000"
         stop-opacity="0"
         id="stop23-1" /></radialGradient><linearGradient
       id="rimHighlight-2"
       x1="50"
       y1="28"
       x2="50"
       y2="72"
       gradientUnits="userSpaceOnUse"><stop
         offset="0%"
         stop-color="#fefcf4"
         stop-opacity="0.06"
         id="stop24-5" /><stop
         offset="45%"
         stop-color="#fefcf4"
         stop-opacity="0.015"
         id="stop25-6" /><stop
         offset="75%"
         stop-color="#fefcf4"
         stop-opacity="0"
         id="stop26-4" /><stop
         offset="100%"
         stop-color="#fefcf4"
         stop-opacity="0.03"
         id="stop27-8" /></linearGradient></defs><g
     id="g37"
     style="display:none"><circle
       cx="50"
       cy="50"
       r="46"
       fill="url(#shadow)"
       id="circle27"
       style="fill:url(#shadow-7)" /><circle
       cx="50"
       cy="50"
       r="45"
       fill="url(#skirtBase)"
       id="circle28"
       style="fill:url(#skirtBase-8)" /><circle
       cx="50"
       cy="50"
       r="45"
       fill="url(#skirtHighlight)"
       id="circle29"
       style="fill:url(#skirtHighlight-7)" /><circle
       cx="50"
       cy="50"
       r="45"
       fill="url(#skirtShadow)"
       id="circle30"
       style="fill:url(#skirtShadow-7)" /><circle
       cx="50"
       cy="50"
       r="36"
       fill="#1a1a1a"
       id="circle31" /><circle
       cx="50"
       cy="50"
       r="34.5"
       fill="url(#knobBase)"
       id="circle32"
       style="fill:url(#knobBase-9)" /><circle
       cx="50"
       cy="50"
       r="34.5"
       fill="url(#rimHighlight)"
       opacity="0.35"
       id="circle33"
       style="fill:url(#rimHighlight-2)" /><circle
       cx="50"
       cy="50"
       r="34.5"
       fill="url(#knobHighlight)"
       id="circle34"
       style="fill:url(#knobHighlight-6)" /><circle
       cx="50"
       cy="50"
       r="34.5"
       fill="url(#knobShadow)"
       id="circle35"
       style="fill:url(#knobShadow-3)" /><circle
       cx="50"
       cy="50"
       r="26"
       fill="#050505"
       id="circle36" /><circle
       cx="50"
       cy="50"
       r="18.5"
       fill="#101010"
       id="circle37" /></g><g
     transform="matrix(1.2024177,0,0,1.2738463,49.004506,50.361317)"
     id="g42"><!-- Minor ticks between 5-cent marks --><g
       transform="rotate(118.125,1.4874598,2.2205369)"
       id="g1"><g
         id="line1"
         class="tick-minor"
         style="opacity:0.55"><path
           style="baseline-shift:baseline;display:inline;overflow:visible;vector-effect:none;stroke-linecap:round;enable-background:accumulate;stop-color:#000000;stop-opacity:1"
           d="m 0,-27 v -5"
           id="path43" /><path
           style="baseline-shift:baseline;display:inline;overflow:visible;vector-effect:none;fill:#e9e4d3;stroke-linecap:round;enable-background:accumulate;stop-color:#000000;stop-opacity:1"
           d="M 0,-32.300781 A 0.30000001,0.30000001 0 0 0 -0.30078125,-32 v 5 A 0.30000001,0.30000001 0 0 0 0,-26.699219 0.30000001,0.30000001 0 0 0 0.30078125,-27 v -5 A 0.30000001,0.30000001 0 0 0 0,-32.300781 Z"
           id="path44" /></g></g><g
       transform="rotate(84.375,2.9271914,2.9516702)"
       id="g3"><g
         id="line3"
         class="tick-minor"
         style="opacity:0.55"><path
           style="baseline-shift:baseline;display:inline;overflow:visible;vector-effect:none;stroke-linecap:round;enable-background:accumulate;stop-color:#000000;stop-opacity:1"
           d="m 0,-27 v -5"
           id="path47" /><path
           style="baseline-shift:baseline;display:inline;overflow:visible;vector-effect:none;fill:#e9e4d3;stroke-linecap:round;enable-background:accumulate;stop-color:#000000;stop-opacity:1"
           d="M 0,-32.300781 A 0.30000001,0.30000001 0 0 0 -0.30078125,-32 v 5 A 0.30000001,0.30000001 0 0 0 0,-26.699219 0.30000001,0.30000001 0 0 0 0.30078125,-27 v -5 A 0.30000001,0.30000001 0 0 0 0,-32.300781 Z"
           id="path48" /></g></g><g
       transform="rotate(50.625,5.6547442,0.38209223)"
       id="g5"><g
         id="line5"
         class="tick-minor"
         style="opacity:0.55"><path
           style="baseline-shift:baseline;display:inline;overflow:visible;vector-effect:none;stroke-linecap:round;enable-background:accumulate;stop-color:#000000;stop-opacity:1"
           d="m 0,-27 v -5"
           id="path51" /><path
           style="baseline-shift:baseline;display:inline;overflow:visible;vector-effect:none;fill:#e9e4d3;stroke-linecap:round;enable-background:accumulate;stop-color:#000000;stop-opacity:1"
           d="M 0,-32.300781 A 0.30000001,0.30000001 0 0 0 -0.30078125,-32 v 5 A 0.30000001,0.30000001 0 0 0 0,-26.699219 0.30000001,0.30000001 0 0 0 0.30078125,-27 v -5 A 0.30000001,0.30000001 0 0 0 0,-32.300781 Z"
           id="path52" /></g></g><g
       transform="rotate(16.875,11.541123,3.2470813)"
       id="g7"><g
         id="line7"
         class="tick-minor"
         style="opacity:0.55"><path
           style="baseline-shift:baseline;display:inline;overflow:visible;vector-effect:none;stroke-linecap:round;enable-background:accumulate;stop-color:#000000;stop-opacity:1"
           d="m 0,-27 v -5"
           id="path55" /><path
           style="baseline-shift:baseline;display:inline;overflow:visible;vector-effect:none;fill:#e9e4d3;stroke-linecap:round;enable-background:accumulate;stop-color:#000000;stop-opacity:1"
           d="M 0,-32.300781 A 0.30000001,0.30000001 0 0 0 -0.30078125,-32 v 5 A 0.30000001,0.30000001 0 0 0 0,-26.699219 0.30000001,0.30000001 0 0 0 0.30078125,-27 v -5 A 0.30000001,0.30000001 0 0 0 0,-32.300781 Z"
           id="path56" /></g></g><g
       transform="matrix(0.96190823,-0.28689438,0.29179167,0.94576403,-0.73287739,-3.2107514)"
       id="g8"><g
         id="line8"
         class="tick-minor"
         style="opacity:0.55"><path
           style="baseline-shift:baseline;display:inline;overflow:visible;vector-effect:none;stroke-linecap:round;enable-background:accumulate;stop-color:#000000;stop-opacity:1"
           d="m 0,-27 v -5"
           id="path57" /><path
           style="baseline-shift:baseline;display:inline;overflow:visible;vector-effect:none;fill:#e9e4d3;stroke-linecap:round;enable-background:accumulate;stop-color:#000000;stop-opacity:1"
           d="M 0,-32.300781 A 0.30000001,0.30000001 0 0 0 -0.30078125,-32 v 5 A 0.30000001,0.30000001 0 0 0 0,-26.699219 0.30000001,0.30000001 0 0 0 0.30078125,-27 v -5 A 0.30000001,0.30000001 0 0 0 0,-32.300781 Z"
           id="path58" /></g></g><g
       transform="rotate(-50.625,-3.5409129,2.016752)"
       id="g10"><g
         id="line10"
         class="tick-minor"
         style="opacity:0.55"><path
           style="baseline-shift:baseline;display:inline;overflow:visible;vector-effect:none;stroke-linecap:round;enable-background:accumulate;stop-color:#000000;stop-opacity:1"
           d="m 0,-27 v -5"
           id="path61" /><path
           style="baseline-shift:baseline;display:inline;overflow:visible;vector-effect:none;fill:#e9e4d3;stroke-linecap:round;enable-background:accumulate;stop-color:#000000;stop-opacity:1"
           d="M 0,-32.300781 A 0.30000001,0.30000001 0 0 0 -0.30078125,-32 v 5 A 0.30000001,0.30000001 0 0 0 0,-26.699219 0.30000001,0.30000001 0 0 0 0.30078125,-27 v -5 A 0.30000001,0.30000001 0 0 0 0,-32.300781 Z"
           id="path62" /></g></g><g
       transform="rotate(-84.375,-2.0841382,2.110261)"
       id="g12"><g
         id="line12"
         class="tick-minor"
         style="opacity:0.55"><path
           style="baseline-shift:baseline;display:inline;overflow:visible;vector-effect:none;stroke-linecap:round;enable-background:accumulate;stop-color:#000000;stop-opacity:1"
           d="m 0,-27 v -5"
           id="path65" /><path
           style="baseline-shift:baseline;display:inline;overflow:visible;vector-effect:none;fill:#e9e4d3;stroke-linecap:round;enable-background:accumulate;stop-color:#000000;stop-opacity:1"
           d="M 0,-32.300781 A 0.30000001,0.30000001 0 0 0 -0.30078125,-32 v 5 A 0.30000001,0.30000001 0 0 0 0,-26.699219 0.30000001,0.30000001 0 0 0 0.30078125,-27 v -5 A 0.30000001,0.30000001 0 0 0 0,-32.300781 Z"
           id="path66" /></g></g><g
       transform="rotate(-118.125,-1.005805,1.6635119)"
       id="g14"><g
         id="line14"
         class="tick-minor"
         style="opacity:0.55"><path
           style="baseline-shift:baseline;display:inline;overflow:visible;vector-effect:none;stroke-linecap:round;enable-background:accumulate;stop-color:#000000;stop-opacity:1"
           d="m 0,-27 v -5"
           id="path69" /><path
           style="baseline-shift:baseline;display:inline;overflow:visible;vector-effect:none;fill:#e9e4d3;stroke-linecap:round;enable-background:accumulate;stop-color:#000000;stop-opacity:1"
           d="M 0,-32.300781 A 0.30000001,0.30000001 0 0 0 -0.30078125,-32 v 5 A 0.30000001,0.30000001 0 0 0 0,-26.699219 0.30000001,0.30000001 0 0 0 0.30078125,-27 v -5 A 0.30000001,0.30000001 0 0 0 0,-32.300781 Z"
           id="path70" /></g></g><!-- Major ticks and labels --><g
       transform="rotate(135,-0.6474326,-2.6687543)"
       id="g17"><path
         d="m -4.2822031,-37.4498 h 1.4923999 v 0.7852 h -1.4923999 z m 4.79440323,1.7836 H -2.6441998 l 0.9724,-1.0088 q 0.3848,-0.4004 0.6032,-0.676 0.21839998,-0.2808 0.32239998,-0.4732 0.10919999,-0.1924 0.13519999,-0.312 0.026,-0.1196 0.026,-0.2028 0,-0.0884 -0.0312,-0.1716 -0.026,-0.0832 -0.0832,-0.1456 -0.0572,-0.0676 -0.1404,-0.104 -0.078,-0.0416 -0.18719997,-0.0416 -0.208,0 -0.3276,0.1352 -0.1144,0.1352 -0.1144,0.338 0,0.0572 0.0156,0.1664 h -1.1128 q 0,-0.3432 0.1092,-0.624 0.1144,-0.2808 0.3172,-0.4836 0.2028,-0.2028 0.4784,-0.312 0.2808,-0.1092 0.6136,-0.1092 0.32759997,0 0.60319996,0.104 0.28079999,0.104 0.48359998,0.2912 0.20279999,0.1872 0.31719999,0.4472 0.11439999,0.2548 0.11439999,0.5564 0,0.3224 -0.14039999,0.598 -0.1352,0.2704 -0.43679999,0.5564 l -0.64999997,0.6084 h 1.26879995 z m 1.34680137,-1.9656 q 0,0.26 0.0468,0.4732 0.0468,0.2132 0.13,0.3692 0.0884,0.156 0.208,0.2444 0.1196,0.0832 0.2704,0.0832 0.1456,0 0.2652,-0.0832 0.1248,-0.0884 0.208,-0.2444 0.0832,-0.156 0.13,-0.3692 0.0468,-0.2132 0.0468,-0.4732 0,-0.2548 -0.0468,-0.468 -0.0468,-0.2184 -0.13,-0.3692 -0.0832,-0.156 -0.208,-0.2392 -0.1196,-0.0884 -0.2652,-0.0884 -0.1508,0 -0.2704,0.0884 -0.1196,0.0832 -0.208,0.2392 -0.0832,0.1508 -0.13,0.3692 -0.0468,0.2132 -0.0468,0.468 z m -1.00879993,0 q 0,-0.468 0.1196,-0.8476 0.12480003,-0.3848 0.34320003,-0.6552 0.2235999,-0.2704 0.5251999,-0.416 0.3068,-0.1508 0.676,-0.1508 0.364,0 0.6708,0.1508 0.3068,0.1456 0.5252,0.416 0.2184,0.2704 0.338,0.6552 0.1248,0.3796 0.1248,0.8476 0,0.468 -0.1248,0.8528 -0.1196,0.3796 -0.338,0.6552 -0.2184,0.2704 -0.5252,0.4212 -0.3068,0.1456 -0.6708,0.1456 -0.3692,0 -0.676,-0.1456 -0.3016,-0.1508 -0.5251999,-0.4212 -0.2184,-0.2756 -0.34320003,-0.6552 -0.1196,-0.3848 -0.1196,-0.8528 z"
         id="text15"
         class="label-shadow"
         style="font-weight:700;font-size:5.2px;font-family:Futura, 'Futura PT', 'Trebuchet MS', Arial, sans-serif;dominant-baseline:middle;text-anchor:middle;opacity:0.0676;fill:#0a0a0a"
         transform="translate(0.4,0.7)"
         aria-label="-20" /><path
         d="m -4.2822031,-37.4498 h 1.4923999 v 0.7852 h -1.4923999 z m 4.79440323,1.7836 H -2.6441998 l 0.9724,-1.0088 q 0.3848,-0.4004 0.6032,-0.676 0.21839998,-0.2808 0.32239998,-0.4732 0.10919999,-0.1924 0.13519999,-0.312 0.026,-0.1196 0.026,-0.2028 0,-0.0884 -0.0312,-0.1716 -0.026,-0.0832 -0.0832,-0.1456 -0.0572,-0.0676 -0.1404,-0.104 -0.078,-0.0416 -0.18719997,-0.0416 -0.208,0 -0.3276,0.1352 -0.1144,0.1352 -0.1144,0.338 0,0.0572 0.0156,0.1664 h -1.1128 q 0,-0.3432 0.1092,-0.624 0.1144,-0.2808 0.3172,-0.4836 0.2028,-0.2028 0.4784,-0.312 0.2808,-0.1092 0.6136,-0.1092 0.32759997,0 0.60319996,0.104 0.28079999,0.104 0.48359998,0.2912 0.20279999,0.1872 0.31719999,0.4472 0.11439999,0.2548 0.11439999,0.5564 0,0.3224 -0.14039999,0.598 -0.1352,0.2704 -0.43679999,0.5564 l -0.64999997,0.6084 h 1.26879995 z m 1.34680137,-1.9656 q 0,0.26 0.0468,0.4732 0.0468,0.2132 0.13,0.3692 0.0884,0.156 0.208,0.2444 0.1196,0.0832 0.2704,0.0832 0.1456,0 0.2652,-0.0832 0.1248,-0.0884 0.208,-0.2444 0.0832,-0.156 0.13,-0.3692 0.0468,-0.2132 0.0468,-0.4732 0,-0.2548 -0.0468,-0.468 -0.0468,-0.2184 -0.13,-0.3692 -0.0832,-0.156 -0.208,-0.2392 -0.1196,-0.0884 -0.2652,-0.0884 -0.1508,0 -0.2704,0.0884 -0.1196,0.0832 -0.208,0.2392 -0.0832,0.1508 -0.13,0.3692 -0.0468,0.2132 -0.0468,0.468 z m -1.00879993,0 q 0,-0.468 0.1196,-0.8476 0.12480003,-0.3848 0.34320003,-0.6552 0.2235999,-0.2704 0.5251999,-0.416 0.3068,-0.1508 0.676,-0.1508 0.364,0 0.6708,0.1508 0.3068,0.1456 0.5252,0.416 0.2184,0.2704 0.338,0.6552 0.1248,0.3796 0.1248,0.8476 0,0.468 -0.1248,0.8528 -0.1196,0.3796 -0.338,0.6552 -0.2184,0.2704 -0.5252,0.4212 -0.3068,0.1456 -0.6708,0.1456 -0.3692,0 -0.676,-0.1456 -0.3016,-0.1508 -0.5251999,-0.4212 -0.2184,-0.2756 -0.34320003,-0.6552 -0.1196,-0.3848 -0.1196,-0.8528 z"
         id="text16"
         class="label-main"
         style="font-weight:700;font-size:5.2px;font-family:Futura, 'Futura PT', 'Trebuchet MS', Arial, sans-serif;dominant-baseline:middle;text-anchor:middle;opacity:0.81;fill:#e9e4d3"
         aria-label="-20" /><path
         d="m -4.2822031,-37.4498 h 1.4923999 v 0.7852 h -1.4923999 z m 4.79440323,1.7836 H -2.6441998 l 0.9724,-1.0088 q 0.3848,-0.4004 0.6032,-0.676 0.21839998,-0.2808 0.32239998,-0.4732 0.10919999,-0.1924 0.13519999,-0.312 0.026,-0.1196 0.026,-0.2028 0,-0.0884 -0.0312,-0.1716 -0.026,-0.0832 -0.0832,-0.1456 -0.0572,-0.0676 -0.1404,-0.104 -0.078,-0.0416 -0.18719997,-0.0416 -0.208,0 -0.3276,0.1352 -0.1144,0.1352 -0.1144,0.338 0,0.0572 0.0156,0.1664 h -1.1128 q 0,-0.3432 0.1092,-0.624 0.1144,-0.2808 0.3172,-0.4836 0.2028,-0.2028 0.4784,-0.312 0.2808,-0.1092 0.6136,-0.1092 0.32759997,0 0.60319996,0.104 0.28079999,0.104 0.48359998,0.2912 0.20279999,0.1872 0.31719999,0.4472 0.11439999,0.2548 0.11439999,0.5564 0,0.3224 -0.14039999,0.598 -0.1352,0.2704 -0.43679999,0.5564 l -0.64999997,0.6084 h 1.26879995 z m 1.34680137,-1.9656 q 0,0.26 0.0468,0.4732 0.0468,0.2132 0.13,0.3692 0.0884,0.156 0.208,0.2444 0.1196,0.0832 0.2704,0.0832 0.1456,0 0.2652,-0.0832 0.1248,-0.0884 0.208,-0.2444 0.0832,-0.156 0.13,-0.3692 0.0468,-0.2132 0.0468,-0.4732 0,-0.2548 -0.0468,-0.468 -0.0468,-0.2184 -0.13,-0.3692 -0.0832,-0.156 -0.208,-0.2392 -0.1196,-0.0884 -0.2652,-0.0884 -0.1508,0 -0.2704,0.0884 -0.1196,0.0832 -0.208,0.2392 -0.0832,0.1508 -0.13,0.3692 -0.0468,0.2132 -0.0468,0.468 z m -1.00879993,0 q 0,-0.468 0.1196,-0.8476 0.12480003,-0.3848 0.34320003,-0.6552 0.2235999,-0.2704 0.5251999,-0.416 0.3068,-0.1508 0.676,-0.1508 0.364,0 0.6708,0.1508 0.3068,0.1456 0.5252,0.416 0.2184,0.2704 0.338,0.6552 0.1248,0.3796 0.1248,0.8476 0,0.468 -0.1248,0.8528 -0.1196,0.3796 -0.338,0.6552 -0.2184,0.2704 -0.5252,0.4212 -0.3068,0.1456 -0.6708,0.1456 -0.3692,0 -0.676,-0.1456 -0.3016,-0.1508 -0.5251999,-0.4212 -0.2184,-0.2756 -0.34320003,-0.6552 -0.1196,-0.3848 -0.1196,-0.8528 z"
         id="text17"
         class="label-highlight"
         style="font-weight:700;font-size:5.2px;font-family:Futura, 'Futura PT', 'Trebuchet MS', Arial, sans-serif;dominant-baseline:middle;text-anchor:middle;opacity:0.2025;fill:#f5f2e6"
         transform="translate(-0.35,-0.5)"
         aria-label="-20" /></g><g
       transform="rotate(101.25,-0.77668001,-1.3243462)"
       id="g20"><path
         d="m -4.1184039,-36.4498 h 1.4924 v 0.7852 h -1.4924 z m 2.8704034,-1.274 h -0.572 v -0.8632 h 1.59119994 v 3.9208 H -1.2480005 Z m 4.7424027,0 h -1.3572 l -0.0676,0.4316 q 0.0936,-0.0104 0.1716,-0.0156 0.078,-0.0104 0.1612,-0.0104 0.2964,0 0.5512,0.104 0.2548,0.104 0.4368,0.286 0.182,0.182 0.286,0.4368 0.104,0.2548 0.104,0.5564 0,0.3172 -0.1196,0.572 -0.1144,0.2548 -0.3276,0.4368 -0.2132,0.1768 -0.52,0.2704 -0.3068,0.0988 -0.6812,0.0988 -0.3536,0 -0.6759999,-0.0884 -0.3172,-0.0832 -0.59800003,-0.26 l 0.15080003,-0.9568 q 0.26,0.2236 0.5303999,0.3432 0.2704,0.1144 0.5148,0.1144 0.312,0 0.494,-0.1664 0.182,-0.1716 0.182,-0.4212 0,-0.2912 -0.2444,-0.468 -0.2444,-0.182 -0.6396,-0.182 -0.1768,0 -0.3639999,0.0416 -0.1872,0.0364 -0.3692,0.1196 l 0.3276,-2.106 h 2.0539999 z"
         id="text18"
         class="label-shadow"
         style="font-weight:700;font-size:5.2px;font-family:Futura, 'Futura PT', 'Trebuchet MS', Arial, sans-serif;dominant-baseline:middle;text-anchor:middle;opacity:0.0676;fill:#0a0a0a"
         transform="translate(0.4,0.7)"
         aria-label="-15" /><path
         d="m -4.1184039,-36.4498 h 1.4924 v 0.7852 h -1.4924 z m 2.8704034,-1.274 h -0.572 v -0.8632 h 1.59119994 v 3.9208 H -1.2480005 Z m 4.7424027,0 h -1.3572 l -0.0676,0.4316 q 0.0936,-0.0104 0.1716,-0.0156 0.078,-0.0104 0.1612,-0.0104 0.2964,0 0.5512,0.104 0.2548,0.104 0.4368,0.286 0.182,0.182 0.286,0.4368 0.104,0.2548 0.104,0.5564 0,0.3172 -0.1196,0.572 -0.1144,0.2548 -0.3276,0.4368 -0.2132,0.1768 -0.52,0.2704 -0.3068,0.0988 -0.6812,0.0988 -0.3536,0 -0.6759999,-0.0884 -0.3172,-0.0832 -0.59800003,-0.26 l 0.15080003,-0.9568 q 0.26,0.2236 0.5303999,0.3432 0.2704,0.1144 0.5148,0.1144 0.312,0 0.494,-0.1664 0.182,-0.1716 0.182,-0.4212 0,-0.2912 -0.2444,-0.468 -0.2444,-0.182 -0.6396,-0.182 -0.1768,0 -0.3639999,0.0416 -0.1872,0.0364 -0.3692,0.1196 l 0.3276,-2.106 h 2.0539999 z"
         id="text19"
         class="label-main"
         style="font-weight:700;font-size:5.2px;font-family:Futura, 'Futura PT', 'Trebuchet MS', Arial, sans-serif;dominant-baseline:middle;text-anchor:middle;opacity:0.81;fill:#e9e4d3"
         aria-label="-15" /><path
         d="m -4.1184039,-36.4498 h 1.4924 v 0.7852 h -1.4924 z m 2.8704034,-1.274 h -0.572 v -0.8632 h 1.59119994 v 3.9208 H -1.2480005 Z m 4.7424027,0 h -1.3572 l -0.0676,0.4316 q 0.0936,-0.0104 0.1716,-0.0156 0.078,-0.0104 0.1612,-0.0104 0.2964,0 0.5512,0.104 0.2548,0.104 0.4368,0.286 0.182,0.182 0.286,0.4368 0.104,0.2548 0.104,0.5564 0,0.3172 -0.1196,0.572 -0.1144,0.2548 -0.3276,0.4368 -0.2132,0.1768 -0.52,0.2704 -0.3068,0.0988 -0.6812,0.0988 -0.3536,0 -0.6759999,-0.0884 -0.3172,-0.0832 -0.59800003,-0.26 l 0.15080003,-0.9568 q 0.26,0.2236 0.5303999,0.3432 0.2704,0.1144 0.5148,0.1144 0.312,0 0.494,-0.1664 0.182,-0.1716 0.182,-0.4212 0,-0.2912 -0.2444,-0.468 -0.2444,-0.182 -0.6396,-0.182 -0.1768,0 -0.3639999,0.0416 -0.1872,0.0364 -0.3692,0.1196 l 0.3276,-2.106 h 2.0539999 z"
         id="text20"
         class="label-highlight"
         style="font-weight:700;font-size:5.2px;font-family:Futura, 'Futura PT', 'Trebuchet MS', Arial, sans-serif;dominant-baseline:middle;text-anchor:middle;opacity:0.2025;fill:#f5f2e6"
         aria-label="-15"
         transform="translate(-0.35,-0.5)" /></g><g
       transform="rotate(67.5,-1.0317073,-1.2853305)"
       id="g23"><path
         d="m -4.1782008,-35.4498 h 1.4924 v 0.7852 h -1.4924 z m 2.8704034,-1.274 h -0.572 v -0.8632 h 1.59119994 v 3.9208 H -1.3077974 Z m 3.0627968,1.092 q 0,0.26 0.0468,0.4732 0.0468,0.2132 0.13,0.3692 0.0884,0.156 0.208,0.2444 0.1196,0.0832 0.2704,0.0832 0.1456,0 0.2652,-0.0832 0.1248,-0.0884 0.208,-0.2444 0.0832,-0.156 0.13,-0.3692 0.0468,-0.2132 0.0468,-0.4732 0,-0.2548 -0.0468,-0.468 -0.0468,-0.2184 -0.13,-0.3692 -0.0832,-0.156 -0.208,-0.2392 -0.1196,-0.0884 -0.2652,-0.0884 -0.1508,0 -0.2704,0.0884 -0.1196,0.0832 -0.208,0.2392 -0.0832,0.1508 -0.13,0.3692 -0.0468,0.2132 -0.0468,0.468 z m -1.00879992,0 q 0,-0.468 0.11959999,-0.8476 0.1248,-0.3848 0.34320003,-0.6552 0.2235999,-0.2704 0.5251999,-0.416 0.3068,-0.1508 0.676,-0.1508 0.364,0 0.6708,0.1508 0.3068,0.1456 0.5252,0.416 0.2184,0.2704 0.338,0.6552 0.1248,0.3796 0.1248,0.8476 0,0.468 -0.1248,0.8528 -0.1196,0.3796 -0.338,0.6552 -0.2184,0.2704 -0.5252,0.4212 -0.3068,0.1456 -0.6708,0.1456 -0.3692,0 -0.676,-0.1456 -0.3016,-0.1508 -0.5251999,-0.4212 -0.21840003,-0.2756 -0.34320003,-0.6552 -0.11959999,-0.3848 -0.11959999,-0.8528 z"
         id="text21"
         class="label-shadow"
         style="font-weight:700;font-size:5.2px;font-family:Futura, 'Futura PT', 'Trebuchet MS', Arial, sans-serif;dominant-baseline:middle;text-anchor:middle;opacity:0.0676;fill:#0a0a0a"
         transform="translate(0.4,0.7)"
         aria-label="-10" /><path
         d="m -4.1782008,-35.4498 h 1.4924 v 0.7852 h -1.4924 z m 2.8704034,-1.274 h -0.572 v -0.8632 h 1.59119994 v 3.9208 H -1.3077974 Z m 3.0627968,1.092 q 0,0.26 0.0468,0.4732 0.0468,0.2132 0.13,0.3692 0.0884,0.156 0.208,0.2444 0.1196,0.0832 0.2704,0.0832 0.1456,0 0.2652,-0.0832 0.1248,-0.0884 0.208,-0.2444 0.0832,-0.156 0.13,-0.3692 0.0468,-0.2132 0.0468,-0.4732 0,-0.2548 -0.0468,-0.468 -0.0468,-0.2184 -0.13,-0.3692 -0.0832,-0.156 -0.208,-0.2392 -0.1196,-0.0884 -0.2652,-0.0884 -0.1508,0 -0.2704,0.0884 -0.1196,0.0832 -0.208,0.2392 -0.0832,0.1508 -0.13,0.3692 -0.0468,0.2132 -0.0468,0.468 z m -1.00879992,0 q 0,-0.468 0.11959999,-0.8476 0.1248,-0.3848 0.34320003,-0.6552 0.2235999,-0.2704 0.5251999,-0.416 0.3068,-0.1508 0.676,-0.1508 0.364,0 0.6708,0.1508 0.3068,0.1456 0.5252,0.416 0.2184,0.2704 0.338,0.6552 0.1248,0.3796 0.1248,0.8476 0,0.468 -0.1248,0.8528 -0.1196,0.3796 -0.338,0.6552 -0.2184,0.2704 -0.5252,0.4212 -0.3068,0.1456 -0.6708,0.1456 -0.3692,0 -0.676,-0.1456 -0.3016,-0.1508 -0.5251999,-0.4212 -0.21840003,-0.2756 -0.34320003,-0.6552 -0.11959999,-0.3848 -0.11959999,-0.8528 z"
         id="text22"
         class="label-main"
         style="font-weight:700;font-size:5.2px;font-family:Futura, 'Futura PT', 'Trebuchet MS', Arial, sans-serif;dominant-baseline:middle;text-anchor:middle;opacity:0.81;fill:#e9e4d3"
         aria-label="-10" /><path
         d="m -4.1782008,-35.4498 h 1.4924 v 0.7852 h -1.4924 z m 2.8704034,-1.274 h -0.572 v -0.8632 h 1.59119994 v 3.9208 H -1.3077974 Z m 3.0627968,1.092 q 0,0.26 0.0468,0.4732 0.0468,0.2132 0.13,0.3692 0.0884,0.156 0.208,0.2444 0.1196,0.0832 0.2704,0.0832 0.1456,0 0.2652,-0.0832 0.1248,-0.0884 0.208,-0.2444 0.0832,-0.156 0.13,-0.3692 0.0468,-0.2132 0.0468,-0.4732 0,-0.2548 -0.0468,-0.468 -0.0468,-0.2184 -0.13,-0.3692 -0.0832,-0.156 -0.208,-0.2392 -0.1196,-0.0884 -0.2652,-0.0884 -0.1508,0 -0.2704,0.0884 -0.1196,0.0832 -0.208,0.2392 -0.0832,0.1508 -0.13,0.3692 -0.0468,0.2132 -0.0468,0.468 z m -1.00879992,0 q 0,-0.468 0.11959999,-0.8476 0.1248,-0.3848 0.34320003,-0.6552 0.2235999,-0.2704 0.5251999,-0.416 0.3068,-0.1508 0.676,-0.1508 0.364,0 0.6708,0.1508 0.3068,0.1456 0.5252,0.416 0.2184,0.2704 0.338,0.6552 0.1248,0.3796 0.1248,0.8476 0,0.468 -0.1248,0.8528 -0.1196,0.3796 -0.338,0.6552 -0.2184,0.2704 -0.5252,0.4212 -0.3068,0.1456 -0.6708,0.1456 -0.3692,0 -0.676,-0.1456 -0.3016,-0.1508 -0.5251999,-0.4212 -0.21840003,-0.2756 -0.34320003,-0.6552 -0.11959999,-0.3848 -0.11959999,-0.8528 z"
         id="text23"
         class="label-highlight"
         style="font-weight:700;font-size:5.2px;font-family:Futura, 'Futura PT', 'Trebuchet MS', Arial, sans-serif;dominant-baseline:middle;text-anchor:middle;opacity:0.2025;fill:#f5f2e6"
         transform="translate(-0.35,-0.5)"
         aria-label="-10" /></g><g
       transform="rotate(33.75,-1.9777178,-1.2369784)"
       id="g26"><path
         d="m -2.5142024,-34.4498 h 1.4923999 v 0.7852 h -1.4923999 z m 4.4044033,-1.274 H 0.53300092 l -0.0676,0.4316 q 0.0936,-0.0104 0.17159999,-0.0156 0.078,-0.0104 0.16119999,-0.0104 0.2964,0 0.5512,0.104 0.2548,0.104 0.4368,0.286 0.182,0.182 0.286,0.4368 0.104,0.2548 0.104,0.5564 0,0.3172 -0.1196,0.572 -0.1144,0.2548 -0.3276,0.4368 -0.2132,0.1768 -0.52,0.2704 -0.3068,0.0988 -0.68119999,0.0988 -0.35359998,0 -0.67599997,-0.0884 -0.31719999,-0.0832 -0.59799998,-0.26 l 0.1508,-0.9568 q 0.25999999,0.2236 0.53039998,0.3432 0.27039999,0.1144 0.51479998,0.1144 0.31199999,0 0.49399998,-0.1664 0.182,-0.1716 0.182,-0.4212 0,-0.2912 -0.2444,-0.468 -0.24439999,-0.182 -0.63959998,-0.182 -0.17679999,0 -0.36399998,0.0416 -0.1872,0.0364 -0.36919999,0.1196 l 0.32759999,-2.106 H 1.8902009 Z"
         id="text24"
         class="label-shadow"
         style="font-weight:700;font-size:5.2px;font-family:Futura, 'Futura PT', 'Trebuchet MS', Arial, sans-serif;dominant-baseline:middle;text-anchor:middle;opacity:0.0676;fill:#0a0a0a"
         transform="translate(0.4,0.7)"
         aria-label="-5" /><path
         d="m -2.5142024,-34.4498 h 1.4923999 v 0.7852 h -1.4923999 z m 4.4044033,-1.274 H 0.53300092 l -0.0676,0.4316 q 0.0936,-0.0104 0.17159999,-0.0156 0.078,-0.0104 0.16119999,-0.0104 0.2964,0 0.5512,0.104 0.2548,0.104 0.4368,0.286 0.182,0.182 0.286,0.4368 0.104,0.2548 0.104,0.5564 0,0.3172 -0.1196,0.572 -0.1144,0.2548 -0.3276,0.4368 -0.2132,0.1768 -0.52,0.2704 -0.3068,0.0988 -0.68119999,0.0988 -0.35359998,0 -0.67599997,-0.0884 -0.31719999,-0.0832 -0.59799998,-0.26 l 0.1508,-0.9568 q 0.25999999,0.2236 0.53039998,0.3432 0.27039999,0.1144 0.51479998,0.1144 0.31199999,0 0.49399998,-0.1664 0.182,-0.1716 0.182,-0.4212 0,-0.2912 -0.2444,-0.468 -0.24439999,-0.182 -0.63959998,-0.182 -0.17679999,0 -0.36399998,0.0416 -0.1872,0.0364 -0.36919999,0.1196 l 0.32759999,-2.106 H 1.8902009 Z"
         id="text25"
         class="label-main"
         style="font-weight:700;font-size:5.2px;font-family:Futura, 'Futura PT', 'Trebuchet MS', Arial, sans-serif;dominant-baseline:middle;text-anchor:middle;opacity:0.81;fill:#e9e4d3"
         aria-label="-5" /><path
         d="m -2.5142024,-34.4498 h 1.4923999 v 0.7852 h -1.4923999 z m 4.4044033,-1.274 H 0.53300092 l -0.0676,0.4316 q 0.0936,-0.0104 0.17159999,-0.0156 0.078,-0.0104 0.16119999,-0.0104 0.2964,0 0.5512,0.104 0.2548,0.104 0.4368,0.286 0.182,0.182 0.286,0.4368 0.104,0.2548 0.104,0.5564 0,0.3172 -0.1196,0.572 -0.1144,0.2548 -0.3276,0.4368 -0.2132,0.1768 -0.52,0.2704 -0.3068,0.0988 -0.68119999,0.0988 -0.35359998,0 -0.67599997,-0.0884 -0.31719999,-0.0832 -0.59799998,-0.26 l 0.1508,-0.9568 q 0.25999999,0.2236 0.53039998,0.3432 0.27039999,0.1144 0.51479998,0.1144 0.31199999,0 0.49399998,-0.1664 0.182,-0.1716 0.182,-0.4212 0,-0.2912 -0.2444,-0.468 -0.24439999,-0.182 -0.63959998,-0.182 -0.17679999,0 -0.36399998,0.0416 -0.1872,0.0364 -0.36919999,0.1196 l 0.32759999,-2.106 H 1.8902009 Z"
         id="text26"
         class="label-highlight"
         style="font-weight:700;font-size:5.2px;font-family:Futura, 'Futura PT', 'Trebuchet MS', Arial, sans-serif;dominant-baseline:middle;text-anchor:middle;opacity:0.2025;fill:#f5f2e6"
         aria-label="-5"
         transform="translate(-0.35,-0.5)" /></g><g
       id="g29"
       transform="translate(0,1.8951955)"><path
         d="m -0.65520077,-34.1318 q 0,0.26 0.0468,0.4732 0.0468,0.2132 0.12999999,0.3692 0.0884,0.156 0.208,0.2444 0.11959999,0.0832 0.270399986543,0.0832 0.145599993457,0 0.265199993457,-0.0832 0.12479999,-0.0884 0.20799999,-0.2444 0.0832,-0.156 0.12999999,-0.3692 0.0468,-0.2132 0.0468,-0.4732 0,-0.2548 -0.0468,-0.468 -0.0468,-0.2184 -0.12999999,-0.3692 -0.0832,-0.156 -0.20799999,-0.2392 -0.1196,-0.0884 -0.265199993457,-0.0884 -0.150799996543,0 -0.270399986543,0.0884 -0.1196,0.0832 -0.208,0.2392 -0.0832,0.1508 -0.12999999,0.3692 -0.0468,0.2132 -0.0468,0.468 z m -1.00879993,0 q 0,-0.468 0.1196,-0.8476 0.1248,-0.3848 0.3432,-0.6552 0.22359994,-0.2704 0.52519993,-0.416 0.30679999,-0.1508 0.675999976543,-0.1508 0.363999983457,0 0.670799973457,0.1508 0.30679999,0.1456 0.52520002,0.416 0.2184,0.2704 0.338,0.6552 0.1247999,0.3796 0.1247999,0.8476 0,0.468 -0.1247999,0.8528 -0.1196,0.3796 -0.338,0.6552 -0.21840003,0.2704 -0.52520002,0.4212 -0.30679999,0.1456 -0.670799973457,0.1456 -0.369199986543,0 -0.675999976543,-0.1456 -0.30159999,-0.1508 -0.52519993,-0.4212 -0.2184,-0.2756 -0.3432,-0.6552 -0.1196,-0.3848 -0.1196,-0.8528 z"
         id="text27"
         class="label-shadow"
         style="font-weight:700;font-size:5.2px;font-family:Futura, 'Futura PT', 'Trebuchet MS', Arial, sans-serif;dominant-baseline:middle;text-anchor:middle;opacity:0.0676;fill:#0a0a0a"
         transform="translate(0.4,0.7)"
         aria-label="0" /><path
         d="m -0.65520077,-34.1318 q 0,0.26 0.0468,0.4732 0.0468,0.2132 0.12999999,0.3692 0.0884,0.156 0.208,0.2444 0.11959999,0.0832 0.270399986543,0.0832 0.145599993457,0 0.265199993457,-0.0832 0.12479999,-0.0884 0.20799999,-0.2444 0.0832,-0.156 0.12999999,-0.3692 0.0468,-0.2132 0.0468,-0.4732 0,-0.2548 -0.0468,-0.468 -0.0468,-0.2184 -0.12999999,-0.3692 -0.0832,-0.156 -0.20799999,-0.2392 -0.1196,-0.0884 -0.265199993457,-0.0884 -0.150799996543,0 -0.270399986543,0.0884 -0.1196,0.0832 -0.208,0.2392 -0.0832,0.1508 -0.12999999,0.3692 -0.0468,0.2132 -0.0468,0.468 z m -1.00879993,0 q 0,-0.468 0.1196,-0.8476 0.1248,-0.3848 0.3432,-0.6552 0.22359994,-0.2704 0.52519993,-0.416 0.30679999,-0.1508 0.675999976543,-0.1508 0.363999983457,0 0.670799973457,0.1508 0.30679999,0.1456 0.52520002,0.416 0.2184,0.2704 0.338,0.6552 0.1247999,0.3796 0.1247999,0.8476 0,0.468 -0.1247999,0.8528 -0.1196,0.3796 -0.338,0.6552 -0.21840003,0.2704 -0.52520002,0.4212 -0.30679999,0.1456 -0.670799973457,0.1456 -0.369199986543,0 -0.675999976543,-0.1456 -0.30159999,-0.1508 -0.52519993,-0.4212 -0.2184,-0.2756 -0.3432,-0.6552 -0.1196,-0.3848 -0.1196,-0.8528 z"
         id="text28"
         class="label-main"
         style="font-weight:700;font-size:5.2px;font-family:Futura, 'Futura PT', 'Trebuchet MS', Arial, sans-serif;dominant-baseline:middle;text-anchor:middle;opacity:0.81;fill:#e9e4d3"
         aria-label="0" /><path
         d="m -0.65520077,-34.1318 q 0,0.26 0.0468,0.4732 0.0468,0.2132 0.12999999,0.3692 0.0884,0.156 0.208,0.2444 0.11959999,0.0832 0.270399986543,0.0832 0.145599993457,0 0.265199993457,-0.0832 0.12479999,-0.0884 0.20799999,-0.2444 0.0832,-0.156 0.12999999,-0.3692 0.0468,-0.2132 0.0468,-0.4732 0,-0.2548 -0.0468,-0.468 -0.0468,-0.2184 -0.12999999,-0.3692 -0.0832,-0.156 -0.20799999,-0.2392 -0.1196,-0.0884 -0.265199993457,-0.0884 -0.150799996543,0 -0.270399986543,0.0884 -0.1196,0.0832 -0.208,0.2392 -0.0832,0.1508 -0.12999999,0.3692 -0.0468,0.2132 -0.0468,0.468 z m -1.00879993,0 q 0,-0.468 0.1196,-0.8476 0.1248,-0.3848 0.3432,-0.6552 0.22359994,-0.2704 0.52519993,-0.416 0.30679999,-0.1508 0.675999976543,-0.1508 0.363999983457,0 0.670799973457,0.1508 0.30679999,0.1456 0.52520002,0.416 0.2184,0.2704 0.338,0.6552 0.1247999,0.3796 0.1247999,0.8476 0,0.468 -0.1247999,0.8528 -0.1196,0.3796 -0.338,0.6552 -0.21840003,0.2704 -0.52520002,0.4212 -0.30679999,0.1456 -0.670799973457,0.1456 -0.369199986543,0 -0.675999976543,-0.1456 -0.30159999,-0.1508 -0.52519993,-0.4212 -0.2184,-0.2756 -0.3432,-0.6552 -0.1196,-0.3848 -0.1196,-0.8528 z"
         id="text29"
         class="label-highlight"
         style="font-weight:700;font-size:5.2px;font-family:Futura, 'Futura PT', 'Trebuchet MS', Arial, sans-serif;dominant-baseline:middle;text-anchor:middle;opacity:0.2025;fill:#f5f2e6"
         transform="translate(-0.35,-0.5)"
         aria-label="0" /></g><g
       transform="rotate(-33.75,1.3114288,-0.79552685)"
       id="g32"><path
         d="M 1.6482057,-33.478086 H 0.29100566 l -0.0676,0.4316 q 0.0936,-0.0104 0.17159999,-0.0156 0.078,-0.0104 0.16119999,-0.0104 0.29639999,0 0.55119996,0.104 0.2548,0.104 0.4368001,0.286 0.182,0.182 0.286,0.4368 0.104,0.2548 0.104,0.5564 0,0.3172 -0.1196,0.572 -0.1144,0.2548 -0.3276001,0.4368 -0.2132,0.1768 -0.51999997,0.2704 -0.30679999,0.0988 -0.68119998,0.0988 -0.35359998,0 -0.67599997,-0.0884 -0.31719993,-0.0832 -0.59799993,-0.26 l 0.1508,-0.9568 q 0.2599999,0.2236 0.53039993,0.3432 0.27039999,0.1144 0.51479998,0.1144 0.31199999,0 0.49399998,-0.1664 0.18199999,-0.1716 0.18199999,-0.4212 0,-0.2912 -0.24439999,-0.468 -0.24439999,-0.182 -0.63959996876,-0.182 -0.17680000124,0 -0.36399999124,0.0416 -0.18720003,0.0364 -0.36919993,0.1196 l 0.32759993,-2.106 H 1.6482057 Z"
         id="text30"
         class="label-shadow"
         style="font-weight:700;font-size:5.2px;font-family:Futura, 'Futura PT', 'Trebuchet MS', Arial, sans-serif;dominant-baseline:middle;text-anchor:middle;opacity:0.0676;fill:#0a0a0a"
         aria-label="5" /><path
         d="m 1.2482057,-34.178086 h -1.35720004 l -0.0676,0.4316 q 0.0936,-0.0104 0.17159999,-0.0156 0.078,-0.0104 0.16119999,-0.0104 0.29639999,0 0.55119998,0.104 0.2548,0.104 0.43680008,0.286 0.182,0.182 0.286,0.4368 0.104,0.2548 0.104,0.5564 0,0.3172 -0.1196,0.572 -0.1144,0.2548 -0.3276001,0.4368 -0.21319998,0.1768 -0.51999997,0.2704 -0.30679999,0.0988 -0.68119998,0.0988 -0.35359998,0 -0.67599997,-0.0884 -0.31719988,-0.0832 -0.59799988,-0.26 l 0.1508,-0.9568 q 0.25999985,0.2236 0.53039988,0.3432 0.27039999,0.1144 0.51479998,0.1144 0.31199999,0 0.49399998,-0.1664 0.18199999,-0.1716 0.18199999,-0.4212 0,-0.2912 -0.24439999,-0.468 -0.24439999,-0.182 -0.63959997,-0.182 -0.1768,0 -0.36399999,0.0416 -0.18720003,0.0364 -0.36919988,0.1196 l 0.32759988,-2.106 H 1.2482057 Z"
         id="text31"
         class="label-main"
         style="font-weight:700;font-size:5.2px;font-family:Futura, 'Futura PT', 'Trebuchet MS', Arial, sans-serif;dominant-baseline:middle;text-anchor:middle;opacity:0.81;fill:#e9e4d3"
         aria-label="5" /><path
         d="m 0.89820565,-34.678086 h -1.35719999 l -0.0676,0.4316 q 0.0936,-0.0104 0.17159999,-0.0156 0.078,-0.0104 0.16119999,-0.0104 0.29639999,0 0.55119998,0.104 0.2548,0.104 0.43680003,0.286 0.182,0.182 0.28600005,0.4368 0.104,0.2548 0.104,0.5564 0,0.3172 -0.1196,0.572 -0.11440005,0.2548 -0.32760009,0.4368 -0.21319999,0.1768 -0.51999998,0.2704 -0.30679999,0.0988 -0.68119998,0.0988 -0.35359998,0 -0.67599995,-0.0884 -0.3171999,-0.0832 -0.5979999,-0.26 l 0.1508,-0.9568 q 0.2599999,0.2236 0.5303999,0.3432 0.27039997,0.1144 0.51479996,0.1144 0.31199999,0 0.49399998,-0.1664 0.18199999,-0.1716 0.18199999,-0.4212 0,-0.2912 -0.24439999,-0.468 -0.24439999,-0.182 -0.63959997,-0.182 -0.1768,0 -0.36399997,0.0416 -0.1872,0.0364 -0.3691999,0.1196 l 0.3275999,-2.106 h 2.05399995 z"
         id="text32"
         class="label-highlight"
         style="font-weight:700;font-size:5.2px;font-family:Futura, 'Futura PT', 'Trebuchet MS', Arial, sans-serif;dominant-baseline:middle;text-anchor:middle;opacity:0.2025;fill:#f5f2e6"
         aria-label="5" /></g><g
       transform="rotate(-67.5,1.901875,-1.1199704)"
       id="g35"><path
         d="m -2.0539991,-36.7238 h -0.572 v -0.8632 h 1.5911999 v 3.9208 h -1.0191999 z m 3.0627967,1.092 q 0,0.26 0.0468,0.4732 0.0468,0.2132 0.13,0.3692 0.0884,0.156 0.208,0.2444 0.1196,0.0832 0.2704,0.0832 0.1456,0 0.2652,-0.0832 0.1248,-0.0884 0.208,-0.2444 0.0832,-0.156 0.13,-0.3692 0.0468,-0.2132 0.0468,-0.4732 0,-0.2548 -0.0468,-0.468 -0.0468,-0.2184 -0.13,-0.3692 -0.0832,-0.156 -0.208,-0.2392 -0.1196,-0.0884 -0.2652,-0.0884 -0.1508,0 -0.2704,0.0884 -0.1196,0.0832 -0.208,0.2392 -0.0832,0.1508 -0.13,0.3692 -0.0468,0.2132 -0.0468,0.468 z m -1.0087999536682,0 q 0,-0.468 0.1195999936682,-0.8476 0.1248,-0.3848 0.34319999,-0.6552 0.22359999,-0.2704 0.52519998,-0.416 0.30679999,-0.1508 0.67599999,-0.1508 0.364,0 0.6708,0.1508 0.3067999,0.1456 0.5251999,0.416 0.2184,0.2704 0.338,0.6552 0.1248,0.3796 0.1248,0.8476 0,0.468 -0.1248,0.8528 -0.1196,0.3796 -0.338,0.6552 -0.2184,0.2704 -0.5251999,0.4212 -0.3068,0.1456 -0.6708,0.1456 -0.3692,0 -0.67599999,-0.1456 Q 0.68639762,-33.8534 0.46279763,-34.1238 0.24439764,-34.3994 0.11959764,-34.779 -2.3536682e-6,-35.1638 -2.3536682e-6,-35.6318 Z"
         id="text33"
         class="label-shadow"
         style="font-weight:700;font-size:5.2px;font-family:Futura, 'Futura PT', 'Trebuchet MS', Arial, sans-serif;dominant-baseline:middle;text-anchor:middle;opacity:0.0676;fill:#0a0a0a"
         transform="translate(0.4,0.7)"
         aria-label="10" /><path
         d="m -2.0539991,-36.7238 h -0.572 v -0.8632 h 1.5911999 v 3.9208 h -1.0191999 z m 3.0627967,1.092 q 0,0.26 0.0468,0.4732 0.0468,0.2132 0.13,0.3692 0.0884,0.156 0.208,0.2444 0.1196,0.0832 0.2704,0.0832 0.1456,0 0.2652,-0.0832 0.1248,-0.0884 0.208,-0.2444 0.0832,-0.156 0.13,-0.3692 0.0468,-0.2132 0.0468,-0.4732 0,-0.2548 -0.0468,-0.468 -0.0468,-0.2184 -0.13,-0.3692 -0.0832,-0.156 -0.208,-0.2392 -0.1196,-0.0884 -0.2652,-0.0884 -0.1508,0 -0.2704,0.0884 -0.1196,0.0832 -0.208,0.2392 -0.0832,0.1508 -0.13,0.3692 -0.0468,0.2132 -0.0468,0.468 z m -1.0087999536682,0 q 0,-0.468 0.1195999936682,-0.8476 0.1248,-0.3848 0.34319999,-0.6552 0.22359999,-0.2704 0.52519998,-0.416 0.30679999,-0.1508 0.67599999,-0.1508 0.364,0 0.6708,0.1508 0.3067999,0.1456 0.5251999,0.416 0.2184,0.2704 0.338,0.6552 0.1248,0.3796 0.1248,0.8476 0,0.468 -0.1248,0.8528 -0.1196,0.3796 -0.338,0.6552 -0.2184,0.2704 -0.5251999,0.4212 -0.3068,0.1456 -0.6708,0.1456 -0.3692,0 -0.67599999,-0.1456 Q 0.68639762,-33.8534 0.46279763,-34.1238 0.24439764,-34.3994 0.11959764,-34.779 -2.3536682e-6,-35.1638 -2.3536682e-6,-35.6318 Z"
         id="text34"
         class="label-main"
         style="font-weight:700;font-size:5.2px;font-family:Futura, 'Futura PT', 'Trebuchet MS', Arial, sans-serif;dominant-baseline:middle;text-anchor:middle;opacity:0.81;fill:#e9e4d3"
         aria-label="10" /><path
         d="m -2.0539991,-36.7238 h -0.572 v -0.8632 h 1.5911999 v 3.9208 h -1.0191999 z m 3.0627967,1.092 q 0,0.26 0.0468,0.4732 0.0468,0.2132 0.13,0.3692 0.0884,0.156 0.208,0.2444 0.1196,0.0832 0.2704,0.0832 0.1456,0 0.2652,-0.0832 0.1248,-0.0884 0.208,-0.2444 0.0832,-0.156 0.13,-0.3692 0.0468,-0.2132 0.0468,-0.4732 0,-0.2548 -0.0468,-0.468 -0.0468,-0.2184 -0.13,-0.3692 -0.0832,-0.156 -0.208,-0.2392 -0.1196,-0.0884 -0.2652,-0.0884 -0.1508,0 -0.2704,0.0884 -0.1196,0.0832 -0.208,0.2392 -0.0832,0.1508 -0.13,0.3692 -0.0468,0.2132 -0.0468,0.468 z m -1.0087999536682,0 q 0,-0.468 0.1195999936682,-0.8476 0.1248,-0.3848 0.34319999,-0.6552 0.22359999,-0.2704 0.52519998,-0.416 0.30679999,-0.1508 0.67599999,-0.1508 0.364,0 0.6708,0.1508 0.3067999,0.1456 0.5251999,0.416 0.2184,0.2704 0.338,0.6552 0.1248,0.3796 0.1248,0.8476 0,0.468 -0.1248,0.8528 -0.1196,0.3796 -0.338,0.6552 -0.2184,0.2704 -0.5251999,0.4212 -0.3068,0.1456 -0.6708,0.1456 -0.3692,0 -0.67599999,-0.1456 Q 0.68639762,-33.8534 0.46279763,-34.1238 0.24439764,-34.3994 0.11959764,-34.779 -2.3536682e-6,-35.1638 -2.3536682e-6,-35.6318 Z"
         id="text35"
         class="label-highlight"
         style="font-weight:700;font-size:5.2px;font-family:Futura, 'Futura PT', 'Trebuchet MS', Arial, sans-serif;dominant-baseline:middle;text-anchor:middle;opacity:0.2025;fill:#f5f2e6"
         transform="translate(-0.35,-0.5)"
         aria-label="10" /></g><g
       transform="rotate(-101.25,1.4554227,-2.1935538)"
       id="g38"><path
         d="m -1.9942022,-37.7238 h -0.572 v -0.8632 h 1.59119993 v 3.9208 H -1.9942022 Z m 4.7424028,0 h -1.3572 l -0.0676,0.4316 q 0.0936,-0.0104 0.1716,-0.0156 0.078,-0.0104 0.1612,-0.0104 0.2964,0 0.5512,0.104 0.2548,0.104 0.4368,0.286 0.182,0.182 0.286,0.4368 0.104,0.2548 0.104,0.5564 0,0.3172 -0.1196,0.572 -0.1144,0.2548 -0.3276,0.4368 -0.2132,0.1768 -0.52,0.2704 -0.3068,0.0988 -0.6812,0.0988 -0.3535999,0 -0.67599994,-0.0884 -0.31719999,-0.0832 -0.59799998,-0.26 l 0.1508,-0.9568 q 0.25999999,0.2236 0.53039998,0.3432 0.27039994,0.1144 0.51479994,0.1144 0.312,0 0.494,-0.1664 0.182,-0.1716 0.182,-0.4212 0,-0.2912 -0.2444,-0.468 -0.2444,-0.182 -0.6396,-0.182 -0.17679995,0 -0.36399994,0.0416 -0.18719999,0.0364 -0.36919998,0.1196 l 0.32759998,-2.106 H 2.7482006 Z"
         id="text36"
         class="label-shadow"
         style="font-weight:700;font-size:5.2px;font-family:Futura, 'Futura PT', 'Trebuchet MS', Arial, sans-serif;dominant-baseline:middle;text-anchor:middle;opacity:0.0676;fill:#0a0a0a"
         transform="translate(0.4,0.7)"
         aria-label="15" /><path
         d="m -1.9942022,-37.7238 h -0.572 v -0.8632 h 1.59119993 v 3.9208 H -1.9942022 Z m 4.7424028,0 h -1.3572 l -0.0676,0.4316 q 0.0936,-0.0104 0.1716,-0.0156 0.078,-0.0104 0.1612,-0.0104 0.2964,0 0.5512,0.104 0.2548,0.104 0.4368,0.286 0.182,0.182 0.286,0.4368 0.104,0.2548 0.104,0.5564 0,0.3172 -0.1196,0.572 -0.1144,0.2548 -0.3276,0.4368 -0.2132,0.1768 -0.52,0.2704 -0.3068,0.0988 -0.6812,0.0988 -0.3535999,0 -0.67599994,-0.0884 -0.31719999,-0.0832 -0.59799998,-0.26 l 0.1508,-0.9568 q 0.25999999,0.2236 0.53039998,0.3432 0.27039994,0.1144 0.51479994,0.1144 0.312,0 0.494,-0.1664 0.182,-0.1716 0.182,-0.4212 0,-0.2912 -0.2444,-0.468 -0.2444,-0.182 -0.6396,-0.182 -0.17679995,0 -0.36399994,0.0416 -0.18719999,0.0364 -0.36919998,0.1196 l 0.32759998,-2.106 H 2.7482006 Z"
         id="text37"
         class="label-main"
         style="font-weight:700;font-size:5.2px;font-family:Futura, 'Futura PT', 'Trebuchet MS', Arial, sans-serif;dominant-baseline:middle;text-anchor:middle;opacity:0.81;fill:#e9e4d3"
         aria-label="15" /><path
         d="m -1.9942022,-37.7238 h -0.572 v -0.8632 h 1.59119993 v 3.9208 H -1.9942022 Z m 4.7424028,0 h -1.3572 l -0.0676,0.4316 q 0.0936,-0.0104 0.1716,-0.0156 0.078,-0.0104 0.1612,-0.0104 0.2964,0 0.5512,0.104 0.2548,0.104 0.4368,0.286 0.182,0.182 0.286,0.4368 0.104,0.2548 0.104,0.5564 0,0.3172 -0.1196,0.572 -0.1144,0.2548 -0.3276,0.4368 -0.2132,0.1768 -0.52,0.2704 -0.3068,0.0988 -0.6812,0.0988 -0.3535999,0 -0.67599994,-0.0884 -0.31719999,-0.0832 -0.59799998,-0.26 l 0.1508,-0.9568 q 0.25999999,0.2236 0.53039998,0.3432 0.27039994,0.1144 0.51479994,0.1144 0.312,0 0.494,-0.1664 0.182,-0.1716 0.182,-0.4212 0,-0.2912 -0.2444,-0.468 -0.2444,-0.182 -0.6396,-0.182 -0.17679995,0 -0.36399994,0.0416 -0.18719999,0.0364 -0.36919998,0.1196 l 0.32759998,-2.106 H 2.7482006 Z"
         id="text38"
         class="label-highlight"
         style="font-weight:700;font-size:5.2px;font-family:Futura, 'Futura PT', 'Trebuchet MS', Arial, sans-serif;dominant-baseline:middle;text-anchor:middle;opacity:0.2025;fill:#f5f2e6"
         transform="translate(-0.35,-0.5)"
         aria-label="15" /></g><g
       transform="rotate(-135)"
       id="g41"><path
         d="M 0.05521503,-28.804116 H -3.1011849 l 0.9724,-1.0088 q 0.3848,-0.4004 0.6032,-0.676 0.2184,-0.2808 0.3224,-0.4732 0.1092,-0.1924 0.1352,-0.312 0.026,-0.1196 0.026,-0.2028 0,-0.0884 -0.0312,-0.1716 -0.026,-0.0832 -0.0832,-0.1456 -0.0572,-0.0676 -0.1404,-0.104 -0.078,-0.0416 -0.1872,-0.0416 -0.208,0 -0.3276,0.1352 -0.1144,0.1352 -0.1144,0.338 0,0.0572 0.0156,0.1664 h -1.1128 q 0,-0.3432 0.1092,-0.624 0.1144,-0.2808 0.3172,-0.4836 0.2028,-0.2028 0.4784,-0.312 0.2808,-0.1092 0.6136,-0.1092 0.3276,0 0.60320001,0.104 0.28079995,0.104 0.48359994,0.2912 0.20279999,0.1872 0.31719999,0.4472 0.11439999,0.2548 0.11439999,0.5564 0,0.3224 -0.14039999,0.598 -0.1352,0.2704 -0.43679999,0.5564 l -0.64999995,0.6084 h 1.26879993 z m 1.34680147,-1.9656 q 0,0.26 0.0468,0.4732 0.0468,0.2132 0.13,0.3692 0.0884,0.156 0.208,0.2444 0.1196,0.0832 0.2704,0.0832 0.1456,0 0.2652,-0.0832 0.1248,-0.0884 0.208,-0.2444 0.0832,-0.156 0.13,-0.3692 0.0468,-0.2132 0.0468,-0.4732 0,-0.2548 -0.0468,-0.468 -0.0468,-0.2184 -0.13,-0.3692 -0.0832,-0.156 -0.208,-0.2392 -0.1196,-0.0884 -0.2652,-0.0884 -0.1508,0 -0.2704,0.0884 -0.1196,0.0832 -0.208,0.2392 -0.0832,0.1508 -0.13,0.3692 -0.0468,0.2132 -0.0468,0.468 z m -1.00879991,0 q 0,-0.468 0.1196,-0.8476 0.12479999,-0.3848 0.34319999,-0.6552 0.22360002,-0.2704 0.52519992,-0.416 0.3068,-0.1508 0.676,-0.1508 0.364,0 0.6708,0.1508 0.3068,0.1456 0.5252,0.416 0.2184,0.2704 0.338,0.6552 0.1248,0.3796 0.1248,0.8476 0,0.468 -0.1248,0.8528 -0.1196,0.3796 -0.338,0.6552 -0.2184,0.2704 -0.5252,0.4212 -0.3068,0.1456 -0.6708,0.1456 -0.3692,0 -0.676,-0.1456 -0.3015999,-0.1508 -0.52519992,-0.4212 -0.2184,-0.2756 -0.34319999,-0.6552 -0.1196,-0.3848 -0.1196,-0.8528 z"
         id="text39"
         class="label-shadow"
         style="font-weight:700;font-size:5.2px;font-family:Futura, 'Futura PT', 'Trebuchet MS', Arial, sans-serif;dominant-baseline:middle;text-anchor:middle;opacity:0.0676;fill:#0a0a0a"
         aria-label="20" /><path
         d="M -0.34478497,-29.504116 H -3.5011849 l 0.9724,-1.0088 q 0.3848,-0.4004 0.6032,-0.676 0.2184,-0.2808 0.3224,-0.4732 0.1092,-0.1924 0.1352,-0.312 0.026,-0.1196 0.026,-0.2028 0,-0.0884 -0.0312,-0.1716 -0.026,-0.0832 -0.0832,-0.1456 -0.0572,-0.0676 -0.1404,-0.104 -0.078,-0.0416 -0.1872,-0.0416 -0.208,0 -0.3276,0.1352 -0.1144,0.1352 -0.1144,0.338 0,0.0572 0.0156,0.1664 h -1.1128 q 0,-0.3432 0.1092,-0.624 0.1144,-0.2808 0.3172,-0.4836 0.2028,-0.2028 0.4784,-0.312 0.2808,-0.1092 0.6136,-0.1092 0.3276,0 0.6032,0.104 0.2808,0.104 0.48359995,0.2912 0.20279999,0.1872 0.31719999,0.4472 0.11439999,0.2548 0.11439999,0.5564 0,0.3224 -0.14039999,0.598 -0.1352,0.2704 -0.43679999,0.5564 l -0.64999995,0.6084 h 1.26879993 z m 1.34680147,-1.9656 q 0,0.26 0.0468,0.4732 0.0468,0.2132 0.13,0.3692 0.0884,0.156 0.208,0.2444 0.1196,0.0832 0.2704,0.0832 0.1456,0 0.2652,-0.0832 0.1248,-0.0884 0.208,-0.2444 0.0832,-0.156 0.13,-0.3692 0.0468,-0.2132 0.0468,-0.4732 0,-0.2548 -0.0468,-0.468 -0.0468,-0.2184 -0.13,-0.3692 -0.0832,-0.156 -0.208,-0.2392 -0.1196,-0.0884 -0.2652,-0.0884 -0.1508,0 -0.2704,0.0884 -0.1196,0.0832 -0.208,0.2392 -0.0832,0.1508 -0.13,0.3692 -0.0468,0.2132 -0.0468,0.468 z m -1.00879991,0 q 0,-0.468 0.1196,-0.8476 0.12479999,-0.3848 0.34319999,-0.6552 0.22359999,-0.2704 0.52519993,-0.416 0.30679999,-0.1508 0.67599999,-0.1508 0.364,0 0.6708,0.1508 0.3068,0.1456 0.5252,0.416 0.2184,0.2704 0.338,0.6552 0.1248,0.3796 0.1248,0.8476 0,0.468 -0.1248,0.8528 -0.1196,0.3796 -0.338,0.6552 -0.2184,0.2704 -0.5252,0.4212 -0.3068,0.1456 -0.6708,0.1456 -0.3692,0 -0.67599999,-0.1456 -0.30159994,-0.1508 -0.52519993,-0.4212 -0.2184,-0.2756 -0.34319999,-0.6552 -0.1196,-0.3848 -0.1196,-0.8528 z"
         id="text40"
         class="label-main"
         style="font-weight:700;font-size:5.2px;font-family:Futura, 'Futura PT', 'Trebuchet MS', Arial, sans-serif;dominant-baseline:middle;text-anchor:middle;opacity:0.81;fill:#e9e4d3"
         aria-label="20" /><path
         d="M -0.69478497,-30.004116 H -3.8511849 l 0.9724,-1.0088 q 0.3848,-0.4004 0.6032,-0.676 0.2184,-0.2808 0.3224,-0.4732 0.1092,-0.1924 0.1352,-0.312 0.026,-0.1196 0.026,-0.2028 0,-0.0884 -0.0312,-0.1716 -0.026,-0.0832 -0.0832,-0.1456 -0.0572,-0.0676 -0.1404,-0.104 -0.078,-0.0416 -0.1872,-0.0416 -0.208,0 -0.3276,0.1352 -0.1144,0.1352 -0.1144,0.338 0,0.0572 0.0156,0.1664 h -1.1128 q 0,-0.3432 0.1092,-0.624 0.1144,-0.2808 0.3172,-0.4836 0.2028,-0.2028 0.4784,-0.312 0.2808,-0.1092 0.6136,-0.1092 0.3276,0 0.6032,0.104 0.2808,0.104 0.4836,0.2912 0.20279994,0.1872 0.31719994,0.4472 0.11439999,0.2548 0.11439999,0.5564 0,0.3224 -0.14039999,0.598 -0.13520004,0.2704 -0.43679994,0.5564 l -0.65,0.6084 h 1.26879993 z m 1.34680148,-1.9656 q 0,0.26 0.0468,0.4732 0.0468,0.2132 0.13,0.3692 0.0884,0.156 0.20799999,0.2444 0.1196,0.0832 0.2704,0.0832 0.1456,0 0.2652,-0.0832 0.1248,-0.0884 0.208,-0.2444 0.0832,-0.156 0.13,-0.3692 0.0468,-0.2132 0.0468,-0.4732 0,-0.2548 -0.0468,-0.468 -0.0468,-0.2184 -0.13,-0.3692 -0.0832,-0.156 -0.208,-0.2392 -0.1196,-0.0884 -0.2652,-0.0884 -0.1508,0 -0.2704,0.0884 -0.11959999,0.0832 -0.20799999,0.2392 -0.0832,0.1508 -0.13,0.3692 -0.0468,0.2132 -0.0468,0.468 z m -1.00879992,0 q 0,-0.468 0.1196,-0.8476 0.12479999,-0.3848 0.34319999,-0.6552 0.22359999,-0.2704 0.52519993,-0.416 0.3068,-0.1508 0.67599999,-0.1508 0.364,0 0.6708,0.1508 0.3068,0.1456 0.5252,0.416 0.2184,0.2704 0.338,0.6552 0.1248,0.3796 0.1248,0.8476 0,0.468 -0.1248,0.8528 -0.1196,0.3796 -0.338,0.6552 -0.2184,0.2704 -0.5252,0.4212 -0.3068,0.1456 -0.6708,0.1456 -0.36919999,0 -0.67599999,-0.1456 -0.30159994,-0.1508 -0.52519993,-0.4212 -0.2184,-0.2756 -0.34319999,-0.6552 -0.1196,-0.3848 -0.1196,-0.8528 z"
         id="text41"
         class="label-highlight"
         style="font-weight:700;font-size:5.2px;font-family:Futura, 'Futura PT', 'Trebuchet MS', Arial, sans-serif;dominant-baseline:middle;text-anchor:middle;opacity:0.2025;fill:#f5f2e6"
         aria-label="20" /></g></g></svg>
