<?xml version="1.0" encoding="UTF-8" standalone="no"?>
<svg
   width="20mm"
   height="20mm"
   viewBox="0 0 100 100"
   version="1.1"
   id="svg36"
   sodipodi:docname="clairaudient_fine_indicator.svg"
   inkscape:version="1.4.2 (ebf0e940, 2025-05-08)"
   xmlns:inkscape="http://www.inkscape.org/namespaces/inkscape"
   xmlns:sodipodi="http://sodipodi.sourceforge.net/DTD/sodipodi-0.dtd"
   xmlns="http://www.w3.org/2000/svg"
   xmlns:svg="http://www.w3.org/2000/svg">
  <sodipodi:namedview
     id="namedview36"
     pagecolor="#505050"
     bordercolor="#eeeeee"
     borderopacity="1"
     inkscape:showpageshadow="0"
     inkscape:pageopacity="0"
     inkscape:pagecheckerboard="0"
     inkscape:deskcolor="#505050"
     inkscape:document-units="mm"
     inkscape:zoom="8.2876007"
     inkscape:cx="42.111102"
     inkscape:cy="52.427719"
     inkscape:window-width="1800"
     inkscape:window-height="1097"
     inkscape:window-x="0"
     inkscape:window-y="44"
     inkscape:window-maximized="1"
     inkscape:current-layer="svg36" />
  <defs
     id="defs1">
    <style
       id="style1">
      .tick-major {
        stroke: #e8e1cf;
        stroke-width: 1.2;
        stroke-linecap: round;
        opacity: 0.82;
      }
      .tick-minor {
        stroke: #e8e1cf;
        stroke-width: 0.7;
        stroke-linecap: round;
        opacity: 0.55;
      }
      .label-shadow {
        fill: #0a0a0a;
        font-family: &quot;Futura&quot;, &quot;Futura PT&quot;, &quot;Trebuchet MS&quot;, Arial, sans-serif;
        font-size: 7px;
        font-weight: 700;
        text-anchor: middle;
        dominant-baseline: middle;
        opacity: 0.25;
      }
      .label-main {
        fill: #e8e1cf;
        font-family: &quot;Futura&quot;, &quot;Futura PT&quot;, &quot;Trebuchet MS&quot;, Arial, sans-serif;
        font-size: 7px;
        font-weight: 700;
        text-anchor: middle;
        dominant-baseline: middle;
        opacity: 0.92;
      }
      .label-highlight {
        fill: #f5f2e6;
        font-family: &quot;Futura&quot;, &quot;Futura PT&quot;, &quot;Trebuchet MS&quot;, Arial, sans-serif;
        font-size: 7px;
        font-weight: 700;
        text-anchor: middle;
        dominant-baseline: middle;
        opacity: 0.45;
      }
    </style>
  </defs>
  <g
     transform="translate(50,50)"
     id="g36">
    <!-- Minor ticks between 5-cent marks -->
    <g
       transform="rotate(118.125)"
       id="g1">
      <g
         id="line1"
         class="tick-minor"
         style="opacity:0.55">
        <g
           id="path37"
           style="opacity:1">
          <path
             style="baseline-shift:baseline;display:inline;overflow:visible;vector-effect:none;stroke:none;enable-background:accumulate;stop-color:#000000;stop-opacity:1"
             d="m 0,-33 v -4"
             id="path71" />
          <path
             style="baseline-shift:baseline;display:inline;overflow:visible;vector-effect:none;fill:#e8e1cf;stroke:none;enable-background:accumulate;stop-color:#000000;stop-opacity:1"
             d="M 0,-37.349609 A 0.34999999,0.34999999 0 0 0 -0.34960938,-37 v 4 A 0.34999999,0.34999999 0 0 0 0,-32.650391 0.34999999,0.34999999 0 0 0 0.34960938,-33 v -4 A 0.34999999,0.34999999 0 0 0 0,-37.349609 Z"
             id="path72" />
        </g>
        <g
           id="path38"
           style="opacity:1">
          <path
             style="baseline-shift:baseline;display:inline;overflow:visible;vector-effect:none;fill:#e8e1cf;stroke:none;enable-background:accumulate;stop-color:#000000;stop-opacity:1"
             d="M 0,-37.349609 A 0.34999999,0.34999999 0 0 0 -0.34960938,-37 v 4 A 0.34999999,0.34999999 0 0 0 0,-32.650391 0.34999999,0.34999999 0 0 0 0.34960938,-33 v -4 A 0.34999999,0.34999999 0 0 0 0,-37.349609 Z"
             id="path73" />
          <path
             style="baseline-shift:baseline;display:inline;overflow:visible;vector-effect:none;fill:#e8e1cf;stroke:none;enable-background:accumulate;stop-color:#000000;stop-opacity:1"
             d="m 0,-37.699219 c -0.38187227,4.26e-4 -0.69879239,0.317347 -0.69921875,0.699219 v 4 C -0.69879239,-32.618128 -0.38187227,-32.301207 0,-32.300781 0.38187227,-32.301207 0.69879239,-32.618128 0.69921875,-33 v -4 C 0.69879239,-37.381872 0.38187227,-37.698793 0,-37.699219 Z"
             id="path74" />
        </g>
      </g>
    </g>
    <g
       transform="rotate(84.375)"
       id="g2">
      <g
         id="line2"
         class="tick-minor"
         style="opacity:0.55">
        <g
           id="path39"
           style="opacity:1">
          <path
             style="baseline-shift:baseline;display:inline;overflow:visible;vector-effect:none;stroke:none;enable-background:accumulate;stop-color:#000000;stop-opacity:1"
             d="m 0,-33 v -4"
             id="path75" />
          <path
             style="baseline-shift:baseline;display:inline;overflow:visible;vector-effect:none;fill:#e8e1cf;stroke:none;enable-background:accumulate;stop-color:#000000;stop-opacity:1"
             d="M 0,-37.349609 A 0.34999999,0.34999999 0 0 0 -0.34960938,-37 v 4 A 0.34999999,0.34999999 0 0 0 0,-32.650391 0.34999999,0.34999999 0 0 0 0.34960938,-33 v -4 A 0.34999999,0.34999999 0 0 0 0,-37.349609 Z"
             id="path76" />
        </g>
        <g
           id="path40"
           style="opacity:1">
          <path
             style="baseline-shift:baseline;display:inline;overflow:visible;vector-effect:none;fill:#e8e1cf;stroke:none;enable-background:accumulate;stop-color:#000000;stop-opacity:1"
             d="M 0,-37.349609 A 0.34999999,0.34999999 0 0 0 -0.34960938,-37 v 4 A 0.34999999,0.34999999 0 0 0 0,-32.650391 0.34999999,0.34999999 0 0 0 0.34960938,-33 v -4 A 0.34999999,0.34999999 0 0 0 0,-37.349609 Z"
             id="path77" />
          <path
             style="baseline-shift:baseline;display:inline;overflow:visible;vector-effect:none;fill:#e8e1cf;stroke:none;enable-background:accumulate;stop-color:#000000;stop-opacity:1"
             d="m 0,-37.699219 c -0.38187227,4.26e-4 -0.69879239,0.317347 -0.69921875,0.699219 v 4 C -0.69879239,-32.618128 -0.38187227,-32.301207 0,-32.300781 0.38187227,-32.301207 0.69879239,-32.618128 0.69921875,-33 v -4 C 0.69879239,-37.381872 0.38187227,-37.698793 0,-37.699219 Z"
             id="path78" />
        </g>
      </g>
    </g>
    <g
       transform="rotate(50.625)"
       id="g3">
      <g
         id="line3"
         class="tick-minor"
         style="opacity:0.55">
        <g
           id="path41"
           style="opacity:1">
          <path
             style="baseline-shift:baseline;display:inline;overflow:visible;vector-effect:none;stroke:none;enable-background:accumulate;stop-color:#000000;stop-opacity:1"
             d="m 0,-33 v -4"
             id="path79" />
          <path
             style="baseline-shift:baseline;display:inline;overflow:visible;vector-effect:none;fill:#e8e1cf;stroke:none;enable-background:accumulate;stop-color:#000000;stop-opacity:1"
             d="M 0,-37.349609 A 0.34999999,0.34999999 0 0 0 -0.34960938,-37 v 4 A 0.34999999,0.34999999 0 0 0 0,-32.650391 0.34999999,0.34999999 0 0 0 0.34960938,-33 v -4 A 0.34999999,0.34999999 0 0 0 0,-37.349609 Z"
             id="path80" />
        </g>
        <g
           id="path42"
           style="opacity:1">
          <path
             style="baseline-shift:baseline;display:inline;overflow:visible;vector-effect:none;fill:#e8e1cf;stroke:none;enable-background:accumulate;stop-color:#000000;stop-opacity:1"
             d="M 0,-37.349609 A 0.34999999,0.34999999 0 0 0 -0.34960938,-37 v 4 A 0.34999999,0.34999999 0 0 0 0,-32.650391 0.34999999,0.34999999 0 0 0 0.34960938,-33 v -4 A 0.34999999,0.34999999 0 0 0 0,-37.349609 Z"
             id="path81" />
          <path
             style="baseline-shift:baseline;display:inline;overflow:visible;vector-effect:none;fill:#e8e1cf;stroke:none;enable-background:accumulate;stop-color:#000000;stop-opacity:1"
             d="m 0,-37.699219 c -0.38187227,4.26e-4 -0.69879239,0.317347 -0.69921875,0.699219 v 4 C -0.69879239,-32.618128 -0.38187227,-32.301207 0,-32.300781 0.38187227,-32.301207 0.69879239,-32.618128 0.69921875,-33 v -4 C 0.69879239,-37.381872 0.38187227,-37.698793 0,-37.699219 Z"
             id="path82" />
        </g>
      </g>
    </g>
    <g
       transform="rotate(16.875)"
       id="g4">
      <g
         id="line4"
         class="tick-minor"
         style="opacity:0.55">
        <g
           id="path43"
           style="opacity:1">
          <path
             style="baseline-shift:baseline;display:inline;overflow:visible;vector-effect:none;stroke:none;enable-background:accumulate;stop-color:#000000;stop-opacity:1"
             d="m 0,-33 v -4"
             id="path83" />
          <path
             style="baseline-shift:baseline;display:inline;overflow:visible;vector-effect:none;fill:#e8e1cf;stroke:none;enable-background:accumulate;stop-color:#000000;stop-opacity:1"
             d="M 0,-37.349609 A 0.34999999,0.34999999 0 0 0 -0.34960938,-37 v 4 A 0.34999999,0.34999999 0 0 0 0,-32.650391 0.34999999,0.34999999 0 0 0 0.34960938,-33 v -4 A 0.34999999,0.34999999 0 0 0 0,-37.349609 Z"
             id="path84" />
        </g>
        <g
           id="path44"
           style="opacity:1">
          <path
             style="baseline-shift:baseline;display:inline;overflow:visible;vector-effect:none;fill:#e8e1cf;stroke:none;enable-background:accumulate;stop-color:#000000;stop-opacity:1"
             d="M 0,-37.349609 A 0.34999999,0.34999999 0 0 0 -0.34960938,-37 v 4 A 0.34999999,0.34999999 0 0 0 0,-32.650391 0.34999999,0.34999999 0 0 0 0.34960938,-33 v -4 A 0.34999999,0.34999999 0 0 0 0,-37.349609 Z"
             id="path85" />
          <path
             style="baseline-shift:baseline;display:inline;overflow:visible;vector-effect:none;fill:#e8e1cf;stroke:none;enable-background:accumulate;stop-color:#000000;stop-opacity:1"
             d="m 0,-37.699219 c -0.38187227,4.26e-4 -0.69879239,0.317347 -0.69921875,0.699219 v 4 C -0.69879239,-32.618128 -0.38187227,-32.301207 0,-32.300781 0.38187227,-32.301207 0.69879239,-32.618128 0.69921875,-33 v -4 C 0.69879239,-37.381872 0.38187227,-37.698793 0,-37.699219 Z"
             id="path86" />
        </g>
      </g>
    </g>
    <g
       transform="rotate(-16.875)"
       id="g5">
      <g
         id="line5"
         class="tick-minor"
         style="opacity:0.55">
        <g
           id="path45"
           style="opacity:1">
          <path
             style="baseline-shift:baseline;display:inline;overflow:visible;vector-effect:none;stroke:none;enable-background:accumulate;stop-color:#000000;stop-opacity:1"
             d="m 0,-33 v -4"
             id="path87" />
          <path
             style="baseline-shift:baseline;display:inline;overflow:visible;vector-effect:none;fill:#e8e1cf;stroke:none;enable-background:accumulate;stop-color:#000000;stop-opacity:1"
             d="M 0,-37.349609 A 0.34999999,0.34999999 0 0 0 -0.34960938,-37 v 4 A 0.34999999,0.34999999 0 0 0 0,-32.650391 0.34999999,0.34999999 0 0 0 0.34960938,-33 v -4 A 0.34999999,0.34999999 0 0 0 0,-37.349609 Z"
             id="path88" />
        </g>
        <g
           id="path46"
           style="opacity:1">
          <path
             style="baseline-shift:baseline;display:inline;overflow:visible;vector-effect:none;fill:#e8e1cf;stroke:none;enable-background:accumulate;stop-color:#000000;stop-opacity:1"
             d="M 0,-37.349609 A 0.34999999,0.34999999 0 0 0 -0.34960938,-37 v 4 A 0.34999999,0.34999999 0 0 0 0,-32.650391 0.34999999,0.34999999 0 0 0 0.34960938,-33 v -4 A 0.34999999,0.34999999 0 0 0 0,-37.349609 Z"
             id="path89" />
          <path
             style="baseline-shift:baseline;display:inline;overflow:visible;vector-effect:none;fill:#e8e1cf;stroke:none;enable-background:accumulate;stop-color:#000000;stop-opacity:1"
             d="m 0,-37.699219 c -0.38187227,4.26e-4 -0.69879239,0.317347 -0.69921875,0.699219 v 4 C -0.69879239,-32.618128 -0.38187227,-32.301207 0,-32.300781 0.38187227,-32.301207 0.69879239,-32.618128 0.69921875,-33 v -4 C 0.69879239,-37.381872 0.38187227,-37.698793 0,-37.699219 Z"
             id="path90" />
        </g>
      </g>
    </g>
    <g
       transform="rotate(-50.625)"
       id="g6">
      <g
         id="line6"
         class="tick-minor"
         style="opacity:0.55">
        <g
           id="path47"
           style="opacity:1">
          <path
             style="baseline-shift:baseline;display:inline;overflow:visible;vector-effect:none;stroke:none;enable-background:accumulate;stop-color:#000000;stop-opacity:1"
             d="m 0,-33 v -4"
             id="path91" />
          <path
             style="baseline-shift:baseline;display:inline;overflow:visible;vector-effect:none;fill:#e8e1cf;stroke:none;enable-background:accumulate;stop-color:#000000;stop-opacity:1"
             d="M 0,-37.349609 A 0.34999999,0.34999999 0 0 0 -0.34960938,-37 v 4 A 0.34999999,0.34999999 0 0 0 0,-32.650391 0.34999999,0.34999999 0 0 0 0.34960938,-33 v -4 A 0.34999999,0.34999999 0 0 0 0,-37.349609 Z"
             id="path92" />
        </g>
        <g
           id="path48"
           style="opacity:1">
          <path
             style="baseline-shift:baseline;display:inline;overflow:visible;vector-effect:none;fill:#e8e1cf;stroke:none;enable-background:accumulate;stop-color:#000000;stop-opacity:1"
             d="M 0,-37.349609 A 0.34999999,0.34999999 0 0 0 -0.34960938,-37 v 4 A 0.34999999,0.34999999 0 0 0 0,-32.650391 0.34999999,0.34999999 0 0 0 0.34960938,-33 v -4 A 0.34999999,0.34999999 0 0 0 0,-37.349609 Z"
             id="path93" />
          <path
             style="baseline-shift:baseline;display:inline;overflow:visible;vector-effect:none;fill:#e8e1cf;stroke:none;enable-background:accumulate;stop-color:#000000;stop-opacity:1"
             d="m 0,-37.699219 c -0.38187227,4.26e-4 -0.69879239,0.317347 -0.69921875,0.699219 v 4 C -0.69879239,-32.618128 -0.38187227,-32.301207 0,-32.300781 0.38187227,-32.301207 0.69879239,-32.618128 0.69921875,-33 v -4 C 0.69879239,-37.381872 0.38187227,-37.698793 0,-37.699219 Z"
             id="path94" />
        </g>
      </g>
    </g>
    <g
       transform="rotate(-84.375)"
       id="g7">
      <g
         id="line7"
         class="tick-minor"
         style="opacity:0.55">
        <g
           id="path49"
           style="opacity:1">
          <path
             style="baseline-shift:baseline;display:inline;overflow:visible;vector-effect:none;stroke:none;enable-background:accumulate;stop-color:#000000;stop-opacity:1"
             d="m 0,-33 v -4"
             id="path95" />
          <path
             style="baseline-shift:baseline;display:inline;overflow:visible;vector-effect:none;fill:#e8e1cf;stroke:none;enable-background:accumulate;stop-color:#000000;stop-opacity:1"
             d="M 0,-37.349609 A 0.34999999,0.34999999 0 0 0 -0.34960938,-37 v 4 A 0.34999999,0.34999999 0 0 0 0,-32.650391 0.34999999,0.34999999 0 0 0 0.34960938,-33 v -4 A 0.34999999,0.34999999 0 0 0 0,-37.349609 Z"
             id="path96" />
        </g>
        <g
           id="path50"
           style="opacity:1">
          <path
             style="baseline-shift:baseline;display:inline;overflow:visible;vector-effect:none;fill:#e8e1cf;stroke:none;enable-background:accumulate;stop-color:#000000;stop-opacity:1"
             d="M 0,-37.349609 A 0.34999999,0.34999999 0 0 0 -0.34960938,-37 v 4 A 0.34999999,0.34999999 0 0 0 0,-32.650391 0.34999999,0.34999999 0 0 0 0.34960938,-33 v -4 A 0.34999999,0.34999999 0 0 0 0,-37.349609 Z"
             id="path97" />
          <path
             style="baseline-shift:baseline;display:inline;overflow:visible;vector-effect:none;fill:#e8e1cf;stroke:none;enable-background:accumulate;stop-color:#000000;stop-opacity:1"
             d="m 0,-37.699219 c -0.38187227,4.26e-4 -0.69879239,0.317347 -0.69921875,0.699219 v 4 C -0.69879239,-32.618128 -0.38187227,-32.301207 0,-32.300781 0.38187227,-32.301207 0.69879239,-32.618128 0.69921875,-33 v -4 C 0.69879239,-37.381872 0.38187227,-37.698793 0,-37.699219 Z"
             id="path98" />
        </g>
      </g>
    </g>
    <g
       transform="rotate(-118.125)"
       id="g8">
      <g
         id="line8"
         class="tick-minor"
         style="opacity:0.55">
        <g
           id="path51"
           style="opacity:1">
          <path
             style="baseline-shift:baseline;display:inline;overflow:visible;vector-effect:none;stroke:none;enable-background:accumulate;stop-color:#000000;stop-opacity:1"
             d="m 0,-33 v -4"
             id="path99" />
          <path
             style="baseline-shift:baseline;display:inline;overflow:visible;vector-effect:none;fill:#e8e1cf;stroke:none;enable-background:accumulate;stop-color:#000000;stop-opacity:1"
             d="M 0,-37.349609 A 0.34999999,0.34999999 0 0 0 -0.34960938,-37 v 4 A 0.34999999,0.34999999 0 0 0 0,-32.650391 0.34999999,0.34999999 0 0 0 0.34960938,-33 v -4 A 0.34999999,0.34999999 0 0 0 0,-37.349609 Z"
             id="path100" />
        </g>
        <g
           id="path52"
           style="opacity:1">
          <path
             style="baseline-shift:baseline;display:inline;overflow:visible;vector-effect:none;fill:#e8e1cf;stroke:none;enable-background:accumulate;stop-color:#000000;stop-opacity:1"
             d="M 0,-37.349609 A 0.34999999,0.34999999 0 0 0 -0.34960938,-37 v 4 A 0.34999999,0.34999999 0 0 0 0,-32.650391 0.34999999,0.34999999 0 0 0 0.34960938,-33 v -4 A 0.34999999,0.34999999 0 0 0 0,-37.349609 Z"
             id="path101" />
          <path
             style="baseline-shift:baseline;display:inline;overflow:visible;vector-effect:none;fill:#e8e1cf;stroke:none;enable-background:accumulate;stop-color:#000000;stop-opacity:1"
             d="m 0,-37.699219 c -0.38187227,4.26e-4 -0.69879239,0.317347 -0.69921875,0.699219 v 4 C -0.69879239,-32.618128 -0.38187227,-32.301207 0,-32.300781 0.38187227,-32.301207 0.69879239,-32.618128 0.69921875,-33 v -4 C 0.69879239,-37.381872 0.38187227,-37.698793 0,-37.699219 Z"
             id="path102" />
        </g>
      </g>
    </g>
    <!-- Major ticks and labels -->
    <g
       transform="rotate(135)"
       id="g11">
      <g
         id="line9"
         class="tick-major"
         style="opacity:0.82">
        <g
           id="path53"
           style="opacity:1">
          <path
             style="baseline-shift:baseline;display:inline;overflow:visible;vector-effect:none;stroke:none;enable-background:accumulate;stop-color:#000000;stop-opacity:1"
             d="M 0,-30.5 V -39"
             id="path103" />
          <path
             style="baseline-shift:baseline;display:inline;overflow:visible;vector-effect:none;fill:#e8e1cf;stroke:none;enable-background:accumulate;stop-color:#000000;stop-opacity:1"
             d="M 0,-39.599609 A 0.60000002,0.60000002 0 0 0 -0.59960937,-39 v 8.5 A 0.60000002,0.60000002 0 0 0 0,-29.900391 0.60000002,0.60000002 0 0 0 0.59960937,-30.5 V -39 A 0.60000002,0.60000002 0 0 0 0,-39.599609 Z"
             id="path104" />
        </g>
        <g
           id="path54"
           style="opacity:1">
          <path
             style="baseline-shift:baseline;display:inline;overflow:visible;vector-effect:none;fill:#e8e1cf;stroke:none;enable-background:accumulate;stop-color:#000000;stop-opacity:1"
             d="M 0,-39.599609 A 0.60000002,0.60000002 0 0 0 -0.59960937,-39 v 8.5 A 0.60000002,0.60000002 0 0 0 0,-29.900391 0.60000002,0.60000002 0 0 0 0.59960937,-30.5 V -39 A 0.60000002,0.60000002 0 0 0 0,-39.599609 Z"
             id="path105" />
          <path
             style="baseline-shift:baseline;display:inline;overflow:visible;vector-effect:none;fill:#e8e1cf;stroke:none;enable-background:accumulate;stop-color:#000000;stop-opacity:1"
             d="m 0,-40.199219 c -0.65505341,4.27e-4 -1.198792,0.544166 -1.1992187,1.199219 v 8.5 C -1.198792,-29.844947 -0.65505341,-29.301208 0,-29.300781 0.65505341,-29.301208 1.198792,-29.844947 1.1992187,-30.5 V -39 C 1.198792,-39.655053 0.65505341,-40.198792 0,-40.199219 Z"
             id="path106" />
        </g>
      </g>
      <path
         d="m -5.7645044,-42.6055 h 2.009 v 1.057 h -2.009 z m 6.45400456,2.401 H -3.5594998 l 1.309,-1.358 q 0.518,-0.539 0.812,-0.91 0.294,-0.378 0.434,-0.637 0.14699996,-0.259 0.18199996,-0.42 0.035,-0.161 0.035,-0.273 0,-0.119 -0.042,-0.231 -0.035,-0.112 -0.112,-0.196 -0.077,-0.091 -0.18899996,-0.14 -0.105,-0.056 -0.252,-0.056 -0.28,0 -0.441,0.182 -0.154,0.182 -0.154,0.455 0,0.077 0.021,0.224 h -1.498 q 0,-0.462 0.147,-0.84 0.154,-0.378 0.427,-0.651 0.273,-0.273 0.644,-0.42 0.378,-0.147 0.826,-0.147 0.44099996,0 0.81199996,0.14 0.378,0.14 0.651,0.392 0.273,0.252 0.427,0.602 0.154,0.343 0.154,0.749 0,0.434 -0.189,0.805 -0.182,0.364 -0.588,0.749 l -0.87499996,0.819 h 1.70799996 z m 1.81300214,-2.646 q 0,0.35 0.063,0.637 0.063,0.287 0.175,0.497 0.119,0.21 0.28,0.329 0.161,0.112 0.364,0.112 0.196,0 0.357,-0.112 0.168,-0.119 0.28,-0.329 0.112,-0.21 0.175,-0.497 0.063,-0.287 0.063,-0.637 0,-0.343 -0.063,-0.63 -0.063,-0.294 -0.175,-0.497 -0.112,-0.21 -0.28,-0.322 -0.161,-0.119 -0.357,-0.119 -0.203,0 -0.364,0.119 -0.161,0.112 -0.28,0.322 -0.112,0.203 -0.175,0.497 -0.063,0.287 -0.063,0.63 z m -1.358,0 q 0,-0.63 0.161,-1.141 0.168,-0.518 0.462,-0.882 0.301,-0.364 0.707,-0.56 0.413,-0.203 0.91,-0.203 0.49,0 0.903,0.203 0.413,0.196 0.707,0.56 0.294,0.364 0.455,0.882 0.168,0.511 0.168,1.141 0,0.63 -0.168,1.148 -0.161,0.511 -0.455,0.882 -0.294,0.364 -0.707,0.567 -0.413,0.196 -0.903,0.196 -0.497,0 -0.91,-0.196 -0.406,-0.203 -0.707,-0.567 -0.294,-0.371 -0.462,-0.882 -0.161,-0.518 -0.161,-1.148 z"
         id="text9"
         class="label-shadow"
         style="font-weight:700;font-size:7px;font-family:Futura, 'Futura PT', 'Trebuchet MS', Arial, sans-serif;dominant-baseline:middle;text-anchor:middle;opacity:0.0625;fill:#0a0a0a"
         transform="translate(0.7,1.0)"
         aria-label="-20" />
      <path
         d="m -5.7645044,-42.6055 h 2.009 v 1.057 h -2.009 z m 6.45400456,2.401 H -3.5594998 l 1.309,-1.358 q 0.518,-0.539 0.812,-0.91 0.294,-0.378 0.434,-0.637 0.14699996,-0.259 0.18199996,-0.42 0.035,-0.161 0.035,-0.273 0,-0.119 -0.042,-0.231 -0.035,-0.112 -0.112,-0.196 -0.077,-0.091 -0.18899996,-0.14 -0.105,-0.056 -0.252,-0.056 -0.28,0 -0.441,0.182 -0.154,0.182 -0.154,0.455 0,0.077 0.021,0.224 h -1.498 q 0,-0.462 0.147,-0.84 0.154,-0.378 0.427,-0.651 0.273,-0.273 0.644,-0.42 0.378,-0.147 0.826,-0.147 0.44099996,0 0.81199996,0.14 0.378,0.14 0.651,0.392 0.273,0.252 0.427,0.602 0.154,0.343 0.154,0.749 0,0.434 -0.189,0.805 -0.182,0.364 -0.588,0.749 l -0.87499996,0.819 h 1.70799996 z m 1.81300214,-2.646 q 0,0.35 0.063,0.637 0.063,0.287 0.175,0.497 0.119,0.21 0.28,0.329 0.161,0.112 0.364,0.112 0.196,0 0.357,-0.112 0.168,-0.119 0.28,-0.329 0.112,-0.21 0.175,-0.497 0.063,-0.287 0.063,-0.637 0,-0.343 -0.063,-0.63 -0.063,-0.294 -0.175,-0.497 -0.112,-0.21 -0.28,-0.322 -0.161,-0.119 -0.357,-0.119 -0.203,0 -0.364,0.119 -0.161,0.112 -0.28,0.322 -0.112,0.203 -0.175,0.497 -0.063,0.287 -0.063,0.63 z m -1.358,0 q 0,-0.63 0.161,-1.141 0.168,-0.518 0.462,-0.882 0.301,-0.364 0.707,-0.56 0.413,-0.203 0.91,-0.203 0.49,0 0.903,0.203 0.413,0.196 0.707,0.56 0.294,0.364 0.455,0.882 0.168,0.511 0.168,1.141 0,0.63 -0.168,1.148 -0.161,0.511 -0.455,0.882 -0.294,0.364 -0.707,0.567 -0.413,0.196 -0.903,0.196 -0.497,0 -0.91,-0.196 -0.406,-0.203 -0.707,-0.567 -0.294,-0.371 -0.462,-0.882 -0.161,-0.518 -0.161,-1.148 z"
         id="text10"
         class="label-main"
         style="font-weight:700;font-size:7px;font-family:Futura, 'Futura PT', 'Trebuchet MS', Arial, sans-serif;dominant-baseline:middle;text-anchor:middle;opacity:0.8464;fill:#e8e1cf"
         aria-label="-20" />
      <path
         d="m -5.7645044,-42.6055 h 2.009 v 1.057 h -2.009 z m 6.45400456,2.401 H -3.5594998 l 1.309,-1.358 q 0.518,-0.539 0.812,-0.91 0.294,-0.378 0.434,-0.637 0.14699996,-0.259 0.18199996,-0.42 0.035,-0.161 0.035,-0.273 0,-0.119 -0.042,-0.231 -0.035,-0.112 -0.112,-0.196 -0.077,-0.091 -0.18899996,-0.14 -0.105,-0.056 -0.252,-0.056 -0.28,0 -0.441,0.182 -0.154,0.182 -0.154,0.455 0,0.077 0.021,0.224 h -1.498 q 0,-0.462 0.147,-0.84 0.154,-0.378 0.427,-0.651 0.273,-0.273 0.644,-0.42 0.378,-0.147 0.826,-0.147 0.44099996,0 0.81199996,0.14 0.378,0.14 0.651,0.392 0.273,0.252 0.427,0.602 0.154,0.343 0.154,0.749 0,0.434 -0.189,0.805 -0.182,0.364 -0.588,0.749 l -0.87499996,0.819 h 1.70799996 z m 1.81300214,-2.646 q 0,0.35 0.063,0.637 0.063,0.287 0.175,0.497 0.119,0.21 0.28,0.329 0.161,0.112 0.364,0.112 0.196,0 0.357,-0.112 0.168,-0.119 0.28,-0.329 0.112,-0.21 0.175,-0.497 0.063,-0.287 0.063,-0.637 0,-0.343 -0.063,-0.63 -0.063,-0.294 -0.175,-0.497 -0.112,-0.21 -0.28,-0.322 -0.161,-0.119 -0.357,-0.119 -0.203,0 -0.364,0.119 -0.161,0.112 -0.28,0.322 -0.112,0.203 -0.175,0.497 -0.063,0.287 -0.063,0.63 z m -1.358,0 q 0,-0.63 0.161,-1.141 0.168,-0.518 0.462,-0.882 0.301,-0.364 0.707,-0.56 0.413,-0.203 0.91,-0.203 0.49,0 0.903,0.203 0.413,0.196 0.707,0.56 0.294,0.364 0.455,0.882 0.168,0.511 0.168,1.141 0,0.63 -0.168,1.148 -0.161,0.511 -0.455,0.882 -0.294,0.364 -0.707,0.567 -0.413,0.196 -0.903,0.196 -0.497,0 -0.91,-0.196 -0.406,-0.203 -0.707,-0.567 -0.294,-0.371 -0.462,-0.882 -0.161,-0.518 -0.161,-1.148 z"
         id="text11"
         class="label-highlight"
         style="font-weight:700;font-size:7px;font-family:Futura, 'Futura PT', 'Trebuchet MS', Arial, sans-serif;dominant-baseline:middle;text-anchor:middle;opacity:0.2025;fill:#f5f2e6"
         transform="translate(-0.6,-0.6)"
         aria-label="-20" />
    </g>
    <g
       transform="rotate(101.25)"
       id="g14">
      <g
         id="line11"
         class="tick-major"
         style="opacity:0.82">
        <g
           id="path55"
           style="opacity:1">
          <path
             style="baseline-shift:baseline;display:inline;overflow:visible;vector-effect:none;stroke:none;enable-background:accumulate;stop-color:#000000;stop-opacity:1"
             d="M 0,-30.5 V -39"
             id="path107" />
          <path
             style="baseline-shift:baseline;display:inline;overflow:visible;vector-effect:none;fill:#e8e1cf;stroke:none;enable-background:accumulate;stop-color:#000000;stop-opacity:1"
             d="M 0,-39.599609 A 0.60000002,0.60000002 0 0 0 -0.59960937,-39 v 8.5 A 0.60000002,0.60000002 0 0 0 0,-29.900391 0.60000002,0.60000002 0 0 0 0.59960937,-30.5 V -39 A 0.60000002,0.60000002 0 0 0 0,-39.599609 Z"
             id="path108" />
        </g>
        <g
           id="path56"
           style="opacity:1">
          <path
             style="baseline-shift:baseline;display:inline;overflow:visible;vector-effect:none;fill:#e8e1cf;stroke:none;enable-background:accumulate;stop-color:#000000;stop-opacity:1"
             d="M 0,-39.599609 A 0.60000002,0.60000002 0 0 0 -0.59960937,-39 v 8.5 A 0.60000002,0.60000002 0 0 0 0,-29.900391 0.60000002,0.60000002 0 0 0 0.59960937,-30.5 V -39 A 0.60000002,0.60000002 0 0 0 0,-39.599609 Z"
             id="path109" />
          <path
             style="baseline-shift:baseline;display:inline;overflow:visible;vector-effect:none;fill:#e8e1cf;stroke:none;enable-background:accumulate;stop-color:#000000;stop-opacity:1"
             d="m 0,-40.199219 c -0.65505341,4.27e-4 -1.198792,0.544166 -1.1992187,1.199219 v 8.5 C -1.198792,-29.844947 -0.65505341,-29.301208 0,-29.300781 0.65505341,-29.301208 1.198792,-29.844947 1.1992187,-30.5 V -39 C 1.198792,-39.655053 0.65505341,-40.198792 0,-40.199219 Z"
             id="path110" />
        </g>
      </g>
      <path
         d="m -5.5440054,-41.6055 h 2.009 v 1.057 h -2.009 z m 3.8640046,-1.715 h -0.77 v -1.162 h 2.142 v 5.278 h -1.372 z m 6.3840041,0 h -1.827 l -0.091,0.581 q 0.126,-0.014 0.231,-0.021 0.105,-0.014 0.217,-0.014 0.399,0 0.742,0.14 0.343,0.14 0.588,0.385 0.245,0.245 0.385,0.588 0.14,0.343 0.14,0.749 0,0.427 -0.161,0.77 -0.154,0.343 -0.441,0.588 -0.287,0.238 -0.7,0.364 -0.413,0.133 -0.917,0.133 -0.476,0 -0.91,-0.119 -0.427,-0.112 -0.805,-0.35 l 0.203,-1.288 q 0.35,0.301 0.714,0.462 0.364,0.154 0.693,0.154 0.42,0 0.665,-0.224 0.245,-0.231 0.245,-0.567 0,-0.392 -0.329,-0.63 -0.329,-0.245 -0.861,-0.245 -0.238,0 -0.49,0.056 -0.252,0.049 -0.497,0.161 l 0.441,-2.835 h 2.765 z"
         id="text12"
         class="label-shadow"
         style="font-weight:700;font-size:7px;font-family:Futura, 'Futura PT', 'Trebuchet MS', Arial, sans-serif;dominant-baseline:middle;text-anchor:middle;opacity:0.0625;fill:#0a0a0a"
         transform="translate(0.7,1.0)"
         aria-label="-15" />
      <path
         d="m -5.5440054,-41.6055 h 2.009 v 1.057 h -2.009 z m 3.8640046,-1.715 h -0.77 v -1.162 h 2.142 v 5.278 h -1.372 z m 6.3840041,0 h -1.827 l -0.091,0.581 q 0.126,-0.014 0.231,-0.021 0.105,-0.014 0.217,-0.014 0.399,0 0.742,0.14 0.343,0.14 0.588,0.385 0.245,0.245 0.385,0.588 0.14,0.343 0.14,0.749 0,0.427 -0.161,0.77 -0.154,0.343 -0.441,0.588 -0.287,0.238 -0.7,0.364 -0.413,0.133 -0.917,0.133 -0.476,0 -0.91,-0.119 -0.427,-0.112 -0.805,-0.35 l 0.203,-1.288 q 0.35,0.301 0.714,0.462 0.364,0.154 0.693,0.154 0.42,0 0.665,-0.224 0.245,-0.231 0.245,-0.567 0,-0.392 -0.329,-0.63 -0.329,-0.245 -0.861,-0.245 -0.238,0 -0.49,0.056 -0.252,0.049 -0.497,0.161 l 0.441,-2.835 h 2.765 z"
         id="text13"
         class="label-main"
         style="font-weight:700;font-size:7px;font-family:Futura, 'Futura PT', 'Trebuchet MS', Arial, sans-serif;dominant-baseline:middle;text-anchor:middle;opacity:0.8464;fill:#e8e1cf"
         aria-label="-15" />
      <path
         d="m -5.5440054,-41.6055 h 2.009 v 1.057 h -2.009 z m 3.8640046,-1.715 h -0.77 v -1.162 h 2.142 v 5.278 h -1.372 z m 6.3840041,0 h -1.827 l -0.091,0.581 q 0.126,-0.014 0.231,-0.021 0.105,-0.014 0.217,-0.014 0.399,0 0.742,0.14 0.343,0.14 0.588,0.385 0.245,0.245 0.385,0.588 0.14,0.343 0.14,0.749 0,0.427 -0.161,0.77 -0.154,0.343 -0.441,0.588 -0.287,0.238 -0.7,0.364 -0.413,0.133 -0.917,0.133 -0.476,0 -0.91,-0.119 -0.427,-0.112 -0.805,-0.35 l 0.203,-1.288 q 0.35,0.301 0.714,0.462 0.364,0.154 0.693,0.154 0.42,0 0.665,-0.224 0.245,-0.231 0.245,-0.567 0,-0.392 -0.329,-0.63 -0.329,-0.245 -0.861,-0.245 -0.238,0 -0.49,0.056 -0.252,0.049 -0.497,0.161 l 0.441,-2.835 h 2.765 z"
         id="text14"
         class="label-highlight"
         style="font-weight:700;font-size:7px;font-family:Futura, 'Futura PT', 'Trebuchet MS', Arial, sans-serif;dominant-baseline:middle;text-anchor:middle;opacity:0.2025;fill:#f5f2e6"
         transform="translate(-0.6,-0.6)"
         aria-label="-15" />
    </g>
    <g
       transform="rotate(67.5)"
       id="g17">
      <g
         id="line14"
         class="tick-major"
         style="opacity:0.82">
        <g
           id="path57"
           style="opacity:1">
          <path
             style="baseline-shift:baseline;display:inline;overflow:visible;vector-effect:none;stroke:none;enable-background:accumulate;stop-color:#000000;stop-opacity:1"
             d="M 0,-30.5 V -39"
             id="path111" />
          <path
             style="baseline-shift:baseline;display:inline;overflow:visible;vector-effect:none;fill:#e8e1cf;stroke:none;enable-background:accumulate;stop-color:#000000;stop-opacity:1"
             d="M 0,-39.599609 A 0.60000002,0.60000002 0 0 0 -0.59960937,-39 v 8.5 A 0.60000002,0.60000002 0 0 0 0,-29.900391 0.60000002,0.60000002 0 0 0 0.59960937,-30.5 V -39 A 0.60000002,0.60000002 0 0 0 0,-39.599609 Z"
             id="path112" />
        </g>
        <g
           id="path58"
           style="opacity:1">
          <path
             style="baseline-shift:baseline;display:inline;overflow:visible;vector-effect:none;fill:#e8e1cf;stroke:none;enable-background:accumulate;stop-color:#000000;stop-opacity:1"
             d="M 0,-39.599609 A 0.60000002,0.60000002 0 0 0 -0.59960937,-39 v 8.5 A 0.60000002,0.60000002 0 0 0 0,-29.900391 0.60000002,0.60000002 0 0 0 0.59960937,-30.5 V -39 A 0.60000002,0.60000002 0 0 0 0,-39.599609 Z"
             id="path113" />
          <path
             style="baseline-shift:baseline;display:inline;overflow:visible;vector-effect:none;fill:#e8e1cf;stroke:none;enable-background:accumulate;stop-color:#000000;stop-opacity:1"
             d="m 0,-40.199219 c -0.65505341,4.27e-4 -1.198792,0.544166 -1.1992187,1.199219 v 8.5 C -1.198792,-29.844947 -0.65505341,-29.301208 0,-29.300781 0.65505341,-29.301208 1.198792,-29.844947 1.1992187,-30.5 V -39 C 1.198792,-39.655053 0.65505341,-40.198792 0,-40.199219 Z"
             id="path114" />
        </g>
      </g>
      <path
         d="m -5.6245012,-41.6055 h 2.009 v 1.057 h -2.009 z m 3.8640046,-1.715 h -0.77 v -1.162 h 2.14199996 v 5.278 H -1.7604966 Z m 4.1229957,1.47 q 0,0.35 0.063,0.637 0.063,0.287 0.175,0.497 0.119,0.21 0.28,0.329 0.161,0.112 0.364,0.112 0.196,0 0.357,-0.112 0.168,-0.119 0.28,-0.329 0.112,-0.21 0.175,-0.497 0.063,-0.287 0.063,-0.637 0,-0.343 -0.063,-0.63 -0.063,-0.294 -0.175,-0.497 -0.112,-0.21 -0.28,-0.322 -0.161,-0.119 -0.357,-0.119 -0.203,0 -0.364,0.119 -0.161,0.112 -0.28,0.322 -0.112,0.203 -0.175,0.497 -0.063,0.287 -0.063,0.63 z m -1.358,0 q 0,-0.63 0.161,-1.141 0.168,-0.518 0.462,-0.882 0.301,-0.364 0.707,-0.56 0.413,-0.203 0.91,-0.203 0.49,0 0.903,0.203 0.413,0.196 0.707,0.56 0.294,0.364 0.455,0.882 0.168,0.511 0.168,1.141 0,0.63 -0.168,1.148 -0.161,0.511 -0.455,0.882 -0.294,0.364 -0.707,0.567 -0.413,0.196 -0.903,0.196 -0.497,0 -0.91,-0.196 -0.406,-0.203 -0.707,-0.567 -0.294,-0.371 -0.462,-0.882 -0.161,-0.518 -0.161,-1.148 z"
         id="text15"
         class="label-shadow"
         style="font-weight:700;font-size:7px;font-family:Futura, 'Futura PT', 'Trebuchet MS', Arial, sans-serif;dominant-baseline:middle;text-anchor:middle;opacity:0.0625;fill:#0a0a0a"
         transform="translate(0.7,1.0)"
         aria-label="-10" />
      <path
         d="m -5.6245012,-41.6055 h 2.009 v 1.057 h -2.009 z m 3.8640046,-1.715 h -0.77 v -1.162 h 2.14199996 v 5.278 H -1.7604966 Z m 4.1229957,1.47 q 0,0.35 0.063,0.637 0.063,0.287 0.175,0.497 0.119,0.21 0.28,0.329 0.161,0.112 0.364,0.112 0.196,0 0.357,-0.112 0.168,-0.119 0.28,-0.329 0.112,-0.21 0.175,-0.497 0.063,-0.287 0.063,-0.637 0,-0.343 -0.063,-0.63 -0.063,-0.294 -0.175,-0.497 -0.112,-0.21 -0.28,-0.322 -0.161,-0.119 -0.357,-0.119 -0.203,0 -0.364,0.119 -0.161,0.112 -0.28,0.322 -0.112,0.203 -0.175,0.497 -0.063,0.287 -0.063,0.63 z m -1.358,0 q 0,-0.63 0.161,-1.141 0.168,-0.518 0.462,-0.882 0.301,-0.364 0.707,-0.56 0.413,-0.203 0.91,-0.203 0.49,0 0.903,0.203 0.413,0.196 0.707,0.56 0.294,0.364 0.455,0.882 0.168,0.511 0.168,1.141 0,0.63 -0.168,1.148 -0.161,0.511 -0.455,0.882 -0.294,0.364 -0.707,0.567 -0.413,0.196 -0.903,0.196 -0.497,0 -0.91,-0.196 -0.406,-0.203 -0.707,-0.567 -0.294,-0.371 -0.462,-0.882 -0.161,-0.518 -0.161,-1.148 z"
         id="text16"
         class="label-main"
         style="font-weight:700;font-size:7px;font-family:Futura, 'Futura PT', 'Trebuchet MS', Arial, sans-serif;dominant-baseline:middle;text-anchor:middle;opacity:0.8464;fill:#e8e1cf"
         aria-label="-10" />
      <path
         d="m -5.6245012,-41.6055 h 2.009 v 1.057 h -2.009 z m 3.8640046,-1.715 h -0.77 v -1.162 h 2.14199996 v 5.278 H -1.7604966 Z m 4.1229957,1.47 q 0,0.35 0.063,0.637 0.063,0.287 0.175,0.497 0.119,0.21 0.28,0.329 0.161,0.112 0.364,0.112 0.196,0 0.357,-0.112 0.168,-0.119 0.28,-0.329 0.112,-0.21 0.175,-0.497 0.063,-0.287 0.063,-0.637 0,-0.343 -0.063,-0.63 -0.063,-0.294 -0.175,-0.497 -0.112,-0.21 -0.28,-0.322 -0.161,-0.119 -0.357,-0.119 -0.203,0 -0.364,0.119 -0.161,0.112 -0.28,0.322 -0.112,0.203 -0.175,0.497 -0.063,0.287 -0.063,0.63 z m -1.358,0 q 0,-0.63 0.161,-1.141 0.168,-0.518 0.462,-0.882 0.301,-0.364 0.707,-0.56 0.413,-0.203 0.91,-0.203 0.49,0 0.903,0.203 0.413,0.196 0.707,0.56 0.294,0.364 0.455,0.882 0.168,0.511 0.168,1.141 0,0.63 -0.168,1.148 -0.161,0.511 -0.455,0.882 -0.294,0.364 -0.707,0.567 -0.413,0.196 -0.903,0.196 -0.497,0 -0.91,-0.196 -0.406,-0.203 -0.707,-0.567 -0.294,-0.371 -0.462,-0.882 -0.161,-0.518 -0.161,-1.148 z"
         id="text17"
         class="label-highlight"
         style="font-weight:700;font-size:7px;font-family:Futura, 'Futura PT', 'Trebuchet MS', Arial, sans-serif;dominant-baseline:middle;text-anchor:middle;opacity:0.2025;fill:#f5f2e6"
         transform="translate(-0.6,-0.6)"
         aria-label="-10" />
    </g>
    <g
       transform="rotate(33.75)"
       id="g20">
      <g
         id="line17"
         class="tick-major"
         style="opacity:0.82">
        <g
           id="path59"
           style="opacity:1">
          <path
             style="baseline-shift:baseline;display:inline;overflow:visible;vector-effect:none;stroke:none;enable-background:accumulate;stop-color:#000000;stop-opacity:1"
             d="M 0,-30.5 V -39"
             id="path115" />
          <path
             style="baseline-shift:baseline;display:inline;overflow:visible;vector-effect:none;fill:#e8e1cf;stroke:none;enable-background:accumulate;stop-color:#000000;stop-opacity:1"
             d="M 0,-39.599609 A 0.60000002,0.60000002 0 0 0 -0.59960937,-39 v 8.5 A 0.60000002,0.60000002 0 0 0 0,-29.900391 0.60000002,0.60000002 0 0 0 0.59960937,-30.5 V -39 A 0.60000002,0.60000002 0 0 0 0,-39.599609 Z"
             id="path116" />
        </g>
        <g
           id="path60"
           style="opacity:1">
          <path
             style="baseline-shift:baseline;display:inline;overflow:visible;vector-effect:none;fill:#e8e1cf;stroke:none;enable-background:accumulate;stop-color:#000000;stop-opacity:1"
             d="M 0,-39.599609 A 0.60000002,0.60000002 0 0 0 -0.59960937,-39 v 8.5 A 0.60000002,0.60000002 0 0 0 0,-29.900391 0.60000002,0.60000002 0 0 0 0.59960937,-30.5 V -39 A 0.60000002,0.60000002 0 0 0 0,-39.599609 Z"
             id="path117" />
          <path
             style="baseline-shift:baseline;display:inline;overflow:visible;vector-effect:none;fill:#e8e1cf;stroke:none;enable-background:accumulate;stop-color:#000000;stop-opacity:1"
             d="m 0,-40.199219 c -0.65505341,4.27e-4 -1.198792,0.544166 -1.1992187,1.199219 v 8.5 C -1.198792,-29.844947 -0.65505341,-29.301208 0,-29.300781 0.65505341,-29.301208 1.198792,-29.844947 1.1992187,-30.5 V -39 C 1.198792,-39.655053 0.65505341,-40.198792 0,-40.199219 Z"
             id="path118" />
        </g>
      </g>
      <path
         d="m -3.3845034,-40.6055 h 2.009 v 1.057 h -2.009 z m 5.9290046,-1.715 H 0.71750123 l -0.091,0.581 q 0.126,-0.014 0.231,-0.021 0.105,-0.014 0.21699997,-0.014 0.399,0 0.742,0.14 0.343,0.14 0.588,0.385 0.245,0.245 0.385,0.588 0.14,0.343 0.14,0.749 0,0.427 -0.161,0.77 -0.154,0.343 -0.441,0.588 -0.287,0.238 -0.7,0.364 -0.413,0.133 -0.91699997,0.133 -0.476,0 -0.91,-0.119 -0.427,-0.112 -0.80500003,-0.35 l 0.20300003,-1.288 q 0.35,0.301 0.714,0.462 0.364,0.154 0.693,0.154 0.41999997,0 0.66499997,-0.224 0.245,-0.231 0.245,-0.567 0,-0.392 -0.329,-0.63 -0.32899997,-0.245 -0.86099997,-0.245 -0.238,0 -0.49,0.056 -0.252,0.049 -0.497,0.161 l 0.441,-2.835 H 2.5445012 Z"
         id="text18"
         class="label-shadow"
         style="font-weight:700;font-size:7px;font-family:Futura, 'Futura PT', 'Trebuchet MS', Arial, sans-serif;dominant-baseline:middle;text-anchor:middle;opacity:0.0625;fill:#0a0a0a"
         transform="translate(0.6,0.9)"
         aria-label="-5" />
      <path
         d="m -3.3845034,-40.6055 h 2.009 v 1.057 h -2.009 z m 5.9290046,-1.715 H 0.71750123 l -0.091,0.581 q 0.126,-0.014 0.231,-0.021 0.105,-0.014 0.21699997,-0.014 0.399,0 0.742,0.14 0.343,0.14 0.588,0.385 0.245,0.245 0.385,0.588 0.14,0.343 0.14,0.749 0,0.427 -0.161,0.77 -0.154,0.343 -0.441,0.588 -0.287,0.238 -0.7,0.364 -0.413,0.133 -0.91699997,0.133 -0.476,0 -0.91,-0.119 -0.427,-0.112 -0.80500003,-0.35 l 0.20300003,-1.288 q 0.35,0.301 0.714,0.462 0.364,0.154 0.693,0.154 0.41999997,0 0.66499997,-0.224 0.245,-0.231 0.245,-0.567 0,-0.392 -0.329,-0.63 -0.32899997,-0.245 -0.86099997,-0.245 -0.238,0 -0.49,0.056 -0.252,0.049 -0.497,0.161 l 0.441,-2.835 H 2.5445012 Z"
         id="text19"
         class="label-main"
         style="font-weight:700;font-size:7px;font-family:Futura, 'Futura PT', 'Trebuchet MS', Arial, sans-serif;dominant-baseline:middle;text-anchor:middle;opacity:0.8464;fill:#e8e1cf"
         aria-label="-5" />
      <path
         d="m -3.3845034,-40.6055 h 2.009 v 1.057 h -2.009 z m 5.9290046,-1.715 H 0.71750123 l -0.091,0.581 q 0.126,-0.014 0.231,-0.021 0.105,-0.014 0.21699997,-0.014 0.399,0 0.742,0.14 0.343,0.14 0.588,0.385 0.245,0.245 0.385,0.588 0.14,0.343 0.14,0.749 0,0.427 -0.161,0.77 -0.154,0.343 -0.441,0.588 -0.287,0.238 -0.7,0.364 -0.413,0.133 -0.91699997,0.133 -0.476,0 -0.91,-0.119 -0.427,-0.112 -0.80500003,-0.35 l 0.20300003,-1.288 q 0.35,0.301 0.714,0.462 0.364,0.154 0.693,0.154 0.41999997,0 0.66499997,-0.224 0.245,-0.231 0.245,-0.567 0,-0.392 -0.329,-0.63 -0.32899997,-0.245 -0.86099997,-0.245 -0.238,0 -0.49,0.056 -0.252,0.049 -0.497,0.161 l 0.441,-2.835 H 2.5445012 Z"
         id="text20"
         class="label-highlight"
         style="font-weight:700;font-size:7px;font-family:Futura, 'Futura PT', 'Trebuchet MS', Arial, sans-serif;dominant-baseline:middle;text-anchor:middle;opacity:0.2025;fill:#f5f2e6"
         transform="translate(-0.5,-0.6)"
         aria-label="-5" />
    </g>
    <g
       id="g23">
      <g
         id="line20"
         class="tick-major"
         style="opacity:0.82">
        <g
           id="path61"
           style="opacity:1">
          <path
             style="baseline-shift:baseline;display:inline;overflow:visible;vector-effect:none;stroke:none;enable-background:accumulate;stop-color:#000000;stop-opacity:1"
             d="m 0,-30 v -9"
             id="path119" />
          <path
             style="baseline-shift:baseline;display:inline;overflow:visible;vector-effect:none;fill:#e8e1cf;stroke:none;enable-background:accumulate;stop-color:#000000;stop-opacity:1"
             d="M 0,-39.599609 A 0.60000002,0.60000002 0 0 0 -0.59960937,-39 v 9 A 0.60000002,0.60000002 0 0 0 0,-29.400391 0.60000002,0.60000002 0 0 0 0.59960937,-30 v -9 A 0.60000002,0.60000002 0 0 0 0,-39.599609 Z"
             id="path120" />
        </g>
        <g
           id="path62"
           style="opacity:1">
          <path
             style="baseline-shift:baseline;display:inline;overflow:visible;vector-effect:none;fill:#e8e1cf;stroke:none;enable-background:accumulate;stop-color:#000000;stop-opacity:1"
             d="M 0,-39.599609 A 0.60000002,0.60000002 0 0 0 -0.59960937,-39 v 9 A 0.60000002,0.60000002 0 0 0 0,-29.400391 0.60000002,0.60000002 0 0 0 0.59960937,-30 v -9 A 0.60000002,0.60000002 0 0 0 0,-39.599609 Z"
             id="path121" />
          <path
             style="baseline-shift:baseline;display:inline;overflow:visible;vector-effect:none;fill:#e8e1cf;stroke:none;enable-background:accumulate;stop-color:#000000;stop-opacity:1"
             d="m 0,-40.199219 c -0.65505341,4.27e-4 -1.198792,0.544166 -1.1992187,1.199219 v 9 C -1.198792,-29.344947 -0.65505341,-28.801208 0,-28.800781 0.65505341,-28.801208 1.198792,-29.344947 1.1992187,-30 v -9 C 1.198792,-39.655053 0.65505341,-40.198792 0,-40.199219 Z"
             id="path122" />
        </g>
      </g>
      <path
         d="m -0.88200107,-40.8505 q 0,0.35 0.063,0.637 0.063,0.287 0.175,0.497 0.119,0.21 0.28,0.329 0.161,0.112 0.3640000018848,0.112 0.1959999981152,0 0.3569999981152,-0.112 0.168,-0.119 0.28,-0.329 0.112,-0.21 0.175,-0.497 0.063,-0.287 0.063,-0.637 0,-0.343 -0.063,-0.63 -0.063,-0.294 -0.175,-0.497 -0.112,-0.21 -0.28,-0.322 -0.161,-0.119 -0.3569999981152,-0.119 -0.2030000018848,0 -0.3640000018848,0.119 -0.161,0.112 -0.28,0.322 -0.112,0.203 -0.175,0.497 -0.063,0.287 -0.063,0.63 z m -1.35800003,0 q 0,-0.63 0.161,-1.141 0.168,-0.518 0.462,-0.882 0.301,-0.364 0.70700003,-0.56 0.413,-0.203 0.9100000018848,-0.203 0.4899999981152,0 0.9029999981152,0.203 0.41299997,0.196 0.70699997,0.56 0.294,0.364 0.455,0.882 0.168,0.511 0.168,1.141 0,0.63 -0.168,1.148 -0.161,0.511 -0.455,0.882 -0.294,0.364 -0.70699997,0.567 -0.413,0.196 -0.9029999981152,0.196 -0.4970000018848,0 -0.9100000018848,-0.196 -0.40600003,-0.203 -0.70700003,-0.567 -0.294,-0.371 -0.462,-0.882 -0.161,-0.518 -0.161,-1.148 z"
         id="text21"
         class="label-shadow"
         style="font-weight:700;font-size:7px;font-family:Futura, 'Futura PT', 'Trebuchet MS', Arial, sans-serif;dominant-baseline:middle;text-anchor:middle;opacity:0.0625;fill:#0a0a0a"
         transform="translate(0.6,1.0)"
         aria-label="0" />
      <path
         d="m -0.88200107,-40.8505 q 0,0.35 0.063,0.637 0.063,0.287 0.175,0.497 0.119,0.21 0.28,0.329 0.161,0.112 0.3640000018848,0.112 0.1959999981152,0 0.3569999981152,-0.112 0.168,-0.119 0.28,-0.329 0.112,-0.21 0.175,-0.497 0.063,-0.287 0.063,-0.637 0,-0.343 -0.063,-0.63 -0.063,-0.294 -0.175,-0.497 -0.112,-0.21 -0.28,-0.322 -0.161,-0.119 -0.3569999981152,-0.119 -0.2030000018848,0 -0.3640000018848,0.119 -0.161,0.112 -0.28,0.322 -0.112,0.203 -0.175,0.497 -0.063,0.287 -0.063,0.63 z m -1.35800003,0 q 0,-0.63 0.161,-1.141 0.168,-0.518 0.462,-0.882 0.301,-0.364 0.70700003,-0.56 0.413,-0.203 0.9100000018848,-0.203 0.4899999981152,0 0.9029999981152,0.203 0.41299997,0.196 0.70699997,0.56 0.294,0.364 0.455,0.882 0.168,0.511 0.168,1.141 0,0.63 -0.168,1.148 -0.161,0.511 -0.455,0.882 -0.294,0.364 -0.70699997,0.567 -0.413,0.196 -0.9029999981152,0.196 -0.4970000018848,0 -0.9100000018848,-0.196 -0.40600003,-0.203 -0.70700003,-0.567 -0.294,-0.371 -0.462,-0.882 -0.161,-0.518 -0.161,-1.148 z"
         id="text22"
         class="label-main"
         style="font-weight:700;font-size:7px;font-family:Futura, 'Futura PT', 'Trebuchet MS', Arial, sans-serif;dominant-baseline:middle;text-anchor:middle;opacity:0.8464;fill:#e8e1cf"
         aria-label="0" />
      <path
         d="m -0.88200107,-40.8505 q 0,0.35 0.063,0.637 0.063,0.287 0.175,0.497 0.119,0.21 0.28,0.329 0.161,0.112 0.3640000018848,0.112 0.1959999981152,0 0.3569999981152,-0.112 0.168,-0.119 0.28,-0.329 0.112,-0.21 0.175,-0.497 0.063,-0.287 0.063,-0.637 0,-0.343 -0.063,-0.63 -0.063,-0.294 -0.175,-0.497 -0.112,-0.21 -0.28,-0.322 -0.161,-0.119 -0.3569999981152,-0.119 -0.2030000018848,0 -0.3640000018848,0.119 -0.161,0.112 -0.28,0.322 -0.112,0.203 -0.175,0.497 -0.063,0.287 -0.063,0.63 z m -1.35800003,0 q 0,-0.63 0.161,-1.141 0.168,-0.518 0.462,-0.882 0.301,-0.364 0.70700003,-0.56 0.413,-0.203 0.9100000018848,-0.203 0.4899999981152,0 0.9029999981152,0.203 0.41299997,0.196 0.70699997,0.56 0.294,0.364 0.455,0.882 0.168,0.511 0.168,1.141 0,0.63 -0.168,1.148 -0.161,0.511 -0.455,0.882 -0.294,0.364 -0.70699997,0.567 -0.413,0.196 -0.9029999981152,0.196 -0.4970000018848,0 -0.9100000018848,-0.196 -0.40600003,-0.203 -0.70700003,-0.567 -0.294,-0.371 -0.462,-0.882 -0.161,-0.518 -0.161,-1.148 z"
         id="text23"
         class="label-highlight"
         style="font-weight:700;font-size:7px;font-family:Futura, 'Futura PT', 'Trebuchet MS', Arial, sans-serif;dominant-baseline:middle;text-anchor:middle;opacity:0.2025;fill:#f5f2e6"
         transform="translate(-0.5,-0.6)"
         aria-label="0" />
    </g>
    <g
       transform="rotate(-33.75)"
       id="g26">
      <g
         id="line23"
         class="tick-major"
         style="opacity:0.82">
        <g
           id="path63"
           style="opacity:1">
          <path
             style="baseline-shift:baseline;display:inline;overflow:visible;vector-effect:none;stroke:none;enable-background:accumulate;stop-color:#000000;stop-opacity:1"
             d="M 0,-30.5 V -39"
             id="path123" />
          <path
             style="baseline-shift:baseline;display:inline;overflow:visible;vector-effect:none;fill:#e8e1cf;stroke:none;enable-background:accumulate;stop-color:#000000;stop-opacity:1"
             d="M 0,-39.599609 A 0.60000002,0.60000002 0 0 0 -0.59960937,-39 v 8.5 A 0.60000002,0.60000002 0 0 0 0,-29.900391 0.60000002,0.60000002 0 0 0 0.59960937,-30.5 V -39 A 0.60000002,0.60000002 0 0 0 0,-39.599609 Z"
             id="path124" />
        </g>
        <g
           id="path64"
           style="opacity:1">
          <path
             style="baseline-shift:baseline;display:inline;overflow:visible;vector-effect:none;fill:#e8e1cf;stroke:none;enable-background:accumulate;stop-color:#000000;stop-opacity:1"
             d="M 0,-39.599609 A 0.60000002,0.60000002 0 0 0 -0.59960937,-39 v 8.5 A 0.60000002,0.60000002 0 0 0 0,-29.900391 0.60000002,0.60000002 0 0 0 0.59960937,-30.5 V -39 A 0.60000002,0.60000002 0 0 0 0,-39.599609 Z"
             id="path125" />
          <path
             style="baseline-shift:baseline;display:inline;overflow:visible;vector-effect:none;fill:#e8e1cf;stroke:none;enable-background:accumulate;stop-color:#000000;stop-opacity:1"
             d="m 0,-40.199219 c -0.65505341,4.27e-4 -1.198792,0.544166 -1.1992187,1.199219 v 8.5 C -1.198792,-29.844947 -0.65505341,-29.301208 0,-29.300781 0.65505341,-29.301208 1.198792,-29.844947 1.1992187,-30.5 V -39 C 1.198792,-39.655053 0.65505341,-40.198792 0,-40.199219 Z"
             id="path126" />
        </g>
      </g>
      <path
         d="m 1.5399989,-42.3205 h -1.82699997 l -0.091,0.581 q 0.126,-0.014 0.231,-0.021 0.105,-0.014 0.217,-0.014 0.399,0 0.742,0.14 0.34299997,0.14 0.58799997,0.385 0.245,0.245 0.385,0.588 0.14,0.343 0.14,0.749 0,0.427 -0.161,0.77 -0.154,0.343 -0.441,0.588 -0.287,0.238 -0.69999997,0.364 -0.413,0.133 -0.917,0.133 -0.476,0 -0.91000003,-0.119 -0.427,-0.112 -0.805,-0.35 l 0.203,-1.288 q 0.35,0.301 0.714,0.462 0.36400003,0.154 0.69300003,0.154 0.42,0 0.665,-0.224 0.245,-0.231 0.245,-0.567 0,-0.392 -0.329,-0.63 -0.329,-0.245 -0.861,-0.245 -0.238,0 -0.49000003,0.056 -0.252,0.049 -0.497,0.161 l 0.441,-2.835 h 2.765 z"
         id="text24"
         class="label-shadow"
         style="font-weight:700;font-size:7px;font-family:Futura, 'Futura PT', 'Trebuchet MS', Arial, sans-serif;dominant-baseline:middle;text-anchor:middle;opacity:0.0625;fill:#0a0a0a"
         transform="translate(0.6,0.9)"
         aria-label="5" />
      <path
         d="m 1.5399989,-42.3205 h -1.82699997 l -0.091,0.581 q 0.126,-0.014 0.231,-0.021 0.105,-0.014 0.217,-0.014 0.399,0 0.742,0.14 0.34299997,0.14 0.58799997,0.385 0.245,0.245 0.385,0.588 0.14,0.343 0.14,0.749 0,0.427 -0.161,0.77 -0.154,0.343 -0.441,0.588 -0.287,0.238 -0.69999997,0.364 -0.413,0.133 -0.917,0.133 -0.476,0 -0.91000003,-0.119 -0.427,-0.112 -0.805,-0.35 l 0.203,-1.288 q 0.35,0.301 0.714,0.462 0.36400003,0.154 0.69300003,0.154 0.42,0 0.665,-0.224 0.245,-0.231 0.245,-0.567 0,-0.392 -0.329,-0.63 -0.329,-0.245 -0.861,-0.245 -0.238,0 -0.49000003,0.056 -0.252,0.049 -0.497,0.161 l 0.441,-2.835 h 2.765 z"
         id="text25"
         class="label-main"
         style="font-weight:700;font-size:7px;font-family:Futura, 'Futura PT', 'Trebuchet MS', Arial, sans-serif;dominant-baseline:middle;text-anchor:middle;opacity:0.8464;fill:#e8e1cf"
         aria-label="5" />
      <path
         d="m 1.5399989,-42.3205 h -1.82699997 l -0.091,0.581 q 0.126,-0.014 0.231,-0.021 0.105,-0.014 0.217,-0.014 0.399,0 0.742,0.14 0.34299997,0.14 0.58799997,0.385 0.245,0.245 0.385,0.588 0.14,0.343 0.14,0.749 0,0.427 -0.161,0.77 -0.154,0.343 -0.441,0.588 -0.287,0.238 -0.69999997,0.364 -0.413,0.133 -0.917,0.133 -0.476,0 -0.91000003,-0.119 -0.427,-0.112 -0.805,-0.35 l 0.203,-1.288 q 0.35,0.301 0.714,0.462 0.36400003,0.154 0.69300003,0.154 0.42,0 0.665,-0.224 0.245,-0.231 0.245,-0.567 0,-0.392 -0.329,-0.63 -0.329,-0.245 -0.861,-0.245 -0.238,0 -0.49000003,0.056 -0.252,0.049 -0.497,0.161 l 0.441,-2.835 h 2.765 z"
         id="text26"
         class="label-highlight"
         style="font-weight:700;font-size:7px;font-family:Futura, 'Futura PT', 'Trebuchet MS', Arial, sans-serif;dominant-baseline:middle;text-anchor:middle;opacity:0.2025;fill:#f5f2e6"
         transform="translate(-0.5,-0.6)"
         aria-label="5" />
    </g>
    <g
       transform="rotate(-67.5)"
       id="g29">
      <g
         id="line26"
         class="tick-major"
         style="opacity:0.82">
        <g
           id="path65"
           style="opacity:1">
          <path
             style="baseline-shift:baseline;display:inline;overflow:visible;vector-effect:none;stroke:none;enable-background:accumulate;stop-color:#000000;stop-opacity:1"
             d="M 0,-30.5 V -39"
             id="path127" />
          <path
             style="baseline-shift:baseline;display:inline;overflow:visible;vector-effect:none;fill:#e8e1cf;stroke:none;enable-background:accumulate;stop-color:#000000;stop-opacity:1"
             d="M 0,-39.599609 A 0.60000002,0.60000002 0 0 0 -0.59960937,-39 v 8.5 A 0.60000002,0.60000002 0 0 0 0,-29.900391 0.60000002,0.60000002 0 0 0 0.59960937,-30.5 V -39 A 0.60000002,0.60000002 0 0 0 0,-39.599609 Z"
             id="path128" />
        </g>
        <g
           id="path66"
           style="opacity:1">
          <path
             style="baseline-shift:baseline;display:inline;overflow:visible;vector-effect:none;fill:#e8e1cf;stroke:none;enable-background:accumulate;stop-color:#000000;stop-opacity:1"
             d="M 0,-39.599609 A 0.60000002,0.60000002 0 0 0 -0.59960937,-39 v 8.5 A 0.60000002,0.60000002 0 0 0 0,-29.900391 0.60000002,0.60000002 0 0 0 0.59960937,-30.5 V -39 A 0.60000002,0.60000002 0 0 0 0,-39.599609 Z"
             id="path129" />
          <path
             style="baseline-shift:baseline;display:inline;overflow:visible;vector-effect:none;fill:#e8e1cf;stroke:none;enable-background:accumulate;stop-color:#000000;stop-opacity:1"
             d="m 0,-40.199219 c -0.65505341,4.27e-4 -1.198792,0.544166 -1.1992187,1.199219 v 8.5 C -1.198792,-29.844947 -0.65505341,-29.301208 0,-29.300781 0.65505341,-29.301208 1.198792,-29.844947 1.1992187,-30.5 V -39 C 1.198792,-39.655053 0.65505341,-40.198792 0,-40.199219 Z"
             id="path130" />
        </g>
      </g>
      <path
         d="m -2.7649989,-43.3205 h -0.77 v -1.162 h 2.142 v 5.278 h -1.372 z m 4.1229957,1.47 q 0,0.35 0.063,0.637 0.063,0.287 0.175,0.497 0.119,0.21 0.28,0.329 0.161,0.112 0.364,0.112 0.196,0 0.357,-0.112 0.168,-0.119 0.28,-0.329 0.112,-0.21 0.175,-0.497 0.063,-0.287 0.063,-0.637 0,-0.343 -0.063,-0.63 -0.063,-0.294 -0.175,-0.497 -0.112,-0.21 -0.28,-0.322 -0.161,-0.119 -0.357,-0.119 -0.203,0 -0.364,0.119 -0.161,0.112 -0.28,0.322 -0.112,0.203 -0.175,0.497 -0.063,0.287 -0.063,0.63 z m -1.3580000043457,0 q 0,-0.63 0.1610000043457,-1.141 0.168,-0.518 0.462,-0.882 0.301,-0.364 0.707,-0.56 0.413,-0.203 0.91,-0.203 0.49,0 0.903,0.203 0.413,0.196 0.707,0.56 0.294,0.364 0.455,0.882 0.168,0.511 0.168,1.141 0,0.63 -0.168,1.148 -0.161,0.511 -0.455,0.882 -0.294,0.364 -0.707,0.567 -0.413,0.196 -0.903,0.196 -0.497,0 -0.91,-0.196 -0.406,-0.203 -0.707,-0.567 -0.294,-0.371 -0.462,-0.882 -0.1610000043457,-0.518 -0.1610000043457,-1.148 z"
         id="text27"
         class="label-shadow"
         style="font-weight:700;font-size:7px;font-family:Futura, 'Futura PT', 'Trebuchet MS', Arial, sans-serif;dominant-baseline:middle;text-anchor:middle;opacity:0.0625;fill:#0a0a0a"
         transform="translate(0.7,1.0)"
         aria-label="10" />
      <path
         d="m -2.7649989,-43.3205 h -0.77 v -1.162 h 2.142 v 5.278 h -1.372 z m 4.1229957,1.47 q 0,0.35 0.063,0.637 0.063,0.287 0.175,0.497 0.119,0.21 0.28,0.329 0.161,0.112 0.364,0.112 0.196,0 0.357,-0.112 0.168,-0.119 0.28,-0.329 0.112,-0.21 0.175,-0.497 0.063,-0.287 0.063,-0.637 0,-0.343 -0.063,-0.63 -0.063,-0.294 -0.175,-0.497 -0.112,-0.21 -0.28,-0.322 -0.161,-0.119 -0.357,-0.119 -0.203,0 -0.364,0.119 -0.161,0.112 -0.28,0.322 -0.112,0.203 -0.175,0.497 -0.063,0.287 -0.063,0.63 z m -1.3580000043457,0 q 0,-0.63 0.1610000043457,-1.141 0.168,-0.518 0.462,-0.882 0.301,-0.364 0.707,-0.56 0.413,-0.203 0.91,-0.203 0.49,0 0.903,0.203 0.413,0.196 0.707,0.56 0.294,0.364 0.455,0.882 0.168,0.511 0.168,1.141 0,0.63 -0.168,1.148 -0.161,0.511 -0.455,0.882 -0.294,0.364 -0.707,0.567 -0.413,0.196 -0.903,0.196 -0.497,0 -0.91,-0.196 -0.406,-0.203 -0.707,-0.567 -0.294,-0.371 -0.462,-0.882 -0.1610000043457,-0.518 -0.1610000043457,-1.148 z"
         id="text28"
         class="label-main"
         style="font-weight:700;font-size:7px;font-family:Futura, 'Futura PT', 'Trebuchet MS', Arial, sans-serif;dominant-baseline:middle;text-anchor:middle;opacity:0.8464;fill:#e8e1cf"
         aria-label="10" />
      <path
         d="m -2.7649989,-43.3205 h -0.77 v -1.162 h 2.142 v 5.278 h -1.372 z m 4.1229957,1.47 q 0,0.35 0.063,0.637 0.063,0.287 0.175,0.497 0.119,0.21 0.28,0.329 0.161,0.112 0.364,0.112 0.196,0 0.357,-0.112 0.168,-0.119 0.28,-0.329 0.112,-0.21 0.175,-0.497 0.063,-0.287 0.063,-0.637 0,-0.343 -0.063,-0.63 -0.063,-0.294 -0.175,-0.497 -0.112,-0.21 -0.28,-0.322 -0.161,-0.119 -0.357,-0.119 -0.203,0 -0.364,0.119 -0.161,0.112 -0.28,0.322 -0.112,0.203 -0.175,0.497 -0.063,0.287 -0.063,0.63 z m -1.3580000043457,0 q 0,-0.63 0.1610000043457,-1.141 0.168,-0.518 0.462,-0.882 0.301,-0.364 0.707,-0.56 0.413,-0.203 0.91,-0.203 0.49,0 0.903,0.203 0.413,0.196 0.707,0.56 0.294,0.364 0.455,0.882 0.168,0.511 0.168,1.141 0,0.63 -0.168,1.148 -0.161,0.511 -0.455,0.882 -0.294,0.364 -0.707,0.567 -0.413,0.196 -0.903,0.196 -0.497,0 -0.91,-0.196 -0.406,-0.203 -0.707,-0.567 -0.294,-0.371 -0.462,-0.882 -0.1610000043457,-0.518 -0.1610000043457,-1.148 z"
         id="text29"
         class="label-highlight"
         style="font-weight:700;font-size:7px;font-family:Futura, 'Futura PT', 'Trebuchet MS', Arial, sans-serif;dominant-baseline:middle;text-anchor:middle;opacity:0.2025;fill:#f5f2e6"
         transform="translate(-0.6,-0.6)"
         aria-label="10" />
    </g>
    <g
       transform="rotate(-101.25)"
       id="g32">
      <g
         id="line29"
         class="tick-major"
         style="opacity:0.82">
        <g
           id="path67"
           style="opacity:1">
          <path
             style="baseline-shift:baseline;display:inline;overflow:visible;vector-effect:none;stroke:none;enable-background:accumulate;stop-color:#000000;stop-opacity:1"
             d="M 0,-30.5 V -39"
             id="path131" />
          <path
             style="baseline-shift:baseline;display:inline;overflow:visible;vector-effect:none;fill:#e8e1cf;stroke:none;enable-background:accumulate;stop-color:#000000;stop-opacity:1"
             d="M 0,-39.599609 A 0.60000002,0.60000002 0 0 0 -0.59960937,-39 v 8.5 A 0.60000002,0.60000002 0 0 0 0,-29.900391 0.60000002,0.60000002 0 0 0 0.59960937,-30.5 V -39 A 0.60000002,0.60000002 0 0 0 0,-39.599609 Z"
             id="path132" />
        </g>
        <g
           id="path68"
           style="opacity:1">
          <path
             style="baseline-shift:baseline;display:inline;overflow:visible;vector-effect:none;fill:#e8e1cf;stroke:none;enable-background:accumulate;stop-color:#000000;stop-opacity:1"
             d="M 0,-39.599609 A 0.60000002,0.60000002 0 0 0 -0.59960937,-39 v 8.5 A 0.60000002,0.60000002 0 0 0 0,-29.900391 0.60000002,0.60000002 0 0 0 0.59960937,-30.5 V -39 A 0.60000002,0.60000002 0 0 0 0,-39.599609 Z"
             id="path133" />
          <path
             style="baseline-shift:baseline;display:inline;overflow:visible;vector-effect:none;fill:#e8e1cf;stroke:none;enable-background:accumulate;stop-color:#000000;stop-opacity:1"
             d="m 0,-40.199219 c -0.65505341,4.27e-4 -1.198792,0.544166 -1.1992187,1.199219 v 8.5 C -1.198792,-29.844947 -0.65505341,-29.301208 0,-29.300781 0.65505341,-29.301208 1.198792,-29.844947 1.1992187,-30.5 V -39 C 1.198792,-39.655053 0.65505341,-40.198792 0,-40.199219 Z"
             id="path134" />
        </g>
      </g>
      <path
         d="m -2.6845031,-43.3205 h -0.77 v -1.162 h 2.142 v 5.278 h -1.372 z m 6.3840041,0 h -1.827 l -0.091,0.581 q 0.126,-0.014 0.231,-0.021 0.105,-0.014 0.217,-0.014 0.399,0 0.742,0.14 0.343,0.14 0.588,0.385 0.245,0.245 0.385,0.588 0.14,0.343 0.14,0.749 0,0.427 -0.161,0.77 -0.154,0.343 -0.441,0.588 -0.287,0.238 -0.7,0.364 -0.413,0.133 -0.917,0.133 -0.476,0 -0.91000004,-0.119 -0.427,-0.112 -0.805,-0.35 l 0.203,-1.288 q 0.35,0.301 0.71400004,0.462 0.364,0.154 0.693,0.154 0.42,0 0.665,-0.224 0.245,-0.231 0.245,-0.567 0,-0.392 -0.329,-0.63 -0.329,-0.245 -0.861,-0.245 -0.238,0 -0.49000004,0.056 -0.252,0.049 -0.497,0.161 l 0.441,-2.835 H 3.699501 Z"
         id="text30"
         class="label-shadow"
         style="font-weight:700;font-size:7px;font-family:Futura, 'Futura PT', 'Trebuchet MS', Arial, sans-serif;dominant-baseline:middle;text-anchor:middle;opacity:0.0625;fill:#0a0a0a"
         transform="translate(0.7,1.0)"
         aria-label="15" />
      <path
         d="m -2.6845031,-43.3205 h -0.77 v -1.162 h 2.142 v 5.278 h -1.372 z m 6.3840041,0 h -1.827 l -0.091,0.581 q 0.126,-0.014 0.231,-0.021 0.105,-0.014 0.217,-0.014 0.399,0 0.742,0.14 0.343,0.14 0.588,0.385 0.245,0.245 0.385,0.588 0.14,0.343 0.14,0.749 0,0.427 -0.161,0.77 -0.154,0.343 -0.441,0.588 -0.287,0.238 -0.7,0.364 -0.413,0.133 -0.917,0.133 -0.476,0 -0.91000004,-0.119 -0.427,-0.112 -0.805,-0.35 l 0.203,-1.288 q 0.35,0.301 0.71400004,0.462 0.364,0.154 0.693,0.154 0.42,0 0.665,-0.224 0.245,-0.231 0.245,-0.567 0,-0.392 -0.329,-0.63 -0.329,-0.245 -0.861,-0.245 -0.238,0 -0.49000004,0.056 -0.252,0.049 -0.497,0.161 l 0.441,-2.835 H 3.699501 Z"
         id="text31"
         class="label-main"
         style="font-weight:700;font-size:7px;font-family:Futura, 'Futura PT', 'Trebuchet MS', Arial, sans-serif;dominant-baseline:middle;text-anchor:middle;opacity:0.8464;fill:#e8e1cf"
         aria-label="15" />
      <path
         d="m -2.6845031,-43.3205 h -0.77 v -1.162 h 2.142 v 5.278 h -1.372 z m 6.3840041,0 h -1.827 l -0.091,0.581 q 0.126,-0.014 0.231,-0.021 0.105,-0.014 0.217,-0.014 0.399,0 0.742,0.14 0.343,0.14 0.588,0.385 0.245,0.245 0.385,0.588 0.14,0.343 0.14,0.749 0,0.427 -0.161,0.77 -0.154,0.343 -0.441,0.588 -0.287,0.238 -0.7,0.364 -0.413,0.133 -0.917,0.133 -0.476,0 -0.91000004,-0.119 -0.427,-0.112 -0.805,-0.35 l 0.203,-1.288 q 0.35,0.301 0.71400004,0.462 0.364,0.154 0.693,0.154 0.42,0 0.665,-0.224 0.245,-0.231 0.245,-0.567 0,-0.392 -0.329,-0.63 -0.329,-0.245 -0.861,-0.245 -0.238,0 -0.49000004,0.056 -0.252,0.049 -0.497,0.161 l 0.441,-2.835 H 3.699501 Z"
         id="text32"
         class="label-highlight"
         style="font-weight:700;font-size:7px;font-family:Futura, 'Futura PT', 'Trebuchet MS', Arial, sans-serif;dominant-baseline:middle;text-anchor:middle;opacity:0.2025;fill:#f5f2e6"
         transform="translate(-0.6,-0.6)"
         aria-label="15" />
    </g>
    <g
       transform="rotate(-135)"
       id="g35">
      <g
         id="line32"
         class="tick-major"
         style="opacity:0.82">
        <g
           id="path69"
           style="opacity:1">
          <path
             style="baseline-shift:baseline;display:inline;overflow:visible;vector-effect:none;stroke:none;enable-background:accumulate;stop-color:#000000;stop-opacity:1"
             d="M 0,-30.5 V -39"
             id="path135" />
          <path
             style="baseline-shift:baseline;display:inline;overflow:visible;vector-effect:none;fill:#e8e1cf;stroke:none;enable-background:accumulate;stop-color:#000000;stop-opacity:1"
             d="M 0,-39.599609 A 0.60000002,0.60000002 0 0 0 -0.59960937,-39 v 8.5 A 0.60000002,0.60000002 0 0 0 0,-29.900391 0.60000002,0.60000002 0 0 0 0.59960937,-30.5 V -39 A 0.60000002,0.60000002 0 0 0 0,-39.599609 Z"
             id="path136" />
        </g>
        <g
           id="path70"
           style="opacity:1">
          <path
             style="baseline-shift:baseline;display:inline;overflow:visible;vector-effect:none;fill:#e8e1cf;stroke:none;enable-background:accumulate;stop-color:#000000;stop-opacity:1"
             d="M 0,-39.599609 A 0.60000002,0.60000002 0 0 0 -0.59960937,-39 v 8.5 A 0.60000002,0.60000002 0 0 0 0,-29.900391 0.60000002,0.60000002 0 0 0 0.59960937,-30.5 V -39 A 0.60000002,0.60000002 0 0 0 0,-39.599609 Z"
             id="path137" />
          <path
             style="baseline-shift:baseline;display:inline;overflow:visible;vector-effect:none;fill:#e8e1cf;stroke:none;enable-background:accumulate;stop-color:#000000;stop-opacity:1"
             d="m 0,-40.199219 c -0.65505341,4.27e-4 -1.198792,0.544166 -1.1992187,1.199219 v 8.5 C -1.198792,-29.844947 -0.65505341,-29.301208 0,-29.300781 0.65505341,-29.301208 1.198792,-29.844947 1.1992187,-30.5 V -39 C 1.198792,-39.655053 0.65505341,-40.198792 0,-40.199219 Z"
             id="path138" />
        </g>
      </g>
      <path
         d="M -0.31500214,-40.2045 H -4.5640021 l 1.309,-1.358 q 0.518,-0.539 0.812,-0.91 0.294,-0.378 0.434,-0.637 0.147,-0.259 0.182,-0.42 0.035,-0.161 0.035,-0.273 0,-0.119 -0.042,-0.231 -0.035,-0.112 -0.112,-0.196 -0.077,-0.091 -0.189,-0.14 -0.105,-0.056 -0.252,-0.056 -0.28,0 -0.441,0.182 -0.154,0.182 -0.154,0.455 0,0.077 0.021,0.224 h -1.498 q 0,-0.462 0.147,-0.84 0.154,-0.378 0.427,-0.651 0.273,-0.273 0.644,-0.42 0.378,-0.147 0.826,-0.147 0.441,0 0.812,0.14 0.378,0.14 0.65099996,0.392 0.273,0.252 0.427,0.602 0.154,0.343 0.154,0.749 0,0.434 -0.189,0.805 -0.182,0.364 -0.58799996,0.749 l -0.875,0.819 h 1.70799996 z M 1.498,-42.8505 q 0,0.35 0.063,0.637 0.063,0.287 0.175,0.497 0.119,0.21 0.28,0.329 0.161,0.112 0.364,0.112 0.196,0 0.357,-0.112 0.168,-0.119 0.28,-0.329 0.112,-0.21 0.175,-0.497 0.063,-0.287 0.063,-0.637 0,-0.343 -0.063,-0.63 -0.063,-0.294 -0.175,-0.497 -0.112,-0.21 -0.28,-0.322 -0.161,-0.119 -0.357,-0.119 -0.203,0 -0.364,0.119 -0.161,0.112 -0.28,0.322 -0.112,0.203 -0.175,0.497 -0.063,0.287 -0.063,0.63 z m -1.358,0 q 0,-0.63 0.161,-1.141 0.168,-0.518 0.462,-0.882 0.301,-0.364 0.707,-0.56 0.413,-0.203 0.91,-0.203 0.49,0 0.903,0.203 0.413,0.196 0.707,0.56 0.294,0.364 0.455,0.882 0.168,0.511 0.168,1.141 0,0.63 -0.168,1.148 -0.161,0.511 -0.455,0.882 -0.294,0.364 -0.707,0.567 -0.413,0.196 -0.903,0.196 -0.497,0 -0.91,-0.196 -0.406,-0.203 -0.707,-0.567 -0.294,-0.371 -0.462,-0.882 -0.161,-0.518 -0.161,-1.148 z"
         id="text33"
         class="label-shadow"
         style="font-weight:700;font-size:7px;font-family:Futura, 'Futura PT', 'Trebuchet MS', Arial, sans-serif;dominant-baseline:middle;text-anchor:middle;opacity:0.0625;fill:#0a0a0a"
         transform="translate(0.7,1.0)"
         aria-label="20" />
      <path
         d="M -0.31500214,-40.2045 H -4.5640021 l 1.309,-1.358 q 0.518,-0.539 0.812,-0.91 0.294,-0.378 0.434,-0.637 0.147,-0.259 0.182,-0.42 0.035,-0.161 0.035,-0.273 0,-0.119 -0.042,-0.231 -0.035,-0.112 -0.112,-0.196 -0.077,-0.091 -0.189,-0.14 -0.105,-0.056 -0.252,-0.056 -0.28,0 -0.441,0.182 -0.154,0.182 -0.154,0.455 0,0.077 0.021,0.224 h -1.498 q 0,-0.462 0.147,-0.84 0.154,-0.378 0.427,-0.651 0.273,-0.273 0.644,-0.42 0.378,-0.147 0.826,-0.147 0.441,0 0.812,0.14 0.378,0.14 0.65099996,0.392 0.273,0.252 0.427,0.602 0.154,0.343 0.154,0.749 0,0.434 -0.189,0.805 -0.182,0.364 -0.58799996,0.749 l -0.875,0.819 h 1.70799996 z M 1.498,-42.8505 q 0,0.35 0.063,0.637 0.063,0.287 0.175,0.497 0.119,0.21 0.28,0.329 0.161,0.112 0.364,0.112 0.196,0 0.357,-0.112 0.168,-0.119 0.28,-0.329 0.112,-0.21 0.175,-0.497 0.063,-0.287 0.063,-0.637 0,-0.343 -0.063,-0.63 -0.063,-0.294 -0.175,-0.497 -0.112,-0.21 -0.28,-0.322 -0.161,-0.119 -0.357,-0.119 -0.203,0 -0.364,0.119 -0.161,0.112 -0.28,0.322 -0.112,0.203 -0.175,0.497 -0.063,0.287 -0.063,0.63 z m -1.358,0 q 0,-0.63 0.161,-1.141 0.168,-0.518 0.462,-0.882 0.301,-0.364 0.707,-0.56 0.413,-0.203 0.91,-0.203 0.49,0 0.903,0.203 0.413,0.196 0.707,0.56 0.294,0.364 0.455,0.882 0.168,0.511 0.168,1.141 0,0.63 -0.168,1.148 -0.161,0.511 -0.455,0.882 -0.294,0.364 -0.707,0.567 -0.413,0.196 -0.903,0.196 -0.497,0 -0.91,-0.196 -0.406,-0.203 -0.707,-0.567 -0.294,-0.371 -0.462,-0.882 -0.161,-0.518 -0.161,-1.148 z"
         id="text34"
         class="label-main"
         style="font-weight:700;font-size:7px;font-family:Futura, 'Futura PT', 'Trebuchet MS', Arial, sans-serif;dominant-baseline:middle;text-anchor:middle;opacity:0.8464;fill:#e8e1cf"
         aria-label="20" />
      <path
         d="M -0.31500214,-40.2045 H -4.5640021 l 1.309,-1.358 q 0.518,-0.539 0.812,-0.91 0.294,-0.378 0.434,-0.637 0.147,-0.259 0.182,-0.42 0.035,-0.161 0.035,-0.273 0,-0.119 -0.042,-0.231 -0.035,-0.112 -0.112,-0.196 -0.077,-0.091 -0.189,-0.14 -0.105,-0.056 -0.252,-0.056 -0.28,0 -0.441,0.182 -0.154,0.182 -0.154,0.455 0,0.077 0.021,0.224 h -1.498 q 0,-0.462 0.147,-0.84 0.154,-0.378 0.427,-0.651 0.273,-0.273 0.644,-0.42 0.378,-0.147 0.826,-0.147 0.441,0 0.812,0.14 0.378,0.14 0.65099996,0.392 0.273,0.252 0.427,0.602 0.154,0.343 0.154,0.749 0,0.434 -0.189,0.805 -0.182,0.364 -0.58799996,0.749 l -0.875,0.819 h 1.70799996 z M 1.498,-42.8505 q 0,0.35 0.063,0.637 0.063,0.287 0.175,0.497 0.119,0.21 0.28,0.329 0.161,0.112 0.364,0.112 0.196,0 0.357,-0.112 0.168,-0.119 0.28,-0.329 0.112,-0.21 0.175,-0.497 0.063,-0.287 0.063,-0.637 0,-0.343 -0.063,-0.63 -0.063,-0.294 -0.175,-0.497 -0.112,-0.21 -0.28,-0.322 -0.161,-0.119 -0.357,-0.119 -0.203,0 -0.364,0.119 -0.161,0.112 -0.28,0.322 -0.112,0.203 -0.175,0.497 -0.063,0.287 -0.063,0.63 z m -1.358,0 q 0,-0.63 0.161,-1.141 0.168,-0.518 0.462,-0.882 0.301,-0.364 0.707,-0.56 0.413,-0.203 0.91,-0.203 0.49,0 0.903,0.203 0.413,0.196 0.707,0.56 0.294,0.364 0.455,0.882 0.168,0.511 0.168,1.141 0,0.63 -0.168,1.148 -0.161,0.511 -0.455,0.882 -0.294,0.364 -0.707,0.567 -0.413,0.196 -0.903,0.196 -0.497,0 -0.91,-0.196 -0.406,-0.203 -0.707,-0.567 -0.294,-0.371 -0.462,-0.882 -0.161,-0.518 -0.161,-1.148 z"
         id="text35"
         class="label-highlight"
         style="font-weight:700;font-size:7px;font-family:Futura, 'Futura PT', 'Trebuchet MS', Arial, sans-serif;dominant-baseline:middle;text-anchor:middle;opacity:0.2025;fill:#f5f2e6"
         transform="translate(-0.6,-0.6)"
         aria-label="20" />
    </g>
  </g>
</svg>
