<?xml version="1.0" encoding="UTF-8" standalone="no"?>
<svg
   width="24mm"
   height="24mm"
   viewBox="0 0 100 100"
   version="1.1"
   id="svg1"
   sodipodi:docname="clairaudient_freq_v_indicator.svg"
   inkscape:version="1.4.2 (ebf0e940, 2025-05-08)"
   xml:space="preserve"
   xmlns:inkscape="http://www.inkscape.org/namespaces/inkscape"
   xmlns:sodipodi="http://sodipodi.sourceforge.net/DTD/sodipodi-0.dtd"
   xmlns="http://www.w3.org/2000/svg"
   xmlns:svg="http://www.w3.org/2000/svg"><sodipodi:namedview
     id="namedview16"
     pagecolor="#505050"
     bordercolor="#eeeeee"
     borderopacity="1"
     inkscape:showpageshadow="0"
     inkscape:pageopacity="0"
     inkscape:pagecheckerboard="0"
     inkscape:deskcolor="#505050"
     inkscape:document-units="mm"
     inkscape:zoom="5.9588978"
     inkscape:cx="22.823013"
     inkscape:cy="51.26787"
     inkscape:window-width="1800"
     inkscape:window-height="1097"
     inkscape:window-x="0"
     inkscape:window-y="44"
     inkscape:window-maximized="0"
     inkscape:current-layer="indicator" /><defs
     id="defs1"><style
       id="style1">
      .number-shadow {
        fill: #0a0a0a;
        font-family: &quot;Futura&quot;, &quot;Futura PT&quot;, &quot;Trebuchet MS&quot;, Arial, sans-serif;
        font-size: 10px;
        font-weight: 700;
        text-anchor: middle;
        dominant-baseline: middle;
        opacity: 0.45;
      }
      .number-main {
        fill: #d6d0bc;
        font-family: &quot;Futura&quot;, &quot;Futura PT&quot;, &quot;Trebuchet MS&quot;, Arial, sans-serif;
        font-size: 10px;
        font-weight: 700;
        text-anchor: middle;
        dominant-baseline: middle;
        opacity: 0.88;
      }
      .number-highlight {
        fill: #f5f2e6;
        font-family: &quot;Futura&quot;, &quot;Futura PT&quot;, &quot;Trebuchet MS&quot;, Arial, sans-serif;
        font-size: 10px;
        font-weight: 700;
        text-anchor: middle;
        dominant-baseline: middle;
        opacity: 0.65;
      }
    </style><radialGradient
       id="shadow"
       cx="50"
       cy="52"
       r="45"
       gradientUnits="userSpaceOnUse"><stop
         offset="0.6"
         stop-color="#000000"
         stop-opacity="0"
         id="stop1" /><stop
         offset="0.9"
         stop-color="#000000"
         stop-opacity="0.45"
         id="stop2" /><stop
         offset="1"
         stop-color="#000000"
         stop-opacity="0"
         id="stop3" /></radialGradient><linearGradient
       id="skirtBase"
       x1="50"
       y1="5"
       x2="50"
       y2="95"
       gradientUnits="userSpaceOnUse"><stop
         offset="0%"
         stop-color="#4b4b4b"
         id="stop4" /><stop
         offset="38%"
         stop-color="#3a3a3a"
         id="stop5" /><stop
         offset="74%"
         stop-color="#262626"
         id="stop6" /><stop
         offset="100%"
         stop-color="#161616"
         id="stop7" /></linearGradient><radialGradient
       id="skirtHighlight"
       cx="50"
       cy="32"
       r="34"
       gradientUnits="userSpaceOnUse"><stop
         offset="0%"
         stop-color="#f5f2e6"
         stop-opacity="0.18"
         id="stop8" /><stop
         offset="60%"
         stop-color="#f5f2e6"
         stop-opacity="0.05"
         id="stop9" /><stop
         offset="100%"
         stop-color="#f5f2e6"
         stop-opacity="0"
         id="stop10" /></radialGradient><radialGradient
       id="skirtShadow"
       cx="50"
       cy="72"
       r="34"
       gradientUnits="userSpaceOnUse"><stop
         offset="0%"
         stop-color="#000000"
         stop-opacity="0.22"
         id="stop11" /><stop
         offset="70%"
         stop-color="#000000"
         stop-opacity="0.08"
         id="stop12" /><stop
         offset="100%"
         stop-color="#000000"
         stop-opacity="0"
         id="stop13" /></radialGradient><linearGradient
       id="knobBase"
       x1="50"
       y1="18"
       x2="50"
       y2="82"
       gradientUnits="userSpaceOnUse"><stop
         offset="0%"
         stop-color="#222222"
         id="stop14" /><stop
         offset="40%"
         stop-color="#1d1d1d"
         id="stop15" /><stop
         offset="70%"
         stop-color="#1a1a1a"
         id="stop16" /><stop
         offset="100%"
         stop-color="#151515"
         id="stop17" /></linearGradient><radialGradient
       id="knobHighlight"
       cx="50"
       cy="36"
       r="22"
       gradientUnits="userSpaceOnUse"><stop
         offset="0%"
         stop-color="#f5f2e6"
         stop-opacity="0.035"
         id="stop18" /><stop
         offset="65%"
         stop-color="#f5f2e6"
         stop-opacity="0.012"
         id="stop19" /><stop
         offset="100%"
         stop-color="#f5f2e6"
         stop-opacity="0"
         id="stop20" /></radialGradient><radialGradient
       id="knobShadow"
       cx="50"
       cy="70"
       r="22"
       gradientUnits="userSpaceOnUse"><stop
         offset="0%"
         stop-color="#000000"
         stop-opacity="0.06"
         id="stop21" /><stop
         offset="70%"
         stop-color="#000000"
         stop-opacity="0.02"
         id="stop22" /><stop
         offset="100%"
         stop-color="#000000"
         stop-opacity="0"
         id="stop23" /></radialGradient><linearGradient
       id="rimHighlight"
       x1="50"
       y1="28"
       x2="50"
       y2="72"
       gradientUnits="userSpaceOnUse"><stop
         offset="0%"
         stop-color="#fefcf4"
         stop-opacity="0.06"
         id="stop24" /><stop
         offset="45%"
         stop-color="#fefcf4"
         stop-opacity="0.015"
         id="stop25" /><stop
         offset="75%"
         stop-color="#fefcf4"
         stop-opacity="0"
         id="stop26" /><stop
         offset="100%"
         stop-color="#fefcf4"
         stop-opacity="0.03"
         id="stop27" /></linearGradient></defs><!-- Octave indicator for Clairaudient V oscillator --><g
     id="indicator"
     transform="translate(50,50)"><!-- Helper to render embossed numbers --><!-- Value -2 --><g
       transform="rotate(135)"
       id="g4"><g
         transform="translate(0,-39) scale(0.9)"
         id="g3"><path
           d="m -4.8350048,-0.86499994 h 2.87 v 1.51 h -2.87 z M 4.3850018,2.5650001 h -6.07 L 0.18500175,0.62500006 q 0.74,-0.77 1.16000005,-1.3 0.42,-0.53999996 0.62,-0.90999996 0.21,-0.37 0.26,-0.6 0.05,-0.23 0.05,-0.39 0,-0.17 -0.06,-0.33 -0.05,-0.16 -0.16,-0.28 -0.11,-0.13 -0.27,-0.2 -0.15,-0.08 -0.36,-0.08 -0.4,0 -0.63000005,0.26 -0.22,0.26 -0.22,0.65 0,0.11 0.03,0.32 H -1.5349982 q 0,-0.66 0.21,-1.2 0.22,-0.54 0.60999995,-0.93 0.39,-0.39 0.92,-0.6 0.54,-0.21 1.18000005,-0.21 0.63,0 1.16,0.2 0.54,0.2 0.93,0.56 0.39,0.36 0.61,0.86 0.22,0.49 0.22,1.07 0,0.62 -0.27,1.15 -0.26,0.51999996 -0.84,1.06999996 l -1.25,1.17 h 2.44 z"
           id="text1"
           class="number-shadow"
           style="font-weight:700;font-size:10px;font-family:Futura, 'Futura PT', 'Trebuchet MS', Arial, sans-serif;dominant-baseline:middle;text-anchor:middle;opacity:0.2025;fill:#0a0a0a"
           transform="translate(0.6,1.1)"
           aria-label="-2" /><path
           d="m -4.8350048,-0.86499994 h 2.87 v 1.51 h -2.87 z M 4.3850018,2.5650001 h -6.07 L 0.18500175,0.62500006 q 0.74,-0.77 1.16000005,-1.3 0.42,-0.53999996 0.62,-0.90999996 0.21,-0.37 0.26,-0.6 0.05,-0.23 0.05,-0.39 0,-0.17 -0.06,-0.33 -0.05,-0.16 -0.16,-0.28 -0.11,-0.13 -0.27,-0.2 -0.15,-0.08 -0.36,-0.08 -0.4,0 -0.63000005,0.26 -0.22,0.26 -0.22,0.65 0,0.11 0.03,0.32 H -1.5349982 q 0,-0.66 0.21,-1.2 0.22,-0.54 0.60999995,-0.93 0.39,-0.39 0.92,-0.6 0.54,-0.21 1.18000005,-0.21 0.63,0 1.16,0.2 0.54,0.2 0.93,0.56 0.39,0.36 0.61,0.86 0.22,0.49 0.22,1.07 0,0.62 -0.27,1.15 -0.26,0.51999996 -0.84,1.06999996 l -1.25,1.17 h 2.44 z"
           id="text2"
           class="number-main"
           style="font-weight:700;font-size:10px;font-family:Futura, 'Futura PT', 'Trebuchet MS', Arial, sans-serif;dominant-baseline:middle;text-anchor:middle;opacity:0.7744;fill:#d6d0bc"
           aria-label="-2" /><path
           d="m -4.8350048,-0.86499994 h 2.87 v 1.51 h -2.87 z M 4.3850018,2.5650001 h -6.07 L 0.18500175,0.62500006 q 0.74,-0.77 1.16000005,-1.3 0.42,-0.53999996 0.62,-0.90999996 0.21,-0.37 0.26,-0.6 0.05,-0.23 0.05,-0.39 0,-0.17 -0.06,-0.33 -0.05,-0.16 -0.16,-0.28 -0.11,-0.13 -0.27,-0.2 -0.15,-0.08 -0.36,-0.08 -0.4,0 -0.63000005,0.26 -0.22,0.26 -0.22,0.65 0,0.11 0.03,0.32 H -1.5349982 q 0,-0.66 0.21,-1.2 0.22,-0.54 0.60999995,-0.93 0.39,-0.39 0.92,-0.6 0.54,-0.21 1.18000005,-0.21 0.63,0 1.16,0.2 0.54,0.2 0.93,0.56 0.39,0.36 0.61,0.86 0.22,0.49 0.22,1.07 0,0.62 -0.27,1.15 -0.26,0.51999996 -0.84,1.06999996 l -1.25,1.17 h 2.44 z"
           id="text3"
           class="number-highlight"
           style="font-weight:700;font-size:10px;font-family:Futura, 'Futura PT', 'Trebuchet MS', Arial, sans-serif;dominant-baseline:middle;text-anchor:middle;opacity:0.4225;fill:#f5f2e6"
           transform="translate(-0.6,-0.6)"
           aria-label="-2" /></g></g><!-- Value -1 --><g
       transform="rotate(67.5)"
       id="g7"><g
         transform="translate(0,-39) scale(0.9)"
         id="g6"><path
           d="m -4.8350048,-0.86499994 h 2.87 v 1.51 h -2.87 z M 0.68500175,-3.3149999 h -1.1 v -1.66 H 2.6450018 v 7.54 H 0.68500175 Z"
           id="text4"
           class="number-shadow"
           style="font-weight:700;font-size:10px;font-family:Futura, 'Futura PT', 'Trebuchet MS', Arial, sans-serif;dominant-baseline:middle;text-anchor:middle;opacity:0.2025;fill:#0a0a0a"
           transform="translate(0.6,1.1)"
           aria-label="-1" /><path
           d="m -4.8350048,-0.86499994 h 2.87 v 1.51 h -2.87 z M 0.68500175,-3.3149999 h -1.1 v -1.66 H 2.6450018 v 7.54 H 0.68500175 Z"
           id="text5"
           class="number-main"
           style="font-weight:700;font-size:10px;font-family:Futura, 'Futura PT', 'Trebuchet MS', Arial, sans-serif;dominant-baseline:middle;text-anchor:middle;opacity:0.7744;fill:#d6d0bc"
           aria-label="-1" /><path
           d="m -4.8350048,-0.86499994 h 2.87 v 1.51 h -2.87 z M 0.68500175,-3.3149999 h -1.1 v -1.66 H 2.6450018 v 7.54 H 0.68500175 Z"
           id="text6"
           class="number-highlight"
           style="font-weight:700;font-size:10px;font-family:Futura, 'Futura PT', 'Trebuchet MS', Arial, sans-serif;dominant-baseline:middle;text-anchor:middle;opacity:0.4225;fill:#f5f2e6"
           transform="translate(-0.6,-0.6)"
           aria-label="-1" /></g></g><!-- Value 0 --><g
       transform="translate(0,-39) scale(0.9)"
       id="g9"><path
         d="m -1.2600015,-1.2149999 q 0,0.49999996 0.09,0.90999996 0.09,0.41 0.24999997,0.71 0.17,0.3 0.4,0.47 0.23,0.16000004 0.5200000041211,0.16000004 0.2799999958789,0 0.5099999958789,-0.16000004 0.24,-0.17 0.4,-0.47 0.16000003,-0.3 0.25000003,-0.71 0.09,-0.41 0.09,-0.90999996 0,-0.49 -0.09,-0.9 -0.09,-0.42 -0.25000003,-0.71 -0.16,-0.3 -0.4,-0.46 -0.23,-0.17 -0.5099999958789,-0.17 -0.2900000041211,0 -0.5200000041211,0.17 -0.23,0.16 -0.4,0.46 -0.15999997,0.29 -0.24999997,0.71 -0.09,0.41 -0.09,0.9 z m -1.94,0 q 0,-0.9 0.23,-1.63 0.24,-0.74 0.66,-1.26 0.43,-0.52 1.01,-0.8 0.58999997,-0.29 1.2999999741211,-0.29 0.6999999958789,0 1.2900000258789,0.29 0.59,0.28 1.01,0.8 0.42,0.52 0.65,1.26 0.24,0.73 0.24,1.63 0,0.89999996 -0.24,1.63999996 -0.23,0.73000004 -0.65,1.26000004 -0.42,0.52 -1.01,0.81 -0.59000003,0.28 -1.2900000258789,0.28 -0.7100000041211,0 -1.2999999741211,-0.28 -0.58,-0.29 -1.01,-0.81 -0.42,-0.53 -0.66,-1.26000004 -0.23,-0.74 -0.23,-1.63999996 z"
         id="text7"
         class="number-shadow"
         style="font-weight:700;font-size:10px;font-family:Futura, 'Futura PT', 'Trebuchet MS', Arial, sans-serif;dominant-baseline:middle;text-anchor:middle;opacity:0.2025;fill:#0a0a0a"
         transform="translate(0.6,1.1)"
         aria-label="0" /><path
         d="m -1.2600015,-1.2149999 q 0,0.49999996 0.09,0.90999996 0.09,0.41 0.24999997,0.71 0.17,0.3 0.4,0.47 0.23,0.16000004 0.5200000041211,0.16000004 0.2799999958789,0 0.5099999958789,-0.16000004 0.24,-0.17 0.4,-0.47 0.16000003,-0.3 0.25000003,-0.71 0.09,-0.41 0.09,-0.90999996 0,-0.49 -0.09,-0.9 -0.09,-0.42 -0.25000003,-0.71 -0.16,-0.3 -0.4,-0.46 -0.23,-0.17 -0.5099999958789,-0.17 -0.2900000041211,0 -0.5200000041211,0.17 -0.23,0.16 -0.4,0.46 -0.15999997,0.29 -0.24999997,0.71 -0.09,0.41 -0.09,0.9 z m -1.94,0 q 0,-0.9 0.23,-1.63 0.24,-0.74 0.66,-1.26 0.43,-0.52 1.01,-0.8 0.58999997,-0.29 1.2999999741211,-0.29 0.6999999958789,0 1.2900000258789,0.29 0.59,0.28 1.01,0.8 0.42,0.52 0.65,1.26 0.24,0.73 0.24,1.63 0,0.89999996 -0.24,1.63999996 -0.23,0.73000004 -0.65,1.26000004 -0.42,0.52 -1.01,0.81 -0.59000003,0.28 -1.2900000258789,0.28 -0.7100000041211,0 -1.2999999741211,-0.28 -0.58,-0.29 -1.01,-0.81 -0.42,-0.53 -0.66,-1.26000004 -0.23,-0.74 -0.23,-1.63999996 z"
         id="text8"
         class="number-main"
         style="font-weight:700;font-size:10px;font-family:Futura, 'Futura PT', 'Trebuchet MS', Arial, sans-serif;dominant-baseline:middle;text-anchor:middle;opacity:0.7744;fill:#d6d0bc"
         aria-label="0" /><path
         d="m -1.2600015,-1.2149999 q 0,0.49999996 0.09,0.90999996 0.09,0.41 0.24999997,0.71 0.17,0.3 0.4,0.47 0.23,0.16000004 0.5200000041211,0.16000004 0.2799999958789,0 0.5099999958789,-0.16000004 0.24,-0.17 0.4,-0.47 0.16000003,-0.3 0.25000003,-0.71 0.09,-0.41 0.09,-0.90999996 0,-0.49 -0.09,-0.9 -0.09,-0.42 -0.25000003,-0.71 -0.16,-0.3 -0.4,-0.46 -0.23,-0.17 -0.5099999958789,-0.17 -0.2900000041211,0 -0.5200000041211,0.17 -0.23,0.16 -0.4,0.46 -0.15999997,0.29 -0.24999997,0.71 -0.09,0.41 -0.09,0.9 z m -1.94,0 q 0,-0.9 0.23,-1.63 0.24,-0.74 0.66,-1.26 0.43,-0.52 1.01,-0.8 0.58999997,-0.29 1.2999999741211,-0.29 0.6999999958789,0 1.2900000258789,0.29 0.59,0.28 1.01,0.8 0.42,0.52 0.65,1.26 0.24,0.73 0.24,1.63 0,0.89999996 -0.24,1.63999996 -0.23,0.73000004 -0.65,1.26000004 -0.42,0.52 -1.01,0.81 -0.59000003,0.28 -1.2900000258789,0.28 -0.7100000041211,0 -1.2999999741211,-0.28 -0.58,-0.29 -1.01,-0.81 -0.42,-0.53 -0.66,-1.26000004 -0.23,-0.74 -0.23,-1.63999996 z"
         id="text9"
         class="number-highlight"
         style="font-weight:700;font-size:10px;font-family:Futura, 'Futura PT', 'Trebuchet MS', Arial, sans-serif;dominant-baseline:middle;text-anchor:middle;opacity:0.4225;fill:#f5f2e6"
         transform="translate(-0.6,-0.6)"
         aria-label="0" /></g><!-- Value +1 --><g
       transform="rotate(-67.5)"
       id="g13"><g
         transform="translate(0,-39) scale(0.9)"
         id="g12"><path
           d="M -0.75000153,-3.3149999 H -1.8500015 v -1.66 h 3.06 v 7.54 h -1.96000003 z"
           id="text10"
           class="number-shadow"
           style="font-weight:700;font-size:10px;font-family:Futura, 'Futura PT', 'Trebuchet MS', Arial, sans-serif;dominant-baseline:middle;text-anchor:middle;opacity:0.2025;fill:#0a0a0a"
           transform="translate(0.6,1.1)"
           aria-label="1" /><path
           d="M -0.75000153,-3.3149999 H -1.8500015 v -1.66 h 3.06 v 7.54 h -1.96000003 z"
           id="text11"
           class="number-main"
           style="font-weight:700;font-size:10px;font-family:Futura, 'Futura PT', 'Trebuchet MS', Arial, sans-serif;dominant-baseline:middle;text-anchor:middle;opacity:0.7744;fill:#d6d0bc"
           aria-label="1" /><path
           d="M -0.75000153,-3.3149999 H -1.8500015 v -1.66 h 3.06 v 7.54 h -1.96000003 z"
           id="text12"
           class="number-highlight"
           style="font-weight:700;font-size:10px;font-family:Futura, 'Futura PT', 'Trebuchet MS', Arial, sans-serif;dominant-baseline:middle;text-anchor:middle;opacity:0.4225;fill:#f5f2e6"
           transform="translate(-0.6,-0.6)"
           aria-label="1" /></g></g><!-- Value +2 --><g
       transform="rotate(-135)"
       id="g16"><g
         transform="translate(0,-39) scale(0.9)"
         id="g15"><path
           d="m 2.9499985,2.5650001 h -6.07 l 1.87,-1.94000004 q 0.73999997,-0.77 1.15999997,-1.3 0.42,-0.53999996 0.62,-0.90999996 0.21,-0.37 0.26,-0.6 0.05,-0.23 0.05,-0.39 0,-0.17 -0.06,-0.33 -0.05,-0.16 -0.16,-0.28 -0.11,-0.13 -0.27,-0.2 -0.15,-0.08 -0.36,-0.08 -0.4,0 -0.63,0.26 -0.22,0.26 -0.22,0.65 0,0.11 0.03,0.32 H -2.9700015 q 0,-0.66 0.21,-1.2 0.22,-0.54 0.61,-0.93 0.39,-0.39 0.92,-0.6 0.53999997,-0.21 1.17999997,-0.21 0.63,0 1.16000003,0.2 0.54,0.2 0.93,0.56 0.39,0.36 0.61,0.86 0.22,0.49 0.22,1.07 0,0.62 -0.27,1.15 -0.26,0.51999996 -0.84,1.06999996 l -1.25000003,1.17 H 2.9499985 Z"
           id="text13"
           class="number-shadow"
           style="font-weight:700;font-size:10px;font-family:Futura, 'Futura PT', 'Trebuchet MS', Arial, sans-serif;dominant-baseline:middle;text-anchor:middle;opacity:0.2025;fill:#0a0a0a"
           transform="translate(0.6,1.1)"
           aria-label="2" /><path
           d="m 2.9499985,2.5650001 h -6.07 l 1.87,-1.94000004 q 0.73999997,-0.77 1.15999997,-1.3 0.42,-0.53999996 0.62,-0.90999996 0.21,-0.37 0.26,-0.6 0.05,-0.23 0.05,-0.39 0,-0.17 -0.06,-0.33 -0.05,-0.16 -0.16,-0.28 -0.11,-0.13 -0.27,-0.2 -0.15,-0.08 -0.36,-0.08 -0.4,0 -0.63,0.26 -0.22,0.26 -0.22,0.65 0,0.11 0.03,0.32 H -2.9700015 q 0,-0.66 0.21,-1.2 0.22,-0.54 0.61,-0.93 0.39,-0.39 0.92,-0.6 0.53999997,-0.21 1.17999997,-0.21 0.63,0 1.16000003,0.2 0.54,0.2 0.93,0.56 0.39,0.36 0.61,0.86 0.22,0.49 0.22,1.07 0,0.62 -0.27,1.15 -0.26,0.51999996 -0.84,1.06999996 l -1.25000003,1.17 H 2.9499985 Z"
           id="text14"
           class="number-main"
           style="font-weight:700;font-size:10px;font-family:Futura, 'Futura PT', 'Trebuchet MS', Arial, sans-serif;dominant-baseline:middle;text-anchor:middle;opacity:0.7744;fill:#d6d0bc"
           aria-label="2" /><path
           d="m 2.9499985,2.5650001 h -6.07 l 1.87,-1.94000004 q 0.73999997,-0.77 1.15999997,-1.3 0.42,-0.53999996 0.62,-0.90999996 0.21,-0.37 0.26,-0.6 0.05,-0.23 0.05,-0.39 0,-0.17 -0.06,-0.33 -0.05,-0.16 -0.16,-0.28 -0.11,-0.13 -0.27,-0.2 -0.15,-0.08 -0.36,-0.08 -0.4,0 -0.63,0.26 -0.22,0.26 -0.22,0.65 0,0.11 0.03,0.32 H -2.9700015 q 0,-0.66 0.21,-1.2 0.22,-0.54 0.61,-0.93 0.39,-0.39 0.92,-0.6 0.53999997,-0.21 1.17999997,-0.21 0.63,0 1.16000003,0.2 0.54,0.2 0.93,0.56 0.39,0.36 0.61,0.86 0.22,0.49 0.22,1.07 0,0.62 -0.27,1.15 -0.26,0.51999996 -0.84,1.06999996 l -1.25000003,1.17 H 2.9499985 Z"
           id="text15"
           class="number-highlight"
           style="font-weight:700;font-size:10px;font-family:Futura, 'Futura PT', 'Trebuchet MS', Arial, sans-serif;dominant-baseline:middle;text-anchor:middle;opacity:0.4225;fill:#f5f2e6"
           transform="translate(-0.6,-0.6)"
           aria-label="2" /></g></g><path
       style="fill:#e8e1cf;fill-opacity:0.396301;fill-rule:evenodd;stroke:#e8e1cf;stroke-width:0.75;stroke-linecap:round;stroke-linejoin:round;stroke-dasharray:none;stroke-opacity:0.48113209;paint-order:fill markers stroke"
       d="m -22.863217,-30.743985 -3.70772,-4.935148"
       id="path1" /><path
       style="fill:#e8e1cf;fill-opacity:0.396301;fill-rule:evenodd;stroke:#e8e1cf;stroke-width:0.75;stroke-linecap:round;stroke-linejoin:round;stroke-dasharray:none;stroke-opacity:0.48113209;paint-order:fill markers stroke"
       d="m 19.431923,-32.951048 3.44365,-5.122904"
       id="path1-5" /><path
       style="fill:#e8e1cf;fill-opacity:0.396301;fill-rule:evenodd;stroke:#e8e1cf;stroke-width:0.560626;stroke-linecap:round;stroke-linejoin:round;stroke-dasharray:none;stroke-opacity:0.481132;paint-order:fill markers stroke"
       d="m 36.43569,6.1664659 7.085779,1.8459192"
       id="path2"
       sodipodi:nodetypes="cc" /><path
       style="fill:#e8e1cf;fill-opacity:0.396301;fill-rule:evenodd;stroke:#e8e1cf;stroke-width:0.560626;stroke-linecap:round;stroke-linejoin:round;stroke-dasharray:none;stroke-opacity:0.481132;paint-order:fill markers stroke"
       d="m -35.730937,9.9964143 -7.085779,1.8459187"
       id="path2-9"
       sodipodi:nodetypes="cc" /></g></svg>
