<?xml version="1.0" encoding="UTF-8" standalone="no"?>
<svg
   width="16mm"
   height="16mm"
   viewBox="0 0 100 100"
   version="1.1"
   id="svg5"
   sodipodi:docname="clairaudient_shape_indicator_small.svg"
   xml:space="preserve"
   inkscape:version="1.4.2 (ebf0e940, 2025-05-08)"
   xmlns:inkscape="http://www.inkscape.org/namespaces/inkscape"
   xmlns:sodipodi="http://sodipodi.sourceforge.net/DTD/sodipodi-0.dtd"
   xmlns="http://www.w3.org/2000/svg"
   xmlns:svg="http://www.w3.org/2000/svg"><sodipodi:namedview
     id="namedview5"
     pagecolor="#505050"
     bordercolor="#eeeeee"
     borderopacity="1"
     inkscape:showpageshadow="0"
     inkscape:pageopacity="0"
     inkscape:pagecheckerboard="0"
     inkscape:deskcolor="#505050"
     inkscape:document-units="mm"
     inkscape:zoom="12.414584"
     inkscape:cx="29.481455"
     inkscape:cy="34.676957"
     inkscape:window-width="2560"
     inkscape:window-height="1387"
     inkscape:window-x="0"
     inkscape:window-y="25"
     inkscape:window-maximized="1"
     inkscape:current-layer="g5" /><defs
     id="defs1"><style
       id="style1">
      .tick-arc { fill:none; stroke:#e9e4d3; stroke-width:1.0; opacity:0.85; stroke-linecap:round; }
      .label { fill:#e9e4d3; font-family:&quot;Futura&quot;,&quot;Futura PT&quot;,&quot;Trebuchet MS&quot;,Arial,sans-serif; font-size:5px; font-weight:700; text-anchor:middle; dominant-baseline:middle; opacity:0.9; }
    </style><radialGradient
       id="shadow"
       cx="50"
       cy="52"
       r="45"
       gradientUnits="userSpaceOnUse"><stop
         offset="0.6"
         stop-color="#000000"
         stop-opacity="0"
         id="stop1" /><stop
         offset="0.9"
         stop-color="#000000"
         stop-opacity="0.45"
         id="stop2" /><stop
         offset="1"
         stop-color="#000000"
         stop-opacity="0"
         id="stop3" /></radialGradient><linearGradient
       id="skirtBase"
       x1="50"
       y1="5"
       x2="50"
       y2="95"
       gradientUnits="userSpaceOnUse"><stop
         offset="0%"
         stop-color="#4b4b4b"
         id="stop4" /><stop
         offset="38%"
         stop-color="#3a3a3a"
         id="stop5" /><stop
         offset="74%"
         stop-color="#262626"
         id="stop6" /><stop
         offset="100%"
         stop-color="#161616"
         id="stop7" /></linearGradient><radialGradient
       id="skirtHighlight"
       cx="50"
       cy="32"
       r="34"
       gradientUnits="userSpaceOnUse"><stop
         offset="0%"
         stop-color="#f5f2e6"
         stop-opacity="0.18"
         id="stop8" /><stop
         offset="60%"
         stop-color="#f5f2e6"
         stop-opacity="0.05"
         id="stop9" /><stop
         offset="100%"
         stop-color="#f5f2e6"
         stop-opacity="0"
         id="stop10" /></radialGradient><radialGradient
       id="skirtShadow"
       cx="50"
       cy="72"
       r="34"
       gradientUnits="userSpaceOnUse"><stop
         offset="0%"
         stop-color="#000000"
         stop-opacity="0.22"
         id="stop11" /><stop
         offset="70%"
         stop-color="#000000"
         stop-opacity="0.08"
         id="stop12" /><stop
         offset="100%"
         stop-color="#000000"
         stop-opacity="0"
         id="stop13" /></radialGradient><linearGradient
       id="knobBase"
       x1="50"
       y1="18"
       x2="50"
       y2="82"
       gradientUnits="userSpaceOnUse"><stop
         offset="0%"
         stop-color="#222222"
         id="stop14" /><stop
         offset="40%"
         stop-color="#1d1d1d"
         id="stop15" /><stop
         offset="70%"
         stop-color="#1a1a1a"
         id="stop16" /><stop
         offset="100%"
         stop-color="#151515"
         id="stop17" /></linearGradient><radialGradient
       id="knobHighlight"
       cx="50"
       cy="36"
       r="22"
       gradientUnits="userSpaceOnUse"><stop
         offset="0%"
         stop-color="#f5f2e6"
         stop-opacity="0.035"
         id="stop18" /><stop
         offset="65%"
         stop-color="#f5f2e6"
         stop-opacity="0.012"
         id="stop19" /><stop
         offset="100%"
         stop-color="#f5f2e6"
         stop-opacity="0"
         id="stop20" /></radialGradient><radialGradient
       id="knobShadow"
       cx="50"
       cy="70"
       r="22"
       gradientUnits="userSpaceOnUse"><stop
         offset="0%"
         stop-color="#000000"
         stop-opacity="0.06"
         id="stop21" /><stop
         offset="70%"
         stop-color="#000000"
         stop-opacity="0.02"
         id="stop22" /><stop
         offset="100%"
         stop-color="#000000"
         stop-opacity="0"
         id="stop23" /></radialGradient><linearGradient
       id="rimHighlight"
       x1="50"
       y1="28"
       x2="50"
       y2="72"
       gradientUnits="userSpaceOnUse"><stop
         offset="0%"
         stop-color="#fefcf4"
         stop-opacity="0.06"
         id="stop24" /><stop
         offset="45%"
         stop-color="#fefcf4"
         stop-opacity="0.015"
         id="stop25" /><stop
         offset="75%"
         stop-color="#fefcf4"
         stop-opacity="0"
         id="stop26" /><stop
         offset="100%"
         stop-color="#fefcf4"
         stop-opacity="0.03"
         id="stop27" /></linearGradient></defs><g
     transform="matrix(1.1111184,0,0,1.1251675,50,50.561301)"
     id="g5"><g
       id="path6"
       style="opacity:1"><path
         style="baseline-shift:baseline;display:inline;overflow:visible;vector-effect:none;fill:#e8e0c8;fill-opacity:0.813121;fill-rule:evenodd;stroke-linecap:round;stroke-linejoin:round;paint-order:fill markers stroke;enable-background:accumulate;stop-color:#000000;stop-opacity:1"
         d="m 29.625404,-14.760368 6.119449,-2.235379"
         id="path4" /><path
         style="baseline-shift:baseline;display:inline;overflow:visible;vector-effect:none;fill:#e8e1cf;fill-opacity:0.481132;fill-rule:evenodd;stroke-linecap:round;stroke-linejoin:round;paint-order:fill markers stroke;enable-background:accumulate;stop-color:#000000;stop-opacity:1"
         d="m 35.591797,-17.416016 -6.121094,2.234375 a 0.44816801,0.44816801 0 0 0 -0.265625,0.574219 0.44816801,0.44816801 0 0 0 0.574219,0.267578 l 6.11914,-2.234375 a 0.44816801,0.44816801 0 0 0 0.267579,-0.576172 0.44816801,0.44816801 0 0 0 -0.574219,-0.265625 z"
         id="path5" /></g><g
       id="path6-8"
       style="opacity:1"
       inkscape:label="path6-8"><path
         style="baseline-shift:baseline;display:inline;overflow:visible;vector-effect:none;fill:#e8e0c8;fill-opacity:0.813121;fill-rule:evenodd;stroke-linecap:round;stroke-linejoin:round;paint-order:fill markers stroke;enable-background:accumulate;stop-color:#000000;stop-opacity:1"
         d="m -29.734094,-14.48308 -5.99052,-2.492414"
         id="path7" /><path
         style="baseline-shift:baseline;display:inline;overflow:visible;vector-effect:none;fill:#e8e1cf;fill-opacity:0.481132;fill-rule:evenodd;stroke-linecap:round;stroke-linejoin:round;paint-order:fill markers stroke;enable-background:accumulate;stop-color:#000000;stop-opacity:1"
         d="m -35.544922,-17.408203 a 0.46822199,0.46822199 0 0 0 -0.611328,0.251953 0.46822199,0.46822199 0 0 0 0.251953,0.613281 l 5.990235,2.492188 a 0.46822199,0.46822199 0 0 0 0.611328,-0.251953 0.46822199,0.46822199 0 0 0 -0.251953,-0.613282 z"
         id="path8" /></g><path
       d="m -27.174476,25.160004 q -0.01453,0.204105 0.0287,0.367636 0.0391,0.166428 0.126048,0.287134 0.11013,0.152894 0.253952,0.197293 0.143822,0.0444 0.263473,-0.03965 0.08252,-0.05796 0.101378,-0.143922 0.01886,-0.08596 0.0051,-0.191386 -0.02083,-0.106554 -0.0615,-0.223406 -0.04357,-0.120875 -0.08012,-0.240625 -0.146192,-0.478999 -0.05091,-0.812534 0.08826,-0.334661 0.443087,-0.583901 0.239303,-0.168093 0.491184,-0.223835 0.248983,-0.05977 0.499394,-0.0054 0.243387,0.05323 0.477051,0.222359 0.234892,0.162206 0.434864,0.43983 0.414435,0.575365 0.417305,1.312577 l -0.89534,0.119931 q 0.03339,-0.290063 -0.01283,-0.51814 -0.04623,-0.228076 -0.167949,-0.397065 -0.139111,-0.193129 -0.296539,-0.221911 -0.160326,-0.03281 -0.275851,0.04834 -0.07014,0.04927 -0.102263,0.108188 -0.03625,0.06182 -0.03693,0.147128 -0.0048,0.08821 0.02471,0.206833 0.02663,0.114601 0.07398,0.275234 0.06062,0.187671 0.110087,0.377116 0.04244,0.188319 0.02747,0.374557 -0.01787,0.182214 -0.114241,0.358971 -0.10339,0.175631 -0.334442,0.337927 -0.231051,0.162296 -0.468885,0.220289 -0.244857,0.05687 -0.472525,0.01683 -0.234692,-0.04116 -0.44807,-0.182124 -0.216275,-0.144987 -0.390164,-0.386398 -0.162296,-0.225318 -0.273068,-0.517124 -0.114898,-0.288907 -0.153416,-0.601169 z m -0.66065,-3.341155 -0.78057,1.081505 1.290643,-0.373363 z m 0.464059,-0.641047 0.81148,1.126589 0.670912,-0.198598 0.605712,0.840918 -3.942712,1.030447 -0.620202,-0.861036 2.279177,-3.339953 0.605712,0.840918 z m -3.822446,0.06738 1.632565,-1.934454 -2.473027,0.767631 -0.45211,-0.627671 1.545621,-2.05516 -2.386082,0.888336 -0.59412,-0.824823 3.763027,-1.279906 0.579628,0.804706 -1.374102,1.861971 2.231953,-0.671006 0.579629,0.804706 -2.458863,3.090494 z"
       id="text3"
       class="label"
       style="font-weight:700;font-size:5px;font-family:Futura, 'Futura PT', 'Trebuchet MS', Arial, sans-serif;dominant-baseline:middle;text-anchor:middle;opacity:0.81;fill:#e9e4d3"
       aria-label="SAW" /><path
       d="m -2.2349979,-36.5225 q -0.16,-0.13 -0.32,-0.19 -0.16,-0.065 -0.31,-0.065 -0.19,0 -0.31,0.09 -0.12,0.09 -0.12,0.235 0,0.1 0.06,0.165 0.06,0.065 0.155,0.115 0.1,0.045 0.22,0.08 0.125,0.035 0.245,0.075 0.48,0.16 0.7,0.43 0.225,0.265 0.225,0.695 0,0.29 -0.1,0.525 -0.095,0.235 -0.285,0.405 -0.185,0.165 -0.46,0.255 -0.27,0.095 -0.615,0.095 -0.715,0 -1.325,-0.425 l 0.42,-0.79 q 0.22,0.195 0.435,0.29 0.215,0.095 0.425,0.095 0.24,0 0.355,-0.11 0.12,-0.11 0.12,-0.25 0,-0.085 -0.03,-0.145 -0.03,-0.065 -0.1,-0.115 -0.07,-0.055 -0.185,-0.1 -0.11,-0.045 -0.27,-0.1 -0.19,-0.06 -0.375,-0.13 -0.18,-0.075 -0.325,-0.195 -0.14,-0.12 -0.23,-0.3 -0.085,-0.185 -0.085,-0.465 0,-0.28 0.09,-0.505 0.095,-0.23 0.26,-0.39 0.17,-0.165 0.41,-0.255 0.245,-0.09 0.545,-0.09 0.28,0 0.585,0.08 0.305,0.075 0.585,0.225 z m 2.13999954,-0.965 v 3.77 H -1.0749984 v -3.77 z m 2.62500046,1.66 h 1.945 q 0,0.3 -0.025,0.545 -0.025,0.245 -0.1,0.455 -0.105,0.295 -0.285,0.525 -0.18,0.225 -0.425,0.38 -0.24,0.15 -0.53,0.23 -0.29,0.08 -0.61,0.08 -0.44,0 -0.805,-0.145 -0.36,-0.145 -0.62,-0.405 -0.26,-0.265 -0.405,-0.63 -0.145,-0.37 -0.145,-0.815 0,-0.44 0.14,-0.805 0.145,-0.37 0.405,-0.63 0.265,-0.26 0.635,-0.405 0.37,-0.145 0.825,-0.145 0.59,0 1.035,0.255 0.445,0.255 0.705,0.79 l -0.93,0.385 q -0.13,-0.31 -0.34,-0.445 -0.205,-0.135 -0.47,-0.135 -0.22,0 -0.4,0.085 -0.18,0.08 -0.31,0.235 -0.125,0.15 -0.2,0.365 -0.07,0.215 -0.07,0.48 0,0.24 0.06,0.445 0.065,0.205 0.19,0.355 0.125,0.15 0.31,0.235 0.185,0.08 0.43,0.08 0.145,0 0.28,-0.03 0.135,-0.035 0.24,-0.105 0.11,-0.075 0.18,-0.19 0.07,-0.115 0.095,-0.28 h -0.805 z"
       id="text4"
       class="label"
       style="font-weight:700;font-size:5px;font-family:Futura, 'Futura PT', 'Trebuchet MS', Arial, sans-serif;dominant-baseline:middle;text-anchor:middle;opacity:0.81;fill:#e9e4d3"
       aria-label="SIG" /><path
       d="m 31.68596,19.924431 q 0.20276,-0.04211 0.35018,-0.127969 0.151373,-0.08273 0.24511,-0.198373 0.118734,-0.14648 0.122573,-0.295236 0.0038,-0.148756 -0.110793,-0.239368 -0.07906,-0.06249 -0.167938,-0.05685 -0.08888,0.0056 -0.187776,0.04763 -0.09807,0.04897 -0.200727,0.119615 -0.105784,0.0745 -0.212396,0.142013 -0.42645,0.270067 -0.777383,0.270948 -0.350105,0.0079 -0.690048,-0.260853 -0.229264,-0.181226 -0.352555,-0.405175 -0.126415,-0.220095 -0.142077,-0.47281 -0.01483,-0.245736 0.08587,-0.513988 0.09362,-0.267522 0.309219,-0.533498 0.446814,-0.551226 1.164001,-0.755914 l 0.362082,0.81748 q -0.291641,0.04775 -0.501102,0.154136 -0.20946,0.106386 -0.340692,0.268285 -0.14998,0.185026 -0.134883,0.342426 0.01197,0.161254 0.122651,0.248742 0.0672,0.05312 0.13338,0.06748 0.07013,0.01749 0.153406,-0.0052 0.08723,-0.0196 0.194666,-0.08013 0.104316,-0.05668 0.247783,-0.145663 0.166168,-0.108985 0.337117,-0.207866 0.171776,-0.0919 0.357257,-0.128698 0.182356,-0.03294 0.380899,0.01016 0.199373,0.05008 0.420731,0.225055 0.221357,0.174976 0.342992,0.384967 0.122463,0.21697 0.145842,0.444162 0.02421,0.234172 -0.05462,0.475441 -0.08195,0.245124 -0.269428,0.476407 -0.174976,0.215865 -0.42882,0.40101 -0.249891,0.18827 -0.543452,0.310397 z m -1.345984,0.188313 q 0.332037,0.262465 0.519778,0.60693 0.191694,0.347591 0.233295,0.728328 0.0416,0.380736 -0.07728,0.767433 -0.118055,0.393675 -0.405516,0.74831 -0.284336,0.35078 -0.647466,0.550732 -0.359177,0.203077 -0.74448,0.24636 -0.388429,0.04714 -0.773847,-0.06146 -0.381465,-0.105473 -0.713501,-0.367937 -0.30832,-0.243717 -0.491921,-0.553286 -0.186724,-0.305715 -0.242291,-0.653219 l -0.929624,0.07471 0.451745,-0.781339 0.496245,-0.04413 q 0.05842,-0.2321 0.171173,-0.459206 0.10567,-0.226377 0.277522,-0.438387 0.287461,-0.354634 0.646637,-0.557711 0.360005,-0.196097 0.745309,-0.23938 0.385304,-0.04328 0.766769,0.06219 0.385418,0.108597 0.717455,0.371061 z m -0.640538,0.790219 q -0.177877,-0.140606 -0.381202,-0.193809 -0.203325,-0.0532 -0.404616,-0.02891 -0.201292,0.0243 -0.383271,0.120786 -0.181151,0.103465 -0.315507,0.269218 -0.08124,0.100223 -0.138761,0.219194 l 0.816385,-0.06303 -0.487131,0.784989 -0.379883,0.02859 q 0.08516,0.294998 0.346042,0.50122 0.177877,0.140606 0.381202,0.19381 0.203325,0.0532 0.407741,0.02505 0.201292,-0.0243 0.382443,-0.127764 0.181978,-0.09649 0.316335,-0.26224 0.134357,-0.165753 0.19297,-0.366081 0.05944,-0.193348 0.03937,-0.392623 -0.02007,-0.199275 -0.117156,-0.383539 -0.09709,-0.184264 -0.274966,-0.32487 z m -2.81023,3.786969 -0.115609,0.142625 q -0.181225,0.223574 -0.18322,0.41806 -0.002,0.194487 0.175883,0.335092 0.177877,0.140606 0.369607,0.0961 0.191729,-0.04451 0.372955,-0.26808 l 0.115609,-0.142625 z m -2.995017,0.358439 0.762396,-0.940553 1.730613,0.185293 -1.146318,-0.906126 0.612416,-0.755526 2.980427,2.355928 -0.952995,1.175692 q -0.196848,0.242847 -0.418807,0.364652 -0.218005,0.12493 -0.438233,0.140586 -0.223352,0.01951 -0.436239,-0.0539 -0.216012,-0.06956 -0.405747,-0.219536 -0.339943,-0.268713 -0.422163,-0.599338 -0.08139,-0.323647 0.0966,-0.695246 z"
       id="text5"
       class="label"
       style="font-weight:700;font-size:5px;font-family:Futura, 'Futura PT', 'Trebuchet MS', Arial, sans-serif;dominant-baseline:middle;text-anchor:middle;opacity:0.81;fill:#e9e4d3"
       aria-label="SQR" /></g></svg>
