<?xml version="1.0" encoding="UTF-8" standalone="no"?>
<svg
   width="20mm"
   height="20mm"
   viewBox="0 0 100 100"
   version="1.1"
   id="svg11"
   sodipodi:docname="clairaudient_xfade_indicator.svg"
   inkscape:version="1.4.2 (ebf0e940, 2025-05-08)"
   xmlns:inkscape="http://www.inkscape.org/namespaces/inkscape"
   xmlns:sodipodi="http://sodipodi.sourceforge.net/DTD/sodipodi-0.dtd"
   xmlns="http://www.w3.org/2000/svg"
   xmlns:svg="http://www.w3.org/2000/svg">
  <sodipodi:namedview
     id="namedview11"
     pagecolor="#505050"
     bordercolor="#eeeeee"
     borderopacity="1"
     inkscape:showpageshadow="0"
     inkscape:pageopacity="0"
     inkscape:pagecheckerboard="0"
     inkscape:deskcolor="#505050"
     inkscape:document-units="mm"
     inkscape:zoom="11.734271"
     inkscape:cx="37.795276"
     inkscape:cy="37.795276"
     inkscape:window-width="1800"
     inkscape:window-height="1097"
     inkscape:window-x="0"
     inkscape:window-y="44"
     inkscape:window-maximized="1"
     inkscape:current-layer="g11" />
  <defs
     id="defs1">
    <style
       id="style1">
      .tick-major { stroke:#e8e1cf; stroke-width:1.2; stroke-linecap:round; opacity:0.88; }
      .tick-minor { stroke:#e8e1cf; stroke-width:0.8; stroke-linecap:round; opacity:0.6; }
      .label { fill:#e8e1cf; font-family:&quot;Futura&quot;,&quot;Futura PT&quot;,&quot;Trebuchet MS&quot;,Arial,sans-serif; font-size:6.2px; font-weight:700; text-anchor:middle; dominant-baseline:middle; opacity:0.92; }
    </style>
  </defs>
  <g
     transform="translate(50,50)"
     id="g11">
    <g
       transform="rotate(-135)"
       id="g1">
      <path
         d="M 0.54559999,-37.5 0,-39.0562 -0.54559998,-37.5 Z m 0.32239999,0.9238 H -0.86799997 L -1.147,-35.764 h -1.2958 l 1.77940003,-4.6748 h 1.32679996 l 1.77939991,4.6748 h -1.2958 z"
         id="text1"
         class="label"
         style="font-weight:700;font-size:6.2px;font-family:Futura, 'Futura PT', 'Trebuchet MS', Arial, sans-serif;dominant-baseline:middle;text-anchor:middle;opacity:0.8464;fill:#e8e1cf"
         aria-label="A" />
    </g>
    <g
       transform="rotate(135)"
       id="g2">
      <path
         d="m -0.10137719,-36.181071 h 0.2666 q 0.45879998,0 0.65719998,-0.1178 0.19840001,-0.1178 0.19840001,-0.3782 0,-0.2604 -0.19840001,-0.3782 -0.1984,-0.1178 -0.65719998,-0.1178 h -0.2666 z m 0,-1.8972 h 0.2232 q 0.57039998,0 0.57039998,-0.4526 0,-0.4526 -0.57039998,-0.4526 h -0.2232 z m -1.21519991,-1.8352 h 1.8103999 q 0.6448,0 0.9796,0.31 0.3348,0.31 0.3348,0.8928 0,0.3534 -0.1302,0.589 -0.124,0.2294 -0.3844,0.3906 0.2604,0.0496 0.4402,0.155 0.186,0.0992 0.2976,0.248 0.1178,0.1488 0.1674,0.3348 0.0496,0.186 0.0496,0.3968 0,0.3286 -0.1178,0.5828 -0.1116,0.2542 -0.3224,0.4278 -0.2046,0.1736 -0.5022,0.2604 -0.2976,0.0868 -0.66960001,0.0868 H -1.3165771 Z"
         id="text2"
         class="label"
         style="font-weight:700;font-size:6.2px;font-family:Futura, 'Futura PT', 'Trebuchet MS', Arial, sans-serif;dominant-baseline:middle;text-anchor:middle;opacity:0.8464;fill:#e8e1cf"
         aria-label="B" />
    </g>
    <path
       d="m 2.1367607,-32.565086 h -1.124138 l -1.01707723,-1.436399 -1.00815547,1.436399 h -1.124138 l 1.5791462,-2.275042 -1.5791462,-2.292884 h 1.124138 l 1.00815547,1.454242 1.02599893,-1.454242 h 1.1152163 l -1.58806797,2.292884 z"
       id="text31"
       style="font-weight:bold;font-size:8.92173px;line-height:0;font-family:'Liber Grotesque Family';-inkscape-font-specification:'Liber Grotesque Family, Bold';text-align:center;letter-spacing:0.238975px;word-spacing:0.917665px;text-anchor:middle;fill:none;fill-rule:evenodd;stroke:#e8e1cf;stroke-width:0.289028;stroke-linecap:round;stroke-linejoin:round;stroke-opacity:0.777108;paint-order:fill markers stroke"
       transform="scale(1.0933431,0.91462596)"
       aria-label="x" />
  </g>
</svg>
