<?xml version="1.0" encoding="UTF-8"?>
<svg id="lg-dark-rot" viewBox="0 0 52 52" xmlns="http://www.w3.org/2000/svg">
    <defs>
        <linearGradient id="pg1" x1="0%" y1="0%" x2="0%" y2="100%">
            <stop offset="0%" style="stop-color:#e8e8e8"/>
            <stop offset="100%" style="stop-color:#c0c0c0"/>
        </linearGradient>
    </defs>
    <rect x="24.7" y="8.2" width="2.6" height="16.2" fill="url(#pg1)" rx="1.3"/>
    <g opacity="0.15">
        <line x1="26" y1="6.5" x2="26" y2="11.7" stroke="#fff" stroke-width="0.65"/>
        <line x1="32.8" y1="9.8" x2="29.7" y2="12.9" stroke="#fff" stroke-width="0.65"/>
        <line x1="39.4" y1="12.6" x2="35.5" y2="16.5" stroke="#fff" stroke-width="0.65"/>
        <line x1="43.2" y1="19.2" x2="39.7" y2="22.3" stroke="#fff" stroke-width="0.65"/>
        <line x1="45.5" y1="26" x2="40.3" y2="26" stroke="#fff" stroke-width="0.65"/>
        <line x1="43.2" y1="32.8" x2="39.7" y2="29.7" stroke="#fff" stroke-width="0.65"/>
        <line x1="39.4" y1="39.4" x2="35.5" y2="35.5" stroke="#fff" stroke-width="0.65"/>
        <line x1="32.8" y1="42.2" x2="29.7" y2="39.1" stroke="#fff" stroke-width="0.65"/>
        <line x1="26" y1="45.5" x2="26" y2="40.3" stroke="#fff" stroke-width="0.65"/>
        <line x1="19.2" y1="42.2" x2="22.3" y2="39.1" stroke="#fff" stroke-width="0.65"/>
        <line x1="12.6" y1="39.4" x2="16.5" y2="35.5" stroke="#fff" stroke-width="0.65"/>
        <line x1="8.8" y1="32.8" x2="12.3" y2="29.7" stroke="#fff" stroke-width="0.65"/>
        <line x1="6.5" y1="26" x2="11.7" y2="26" stroke="#fff" stroke-width="0.65"/>
        <line x1="8.8" y1="19.2" x2="12.3" y2="22.3" stroke="#fff" stroke-width="0.65"/>
        <line x1="12.6" y1="12.6" x2="16.5" y2="16.5" stroke="#fff" stroke-width="0.65"/>
        <line x1="19.2" y1="9.8" x2="22.3" y2="12.9" stroke="#fff" stroke-width="0.65"/>
    </g>
</svg>
