<?xml version="1.0" encoding="UTF-8" standalone="no"?>
<!-- Shapetaker Attenuverter Indicator - Small (54x54px) -->

<svg
   version="1.0"
   width="54px"
   height="54px"
   viewBox="0 0 54 54"
   id="svg43"
   sodipodi:docname="st_attenuverter_small_indicator.svg"
   inkscape:version="1.4.3 (0d15f75, 2025-12-25)"
   xmlns:inkscape="http://www.inkscape.org/namespaces/inkscape"
   xmlns:sodipodi="http://sodipodi.sourceforge.net/DTD/sodipodi-0.dtd"
   xmlns="http://www.w3.org/2000/svg"
   xmlns:svg="http://www.w3.org/2000/svg">
  <sodipodi:namedview
     id="namedview43"
     pagecolor="#505050"
     bordercolor="#eeeeee"
     borderopacity="1"
     inkscape:showpageshadow="0"
     inkscape:pageopacity="0"
     inkscape:pagecheckerboard="0"
     inkscape:deskcolor="#505050"
     inkscape:zoom="18.074074"
     inkscape:cx="27"
     inkscape:cy="26.972336"
     inkscape:window-width="1800"
     inkscape:window-height="1101"
     inkscape:window-x="0"
     inkscape:window-y="40"
     inkscape:window-maximized="1"
     inkscape:current-layer="svg43" />
  <!-- No filled cap: leave center transparent so the stationary background shows through -->
  <!-- Fluted ridges -->
  <g
     stroke="#4c4a41"
     stroke-width="1.1"
     opacity="0.45"
     id="g23">
    <line
       x1="27"
       y1="11.2"
       x2="27"
       y2="14.6"
       id="line6" />
    <line
       x1="27"
       y1="11.2"
       x2="27"
       y2="14.6"
       transform="rotate(20 27 27)"
       id="line7" />
    <line
       x1="27"
       y1="11.2"
       x2="27"
       y2="14.6"
       transform="rotate(40 27 27)"
       id="line8" />
    <line
       x1="27"
       y1="11.2"
       x2="27"
       y2="14.6"
       transform="rotate(60 27 27)"
       id="line9" />
    <line
       x1="27"
       y1="11.2"
       x2="27"
       y2="14.6"
       transform="rotate(80 27 27)"
       id="line10" />
    <line
       x1="27"
       y1="11.2"
       x2="27"
       y2="14.6"
       transform="rotate(100 27 27)"
       id="line11" />
    <line
       x1="27"
       y1="11.2"
       x2="27"
       y2="14.6"
       transform="rotate(120 27 27)"
       id="line12" />
    <line
       x1="27"
       y1="11.2"
       x2="27"
       y2="14.6"
       transform="rotate(140 27 27)"
       id="line13" />
    <line
       x1="27"
       y1="11.2"
       x2="27"
       y2="14.6"
       transform="rotate(160 27 27)"
       id="line14" />
    <line
       x1="27"
       y1="11.2"
       x2="27"
       y2="14.6"
       transform="rotate(180 27 27)"
       id="line15" />
    <line
       x1="27"
       y1="11.2"
       x2="27"
       y2="14.6"
       transform="rotate(200 27 27)"
       id="line16" />
    <line
       x1="27"
       y1="11.2"
       x2="27"
       y2="14.6"
       transform="rotate(220 27 27)"
       id="line17" />
    <line
       x1="27"
       y1="11.2"
       x2="27"
       y2="14.6"
       transform="rotate(240 27 27)"
       id="line18" />
    <line
       x1="27"
       y1="11.2"
       x2="27"
       y2="14.6"
       transform="rotate(260 27 27)"
       id="line19" />
    <line
       x1="27"
       y1="11.2"
       x2="27"
       y2="14.6"
       transform="rotate(280 27 27)"
       id="line20" />
    <line
       x1="27"
       y1="11.2"
       x2="27"
       y2="14.6"
       transform="rotate(300 27 27)"
       id="line21" />
    <line
       x1="27"
       y1="11.2"
       x2="27"
       y2="14.6"
       transform="rotate(320 27 27)"
       id="line22" />
    <line
       x1="27"
       y1="11.2"
       x2="27"
       y2="14.6"
       transform="rotate(340 27 27)"
       id="line23" />
  </g>
  <!-- Ridge shadow pass -->
  <g
     stroke="#0f0f0d"
     stroke-width="0.6"
     opacity="0.5"
     id="g41">
    <line
       x1="27"
       y1="11.8"
       x2="27"
       y2="14.2"
       transform="rotate(10 27 27)"
       id="line24" />
    <line
       x1="27"
       y1="11.8"
       x2="27"
       y2="14.2"
       transform="rotate(30 27 27)"
       id="line25" />
    <line
       x1="27"
       y1="11.8"
       x2="27"
       y2="14.2"
       transform="rotate(50 27 27)"
       id="line26" />
    <line
       x1="27"
       y1="11.8"
       x2="27"
       y2="14.2"
       transform="rotate(70 27 27)"
       id="line27" />
    <line
       x1="27"
       y1="11.8"
       x2="27"
       y2="14.2"
       transform="rotate(90 27 27)"
       id="line28" />
    <line
       x1="27"
       y1="11.8"
       x2="27"
       y2="14.2"
       transform="rotate(110 27 27)"
       id="line29" />
    <line
       x1="27"
       y1="11.8"
       x2="27"
       y2="14.2"
       transform="rotate(130 27 27)"
       id="line30" />
    <line
       x1="27"
       y1="11.8"
       x2="27"
       y2="14.2"
       transform="rotate(150 27 27)"
       id="line31" />
    <line
       x1="27"
       y1="11.8"
       x2="27"
       y2="14.2"
       transform="rotate(170 27 27)"
       id="line32" />
    <line
       x1="27"
       y1="11.8"
       x2="27"
       y2="14.2"
       transform="rotate(190 27 27)"
       id="line33" />
    <line
       x1="27"
       y1="11.8"
       x2="27"
       y2="14.2"
       transform="rotate(210 27 27)"
       id="line34" />
    <line
       x1="27"
       y1="11.8"
       x2="27"
       y2="14.2"
       transform="rotate(230 27 27)"
       id="line35" />
    <line
       x1="27"
       y1="11.8"
       x2="27"
       y2="14.2"
       transform="rotate(250 27 27)"
       id="line36" />
    <line
       x1="27"
       y1="11.8"
       x2="27"
       y2="14.2"
       transform="rotate(270 27 27)"
       id="line37" />
    <line
       x1="27"
       y1="11.8"
       x2="27"
       y2="14.2"
       transform="rotate(290 27 27)"
       id="line38" />
    <line
       x1="27"
       y1="11.8"
       x2="27"
       y2="14.2"
       transform="rotate(310 27 27)"
       id="line39" />
    <line
       x1="27"
       y1="11.8"
       x2="27"
       y2="14.2"
       transform="rotate(330 27 27)"
       id="line40" />
    <line
       x1="27"
       y1="11.8"
       x2="27"
       y2="14.2"
       transform="rotate(350 27 27)"
       id="line41" />
  </g>
  <!-- Cap edge -->
  <circle
     cx="27"
     cy="27"
     r="16"
     fill="none"
     stroke="#131211"
     stroke-width="0.6"
     id="circle41"
     style="stroke:#24201f;stroke-opacity:1" />
  <!-- Pointer line -->
  <line
     x1="27"
     y1="5.6340165"
     x2="27"
     y2="11.034017"
     stroke="#e6e2d6"
     stroke-width="1.69714"
     stroke-linecap="round"
     id="line42" />
  <!-- Center dot -->
</svg>
