<?xml version="1.0" encoding="UTF-8" standalone="no"?>
<svg
   width="100"
   height="100"
   viewBox="0 0 100 100"
   version="1.1"
   id="svg30"
   sodipodi:docname="st_alt_indicator.svg"
   inkscape:version="1.4.2 (ebf0e940, 2025-05-08)"
   xmlns:inkscape="http://www.inkscape.org/namespaces/inkscape"
   xmlns:sodipodi="http://sodipodi.sourceforge.net/DTD/sodipodi-0.dtd"
   xmlns="http://www.w3.org/2000/svg"
   xmlns:svg="http://www.w3.org/2000/svg">
  <sodipodi:namedview
     id="namedview30"
     pagecolor="#505050"
     bordercolor="#eeeeee"
     borderopacity="1"
     inkscape:showpageshadow="0"
     inkscape:pageopacity="0"
     inkscape:pagecheckerboard="0"
     inkscape:deskcolor="#505050"
     inkscape:zoom="4.7123727"
     inkscape:cx="51.141965"
     inkscape:cy="62.919472"
     inkscape:window-width="1800"
     inkscape:window-height="1097"
     inkscape:window-x="0"
     inkscape:window-y="44"
     inkscape:window-maximized="1"
     inkscape:current-layer="svg30" />
  <defs
     id="defs1">
    <style
       id="style1">
      .number-shadow {
        fill: #0a0a0a;
        font-family: Arial, sans-serif;
        font-size: 7px;
        font-weight: bold;
        text-anchor: middle;
        dominant-baseline: middle;
        opacity: 0.7;
      }
      .number-main {
        fill: #cdc9b5;
        font-family: Arial, sans-serif;
        font-size: 7px;
        font-weight: bold;
        text-anchor: middle;
        dominant-baseline: middle;
        opacity: 0.75;
      }
      .number-highlight {
        fill: #dbd8c8;
        font-family: Arial, sans-serif;
        font-size: 7px;
        font-weight: bold;
        text-anchor: middle;
        dominant-baseline: middle;
        opacity: 0.5;
      }
    </style>

    <!-- Pointer line gradient for rotation indication -->
    <linearGradient id="pointerShadow" x1="47" y1="50" x2="53" y2="50" gradientUnits="userSpaceOnUse">
      <stop offset="0%" stop-color="#111111" stop-opacity="1" />
      <stop offset="35%" stop-color="#000000" stop-opacity="1" />
      <stop offset="50%" stop-color="#1a1a1a" stop-opacity="1" />
      <stop offset="65%" stop-color="#cccccc" stop-opacity="1" />
      <stop offset="100%" stop-color="#888888" stop-opacity="1" />
    </linearGradient>
  </defs>

  <!-- Rotation indicator pointer line (recessed groove) - TESTING WITH BRIGHT WHITE -->
  <rect x="47" y="6" width="6" height="44" rx="2" ry="2" fill="#ffffff" fill-opacity="0.9" />

  <!-- Numbers with stamped/embossed effect - counter-rotated so they're upright when at top -->
  <g
     transform="translate(6.835, 5.334)"
     id="g1"
     style="opacity:1">
    <!-- 1 at 12 o'clock (0° counter-rotation) -->
    <path
       d="m 44.092621,5.0312504 h -0.96045 V 1.4116211 Q 42.605804,1.9038086 41.891449,2.1396484 V 1.2680664 Q 42.267425,1.1450195 42.708343,0.8032227 43.149261,0.4580078 43.313324,0 h 0.779297 z"
       id="text1"
       class="number-shadow"
       style="font-weight:bold;font-size:7px;font-family:Arial, sans-serif;dominant-baseline:middle;text-anchor:middle;opacity:0.49;fill:#0a0a0a"
       aria-label="1" />
    <path
       d="m 44.092621,5.7312494 h -0.96045 V 2.1116209 q -0.526367,0.4921875 -1.240722,0.7280273 v -0.871582 q 0.375976,-0.1230469 0.816894,-0.4648437 0.440918,-0.3452149 0.604981,-0.8032227 h 0.779297 z"
       id="text2"
       class="number-main"
       style="font-weight:bold;font-size:7px;font-family:Arial, sans-serif;dominant-baseline:middle;text-anchor:middle;opacity:0.5625;fill:#cdc9b5"
       aria-label="1" />
    <path
       d="m 44.092621,6.4312494 h -0.96045 V 2.8116207 Q 42.605804,3.3038082 41.891449,3.5396481 V 2.668066 q 0.375976,-0.1230469 0.816894,-0.4648437 0.440918,-0.3452149 0.604981,-0.8032227 h 0.779297 z"
       id="text3"
       class="number-highlight"
       style="font-weight:bold;font-size:7px;font-family:Arial, sans-serif;dominant-baseline:middle;text-anchor:middle;opacity:0.25;fill:#dbd8c8"
       aria-label="1" />
    <!-- 2 at 11 o'clock (-36° counter-rotation) -->
    <path
       d="m 21.505223,10.359386 0.524357,0.721716 -2.723718,1.978896 q -0.253091,-0.441394 -0.29707,-0.967121 -0.04598,-0.528494 0.166624,-1.608203 Q 19.345204,9.6135187 19.337538,9.3529235 19.323133,8.9958272 19.152366,8.7607859 18.963517,8.5008577 18.722041,8.4650587 18.48132,8.4244846 18.235217,8.6032888 17.99188,8.7800835 17.954569,9.031108 17.917258,9.2821338 18.142247,9.6383245 L 17.311741,10.123431 Q 16.914776,9.4316792 17.07687,8.8872021 17.238962,8.3427257 17.786471,7.9449373 18.386518,7.5089776 18.96446,7.5833855 q 0.577941,0.074408 0.927513,0.5555519 0.198894,0.2737543 0.280159,0.5949469 0.08202,0.3164184 0.06599,0.7421032 -0.01044,0.282198 -0.133107,0.8867525 -0.122669,0.604555 -0.141855,0.787489 -0.01642,0.180924 -9.11e-4,0.3302 z"
       id="text4"
       class="number-shadow"
       style="font-weight:bold;font-size:7px;font-family:Arial, sans-serif;dominant-baseline:middle;text-anchor:middle;opacity:0.49;fill:#0a0a0a"
       aria-label="2" />
    <path
       d="m 21.916673,10.925698 0.524357,0.721716 -2.723717,1.978897 q -0.253092,-0.441395 -0.29707,-0.967121 -0.04599,-0.528494 0.166623,-1.608204 0.169788,-0.871155 0.162122,-1.1317506 -0.01441,-0.3570955 -0.185172,-0.5921368 -0.188849,-0.2599282 -0.430326,-0.295728 -0.240719,-0.040573 -0.486822,0.1382309 -0.243337,0.1767947 -0.280649,0.4278192 -0.03731,0.2510258 0.187679,0.6072163 l -0.830507,0.485107 Q 17.326226,9.9979919 17.48832,9.4535148 17.650413,8.9090384 18.197921,8.51125 18.797969,8.0752903 19.37591,8.1496982 q 0.577941,0.074408 0.927512,0.5555511 0.198894,0.2737543 0.280161,0.5949477 0.08202,0.3164184 0.06599,0.742103 -0.01044,0.282198 -0.133107,0.886753 -0.122669,0.604555 -0.141855,0.787488 -0.01642,0.180924 -9.11e-4,0.3302 z"
       id="text5"
       class="number-main"
       style="font-weight:bold;font-size:7px;font-family:Arial, sans-serif;dominant-baseline:middle;text-anchor:middle;opacity:0.5625;fill:#cdc9b5"
       aria-label="2" />
    <path
       d="m 22.328122,11.492009 0.524357,0.721716 -2.723717,1.978897 q -0.253092,-0.441394 -0.29707,-0.967121 -0.04599,-0.528494 0.166623,-1.608203 0.169788,-0.871156 0.162122,-1.131752 -0.01441,-0.357095 -0.185172,-0.5921363 -0.188849,-0.2599282 -0.430326,-0.2957281 -0.240719,-0.040573 -0.486822,0.138231 -0.243337,0.1767947 -0.280649,0.4278194 -0.03731,0.251025 0.187679,0.607216 l -0.830506,0.485107 q -0.396965,-0.691751 -0.234871,-1.236228 0.162092,-0.5444767 0.709601,-0.9422651 0.600047,-0.4359597 1.177989,-0.3615527 0.577941,0.074409 0.927512,0.555552 0.198894,0.2737543 0.28016,0.5949469 0.08202,0.3164189 0.06599,0.7421039 -0.01044,0.282197 -0.133107,0.886753 -0.122669,0.604555 -0.141855,0.787488 -0.01642,0.180924 -9.12e-4,0.3302 z"
       id="text6"
       class="number-highlight"
       style="font-weight:bold;font-size:7px;font-family:Arial, sans-serif;dominant-baseline:middle;text-anchor:middle;opacity:0.25;fill:#dbd8c8"
       aria-label="2" />
    <!-- 3 at 10 o'clock (-72° counter-rotation) -->
    <path
       d="m 4.9599459,33.05094 0.1800168,-0.919041 q 0.3518008,0.06759 0.5907928,-0.05961 0.2389915,-0.127199 0.3245444,-0.390503 0.09189,-0.282809 -0.060338,-0.544309 -0.1511712,-0.264752 -0.515248,-0.383047 -0.3445725,-0.111959 -0.6063189,0.0078 -0.2617461,0.119803 -0.3483552,0.386359 -0.057036,0.175537 -0.067984,0.441519 L 3.7453912,31.247512 q 0.1301562,-0.36741 0.024497,-0.617373 -0.1089132,-0.25102 -0.3917222,-0.34291 -0.2405508,-0.07816 -0.4300542,0.0184 -0.1895027,0.09656 -0.2666062,0.333857 -0.076047,0.234048 0.03262,0.452644 0.108668,0.218595 0.409115,0.355749 L 2.7066512,32.243329 Q 2.3028296,32.01508 2.1030603,31.756107 1.9010968,31.492823 1.8572681,31.129977 q -0.046022,-0.367152 0.081779,-0.760485 0.2186357,-0.672891 0.779752,-0.939806 0.4598628,-0.22075 0.9019557,-0.0771 0.6273815,0.203848 0.7783499,1.011207 0.2208555,-0.381067 0.6056306,-0.525586 0.3858361,-0.147768 0.8181769,-0.0073 0.6273815,0.203848 0.9205477,0.805839 0.2931671,0.601991 0.071363,1.284634 -0.210186,0.646886 -0.7191268,0.952317 -0.5121926,0.304375 -1.1357487,0.17724 z"
       id="text7"
       class="number-shadow"
       style="font-weight:bold;font-size:7px;font-family:Arial, sans-serif;dominant-baseline:middle;text-anchor:middle;opacity:0.49;fill:#0a0a0a"
       aria-label="3" />
    <path
       d="M 5.6256826,33.267251 5.8056994,32.34821 q 0.3518008,0.06759 0.5907928,-0.05961 0.2389915,-0.127199 0.3245444,-0.390503 0.09189,-0.282809 -0.060338,-0.544309 -0.1511711,-0.264752 -0.5152479,-0.383047 -0.3445726,-0.111959 -0.606319,0.0078 -0.2617461,0.119803 -0.3483552,0.386359 -0.057036,0.175537 -0.067984,0.441519 L 4.411128,31.463823 q 0.1301561,-0.36741 0.024497,-0.617373 -0.1089132,-0.25102 -0.3917222,-0.34291 -0.2405507,-0.07816 -0.4300542,0.0184 -0.1895027,0.09656 -0.2666062,0.333857 -0.076047,0.234048 0.03262,0.452644 0.108668,0.218595 0.409115,0.355749 L 3.3723879,32.45964 Q 2.9685663,32.231391 2.768797,31.972418 2.5668335,31.709134 2.5230048,31.346288 q -0.046022,-0.367152 0.081779,-0.760485 0.2186357,-0.672891 0.779752,-0.939806 0.4598628,-0.22075 0.9019557,-0.07711 0.6273815,0.203849 0.7783499,1.011208 0.220846,-0.38107 0.6056306,-0.525586 0.3858361,-0.147768 0.8181769,-0.0073 0.6273815,0.203848 0.9205477,0.805839 0.2931671,0.601991 0.071363,1.284634 -0.210186,0.646886 -0.7191268,0.952317 -0.5121926,0.304375 -1.1357487,0.17724 z"
       id="text8"
       class="number-main"
       style="font-weight:bold;font-size:7px;font-family:Arial, sans-serif;dominant-baseline:middle;text-anchor:middle;opacity:0.5625;fill:#cdc9b5"
       aria-label="3" />
    <path
       d="M 6.2914231,33.483563 6.47144,32.564522 q 0.3518007,0.06759 0.5907928,-0.05961 0.2389914,-0.127198 0.3245443,-0.390503 0.09189,-0.282809 -0.060338,-0.544309 -0.1511722,-0.264752 -0.515248,-0.383047 -0.3445726,-0.111959 -0.606319,0.0078 -0.2617461,0.119804 -0.3483552,0.386359 -0.057036,0.175538 -0.067984,0.441519 L 5.0768685,31.680135 q 0.1301561,-0.36741 0.024497,-0.617372 -0.1089132,-0.25102 -0.3917232,-0.342911 -0.2405498,-0.07816 -0.4300532,0.0184 -0.1895037,0.09656 -0.2666072,0.333857 -0.076047,0.234048 0.032621,0.452644 0.1086671,0.218595 0.4091141,0.355749 l -0.416588,0.795454 Q 3.6343077,32.447704 3.4345375,32.18873 3.2325749,31.925446 3.1887463,31.562601 q -0.046022,-0.367153 0.081779,-0.760485 0.2186357,-0.672892 0.7797521,-0.939807 0.4598627,-0.22075 0.9019556,-0.0771 0.6273816,0.203849 0.778349,1.011207 0.220846,-0.38107 0.6056306,-0.525586 0.3858371,-0.147768 0.8181769,-0.0073 0.6273816,0.203848 0.9205487,0.80584 0.2931671,0.601991 0.071363,1.284633 -0.2101859,0.646886 -0.7191277,0.952318 -0.5121916,0.304375 -1.1357478,0.17724 z"
       id="text9"
       class="number-highlight"
       style="font-weight:bold;font-size:7px;font-family:Arial, sans-serif;dominant-baseline:middle;text-anchor:middle;opacity:0.25;fill:#dbd8c8"
       aria-label="3" />
    <!-- 4 at 9 o'clock (-108° counter-rotation) -->
    <path
       d="M 5.0722925,56.349101 4.1133413,56.660683 4.7470675,58.611092 3.9474002,58.87092 0.24926578,57.786818 0,57.019657 3.0231338,56.037381 2.8309036,55.445757 3.6338217,55.184873 3.8260519,55.776497 4.7850031,55.464915 Z m -1.7618693,0.572466 -1.628592,0.529162 1.9845349,0.566317 z"
       id="text10"
       class="number-shadow"
       style="font-weight:bold;font-size:7px;font-family:Arial, sans-serif;dominant-baseline:middle;text-anchor:middle;opacity:0.49;fill:#0a0a0a"
       aria-label="4" />
    <path
       d="M 5.7380321,56.132789 4.7790818,56.444371 5.412808,58.39478 4.6131397,58.654608 0.91500534,57.570506 0.66573956,56.803345 3.6888734,55.821069 3.4966432,55.229445 l 0.802919,-0.260884 0.1922302,0.591624 0.9589503,-0.311582 z m -1.7618693,0.572466 -1.6285911,0.529161 1.984534,0.566319 z"
       id="text11"
       class="number-main"
       style="font-weight:bold;font-size:7px;font-family:Arial, sans-serif;dominant-baseline:middle;text-anchor:middle;opacity:0.5625;fill:#cdc9b5"
       aria-label="4" />
    <path
       d="m 6.4037726,55.916477 -0.9589513,0.311582 0.6337263,1.950409 -0.7996674,0.259827 -3.6981343,-1.084101 -0.2492658,-0.767161 3.0231338,-0.982276 -0.1922302,-0.591624 0.802918,-0.260884 0.1922302,0.591624 0.9589513,-0.311582 z m -1.7618693,0.572466 -1.6285911,0.529161 1.984534,0.566318 z"
       id="text12"
       class="number-highlight"
       style="font-weight:bold;font-size:7px;font-family:Arial, sans-serif;dominant-baseline:middle;text-anchor:middle;opacity:0.25;fill:#dbd8c8"
       aria-label="4" />
    <!-- 5 at 8 o'clock (-144° counter-rotation) -->
    <path
       d="m 20.005358,79.218102 -0.832516,-0.482339 q 0.157672,-0.286804 0.107035,-0.560185 -0.05265,-0.27062 -0.26557,-0.425315 -0.243337,-0.176795 -0.554655,-0.103017 -0.313327,0.07654 -0.602627,0.474731 -0.27122,0.373302 -0.237148,0.681121 0.0293,0.308575 0.297521,0.503451 0.334589,0.243093 0.815014,0.140084 l 0.564166,0.54931 -1.931078,1.820544 -2.05454,-1.492711 0.528375,-0.727246 1.465552,1.064787 0.621919,-0.600137 q -0.354353,-0.05888 -0.625343,-0.255769 -0.517091,-0.375689 -0.603338,-1.01293 -0.08625,-0.637241 0.349713,-1.237288 0.363635,-0.5005 0.939263,-0.682209 0.785175,-0.249157 1.487534,0.261137 0.561335,0.407834 0.696295,0.966396 0.13496,0.558563 -0.165572,1.117584 z"
       id="text13"
       class="number-shadow"
       style="font-weight:bold;font-size:7px;font-family:Arial, sans-serif;dominant-baseline:middle;text-anchor:middle;opacity:0.49;fill:#0a0a0a"
       aria-label="5" />
    <path
       d="M 20.416806,78.651793 19.58429,78.169454 q 0.157672,-0.286805 0.107035,-0.560186 -0.05265,-0.270619 -0.26557,-0.425315 -0.243337,-0.176794 -0.554655,-0.103016 -0.313327,0.07654 -0.602627,0.474731 -0.27122,0.373301 -0.237148,0.68112 0.0293,0.308575 0.297521,0.503452 0.334588,0.243092 0.815014,0.140083 l 0.564166,0.549311 -1.931078,1.820543 -2.05454,-1.49271 0.528374,-0.727246 1.465553,1.064786 0.621919,-0.600136 q -0.354353,-0.05888 -0.625343,-0.25577 -0.517091,-0.375688 -0.603338,-1.012929 -0.08625,-0.637241 0.349713,-1.237288 0.363635,-0.5005 0.939263,-0.68221 0.785175,-0.249156 1.487534,0.261138 0.561335,0.407833 0.696295,0.966396 0.13496,0.558562 -0.165572,1.117584 z"
       id="text14"
       class="number-main"
       style="font-weight:bold;font-size:7px;font-family:Arial, sans-serif;dominant-baseline:middle;text-anchor:middle;opacity:0.5625;fill:#cdc9b5"
       aria-label="5" />
    <path
       d="m 20.828258,78.085477 -0.832515,-0.482339 q 0.157672,-0.286805 0.107034,-0.560186 -0.05265,-0.270618 -0.26557,-0.425314 -0.243337,-0.176794 -0.554655,-0.103016 -0.313327,0.07654 -0.602627,0.474731 -0.27122,0.373301 -0.237148,0.68112 0.0293,0.308575 0.297522,0.503451 0.334588,0.243092 0.815013,0.140084 l 0.564166,0.549312 -1.931079,1.820543 -2.05454,-1.492711 0.528375,-0.727246 1.465553,1.064786 0.621918,-0.600135 q -0.354352,-0.05889 -0.625342,-0.255771 -0.517091,-0.375689 -0.603338,-1.012929 -0.08625,-0.63724 0.349712,-1.237288 0.363636,-0.5005 0.939263,-0.682209 0.785175,-0.249157 1.487534,0.261137 0.561335,0.407834 0.696296,0.966396 0.13496,0.558562 -0.165572,1.117584 z"
       id="text15"
       class="number-highlight"
       style="font-weight:bold;font-size:7px;font-family:Arial, sans-serif;dominant-baseline:middle;text-anchor:middle;opacity:0.25;fill:#dbd8c8"
       aria-label="5" />
    <!-- 6 at 6 o'clock (-180° counter-rotation) -->
    <path
       d="m 41.679535,88.085055 0.929687,-0.102539 q 0.03418,0.287109 0.177735,0.423828 0.143554,0.136719 0.372558,0.136719 0.304199,0 0.516113,-0.273438 0.208497,-0.273437 0.263184,-1.138183 -0.358887,0.423828 -0.89209,0.423828 -0.601562,0 -1.028808,-0.458008 -0.430664,-0.458008 -0.430664,-1.182617 0,-0.769043 0.451171,-1.233887 0.451172,-0.464844 1.158692,-0.464844 0.758789,0 1.247558,0.587891 0.48877,0.591309 0.48877,1.93457 0,1.377442 -0.509277,1.98584 -0.509278,0.608399 -1.322754,0.608399 -0.570801,0 -0.94336,-0.32129 -0.375976,-0.317871 -0.478515,-0.926269 z m 2.177246,-2.095215 q 0,-0.468262 -0.215332,-0.724609 -0.215332,-0.25293 -0.492188,-0.25293 -0.266601,0 -0.444336,0.208496 -0.177734,0.208496 -0.177734,0.683594 0,0.488769 0.191406,0.714355 0.191406,0.229004 0.478516,0.229004 0.276855,0 0.468262,-0.21875 0.191406,-0.215332 0.191406,-0.63916 z"
       id="text16"
       class="number-shadow"
       style="font-weight:bold;font-size:7px;font-family:Arial, sans-serif;dominant-baseline:middle;text-anchor:middle;opacity:0.49;fill:#0a0a0a"
       aria-label="6" />
    <path
       d="m 41.679535,87.385058 0.929687,-0.102539 q 0.03418,0.287109 0.177735,0.423828 0.143554,0.136719 0.372558,0.136719 0.304199,0 0.516113,-0.273438 0.208497,-0.273437 0.263184,-1.138183 -0.358887,0.423828 -0.89209,0.423828 -0.601562,0 -1.028808,-0.458008 -0.430664,-0.458008 -0.430664,-1.182617 0,-0.769043 0.451171,-1.233887 0.451172,-0.464844 1.158692,-0.464844 0.758789,0 1.247558,0.587891 0.48877,0.591309 0.48877,1.93457 0,1.377442 -0.509277,1.98584 -0.509278,0.608399 -1.322754,0.608399 -0.570801,0 -0.94336,-0.321289 -0.375976,-0.317872 -0.478515,-0.92627 z m 2.177246,-2.095215 q 0,-0.468262 -0.215332,-0.724609 -0.215332,-0.25293 -0.492188,-0.25293 -0.266601,0 -0.444336,0.208496 -0.177734,0.208496 -0.177734,0.683594 0,0.488769 0.191406,0.714355 0.191406,0.229004 0.478516,0.229004 0.276855,0 0.468262,-0.21875 0.191406,-0.215332 0.191406,-0.63916 z"
       id="text17"
       class="number-main"
       style="font-weight:bold;font-size:7px;font-family:Arial, sans-serif;dominant-baseline:middle;text-anchor:middle;opacity:0.5625;fill:#cdc9b5"
       aria-label="6" />
    <path
       d="m 41.679535,86.685061 0.929687,-0.102539 q 0.03418,0.287109 0.177735,0.423828 0.143554,0.136719 0.372558,0.136719 0.304199,0 0.516113,-0.273438 0.208497,-0.273437 0.263184,-1.138183 -0.358887,0.423828 -0.89209,0.423828 -0.601562,0 -1.028808,-0.458008 -0.430664,-0.458008 -0.430664,-1.182617 0,-0.769043 0.451171,-1.233887 0.451172,-0.464844 1.158692,-0.464844 0.758789,0 1.247558,0.587891 0.48877,0.591309 0.48877,1.93457 0,1.377442 -0.509277,1.98584 -0.509278,0.608399 -1.322754,0.608399 -0.570801,0 -0.94336,-0.321289 -0.375976,-0.317872 -0.478515,-0.92627 z m 2.177246,-2.095215 q 0,-0.468262 -0.215332,-0.724609 -0.215332,-0.25293 -0.492188,-0.25293 -0.266601,0 -0.444336,0.208496 -0.177734,0.208496 -0.177734,0.683594 0,0.48877 0.191406,0.714355 0.191406,0.229004 0.478516,0.229004 0.276855,0 0.468262,-0.21875 0.191406,-0.215332 0.191406,-0.63916 z"
       id="text18"
       class="number-highlight"
       style="font-weight:bold;font-size:7px;font-family:Arial, sans-serif;dominant-baseline:middle;text-anchor:middle;opacity:0.25;fill:#dbd8c8"
       aria-label="6" />
    <!-- 7 at 5 o'clock (144° counter-rotation) -->
    <path
       d="m 70.843834,79.5217 0.524357,0.721715 -2.657352,1.93068 -0.409842,-0.564099 q 0.094,-0.562603 -0.0059,-1.415292 -0.09986,-0.852689 -0.416352,-1.666279 -0.317249,-0.808815 -0.709766,-1.343254 l 0.749367,-0.544447 q 0.591386,0.854684 0.89995,1.965549 0.305796,1.112876 0.258537,2.199198 z"
       id="text19"
       class="number-shadow"
       style="font-weight:bold;font-size:7px;font-family:Arial, sans-serif;dominant-baseline:middle;text-anchor:middle;opacity:0.49;fill:#0a0a0a"
       aria-label="7" />
    <path
       d="m 70.432386,78.955391 0.524357,0.721715 -2.657352,1.930679 -0.409842,-0.564099 q 0.094,-0.562603 -0.0059,-1.415291 -0.09986,-0.852689 -0.416352,-1.666279 Q 67.15009,77.1533 66.757573,76.618861 l 0.749367,-0.544447 q 0.591386,0.854685 0.89995,1.965549 0.305796,1.112876 0.258537,2.199199 z"
       id="text20"
       class="number-main"
       style="font-weight:bold;font-size:7px;font-family:Arial, sans-serif;dominant-baseline:middle;text-anchor:middle;opacity:0.5625;fill:#cdc9b5"
       aria-label="7" />
    <path
       d="m 70.020934,78.389075 0.524357,0.721716 -2.657352,1.930679 -0.409843,-0.5641 q 0.094,-0.562602 -0.0059,-1.41529 -0.09986,-0.852689 -0.416352,-1.66628 -0.317249,-0.808816 -0.709767,-1.343254 l 0.749368,-0.544448 q 0.591386,0.854686 0.89995,1.96555 0.305796,1.112876 0.258536,2.199198 z"
       id="text21"
       class="number-highlight"
       style="font-weight:bold;font-size:7px;font-family:Arial, sans-serif;dominant-baseline:middle;text-anchor:middle;opacity:0.25;fill:#dbd8c8"
       aria-label="7" />
    <!-- 8 at 4 o'clock (108° counter-rotation) -->
    <path
       d="m 84.250265,56.622192 q 0.264657,-0.305738 0.577523,-0.383775 0.315059,-0.07373 0.627124,0.02767 0.533112,0.173218 0.760528,0.65681 0.226358,0.486843 0.0035,1.172737 -0.220748,0.679393 -0.690034,0.940206 -0.470344,0.264064 -1.003456,0.09085 -0.331569,-0.107734 -0.535644,-0.364516 -0.200826,-0.255727 -0.235957,-0.612153 -0.288142,0.344829 -0.660247,0.450338 -0.373162,0.10876 -0.772995,-0.02115 -0.659889,-0.214411 -0.935418,-0.771138 -0.276585,-0.553477 -0.0495,-1.252373 0.211242,-0.650137 0.69304,-0.971575 0.568909,-0.379387 1.271056,-0.151246 0.386832,0.12569 0.646332,0.422044 0.262752,0.297411 0.304151,0.767283 z m 0.858682,0.487448 q -0.273058,-0.08872 -0.475481,0.01442 -0.203481,0.106391 -0.286921,0.363195 -0.0845,0.260055 0.01759,0.465729 0.105334,0.206731 0.378392,0.295453 0.256803,0.08344 0.460284,-0.02295 0.205674,-0.102083 0.288059,-0.355637 0.08555,-0.263305 -0.01978,-0.470036 -0.105336,-0.20673 -0.362139,-0.290171 z m -2.013966,-0.747821 q -0.377079,-0.12252 -0.65069,6.18e-4 -0.274667,0.126387 -0.368669,0.415697 -0.09189,0.282809 0.04945,0.533583 0.144588,0.251831 0.528169,0.376464 0.33482,0.108789 0.597622,-0.01427 0.266053,-0.121999 0.360056,-0.41131 0.10879,-0.33482 -0.06814,-0.575595 -0.177988,-0.237526 -0.447795,-0.325192 z"
       id="text22"
       class="number-shadow"
       style="font-weight:bold;font-size:7px;font-family:Arial, sans-serif;dominant-baseline:middle;text-anchor:middle;opacity:0.49;fill:#0a0a0a"
       aria-label="8" />
    <path
       d="m 83.584524,56.40588 q 0.264658,-0.305738 0.577524,-0.383776 0.315058,-0.07373 0.627124,0.02767 0.533112,0.173218 0.760527,0.65681 0.226359,0.486844 0.0035,1.172737 -0.220748,0.679393 -0.690036,0.940206 -0.470343,0.264064 -1.003455,0.09085 -0.331569,-0.107733 -0.535645,-0.364516 -0.200824,-0.255727 -0.235957,-0.612153 -0.288141,0.344829 -0.660247,0.450338 -0.373161,0.10876 -0.772995,-0.02115 -0.659888,-0.214411 -0.935418,-0.771138 -0.276585,-0.553477 -0.0495,-1.252373 0.211242,-0.650137 0.69304,-0.971575 0.56891,-0.379387 1.271058,-0.151246 0.38683,0.125689 0.646332,0.422044 0.262751,0.297411 0.304149,0.767283 z m 0.858683,0.487448 q -0.273057,-0.08872 -0.475482,0.01442 -0.203479,0.106391 -0.28692,0.363195 -0.0845,0.260055 0.01759,0.465729 0.105335,0.206731 0.378392,0.295453 0.256804,0.08344 0.460284,-0.02295 0.205675,-0.102083 0.288059,-0.355637 0.08555,-0.263305 -0.01978,-0.470036 -0.105334,-0.20673 -0.362138,-0.290171 z m -2.013966,-0.74782 q -0.377079,-0.122521 -0.65069,6.16e-4 -0.274667,0.126387 -0.36867,0.415698 -0.09189,0.282809 0.04945,0.533583 0.144589,0.25183 0.52817,0.376463 0.33482,0.10879 0.597623,-0.01426 0.266053,-0.121999 0.360056,-0.41131 0.108789,-0.33482 -0.06814,-0.575595 -0.177988,-0.237526 -0.447794,-0.325191 z"
       id="text23"
       class="number-main"
       style="font-weight:bold;font-size:7px;font-family:Arial, sans-serif;dominant-baseline:middle;text-anchor:middle;opacity:0.5625;fill:#cdc9b5"
       aria-label="8" />
    <path
       d="m 82.918784,56.189568 q 0.264658,-0.305738 0.577523,-0.383776 0.31506,-0.07373 0.627125,0.02767 0.533112,0.173218 0.760527,0.65681 0.226358,0.486843 0.0035,1.172737 -0.220748,0.679393 -0.690035,0.940206 -0.470343,0.264064 -1.003455,0.09085 -0.331569,-0.107734 -0.535645,-0.364516 -0.200825,-0.255727 -0.235957,-0.612153 -0.288141,0.344829 -0.660246,0.450338 -0.373162,0.10876 -0.772996,-0.02115 -0.659888,-0.214411 -0.935417,-0.771138 -0.276585,-0.553477 -0.0495,-1.252373 0.211242,-0.650137 0.693039,-0.971576 0.568909,-0.379386 1.271057,-0.151245 0.386831,0.125689 0.646332,0.422044 0.262752,0.297411 0.30415,0.767283 z m 0.858682,0.487448 q -0.273057,-0.08872 -0.475481,0.01442 -0.20348,0.106391 -0.28692,0.363195 -0.0845,0.260055 0.01759,0.465728 0.105335,0.206732 0.378392,0.295453 0.256804,0.08344 0.460284,-0.02295 0.205675,-0.102083 0.28806,-0.355637 0.08555,-0.263305 -0.01978,-0.470036 -0.105335,-0.20673 -0.362139,-0.290171 z m -2.013965,-0.747821 q -0.377079,-0.12252 -0.65069,6.17e-4 -0.274667,0.126387 -0.36867,0.415698 -0.09189,0.282809 0.04945,0.533583 0.144588,0.25183 0.528168,0.376463 0.334821,0.10879 0.597623,-0.01426 0.266053,-0.121999 0.360056,-0.41131 0.10879,-0.33482 -0.06814,-0.575596 -0.177988,-0.237525 -0.447794,-0.325191 z"
       id="text24"
       class="number-highlight"
       style="font-weight:bold;font-size:7px;font-family:Arial, sans-serif;dominant-baseline:middle;text-anchor:middle;opacity:0.25;fill:#dbd8c8"
       aria-label="8" />
    <!-- 9 at 2 o'clock (72° counter-rotation) -->
    <path
       d="m 82.022596,29.353836 0.384809,0.852499 q -0.259245,0.120172 -0.344911,0.29895 -0.08567,0.178776 -0.01279,0.403073 0.09189,0.28281 0.416374,0.396605 0.324483,0.113794 1.16161,-0.09711 -0.511792,-0.214659 -0.679729,-0.731517 -0.182724,-0.562368 0.116534,-1.11243 0.303565,-0.547867 0.999211,-0.773896 0.724902,-0.235535 1.306414,0.04991 0.585819,0.287639 0.802342,0.954029 0.235535,0.724902 -0.175794,1.372474 -0.40808,0.646515 -1.692099,1.063718 -1.306774,0.424597 -2.04277,0.128251 -0.735997,-0.296347 -0.988431,-1.073259 -0.181669,-0.559117 0.0022,-0.999804 0.187104,-0.441744 0.747043,-0.731495 z m 2.667668,1.41892 q 0.442092,-0.143644 0.619352,-0.427653 0.178317,-0.280758 0.09171,-0.547315 -0.08238,-0.253552 -0.338849,-0.357103 -0.25216,-0.101355 -0.707254,0.04651 -0.461598,0.149982 -0.620246,0.402786 -0.155397,0.251749 -0.06667,0.524806 0.08555,0.263304 0.351688,0.374495 0.267192,0.114441 0.670277,-0.01653 z"
       id="text25"
       class="number-shadow"
       style="font-weight:bold;font-size:7px;font-family:Arial, sans-serif;dominant-baseline:middle;text-anchor:middle;opacity:0.49;fill:#0a0a0a"
       aria-label="9" />
    <path
       d="m 81.356855,29.570148 0.38481,0.852499 q -0.259244,0.120172 -0.344911,0.29895 -0.08567,0.178776 -0.01279,0.403073 0.09189,0.28281 0.416374,0.396605 0.324483,0.113795 1.16161,-0.09711 -0.511792,-0.214659 -0.67973,-0.731517 -0.182724,-0.562368 0.116534,-1.112429 0.303566,-0.547868 0.999211,-0.773897 0.724902,-0.235535 1.306415,0.04991 0.585819,0.287639 0.802342,0.954029 0.235535,0.724902 -0.175795,1.372474 -0.408079,0.646515 -1.692098,1.063718 -1.306774,0.424597 -2.04277,0.128251 -0.735998,-0.296346 -0.988432,-1.073259 -0.181668,-0.559117 0.0022,-0.999804 0.187105,-0.441744 0.747042,-0.731495 z m 2.667668,1.41892 q 0.442093,-0.143644 0.619353,-0.427653 0.178316,-0.280758 0.09171,-0.547314 -0.08239,-0.253553 -0.33885,-0.357104 -0.252158,-0.101355 -0.707254,0.04651 -0.461596,0.149982 -0.620244,0.402786 -0.155397,0.251749 -0.06668,0.524806 0.08555,0.263304 0.351689,0.374495 0.267191,0.11444 0.670275,-0.01653 z"
       id="text26"
       class="number-main"
       style="font-weight:bold;font-size:7px;font-family:Arial, sans-serif;dominant-baseline:middle;text-anchor:middle;opacity:0.5625;fill:#cdc9b5"
       aria-label="9" />
    <path
       d="m 80.691115,29.786461 0.384809,0.852498 q -0.259244,0.120173 -0.344911,0.29895 -0.08567,0.178776 -0.01279,0.403074 0.09189,0.28281 0.416374,0.396604 0.324483,0.113795 1.161611,-0.09711 -0.511793,-0.214659 -0.67973,-0.731517 -0.182724,-0.562367 0.116534,-1.112429 0.303565,-0.547867 0.999211,-0.773896 0.724902,-0.235535 1.306414,0.04991 0.58582,0.287639 0.802343,0.954029 0.235535,0.724902 -0.175795,1.372474 -0.408079,0.646515 -1.692098,1.063719 -1.306774,0.424596 -2.042771,0.12825 -0.735996,-0.296346 -0.988431,-1.073259 -0.181668,-0.559117 0.0022,-0.999804 0.187104,-0.441744 0.747042,-0.731494 z m 2.667668,1.41892 q 0.442093,-0.143645 0.619352,-0.427654 0.178316,-0.280758 0.09171,-0.547314 -0.08238,-0.253553 -0.33885,-0.357104 -0.252158,-0.101355 -0.707253,0.04651 -0.461597,0.149982 -0.620245,0.402786 -0.155397,0.251749 -0.06667,0.524806 0.08555,0.263304 0.351688,0.374495 0.267192,0.114441 0.670276,-0.01653 z"
       id="text27"
       class="number-highlight"
       style="font-weight:bold;font-size:7px;font-family:Arial, sans-serif;dominant-baseline:middle;text-anchor:middle;opacity:0.25;fill:#dbd8c8"
       aria-label="9" />
    <!-- 10 at 1 o'clock (36° counter-rotation) -->
    <path
       d="m 64.908113,11.349305 -0.77702,-0.564538 2.127564,-2.9283402 q -0.71514,0.088797 -1.43169,-0.1402925 L 65.33927,7.0110096 q 0.376497,0.1214467 0.934111,0.1040922 0.559622,-0.02012 0.961562,-0.2942228 l 0.630464,0.4580593 z m 5.432143,-2.2722834 q 0.588987,0.4279241 0.615437,1.0893184 0.0338,0.785026 -0.803968,1.938112 -0.835757,1.150321 -1.599589,1.364286 -0.630413,0.175705 -1.2194,-0.252219 -0.591752,-0.429933 -0.624511,-1.146608 -0.03075,-0.71944 0.817061,-1.886353 0.831739,-1.1447904 1.595571,-1.3587547 0.630413,-0.1757052 1.219399,0.2522183 z m -0.468104,0.6442906 q -0.141025,-0.1024603 -0.317931,-0.09157 -0.174897,0.00812 -0.404489,0.1962024 -0.299175,0.2431457 -0.817505,0.9565657 -0.51833,0.71342 -0.641309,1.033881 -0.12097,0.317695 -0.07742,0.484532 0.04632,0.168847 0.187343,0.271308 0.141026,0.102461 0.315923,0.09434 0.176905,-0.01089 0.406498,-0.198968 0.297166,-0.24038 0.815496,-0.9538 0.51833,-0.713421 0.6393,-1.031116 0.122979,-0.32046 0.07666,-0.489306 -0.04154,-0.1696038 -0.18257,-0.2720648 z"
       id="text28"
       class="number-shadow"
       style="font-weight:bold;font-size:7px;font-family:Arial, sans-serif;dominant-baseline:middle;text-anchor:middle;opacity:0.49;fill:#0a0a0a"
       aria-label="10" />
    <path
       d="M 64.496662,11.915618 63.719643,11.35108 65.847207,8.4227387 q -0.71514,0.088798 -1.43169,-0.1402917 L 64.92782,7.5773223 q 0.376497,0.1214467 0.934111,0.1040922 0.559622,-0.02012 0.961561,-0.2942227 l 0.630465,0.4580592 z m 5.432144,-2.2722837 q 0.588987,0.4279237 0.615438,1.0893167 0.0338,0.785028 -0.803969,1.938114 -0.835757,1.150321 -1.59959,1.364286 -0.630412,0.175704 -1.219399,-0.25222 -0.591751,-0.429933 -0.624511,-1.146607 -0.03075,-0.719441 0.817061,-1.886353 0.831739,-1.1447907 1.595571,-1.3587558 0.630413,-0.1757044 1.219399,0.2522191 z m -0.468104,0.6442907 q -0.141025,-0.10246 -0.317931,-0.09157 -0.174897,0.0081 -0.40449,0.196202 -0.299174,0.243145 -0.817504,0.956566 -0.51833,0.71342 -0.641309,1.03388 -0.12097,0.317695 -0.07742,0.484532 0.04632,0.168848 0.187343,0.271308 0.141026,0.102461 0.315923,0.09434 0.176905,-0.01089 0.406499,-0.198968 0.297164,-0.240379 0.815495,-0.9538 0.51833,-0.71342 0.6393,-1.031115 0.122978,-0.32046 0.07666,-0.489306 -0.04154,-0.169604 -0.18257,-0.272065 z"
       id="text29"
       class="number-main"
       style="font-weight:bold;font-size:7px;font-family:Arial, sans-serif;dominant-baseline:middle;text-anchor:middle;opacity:0.5625;fill:#cdc9b5"
       aria-label="10" />
    <path
       d="m 64.085213,12.481929 -0.777019,-0.564538 2.127564,-2.9283413 q -0.715141,0.088798 -1.431689,-0.1402924 l 0.512303,-0.7051247 q 0.376496,0.1214475 0.934109,0.104093 0.559623,-0.02012 0.961562,-0.2942228 l 0.630465,0.4580593 z m 5.432144,-2.272284 q 0.588987,0.427925 0.615438,1.089318 0.0338,0.785027 -0.803969,1.938113 -0.835758,1.150321 -1.59959,1.364286 -0.630412,0.175704 -1.219399,-0.25222 -0.591752,-0.429933 -0.624511,-1.146608 -0.03075,-0.71944 0.817061,-1.886352 0.831739,-1.144791 1.595571,-1.3587558 0.630413,-0.1757043 1.219399,0.2522188 z m -0.468104,0.644291 q -0.141025,-0.10246 -0.317931,-0.09157 -0.174897,0.0081 -0.40449,0.196202 -0.299174,0.243145 -0.817504,0.956566 -0.51833,0.71342 -0.641309,1.03388 -0.12097,0.317696 -0.07742,0.484532 0.04632,0.168848 0.187344,0.271308 0.141025,0.102461 0.315922,0.09434 0.176906,-0.01089 0.4065,-0.198969 0.297164,-0.240379 0.815495,-0.953799 0.51833,-0.713421 0.639299,-1.031116 0.122979,-0.32046 0.07666,-0.489306 -0.04154,-0.169604 -0.18257,-0.272065 z"
       id="text30"
       class="number-highlight"
       style="font-weight:bold;font-size:7px;font-family:Arial, sans-serif;dominant-baseline:middle;text-anchor:middle;opacity:0.25;fill:#dbd8c8"
       aria-label="10" />
  </g>
</svg>
