<svg width="30mm" height="30mm" viewBox="0 0 58 58" xmlns="http://www.w3.org/2000/svg">
  <!-- Tick marks around the circumference like clock positions -->
  <g stroke="#ffffff" stroke-width="1.2" stroke-linecap="round" opacity="0.6">
    <!-- 12 o'clock -->
    <line x1="29" y1="6.6" x2="29" y2="9.1" transform="rotate(0 29 29)"/>
    <!-- 1 o'clock -->
    <line x1="29" y1="6.6" x2="29" y2="9.1" transform="rotate(30 29 29)"/>
    <!-- 2 o'clock -->
    <line x1="29" y1="6.6" x2="29" y2="9.1" transform="rotate(60 29 29)"/>
    <!-- 3 o'clock -->
    <line x1="29" y1="6.6" x2="29" y2="9.1" transform="rotate(90 29 29)"/>
    <!-- 4 o'clock -->
    <line x1="29" y1="6.6" x2="29" y2="9.1" transform="rotate(120 29 29)"/>
    <!-- 5 o'clock -->
    <line x1="29" y1="6.6" x2="29" y2="9.1" transform="rotate(150 29 29)"/>
    <!-- 6 o'clock -->
    <line x1="29" y1="6.6" x2="29" y2="9.1" transform="rotate(180 29 29)"/>
    <!-- 7 o'clock -->
    <line x1="29" y1="6.6" x2="29" y2="9.1" transform="rotate(210 29 29)"/>
    <!-- 8 o'clock -->
    <line x1="29" y1="6.6" x2="29" y2="9.1" transform="rotate(240 29 29)"/>
    <!-- 9 o'clock -->
    <line x1="29" y1="6.6" x2="29" y2="9.1" transform="rotate(270 29 29)"/>
    <!-- 10 o'clock -->
    <line x1="29" y1="6.6" x2="29" y2="9.1" transform="rotate(300 29 29)"/>
    <!-- 11 o'clock -->
    <line x1="29" y1="6.6" x2="29" y2="9.1" transform="rotate(330 29 29)"/>
  </g>
  
  <!-- Main white indicator line (rotates with knob) -->
  <line x1="29" y1="7.4" x2="29" y2="18" stroke="#ffffff" stroke-width="3.4" stroke-linecap="round"/>
</svg>
