<svg width="16mm" height="16mm" viewBox="0 0 30 30" xmlns="http://www.w3.org/2000/svg">
  <!-- Tick marks around the circumference like clock positions -->
  <g stroke="#ffffff" stroke-width="0.67" stroke-linecap="round" opacity="0.6">
    <!-- 12 o'clock -->
    <line x1="15" y1="3.6" x2="15" y2="5.0" transform="rotate(0 15 15)"/>
    <!-- 1 o'clock -->
    <line x1="15" y1="3.6" x2="15" y2="5.0" transform="rotate(30 15 15)"/>
    <!-- 2 o'clock -->
    <line x1="15" y1="3.6" x2="15" y2="5.0" transform="rotate(60 15 15)"/>
    <!-- 3 o'clock -->
    <line x1="15" y1="3.6" x2="15" y2="5.0" transform="rotate(90 15 15)"/>
    <!-- 4 o'clock -->
    <line x1="15" y1="3.6" x2="15" y2="5.0" transform="rotate(120 15 15)"/>
    <!-- 5 o'clock -->
    <line x1="15" y1="3.6" x2="15" y2="5.0" transform="rotate(150 15 15)"/>
    <!-- 6 o'clock -->
    <line x1="15" y1="3.6" x2="15" y2="5.0" transform="rotate(180 15 15)"/>
    <!-- 7 o'clock -->
    <line x1="15" y1="3.6" x2="15" y2="5.0" transform="rotate(210 15 15)"/>
    <!-- 8 o'clock -->
    <line x1="15" y1="3.6" x2="15" y2="5.0" transform="rotate(240 15 15)"/>
    <!-- 9 o'clock -->
    <line x1="15" y1="3.6" x2="15" y2="5.0" transform="rotate(270 15 15)"/>
    <!-- 10 o'clock -->
    <line x1="15" y1="3.6" x2="15" y2="5.0" transform="rotate(300 15 15)"/>
    <!-- 11 o'clock -->
    <line x1="15" y1="3.6" x2="15" y2="5.0" transform="rotate(330 15 15)"/>
  </g>
  
  <!-- Main white indicator line (rotates with knob) -->
  <line x1="15" y1="4.4" x2="15" y2="10" stroke="#ffffff" stroke-width="1.8" stroke-linecap="round"/>
</svg>
