<svg width="18" height="18" viewBox="0 0 18 18" xmlns="http://www.w3.org/2000/svg">
  <!-- Tick marks around the circumference like clock positions -->
  <g stroke="#ffffff" stroke-width="0.4" stroke-linecap="round" opacity="0.6">
    <!-- 12 o'clock -->
    <line x1="9" y1="1.5" x2="9" y2="2.3" transform="rotate(0 9 9)"/>
    <!-- 1 o'clock -->
    <line x1="9" y1="1.5" x2="9" y2="2.3" transform="rotate(30 9 9)"/>
    <!-- 2 o'clock -->
    <line x1="9" y1="1.5" x2="9" y2="2.3" transform="rotate(60 9 9)"/>
    <!-- 3 o'clock -->
    <line x1="9" y1="1.5" x2="9" y2="2.3" transform="rotate(90 9 9)"/>
    <!-- 4 o'clock -->
    <line x1="9" y1="1.5" x2="9" y2="2.3" transform="rotate(120 9 9)"/>
    <!-- 5 o'clock -->
    <line x1="9" y1="1.5" x2="9" y2="2.3" transform="rotate(150 9 9)"/>
    <!-- 6 o'clock -->
    <line x1="9" y1="1.5" x2="9" y2="2.3" transform="rotate(180 9 9)"/>
    <!-- 7 o'clock -->
    <line x1="9" y1="1.5" x2="9" y2="2.3" transform="rotate(210 9 9)"/>
    <!-- 8 o'clock -->
    <line x1="9" y1="1.5" x2="9" y2="2.3" transform="rotate(240 9 9)"/>
    <!-- 9 o'clock -->
    <line x1="9" y1="1.5" x2="9" y2="2.3" transform="rotate(270 9 9)"/>
    <!-- 10 o'clock -->
    <line x1="9" y1="1.5" x2="9" y2="2.3" transform="rotate(300 9 9)"/>
    <!-- 11 o'clock -->
    <line x1="9" y1="1.5" x2="9" y2="2.3" transform="rotate(330 9 9)"/>
  </g>
  
  <!-- Main white indicator line (rotates with knob) -->
  <line x1="9" y1="2" x2="9" y2="6" stroke="#ffffff" stroke-width="1.1" stroke-linecap="round"/>
</svg>