<svg width="24" height="24" viewBox="0 0 24 24" xmlns="http://www.w3.org/2000/svg">
  <!-- Hexagonal drop shadow -->
  <polygon points="12,3 20.5,7.5 20.5,16.5 12,21 3.5,16.5 3.5,7.5" fill="#000000" opacity="0.25" transform="translate(0.2,0.2)"/>
  
  <!-- Base hexagonal knob - lighter base than regular knobs -->
  <polygon points="12,2.5 21,7.25 21,16.75 12,21.5 3,16.75 3,7.25" fill="#2a2a2a"/>
  
  <!-- Hexagonal gradient layers - lighter and more metallic -->
  <polygon points="12,3 20.5,7.5 20.5,16.5 12,21 3.5,16.5 3.5,7.5" fill="#3a3a3a" opacity="0.95"/>
  <polygon points="12,3.3 20.2,7.6 20.2,16.4 12,20.7 3.8,16.4 3.8,7.6" fill="#3d3d3d" opacity="0.9"/>
  <polygon points="12,3.6 19.9,7.7 19.9,16.3 12,20.4 4.1,16.3 4.1,7.7" fill="#404040" opacity="0.85"/>
  <polygon points="12,3.9 19.6,7.8 19.6,16.2 12,20.1 4.4,16.2 4.4,7.8" fill="#434343" opacity="0.8"/>
  <polygon points="12,4.2 19.3,7.9 19.3,16.1 12,19.8 4.7,16.1 4.7,7.9" fill="#464646" opacity="0.75"/>
  <polygon points="12,4.5 19.0,8.0 19.0,16.0 12,19.5 5.0,16.0 5.0,8.0" fill="#494949" opacity="0.7"/>
  <polygon points="12,4.8 18.7,8.1 18.7,15.9 12,19.2 5.3,15.9 5.3,8.1" fill="#4c4c4c" opacity="0.65"/>
  <polygon points="12,5.1 18.4,8.2 18.4,15.8 12,18.9 5.6,15.8 5.6,8.2" fill="#4f4f4f" opacity="0.6"/>
  <polygon points="12,5.4 18.1,8.3 18.1,15.7 12,18.6 5.9,15.7 5.9,8.3" fill="#525252" opacity="0.55"/>
  <polygon points="12,5.7 17.8,8.4 17.8,15.6 12,18.3 6.2,15.6 6.2,8.4" fill="#555555" opacity="0.5"/>
  <polygon points="12,6.0 17.5,8.5 17.5,15.5 12,18.0 6.5,15.5 6.5,8.5" fill="#585858" opacity="0.45"/>
  
  <!-- Clean concentric hexagonal ring -->
  <polygon points="12,7.5 16.5,9.75 16.5,14.25 12,16.5 7.5,14.25 7.5,9.75" fill="none" stroke="#777777" stroke-width="0.06" opacity="0.2"/>
  
  <!-- Hexagonal rim -->
  <polygon points="12,2.5 21,7.25 21,16.75 12,21.5 3,16.75 3,7.25" fill="none" stroke="#6a6a6a" stroke-width="0.15" opacity="0.6"/>
  <polygon points="12,3.3 20.2,7.6 20.2,16.4 12,20.7 3.8,16.4 3.8,7.6" fill="none" stroke="#2a2a2a" stroke-width="0.1"/>
  
  <!-- Subtle teal accent on one hexagon edge -->
  <line x1="12" y1="2.5" x2="21" y2="7.25" stroke="#00a080" stroke-width="0.15" opacity="0.3"/>
  
  <!-- Hexagonal tick marks on the knob edge -->
  <g stroke="#ffffff" stroke-width="0.5" stroke-linecap="round" opacity="0.8">
    <!-- Minor ticks around the hexagon edges -->
    <line x1="12" y1="3.2" x2="12" y2="4.2" transform="rotate(60 12 12)"/>
    <line x1="12" y1="3.2" x2="12" y2="4.2" transform="rotate(120 12 12)"/>
    <line x1="12" y1="3.2" x2="12" y2="4.2" transform="rotate(180 12 12)"/>
    <line x1="12" y1="3.2" x2="12" y2="4.2" transform="rotate(240 12 12)"/>
    <line x1="12" y1="3.2" x2="12" y2="4.2" transform="rotate(300 12 12)"/>
  </g>
  
  <!-- Define gradient for highlight -->
  <defs>
    <radialGradient id="highlight" cx="0.3" cy="0.3" r="0.7">
      <stop offset="0%" stop-color="#ffffff" stop-opacity="0.25"/>
      <stop offset="70%" stop-color="#ffffff" stop-opacity="0.08"/>
      <stop offset="100%" stop-color="#ffffff" stop-opacity="0"/>
    </radialGradient>
  </defs>
  
  <!-- Natural highlight positioned at upper left for 3D effect -->
  <polygon points="8,5 14,5 16,8 14,12 8,12 6,8" fill="url(#highlight)" transform="rotate(-15 10 8.5)"/>
  
  <!-- Center detent indicator (smaller teal dot at center) -->
  <circle cx="12" cy="12" r="0.8" fill="#00ffcc" opacity="0.9"/>
  
  <!-- Main indicator pointer - clean white line from inside edge to center -->
  <line x1="12" y1="3.5" x2="12" y2="9" stroke="#ffffff" stroke-width="1.8" stroke-linecap="round"/>
</svg>