<svg width="38" height="38" viewBox="0 0 38 38" xmlns="http://www.w3.org/2000/svg">
  <!-- Tick marks around the circumference like clock positions -->
  <g stroke="#ffffff" stroke-width="0.8" stroke-linecap="round" opacity="0.6">
    <!-- 12 o'clock -->
    <line x1="19" y1="3.5" x2="19" y2="4.8" transform="rotate(0 19 19)"/>
    <!-- 1 o'clock -->
    <line x1="19" y1="3.5" x2="19" y2="4.8" transform="rotate(30 19 19)"/>
    <!-- 2 o'clock -->
    <line x1="19" y1="3.5" x2="19" y2="4.8" transform="rotate(60 19 19)"/>
    <!-- 3 o'clock -->
    <line x1="19" y1="3.5" x2="19" y2="4.8" transform="rotate(90 19 19)"/>
    <!-- 4 o'clock -->
    <line x1="19" y1="3.5" x2="19" y2="4.8" transform="rotate(120 19 19)"/>
    <!-- 5 o'clock -->
    <line x1="19" y1="3.5" x2="19" y2="4.8" transform="rotate(150 19 19)"/>
    <!-- 6 o'clock -->
    <line x1="19" y1="3.5" x2="19" y2="4.8" transform="rotate(180 19 19)"/>
    <!-- 7 o'clock -->
    <line x1="19" y1="3.5" x2="19" y2="4.8" transform="rotate(210 19 19)"/>
    <!-- 8 o'clock -->
    <line x1="19" y1="3.5" x2="19" y2="4.8" transform="rotate(240 19 19)"/>
    <!-- 9 o'clock -->
    <line x1="19" y1="3.5" x2="19" y2="4.8" transform="rotate(270 19 19)"/>
    <!-- 10 o'clock -->
    <line x1="19" y1="3.5" x2="19" y2="4.8" transform="rotate(300 19 19)"/>
    <!-- 11 o'clock -->
    <line x1="19" y1="3.5" x2="19" y2="4.8" transform="rotate(330 19 19)"/>
  </g>
  
  <!-- Main white indicator line (rotates with knob) -->
  <line x1="19" y1="4.5" x2="19" y2="12" stroke="#ffffff" stroke-width="2.2" stroke-linecap="round"/>
</svg>