<svg width="16mm" height="16mm" viewBox="0 0 60 60" xmlns="http://www.w3.org/2000/svg">
  <!-- Hexagonal drop shadow -->
  <polygon points="30,7.6 51.4,18.9 51.4,41.1 30,52.4 8.6,41.1 8.6,18.9" fill="#000000" opacity="0.25" transform="translate(0.5,0.5)"/>
  
  <!-- Base hexagonal knob - lighter base than regular knobs -->
  <polygon points="30,6.2 52.3,18.2 52.3,41.8 30,53.8 7.7,41.8 7.7,18.2" fill="#2a2a2a"/>
  
  <!-- Hexagonal gradient layers - lighter and more metallic -->
  <polygon points="30,7.6 51.4,18.9 51.4,41.1 30,52.4 8.6,41.1 8.6,18.9" fill="#3a3a3a" opacity="0.95"/>
  <polygon points="30,8.2 50.6,19.0 50.6,41.0 30,51.8 9.4,41.0 9.4,19.0" fill="#3d3d3d" opacity="0.9"/>
  <polygon points="20.6,6.2 34.1,13.2 34.1,27.9 20.6,35.0 7.0,27.9 7.0,13.2" fill="#404040" opacity="0.85"/>
  <polygon points="20.6,6.7 33.6,13.4 33.6,27.7 20.6,34.4 7.5,27.7 7.5,13.4" fill="#434343" opacity="0.8"/>
  <polygon points="20.6,7.2 33.1,13.6 33.1,27.5 20.6,33.8 8.1,27.5 8.1,13.6" fill="#464646" opacity="0.75"/>
  <polygon points="20.6,7.7 32.6,13.7 32.6,27.4 20.6,33.4 8.6,27.4 8.6,13.7" fill="#494949" opacity="0.7"/>
  <polygon points="20.6,8.2 32.1,13.9 32.1,27.2 20.6,32.9 9.1,27.2 9.1,13.9" fill="#4c4c4c" opacity="0.65"/>
  <polygon points="20.6,8.7 31.5,14.1 31.5,27.1 20.6,32.4 9.7,27.1 9.7,14.1" fill="#4f4f4f" opacity="0.6"/>
  <polygon points="20.6,9.2 31.0,14.2 31.0,26.9 20.6,31.9 10.2,26.9 10.2,14.2" fill="#525252" opacity="0.55"/>
  <polygon points="20.6,9.8 30.5,14.4 30.5,26.7 20.6,31.5 10.7,26.7 10.7,14.4" fill="#555555" opacity="0.5"/>
  <polygon points="20.6,10.3 30.0,14.6 30.0,26.6 20.6,31.0 11.2,26.6 11.2,14.6" fill="#585858" opacity="0.45"/>
  
  <!-- Clean concentric hexagonal ring -->
  <polygon points="20.6,12.9 28.3,16.7 28.3,24.4 20.6,28.3 12.9,24.4 12.9,16.7" fill="none" stroke="#777777" stroke-width="0.1" opacity="0.2"/>
  
  <!-- Hexagonal rim -->
  <polygon points="20.6,4.3 36.0,12.4 36.0,28.7 20.6,36.9 5.1,28.7 5.1,12.4" fill="none" stroke="#6a6a6a" stroke-width="0.26" opacity="0.6"/>
  <polygon points="20.6,5.7 34.6,13.0 34.6,28.1 20.6,35.4 6.5,28.1 6.5,13.0" fill="none" stroke="#2a2a2a" stroke-width="0.17"/>
  
  <!-- Subtle teal accent on one hexagon edge -->
  <line x1="20.6" y1="4.3" x2="36.0" y2="12.4" stroke="#00a080" stroke-width="0.26" opacity="0.3"/>
  
  <!-- Hexagonal tick marks on the knob edge -->
  <g stroke="#ffffff" stroke-width="0.86" stroke-linecap="round" opacity="0.8">
    <!-- Minor ticks around the hexagon edges -->
    <line x1="20.6" y1="6.7" x2="20.6" y2="8.7" transform="rotate(60 20.6 20.6)"/>
    <line x1="20.6" y1="6.7" x2="20.6" y2="8.7" transform="rotate(120 20.6 20.6)"/>
    <line x1="20.6" y1="6.7" x2="20.6" y2="8.7" transform="rotate(180 20.6 20.6)"/>
    <line x1="20.6" y1="6.7" x2="20.6" y2="8.7" transform="rotate(240 20.6 20.6)"/>
    <line x1="20.6" y1="6.7" x2="20.6" y2="8.7" transform="rotate(300 20.6 20.6)"/>
  </g>
  
  <!-- Define gradient for highlight -->
  <defs>
    <radialGradient id="highlight" cx="0.3" cy="0.3" r="0.7">
      <stop offset="0%" stop-color="#ffffff" stop-opacity="0.25"/>
      <stop offset="70%" stop-color="#ffffff" stop-opacity="0.08"/>
      <stop offset="100%" stop-color="#ffffff" stop-opacity="0"/>
    </radialGradient>
  </defs>
  
  <!-- Natural highlight positioned at upper left for 3D effect -->
  <polygon points="13.7,8.6 24.0,8.6 27.4,13.7 24.0,20.6 13.7,20.6 10.3,13.7" fill="url(#highlight)" transform="rotate(-15 17.1 14.6)"/>
  
  <!-- Center detent indicator (smaller teal dot at center) -->
  <circle cx="20.6" cy="20.6" r="1.37" fill="#00ffcc" opacity="0.9"/>
  
  <!-- Main indicator pointer - clean white line from inside edge to center -->
  <line x1="20.6" y1="7.2" x2="20.6" y2="15.4" stroke="#ffffff" stroke-width="3.1" stroke-linecap="round"/>
</svg>
