<?xml version="1.0" encoding="UTF-8" standalone="no"?>
<!-- Created with Inkscape (http://www.inkscape.org/) -->

<svg
   width="54"
   height="54"
   viewBox="0 0 14.2875 14.2875"
   version="1.1"
   id="svg1"
   xml:space="preserve"
   inkscape:version="1.4.3 (0d15f75, 2025-12-25)"
   sodipodi:docname="vintage_knob_rotate.svg"
   xmlns:inkscape="http://www.inkscape.org/namespaces/inkscape"
   xmlns:sodipodi="http://sodipodi.sourceforge.net/DTD/sodipodi-0.dtd"
   xmlns="http://www.w3.org/2000/svg"
   xmlns:svg="http://www.w3.org/2000/svg"><sodipodi:namedview
     id="namedview1"
     pagecolor="#505050"
     bordercolor="#eeeeee"
     borderopacity="1"
     inkscape:showpageshadow="0"
     inkscape:pageopacity="0"
     inkscape:pagecheckerboard="0"
     inkscape:deskcolor="#505050"
     inkscape:document-units="mm"
     inkscape:zoom="71.241795"
     inkscape:cx="25.80648"
     inkscape:cy="2.9406895"
     inkscape:window-width="1800"
     inkscape:window-height="1101"
     inkscape:window-x="0"
     inkscape:window-y="40"
     inkscape:window-maximized="1"
     inkscape:current-layer="svg1" /><defs
     id="defs1"><filter
       inkscape:collect="always"
       style="color-interpolation-filters:sRGB"
       id="filter66"
       x="-0.014756083"
       y="-0.014965347"
       width="1.0295122"
       height="1.0299307"><feGaussianBlur
         inkscape:collect="always"
         stdDeviation="0.013572341"
         id="feGaussianBlur66" /></filter><filter
       inkscape:collect="always"
       style="color-interpolation-filters:sRGB"
       id="filter67"
       x="-0.0097859561"
       y="-0.0097859558"
       width="1.0195719"
       height="1.0195719"><feGaussianBlur
         inkscape:collect="always"
         stdDeviation="0.01319591"
         id="feGaussianBlur67" /></filter><filter
       inkscape:collect="always"
       style="color-interpolation-filters:sRGB"
       id="filter68"
       x="-0.0041319698"
       y="-0.0041319697"
       width="1.0082639"
       height="1.0082639"><feGaussianBlur
         inkscape:collect="always"
         stdDeviation="0.016196332"
         id="feGaussianBlur68" /></filter><filter
       inkscape:collect="always"
       style="color-interpolation-filters:sRGB"
       id="filter2"
       x="-0.020982411"
       y="-0.01034086"
       width="1.0419648"
       height="1.0206828"><feGaussianBlur
         inkscape:collect="always"
         stdDeviation="0.003785412"
         id="feGaussianBlur2" /></filter><filter
       inkscape:collect="always"
       style="color-interpolation-filters:sRGB"
       id="filter1"
       x="-0.0023759445"
       y="-0.0023755517"
       width="1.0047454"
       height="1.0045888"><feGaussianBlur
         inkscape:collect="always"
         stdDeviation="0.0036136202"
         id="feGaussianBlur1" /></filter></defs><path
     id="path62-4"
     style="display:inline;mix-blend-mode:normal;fill:#33322b;fill-opacity:0.682415;fill-rule:evenodd;stroke:#1d1d1d;stroke-width:0.1;stroke-linecap:round;stroke-linejoin:round;stroke-dasharray:none;stroke-opacity:0.983803;paint-order:fill markers stroke;filter:url(#filter67)"
     d="M 7.1437501,2.9709238 A 4.1726858,4.1726858 0 0 0 2.970924,7.1437499 4.1726858,4.1726858 0 0 0 7.1437501,11.316576 4.1726858,4.1726858 0 0 0 11.316576,7.1437499 4.1726858,4.1726858 0 0 0 7.1437501,2.9709238 Z m 0,0.5017532 A 3.6711472,3.6711472 0 0 1 10.814822,7.1437499 3.6711472,3.6711472 0 0 1 7.1437501,10.814822 3.6711472,3.6711472 0 0 1 3.4726771,7.1437499 3.6711472,3.6711472 0 0 1 7.1437501,3.472677 Z" /><path
     style="display:inline;opacity:1;fill:#000000;fill-opacity:1;fill-rule:evenodd;stroke:#606060;stroke-width:0;stroke-linecap:round;stroke-linejoin:round;stroke-dasharray:none;stroke-opacity:1;paint-order:fill markers stroke"
     d=""
     id="path128"
     transform="scale(0.26458333)" /><ellipse
     style="display:inline;fill:#282720;fill-opacity:0.682415;fill-rule:evenodd;stroke:#2e2e2e;stroke-width:0.134486;stroke-linecap:round;stroke-linejoin:round;stroke-dasharray:none;stroke-opacity:1;paint-order:fill markers stroke;filter:url(#filter66)"
     id="path120"
     cx="7.1608834"
     cy="7.145123"
     rx="3.3822193"
     ry="3.3349249"
     transform="matrix(0.98883126,0,0,0.98907273,0.07997802,0.07807676)" /><path
     style="display:inline;fill:#33322b;fill-opacity:0.682415;fill-rule:evenodd;stroke:none;stroke-width:0.004;stroke-linecap:round;stroke-linejoin:round;stroke-dasharray:none;stroke-opacity:1;paint-order:fill markers stroke"
     d="M 6.6947221,12.598697 C 6.5864795,12.208795 6.3492927,11.929842 6.0310124,11.818113 5.679744,11.694804 5.0901564,11.780059 4.6033013,12.024562 c -0.078283,0.03931 -0.15288,0.07148 -0.1657723,0.07148 -0.012893,0 -0.2413693,-0.150003 -0.5077264,-0.333339 -0.3484324,-0.239831 -0.481019,-0.342245 -0.4726424,-0.365086 0.049056,-0.133763 0.097481,-0.38232 0.1075695,-0.552132 C 3.5945734,10.343138 3.3962886,9.998097 2.951943,9.7791577 2.732446,9.6710067 2.4944743,9.6045572 2.2460141,9.5820397 L 2.0789174,9.5668956 1.8847083,8.9954565 C 1.7778933,8.6811651 1.6903442,8.4097316 1.6901546,8.3922709 1.689965,8.3748102 1.7524044,8.3129043 1.8289088,8.2547024 2.0703812,8.0709979 2.2869037,7.7619846 2.3421912,7.5221646 2.4414539,7.0915928 2.2106441,6.5836004 1.7365703,6.1892456 L 1.6481963,6.1157326 1.8188031,5.5238116 C 1.9126371,5.1982552 1.9988103,4.919986 2.0102997,4.9054352 c 0.01149,-0.01455 0.06153,-0.026454 0.1112003,-0.026454 0.1417341,0 0.4290729,-0.06124 0.6029322,-0.1285015 C 2.9238271,4.6733384 3.1521076,4.501715 3.2572921,4.3498704 3.3531828,4.2114425 3.4337075,3.9728716 3.4539079,3.7673568 3.4689217,3.6146001 3.4421879,3.3449968 3.3929861,3.1530255 L 3.3655953,3.0461474 3.8415272,2.6768262 C 4.1032896,2.4736997 4.3300777,2.3001047 4.3455007,2.2910598 4.3627824,2.2809247 4.4413784,2.3112924 4.5503285,2.370201 5.150384,2.694645 5.6621067,2.654432 6.033146,2.2536754 6.182434,2.0924304 6.3262884,1.8371885 6.4071201,1.59013 l 0.047747,-0.1459361 0.2353502,0.013562 c 0.1294429,0.00746 0.4185674,0.013605 0.642499,0.013659 l 0.4071488,9.62e-5 0.077025,0.153442 c 0.1918661,0.3822201 0.4682726,0.6846424 0.7466542,0.8169308 0.1458216,0.069295 0.1813542,0.077264 0.3769385,0.084541 0.1772085,0.00659 0.2436407,-2.775e-4 0.3703771,-0.038304 0.1756149,-0.052693 0.3789206,-0.157279 0.5389222,-0.277237 l 0.1093478,-0.081981 0.4885471,0.3282898 c 0.268701,0.1805594 0.488547,0.3397985 0.488547,0.3538645 0,0.014066 -0.01422,0.092239 -0.0316,0.1737179 -0.01763,0.082636 -0.03196,0.2604454 -0.03241,0.4021158 -0.0013,0.4142497 0.08232,0.6465113 0.316434,0.8787556 0.22851,0.2266828 0.502254,0.3329578 0.919059,0.3568041 l 0.229671,0.013141 0.238359,0.5956312 0.238359,0.5956309 -0.18746,0.1728801 c -0.41355,0.3813847 -0.595075,0.7816326 -0.530764,1.1702957 0.0414,0.2501854 0.167564,0.4753476 0.395711,0.7062006 0.104885,0.10613 0.213919,0.2082815 0.242297,0.2270035 l 0.0516,0.03404 -0.157417,0.56479 c -0.08658,0.3106348 -0.170003,0.5775377 -0.185385,0.5931172 -0.01538,0.015581 -0.06578,0.028327 -0.112005,0.028327 -0.0972,0 -0.36526,0.052587 -0.504803,0.09903 -0.402859,0.1340799 -0.681424,0.4018191 -0.797603,0.7666062 -0.05026,0.15781 -0.06027,0.512878 -0.02034,0.721694 0.01892,0.09894 0.03976,0.19961 0.04631,0.223703 0.01003,0.03686 -0.06746,0.106743 -0.488568,0.440662 L 10.065186,11.97206 9.9011252,11.88671 C 9.8108922,11.83976 9.6473454,11.770311 9.5376879,11.732366 9.357168,11.669896 9.3152913,11.663406 9.0949203,11.663736 8.8144929,11.664139 8.6958455,11.699546 8.4964918,11.842304 8.2967906,11.985307 8.063425,12.347747 7.9922564,12.625432 l -0.027051,0.105551 h -0.616879 -0.616879 z m 1.0034751,-1.422918 c 1.3640591,-0.161761 2.5348418,-0.979373 3.1596238,-2.2065099 0.188498,-0.3702298 0.30693,-0.7229122 0.389203,-1.1590193 0.0501,-0.2655573 0.06067,-0.9436607 0.0193,-1.2381178 C 11.133867,5.6292816 10.711768,4.8047023 10.028972,4.1549326 9.466062,3.6192512 8.8076726,3.2757546 8.0202842,3.106955 7.7668457,3.0526232 7.719179,3.0492251 7.2112858,3.0492818 6.7313578,3.0493357 6.6469845,3.0546246 6.4493671,3.0970353 5.3239888,3.3385564 4.4375566,3.9253173 3.8212937,4.8366506 3.0091764,6.037614 2.9013657,7.5918641 3.5386898,8.9107988 3.7387189,9.3247569 3.9604475,9.6337016 4.3185222,9.997375 c 0.8826119,0.896411 2.1198531,1.327805 3.379675,1.178404 z"
     id="path21" /><g
     id="g63"
     style="display:inline;mix-blend-mode:normal;fill:#4a4940;fill-opacity:0.682415;stroke:#33332f;stroke-width:0.04;stroke-dasharray:none;stroke-opacity:0.898039;filter:url(#filter1)"><path
       style="display:inline;fill:#4a4940;fill-opacity:0.682415;fill-rule:evenodd;stroke:#33332f;stroke-width:0.04;stroke-linecap:round;stroke-linejoin:round;stroke-dasharray:none;stroke-opacity:0.898039;paint-order:fill markers stroke"
       d="m 6.3629338,1.3192728 -0.1094334,-0.2108014 0.130195,0.00471 c 0.071608,0.0026 0.4416458,0.012846 0.8223078,0.022782 0.3806624,0.00993 0.6928624,0.019014 0.693778,0.02017 9.209e-4,0.00114 -0.029754,0.085766 -0.068154,0.1880189 l -0.069817,0.185922 H 7.1170884 6.4723664 Z"
       id="path99" /><path
       style="display:inline;fill:#4a4940;fill-opacity:0.682415;fill-rule:evenodd;stroke:#33332f;stroke-width:0.04;stroke-linecap:round;stroke-linejoin:round;stroke-dasharray:none;stroke-opacity:0.898039;paint-order:fill markers stroke"
       d="M 12.519315,5.3248296 C 12.396656,5.033021 12.282309,4.761717 12.265212,4.7219316 l -0.03107,-0.072337 0.254057,-0.1110907 c 0.139732,-0.061101 0.256589,-0.1110908 0.259681,-0.1110908 0.0056,0 0.508673,1.3191343 0.504937,1.3241386 -0.0019,0.00259 -0.493826,0.103727 -0.504896,0.1038011 -0.0032,2.04e-5 -0.105931,-0.238715 -0.228594,-0.5305237 z"
       id="path105" /><path
       style="display:inline;fill:#4a4940;fill-opacity:0.682415;fill-rule:evenodd;stroke:#33332f;stroke-width:0.04;stroke-linecap:round;stroke-linejoin:round;stroke-dasharray:none;stroke-opacity:0.898039;paint-order:fill markers stroke"
       d="m 7.3969525,13.159476 c -0.4253268,-0.0087 -0.7739759,-0.01621 -0.774776,-0.01673 -8.091e-4,-5.18e-4 0.024111,-0.118069 0.055356,-0.261214 l 0.056811,-0.260265 0.6291907,-0.002 c 0.3460549,-0.0011 0.6291932,-0.0011 0.629196,0 3.1e-6,0.0011 0.043873,0.127192 0.097492,0.28018 0.053617,0.152987 0.093563,0.277635 0.088768,0.276996 -0.00479,-6.47e-4 -0.3567119,-0.0083 -0.7820387,-0.01695 z"
       id="path111" /><path
       style="fill:#4a4940;fill-opacity:0.682415;fill-rule:evenodd;stroke:#33332f;stroke-width:0.04;stroke-linecap:round;stroke-linejoin:round;stroke-dasharray:none;stroke-opacity:0.898039;paint-order:fill markers stroke"
       d="M 12.577382,9.4965206 12.392118,9.3141027 12.557162,8.7219622 12.722208,8.1298218 12.97912,8.115585 c 0.141303,-0.00784 0.25827,-0.012865 0.25993,-0.011185 0.0021,0.00218 -0.45776,1.5230706 -0.474612,1.5695955 -9.91e-4,0.00271 -0.08516,-0.077138 -0.187056,-0.1774695 z"
       id="path107" /><path
       style="fill:#4a4940;fill-opacity:0.682415;fill-rule:evenodd;stroke:#33332f;stroke-width:0.04;stroke-linecap:round;stroke-linejoin:round;stroke-dasharray:none;stroke-opacity:0.898039;paint-order:fill markers stroke"
       d="m 11.259523,11.320989 -0.224842,-0.181496 -0.01798,-0.05618 c -0.02561,-0.07999 -0.06271,-0.26908 -0.07257,-0.369724 -0.04531,-0.462888 0.105942,-0.8520146 0.421023,-1.0832015 0.224108,-0.1644327 0.51557,-0.2617026 0.900888,-0.3006533 l 0.125492,-0.012685 0.186011,0.1793367 c 0.102305,0.098636 0.184684,0.1806552 0.18306,0.1822667 -0.0015,0.00161 -0.0534,0.0114 -0.115083,0.021758 -0.658588,0.1105824 -1.060256,0.3780564 -1.202151,0.8005304 -0.04314,0.128452 -0.05233,0.194699 -0.05229,0.376977 5.9e-5,0.19315 0.01098,0.275703 0.06375,0.48237 0.01922,0.07524 0.03373,0.13802 0.03224,0.139503 -0.0014,0.0015 -0.103906,-0.07899 -0.227556,-0.178802 z"
       id="path108" /><path
       style="display:inline;fill:#4a4940;fill-opacity:0.682415;fill-rule:evenodd;stroke:#33332f;stroke-width:0.04;stroke-linecap:round;stroke-linejoin:round;stroke-dasharray:none;stroke-opacity:0.898039;paint-order:fill markers stroke"
       d="M 10.485515,2.4889457 C 10.232308,2.3211144 10.020301,2.1809693 10.01439,2.1775127 c -0.0089,-0.00524 -7.32e-4,-0.036122 0.04831,-0.1822962 l 0.05905,-0.176012 0.562894,0.3519891 c 0.309593,0.1935941 0.562918,0.3540848 0.562945,0.3566459 3.1e-5,0.00257 -0.06784,0.063516 -0.15082,0.1354559 l -0.150873,0.1307985 z"
       id="path103" /><path
       style="fill:#4a4940;fill-opacity:0.682415;fill-rule:evenodd;stroke:#33332f;stroke-width:0.04;stroke-linecap:round;stroke-linejoin:round;stroke-dasharray:none;stroke-opacity:0.898039;paint-order:fill markers stroke"
       d="M 8.9129092,2.5488907 C 8.9015599,2.5471101 8.8662651,2.5417886 8.83448,2.5370653 8.5175639,2.4900546 8.2096906,2.2672087 7.9636543,1.9067427 7.9342271,1.8636275 7.8740976,1.7621703 7.8300361,1.6812824 l -0.080112,-0.1470686 0.014797,-0.035076 c 0.00814,-0.019293 0.041863,-0.1043522 0.074946,-0.1890216 l 0.060152,-0.1539442 0.053249,0.096914 c 0.2661913,0.4844615 0.569579,0.7482293 0.9639672,0.838081 0.0869,0.019797 0.2819652,0.027269 0.3858004,0.014776 0.2301624,-0.02769 0.4892577,-0.1181352 0.7477413,-0.2610191 0.06558,-0.036252 0.07598,-0.040009 0.07117,-0.025719 -0.0031,0.00923 -0.0313,0.089306 -0.06267,0.1779999 l -0.05704,0.161264 -0.076056,0.056017 C 9.8151581,2.2961116 9.7084148,2.358104 9.5774951,2.4168733 9.379234,2.505872 9.2213198,2.5445816 9.0367435,2.5494288 c -0.056758,0.00148 -0.1124843,0.00125 -0.1238363,-5.29e-4 z"
       id="path102" /><path
       style="fill:#4a4940;fill-opacity:0.682415;fill-rule:evenodd;stroke:#33332f;stroke-width:0.04;stroke-linecap:round;stroke-linejoin:round;stroke-dasharray:none;stroke-opacity:0.898039;paint-order:fill markers stroke"
       d="M 12.071389,4.6327789 C 11.815517,4.6116153 11.604626,4.5563994 11.424213,4.4633297 11.029786,4.2598561 10.838359,3.889473 10.856815,3.3654967 c 0.006,-0.1713222 0.04566,-0.4399575 0.07972,-0.540455 0.0064,-0.019422 0.05056,-0.063816 0.160237,-0.1617463 0.08315,-0.074238 0.151909,-0.134283 0.152816,-0.1334337 9.14e-4,8.56e-4 -0.0059,0.057383 -0.01536,0.1256284 -0.02361,0.1723484 -0.02564,0.5679008 -0.0036,0.7019803 0.03662,0.2227287 0.09319,0.383447 0.186478,0.5297393 0.220227,0.3453308 0.59884,0.5192555 1.176576,0.540487 l 0.144357,0.0053 -0.211986,0.099562 -0.211984,0.099562 -0.103437,0.00181 c -0.0569,9.877e-4 -0.119541,4.609e-4 -0.139234,-0.00115 z"
       id="path104" /><path
       style="fill:#4a4940;fill-opacity:0.682415;fill-rule:evenodd;stroke:#33332f;stroke-width:0.04;stroke-linecap:round;stroke-linejoin:round;stroke-dasharray:none;stroke-opacity:0.898039;paint-order:fill markers stroke"
       d="m 12.709102,8.0835123 c -0.33114,-0.2535709 -0.551691,-0.5743261 -0.613228,-0.8918308 -0.01423,-0.07345 -0.01427,-0.2731757 -3.9e-5,-0.3468073 0.05853,-0.3031267 0.257806,-0.6084655 0.582943,-0.893227 0.139519,-0.1221936 0.113878,-0.1104258 0.35308,-0.1620404 0.117181,-0.025285 0.216553,-0.045898 0.220826,-0.04581 0.0042,9.07e-5 -0.03328,0.04281 -0.08345,0.094932 -0.361052,0.375105 -0.575966,0.7285647 -0.643639,1.0585688 -0.01848,0.090128 -0.01879,0.285895 -5.5e-4,0.3672476 0.06769,0.302272 0.273418,0.5531593 0.63894,0.7792042 0.06922,0.042808 0.09639,0.063382 0.0838,0.063469 -0.01024,6.95e-5 -0.103851,0.00547 -0.208016,0.012013 -0.282097,0.017707 -0.257394,0.020373 -0.330647,-0.035719 z"
       id="path106" /><path
       style="fill:#4a4940;fill-opacity:0.682415;fill-rule:evenodd;stroke:#33332f;stroke-width:0.04;stroke-linecap:round;stroke-linejoin:round;stroke-dasharray:none;stroke-opacity:0.898039;paint-order:fill markers stroke"
       d="m 10.131374,12.16416 -0.07907,-0.241023 0.487543,-0.392754 c 0.268148,-0.216013 0.490822,-0.391914 0.494832,-0.39089 0.01078,0.0027 0.454741,0.372457 0.454268,0.378277 -3.1e-4,0.0039 -1.181231,0.824654 -1.257173,0.873654 l -0.02132,0.01376 z"
       id="path109" /><path
       style="display:inline;fill:#4a4940;fill-opacity:0.682415;fill-rule:evenodd;stroke:#33332f;stroke-width:0.04;stroke-linecap:round;stroke-linejoin:round;stroke-dasharray:none;stroke-opacity:0.898039;paint-order:fill markers stroke"
       d="M 3.188271,2.8812852 C 3.0728706,2.7732211 2.9774677,2.6822026 2.9762648,2.6790221 2.9750498,2.6758421 3.2346659,2.4878847 3.5531635,2.2613409 3.8716607,2.0347971 4.14286,1.8417332 4.1558284,1.83231 l 0.023577,-0.017133 0.1109032,0.2440315 c 0.060997,0.1342173 0.1109022,0.2479876 0.1109009,0.2528231 -9e-7,0.00485 -0.051747,0.04776 -0.1149919,0.095387 -0.063245,0.047627 -0.288946,0.2179391 -0.5015592,0.3784709 L 3.3980886,3.0777651 Z"
       id="path97" /><path
       style="fill:#4a4940;fill-opacity:0.682415;fill-rule:evenodd;stroke:#33332f;stroke-width:0.04;stroke-linecap:round;stroke-linejoin:round;stroke-dasharray:none;stroke-opacity:0.898039;paint-order:fill markers stroke"
       d="M 5.1367706,2.6181829 C 4.9143513,2.5790366 4.6702741,2.4830451 4.4708189,2.3562743 L 4.4012095,2.3120316 4.2923817,2.0746878 C 4.232527,1.9441488 4.1843804,1.836432 4.1853907,1.8353178 c 0.00103,-0.00112 0.052174,0.027908 0.1137034,0.064498 C 5.1180348,2.3868195 5.709065,2.2755023 6.0744938,1.5654312 6.1303032,1.4569886 6.2042917,1.2771798 6.2339105,1.1780177 L 6.2521645,1.1169017 6.3622654,1.3294467 6.472366,1.541992 6.460593,1.580903 C 6.4333027,1.671101 6.3646491,1.8374828 6.3097665,1.9464326 6.2220242,2.1206113 6.1384554,2.236604 6.0161406,2.3539806 5.8720233,2.4922792 5.7485025,2.5621461 5.5678743,2.6075309 5.4565405,2.6355039 5.2624417,2.6403015 5.1367724,2.6181829 Z"
       id="path98" /><path
       style="fill:#4a4940;fill-opacity:0.682415;fill-rule:evenodd;stroke:#33332f;stroke-width:0.04;stroke-linecap:round;stroke-linejoin:round;stroke-dasharray:none;stroke-opacity:0.898039;paint-order:fill markers stroke"
       d="m 1.8272144,4.7248949 c -0.1029,-0.097256 -0.1869395,-0.179509 -0.1867543,-0.1827856 1.853e-4,-0.00328 0.016772,-0.00595 0.036856,-0.00595 0.089993,0 0.3103676,-0.034759 0.4525835,-0.071387 0.3496036,-0.090042 0.6046425,-0.2617117 0.755278,-0.5083886 0.1730269,-0.2833439 0.2086327,-0.6957719 0.1028643,-1.1914882 -0.00884,-0.041483 -0.015363,-0.076131 -0.014466,-0.076997 9.091e-4,-8.796e-4 0.095721,0.085936 0.2107325,0.1928899 0.2335934,0.217233 0.2213998,0.200417 0.2615213,0.3606538 0.085207,0.3403 0.073995,0.6679334 -0.031573,0.9225342 C 3.2315296,4.6046699 2.7840239,4.8513312 2.0840824,4.8971575 l -0.069776,0.00458 z"
       id="path100" /><path
       style="fill:#4a4940;fill-opacity:0.682415;fill-rule:evenodd;stroke:#33332f;stroke-width:0.04;stroke-linecap:round;stroke-linejoin:round;stroke-dasharray:none;stroke-opacity:0.898039;paint-order:fill markers stroke"
       d="M 1.4017008,6.1365953 C 1.2900654,6.128884 1.195511,6.1213721 1.1915799,6.1198832 c -0.00582,-0.0022 0.4409139,-1.5641568 0.4498633,-1.572903 0.00148,-0.00146 0.085075,0.078618 0.1857712,0.1779147 l 0.183085,0.1805399 -0.1789577,0.623627 -0.178958,0.6236268 -0.023854,-0.00104 C 1.6154085,6.1510705 1.5133371,6.1443012 1.4017013,6.1366008 Z"
       id="path101" /><path
       style="fill:#4a4940;fill-opacity:0.682415;fill-rule:evenodd;stroke:#33332f;stroke-width:0.04;stroke-linecap:round;stroke-linejoin:round;stroke-dasharray:none;stroke-opacity:0.898039;paint-order:fill markers stroke"
       d="M 3.7870757,12.050393 C 3.4166022,11.853254 3.1051888,11.687694 3.0950465,11.682484 c -0.017446,-0.0089 -0.00846,-0.01674 0.1663862,-0.144167 0.1016543,-0.07408 0.1897323,-0.137396 0.1957276,-0.1407 0.00729,-0.0039 0.1798799,0.104581 0.5194489,0.326846 0.2797019,0.183072 0.5117225,0.335554 0.5156015,0.338848 0.00754,0.0064 -0.018879,0.346976 -0.026845,0.346061 -0.00258,-2.97e-4 -0.3078152,-0.161838 -0.6782888,-0.358979 z"
       id="path113" /><path
       style="display:inline;fill:#4a4940;fill-opacity:0.682415;fill-rule:evenodd;stroke:#33332f;stroke-width:0.04;stroke-linecap:round;stroke-linejoin:round;stroke-dasharray:none;stroke-opacity:0.898039;paint-order:fill markers stroke"
       d="M 1.4784599,9.1347896 C 1.3308651,8.7300562 1.2109557,8.3982443 1.2119944,8.3974298 c 0.00104,-8.25e-4 0.1081544,-0.00334 0.2380345,-0.00562 l 0.2361456,-0.00414 0.1948758,0.5853395 c 0.1071818,0.3219369 0.196222,0.5891882 0.1978671,0.5938917 0.00245,0.00696 -0.2954285,0.281785 -0.3238842,0.2988485 -0.0051,0.00305 -0.1099454,-0.2740251 -0.2765733,-0.7309494 z"
       id="path115" /><path
       style="display:inline;fill:#4a4940;fill-opacity:0.682415;fill-rule:evenodd;stroke:#33332f;stroke-width:0.04;stroke-linecap:round;stroke-linejoin:round;stroke-dasharray:none;stroke-opacity:0.898039;paint-order:fill markers stroke"
       d="M 1.3123411,8.2908117 C 1.5845168,8.0311737 1.7423257,7.7813755 1.8057012,7.509864 1.8306097,7.4031491 1.8286056,7.1709545 1.8018134,7.0590708 1.7330813,6.7720834 1.5708564,6.5095014 1.2729075,6.2029696 l -0.08667,-0.089166 0.028615,-8.64e-5 c 0.015738,-4.72e-5 0.1257362,0.00586 0.2444391,0.013124 l 0.2158242,0.01321 0.034533,0.024875 C 2.0282729,6.3944414 2.2795586,6.6915971 2.3901759,6.9696765 2.4479609,7.114942 2.4725959,7.3035513 2.4519319,7.442477 2.405587,7.754048 2.1756277,8.064702 1.7926831,8.3330613 l -0.080994,0.056754 H 1.4601225 1.2085557 Z"
       id="path116" /><path
       style="display:inline;fill:#4a4940;fill-opacity:0.682415;fill-rule:evenodd;stroke:#33332f;stroke-width:0.04;stroke-linecap:round;stroke-linejoin:round;stroke-dasharray:none;stroke-opacity:0.898039;paint-order:fill markers stroke"
       d="m 3.1139184,11.581392 c 0.077665,-0.303085 0.084508,-0.602686 0.018913,-0.828043 C 3.1066603,10.663439 3.0462,10.537543 2.9910915,10.458218 2.7947458,10.175592 2.393621,9.9710852 1.8654557,9.8843312 c -0.05535,-0.00909 -0.1037534,-0.01737 -0.1075626,-0.0184 -0.00382,-0.00104 0.068107,-0.068731 0.1598159,-0.1504522 l 0.1667399,-0.1485832 0.053533,6.51e-5 c 0.1178375,1.434e-4 0.3456874,0.034799 0.4961163,0.075461 0.2896222,0.078284 0.4949193,0.1866334 0.6615126,0.3491281 0.091512,0.08926 0.1511124,0.169139 0.1970788,0.264126 0.1347745,0.278504 0.1325948,0.635471 -0.00645,1.054327 l -0.029082,0.08761 -0.1769793,0.1347 c -0.097339,0.0741 -0.1797836,0.135775 -0.1832114,0.137089 -0.00343,0.0013 0.0042,-0.03829 0.016934,-0.08803 z"
       id="path114" /><path
       style="fill:#4a4940;fill-opacity:0.682415;fill-rule:evenodd;stroke:#33332f;stroke-width:0.04;stroke-linecap:round;stroke-linejoin:round;stroke-dasharray:none;stroke-opacity:0.898039;paint-order:fill markers stroke"
       d="m 8.0762232,12.926507 c -0.051676,-0.139171 -0.093934,-0.260059 -0.093907,-0.26864 2.66e-5,-0.0086 0.011263,-0.05086 0.02496,-0.09397 0.1975731,-0.621552 0.6277068,-0.960907 1.1617871,-0.916598 0.2536512,0.02104 0.536384,0.114913 0.8208377,0.272526 l 0.06944,0.03848 0.07978,0.222233 c 0.04388,0.122227 0.07912,0.222847 0.07833,0.223597 -7.87e-4,7.39e-4 -0.06794,-0.02991 -0.149223,-0.06813 -0.202162,-0.09506 -0.3698377,-0.149246 -0.5513701,-0.178171 -0.075843,-0.01208 -0.2758188,-0.0121 -0.3425172,-4e-5 -0.2107649,0.03813 -0.3752764,0.120692 -0.5332232,0.26759 -0.091376,0.08499 -0.1582682,0.165416 -0.2339458,0.281302 -0.061082,0.09353 -0.1530711,0.271099 -0.2008773,0.387748 -0.01864,0.04548 -0.034389,0.08323 -0.035,0.08389 -6.229e-4,6.78e-4 -0.04339,-0.11266 -0.095066,-0.251832 z"
       id="path110" /><path
       style="display:inline;fill:#4a4940;fill-opacity:0.682415;fill-rule:evenodd;stroke:#33332f;stroke-width:0.04;stroke-linecap:round;stroke-linejoin:round;stroke-dasharray:none;stroke-opacity:0.898039;paint-order:fill markers stroke"
       d="M 6.5593755,13.046805 C 6.4859669,12.886934 6.3772246,12.720184 6.274412,12.609827 6.0834765,12.404881 5.877509,12.290132 5.6057527,12.237298 c -0.1248071,-0.02427 -0.37573,-0.02413 -0.5230062,2.49e-4 -0.1719522,0.02847 -0.3547717,0.0777 -0.5254868,0.141492 -0.048896,0.01827 -0.090248,0.03192 -0.091893,0.03033 -0.00316,-0.0032 0.019505,-0.291469 0.024996,-0.317865 0.00243,-0.01172 0.037393,-0.03153 0.1416786,-0.08029 0.2794618,-0.130666 0.5319258,-0.210381 0.7981613,-0.25202 0.054728,-0.0086 0.1294526,-0.01263 0.2358612,-0.01288 0.1709898,-3.7e-4 0.235453,0.0082 0.3657378,0.04867 0.3248267,0.100888 0.5461713,0.360809 0.6553536,0.769545 0.01109,0.04153 0.020234,0.08602 0.020311,0.09886 1.429e-4,0.02349 -0.09034,0.43306 -0.1013363,0.458692 -0.00444,0.01035 -0.015835,-0.008 -0.046755,-0.07528 z"
       id="path112" /></g><path
     id="path62"
     style="display:inline;opacity:1;fill:#3a3931;fill-opacity:0.682415;fill-rule:evenodd;stroke:none;stroke-width:0.0112657;stroke-linecap:round;stroke-linejoin:round;stroke-dasharray:none;stroke-opacity:0.983803;paint-order:fill markers stroke;filter:url(#filter68)"
     d="M 7.2165742,2.4400371 A 4.7035549,4.7035549 0 0 0 2.5128613,7.14375 4.7035549,4.7035549 0 0 0 7.2165742,11.847463 4.7035549,4.7035549 0 0 0 11.920287,7.14375 4.7035549,4.7035549 0 0 0 7.2165742,2.4400371 Z m 0,0.5655885 A 4.1382081,4.1382081 0 0 1 11.354698,7.14375 4.1382081,4.1382081 0 0 1 7.2165742,11.281874 4.1382081,4.1382081 0 0 1 3.0784498,7.14375 4.1382081,4.1382081 0 0 1 7.2165742,3.0056256 Z" /><path
     style="display:inline;fill:#ecebe7;fill-opacity:1;fill-rule:evenodd;stroke:#cdcdcd;stroke-width:0.00979429;stroke-linecap:round;stroke-linejoin:round;stroke-dasharray:none;stroke-opacity:1;paint-order:fill markers stroke;filter:url(#filter2)"
     d="M 6.7730814,1.5042316 C 7.0990521,0.17809805 7.0990521,0.17809805 7.0990521,0.17809805 L 7.4394493,1.5300743 Z"
     id="path55"
     transform="matrix(0.64652349,0,0,0.61154587,2.5118978,5.1422951e-4)" /></svg>
