<?xml version="1.0" encoding="UTF-8"?>
<!-- IN-12 Nixie tube (front view). Rendered to match 19.51 mm × 45 mm face dimensions at 75 DPI. -->
<svg xmlns="http://www.w3.org/2000/svg" width="57.64" height="132.87" viewBox="0 0 60 69">
  <defs>
    <radialGradient id="panelShadow" cx="0.5" cy="0.08" r="0.62">
      <stop offset="0%" stop-color="#000" stop-opacity="0"/>
      <stop offset="60%" stop-color="#000" stop-opacity="0.35"/>
      <stop offset="100%" stop-color="#000" stop-opacity="0.55"/>
    </radialGradient>
    <linearGradient id="glassBody" x1="0" y1="0" x2="0" y2="1">
      <stop offset="0%" stop-color="#2f3039" stop-opacity="0.96"/>
      <stop offset="40%" stop-color="#14151d" stop-opacity="0.95"/>
      <stop offset="100%" stop-color="#09090f" stop-opacity="0.98"/>
    </linearGradient>
    <linearGradient id="glassHighlight" x1="0" y1="0" x2="1" y2="0">
      <stop offset="0%" stop-color="#ffffff" stop-opacity="0.65"/>
      <stop offset="35%" stop-color="#d3dae9" stop-opacity="0.18"/>
      <stop offset="100%" stop-color="#11121a" stop-opacity="0"/>
    </linearGradient>
    <linearGradient id="rimTint" x1="0" y1="0" x2="0" y2="1">
      <stop offset="0%" stop-color="#e5dfd4" stop-opacity="0.42"/>
      <stop offset="55%" stop-color="#a09684" stop-opacity="0.22"/>
      <stop offset="100%" stop-color="#42372c" stop-opacity="0.4"/>
    </linearGradient>
    <linearGradient id="baseBakelite" x1="0" y1="0" x2="0" y2="1">
      <stop offset="0%" stop-color="#7b5036"/>
      <stop offset="50%" stop-color="#563521"/>
      <stop offset="100%" stop-color="#2b1c13"/>
    </linearGradient>
    <radialGradient id="getterFlash" cx="0.5" cy="0.35" r="0.55">
      <stop offset="0%" stop-color="#ece3d7" stop-opacity="0.55"/>
      <stop offset="100%" stop-color="#b5ac9b" stop-opacity="0.08"/>
    </radialGradient>
    <radialGradient id="meshGlow" cx="0.5" cy="0.45" r="0.55">
      <stop offset="0%" stop-color="#ffad66" stop-opacity="0.55"/>
      <stop offset="55%" stop-color="#ff7530" stop-opacity="0.32"/>
      <stop offset="100%" stop-color="#ff5a13" stop-opacity="0"/>
    </radialGradient>
    <linearGradient id="meshLines" x1="0" y1="0" x2="1" y2="1">
      <stop offset="0%" stop-color="#4c3f34"/>
      <stop offset="100%" stop-color="#34281f"/>
    </linearGradient>
    <filter id="glassBloom" x="-30%" y="-30%" width="160%" height="160%">
      <feGaussianBlur stdDeviation="1.6" result="blur"/>
      <feColorMatrix in="blur" type="matrix" values="1 0 0 0 0  0 1 0 0 0  0 0 1 0 0  0 0 0 0.55 0"/>
    </filter>
  </defs>

  <!-- Panel inset shadow -->
  <ellipse cx="30" cy="8" rx="21" ry="7.5" fill="url(#panelShadow)"/>

  <!-- Bakelite socket -->
  <path d="M8 63 C8 60 11 57 15 57 L45 57 C49 57 52 60 52 63 Z" fill="url(#baseBakelite)" stroke="#140d08" stroke-width="0.6"/>

  <!-- Glass envelope -->
  <path d="M9 21 C9 8.5 18 2 30 2 C42 2 51 8.5 51 21 V55 C51 63 43 67.5 30 67.5 C17 67.5 9 63 9 55 Z"
        fill="url(#glassBody)"
        stroke="#05060a"
        stroke-width="1.1"/>
  <path d="M9 21 C9 8.5 18 2 30 2 C42 2 51 8.5 51 21 V55 C51 63 43 67.5 30 67.5 C17 67.5 9 63 9 55 Z"
        fill="url(#rimTint)"/>

  <!-- Dome highlight -->
  <ellipse cx="30" cy="6.5" rx="8.2" ry="3.4" fill="url(#glassHighlight)" opacity="0.55"/>
  <circle cx="30" cy="3.6" r="1.1" fill="#e4ded2" opacity="0.7"/>

  <!-- Getter flash -->
  <ellipse cx="30" cy="15" rx="18" ry="5.6" fill="url(#getterFlash)" opacity="0.95"/>

  <!-- Anode mesh -->
  <g opacity="0.9">
    <rect x="15" y="20" width="30" height="32" rx="11" ry="11" fill="#18120f" stroke="#2c231e" stroke-width="0.8"/>
    <rect x="15" y="20" width="30" height="32" rx="11" ry="11" fill="url(#meshGlow)"/>
    <g stroke="url(#meshLines)" stroke-width="0.75" opacity="0.65">
      <line x1="18" y1="22" x2="18" y2="50"/>
      <line x1="22" y1="22" x2="22" y2="50"/>
      <line x1="26" y1="22" x2="26" y2="50"/>
      <line x1="30" y1="22" x2="30" y2="50"/>
      <line x1="34" y1="22" x2="34" y2="50"/>
      <line x1="38" y1="22" x2="38" y2="50"/>
    </g>
    <g stroke="url(#meshLines)" stroke-width="0.75" opacity="0.55">
      <line x1="16" y1="25" x2="44" y2="25"/>
      <line x1="16" y1="31" x2="44" y2="31"/>
      <line x1="16" y1="37" x2="44" y2="37"/>
      <line x1="16" y1="43" x2="44" y2="43"/>
      <line x1="16" y1="49" x2="44" y2="49"/>
    </g>
  </g>

  <!-- Cathode frame -->
  <g stroke="#322720" stroke-width="0.9" opacity="0.65">
    <line x1="22" y1="20" x2="22" y2="58"/>
    <line x1="38" y1="20" x2="38" y2="58"/>
  </g>

  <!-- Cathode deck -->
  <rect x="20" y="47" width="20" height="6.2" rx="2.1" fill="#2c2118" stroke="#16100b" stroke-width="0.6"/>
  <ellipse cx="30" cy="54.5" rx="9.6" ry="2.3" fill="#110c08" opacity="0.7"/>

  <!-- Lead wires -->
  <path d="M13 62 C13 60 15.5 58 18.5 58 L41.5 58 C44.5 58 47 60 47 62 Z"
        fill="#1b1310"
        opacity="0.55"/>

  <!-- Glass highlight strips -->
  <rect x="12" y="16" width="3" height="40" rx="1.5" fill="url(#glassHighlight)" filter="url(#glassBloom)" opacity="0.6"/>
  <rect x="42" y="17" width="1.8" height="38" rx="0.9" fill="#ffffff" opacity="0.08"/>

  <!-- Ageing scratches -->
  <line x1="18" y1="27" x2="19.5" y2="38" stroke="#ffffff" stroke-width="0.22" opacity="0.12"/>
  <line x1="40" y1="37" x2="41.2" y2="48" stroke="#ffffff" stroke-width="0.18" opacity="0.09"/>
  <ellipse cx="30" cy="52" rx="4.4" ry="1.3" fill="#c8c0af" opacity="0.26"/>
</svg>
