<?xml version="1.0" encoding="UTF-8"?>
<svg xmlns="http://www.w3.org/2000/svg" width="42" height="90" viewBox="0 0 42 90">
  <defs>
    <filter id="digitGlow" x="-45%" y="-45%" width="190%" height="190%">
      <feGaussianBlur stdDeviation="2.9" result="blur"/>
      <feColorMatrix in="blur" type="matrix" values="1 0 0 0 0  0 0.72 0 0 0  0 0 0.48 0 0  0 0 0 0.62 0"/>
    </filter>
    <linearGradient id="digitCore" x1="0" y1="0" x2="0" y2="1">
      <stop offset="0%" stop-color="#ffe8c5"/>
      <stop offset="55%" stop-color="#ffad63"/>
      <stop offset="100%" stop-color="#ff7829"/>
    </linearGradient>
  </defs>

  <!-- Unlit mesh impression -->
  <g stroke="#2d2621" stroke-width="0.8" opacity="0.25">
    <line x1="11.5" y1="18" x2="11.5" y2="70"/>
    <line x1="30.5" y1="18" x2="30.5" y2="70"/>
    <line x1="7.8" y1="36" x2="34.2" y2="36"/>
  </g>

  <!-- Cathode glow halo -->
  <path d="M21 16 C13.2 16 7.2 24.4 7.2 36.3 C7.2 48.4 13.4 65 21 65 C28.6 65 34.8 48.4 34.8 36.3 C34.8 24.4 28.8 16 21 16 Z"
        fill="none"
        stroke="#ff8b36"
        stroke-width="6.6"
        stroke-linecap="round"
        stroke-linejoin="round"
        filter="url(#digitGlow)"/>

  <!-- Cathode wire -->
  <path d="M21 16 C14 16 9.2 23.4 9.2 36.3 C9.2 49.4 14.7 64.5 21 64.5 C27.3 64.5 32.8 49.4 32.8 36.3 C32.8 23.4 28 16 21 16 Z"
        fill="none"
        stroke="url(#digitCore)"
        stroke-width="3.4"
        stroke-linecap="round"
        stroke-linejoin="round"/>

  <!-- Layered wire offsets for realism -->
  <path d="M20.2 19.4 C15.2 20 12 26.5 12 36.3 C12 46.4 15.6 60.2 20.5 61.8"
        fill="none"
        stroke="#ffd8a5"
        stroke-width="1.1"
        stroke-linecap="round"
        opacity="0.55"/>
  <path d="M22.1 18.6 C26.4 20.4 30 26.6 30 36.3 C30 46.8 26.6 57.7 22.6 60.9"
        fill="none"
        stroke="#ff7c2b"
        stroke-width="1.2"
        stroke-linecap="round"
        opacity="0.45"/>
</svg>
