<?xml version="1.0" encoding="UTF-8"?>
<svg xmlns="http://www.w3.org/2000/svg" width="42" height="90" viewBox="0 0 42 90">
  <defs>
    <filter id="digitGlow" x="-40%" y="-40%" width="180%" height="180%">
      <feGaussianBlur stdDeviation="2.5" result="blur"/>
      <feColorMatrix in="blur" type="matrix" values="1 0 0 0 0  0 0.74 0 0 0  0 0 0.5 0 0  0 0 0 0.55 0"/>
    </filter>
    <linearGradient id="digitCore" x1="0" y1="0" x2="0" y2="1">
      <stop offset="0%" stop-color="#ffe1b5"/>
      <stop offset="60%" stop-color="#ff9f59"/>
      <stop offset="100%" stop-color="#ff7626"/>
    </linearGradient>
  </defs>

  <!-- Structural wires -->
  <g stroke="#3c3029" stroke-width="1.1" opacity="0.55">
    <line x1="11" y1="22" x2="11" y2="72"/>
    <line x1="34" y1="20" x2="34" y2="74"/>
    <line x1="6" y1="55" x2="33" y2="78"/>
  </g>

  <!-- Glow halo -->
  <path d="M33 30 C33 20 27 14 19 14 C12 14 8.5 18 8.5 23.5 C8.5 29.5 13 32 20.8 36.5 C28.6 41 32.5 45.6 32.5 50.6 C32.5 56.8 27.5 62 19.2 62 C13.4 62 8.8 59.2 6 55 L33 76"
        fill="none"
        stroke="#ff8d38"
        stroke-width="6.4"
        stroke-linecap="round"
        stroke-linejoin="round"
        filter="url(#digitGlow)"/>

  <!-- Cathode core -->
  <path d="M33 30 C33 20 27 14 19 14 C12 14 8.5 18 8.5 23.5 C8.5 29.5 13 32 20.8 36.5 C28.6 41 32.5 45.6 32.5 50.6 C32.5 56.8 27.5 62 19.2 62 C13.4 62 8.8 59.2 6 55 L33 76"
        fill="none"
        stroke="url(#digitCore)"
        stroke-width="3.2"
        stroke-linecap="round"
        stroke-linejoin="round"/>

  <!-- Core highlight -->
  <path d="M9.5 24.2 C10 21 13 18.5 18.5 18.5 C25.5 18.5 29.5 22.5 29.5 27.8"
        fill="none"
        stroke="#ffd5a0"
        stroke-width="2.2"
        stroke-linecap="round"
        opacity="0.55"/>
</svg>
