<?xml version="1.0" encoding="UTF-8"?>
<svg xmlns="http://www.w3.org/2000/svg" width="42" height="90" viewBox="0 0 42 90">
  <defs>
    <filter id="digitGlow" x="-45%" y="-45%" width="190%" height="190%">
      <feGaussianBlur stdDeviation="2.6" result="blur"/>
      <feColorMatrix in="blur" type="matrix" values="1 0 0 0 0  0 0.75 0 0 0  0 0 0.55 0 0  0 0 0 0.58 0"/>
    </filter>
    <linearGradient id="digitCore" x1="0" y1="0" x2="0" y2="1">
      <stop offset="0%" stop-color="#ffe1b5"/>
      <stop offset="55%" stop-color="#ff9d57"/>
      <stop offset="100%" stop-color="#ff7424"/>
    </linearGradient>
  </defs>

  <!-- Structural wires -->
  <g stroke="#3c3028" stroke-width="1.1" opacity="0.55">
    <line x1="11" y1="22" x2="11" y2="74"/>
    <line x1="36" y1="14" x2="36" y2="76"/>
    <line x1="7" y1="58" x2="34" y2="76"/>
  </g>

  <!-- Glow halo -->
  <path d="M9 24 C11 17 17 13 25 13 C32.5 13 37.5 18.5 37.5 25 C37.5 31 33.5 34.5 26.5 36.3 C33.8 38.1 38.5 43.8 38.5 50.4 C38.5 60 31.5 67 23 67 C16 67 11.2 64 7.2 58.2 L34 76"
        fill="none"
        stroke="#ff8e38"
        stroke-width="6.5"
        stroke-linecap="round"
        stroke-linejoin="round"
        filter="url(#digitGlow)"/>

  <!-- Cathode core -->
  <path d="M9 24 C11 17 17 13 25 13 C32.5 13 37.5 18.5 37.5 25 C37.5 31 33.5 34.5 26.5 36.3 C33.8 38.1 38.5 43.8 38.5 50.4 C38.5 60 31.5 67 23 67 C16 67 11.2 64 7.2 58.2 L34 76"
        fill="none"
        stroke="url(#digitCore)"
        stroke-width="3.3"
        stroke-linecap="round"
        stroke-linejoin="round"/>

  <!-- Highlight -->
  <path d="M10.5 24.5 C11.5 20.2 16.5 16.5 24 16.5 C30 16.5 34 20.5 34 25.5"
        fill="none"
        stroke="#ffd6a6"
        stroke-width="2.4"
        stroke-linecap="round"
        opacity="0.55"/>
</svg>
