<?xml version="1.0" encoding="UTF-8"?>
<svg xmlns="http://www.w3.org/2000/svg" width="42" height="90" viewBox="0 0 42 90">
  <defs>
    <filter id="digitGlow" x="-45%" y="-45%" width="190%" height="190%">
      <feGaussianBlur stdDeviation="2.4" result="blur"/>
      <feColorMatrix in="blur" type="matrix" values="1 0 0 0 0  0 0.74 0 0 0  0 0 0.5 0 0  0 0 0 0.6 0"/>
    </filter>
    <linearGradient id="digitCore" x1="0" y1="0" x2="0" y2="1">
      <stop offset="0%" stop-color="#ffe2b8"/>
      <stop offset="60%" stop-color="#ff9f58"/>
      <stop offset="100%" stop-color="#ff7323"/>
    </linearGradient>
  </defs>

  <!-- Structural wires -->
  <g stroke="#3b3028" stroke-width="1.1" opacity="0.55">
    <line x1="9" y1="22" x2="9" y2="72"/>
    <line x1="32" y1="20" x2="32" y2="74"/>
    <line x1="4" y1="54" x2="31" y2="74"/>
  </g>

  <!-- Glow halo -->
  <path d="M32 26 C30 18 24 14 18 14 C11 14 7 18.5 7 24.5 C7 29.5 10.8 32.6 18.8 35.8 C27.4 39.2 32 43.2 32 50.2 C32 57.6 27 62.4 18 62.4 C12 62.4 6.8 59.5 4 54 L31 74"
        fill="none"
        stroke="#ff8f38"
        stroke-width="6.4"
        stroke-linecap="round"
        stroke-linejoin="round"
        filter="url(#digitGlow)"/>

  <!-- Cathode core -->
  <path d="M32 26 C30 18 24 14 18 14 C11 14 7 18.5 7 24.5 C7 29.5 10.8 32.6 18.8 35.8 C27.4 39.2 32 43.2 32 50.2 C32 57.6 27 62.4 18 62.4 C12 62.4 6.8 59.5 4 54 L31 74"
        fill="none"
        stroke="url(#digitCore)"
        stroke-width="3.2"
        stroke-linecap="round"
        stroke-linejoin="round"/>

  <!-- Highlight -->
  <path d="M8.8 24.7 C9.5 21.2 13.5 18 18.7 18 C24.5 18 28.5 21.8 29.5 26"
        fill="none"
        stroke="#ffd3a0"
        stroke-width="2.2"
        stroke-linecap="round"
        opacity="0.58"/>
</svg>
