<?xml version="1.0" encoding="UTF-8" standalone="no"?>
<svg
  width="40"
  height="24"
  viewBox="0 0 40 24"
  version="1.1"
  xmlns="http://www.w3.org/2000/svg">
  <title>Vintage Slider Handle (Horizontal)</title>
  <desc>Chrome and brass slider handle for horizontal orientation</desc>

  <defs>
    <!-- Drop shadow for depth -->
    <radialGradient id="sliderHandleShadowH" cx="0.6" cy="0.5" r="0.6">
      <stop offset="0%" stop-color="#000000" stop-opacity="0.45"/>
      <stop offset="70%" stop-color="#000000" stop-opacity="0.22"/>
      <stop offset="100%" stop-color="#000000" stop-opacity="0"/>
    </radialGradient>

    <!-- Main handle body - chrome/silver -->
    <linearGradient id="handleBodyH" x1="0" y1="0" x2="0" y2="1">
      <stop offset="0%" stop-color="#4a4e58"/>
      <stop offset="15%" stop-color="#b8bcc8"/>
      <stop offset="30%" stop-color="#6b707d"/>
      <stop offset="50%" stop-color="#959aa8"/>
      <stop offset="70%" stop-color="#4f5460"/>
      <stop offset="85%" stop-color="#a8adb8"/>
      <stop offset="100%" stop-color="#3d4148"/>
    </linearGradient>

    <!-- Handle top highlight -->
    <radialGradient id="handleHighlightH" cx="0.35" cy="0.5" r="0.55">
      <stop offset="0%" stop-color="#ffffff" stop-opacity="0.85"/>
      <stop offset="50%" stop-color="#d5dae5" stop-opacity="0.4"/>
      <stop offset="100%" stop-color="#6b707d" stop-opacity="0"/>
    </radialGradient>

    <!-- Brass center strip -->
    <linearGradient id="brassStripH" x1="0" y1="0" x2="0" y2="1">
      <stop offset="0%" stop-color="#7a5a2a"/>
      <stop offset="25%" stop-color="#d4a857"/>
      <stop offset="50%" stop-color="#9a7536"/>
      <stop offset="75%" stop-color="#c9a34d"/>
      <stop offset="100%" stop-color="#6b4d24"/>
    </linearGradient>

    <!-- Edge darkening -->
    <linearGradient id="edgeDarkH" x1="0" y1="0" x2="1" y2="0">
      <stop offset="0%" stop-color="#0a0b0d" stop-opacity="0.7"/>
      <stop offset="50%" stop-color="#0a0b0d" stop-opacity="0"/>
      <stop offset="100%" stop-color="#0a0b0d" stop-opacity="0.8"/>
    </linearGradient>

    <!-- Knurling texture -->
    <linearGradient id="knurlingGradH" x1="0" y1="0" x2="0" y2="1">
      <stop offset="0%" stop-color="#1a1d22"/>
      <stop offset="50%" stop-color="#4a4e58"/>
      <stop offset="100%" stop-color="#1a1d22"/>
    </linearGradient>
  </defs>

  <!-- Shadow beneath handle -->
  <ellipse
    cx="23"
    cy="12"
    rx="4"
    ry="10"
    fill="url(#sliderHandleShadowH)"/>

  <!-- Main handle body -->
  <g id="handle-body">
    <!-- Base shape with rounded ends -->
    <rect
      x="5"
      y="2"
      width="30"
      height="20"
      rx="10"
      ry="10"
      fill="url(#handleBodyH)"
      stroke="#1a1d24"
      stroke-width="0.6"/>

    <!-- Chrome highlight overlay -->
    <rect
      x="5"
      y="2"
      width="30"
      height="20"
      rx="10"
      ry="10"
      fill="url(#handleHighlightH)"
      opacity="0.75"/>

    <!-- Edge darkening for depth -->
    <rect
      x="5"
      y="2"
      width="30"
      height="20"
      rx="10"
      ry="10"
      fill="url(#edgeDarkH)"
      opacity="0.4"/>

    <!-- Top edge highlight -->
    <path
      d="M 12 5.5 Q 15 4 20 4 Q 25 4 28 5.5"
      fill="none"
      stroke="#ffffff"
      stroke-width="0.8"
      opacity="0.35"/>

    <!-- Bottom edge shadow -->
    <path
      d="M 12 18.5 Q 15 20 20 20 Q 25 20 28 18.5"
      fill="none"
      stroke="#0a0b0d"
      stroke-width="1.2"
      opacity="0.45"/>
  </g>

  <!-- Brass center stripe -->
  <g id="brass-detail">
    <rect
      x="10"
      y="8"
      width="20"
      height="8"
      rx="1.5"
      fill="url(#brassStripH)"
      stroke="#3d2a12"
      stroke-width="0.4"/>

    <!-- Brass highlight -->
    <rect
      x="11"
      y="9"
      width="18"
      height="2.5"
      rx="0.8"
      fill="#f4d882"
      opacity="0.25"/>

    <!-- Brass shadow -->
    <rect
      x="11"
      y="14"
      width="18"
      height="1.5"
      rx="0.6"
      fill="#2b1c13"
      opacity="0.4"/>
  </g>

  <!-- Knurling texture (vertical lines for grip) -->
  <g id="knurling" opacity="0.65">
    <line x1="8" y1="3" x2="8" y2="21" stroke="url(#knurlingGradH)" stroke-width="0.4"/>
    <line x1="10" y1="3" x2="10" y2="21" stroke="url(#knurlingGradH)" stroke-width="0.4"/>
    <line x1="12" y1="3" x2="12" y2="21" stroke="url(#knurlingGradH)" stroke-width="0.4"/>
    <line x1="14" y1="3" x2="14" y2="21" stroke="url(#knurlingGradH)" stroke-width="0.4"/>
    <line x1="16" y1="3" x2="16" y2="21" stroke="url(#knurlingGradH)" stroke-width="0.4"/>
    <line x1="18" y1="3" x2="18" y2="21" stroke="url(#knurlingGradH)" stroke-width="0.4"/>
    <line x1="20" y1="3" x2="20" y2="21" stroke="url(#knurlingGradH)" stroke-width="0.5" opacity="0.8"/>
    <line x1="22" y1="3" x2="22" y2="21" stroke="url(#knurlingGradH)" stroke-width="0.4"/>
    <line x1="24" y1="3" x2="24" y2="21" stroke="url(#knurlingGradH)" stroke-width="0.4"/>
    <line x1="26" y1="3" x2="26" y2="21" stroke="url(#knurlingGradH)" stroke-width="0.4"/>
    <line x1="28" y1="3" x2="28" y2="21" stroke="url(#knurlingGradH)" stroke-width="0.4"/>
    <line x1="30" y1="3" x2="30" y2="21" stroke="url(#knurlingGradH)" stroke-width="0.4"/>
    <line x1="32" y1="3" x2="32" y2="21" stroke="url(#knurlingGradH)" stroke-width="0.4"/>
  </g>

  <!-- Left cap detail -->
  <ellipse
    cx="6"
    cy="12"
    rx="2"
    ry="5"
    fill="#a8adb8"
    opacity="0.5"/>

  <!-- Right cap detail -->
  <ellipse
    cx="34"
    cy="12"
    rx="2"
    ry="5"
    fill="#2a2d34"
    opacity="0.6"/>

  <!-- Center shine -->
  <ellipse
    cx="18"
    cy="12"
    rx="8"
    ry="4"
    fill="#ffffff"
    opacity="0.15"/>
</svg>
